<svg width="256" height="256" viewBox="0 0 256 256" fill="none" xmlns="http://www.w3.org/2000/svg">
<path d="M52.736 0H202.752C232.448 0 256 23.552 256 52.736V202.752C256 232.448 232.448 256 203.264 256H52.736C23.552 256 0 232.448 0 203.264V52.736C0 23.552 23.552 0 52.736 0Z" fill="#2B2615"/>
<path d="M64.5385 20H191.471C216.039 20 236 39.9621 236 64.5308V191.469C236 216.038 216.039 236 191.471 236H64.5385C39.9708 236 20.0096 216.038 20.0096 191.469V65.0427C19.4978 39.9621 39.459 20 64.5385 20Z" fill="#F9DC3E"/>
<path d="M64.5385 20H191.471C216.039 20 236 39.9621 236 64.5308V191.469C236 216.038 216.039 236 191.471 236H64.5385C39.9708 236 20.0096 216.038 20.0096 191.469V65.0427C19.4978 39.9621 39.459 20 64.5385 20Z" fill="url(#paint0_linear_92_988)"/>
<path d="M147.345 68C139.313 68.735 128.71 71.565 115.693 76.595C111.788 79.4199 107.704 81.9902 103.467 84.29L103.517 85.08C103.838 85.08 104.198 84.865 104.72 84.6C105.251 84.55 105.566 84.76 105.566 85.285L106.408 84.815L106.829 84.76L106.879 85.13C106.929 85.495 104.043 87.745 98.326 91.78L98.792 92.51L98.3711 92.57L97.4842 92.25C97.4842 92.51 97.1184 92.675 96.2817 92.725L96.3318 93.145L97.2788 94.195C96.8447 94.1886 96.416 94.0986 96.0161 93.93C94.1772 94.085 92.3383 95.445 90.5545 97.96L91.0255 98.695C92.5988 97.28 93.4907 96.545 93.7513 96.545L93.8615 97.695C93.601 97.695 93.1801 97.905 92.659 98.165L93.6561 99.64C95.4849 97.6318 97.5843 95.8867 99.8943 94.455C101.047 94.77 101.628 95.08 101.628 95.5L102.47 95.45C108.608 90.895 114.696 87.64 120.729 85.6L120.789 86.39C119.686 88.065 118.9 88.895 118.479 88.945C118.529 89.525 118.739 89.995 119.055 90.47C119.16 91.52 116.429 98.385 110.863 111.165C98.1606 140.815 87.5582 162.7 79 176.945C79 177.205 79.2054 177.625 79.471 178.095C81.5705 177.575 82.9333 177.11 83.5096 176.585L83.9906 176.525L84.0407 177.315L84.8324 177.26L85.6641 176.79C85.6641 177.05 85.9798 177.155 86.5059 177.1L86.5661 177.895C86.6162 178.68 86.1903 179.88 85.1931 181.505C84.3012 182.505 83.4144 184.54 82.4172 187.63L82.4674 188L83.259 187.95C86.6663 184.13 89.2918 180.35 91.0756 176.68C101.102 173.75 108.713 170.87 114.014 168.04C119.316 167.57 123.414 166.215 126.14 163.91L126.085 163.49L124.086 164.065L123.615 164.115L123.565 163.695C127.453 163.115 130.179 162.23 131.652 161.075C139.263 155.21 144.98 151.075 148.863 148.615C160.889 139.815 166.556 131.33 165.874 123.265C165.824 122.425 163.143 119.125 157.947 113.365C157.842 112.265 159.676 110.69 163.349 108.595L173.801 99.425C176.106 96.44 177.529 91.625 178 84.975L177.845 83.4C177.424 78.74 174.057 74.965 167.653 72.08C163.88 69.515 157.106 68.155 147.345 68ZM159.997 73.185C167.763 73.5 171.757 74.86 171.967 77.27L171.652 78.06L159.997 73.185ZM152.571 79.77C157.897 79.69 160.673 81.105 160.949 84.085L161.73 84.025L161.575 82.035L162.417 81.985C164.461 83.085 165.559 84.445 165.664 86.065C165.769 87.165 165.193 88.535 163.885 90.16C163.359 90.21 163.043 89.84 162.993 89.055L162.151 89.115L161.946 91.465C158.428 96.705 155.908 99.375 154.33 99.535C152.912 101.47 152.015 102.47 151.649 102.52C150.547 103.83 147.56 106.08 142.63 109.22C141.002 109.38 134.959 111.685 124.512 116.24C123.991 115.994 123.409 115.903 122.838 115.98L122.778 115.245C122.678 113.725 123.314 111.84 124.832 109.535C125.624 105.235 126.511 102.775 127.508 102.2L136.216 82.67C136.116 81.465 137.955 80.52 141.783 79.895L143.046 79.785L143.146 80.89C145.47 80.5242 147.798 80.1908 150.131 79.89C150.998 79.82 151.809 79.78 152.571 79.77ZM170.705 81.72H170.84C171.536 81.78 172.283 83.035 173.075 85.44L173.125 86.175C172.699 86.225 171.922 84.965 170.765 82.455L170.705 81.72ZM121.42 94.135H121.781L121.891 95.285C121.52 95.335 121.004 95.865 120.373 96.965L120.313 96.185C121.049 95.295 121.415 94.605 121.415 94.135H121.42ZM96.437 94.77L96.4871 95.13C96.2215 95.13 95.8056 95.345 95.2845 95.605L94.8586 95.655L94.8085 94.925L96.437 94.77ZM117.908 102.3L118.063 103.875L117.642 103.925L117.487 102.36L117.908 102.3ZM116.905 105.135C116.805 106.445 116.485 107.12 115.803 107.175L115.382 107.225C115.853 106.335 116.119 105.71 116.069 105.24L116.905 105.135ZM115.177 109.215L115.227 109.585L114.49 110.835L113.699 110.895L113.648 110.525C114.435 110.475 114.806 110.06 114.751 109.275L115.177 109.215ZM113.383 112.89L113.183 114.82L112.757 114.87L112.606 112.935L113.383 112.89ZM155.958 114.29L157.687 115.35C157.737 115.87 157.476 116.185 156.955 116.235C156.219 115.765 155.643 115.555 155.222 115.555L155.116 114.405L155.958 114.29ZM122.623 118.745L122.683 119.48L121.049 119.645L120.999 118.905L122.623 118.745ZM149.495 121.47C150.647 121.995 151.233 122.52 151.288 122.935L151.338 123.31C150.236 123.41 149.234 122.835 148.292 121.58L149.495 121.47ZM162.522 122.73C163.414 123.1 163.83 123.47 163.885 123.835L164.146 126.92C163.78 127.76 163.414 128.18 162.993 128.18L162.522 122.73ZM141.503 123.055C145.712 122.985 148.928 123.975 151.133 126.08L151.283 127.655C149.399 133.105 147.3 136.25 145.045 137.245L134.543 145.575C126.726 150.705 122.517 153.265 121.891 153.315C109.45 160.18 101.688 163.69 98.6918 163.95L98.2158 164C98.6367 162.535 104.153 151.225 114.861 129.96C119.586 129.54 127.037 127.335 137.168 123.36L139.634 123.15C140.275 123.1 140.901 123.07 141.503 123.055ZM126.195 125.505L126.245 125.875L124.572 126.03L124.512 125.66L126.195 125.505ZM100.01 150.855C99.4835 153.53 98.9022 154.895 98.326 154.95L98.2759 154.575C98.1707 153.215 98.7469 152.01 100.01 150.855ZM135.59 152.535L135.64 153.27C135.69 153.585 134.488 154.575 132.128 156.305C125.143 159.71 121.054 162.065 119.842 163.27C112.286 165.885 108.558 167.515 108.608 168.14C101.894 170.815 97.4842 172.755 95.3898 173.96C94.9138 174.01 94.1822 173.805 93.2352 173.385C93.13 172.025 93.7012 170.915 95.0641 170.025C96.2165 169.925 97.384 170.08 98.4312 170.555C99.6889 169.925 101.838 169.185 104.94 168.455L104.88 167.675L102.415 167.875C102.73 167.46 105.095 166.36 109.61 164.525L110.868 164.425L110.918 164.79C108.818 164.95 107.611 165.625 107.345 166.725C107.395 167.195 107.666 167.46 108.187 167.41C109.71 166.36 110.497 165.79 110.497 165.63C113.543 165.055 121.891 160.655 135.59 152.535ZM97.5894 156.15L97.6395 156.51C97.6896 157.035 97.4291 157.36 96.903 157.41L96.8529 157.04C96.8028 156.565 97.0633 156.255 97.5894 156.15ZM116.48 160.835C116.925 160.825 117.176 161.08 117.221 161.49C116.224 161.595 114.385 162.38 111.604 163.95L111.183 164L111.133 163.22C113.078 163.092 114.907 162.256 116.274 160.87C116.344 160.855 116.414 160.84 116.474 160.835H116.48ZM98.1206 167.05L98.1707 167.46C97.85 167.46 97.4792 167.675 96.9531 167.935L96.1714 167.985C96.1213 167.62 96.3318 167.305 96.8579 167.145L98.1206 167.05ZM88.5102 171.815L89.3971 172.175C89.0814 174.53 88.405 175.74 87.1924 175.845C86.392 175.461 85.509 175.281 84.6219 175.32L84.5167 174.17C84.4666 173.695 84.7322 173.435 85.3084 173.28C85.8345 173.23 86.1452 173.585 86.2003 174.37C87.6133 172.645 88.41 171.815 88.5102 171.815Z" fill="url(#paint1_linear_92_988)"/>
<defs>
<linearGradient id="paint0_linear_92_988" x1="128.005" y1="20" x2="128.005" y2="236.717" gradientUnits="userSpaceOnUse">
<stop stop-color="white" stop-opacity="0.2"/>
<stop offset="0.99" stop-opacity="0.2"/>
</linearGradient>
<linearGradient id="paint1_linear_92_988" x1="128.5" y1="68" x2="128.5" y2="188" gradientUnits="userSpaceOnUse">
<stop stop-color="white"/>
<stop offset="1" stop-color="white" stop-opacity="0.3"/>
</linearGradient>
</defs>
</svg>
