<svg width="256" height="256" viewBox="0 0 256 256" fill="none" xmlns="http://www.w3.org/2000/svg">
<path d="M52.736 0H202.752C232.448 0 256 23.552 256 52.736V202.752C256 232.448 232.448 256 203.264 256H52.736C23.552 256 0 232.448 0 203.264V52.736C0 23.552 23.552 0 52.736 0Z" fill="#281214"/>
<path d="M64.5385 20H191.471C216.039 20 236 39.9621 236 64.5308V191.469C236 216.038 216.039 236 191.471 236H64.5385C39.9708 236 20.0096 216.038 20.0096 191.469V65.0427C19.4978 39.9621 39.459 20 64.5385 20Z" fill="#E21E29"/>
<path d="M64.5385 20H191.471C216.039 20 236 39.9621 236 64.5308V191.469C236 216.038 216.039 236 191.471 236H64.5385C39.9708 236 20.0096 216.038 20.0096 191.469V65.0427C19.4978 39.9621 39.459 20 64.5385 20Z" fill="url(#paint0_linear_93_1054)"/>
<path d="M113.986 68C117.266 74.751 121.859 88.4059 107.007 103.869C97.9134 113.267 91.5392 123.112 95.1997 134.191C97.0299 139.709 101.162 146.73 109.706 148.117C112.775 148.621 116.453 148.114 118.452 147.414C130.783 143.142 128.995 130.345 126.264 122.179C125.912 121.115 125.302 118.513 125.077 117.56C123.204 109.549 128.976 104.279 130.75 98.5369C130.891 98.0744 131.019 97.6274 131.103 97.1794C131.314 96.1294 131.44 95.0644 131.496 93.9859C131.496 84.854 126.53 80.8345 122.574 75.988C118.351 70.82 113.986 68 113.986 68ZM145.522 98.0874C145.522 98.0874 141.959 99.7704 139.397 102.502C137.159 104.911 135.058 106.896 132.89 111.798C132.749 112.498 132.629 113.23 132.517 113.986C131.348 122.194 138.282 129.709 136.128 139.933C135.566 142.608 134.342 143.495 132.203 148.117C129.641 153.649 130.278 161.057 134.009 165.763C137.387 170.007 143.451 171.924 149.35 170.509C159.935 167.988 164.75 159.098 163.905 149.084C163.244 141.184 159.808 135.316 150.066 124.279C145.238 118.816 141.989 112.234 142.214 107.248C142.904 101.211 145.522 98.0874 145.522 98.0874ZM91.784 143.966C91.6724 144.039 91.5634 144.273 91.4895 144.767C91.4869 144.802 91.4768 144.835 91.4598 144.865V144.915C90.8829 147.618 90.6312 154.03 92.0393 159.758C93.8132 166.972 99.1627 179.268 114.211 185.403C126.867 190.571 142.946 188.109 153.658 177.268C156.319 174.551 155.709 174.82 151.204 176.262V176.252C145.616 178.031 133.524 178.984 127.246 171.252C119.588 161.826 125.084 154.436 120.424 155.5C102.251 159.674 93.9574 148.172 92.5493 144.992C92.5378 144.982 92.1187 143.748 91.784 143.966Z" fill="url(#paint1_linear_93_1054)"/>
<defs>
<linearGradient id="paint0_linear_93_1054" x1="128.005" y1="20" x2="128.005" y2="236.717" gradientUnits="userSpaceOnUse">
<stop stop-color="white" stop-opacity="0.2"/>
<stop offset="0.99" stop-opacity="0.2"/>
</linearGradient>
<linearGradient id="paint1_linear_93_1054" x1="127.5" y1="68" x2="127.5" y2="188" gradientUnits="userSpaceOnUse">
<stop stop-color="white"/>
<stop offset="1" stop-color="white" stop-opacity="0.3"/>
</linearGradient>
</defs>
</svg>
