<svg width="256" height="256" viewBox="0 0 256 256" fill="none" xmlns="http://www.w3.org/2000/svg">
<path d="M52.736 0H202.752C232.448 0 256 23.552 256 52.736V202.752C256 232.448 232.448 256 203.264 256H52.736C23.552 256 0 232.448 0 203.264V52.736C0 23.552 23.552 0 52.736 0Z" fill="#2C1E15"/>
<path d="M64.5385 20H191.471C216.039 20 236 39.9621 236 64.5308V191.469C236 216.038 216.039 236 191.471 236H64.5385C39.9708 236 20.0096 216.038 20.0096 191.469V65.0427C19.4978 39.9621 39.459 20 64.5385 20Z" fill="#FF943C"/>
<path d="M64.5385 20H191.471C216.039 20 236 39.9621 236 64.5308V191.469C236 216.038 216.039 236 191.471 236H64.5385C39.9708 236 20.0096 216.038 20.0096 191.469V65.0427C19.4978 39.9621 39.459 20 64.5385 20Z" fill="url(#paint0_linear_92_987)"/>
<path d="M174.663 79.168C174.663 77.8504 174.223 76.972 172.904 76.5328C157.953 69.9447 143.442 63.3567 128.931 56.3294C128.491 55.8902 127.172 55.8902 126.732 56.3294C111.781 62.9175 96.8303 69.9447 82.3192 76.5328C81 76.972 81 77.4112 81 78.7288C81 86.6345 81 94.9794 81 102.885C81 110.791 81 118.696 81 126.602C81 128.798 81.4397 130.994 82.7589 133.19C84.9576 137.143 88.4754 140.217 91.5536 143.292C102.547 152.076 114.859 159.103 127.172 165.252C127.612 165.252 128.491 165.252 128.931 165.252C138.605 160.421 148.279 155.15 157.074 149.001C161.911 145.927 166.308 142.413 169.826 138.021C172.904 134.508 174.663 130.116 174.663 125.284C174.663 109.473 174.663 94.5402 174.663 79.168ZM161.471 105.52C161.471 110.791 161.471 116.5 161.471 121.771C161.471 124.845 160.591 127.48 158.393 129.676C154.875 133.629 150.917 137.143 146.52 139.778C140.803 143.292 134.647 146.805 128.491 150.319C128.051 150.758 127.172 150.758 126.292 150.319C117.058 145.927 107.824 140.657 99.9085 134.069C98.5893 132.751 97.2701 131.433 95.9509 130.116C93.7522 127.92 92.8728 125.284 92.8728 121.771C92.8728 110.791 92.8728 99.8106 92.8728 88.8305C92.8728 87.5129 93.3125 87.0737 94.1919 86.1953C104.745 81.364 114.859 76.5328 125.413 72.1408C126.292 71.7015 127.172 71.7015 127.612 72.1408C138.165 76.972 148.279 81.364 158.832 86.1953C160.152 86.6345 160.591 87.5129 160.591 88.8305C161.471 94.101 161.471 99.8106 161.471 105.52Z" fill="url(#paint1_linear_92_987)"/>
<path d="M128.052 109.473C128.491 109.473 128.931 109.473 129.81 109.473V109.912V127.92V128.359C129.81 128.798 129.371 128.798 128.931 128.798C128.491 128.798 128.052 128.798 128.052 128.359V127.92V109.473Z" fill="url(#paint2_linear_92_987)"/>
<path d="M129.81 90.1482C131.13 91.4659 131.13 93.6619 129.81 94.9795C128.491 96.2971 126.292 96.2971 124.973 94.9795C123.654 93.6619 123.654 91.4659 124.973 90.1482C126.732 88.8306 128.931 88.8306 129.81 90.1482Z" fill="url(#paint3_linear_92_987)"/>
<path d="M156.634 106.399C156.634 101.568 156.634 96.2971 156.634 91.4659C156.634 90.5874 156.194 90.1482 155.315 89.709C146.52 85.7562 137.726 81.8034 128.931 77.8505C128.491 77.4113 127.612 77.4113 126.732 77.8505C117.938 81.8034 109.143 85.7562 100.348 89.709C99.469 90.1482 99.0293 90.5874 99.0293 91.4659C99.0293 100.689 99.0293 109.912 99.0293 119.136C99.0293 122.649 100.348 125.285 102.547 127.481C103.427 128.359 104.746 129.677 105.625 130.555C112.221 135.825 119.257 140.218 127.172 143.731C127.612 144.17 128.491 143.731 129.371 143.731C134.648 140.657 139.924 138.021 144.761 134.947C148.719 132.751 152.237 129.677 154.875 126.163C156.194 124.406 156.634 122.649 156.634 120.893C156.194 116.061 156.634 111.23 156.634 106.399ZM138.165 103.324C136.846 105.52 135.087 107.277 132.449 108.595C132.009 108.595 132.009 109.034 132.009 109.034C132.009 116.061 132.009 123.089 132.009 130.116C132.009 130.555 132.009 130.994 131.569 131.433C130.69 132.312 129.81 133.629 128.931 134.508L128.491 134.947C128.052 135.386 127.612 135.386 127.172 134.947C126.293 134.069 124.973 133.19 124.094 132.312C123.654 131.873 123.654 130.994 124.094 130.555C124.534 130.116 124.973 129.677 125.853 129.237C125.413 128.798 124.534 127.92 124.094 127.481C123.215 126.602 123.215 126.163 124.094 125.724C124.534 125.285 125.413 124.845 125.853 123.967L124.094 122.21L123.654 121.771C123.215 121.332 123.215 120.893 123.654 120.453C124.094 120.014 124.973 119.136 125.413 118.696C124.973 118.257 124.973 118.257 124.534 117.818C122.775 116.5 123.215 116.94 123.215 114.744C123.215 112.987 123.215 111.23 123.215 109.034C123.215 108.595 123.215 108.595 122.775 108.595C120.136 107.277 117.938 105.52 116.619 102.446C115.299 99.3715 115.299 95.8579 116.619 92.7835C117.938 89.709 120.576 87.513 123.654 86.1954C127.172 85.317 130.25 85.317 133.328 87.0738C139.045 90.5874 141.244 97.6147 138.165 103.324Z" fill="url(#paint4_linear_92_987)"/>
<path d="M76 193.195V169H85.494C87.2384 169 88.6934 169.264 89.8589 169.792C91.0245 170.319 91.9005 171.052 92.4872 171.989C93.0738 172.918 93.3671 173.989 93.3671 175.202C93.3671 176.147 93.1819 176.978 92.8114 177.695C92.4409 178.404 91.9314 178.987 91.2831 179.444C90.6424 179.893 89.9091 180.212 89.0832 180.401V180.637C89.9863 180.676 90.8315 180.936 91.6188 181.417C92.4138 181.897 93.0584 182.57 93.5524 183.437C94.0464 184.295 94.2933 185.319 94.2933 186.508C94.2933 187.792 93.9807 188.938 93.3555 189.946C92.738 190.947 91.8234 191.738 90.6115 192.321C89.3997 192.904 87.9061 193.195 86.1308 193.195H76ZM81.0133 189.013H85.1004C86.4974 189.013 87.5163 188.741 88.157 188.198C88.7976 187.646 89.118 186.914 89.118 186C89.118 185.331 88.9597 184.74 88.6433 184.228C88.3268 183.716 87.8752 183.315 87.2886 183.023C86.7097 182.732 86.0189 182.586 85.2161 182.586H81.0133V189.013ZM81.0133 179.125H84.7299C85.4168 179.125 86.0266 179.003 86.5592 178.758C87.0995 178.506 87.524 178.152 87.8328 177.695C88.1493 177.238 88.3075 176.691 88.3075 176.053C88.3075 175.179 88.0026 174.474 87.3928 173.938C86.7908 173.403 85.934 173.135 84.8225 173.135H81.0133V179.125Z" fill="url(#paint5_linear_92_987)"/>
<path d="M105.498 193.55C103.676 193.55 102.11 193.156 100.797 192.368C99.4929 191.573 98.4894 190.47 97.787 189.06C97.0923 187.65 96.745 186.028 96.745 184.193C96.745 182.334 97.0962 180.704 97.7986 179.302C98.5087 177.892 99.516 176.793 100.82 176.006C102.125 175.21 103.676 174.813 105.475 174.813C107.026 174.813 108.385 175.1 109.55 175.675C110.716 176.25 111.638 177.057 112.318 178.097C112.997 179.136 113.371 180.357 113.441 181.759H108.786C108.655 180.853 108.308 180.125 107.744 179.574C107.188 179.014 106.459 178.735 105.556 178.735C104.792 178.735 104.124 178.947 103.553 179.373C102.989 179.79 102.549 180.401 102.233 181.204C101.917 182.007 101.758 182.98 101.758 184.122C101.758 185.28 101.913 186.264 102.221 187.075C102.538 187.887 102.982 188.505 103.553 188.93C104.124 189.356 104.792 189.568 105.556 189.568C106.119 189.568 106.625 189.45 107.073 189.214C107.528 188.978 107.902 188.635 108.196 188.186C108.497 187.729 108.694 187.182 108.786 186.544H113.441C113.363 187.93 112.993 189.151 112.329 190.206C111.673 191.254 110.766 192.073 109.608 192.663C108.45 193.254 107.08 193.55 105.498 193.55Z" fill="url(#paint6_linear_92_987)"/>
<path d="M116.598 193.195V175.049H121.38V178.215H121.565C121.89 177.089 122.434 176.238 123.198 175.663C123.962 175.08 124.842 174.789 125.838 174.789C126.085 174.789 126.351 174.805 126.637 174.836C126.922 174.868 127.173 174.911 127.389 174.966V179.432C127.158 179.361 126.837 179.298 126.428 179.243C126.019 179.188 125.645 179.16 125.305 179.16C124.58 179.16 123.931 179.322 123.36 179.644C122.797 179.959 122.349 180.401 122.017 180.968C121.693 181.535 121.531 182.188 121.531 182.929V193.195H116.598Z" fill="url(#paint7_linear_92_987)"/>
<path d="M133.526 200C132.9 200 132.314 199.949 131.766 199.846C131.225 199.752 130.778 199.63 130.423 199.48L131.534 195.723C132.113 195.904 132.634 196.003 133.097 196.019C133.568 196.034 133.973 195.924 134.313 195.688C134.66 195.452 134.942 195.05 135.158 194.483L135.448 193.715L129.068 175.049H134.255L137.937 188.375H138.122L141.839 175.049H147.06L140.148 195.156C139.816 196.133 139.365 196.983 138.794 197.708C138.23 198.441 137.516 199.004 136.652 199.397C135.787 199.799 134.745 200 133.526 200Z" fill="url(#paint8_linear_92_987)"/>
<path d="M149.584 200V175.049H154.447V178.097H154.667C154.883 177.608 155.196 177.112 155.605 176.608C156.022 176.096 156.562 175.671 157.226 175.332C157.897 174.986 158.731 174.813 159.727 174.813C161.024 174.813 162.22 175.159 163.316 175.852C164.412 176.537 165.288 177.573 165.944 178.959C166.6 180.338 166.928 182.066 166.928 184.146C166.928 186.17 166.608 187.879 165.967 189.273C165.334 190.659 164.47 191.71 163.374 192.427C162.286 193.136 161.066 193.49 159.715 193.49C158.758 193.49 157.944 193.329 157.272 193.006C156.608 192.683 156.064 192.278 155.64 191.789C155.215 191.293 154.891 190.793 154.667 190.289H154.517V200H149.584ZM154.412 184.122C154.412 185.201 154.559 186.142 154.852 186.946C155.146 187.749 155.57 188.375 156.126 188.824C156.682 189.265 157.357 189.486 158.152 189.486C158.955 189.486 159.634 189.261 160.19 188.812C160.746 188.355 161.166 187.725 161.452 186.922C161.745 186.111 161.892 185.177 161.892 184.122C161.892 183.074 161.749 182.153 161.464 181.357C161.178 180.562 160.757 179.94 160.201 179.491C159.646 179.042 158.963 178.817 158.152 178.817C157.349 178.817 156.67 179.034 156.114 179.467C155.566 179.9 155.146 180.515 154.852 181.31C154.559 182.106 154.412 183.043 154.412 184.122Z" fill="url(#paint9_linear_92_987)"/>
<path d="M179.676 175.049V178.829H168.966V175.049H179.676ZM171.397 170.701H176.33V187.619C176.33 188.084 176.399 188.446 176.538 188.706C176.677 188.958 176.87 189.135 177.117 189.237C177.372 189.34 177.665 189.391 177.997 189.391C178.229 189.391 178.46 189.371 178.692 189.332C178.923 189.285 179.101 189.249 179.224 189.226L180 192.971C179.753 193.049 179.406 193.14 178.958 193.242C178.51 193.353 177.966 193.42 177.325 193.443C176.137 193.49 175.095 193.329 174.199 192.959C173.312 192.589 172.621 192.014 172.127 191.234C171.633 190.454 171.39 189.47 171.397 188.28V170.701Z" fill="url(#paint10_linear_92_987)"/>
<defs>
<linearGradient id="paint0_linear_92_987" x1="128.005" y1="20" x2="128.005" y2="236.717" gradientUnits="userSpaceOnUse">
<stop stop-color="white" stop-opacity="0.2"/>
<stop offset="0.99" stop-opacity="0.2"/>
</linearGradient>
<linearGradient id="paint1_linear_92_987" x1="127.538" y1="56.1766" x2="127.538" y2="165.295" gradientUnits="userSpaceOnUse">
<stop stop-color="white"/>
<stop offset="1" stop-color="white" stop-opacity="0.3"/>
</linearGradient>
<linearGradient id="paint2_linear_92_987" x1="129.037" y1="56" x2="129.037" y2="165.702" gradientUnits="userSpaceOnUse">
<stop stop-color="white"/>
<stop offset="1" stop-color="white" stop-opacity="0.3"/>
</linearGradient>
<linearGradient id="paint3_linear_92_987" x1="127.628" y1="56.0001" x2="127.628" y2="165.316" gradientUnits="userSpaceOnUse">
<stop stop-color="white"/>
<stop offset="1" stop-color="white" stop-opacity="0.3"/>
</linearGradient>
<linearGradient id="paint4_linear_92_987" x1="127.6" y1="55.2276" x2="127.6" y2="166.088" gradientUnits="userSpaceOnUse">
<stop stop-color="white"/>
<stop offset="1" stop-color="white" stop-opacity="0.3"/>
</linearGradient>
<linearGradient id="paint5_linear_92_987" x1="128" y1="169" x2="128" y2="200" gradientUnits="userSpaceOnUse">
<stop stop-color="white"/>
<stop offset="1" stop-color="white" stop-opacity="0.3"/>
</linearGradient>
<linearGradient id="paint6_linear_92_987" x1="128" y1="169" x2="128" y2="200" gradientUnits="userSpaceOnUse">
<stop stop-color="white"/>
<stop offset="1" stop-color="white" stop-opacity="0.3"/>
</linearGradient>
<linearGradient id="paint7_linear_92_987" x1="128" y1="169" x2="128" y2="200" gradientUnits="userSpaceOnUse">
<stop stop-color="white"/>
<stop offset="1" stop-color="white" stop-opacity="0.3"/>
</linearGradient>
<linearGradient id="paint8_linear_92_987" x1="128" y1="169" x2="128" y2="200" gradientUnits="userSpaceOnUse">
<stop stop-color="white"/>
<stop offset="1" stop-color="white" stop-opacity="0.3"/>
</linearGradient>
<linearGradient id="paint9_linear_92_987" x1="128" y1="169" x2="128" y2="200" gradientUnits="userSpaceOnUse">
<stop stop-color="white"/>
<stop offset="1" stop-color="white" stop-opacity="0.3"/>
</linearGradient>
<linearGradient id="paint10_linear_92_987" x1="128" y1="169" x2="128" y2="200" gradientUnits="userSpaceOnUse">
<stop stop-color="white"/>
<stop offset="1" stop-color="white" stop-opacity="0.3"/>
</linearGradient>
</defs>
</svg>
