<svg width="256" height="256" viewBox="0 0 256 256" fill="none" xmlns="http://www.w3.org/2000/svg">
<path d="M52.736 0H202.752C232.448 0 256 23.552 256 52.736V202.752C256 232.448 232.448 256 203.264 256H52.736C23.552 256 0 232.448 0 203.264V52.736C0 23.552 23.552 0 52.736 0Z" fill="#271324"/>
<path d="M64.5385 20H191.471C216.039 20 236 39.9621 236 64.5308V191.469C236 216.038 216.039 236 191.471 236H64.5385C39.9708 236 20.0096 216.038 20.0096 191.469V65.0427C19.4978 39.9621 39.459 20 64.5385 20Z" fill="#770C56"/>
<path d="M64.5385 20H191.471C216.039 20 236 39.9621 236 64.5308V191.469C236 216.038 216.039 236 191.471 236H64.5385C39.9708 236 20.0096 216.038 20.0096 191.469V65.0427C19.4978 39.9621 39.459 20 64.5385 20Z" fill="url(#paint0_linear_104_250)"/>
<path d="M62.39 95.2545C58.13 105.512 56 116.428 56 127.997C56 139.572 58.13 150.488 62.39 160.746C66.6326 170.972 72.8929 180.24 80.798 188H96.908C80.204 171.488 71.852 151.489 71.852 127.997C71.852 104.511 80.204 84.5121 96.908 68H80.798C72.8929 75.7595 66.6326 85.0284 62.39 95.2545ZM193.604 160.746C197.864 150.488 200 139.572 200 127.997C200 116.428 197.864 105.512 193.604 95.2545C189.361 85.0284 183.101 75.7595 175.196 68H159.086C175.79 84.5121 184.142 104.511 184.142 127.997C184.142 151.489 175.79 171.488 159.086 188H175.196C183.101 180.24 189.361 170.972 193.604 160.746ZM125.78 75.8726H115.124V137.044H125.78V136.846L169.088 93.6009L162.182 86.7049L125.78 123.054V75.8726Z" fill="url(#paint1_linear_104_250)"/>
<defs>
<linearGradient id="paint0_linear_104_250" x1="128.005" y1="20" x2="128.005" y2="236.717" gradientUnits="userSpaceOnUse">
<stop stop-color="white" stop-opacity="0.2"/>
<stop offset="0.99" stop-opacity="0.2"/>
</linearGradient>
<linearGradient id="paint1_linear_104_250" x1="128" y1="68" x2="128" y2="188" gradientUnits="userSpaceOnUse">
<stop stop-color="white"/>
<stop offset="1" stop-color="white" stop-opacity="0.3"/>
</linearGradient>
</defs>
</svg>
