<svg width="256" height="256" viewBox="0 0 256 256" fill="none" xmlns="http://www.w3.org/2000/svg">
<path d="M52.736 0H202.752C232.448 0 256 23.552 256 52.736V202.752C256 232.448 232.448 256 203.264 256H52.736C23.552 256 0 232.448 0 203.264V52.736C0 23.552 23.552 0 52.736 0Z" fill="#141D28"/>
<path d="M64.5385 20H191.471C216.039 20 236 39.9621 236 64.5308V191.469C236 216.038 216.039 236 191.471 236H64.5385C39.9708 236 20.0096 216.038 20.0096 191.469V65.0427C19.4978 39.9621 39.459 20 64.5385 20Z" fill="#338DE5"/>
<path d="M64.5385 20H191.471C216.039 20 236 39.9621 236 64.5308V191.469C236 216.038 216.039 236 191.471 236H64.5385C39.9708 236 20.0096 216.038 20.0096 191.469V65.0427C19.4978 39.9621 39.459 20 64.5385 20Z" fill="url(#paint0_linear_104_218)"/>
<path fill-rule="evenodd" clip-rule="evenodd" d="M68 68V126.435H126.435V68H68ZM129.304 68V126.435H188V68H129.304ZM86.5217 76.3478V94.6087C86.5217 99.3788 85.6927 105.229 88.3827 109.478C93.3231 117.283 104.775 116.992 109.762 109.478C111.654 106.628 111.565 103.096 111.565 99.8261V85.7391C111.565 83.0724 111.156 80.0344 111.604 77.4066C111.791 76.3096 113.43 75.9453 114.277 76.6159C115.113 77.2776 114.696 79.5742 114.696 80.5217V91.4783C114.696 97.608 115.795 104.931 112.735 110.522C107.642 119.827 91.4084 120.108 84.1852 113.465C77.3104 107.142 79.7391 94.4113 79.7391 86V79.4783C79.7391 78.7191 79.5013 77.4049 80.0072 76.7661C80.8892 75.6526 85.18 76.3478 86.5217 76.3478ZM147.826 76.3478V96.1739C147.826 100.894 147.559 105.5 150.048 109.716C155.214 118.466 168.397 116.215 172.214 107.652C173.667 104.391 173.13 100.434 173.13 96.9565V76.3478H176V98.2609C176 102.046 176.436 106.526 174.588 110C168.999 120.508 149.292 120.835 143.319 110.522C140.905 106.354 141.304 101.846 141.304 97.2174V76.3478H147.826ZM68 129.304V188H126.435V129.304H68ZM129.304 129.304V188H188V129.304H129.304ZM100.609 138.435V178.87H93.8261V138.435H100.609ZM139.478 178.87V138.435C148.47 138.435 159.642 136.833 167.913 141.185C180.235 147.668 181.412 166.874 169.739 174.668C160.992 180.51 149.461 178.87 139.478 178.87ZM146.261 141.304V176C152.197 176 158.381 176.512 163.478 172.935C172.614 166.524 171.99 150.679 163.217 144.369C158.311 140.84 151.992 141.304 146.261 141.304Z" fill="url(#paint1_linear_104_218)"/>
<defs>
<linearGradient id="paint0_linear_104_218" x1="128.005" y1="20" x2="128.005" y2="236.717" gradientUnits="userSpaceOnUse">
<stop stop-color="white" stop-opacity="0.2"/>
<stop offset="0.99" stop-opacity="0.2"/>
</linearGradient>
<linearGradient id="paint1_linear_104_218" x1="128" y1="68" x2="128" y2="188" gradientUnits="userSpaceOnUse">
<stop stop-color="white"/>
<stop offset="1" stop-color="white" stop-opacity="0.3"/>
</linearGradient>
</defs>
</svg>
