<svg width="256" height="256" viewBox="0 0 256 256" fill="none" xmlns="http://www.w3.org/2000/svg">
<path d="M52.736 0H202.752C232.448 0 256 23.552 256 52.736V202.752C256 232.448 232.448 256 203.264 256H52.736C23.552 256 0 232.448 0 203.264V52.736C0 23.552 23.552 0 52.736 0Z" fill="#171717"/>
<path d="M64.5385 20H191.471C216.039 20 236 39.9621 236 64.5308V191.469C236 216.038 216.039 236 191.471 236H64.5385C39.9708 236 20.0096 216.038 20.0096 191.469V65.0427C19.4978 39.9621 39.459 20 64.5385 20Z" fill="#0C0C0C"/>
<path d="M64.5385 20H191.471C216.039 20 236 39.9621 236 64.5308V191.469C236 216.038 216.039 236 191.471 236H64.5385C39.9708 236 20.0096 216.038 20.0096 191.469V65.0427C19.4978 39.9621 39.459 20 64.5385 20Z" fill="url(#paint0_linear_103_236)"/>
<path fill-rule="evenodd" clip-rule="evenodd" d="M78.4402 167.701C76.5906 166.883 74.0151 164.864 72.7169 163.214C70.378 160.241 70.3564 159.777 70.3564 112.486V64.7587L73.1622 61.4248C74.7054 59.5913 77.7714 57.5611 79.9757 56.9135C82.6475 56.1285 98.8831 55.8494 128.68 56.0763C177.173 56.4456 175.822 56.2753 180.29 62.5841C181.892 64.8458 182.134 70.3801 182.415 111.201C182.763 161.695 182.689 162.361 176.281 166.711C173.609 168.525 169.716 168.702 127.59 168.936C90.8474 169.139 81.1389 168.895 78.4402 167.701ZM175.012 112.549V63.5014H125.955H76.8974V112.549V161.597H125.955H175.012V112.549ZM92.1597 112.549V78.7608H125.955H159.75V112.549V146.338H125.955H92.1597V112.549Z" fill="url(#paint1_linear_103_236)"/>
<path d="M98 173H103.695L108.154 181.826H108.339L112.799 173H118.494L110.78 187.047V194.091H105.713V187.047L98 173Z" fill="url(#paint2_linear_103_236)"/>
<path d="M129.675 187.263V178.273H134.701V194.091H129.902V191.146H129.737C129.387 192.114 128.789 192.883 127.945 193.452C127.107 194.015 126.095 194.297 124.907 194.297C123.829 194.297 122.882 194.05 122.065 193.555C121.248 193.061 120.612 192.371 120.159 191.485C119.706 190.593 119.476 189.549 119.469 188.355V178.273H124.505V187.366C124.512 188.224 124.739 188.901 125.185 189.395C125.631 189.889 126.239 190.136 127.008 190.136C127.509 190.136 127.959 190.027 128.357 189.807C128.762 189.58 129.081 189.254 129.315 188.828C129.555 188.396 129.675 187.874 129.675 187.263Z" fill="url(#paint3_linear_103_236)"/>
<path d="M137.906 200.023V178.273H142.89V180.981H143.045C143.251 180.501 143.542 180.037 143.92 179.591C144.305 179.145 144.792 178.781 145.382 178.499C145.98 178.211 146.694 178.067 147.525 178.067C148.623 178.067 149.649 178.355 150.604 178.932C151.565 179.509 152.341 180.398 152.931 181.599C153.522 182.801 153.817 184.332 153.817 186.192C153.817 187.984 153.532 189.484 152.962 190.692C152.399 191.901 151.637 192.807 150.676 193.411C149.721 194.015 148.661 194.317 147.494 194.317C146.697 194.317 146.007 194.187 145.424 193.926C144.84 193.665 144.349 193.322 143.951 192.896C143.56 192.471 143.258 192.014 143.045 191.527H142.942V200.023H137.906ZM142.839 186.182C142.839 187.033 142.952 187.775 143.179 188.406C143.412 189.038 143.745 189.529 144.178 189.879C144.617 190.222 145.142 190.394 145.753 190.394C146.371 190.394 146.896 190.222 147.329 189.879C147.761 189.529 148.087 189.038 148.307 188.406C148.534 187.775 148.647 187.033 148.647 186.182C148.647 185.33 148.534 184.592 148.307 183.968C148.087 183.343 147.761 182.859 147.329 182.516C146.903 182.172 146.378 182.001 145.753 182.001C145.135 182.001 144.61 182.169 144.178 182.505C143.745 182.842 143.412 183.322 143.179 183.947C142.952 184.572 142.839 185.317 142.839 186.182Z" fill="url(#paint4_linear_103_236)"/>
<defs>
<linearGradient id="paint0_linear_103_236" x1="128.005" y1="20" x2="128.005" y2="236.717" gradientUnits="userSpaceOnUse">
<stop stop-color="white" stop-opacity="0.13"/>
<stop offset="0.99" stop-color="#666464" stop-opacity="0.2"/>
</linearGradient>
<linearGradient id="paint1_linear_103_236" x1="126.442" y1="56" x2="126.442" y2="169" gradientUnits="userSpaceOnUse">
<stop stop-color="white"/>
<stop offset="1" stop-color="white" stop-opacity="0.3"/>
</linearGradient>
<linearGradient id="paint2_linear_103_236" x1="125.908" y1="173" x2="125.908" y2="200.023" gradientUnits="userSpaceOnUse">
<stop stop-color="white"/>
<stop offset="1" stop-color="white" stop-opacity="0.3"/>
</linearGradient>
<linearGradient id="paint3_linear_103_236" x1="125.908" y1="173" x2="125.908" y2="200.023" gradientUnits="userSpaceOnUse">
<stop stop-color="white"/>
<stop offset="1" stop-color="white" stop-opacity="0.3"/>
</linearGradient>
<linearGradient id="paint4_linear_103_236" x1="125.908" y1="173" x2="125.908" y2="200.023" gradientUnits="userSpaceOnUse">
<stop stop-color="white"/>
<stop offset="1" stop-color="white" stop-opacity="0.3"/>
</linearGradient>
</defs>
</svg>
