<svg width="256" height="256" viewBox="0 0 256 256" fill="none" xmlns="http://www.w3.org/2000/svg">
<path d="M52.736 0H202.752C232.448 0 256 23.552 256 52.736V202.752C256 232.448 232.448 256 203.264 256H52.736C23.552 256 0 232.448 0 203.264V52.736C0 23.552 23.552 0 52.736 0Z" fill="#17162C"/>
<path d="M64.5385 20H191.471C216.039 20 236 39.9621 236 64.5308V191.469C236 216.038 216.039 236 191.471 236H64.5385C39.9708 236 20.0096 216.038 20.0096 191.469V65.0427C19.4978 39.9621 39.459 20 64.5385 20Z" fill="#5A45FF"/>
<path d="M64.5385 20H191.471C216.039 20 236 39.9621 236 64.5308V191.469C236 216.038 216.039 236 191.471 236H64.5385C39.9708 236 20.0096 216.038 20.0096 191.469V65.0427C19.4978 39.9621 39.459 20 64.5385 20Z" fill="url(#paint0_linear_52_190)"/>
<path d="M71 128C71 176.4 82.6 188 131 188C179.4 188 191 176.4 191 128C191 79.6 179.4 68 131 68C82.6 68 71 79.6 71 128ZM95.2 140.46L114.01 97.685C117.19 90.49 123.3 86.58 131 86.58C138.7 86.58 144.81 90.485 147.99 97.695L166.8 140.465C167.66 142.555 168.4 145.23 168.4 147.555C168.4 158.18 160.94 165.64 150.315 165.64C146.685 165.64 143.815 164.725 140.9 163.79C137.915 162.83 134.885 161.855 131 161.855C127.15 161.855 124.05 162.83 121.02 163.785C118.07 164.725 115.18 165.64 111.685 165.64C101.06 165.64 93.6 158.18 93.6 147.555C93.6 145.23 94.34 142.555 95.2 140.465V140.46ZM131 105.15L112.425 147.18C117.935 144.62 124.28 143.39 131 143.39C137.485 143.39 144.065 144.62 149.32 147.18L131 105.15Z" fill="url(#paint1_linear_52_190)"/>
<defs>
<linearGradient id="paint0_linear_52_190" x1="128.005" y1="20" x2="128.005" y2="236.717" gradientUnits="userSpaceOnUse">
<stop stop-color="white" stop-opacity="0.2"/>
<stop offset="0.99" stop-opacity="0.2"/>
</linearGradient>
<linearGradient id="paint1_linear_52_190" x1="131" y1="68" x2="131" y2="188" gradientUnits="userSpaceOnUse">
<stop stop-color="white"/>
<stop offset="1" stop-color="white" stop-opacity="0.3"/>
</linearGradient>
</defs>
</svg>
