<svg width="256" height="256" viewBox="0 0 256 256" fill="none" xmlns="http://www.w3.org/2000/svg">
<path d="M52.736 0H202.752C232.448 0 256 23.552 256 52.736V202.752C256 232.448 232.448 256 203.264 256H52.736C23.552 256 0 232.448 0 203.264V52.736C0 23.552 23.552 0 52.736 0Z" fill="#251214"/>
<path d="M64.5385 20H191.471C216.039 20 236 39.9621 236 64.5308V191.469C236 216.038 216.039 236 191.471 236H64.5385C39.9708 236 20.0096 216.038 20.0096 191.469V65.0427C19.4978 39.9621 39.459 20 64.5385 20Z" fill="#D22128"/>
<path d="M64.5385 20H191.471C216.039 20 236 39.9621 236 64.5308V191.469C236 216.038 216.039 236 191.471 236H64.5385C39.9708 236 20.0096 216.038 20.0096 191.469V65.0427C19.4978 39.9621 39.459 20 64.5385 20Z" fill="url(#paint0_linear_71_192)"/>
<path d="M162.588 69.1873V69.5833H163.524V72.2233H163.956V69.5833H164.892V69.1873H162.588ZM167.988 69.1873L166.938 71.3053L165.906 69.1873H165.384V72.2233H165.786V69.8053L166.818 71.9053H167.088L168.12 69.8053V72.2293H168.516V69.1933L167.988 69.1873ZM142.446 75.1874C141.222 77.0474 139.902 79.1474 138.486 81.5474L138.246 81.9194C135.582 86.424 133.051 91.006 130.656 95.6595C129.534 97.8195 128.376 100.111 127.194 102.536L140.796 101.035C144.756 99.2235 146.526 97.5675 148.248 95.1795C148.717 94.5016 149.177 93.8175 149.628 93.1275C151.008 90.9494 152.388 88.5494 153.606 86.1674C154.788 83.8514 155.826 81.5654 156.636 79.5074C157.134 78.1874 157.536 76.9754 157.824 75.9074C158.076 74.9594 158.268 74.0654 158.424 73.2074C153.12 74.1074 146.634 74.9774 142.416 75.1874H142.446ZM127.122 102.686L126.66 103.646C126.192 104.606 125.718 105.566 125.244 106.574C124.728 107.654 124.212 108.758 123.684 109.886L122.892 111.608C119.881 118.138 117.026 124.74 114.33 131.408C113.352 133.79 112.368 136.25 111.372 138.788C110.472 141.068 109.59 143.378 108.672 145.772L108.552 146.132C107.652 148.508 106.752 150.944 105.834 153.452L105.774 153.614L110.094 153.134C110.009 153.13 109.925 153.118 109.842 153.098C115.02 152.462 121.902 148.598 126.342 143.816C128.394 141.614 130.254 139.016 131.982 135.98C133.26 133.718 134.46 131.21 135.606 128.432C136.614 126.002 137.574 123.374 138.486 120.524C137.31 121.154 135.948 121.604 134.448 121.934C133.909 122.06 133.362 122.152 132.81 122.21C137.646 120.35 140.694 116.78 142.908 112.37C141.152 113.585 139.181 114.456 137.1 114.938C136.74 115.01 136.404 115.07 136.056 115.118L135.798 115.154H135.81C137.478 114.446 138.894 113.666 140.118 112.736C141.64 111.588 142.936 110.168 143.94 108.548L144.318 107.924L144.78 107C145.611 105.343 146.346 103.64 146.982 101.899L147.162 101.371C147.481 100.466 147.728 99.5375 147.9 98.5935C147.723 98.738 147.534 98.8684 147.336 98.9835C145.878 99.8535 143.376 100.645 141.36 101.023L145.338 100.579L141.354 101.017H141.252L140.652 101.119C140.688 101.101 140.712 101.083 140.754 101.071L127.164 102.572L127.086 102.704L127.122 102.686ZM105.378 154.706C104.676 156.644 103.962 158.63 103.248 160.658L103.218 160.748C103.122 161.024 103.026 161.312 102.918 161.6C102.438 162.962 102.018 164.192 101.058 167C102.642 167.72 103.908 169.61 105.108 171.758C104.994 169.487 103.989 167.353 102.312 165.818C110.07 166.178 116.772 164.198 120.252 158.516C120.552 158.012 120.828 157.478 121.092 156.908C119.532 158.906 117.552 159.752 113.892 159.548C113.892 159.548 113.868 159.548 113.862 159.56L113.886 159.548C119.286 157.124 122.01 154.808 124.41 150.95C124.974 150.032 125.526 149.03 126.09 147.932C121.362 152.792 115.878 154.172 110.106 153.122L105.786 153.59C105.647 153.954 105.513 154.32 105.384 154.688L105.378 154.706ZM148.278 56.6773C146.022 58.0093 142.278 61.7773 137.79 67.2553L141.906 75.0194C144.786 70.8973 147.726 67.1773 150.678 64.0033L151.026 63.6313C150.906 63.7513 150.786 63.8713 150.684 64.0033C149.724 65.0593 146.82 68.4433 142.434 75.1814C146.652 74.9714 153.138 74.1014 158.43 73.2014C160.002 64.3813 156.882 60.3493 156.882 60.3493C156.882 60.3493 152.922 53.9293 148.266 56.6893L148.278 56.6773ZM129.774 95.0895C132.239 90.4859 134.852 85.9635 137.61 81.5294L137.85 81.1454C139.194 79.0334 140.55 76.9874 141.912 75.0254L137.802 67.2673L136.86 68.4193C135.678 69.8893 134.442 71.4793 133.182 73.1594C128.885 78.9147 124.849 84.8608 121.086 90.9794L120.954 91.2074L126.312 101.785C127.452 99.5175 128.592 97.2735 129.762 95.0775L129.774 95.0895ZM107.394 145.01C108.342 142.574 109.308 140.15 110.292 137.66C111.228 135.296 112.212 132.92 113.196 130.52C116.24 123.243 119.441 116.033 122.796 108.896L124.026 106.352C124.746 104.894 125.448 103.442 126.186 102.007C126.211 101.921 126.252 101.84 126.306 101.767L120.936 91.1894L120.672 91.6094C119.43 93.6495 118.188 95.7315 116.97 97.8615C114.663 101.874 112.478 105.956 110.418 110.102L109.854 111.26C106.922 117.256 104.4 123.444 102.306 129.782C101.044 133.714 100.002 137.715 99.1861 141.764L104.562 152.384C105.264 150.482 106.002 148.556 106.746 146.606L107.394 145.01ZM99.1381 142.154C98.4543 145.504 97.9854 148.895 97.7341 152.306C97.7341 152.426 97.7101 152.546 97.7041 152.666C96.024 149.966 91.524 147.338 91.548 147.362C94.77 152.03 97.2121 156.662 97.5781 161.222C95.838 161.57 93.474 161.06 90.738 160.052C93.588 162.668 95.718 163.388 96.5581 163.58C93.954 163.76 91.218 165.548 88.482 167.6C92.49 165.98 95.742 165.32 98.0581 165.86C94.398 176.3 90.678 187.79 87 200C87.5108 199.853 87.9773 199.582 88.3583 199.212C88.7393 198.841 89.023 198.382 89.184 197.876C89.844 195.668 94.224 181.16 101.052 162.086L101.634 160.466L101.802 159.998C102.522 158.006 103.278 155.966 104.046 153.878L104.586 152.456V152.432L99.1981 141.806C99.1801 141.926 99.1381 142.046 99.1261 142.166L99.1381 142.154Z" fill="url(#paint1_linear_71_192)"/>
<defs>
<linearGradient id="paint0_linear_71_192" x1="128.005" y1="20" x2="128.005" y2="236.717" gradientUnits="userSpaceOnUse">
<stop stop-color="white" stop-opacity="0.2"/>
<stop offset="0.99" stop-opacity="0.2"/>
</linearGradient>
<linearGradient id="paint1_linear_71_192" x1="127.758" y1="56" x2="127.758" y2="200" gradientUnits="userSpaceOnUse">
<stop stop-color="white"/>
<stop offset="1" stop-color="white" stop-opacity="0.3"/>
</linearGradient>
</defs>
</svg>
