<svg width="256" height="256" viewBox="0 0 256 256" fill="none" xmlns="http://www.w3.org/2000/svg">
<path d="M52.736 0H202.752C232.448 0 256 23.552 256 52.736V202.752C256 232.448 232.448 256 203.264 256H52.736C23.552 256 0 232.448 0 203.264V52.736C0 23.552 23.552 0 52.736 0Z" fill="#1F2124"/>
<path d="M64.5385 20H191.471C216.039 20 236 39.9621 236 64.5308V191.469C236 216.038 216.039 236 191.471 236H64.5385C39.9708 236 20.0096 216.038 20.0096 191.469V65.0427C19.4978 39.9621 39.459 20 64.5385 20Z" fill="#A8B9CC"/>
<path d="M64.5385 20H191.471C216.039 20 236 39.9621 236 64.5308V191.469C236 216.038 216.039 236 191.471 236H64.5385C39.9708 236 20.0096 216.038 20.0096 191.469V65.0427C19.4978 39.9621 39.459 20 64.5385 20Z" fill="url(#paint0_linear_53_254)"/>
<path d="M151.021 113.981C151.021 113.981 149.246 97.491 132.838 97.031C116.425 96.581 107.997 109.401 107.997 127.731C107.997 146.057 117.312 160.717 133.289 160.717C149.251 160.717 151.026 142.392 151.026 142.392L181.626 144.217C181.626 144.217 183.431 160.767 170.618 173.397C157.824 186.018 142.092 188.083 131.133 187.998C120.154 187.913 104.934 188.168 90.2251 173.148C75.4965 158.097 73 143.497 73 129.147C73 114.796 75.7873 95.7955 93.2881 81.3955C105.16 71.6 117.217 68 129.273 68C179.616 68 183 114.301 183 114.301L151.021 113.981Z" fill="url(#paint1_linear_53_254)"/>
<defs>
<linearGradient id="paint0_linear_53_254" x1="128.005" y1="20" x2="128.005" y2="236.717" gradientUnits="userSpaceOnUse">
<stop stop-color="white" stop-opacity="0.2"/>
<stop offset="0.99" stop-opacity="0.2"/>
</linearGradient>
<linearGradient id="paint1_linear_53_254" x1="128" y1="68" x2="128" y2="188" gradientUnits="userSpaceOnUse">
<stop stop-color="white"/>
<stop offset="0.0001" stop-color="white"/>
<stop offset="1" stop-color="white" stop-opacity="0.3"/>
<stop offset="1" stop-color="white" stop-opacity="0.3"/>
</linearGradient>
</defs>
</svg>
