<svg width="256" height="256" viewBox="0 0 256 256" fill="none" xmlns="http://www.w3.org/2000/svg">
<path d="M52.736 0H202.752C232.448 0 256 23.552 256 52.736V202.752C256 232.448 232.448 256 203.264 256H52.736C23.552 256 0 232.448 0 203.264V52.736C0 23.552 23.552 0 52.736 0Z" fill="#13231A"/>
<path d="M64.5385 20H191.471C216.039 20 236 39.9621 236 64.5308V191.469C236 216.038 216.039 236 191.471 236H64.5385C39.9708 236 20.0096 216.038 20.0096 191.469V65.0427C19.4978 39.9621 39.459 20 64.5385 20Z" fill="#27C566"/>
<path d="M64.5385 20H191.471C216.039 20 236 39.9621 236 64.5308V191.469C236 216.038 216.039 236 191.471 236H64.5385C39.9708 236 20.0096 216.038 20.0096 191.469V65.0427C19.4978 39.9621 39.459 20 64.5385 20Z" fill="url(#paint0_linear_86_471)"/>
<path d="M130.605 99.4146C112.05 99.4146 96.769 114.695 96.769 133.25C96.769 151.805 112.05 167.086 130.605 167.086C149.16 167.086 164.44 151.805 164.44 133.25C164.44 114.695 149.16 99.4146 130.605 99.4146ZM130.605 160.537C115.324 160.537 103.318 148.531 103.318 133.25C103.318 117.97 115.324 105.963 130.605 105.963C145.885 105.963 157.891 117.97 157.891 133.25C157.891 148.531 145.885 160.537 130.605 160.537ZM130.605 110.329C117.507 110.329 106.592 121.244 106.592 134.342C106.592 147.439 117.507 158.354 130.605 158.354C143.702 158.354 154.617 147.439 154.617 134.342C154.617 120.152 143.702 110.329 130.605 110.329ZM137.153 127.793C137.153 128.884 136.062 131.067 136.062 132.159C134.971 133.25 134.97 133.25 134.97 134.342C136.062 137.616 136.062 141.982 137.153 145.256C137.153 146.348 137.153 147.439 134.97 147.439C133.879 147.439 131.696 147.439 130.605 147.439C129.513 147.439 127.33 147.439 126.239 147.439C125.147 147.439 124.056 146.348 124.056 145.256C125.147 141.982 125.147 137.616 126.239 134.342C126.239 133.25 126.239 132.159 125.147 131.067C122.964 128.884 122.964 125.61 125.147 122.335C127.33 120.152 129.513 119.061 132.788 120.152C136.062 121.244 137.153 124.518 137.153 127.793Z" fill="url(#paint1_linear_86_471)"/>
<path d="M105.319 110.002C102.982 105.071 102.315 102.302 101.432 97.8895C98.7308 87.0914 103.869 74.9943 114.251 68.8669C126.607 61.8048 141.195 64.5545 150.23 75.9749C150.697 76.9612 152.46 80.0952 152.927 81.0815C154.329 84.0406 155.597 86.4208 156.487 88.2784L149.368 86.8657L145.808 86.4208L144.157 86.0993L142.703 85.5803C138.965 77.6895 129.775 73.5893 121.884 77.3283C113.526 80.0809 109.426 89.2705 112.178 97.6286C112.646 98.6149 112.646 98.615 113.113 99.6013C113.697 100.834 113.825 100.576 113.113 100.913C109.168 102.782 106.876 105.641 105.319 110.002Z" fill="url(#paint2_linear_86_471)"/>
<path d="M111.136 181.259H105.4C105.295 180.478 105.081 179.785 104.758 179.179C104.435 178.564 104.021 178.041 103.514 177.61C103.008 177.178 102.423 176.848 101.759 176.618C101.105 176.389 100.393 176.274 99.6247 176.274C98.2365 176.274 97.0273 176.637 95.997 177.362C94.9668 178.078 94.1679 179.124 93.6005 180.501C93.033 181.869 92.7492 183.531 92.7492 185.486C92.7492 187.497 93.033 189.186 93.6005 190.554C94.1767 191.921 94.9799 192.954 96.0101 193.652C97.0404 194.35 98.2321 194.698 99.5854 194.698C100.345 194.698 101.048 194.593 101.694 194.382C102.349 194.171 102.929 193.863 103.436 193.459C103.942 193.046 104.361 192.546 104.693 191.958C105.033 191.371 105.269 190.701 105.4 189.948L111.136 189.975C110.988 191.27 110.617 192.518 110.023 193.721C109.438 194.914 108.648 195.984 107.653 196.929C106.666 197.866 105.487 198.609 104.117 199.16C102.755 199.702 101.214 199.972 99.4937 199.972C97.1015 199.972 94.9624 199.403 93.0766 198.265C91.1995 197.127 89.7153 195.479 88.6239 193.321C87.5413 191.164 87 188.552 87 185.486C87 182.411 87.55 179.795 88.6501 177.637C89.7502 175.48 91.2431 173.837 93.129 172.708C95.0148 171.569 97.1364 171 99.4937 171C101.048 171 102.488 171.23 103.815 171.689C105.151 172.148 106.334 172.818 107.364 173.699C108.395 174.571 109.233 175.641 109.879 176.907C110.534 178.174 110.953 179.625 111.136 181.259Z" fill="url(#paint3_linear_86_471)"/>
<path d="M124.186 200C122.152 200 120.393 199.546 118.909 198.637C117.433 197.719 116.294 196.443 115.491 194.809C114.687 193.165 114.286 191.261 114.286 189.094C114.286 186.909 114.687 185 115.491 183.366C116.294 181.722 117.433 180.446 118.909 179.538C120.393 178.62 122.152 178.16 124.186 178.16C126.221 178.16 127.976 178.62 129.451 179.538C130.935 180.446 132.079 181.722 132.882 183.366C133.686 185 134.087 186.909 134.087 189.094C134.087 191.261 133.686 193.165 132.882 194.809C132.079 196.443 130.935 197.719 129.451 198.637C127.976 199.546 126.221 200 124.186 200ZM124.213 195.456C125.138 195.456 125.911 195.18 126.531 194.63C127.151 194.07 127.618 193.308 127.932 192.344C128.255 191.38 128.417 190.283 128.417 189.053C128.417 187.823 128.255 186.726 127.932 185.762C127.618 184.798 127.151 184.036 126.531 183.476C125.911 182.916 125.138 182.636 124.213 182.636C123.278 182.636 122.493 182.916 121.855 183.476C121.227 184.036 120.751 184.798 120.428 185.762C120.114 186.726 119.956 187.823 119.956 189.053C119.956 190.283 120.114 191.38 120.428 192.344C120.751 193.308 121.227 194.07 121.855 194.63C122.493 195.18 123.278 195.456 124.213 195.456Z" fill="url(#paint4_linear_86_471)"/>
<path d="M137.715 199.587V178.436H143.123V182.126H143.333C143.7 180.814 144.315 179.822 145.18 179.152C146.044 178.473 147.039 178.133 148.165 178.133C148.445 178.133 148.746 178.151 149.069 178.188C149.392 178.225 149.676 178.275 149.92 178.34V183.545C149.658 183.462 149.296 183.389 148.833 183.324C148.371 183.26 147.947 183.228 147.563 183.228C146.742 183.228 146.009 183.416 145.363 183.792C144.726 184.16 144.219 184.674 143.844 185.335C143.477 185.996 143.294 186.758 143.294 187.621V199.587H137.715Z" fill="url(#paint5_linear_86_471)"/>
<path d="M169.542 184.467L164.434 184.798C164.347 184.339 164.159 183.926 163.871 183.558C163.583 183.182 163.203 182.884 162.732 182.663C162.269 182.434 161.715 182.319 161.068 182.319C160.204 182.319 159.475 182.512 158.881 182.897C158.288 183.274 157.991 183.779 157.991 184.412C157.991 184.917 158.183 185.344 158.567 185.693C158.951 186.042 159.61 186.322 160.545 186.533L164.185 187.304C166.141 187.726 167.599 188.406 168.559 189.342C169.52 190.278 170 191.508 170 193.032C170 194.418 169.611 195.635 168.834 196.681C168.066 197.728 167.01 198.545 165.665 199.132C164.329 199.711 162.788 200 161.042 200C158.379 200 156.258 199.417 154.678 198.251C153.106 197.076 152.185 195.479 151.914 193.459L157.402 193.156C157.567 194.01 157.969 194.662 158.606 195.112C159.244 195.552 160.06 195.773 161.055 195.773C162.033 195.773 162.819 195.575 163.413 195.18C164.015 194.777 164.321 194.258 164.329 193.624C164.321 193.092 164.107 192.656 163.688 192.316C163.269 191.967 162.623 191.701 161.749 191.518L158.266 190.788C156.301 190.375 154.839 189.659 153.879 188.64C152.927 187.621 152.451 186.322 152.451 184.743C152.451 183.384 152.8 182.214 153.499 181.231C154.206 180.249 155.197 179.492 156.472 178.959C157.755 178.427 159.257 178.16 160.977 178.16C163.517 178.16 165.517 178.725 166.975 179.854C168.442 180.983 169.297 182.521 169.542 184.467Z" fill="url(#paint6_linear_86_471)"/>
<defs>
<linearGradient id="paint0_linear_86_471" x1="128.005" y1="20" x2="128.005" y2="236.717" gradientUnits="userSpaceOnUse">
<stop stop-color="white" stop-opacity="0.2"/>
<stop offset="0.99" stop-opacity="0.2"/>
</linearGradient>
<linearGradient id="paint1_linear_86_471" x1="130.198" y1="67.2993" x2="130.198" y2="173.379" gradientUnits="userSpaceOnUse">
<stop stop-color="white"/>
<stop offset="1" stop-color="white" stop-opacity="0.3"/>
</linearGradient>
<linearGradient id="paint2_linear_86_471" x1="116.096" y1="67.5277" x2="157.491" y2="155.972" gradientUnits="userSpaceOnUse">
<stop stop-color="white"/>
<stop offset="1" stop-color="#FCFFFE" stop-opacity="0.3"/>
</linearGradient>
<linearGradient id="paint3_linear_86_471" x1="128.5" y1="171" x2="128.5" y2="200" gradientUnits="userSpaceOnUse">
<stop stop-color="white"/>
<stop offset="1" stop-color="white" stop-opacity="0.3"/>
</linearGradient>
<linearGradient id="paint4_linear_86_471" x1="128.5" y1="171" x2="128.5" y2="200" gradientUnits="userSpaceOnUse">
<stop stop-color="white"/>
<stop offset="1" stop-color="white" stop-opacity="0.3"/>
</linearGradient>
<linearGradient id="paint5_linear_86_471" x1="128.5" y1="171" x2="128.5" y2="200" gradientUnits="userSpaceOnUse">
<stop stop-color="white"/>
<stop offset="1" stop-color="white" stop-opacity="0.3"/>
</linearGradient>
<linearGradient id="paint6_linear_86_471" x1="128.5" y1="171" x2="128.5" y2="200" gradientUnits="userSpaceOnUse">
<stop stop-color="white"/>
<stop offset="1" stop-color="white" stop-opacity="0.3"/>
</linearGradient>
</defs>
</svg>
