<svg width="256" height="256" viewBox="0 0 256 256" fill="none" xmlns="http://www.w3.org/2000/svg">
<path d="M52.736 0H202.752C232.448 0 256 23.552 256 52.736V202.752C256 232.448 232.448 256 203.264 256H52.736C23.552 256 0 232.448 0 203.264V52.736C0 23.552 23.552 0 52.736 0Z" fill="#2C111F"/>
<path d="M64.5385 20H191.471C216.039 20 236 39.9621 236 64.5308V191.469C236 216.038 216.039 236 191.471 236H64.5385C39.9708 236 20.0096 216.038 20.0096 191.469V65.0427C19.4978 39.9621 39.459 20 64.5385 20Z" fill="#FE0178"/>
<path d="M64.5385 20H191.471C216.039 20 236 39.9621 236 64.5308V191.469C236 216.038 216.039 236 191.471 236H64.5385C39.9708 236 20.0096 216.038 20.0096 191.469V65.0427C19.4978 39.9621 39.459 20 64.5385 20Z" fill="url(#paint0_linear_91_670)"/>
<path d="M95.0555 187.684C81.9641 185.875 72.1223 176.54 69.6009 163.541C69.074 160.825 68.7517 99.084 69.2429 94.9734C70.9213 80.9293 80.1401 70.9707 93.9286 68.307C96.0468 67.8978 159.628 67.8976 161.748 68.3068C174.581 70.7839 183.607 79.7324 186.064 92.4122L186.54 94.871V127.756C186.54 164.303 186.609 162.347 185.166 166.993C181.645 178.33 172.536 185.988 160.541 187.693C157.623 188.108 98.0639 188.1 95.0555 187.684ZM162.261 178.711C169.12 176.899 175.031 171.378 176.996 164.945C177.237 164.156 177.52 163.234 177.624 162.896C177.729 162.558 177.91 161.5 178.028 160.545C178.325 158.133 178.323 97.7592 178.025 95.3778C176.822 85.7513 169.598 78.1723 160.275 76.7567C158.212 76.4435 97.4653 76.4435 95.4021 76.7567C86.2694 78.1434 79.1857 85.3637 77.731 94.7685C77.3815 97.028 77.3076 157.788 77.6509 160.545C78.8786 170.399 86.0736 177.717 95.9775 179.185C96.5409 179.269 111.201 179.324 128.556 179.308L160.109 179.279L162.261 178.711Z" fill="url(#paint1_linear_91_670)"/>
<defs>
<linearGradient id="paint0_linear_91_670" x1="128.005" y1="20" x2="128.005" y2="236.717" gradientUnits="userSpaceOnUse">
<stop stop-color="white" stop-opacity="0.2"/>
<stop offset="0.99" stop-opacity="0.2"/>
</linearGradient>
<linearGradient id="paint1_linear_91_670" x1="127.77" y1="68" x2="127.77" y2="188" gradientUnits="userSpaceOnUse">
<stop stop-color="white"/>
<stop offset="1" stop-color="white" stop-opacity="0.3"/>
</linearGradient>
</defs>
</svg>
