<svg width="256" height="256" viewBox="0 0 256 256" fill="none" xmlns="http://www.w3.org/2000/svg">
<path d="M52.736 0H202.752C232.448 0 256 23.552 256 52.736V202.752C256 232.448 232.448 256 203.264 256H52.736C23.552 256 0 232.448 0 203.264V52.736C0 23.552 23.552 0 52.736 0Z" fill="#271324"/>
<path d="M64.5385 20H191.471C216.039 20 236 39.9621 236 64.5308V191.469C236 216.038 216.039 236 191.471 236H64.5385C39.9708 236 20.0096 216.038 20.0096 191.469V65.0427C19.4978 39.9621 39.459 20 64.5385 20Z" fill="#770C56"/>
<path d="M64.5385 20H191.471C216.039 20 236 39.9621 236 64.5308V191.469C236 216.038 216.039 236 191.471 236H64.5385C39.9708 236 20.0096 216.038 20.0096 191.469V65.0427C19.4978 39.9621 39.459 20 64.5385 20Z" fill="url(#paint0_linear_104_250)"/>
<g style="mix-blend-mode:plus-lighter">
<path opacity="0.1" d="M19.05 128.488V128.076H235.526V128.488H19.05Z" fill="black" stroke="white" stroke-width="0.1" stroke-miterlimit="10"/>
<path opacity="0.1" d="M19.5939 199.95V164.05H235.494V199.95H19.5939Z" fill="black" stroke="white" stroke-width="0.1" stroke-miterlimit="10"/>
<path opacity="0.1" d="M235.544 92H19.5439V56H235.544V92Z" fill="black" stroke="white" stroke-width="0.1" stroke-miterlimit="10"/>
<path opacity="0.1" d="M19.5939 200.462V200.05H236.07V200.462H19.5939Z" fill="black" stroke="white" stroke-width="0.1" stroke-miterlimit="10"/>
<path opacity="0.1" d="M127.594 236.483V20.05H128.006V236.483H127.594Z" fill="black" stroke="white" stroke-width="0.1" stroke-miterlimit="10"/>
<path opacity="0.1" d="M203.544 20H167.544V236H203.544V20Z" fill="black" stroke="white" stroke-width="0.1" stroke-miterlimit="10"/>
<path opacity="0.1" d="M51.5439 20H87.5439V236H51.5439V20Z" fill="black" stroke="white" stroke-width="0.1" stroke-miterlimit="10"/>
<path opacity="0.1" d="M127.544 220C178.354 220 219.544 178.81 219.544 128C219.544 77.1898 178.354 36 127.544 36C76.7338 36 35.5439 77.1898 35.5439 128C35.5439 178.81 76.7338 220 127.544 220Z" stroke="white" stroke-width="0.1" stroke-miterlimit="10"/>
<path opacity="0.1" d="M127.544 188C160.681 188 187.544 161.137 187.544 128C187.544 94.8629 160.681 68 127.544 68C94.4069 68 67.5439 94.8629 67.5439 128C67.5439 161.137 94.4069 188 127.544 188Z" stroke="white" stroke-width="0.1" stroke-miterlimit="10"/>
<path opacity="0.1" d="M127.544 184C158.472 184 183.544 158.928 183.544 128C183.544 97.0721 158.472 72 127.544 72C96.616 72 71.5439 97.0721 71.5439 128C71.5439 158.928 96.616 184 127.544 184Z" stroke="white" stroke-width="0.1" stroke-miterlimit="10"/>
<path opacity="0.1" d="M127.544 156C143.008 156 155.544 143.464 155.544 128C155.544 112.536 143.008 100 127.544 100C112.08 100 99.5439 112.536 99.5439 128C99.5439 143.464 112.08 156 127.544 156Z" stroke="white" stroke-width="0.1" stroke-miterlimit="10"/>
<path opacity="0.1" d="M127.544 148C138.59 148 147.544 139.046 147.544 128C147.544 116.954 138.59 108 127.544 108C116.498 108 107.544 116.954 107.544 128C107.544 139.046 116.498 148 127.544 148Z" stroke="white" stroke-width="0.1" stroke-miterlimit="10"/>
</g>
<path d="M62.39 95.2545C58.13 105.512 56 116.428 56 127.997C56 139.572 58.13 150.488 62.39 160.746C66.6326 170.972 72.8929 180.24 80.798 188H96.908C80.204 171.488 71.852 151.489 71.852 127.997C71.852 104.511 80.204 84.5121 96.908 68H80.798C72.8929 75.7595 66.6326 85.0284 62.39 95.2545ZM193.604 160.746C197.864 150.488 200 139.572 200 127.997C200 116.428 197.864 105.512 193.604 95.2545C189.361 85.0284 183.101 75.7595 175.196 68H159.086C175.79 84.5121 184.142 104.511 184.142 127.997C184.142 151.489 175.79 171.488 159.086 188H175.196C183.101 180.24 189.361 170.972 193.604 160.746ZM125.78 75.8726H115.124V137.044H125.78V136.846L169.088 93.6009L162.182 86.7049L125.78 123.054V75.8726Z" fill="url(#paint1_linear_104_250)"/>
<defs>
<linearGradient id="paint0_linear_104_250" x1="128.005" y1="20" x2="128.005" y2="236.717" gradientUnits="userSpaceOnUse">
<stop stop-color="white" stop-opacity="0.2"/>
<stop offset="0.99" stop-opacity="0.2"/>
</linearGradient>
<linearGradient id="paint1_linear_104_250" x1="128" y1="68" x2="128" y2="188" gradientUnits="userSpaceOnUse">
<stop stop-color="white"/>
<stop offset="1" stop-color="white" stop-opacity="0.3"/>
</linearGradient>
</defs>
</svg>
