<svg width="256" height="256" viewBox="0 0 64 64" fill="none" xmlns="http://www.w3.org/2000/svg">
<path d="M13.184 0H50.688C58.112 0 64 5.88682 64 13.1814V50.6779C64 58.1004 58.112 63.9872 50.816 63.9872H13.184C5.888 63.9872 0 58.1004 0 50.8058V13.1814C0 5.88682 5.888 0 13.184 0Z" fill="#292515"/>
<path d="M16.1346 4.9872H47.8678C54.0097 4.9872 59 9.97772 59 16.1199V47.8545C59 53.9967 54.0097 58.9872 47.8678 58.9872H16.1346C9.99271 58.9872 5.00241 53.9967 5.00241 47.8545V16.2479C4.87445 9.97772 9.86475 4.9872 16.1346 4.9872Z" fill="#EBC53E"/>
<path d="M16.1346 4.9872H47.8678C54.0097 4.9872 59 9.97772 59 16.1199V47.8545C59 53.9967 54.0097 58.9872 47.8678 58.9872H16.1346C9.99271 58.9872 5.00241 53.9967 5.00241 47.8545V16.2479C4.87445 9.97772 9.86475 4.9872 16.1346 4.9872Z" fill="url(#paint0_linear_1_1858)"/>
<path d="M47 17V47H17V17H47ZM30.5897 36.8718H25.4615V43.7949H30.7179V42.641H26.8718V40.718H30.3333V39.5641H26.8718V38.1539H30.5897V36.8718ZM33.2821 36.8718H32V43.7949H33.2821V39.3077L36.1026 43.7949H37.3846V36.8718H36.1026V41.4872L33.2821 36.8718ZM39.8205 36.8718H38.4103L40.9744 43.7949H42.3846L44.9487 36.8718H43.5385L41.7436 42L39.8205 36.8718ZM23.6667 41.4872H21.4872V43.6667H23.6667V41.4872Z" fill="url(#paint1_linear_1_1858)"/>
<defs>
<linearGradient id="paint0_linear_1_1858" x1="32.0012" y1="4.9872" x2="32.0012" y2="59.1663" gradientUnits="userSpaceOnUse">
<stop stop-color="white" stop-opacity="0.2"/>
<stop offset="0.99" stop-opacity="0.2"/>
</linearGradient>
<linearGradient id="paint1_linear_1_1858" x1="32" y1="16.9103" x2="32" y2="46.9744" gradientUnits="userSpaceOnUse">
<stop stop-color="white"/>
<stop offset="1" stop-color="white" stop-opacity="0.3"/>
</linearGradient>
</defs>
</svg>
