<svg  viewBox="0 0 64 64" width="256" height="256" fill="none" xmlns="http://www.w3.org/2000/svg">
<path d="M13.184 0H50.688C58.112 0 64 5.88682 64 13.1814V50.6779C64 58.1004 58.112 63.9872 50.816 63.9872H13.184C5.888 63.9872 0 58.1004 0 50.8058V13.1814C0 5.88682 5.888 0 13.184 0Z" fill="#FB1911"/>
<path d="M16.1346 5H47.8678C54.0097 5 59 9.99052 59 16.1327V47.8673C59 54.0095 54.0097 59 47.8678 59H16.1346C9.99271 59 5.00241 54.0095 5.00241 47.8673V16.2607C4.87445 9.99052 9.86475 5 16.1346 5Z" fill="#FB1911"/>
<path d="M13.1966 0H50.8063C58.0856 0 64 5.91469 64 13.1943V50.8057C64 58.0853 58.0856 64 50.8063 64H13.1966C5.91728 64 0.00285242 58.0853 0.00285242 50.8057V13.346C-0.1488 5.91469 5.76563 0 13.1966 0Z" fill="url(#paint0_linear_31_199)"/>
<path d="M44.851 30.2225V27.7425L50.8687 17.9464H52.9379V21.3791H51.7133L47.9197 27.5825V27.6989H56.4711V30.2225H44.851ZM51.7696 32.8406V29.4661L51.8259 28.368V17.9464H54.6834V32.8406H51.7696Z" fill="url(#paint1_linear_31_199)"/>
<path d="M7 30.2225V27.7425L13.0177 17.9464H15.0869V21.3791H13.8623L10.0687 27.5825V27.6989H18.6201V30.2225H7ZM13.9186 32.8406V29.4661L13.9749 28.368V17.9464H16.8324V32.8406H13.9186Z" fill="url(#paint2_linear_31_199)"/>
<path d="M35.2383 14.858L32.4636 13.2036C32.0088 12.9321 31.4539 12.9321 30.9991 13.2036L28.2202 14.858L21.9365 18.6062C21.4817 18.8776 21.2021 19.3774 21.2021 19.9159V30.7212C21.2021 31.2598 21.4817 31.7595 21.9365 32.031L24.7154 33.6854L28.2244 35.7792L31.0032 37.4336C31.458 37.705 32.013 37.705 32.4678 37.4336L35.2466 35.7792L38.7557 33.6854L41.5345 32.0267C41.9893 31.7552 42.2689 31.2555 42.2689 30.7169V19.9116C42.2689 19.3731 41.9893 18.8733 41.5345 18.6019L35.2466 14.8537L35.2383 14.858Z" fill="url(#paint3_linear_31_199)"/>
<path opacity="0.25" d="M35.2633 26.5206L32.0631 24.612C31.8586 24.4914 31.6041 24.4914 31.3996 24.612L28.1994 26.5206L22.1535 30.1267C21.7112 30.3895 21.7112 31.0487 22.1535 31.3158L27.8447 34.7107L31.3996 36.8304C31.6041 36.9511 31.8586 36.9511 32.0631 36.8304L41.3134 31.3201C41.7557 31.0573 41.7557 30.3981 41.3134 30.131L35.2633 26.5249V26.5206Z" fill="#FFFFFD"/>
<path opacity="0.5" d="M35.2634 22.919L32.0631 21.0104C31.8586 20.8897 31.6041 20.8897 31.3997 21.0104L28.1994 22.919L22.1493 26.525C21.7071 26.7878 21.7071 27.447 22.1493 27.7141L27.8406 31.1091L31.3955 33.2288C31.5999 33.3494 31.8545 33.3494 32.0589 33.2288L41.3092 27.7184C41.7515 27.4556 41.7515 26.7965 41.3092 26.5293L35.2592 22.9233L35.2634 22.919Z" fill="#FFFFFD"/>
<path opacity="0.75" d="M35.2634 19.3171L32.0631 17.4086C31.8586 17.2879 31.6041 17.2879 31.3997 17.4086L28.1994 19.3171L22.1493 22.9232C21.7071 23.186 21.7071 23.8452 22.1493 24.1123L27.8406 27.5073L31.3955 29.627C31.5999 29.7476 31.8545 29.7476 32.0589 29.627L41.3092 24.1166C41.7515 23.8538 41.7515 23.1946 41.3092 22.9275L35.2592 19.3215L35.2634 19.3171Z" fill="#FFFFFD"/>
<path d="M35.2634 15.7197L32.0631 13.8111C31.8586 13.6905 31.6041 13.6905 31.3997 13.8111L28.1994 15.7197L22.1493 19.3215C21.7071 19.5843 21.7071 20.2435 22.1493 20.5106L27.8406 23.9055L31.3955 26.0252C31.5999 26.1459 31.8545 26.1459 32.0589 26.0252L41.3092 20.5149C41.7515 20.2521 41.7515 19.5929 41.3092 19.3258L35.2592 15.7197H35.2634Z" fill="#FFFFF4"/>
<path d="M9 50.8536V40.1464H15.865V41.7723H10.9121V44.6792H15.5094V46.3051H10.9121V49.2277H15.9063V50.8536H9Z" fill="url(#paint4_linear_31_199)"/>
<path d="M17.8158 50.8536V40.1464H21.774C22.5849 40.1464 23.2652 40.2893 23.815 40.5751C24.3682 40.8609 24.7856 41.2617 25.0674 41.7776C25.3526 42.2899 25.4952 42.8877 25.4952 43.5708C25.4952 44.2574 25.3509 44.8535 25.0622 45.3588C24.777 45.8607 24.3561 46.2494 23.7995 46.5247C23.2429 46.7966 22.5591 46.9325 21.7483 46.9325H18.9291V45.3222H21.4906C21.9647 45.3222 22.353 45.256 22.6553 45.1236C22.9577 44.9876 23.181 44.7907 23.3254 44.5328C23.4731 44.2714 23.547 43.9507 23.547 43.5708C23.547 43.1909 23.4731 42.8668 23.3254 42.5984C23.1776 42.3265 22.9526 42.1209 22.6502 41.9815C22.3478 41.8386 21.9578 41.7671 21.4802 41.7671H19.7279V50.8536H17.8158ZM23.2687 46.0019L25.8817 50.8536H23.748L21.1813 46.0019H23.2687Z" fill="url(#paint5_linear_31_199)"/>
<path d="M27.2552 50.8536V40.1464H31.2134C32.0243 40.1464 32.7047 40.2893 33.2544 40.5751C33.8076 40.8609 34.2251 41.2617 34.5068 41.7776C34.792 42.2899 34.9346 42.8877 34.9346 43.5708C34.9346 44.2574 34.7903 44.8535 34.5017 45.3588C34.2165 45.8607 33.7956 46.2494 33.2389 46.5247C32.6823 46.7966 31.9986 46.9325 31.1877 46.9325H28.3685V45.3222H30.93C31.4041 45.3222 31.7924 45.256 32.0948 45.1236C32.3971 44.9876 32.6205 44.7907 32.7648 44.5328C32.9125 44.2714 32.9864 43.9507 32.9864 43.5708C32.9864 43.1909 32.9125 42.8668 32.7648 42.5984C32.617 42.3265 32.392 42.1209 32.0896 41.9815C31.7873 41.8386 31.3973 41.7671 30.9197 41.7671H29.1673V50.8536H27.2552ZM32.7081 46.0019L35.3211 50.8536H33.1874L30.6207 46.0019H32.7081Z" fill="url(#paint6_linear_31_199)"/>
<path d="M46.1264 45.5C46.1264 46.6537 45.9133 47.6418 45.4873 48.4644C45.0646 49.2834 44.4874 49.9108 43.7555 50.3465C43.0271 50.7822 42.2008 51 41.2765 51C40.3522 51 39.5242 50.7822 38.7923 50.3465C38.0639 49.9073 37.4866 49.2782 37.0606 48.4591C36.638 47.6366 36.4267 46.6502 36.4267 45.5C36.4267 44.3463 36.638 43.3599 37.0606 42.5409C37.4866 41.7183 38.0639 41.0892 38.7923 40.6535C39.5242 40.2178 40.3522 40 41.2765 40C42.2008 40 43.0271 40.2178 43.7555 40.6535C44.4874 41.0892 45.0646 41.7183 45.4873 42.5409C45.9133 43.3599 46.1264 44.3463 46.1264 45.5ZM44.2039 45.5C44.2039 44.6879 44.0785 44.003 43.8277 43.4453C43.5803 42.8842 43.2367 42.4607 42.7969 42.1749C42.3571 41.8856 41.8503 41.741 41.2765 41.741C40.7027 41.741 40.1959 41.8856 39.7561 42.1749C39.3163 42.4607 38.971 42.8842 38.7202 43.4453C38.4728 44.003 38.3491 44.6879 38.3491 45.5C38.3491 46.3121 38.4728 46.9987 38.7202 47.5599C38.971 48.1176 39.3163 48.541 39.7561 48.8303C40.1959 49.1161 40.7027 49.259 41.2765 49.259C41.8503 49.259 42.3571 49.1161 42.7969 48.8303C43.2367 48.541 43.5803 48.1176 43.8277 47.5599C44.0785 46.9987 44.2039 46.3121 44.2039 45.5Z" fill="url(#paint7_linear_31_199)"/>
<path d="M47.9341 50.8536V40.1464H51.8923C52.7032 40.1464 53.3835 40.2893 53.9333 40.5751C54.4865 40.8609 54.9039 41.2617 55.1857 41.7776C55.4709 42.2899 55.6135 42.8877 55.6135 43.5708C55.6135 44.2574 55.4691 44.8535 55.1805 45.3588C54.8953 45.8607 54.4744 46.2494 53.9178 46.5247C53.3612 46.7966 52.6774 46.9325 51.8665 46.9325H49.0473V45.3222H51.6088C52.083 45.3222 52.4713 45.256 52.7736 45.1236C53.076 44.9876 53.2993 44.7907 53.4436 44.5328C53.5914 44.2714 53.6653 43.9507 53.6653 43.5708C53.6653 43.1909 53.5914 42.8668 53.4436 42.5984C53.2959 42.3265 53.0708 42.1209 52.7685 41.9815C52.4661 41.8386 52.0761 41.7671 51.5985 41.7671H49.8462V50.8536H47.9341ZM53.387 46.0019L56 50.8536H53.8663L51.2996 46.0019H53.387Z" fill="url(#paint8_linear_31_199)"/>
<defs>
<linearGradient id="paint0_linear_31_199" x1="32.0014" y1="0" x2="32.0014" y2="64.2123" gradientUnits="userSpaceOnUse">
<stop stop-color="white" stop-opacity="0.2"/>
<stop offset="1" stop-opacity="0.2"/>
</linearGradient>
<linearGradient id="paint1_linear_31_199" x1="50.6611" y1="17.9464" x2="50.6611" y2="32.8406" gradientUnits="userSpaceOnUse">
<stop stop-color="white"/>
<stop offset="1" stop-color="white" stop-opacity="0.3"/>
</linearGradient>
<linearGradient id="paint2_linear_31_199" x1="12.8101" y1="17.9464" x2="12.8101" y2="32.8406" gradientUnits="userSpaceOnUse">
<stop stop-color="white"/>
<stop offset="1" stop-color="white" stop-opacity="0.3"/>
</linearGradient>
<linearGradient id="paint3_linear_31_199" x1="31.7355" y1="13" x2="31.7355" y2="37.6372" gradientUnits="userSpaceOnUse">
<stop stop-color="white" stop-opacity="0.9"/>
<stop offset="1" stop-color="white" stop-opacity="0.3"/>
</linearGradient>
<linearGradient id="paint4_linear_31_199" x1="32.3679" y1="36.1312" x2="32.3679" y2="52.192" gradientUnits="userSpaceOnUse">
<stop stop-color="white"/>
<stop offset="1" stop-color="white" stop-opacity="0.3"/>
</linearGradient>
<linearGradient id="paint5_linear_31_199" x1="32.3679" y1="36.1312" x2="32.3679" y2="52.192" gradientUnits="userSpaceOnUse">
<stop stop-color="white"/>
<stop offset="1" stop-color="white" stop-opacity="0.3"/>
</linearGradient>
<linearGradient id="paint6_linear_31_199" x1="32.3679" y1="36.1312" x2="32.3679" y2="52.192" gradientUnits="userSpaceOnUse">
<stop stop-color="white"/>
<stop offset="1" stop-color="white" stop-opacity="0.3"/>
</linearGradient>
<linearGradient id="paint7_linear_31_199" x1="32.3679" y1="36.1312" x2="32.3679" y2="52.192" gradientUnits="userSpaceOnUse">
<stop stop-color="white"/>
<stop offset="1" stop-color="white" stop-opacity="0.3"/>
</linearGradient>
<linearGradient id="paint8_linear_31_199" x1="32.3679" y1="36.1312" x2="32.3679" y2="52.192" gradientUnits="userSpaceOnUse">
<stop stop-color="white"/>
<stop offset="1" stop-color="white" stop-opacity="0.3"/>
</linearGradient>
</defs>
</svg>
