<svg width="256" height="256" viewBox="0 0 256 256" fill="none" xmlns="http://www.w3.org/2000/svg">
<path d="M52.736 0H202.752C232.448 0 256 23.552 256 52.736V202.752C256 232.448 232.448 256 203.264 256H52.736C23.552 256 0 232.448 0 203.264V52.736C0 23.552 23.552 0 52.736 0Z" fill="#0C0C0C"/>
<path d="M64.5385 20H191.471C216.039 20 236 39.9621 236 64.5308V191.469C236 216.038 216.039 236 191.471 236H64.5385C39.9708 236 20.0096 216.038 20.0096 191.469V65.0427C19.4978 39.9621 39.459 20 64.5385 20Z" fill="black"/>
<path d="M64.5385 20H191.471C216.039 20 236 39.9621 236 64.5308V191.469C236 216.038 216.039 236 191.471 236H64.5385C39.9708 236 20.0096 216.038 20.0096 191.469V65.0427C19.4978 39.9621 39.459 20 64.5385 20Z" fill="url(#paint0_linear_72_342)"/>
<path d="M199.218 92.9323L204 80.4766L203.804 79.7065L156.475 92.2258C161.522 84.8873 159.787 79 159.787 79C159.787 79 144.669 88.6998 133.231 88.4516C121.806 88.197 118.114 85.1419 100.583 90.7556C83.0523 96.3692 78.0933 113.605 73.0267 117.315C67.9347 121.026 52 133.081 52 133.081L52.038 133.297L66.4147 128.689C66.4147 128.689 62.4753 132.412 54.0963 143.773L53.7037 143.411L53.7163 143.481C53.7163 143.481 60.455 153.83 67.0607 151.907C67.8322 151.663 68.5804 151.35 69.2963 150.972C71.95 152.461 75.4207 153.919 79.2523 154.313C79.2523 154.313 76.6557 151.29 74.4897 147.84L75.997 146.86L81.4753 148.884L80.8673 143.716C80.8863 143.697 80.9053 143.697 80.918 143.678L86.295 145.657L85.63 140.96C86.299 140.603 86.9791 140.268 87.6693 139.955L93.2743 118.665L116.467 102.772L114.624 107.437C109.931 119.059 101.102 121.796 101.102 121.796L97.4163 123.196C94.674 126.455 93.5277 127.251 92.5777 138.172C94.7817 137.612 96.897 137.491 98.8097 137.994C108.715 140.674 112.154 152.678 109.481 155.987C108.823 156.815 107.227 158.24 105.219 159.914H101.21L101.159 163.186L100.748 163.51H96.6627L96.6057 166.718L95.529 167.526C91.6847 167.596 86.8333 164.229 86.8333 164.229C86.8333 167.291 89.373 172.026 89.373 172.026L89.8163 171.81L89.43 172.096C89.43 172.096 99.7217 178.989 106.188 176.431C111.951 174.165 126.854 162.346 139.729 156.745L178.679 146.434L183.816 133.068L154.125 140.928V128.905L188.958 119.689L194.095 106.324L154.131 116.902V104.879L199.218 92.9323ZM128.519 118.391L137.76 115.947L137.886 116.418L135.005 123.922L125.422 126.455L128.519 118.391ZM131.705 134.468L122.129 137.001L125.226 128.944L134.466 126.493L134.593 126.964L131.705 134.468ZM144.188 131.77L134.606 134.303L137.709 126.245L146.949 123.795L147.076 124.259L144.188 131.77Z" fill="url(#paint1_linear_72_342)"/>
<defs>
<linearGradient id="paint0_linear_72_342" x1="128.005" y1="20" x2="128.005" y2="236.717" gradientUnits="userSpaceOnUse">
<stop stop-color="white" stop-opacity="0.13"/>
<stop offset="0.99" stop-color="#666464" stop-opacity="0.2"/>
</linearGradient>
<linearGradient id="paint1_linear_72_342" x1="128" y1="79" x2="128" y2="177" gradientUnits="userSpaceOnUse">
<stop stop-color="white"/>
<stop offset="1" stop-color="white" stop-opacity="0.3"/>
</linearGradient>
</defs>
</svg>
