<svg width="256" height="256" viewBox="0 0 256 256" fill="none" xmlns="http://www.w3.org/2000/svg">
<path d="M52.736 0H202.752C232.448 0 256 23.552 256 52.736V202.752C256 232.448 232.448 256 203.264 256H52.736C23.552 256 0 232.448 0 203.264V52.736C0 23.552 23.552 0 52.736 0Z" fill="#2A1611"/>
<path d="M64.5385 20H191.471C216.039 20 236 39.9621 236 64.5308V191.469C236 216.038 216.039 236 191.471 236H64.5385C39.9708 236 20.0096 216.038 20.0096 191.469V65.0427C19.4978 39.9621 39.459 20 64.5385 20Z" fill="#F24D1C"/>
<path d="M64.5385 20H191.471C216.039 20 236 39.9621 236 64.5308V191.469C236 216.038 216.039 236 191.471 236H64.5385C39.9708 236 20.0096 216.038 20.0096 191.469V65.0427C19.4978 39.9621 39.459 20 64.5385 20Z" fill="url(#paint0_linear_61_285)"/>
<path d="M147.664 112.905H124.841V68H147.664C159.981 68 170 78.07 170 90.45C170 102.83 159.981 112.905 147.664 112.905ZM132.159 105.55H147.664C155.947 105.55 162.682 98.775 162.682 90.455C162.682 82.135 155.942 75.36 147.664 75.36H132.159V105.55ZM132.159 112.905H109.341C97.0237 112.905 87.005 102.835 87.005 90.455C87.005 78.075 97.0237 68 109.341 68H132.164V112.905H132.159ZM109.341 75.355C101.058 75.355 94.3225 82.13 94.3225 90.45C94.3225 98.77 101.058 105.55 109.341 105.55H124.846V75.355H109.341ZM132.159 150.45H109.341C97.0237 150.45 87.005 140.38 87.005 128C87.005 115.62 97.0237 105.55 109.341 105.55H132.164V150.45H132.159ZM109.341 112.905C101.058 112.905 94.3225 119.68 94.3225 128C94.3225 136.32 101.063 143.095 109.341 143.095H124.846V112.905H109.341ZM109.46 188C97.0784 188 87 177.93 87 165.55C87 153.17 97.0187 143.1 109.336 143.1H132.159V165.305C132.159 177.82 121.976 188 109.46 188ZM109.341 150.45C105.359 150.455 101.542 152.047 98.727 154.877C95.9117 157.707 94.3278 161.543 94.3225 165.545C94.3225 173.87 101.113 180.64 109.465 180.64C117.947 180.64 124.851 173.76 124.851 165.3V150.45H109.341ZM147.664 150.45H147.177C134.86 150.45 124.841 140.38 124.841 128C124.841 115.62 134.86 105.55 147.177 105.55H147.664C159.981 105.55 170 115.62 170 128C170 140.38 159.981 150.45 147.664 150.45ZM147.182 112.905C138.899 112.905 132.164 119.68 132.164 128C132.164 136.32 138.904 143.095 147.182 143.095H147.669C155.952 143.095 162.687 136.32 162.687 128C162.687 119.68 155.942 112.905 147.664 112.905H147.182Z" fill="url(#paint1_linear_61_285)"/>
<defs>
<linearGradient id="paint0_linear_61_285" x1="128.005" y1="20" x2="128.005" y2="236.717" gradientUnits="userSpaceOnUse">
<stop stop-color="white" stop-opacity="0.2"/>
<stop offset="0.99" stop-opacity="0.2"/>
</linearGradient>
<linearGradient id="paint1_linear_61_285" x1="128.5" y1="68" x2="128.5" y2="188" gradientUnits="userSpaceOnUse">
<stop stop-color="white"/>
<stop offset="1" stop-color="white" stop-opacity="0.3"/>
</linearGradient>
</defs>
</svg>
