<svg width="256" height="256" viewBox="0 0 256 256" fill="none" xmlns="http://www.w3.org/2000/svg">
<path d="M52.736 0H202.752C232.448 0 256 23.552 256 52.736V202.752C256 232.448 232.448 256 203.264 256H52.736C23.552 256 0 232.448 0 203.264V52.736C0 23.552 23.552 0 52.736 0Z" fill="#2C2011"/>
<path d="M64.5385 20H191.471C216.039 20 236 39.9621 236 64.5308V191.469C236 216.038 216.039 236 191.471 236H64.5385C39.9708 236 20.0096 216.038 20.0096 191.469V65.0427C19.4978 39.9621 39.459 20 64.5385 20Z" fill="#FFA000"/>
<path d="M64.5385 20H191.471C216.039 20 236 39.9621 236 64.5308V191.469C236 216.038 216.039 236 191.471 236H64.5385C39.9708 236 20.0096 216.038 20.0096 191.469V65.0427C19.4978 39.9621 39.459 20 64.5385 20Z" fill="url(#paint0_linear_103_182)"/>
<g style="mix-blend-mode:plus-lighter">
<path opacity="0.1" d="M19.05 128.488V128.076H235.526V128.488H19.05Z" fill="black" stroke="white" stroke-width="0.1" stroke-miterlimit="10"/>
<path opacity="0.1" d="M19.5939 199.95V164.05H235.494V199.95H19.5939Z" fill="black" stroke="white" stroke-width="0.1" stroke-miterlimit="10"/>
<path opacity="0.1" d="M235.544 92H19.5439V56H235.544V92Z" fill="black" stroke="white" stroke-width="0.1" stroke-miterlimit="10"/>
<path opacity="0.1" d="M19.5939 200.462V200.05H236.07V200.462H19.5939Z" fill="black" stroke="white" stroke-width="0.1" stroke-miterlimit="10"/>
<path opacity="0.1" d="M127.594 236.483V20.05H128.006V236.483H127.594Z" fill="black" stroke="white" stroke-width="0.1" stroke-miterlimit="10"/>
<path opacity="0.1" d="M203.544 20H167.544V236H203.544V20Z" fill="black" stroke="white" stroke-width="0.1" stroke-miterlimit="10"/>
<path opacity="0.1" d="M51.5439 20H87.5439V236H51.5439V20Z" fill="black" stroke="white" stroke-width="0.1" stroke-miterlimit="10"/>
<path opacity="0.1" d="M127.544 220C178.354 220 219.544 178.81 219.544 128C219.544 77.1898 178.354 36 127.544 36C76.7338 36 35.5439 77.1898 35.5439 128C35.5439 178.81 76.7338 220 127.544 220Z" stroke="white" stroke-width="0.1" stroke-miterlimit="10"/>
<path opacity="0.1" d="M127.544 188C160.681 188 187.544 161.137 187.544 128C187.544 94.8629 160.681 68 127.544 68C94.4069 68 67.5439 94.8629 67.5439 128C67.5439 161.137 94.4069 188 127.544 188Z" stroke="white" stroke-width="0.1" stroke-miterlimit="10"/>
<path opacity="0.1" d="M127.544 184C158.472 184 183.544 158.928 183.544 128C183.544 97.0721 158.472 72 127.544 72C96.616 72 71.5439 97.0721 71.5439 128C71.5439 158.928 96.616 184 127.544 184Z" stroke="white" stroke-width="0.1" stroke-miterlimit="10"/>
<path opacity="0.1" d="M127.544 156C143.008 156 155.544 143.464 155.544 128C155.544 112.536 143.008 100 127.544 100C112.08 100 99.5439 112.536 99.5439 128C99.5439 143.464 112.08 156 127.544 156Z" stroke="white" stroke-width="0.1" stroke-miterlimit="10"/>
<path opacity="0.1" d="M127.544 148C138.59 148 147.544 139.046 147.544 128C147.544 116.954 138.59 108 127.544 108C116.498 108 107.544 116.954 107.544 128C107.544 139.046 116.498 148 127.544 148Z" stroke="white" stroke-width="0.1" stroke-miterlimit="10"/>
</g>
<path d="M53 199.672V176.515H68.3849V181.061H58.4474V185.81H67.4055V190.366H58.4474V199.672H53Z" fill="url(#paint1_linear_103_182)"/>
<path d="M80.9745 192.175V182.304H86.3449V199.672H81.2167V196.438H81.0406C80.6664 197.501 80.0281 198.345 79.1257 198.971C78.2306 199.589 77.1485 199.898 75.8793 199.898C74.7274 199.898 73.715 199.627 72.8419 199.084C71.9688 198.541 71.2902 197.784 70.806 196.811C70.3218 195.831 70.076 194.686 70.0687 193.374V182.304H75.4501V192.289C75.4574 193.231 75.6995 193.973 76.1764 194.516C76.6533 195.059 77.3026 195.33 78.1243 195.33C78.6598 195.33 79.1404 195.21 79.5659 194.968C79.9988 194.72 80.3399 194.362 80.5894 193.894C80.8462 193.419 80.9745 192.846 80.9745 192.175Z" fill="url(#paint2_linear_103_182)"/>
<path d="M95.1516 189.767V199.672H89.7702V182.304H94.8875V185.493H95.0746C95.4488 184.43 96.0871 183.597 96.9895 182.994C97.8919 182.384 98.9667 182.078 100.214 182.078C101.402 182.078 102.433 182.353 103.306 182.904C104.187 183.446 104.869 184.208 105.353 185.188C105.845 186.16 106.087 187.298 106.08 188.602V199.672H100.698V189.688C100.705 188.723 100.467 187.969 99.9828 187.427C99.5059 186.884 98.842 186.612 97.9909 186.612C97.426 186.612 96.9271 186.741 96.4942 186.997C96.0687 187.246 95.7386 187.604 95.5038 188.071C95.2764 188.538 95.159 189.104 95.1516 189.767Z" fill="url(#paint3_linear_103_182)"/>
<path d="M117.302 200C115.519 200 113.989 199.623 112.713 198.869C111.444 198.115 110.468 197.068 109.785 195.726C109.103 194.377 108.762 192.816 108.762 191.045C108.762 189.266 109.103 187.705 109.785 186.364C110.475 185.014 111.455 183.963 112.724 183.209C114 182.455 115.523 182.078 117.291 182.078C118.854 182.078 120.214 182.368 121.374 182.949C122.54 183.529 123.45 184.351 124.103 185.414C124.763 186.469 125.112 187.709 125.148 189.134H120.119C120.016 188.244 119.723 187.547 119.239 187.042C118.762 186.537 118.138 186.284 117.368 186.284C116.744 186.284 116.198 186.465 115.728 186.827C115.259 187.182 114.892 187.709 114.628 188.41C114.371 189.104 114.242 189.963 114.242 190.988C114.242 192.013 114.371 192.88 114.628 193.589C114.892 194.29 115.259 194.821 115.728 195.183C116.198 195.537 116.744 195.715 117.368 195.715C117.867 195.715 118.307 195.605 118.688 195.387C119.077 195.168 119.396 194.848 119.646 194.426C119.895 193.996 120.053 193.476 120.119 192.865H125.148C125.097 194.297 124.748 195.549 124.103 196.619C123.465 197.69 122.566 198.523 121.407 199.118C120.255 199.706 118.887 200 117.302 200Z" fill="url(#paint4_linear_103_182)"/>
<path d="M137.444 182.304V186.375H126.78V182.304H137.444ZM129.014 178.143H134.395V194.211C134.395 194.55 134.447 194.825 134.549 195.036C134.659 195.24 134.817 195.387 135.023 195.477C135.228 195.56 135.474 195.602 135.76 195.602C135.965 195.602 136.182 195.583 136.409 195.545C136.644 195.5 136.82 195.462 136.937 195.432L137.752 199.423C137.495 199.499 137.132 199.593 136.662 199.706C136.2 199.819 135.646 199.891 135.001 199.921C133.739 199.981 132.656 199.83 131.754 199.469C130.859 199.099 130.173 198.526 129.696 197.75C129.227 196.973 128.999 195.997 129.014 194.821V178.143Z" fill="url(#paint5_linear_103_182)"/>
<path d="M140.189 199.672V182.304H145.571V199.672H140.189ZM142.886 180.28C142.13 180.28 141.481 180.024 140.938 179.512C140.395 178.991 140.123 178.366 140.123 177.635C140.123 176.911 140.395 176.293 140.938 175.78C141.481 175.26 142.13 175 142.886 175C143.649 175 144.298 175.26 144.833 175.78C145.376 176.293 145.648 176.911 145.648 177.635C145.648 178.366 145.376 178.991 144.833 179.512C144.298 180.024 143.649 180.28 142.886 180.28Z" fill="url(#paint6_linear_103_182)"/>
<path d="M156.887 200C155.111 200 153.585 199.627 152.309 198.881C151.039 198.127 150.06 197.079 149.37 195.737C148.688 194.388 148.347 192.824 148.347 191.045C148.347 189.258 148.688 187.694 149.37 186.352C150.06 185.003 151.039 183.955 152.309 183.209C153.585 182.455 155.111 182.078 156.887 182.078C158.662 182.078 160.184 182.455 161.454 183.209C162.73 183.955 163.71 185.003 164.392 186.352C165.082 187.694 165.426 189.258 165.426 191.045C165.426 192.824 165.082 194.388 164.392 195.737C163.71 197.079 162.73 198.127 161.454 198.881C160.184 199.627 158.662 200 156.887 200ZM156.92 195.828C157.565 195.828 158.112 195.624 158.559 195.217C159.007 194.81 159.348 194.245 159.583 193.521C159.825 192.797 159.946 191.961 159.946 191.011C159.946 190.046 159.825 189.202 159.583 188.478C159.348 187.754 159.007 187.189 158.559 186.782C158.112 186.375 157.565 186.171 156.92 186.171C156.252 186.171 155.687 186.375 155.225 186.782C154.77 187.189 154.421 187.754 154.179 188.478C153.945 189.202 153.827 190.046 153.827 191.011C153.827 191.961 153.945 192.797 154.179 193.521C154.421 194.245 154.77 194.81 155.225 195.217C155.687 195.624 156.252 195.828 156.92 195.828Z" fill="url(#paint7_linear_103_182)"/>
<path d="M173.565 189.767V199.672H168.183V182.304H173.3V185.493H173.488C173.862 184.43 174.5 183.597 175.402 182.994C176.305 182.384 177.38 182.078 178.627 182.078C179.815 182.078 180.846 182.353 181.719 182.904C182.6 183.446 183.282 184.208 183.766 185.188C184.258 186.16 184.5 187.298 184.492 188.602V199.672H179.111V189.688C179.118 188.723 178.88 187.969 178.396 187.427C177.919 186.884 177.255 186.612 176.404 186.612C175.839 186.612 175.34 186.741 174.907 186.997C174.482 187.246 174.151 187.604 173.917 188.071C173.689 188.538 173.572 189.104 173.565 189.767Z" fill="url(#paint8_linear_103_182)"/>
<path d="M202.582 187.607L197.641 187.743C197.589 187.381 197.45 187.061 197.222 186.782C196.995 186.496 196.698 186.273 196.331 186.115C195.972 185.949 195.553 185.866 195.076 185.866C194.453 185.866 193.921 185.994 193.481 186.251C193.048 186.507 192.835 186.854 192.842 187.291C192.835 187.63 192.967 187.924 193.239 188.173C193.517 188.422 194.013 188.621 194.724 188.772L197.982 189.405C199.669 189.737 200.924 190.287 201.745 191.056C202.574 191.825 202.993 192.843 203 194.109C202.993 195.3 202.648 196.336 201.966 197.218C201.291 198.1 200.366 198.786 199.192 199.276C198.018 199.759 196.676 200 195.164 200C192.751 200 190.847 199.491 189.453 198.474C188.066 197.448 187.274 196.076 187.076 194.358L192.391 194.222C192.509 194.855 192.813 195.338 193.305 195.669C193.796 196.001 194.423 196.167 195.186 196.167C195.876 196.167 196.437 196.035 196.87 195.771C197.303 195.507 197.523 195.157 197.531 194.72C197.523 194.328 197.354 194.015 197.024 193.781C196.694 193.54 196.177 193.351 195.473 193.216L192.523 192.639C190.829 192.322 189.567 191.738 188.738 190.886C187.909 190.027 187.498 188.934 187.505 187.607C187.498 186.447 187.799 185.455 188.407 184.634C189.016 183.804 189.882 183.171 191.005 182.734C192.127 182.297 193.451 182.078 194.977 182.078C197.266 182.078 199.071 182.572 200.392 183.559C201.712 184.539 202.442 185.889 202.582 187.607Z" fill="url(#paint9_linear_103_182)"/>
<path fill-rule="evenodd" clip-rule="evenodd" d="M149.277 79.4931C148.581 79.4539 147.864 79.686 147.301 80.2496L124.291 103.343L92.9485 134.795L79 148.794L92.9485 156.63L97.1397 158.983L116.805 170.03C119.107 171.31 121.965 171.317 124.291 170.09C124.34 170.064 124.396 170.057 124.445 170.03L140.564 161.052C139.912 160.4 139.3 159.709 138.731 158.983C135.125 154.879 133.089 149.629 132.984 144.164C132.984 131.401 143.324 121.054 156.078 121.054C156.761 121.072 157.443 121.12 158.122 121.198L151.739 81.6856C151.535 80.3787 150.438 79.5583 149.277 79.4931Z" fill="url(#paint10_linear_103_182)"/>
<path fill-rule="evenodd" clip-rule="evenodd" d="M120.822 72.1623C119.908 72.1623 118.994 72.6375 118.504 73.5849L92.9484 119.176L80.0436 142.196L92.9484 129.265L124.291 97.8635L131.89 90.2482L124.291 75.7775L123.14 73.5849C122.65 72.6375 121.736 72.1623 120.822 72.1623Z" fill="url(#paint11_linear_103_182)"/>
<path fill-rule="evenodd" clip-rule="evenodd" d="M95.7115 56.0011C94.5382 56.0352 93.3897 56.8304 93.1693 58.2271L92.9486 59.6431L81.8065 131.086L92.9486 111.189L110.275 80.2496L98.0663 57.3803C97.5521 56.4083 96.624 55.9747 95.7115 56.0011Z" fill="url(#paint12_linear_103_182)"/>
<path fill-rule="evenodd" clip-rule="evenodd" d="M155.963 123.883C153.331 123.883 150.724 124.402 148.292 125.41C145.86 126.418 143.65 127.896 141.788 129.758C139.927 131.621 138.45 133.833 137.443 136.267C136.435 138.701 135.917 141.309 135.917 143.944C135.917 146.578 136.435 149.187 137.443 151.621C138.45 154.055 139.927 156.266 141.788 158.129C143.65 159.992 145.86 161.47 148.292 162.478C150.724 163.486 153.331 164.005 155.963 164.005C158.596 164.005 161.203 163.486 163.635 162.478C166.067 161.47 168.277 159.992 170.138 158.129C172 156.266 173.476 154.055 174.484 151.621C175.491 149.187 176.01 146.578 176.01 143.944C176.01 141.309 175.491 138.701 174.484 136.267C173.476 133.833 172 131.621 170.138 129.758C168.277 127.896 166.067 126.418 163.635 125.41C161.203 124.402 158.596 123.883 155.963 123.883ZM147.955 133.771L150.357 136.174L147.156 139.217V148.67L150.357 151.874L148.116 154.116L143.794 149.792V138.096L147.955 133.771ZM163.807 133.771L168.129 138.096V149.792L163.647 154.116L161.566 151.874L164.767 148.67V139.217L161.566 136.174L163.807 133.771Z" fill="url(#paint13_linear_103_182)"/>
<defs>
<linearGradient id="paint0_linear_103_182" x1="128.005" y1="20" x2="128.005" y2="236.717" gradientUnits="userSpaceOnUse">
<stop stop-color="white" stop-opacity="0.2"/>
<stop offset="0.99" stop-opacity="0.2"/>
</linearGradient>
<linearGradient id="paint1_linear_103_182" x1="128" y1="175" x2="128" y2="200" gradientUnits="userSpaceOnUse">
<stop stop-color="white"/>
<stop offset="1" stop-color="white" stop-opacity="0.3"/>
</linearGradient>
<linearGradient id="paint2_linear_103_182" x1="128" y1="175" x2="128" y2="200" gradientUnits="userSpaceOnUse">
<stop stop-color="white"/>
<stop offset="1" stop-color="white" stop-opacity="0.3"/>
</linearGradient>
<linearGradient id="paint3_linear_103_182" x1="128" y1="175" x2="128" y2="200" gradientUnits="userSpaceOnUse">
<stop stop-color="white"/>
<stop offset="1" stop-color="white" stop-opacity="0.3"/>
</linearGradient>
<linearGradient id="paint4_linear_103_182" x1="128" y1="175" x2="128" y2="200" gradientUnits="userSpaceOnUse">
<stop stop-color="white"/>
<stop offset="1" stop-color="white" stop-opacity="0.3"/>
</linearGradient>
<linearGradient id="paint5_linear_103_182" x1="128" y1="175" x2="128" y2="200" gradientUnits="userSpaceOnUse">
<stop stop-color="white"/>
<stop offset="1" stop-color="white" stop-opacity="0.3"/>
</linearGradient>
<linearGradient id="paint6_linear_103_182" x1="128" y1="175" x2="128" y2="200" gradientUnits="userSpaceOnUse">
<stop stop-color="white"/>
<stop offset="1" stop-color="white" stop-opacity="0.3"/>
</linearGradient>
<linearGradient id="paint7_linear_103_182" x1="128" y1="175" x2="128" y2="200" gradientUnits="userSpaceOnUse">
<stop stop-color="white"/>
<stop offset="1" stop-color="white" stop-opacity="0.3"/>
</linearGradient>
<linearGradient id="paint8_linear_103_182" x1="128" y1="175" x2="128" y2="200" gradientUnits="userSpaceOnUse">
<stop stop-color="white"/>
<stop offset="1" stop-color="white" stop-opacity="0.3"/>
</linearGradient>
<linearGradient id="paint9_linear_103_182" x1="128" y1="175" x2="128" y2="200" gradientUnits="userSpaceOnUse">
<stop stop-color="white"/>
<stop offset="1" stop-color="white" stop-opacity="0.3"/>
</linearGradient>
<linearGradient id="paint10_linear_103_182" x1="118.758" y1="55.7988" x2="118.561" y2="171" gradientUnits="userSpaceOnUse">
<stop stop-color="white"/>
<stop offset="1" stop-color="white" stop-opacity="0.3"/>
</linearGradient>
<linearGradient id="paint11_linear_103_182" x1="108.291" y1="57.0065" x2="105.876" y2="168.515" gradientUnits="userSpaceOnUse">
<stop stop-color="white"/>
<stop offset="1" stop-color="white" stop-opacity="0.3"/>
</linearGradient>
<linearGradient id="paint12_linear_103_182" x1="96.041" y1="56" x2="96.2148" y2="169.32" gradientUnits="userSpaceOnUse">
<stop stop-color="white"/>
<stop offset="1" stop-color="white" stop-opacity="0.3"/>
</linearGradient>
<linearGradient id="paint13_linear_103_182" x1="155.793" y1="55.7988" x2="155.793" y2="173.346" gradientUnits="userSpaceOnUse">
<stop stop-color="white"/>
<stop offset="1" stop-color="white" stop-opacity="0.3"/>
</linearGradient>
</defs>
</svg>
