<svg width="256" height="256" viewBox="0 0 64 64" fill="none" xmlns="http://www.w3.org/2000/svg">
<path d="M13.184 0H50.688C58.112 0 64 5.88682 64 13.1814V50.6779C64 58.1004 58.112 63.9872 50.816 63.9872H13.184C5.888 63.9872 0 58.1004 0 50.8058V13.1814C0 5.88682 5.888 0 13.184 0Z" fill="#291614"/>
<path d="M16.1346 4.98721H47.8678C54.0097 4.98721 59 9.97773 59 16.1199V47.8545C59 53.9967 54.0097 58.9872 47.8678 58.9872H16.1346C9.99271 58.9872 5.00241 53.9967 5.00241 47.8545V16.2479C4.87445 9.97773 9.86475 4.98721 16.1346 4.98721Z" fill="#F05032"/>
<path d="M16.1346 4.98721H47.8678C54.0097 4.98721 59 9.97773 59 16.1199V47.8545C59 53.9967 54.0097 58.9872 47.8678 58.9872H16.1346C9.99271 58.9872 5.00241 53.9967 5.00241 47.8545V16.2479C4.87445 9.97773 9.86475 4.98721 16.1346 4.98721Z" fill="url(#paint0_linear_1_885)"/>
<path d="M47.3851 30.6538L33.3182 17.5769C32.522 16.8077 31.1949 16.8077 30.3987 17.5769L27.4791 20.2692L31.1949 23.7308C32.1238 23.4744 33.0528 23.6026 33.7163 24.2436C34.3799 24.8846 34.6453 25.9103 34.3799 26.5513L37.9629 29.8846C38.8919 29.6282 39.8208 29.7564 40.4844 30.3974C41.4133 31.2949 41.4133 32.7051 40.4844 33.6026C39.5554 34.5 37.9629 34.5 37.034 33.6026C36.2378 32.9615 36.105 31.9359 36.5032 31.1667L33.1855 28.0897V36.1667C33.4509 36.2949 33.7163 36.4231 33.849 36.5513C34.778 37.4487 34.778 38.859 33.849 39.7564C32.9201 40.6538 31.3276 40.6538 30.3987 39.7564C29.4697 38.859 29.4697 37.4487 30.3987 36.5513C30.6641 36.2949 30.9295 36.1667 31.1949 36.0385V27.9615C30.9295 27.8333 30.6641 27.7051 30.3987 27.4487C29.6024 26.8077 29.4697 25.7821 29.8678 25.0128L26.2848 21.6795L16.5972 30.6538C15.8009 31.4231 15.8009 32.7051 16.5972 33.3462L30.6641 46.4231C31.4603 47.1923 32.7874 47.1923 33.5836 46.4231L47.5178 33.4744C48.1813 32.5769 48.1813 31.5513 47.3851 30.6538Z" fill="url(#paint1_linear_1_885)"/>
<defs>
<linearGradient id="paint0_linear_1_885" x1="32.0012" y1="4.98721" x2="32.0012" y2="59.1664" gradientUnits="userSpaceOnUse">
<stop stop-color="white" stop-opacity="0.2"/>
<stop offset="0.99" stop-opacity="0.2"/>
</linearGradient>
<linearGradient id="paint1_linear_1_885" x1="32.0044" y1="17.0513" x2="32.0044" y2="47" gradientUnits="userSpaceOnUse">
<stop stop-color="white"/>
<stop offset="1" stop-color="white" stop-opacity="0.3"/>
</linearGradient>
</defs>
</svg>
