<svg width="256" height="256" viewBox="0 0 64 64" fill="none" xmlns="http://www.w3.org/2000/svg">
<path d="M13.184 0H50.688C58.112 0 64 5.88682 64 13.1814V50.6779C64 58.1004 58.112 63.9872 50.816 63.9872H13.184C5.888 63.9872 0 58.1004 0 50.8058V13.1814C0 5.88682 5.888 0 13.184 0Z" fill="#2C1F11"/>
<path d="M16.1346 5H47.8678C54.0097 5 59 9.99052 59 16.1327V47.8673C59 54.0095 54.0097 59 47.8678 59H16.1346C9.99271 59 5.00241 54.0095 5.00241 47.8673V16.2607C4.87445 9.99052 9.86475 5 16.1346 5Z" fill="#FF9A00"/>
<path d="M16.1346 5H47.8678C54.0097 5 59 9.99052 59 16.1327V47.8673C59 54.0095 54.0097 59 47.8678 59H16.1346C9.99271 59 5.00241 54.0095 5.00241 47.8673V16.2607C4.87445 9.99052 9.86475 5 16.1346 5Z" fill="url(#paint0_linear_1_1695)"/>
<path d="M30.9326 20.9281C30.9326 20.7995 30.8041 20.7996 30.6756 20.7996H24.8913C24.7628 20.7996 24.6342 20.9281 24.7628 21.0566C24.7628 21.5708 24.7628 21.9564 24.6342 22.5991C24.5057 22.8562 24.5057 23.1133 24.3772 23.3703L17.0504 44.3222C16.9219 44.5793 17.0504 44.7078 17.3075 44.7078H21.5493C21.8064 44.7078 21.9349 44.5793 21.9349 44.4508L23.7345 39.1807H32.0895L34.0176 44.5793C34.0176 44.7078 34.2747 44.8364 34.4032 44.8364H39.1592C39.4162 44.8364 39.4162 44.7078 39.4162 44.4508L30.9326 20.9281ZM24.8913 34.4247C25.2769 33.5249 25.534 32.3681 25.7911 31.3398C26.1767 30.3115 26.4338 29.0261 26.8194 27.9977C27.0765 27.098 27.3336 26.0697 27.5906 25.0414C27.7192 25.5555 27.8477 26.0697 28.1048 26.8409C28.2333 27.4836 28.4904 28.2548 28.7475 28.8975C29.0046 29.5402 29.1331 30.3114 29.3902 30.9541C29.6473 31.5968 29.7758 32.3681 30.0329 32.8822C30.2899 33.3964 30.4185 34.0391 30.547 34.5532H24.6342V34.4247H24.8913Z" fill="url(#paint1_linear_1_1695)"/>
<path d="M46.7429 26.8409V44.3222C46.7429 44.5793 46.6144 44.7078 46.4859 44.7078H41.987C41.7299 44.7078 41.6014 44.5793 41.6014 44.3222V26.8409C41.6014 26.5838 41.7299 26.5838 41.8585 26.5838H46.3573C46.6144 26.5838 46.7429 26.7124 46.7429 26.8409Z" fill="url(#paint2_linear_1_1695)"/>
<path d="M46.2288 19.7712C46.7429 20.2854 47 20.9281 47 21.8279C47 22.5991 46.7429 23.3703 46.2288 23.8845C45.7146 24.3986 44.8149 24.6557 44.1722 24.6557C43.4009 24.6557 42.6297 24.3986 42.1155 23.8845C41.6014 23.3703 41.3443 22.4706 41.3443 21.8279C41.3443 21.0566 41.6014 20.2854 42.1155 19.7712C42.6297 19.2571 43.2724 19 44.1722 19C45.0719 19 45.8432 19.2571 46.2288 19.7712Z" fill="url(#paint3_linear_1_1695)"/>
<defs>
<linearGradient id="paint0_linear_1_1695" x1="32.0012" y1="5" x2="32.0012" y2="59.1791" gradientUnits="userSpaceOnUse">
<stop stop-color="white" stop-opacity="0.2"/>
<stop offset="0.99" stop-opacity="0.2"/>
</linearGradient>
<linearGradient id="paint1_linear_1_1695" x1="28.2076" y1="20.7481" x2="28.2076" y2="44.6436" gradientUnits="userSpaceOnUse">
<stop stop-color="white"/>
<stop offset="1" stop-color="white" stop-opacity="0.3"/>
</linearGradient>
<linearGradient id="paint2_linear_1_1695" x1="44.1722" y1="26.5196" x2="44.1722" y2="44.6693" gradientUnits="userSpaceOnUse">
<stop stop-color="white"/>
<stop offset="1" stop-color="white" stop-opacity="0.3"/>
</linearGradient>
<linearGradient id="paint3_linear_1_1695" x1="44.1722" y1="18.9357" x2="44.1722" y2="24.63" gradientUnits="userSpaceOnUse">
<stop stop-color="white"/>
<stop offset="1" stop-color="white" stop-opacity="0.3"/>
</linearGradient>
</defs>
</svg>
