<svg width="256" height="256" viewBox="0 0 64 64" fill="none" xmlns="http://www.w3.org/2000/svg">
<path d="M13.184 0H50.688C58.112 0 64 5.88682 64 13.1814V50.6779C64 58.1004 58.112 63.9872 50.816 63.9872H13.184C5.888 63.9872 0 58.1004 0 50.8058V13.1814C0 5.88682 5.888 0 13.184 0Z" fill="#2B2611"/>
<path d="M16.1346 4.9872H47.8678C54.0097 4.9872 59 9.97772 59 16.1199V47.8545C59 53.9967 54.0097 58.9872 47.8678 58.9872H16.1346C9.99271 58.9872 5.00241 53.9967 5.00241 47.8545V16.2479C4.87445 9.97772 9.86475 4.9872 16.1346 4.9872Z" fill="#FFC700"/>
<path d="M16.1346 4.9872H47.8678C54.0097 4.9872 59 9.97772 59 16.1199V47.8545C59 53.9967 54.0097 58.9872 47.8678 58.9872H16.1346C9.99271 58.9872 5.00241 53.9967 5.00241 47.8545V16.2479C4.87445 9.97772 9.86475 4.9872 16.1346 4.9872Z" fill="url(#paint0_linear_1_1493)"/>
<path d="M50.8383 36.595V38.2121C50.6766 38.5355 50.6766 39.0206 50.5149 39.344C50.0298 41.2844 48.7362 42.578 46.7957 43.5482C43.5617 45.1652 38.0638 45.0035 34.8298 42.578C33.6979 41.7695 32.7276 40.6376 32.0808 39.344C33.5362 38.5355 34.9915 37.7269 36.4468 36.9184C36.7702 37.2418 37.0936 37.7269 37.2553 38.0503C38.7106 39.8291 41.2979 40.4759 43.4 39.6674C44.8553 39.1823 45.6638 37.8887 45.1787 36.595C45.017 36.1099 44.6936 35.7865 44.2085 35.4631C43.4 34.978 42.4298 34.6546 41.6213 34.0078C40.3277 33.361 39.034 32.8759 37.7404 32.2291C35.9617 31.2589 34.5064 29.8035 34.0213 27.8631C33.3745 25.4376 33.6979 23.3355 35.4766 21.395C36.4468 20.2631 37.7404 19.6163 39.3574 19.2929C41.2979 18.8078 43.2383 18.9695 45.017 19.4546C47.1191 20.1014 48.4128 21.395 49.5447 23.1738C48.0894 23.9823 46.7958 24.7908 45.3404 25.761C45.017 25.4376 44.8553 25.1142 44.5319 24.9525C43.7234 23.8206 42.4298 23.4972 40.8128 23.8206C39.0341 24.144 38.3872 26.4078 39.6809 27.5397C40.166 27.8631 40.6511 28.3482 41.2979 28.5099C42.5915 29.1567 43.8851 29.6418 45.1787 30.127C46.634 30.7738 47.7659 31.5823 49.0596 32.5525C50.1915 33.6844 50.8383 34.978 51 36.4333C50.6766 36.4333 50.8383 36.595 50.8383 36.595Z" fill="url(#paint1_linear_1_1493)"/>
<path d="M29.0085 19.2929V36.595C29.0085 37.5653 28.8468 38.6972 28.6851 39.8291C28.0383 41.9312 26.583 43.5482 24.3191 44.195C21.7319 45.0035 19.3064 44.8419 16.8808 43.8716C15.1021 43.0631 13.9702 41.7695 13 39.9908C14.4553 39.1823 15.9107 38.3738 17.366 37.4036C17.6894 37.727 18.0128 38.212 18.1745 38.6971C18.983 39.8291 20.2766 40.1525 21.7319 39.9908C22.7021 39.8291 23.1872 39.1823 23.5106 38.3738C23.6723 37.7269 23.8341 37.0801 23.8341 36.595V19.9397C23.8341 19.6163 23.9957 19.4546 24.3191 19.4546H29.0085V19.2929Z" fill="url(#paint2_linear_1_1493)"/>
<defs>
<linearGradient id="paint0_linear_1_1493" x1="32.0012" y1="4.9872" x2="32.0012" y2="59.1663" gradientUnits="userSpaceOnUse">
<stop stop-color="white" stop-opacity="0.2"/>
<stop offset="0.99" stop-opacity="0.2"/>
</linearGradient>
<linearGradient id="paint1_linear_1_1493" x1="41.5404" y1="19.0665" x2="41.5404" y2="44.664" gradientUnits="userSpaceOnUse">
<stop stop-color="white"/>
<stop offset="1" stop-color="white" stop-opacity="0.3"/>
</linearGradient>
<linearGradient id="paint2_linear_1_1493" x1="21.0043" y1="19.3576" x2="21.0043" y2="44.6801" gradientUnits="userSpaceOnUse">
<stop stop-color="white"/>
<stop offset="1" stop-color="white" stop-opacity="0.3"/>
</linearGradient>
</defs>
</svg>
