<svg width="256" height="256" viewBox="0 0 256 256" fill="none" xmlns="http://www.w3.org/2000/svg">
<path d="M52.736 0H202.752C232.448 0 256 23.552 256 52.736V202.752C256 232.448 232.448 256 203.264 256H52.736C23.552 256 0 232.448 0 203.264V52.736C0 23.552 23.552 0 52.736 0Z" fill="#1D1517"/>
<path d="M64.5385 20H191.471C216.039 20 236 39.9621 236 64.5308V191.469C236 216.038 216.039 236 191.471 236H64.5385C39.9708 236 20.0096 216.038 20.0096 191.469V65.0427C19.4978 39.9621 39.459 20 64.5385 20Z" fill="#99425B"/>
<path d="M64.5385 20H191.471C216.039 20 236 39.9621 236 64.5308V191.469C236 216.038 216.039 236 191.471 236H64.5385C39.9708 236 20.0096 216.038 20.0096 191.469V65.0427C19.4978 39.9621 39.459 20 64.5385 20Z" fill="url(#paint0_linear_54_482)"/>
<path d="M178.733 127.1C178.727 123.658 177.594 120.315 175.51 117.593C173.425 114.87 170.508 112.921 167.212 112.05L182 68H108.716L123.544 112.19C120.343 113.133 117.531 115.098 115.529 117.791C113.526 120.485 112.442 123.761 112.438 127.13C112.438 132.345 115.012 136.965 118.937 139.81C117.358 142.059 115.561 144.142 113.572 146.03C109.913 149.55 105.632 152.344 100.951 154.265C96.8234 151.45 95.0368 146.485 96.6502 142.035C100.162 140.933 103.166 138.598 105.121 135.452C107.076 132.306 107.851 128.557 107.307 124.883C106.763 121.21 104.935 117.854 102.154 115.424C99.3732 112.994 95.8232 111.65 92.1464 111.635C88.0618 111.64 84.146 113.282 81.2578 116.2C78.3695 119.118 76.7446 123.074 76.7394 127.2C76.7394 131.44 78.4568 135.33 81.2086 138.11C80.971 138.595 80.7285 139.085 80.486 139.605C78.1846 144.4 75.5714 149.82 74.5716 155.9C72.5771 168.06 75.8436 177.82 83.7228 183.345C87.9872 186.383 93.08 188.01 98.2983 188C107.341 188 116.521 183.415 125.395 178.965C131.726 175.805 138.259 172.505 144.688 170.905C147.063 170.315 149.538 169.97 152.151 169.585C157.447 168.82 162.916 168.025 167.83 165.135C170.637 163.51 173.058 161.285 174.923 158.615C176.789 155.945 178.054 152.896 178.63 149.68C179.491 144.71 178.63 139.71 176.432 135.33C177.907 132.93 178.733 130.125 178.733 127.1ZM172.027 127.1C172.027 131.925 168.142 135.85 163.366 135.85C161.568 135.845 159.815 135.275 158.351 134.22C156.887 133.165 155.784 131.676 155.194 129.959C154.604 128.243 154.557 126.383 155.059 124.638C155.561 122.894 156.587 121.35 157.996 120.22L158.031 120.185C158.308 119.975 158.615 119.765 158.922 119.56C158.922 119.56 158.961 119.56 158.961 119.525C159.1 119.455 159.233 119.35 159.372 119.275C159.407 119.275 159.441 119.245 159.476 119.245C159.615 119.175 159.788 119.105 159.956 119.035C160.129 118.965 160.302 118.9 160.441 118.83C160.476 118.83 160.505 118.795 160.54 118.795C160.679 118.76 160.817 118.69 160.956 118.655C160.99 118.655 161.055 118.62 161.094 118.62C161.263 118.585 161.401 118.55 161.574 118.52H161.609L162.124 118.41C162.158 118.41 162.223 118.41 162.262 118.375C162.401 118.375 162.535 118.34 162.673 118.34H162.846C163.02 118.34 163.193 118.305 163.396 118.305H163.841C163.98 118.305 164.089 118.305 164.222 118.34H164.292C164.564 118.375 164.841 118.41 165.118 118.48C167.071 118.903 168.821 119.988 170.078 121.555C171.335 123.123 172.023 125.083 172.027 127.1ZM118.313 74.95H172.408L159.991 111.95C159.476 112.05 158.961 112.225 158.447 112.4L145.381 85.475L132.275 112.225C131.76 112.055 131.206 111.95 130.656 111.845L118.313 74.95ZM142.901 124.075C142.268 120.868 140.642 117.947 138.259 115.735L145.376 101.215L152.562 116.05C150.434 118.2 148.885 120.95 148.266 124.075H142.901ZM125.673 118.585C125.841 118.55 125.979 118.515 126.153 118.485H126.252C126.395 118.445 126.529 118.445 126.667 118.41H126.806C126.945 118.41 127.048 118.375 127.182 118.375H128.523C128.662 118.375 128.766 118.41 128.87 118.41C128.939 118.41 128.969 118.41 129.043 118.445C129.177 118.48 129.281 118.48 129.419 118.515C129.454 118.515 129.488 118.515 129.558 118.55L130.038 118.65H130.072C130.211 118.69 130.35 118.725 130.483 118.795C130.518 118.795 130.553 118.83 130.622 118.83C130.726 118.865 130.864 118.9 130.968 118.965C131.003 118.965 131.038 119 131.067 119C131.206 119.07 131.344 119.105 131.483 119.175H131.518C131.677 119.236 131.826 119.318 131.963 119.42H131.998C132.136 119.49 132.275 119.59 132.413 119.66C132.448 119.66 132.448 119.695 132.478 119.695C132.616 119.765 132.725 119.87 132.859 119.94L132.894 119.975C133.304 120.285 133.685 120.635 134.062 120.98L134.096 121.015C135.629 122.646 136.48 124.811 136.472 127.06C136.396 129.331 135.45 131.483 133.833 133.062C132.216 134.641 130.055 135.524 127.806 135.524C125.557 135.524 123.396 134.641 121.779 133.062C120.162 131.483 119.216 129.331 119.14 127.06C119.134 125.113 119.775 123.22 120.959 121.684C122.143 120.148 123.803 119.057 125.673 118.585ZM91.8296 118.34C96.6106 118.34 100.496 122.27 100.496 127.095C100.496 131.92 96.6106 135.85 91.8346 135.85C87.0586 135.85 83.1635 131.925 83.1635 127.1C83.1635 122.275 87.0536 118.34 91.8296 118.34ZM171.824 148.465C171.433 150.688 170.562 152.796 169.271 154.639C167.981 156.483 166.305 158.016 164.361 159.13C160.609 161.32 156.002 162.015 151.151 162.71C148.424 163.063 145.715 163.549 143.035 164.165C135.883 165.94 129.008 169.415 122.337 172.75C113.804 177.02 105.757 181.05 98.2983 181.05C94.4736 181.074 90.7404 179.869 87.6376 177.61C80.0702 172.33 80.4464 162.43 81.3422 157.01C82.1687 151.935 84.4701 147.18 86.6725 142.625C86.8111 142.35 86.915 142.105 87.0536 141.825C87.8059 142.105 88.5978 142.315 89.4243 142.455C88.1177 149.82 91.8296 157.425 99.0555 161.18L100.362 161.875L101.768 161.355C107.786 159.2 113.359 155.69 118.278 151C120.995 148.441 123.396 145.56 125.43 142.42C126.222 142.555 127.014 142.59 127.806 142.59C131.21 142.582 134.517 141.436 137.209 139.332C139.902 137.227 141.83 134.282 142.693 130.955H148.469C149.326 134.287 151.254 137.238 153.95 139.343C156.646 141.449 159.958 142.591 163.366 142.59C166.217 142.59 168.86 141.79 171.136 140.44C172.027 143.04 172.304 145.755 171.824 148.465Z" fill="url(#paint1_linear_54_482)"/>
<defs>
<linearGradient id="paint0_linear_54_482" x1="128.005" y1="20" x2="128.005" y2="236.717" gradientUnits="userSpaceOnUse">
<stop stop-color="white" stop-opacity="0.2"/>
<stop offset="0.99" stop-opacity="0.2"/>
</linearGradient>
<linearGradient id="paint1_linear_54_482" x1="128" y1="68" x2="128" y2="188" gradientUnits="userSpaceOnUse">
<stop stop-color="white"/>
<stop offset="1" stop-color="white" stop-opacity="0.3"/>
</linearGradient>
</defs>
</svg>
