<svg width="256" height="256" viewBox="0 0 64 64" fill="none" xmlns="http://www.w3.org/2000/svg">
<path d="M13.184 0H50.688C58.112 0 64 5.88682 64 13.1814V50.6779C64 58.1004 58.112 63.9872 50.816 63.9872H13.184C5.888 63.9872 0 58.1004 0 50.8058V13.1814C0 5.88682 5.888 0 13.184 0Z" fill="#251914"/>
<path d="M16.1346 4.9872H47.8678C54.0097 4.9872 59 9.97772 59 16.1199V47.8545C59 53.9967 54.0097 58.9872 47.8678 58.9872H16.1346C9.99271 58.9872 5.00241 53.9967 5.00241 47.8545V16.2479C4.87445 9.97772 9.86475 4.9872 16.1346 4.9872Z" fill="#D26B38"/>
<path d="M16.1346 4.9872H47.8678C54.0097 4.9872 59 9.97772 59 16.1199V47.8545C59 53.9967 54.0097 58.9872 47.8678 58.9872H16.1346C9.99271 58.9872 5.00241 53.9967 5.00241 47.8545V16.2479C4.87445 9.97772 9.86475 4.9872 16.1346 4.9872Z" fill="url(#paint0_linear_1_1129)"/>
<path d="M47.9867 29.8514V30.0144L47.8668 30.3278C47.8668 30.3278 47.8135 30.403 47.7735 30.4281L43.9767 32.0451C43.9767 32.0451 43.95 32.0702 43.9634 32.0827C43.9634 32.0827 43.9634 32.0827 43.9767 32.0953L47.9867 33.8126V34.6149C47.7469 34.991 47.4271 35.2542 47.0275 35.4297C46.9875 35.4548 46.9342 35.4548 46.8943 35.4297L43.9367 34.3015C43.9367 34.3015 43.8435 34.289 43.8035 34.3015L42.5912 34.6525C42.5912 34.6525 42.4979 34.6525 42.4713 34.6275L41.3789 33.5494C41.3789 33.5494 41.2856 33.4993 41.2723 33.5745C41.0058 34.991 40.4063 36.2696 39.4871 37.4103C39.4871 37.4103 39.4871 37.4354 39.4871 37.4479C39.4871 37.4479 39.4871 37.4479 39.5004 37.4479L41.3122 37.4229C41.3122 37.4229 41.3922 37.4354 41.4055 37.473L41.965 38.4758C41.965 38.4758 42.045 38.5761 42.0983 38.5887L44.9492 39.7294C44.9492 39.7294 45.0425 39.7921 45.0558 39.8422C45.2423 40.4439 45.2689 41.3089 44.4829 41.5094C44.443 41.5094 44.3897 41.5094 44.3497 41.5094L40.4863 40.1431C40.4863 40.1431 40.4463 40.1431 40.433 40.1681C40.433 40.1681 40.433 40.1807 40.433 40.1932L41.8585 43.7533C41.8585 43.7533 41.8718 43.8411 41.8585 43.8787C41.6187 44.5806 40.7261 44.5556 40.1132 44.3926C40.0466 44.3801 39.9933 44.3299 39.9667 44.2673L38.7677 41.5847C38.7677 41.5847 38.7144 41.5094 38.6744 41.4844L37.5953 40.9579C37.5953 40.9579 37.5287 40.9077 37.5287 40.8576L37.5554 39.416C37.5554 39.416 37.5554 39.4035 37.5554 39.3909C37.582 39.3533 37.582 39.3032 37.582 39.2531C37.582 39.1904 37.542 39.1778 37.4888 39.2154C36.2098 40.0679 34.811 40.5944 33.3056 40.7824C33.2789 40.7824 33.2656 40.8075 33.2656 40.8325C33.2656 40.8325 33.2656 40.8451 33.2656 40.8576L34.5445 41.9983C34.5445 41.9983 34.5978 42.0735 34.5845 42.1237L34.2381 43.1641C34.2115 43.2393 34.2115 43.3271 34.2381 43.4023L35.3972 46.0849C35.3972 46.0849 35.4105 46.1601 35.3972 46.1852C35.224 46.5236 34.9842 46.7869 34.6644 47H33.6786L31.9467 43.4023C31.9467 43.4023 31.9201 43.3772 31.9067 43.4023L30.1615 47H29.3622C28.9759 46.7994 28.6828 46.4986 28.4963 46.1225C28.4696 46.0849 28.4696 46.0348 28.4963 45.9972L29.6686 43.277C29.6686 43.277 29.6819 43.1892 29.6686 43.1516L29.2956 42.0485C29.2956 42.0485 29.2956 41.9607 29.3356 41.9231L30.5612 40.8451C30.5612 40.8451 30.5878 40.8075 30.5612 40.7824C30.5612 40.7824 30.5479 40.7824 30.5346 40.7698C29.0958 40.5317 27.7902 40.0177 26.6178 39.2405C26.5779 39.2154 26.5512 39.2154 26.5512 39.2781L26.5779 40.82C26.5779 40.82 26.5512 40.8952 26.5112 40.9203L25.3922 41.4844C25.3922 41.4844 25.3256 41.5345 25.2989 41.5721L24.0466 44.3425C24.0466 44.3425 23.9933 44.4177 23.9401 44.4428C23.2873 44.6182 22.3547 44.6433 22.1016 43.9037C22.1016 43.8661 22.1016 43.8285 22.1016 43.8034L23.5803 40.1055C23.607 40.0303 23.5803 40.0052 23.5004 40.0303L19.6769 41.3841C19.6769 41.3841 19.5704 41.4092 19.5171 41.3841C18.7311 41.1835 18.771 40.2559 18.9575 39.6542C18.9709 39.604 19.0108 39.579 19.0508 39.5539L21.995 38.3881C21.995 38.3881 22.0749 38.338 22.1016 38.2878L22.6744 37.2474C22.6744 37.2474 22.7544 37.1722 22.8077 37.1722L24.2864 37.2223C24.3664 37.2223 24.3797 37.1972 24.3397 37.1346C23.5271 36.0565 22.9942 34.828 22.7677 33.5243C22.7677 33.5118 22.741 33.4993 22.7277 33.4993H22.7144L21.582 34.6275C21.582 34.6275 21.5154 34.6651 21.4754 34.6525L20.2764 34.3015C20.2764 34.3015 20.1565 34.289 20.1032 34.3015L17.1457 35.4297C17.1457 35.4297 17.0658 35.4423 17.0125 35.4297C16.5196 35.2166 16.1865 34.8782 16 34.4269V34.0132L16.0933 33.8252C16.0933 33.8252 16.1465 33.7625 16.1732 33.7374L20.0766 32.0702C20.0766 32.0702 20.1032 32.0451 20.0899 32.0326C20.0899 32.0326 20.0899 32.0326 20.0766 32.0201L16.2798 30.4155C16.2798 30.4155 16.1998 30.3654 16.1865 30.3152C15.8535 29.6132 16.4929 29.0241 17.1191 28.7358C17.159 28.7107 17.2123 28.7107 17.2656 28.7358L20.2365 29.8765C20.2365 29.8765 20.3297 29.889 20.3697 29.8765L21.582 29.513C21.582 29.513 21.6619 29.513 21.7019 29.538L22.741 30.5659C22.741 30.5659 22.821 30.6036 22.8343 30.5409C23.0608 29.2873 23.567 28.1341 24.353 27.056C24.3797 27.0184 24.3664 26.9933 24.3131 26.9933L22.7677 27.0309C22.7677 27.0309 22.6878 27.0059 22.6611 26.9683L22.1016 25.9654C22.0616 25.8902 21.995 25.8401 21.9151 25.8025L19.0241 24.6492C19.0241 24.6492 18.9575 24.599 18.9442 24.574C18.7044 23.9848 18.6911 23.0697 19.4771 22.8315C19.5171 22.8315 19.557 22.8315 19.597 22.8315L23.4605 24.1979C23.5404 24.223 23.5537 24.1979 23.5271 24.1352L22.035 20.3996C22.035 20.3996 22.035 20.3244 22.035 20.2868C22.3147 19.5598 23.234 19.5723 23.8868 19.7729C23.9267 19.7854 23.9667 19.823 23.9933 19.8606L25.2323 22.631C25.2323 22.631 25.2856 22.7062 25.3256 22.7187L26.418 23.2577C26.418 23.2577 26.4846 23.3079 26.4846 23.358C26.5112 23.8469 26.4979 24.3483 26.458 24.8748C26.458 24.9375 26.4846 24.95 26.5379 24.9124C27.617 24.1603 28.856 23.6589 30.2681 23.3706C30.3614 23.358 30.3747 23.3204 30.3081 23.2577L29.2556 22.3176C29.2556 22.3176 29.2023 22.2424 29.2157 22.1922L29.602 21.064C29.602 21.064 29.602 20.9763 29.602 20.9387L28.3897 18.1433C28.3897 18.1433 28.3764 18.0555 28.3897 18.0179C28.6828 17.4413 29.3622 16.7894 30.0683 17.1404C30.1216 17.1655 30.1482 17.2031 30.1749 17.2532L31.8801 20.7882C31.8801 20.7882 31.9201 20.8259 31.9467 20.8133C31.9467 20.8133 31.96 20.8133 31.9734 20.7882L33.7186 17.178C33.7186 17.178 33.7719 17.1028 33.8251 17.0777C34.5845 16.7894 35.1973 17.3535 35.5037 17.9427C35.5304 17.9928 35.5304 18.043 35.5037 18.0931L34.2914 20.8885C34.2914 20.8885 34.2781 20.9637 34.2914 21.0013L34.6644 22.1295C34.6644 22.1295 34.6644 22.2298 34.6245 22.2674L33.4788 23.2953C33.4788 23.2953 33.4654 23.333 33.4788 23.3455C33.4788 23.3455 33.4921 23.3455 33.5054 23.3455C34.9176 23.5586 36.2498 24.0725 37.4088 24.8498C37.4621 24.8874 37.4888 24.8748 37.4888 24.8121V23.358C37.4888 23.358 37.4888 23.2953 37.5287 23.2703L38.6345 22.7313C38.6345 22.7313 38.7277 22.6686 38.741 22.6184L39.9933 19.8355C39.9933 19.8355 40.0466 19.7603 40.0866 19.7478C40.7527 19.5598 41.6719 19.5472 41.9251 20.2743C41.9251 20.3119 41.9251 20.3495 41.9251 20.3746L40.4729 24.0349C40.4729 24.0349 40.4729 24.1102 40.5396 24.0976L44.4829 22.7062C44.4829 22.7062 44.5895 22.6811 44.6428 22.7062C45.4155 22.9444 45.3755 23.8218 45.189 24.4361C45.1757 24.4862 45.1357 24.5113 45.0958 24.5364L42.1382 25.7022C42.1382 25.7022 42.0583 25.7523 42.0316 25.7899L41.4588 26.8304C41.4588 26.8304 41.3922 26.9056 41.3389 26.9056L39.7402 26.8554C39.6603 26.8554 39.6336 26.8805 39.6869 26.9432C40.4863 27.9711 41.0191 29.162 41.2856 30.5033C41.2856 30.5659 41.3256 30.5659 41.3655 30.5283L42.4047 29.5004C42.4047 29.5004 42.458 29.4628 42.4979 29.4754L43.7236 29.8389C43.7236 29.8389 43.8168 29.8389 43.8568 29.8389L46.801 28.7107C46.801 28.7107 46.8943 28.6982 46.9342 28.7107C47.4938 28.9238 47.8401 29.2873 48 29.8263L47.9867 29.8514ZM29.3888 28.2719C29.8418 28.0212 30.348 27.7956 30.8676 27.6953C30.9209 27.6953 30.9609 27.6326 30.9609 27.5825V25.8526C30.9609 25.7899 30.9342 25.7648 30.8676 25.7774C29.8018 25.9654 28.8426 26.354 27.99 26.9557C27.95 26.9808 27.95 27.0184 27.99 27.056L29.2689 28.2594C29.2689 28.2594 29.3489 28.297 29.4022 28.2719H29.3888ZM32.9992 27.6828C33.572 27.8081 34.0783 28.0087 34.5445 28.297C34.5978 28.3221 34.6378 28.3221 34.6778 28.2845L36.05 26.9933C36.05 26.9933 36.0633 26.9557 36.05 26.9306C35.1307 26.3039 34.1182 25.9153 33.0125 25.7648C32.9592 25.7648 32.9326 25.7774 32.9326 25.8275V27.6076C32.9326 27.6076 32.9592 27.6702 32.9992 27.6828ZM38.7277 31.0924C38.5545 30.1021 38.1549 29.162 37.5287 28.3472C37.5021 28.3221 37.4621 28.3096 37.4221 28.3346L36.05 29.6258C36.05 29.6258 36.01 29.701 36.0366 29.7511C36.3164 30.1648 36.5162 30.6161 36.6228 31.105C36.6228 31.1551 36.6628 31.1802 36.7161 31.1802H38.6478C38.6478 31.1802 38.741 31.1551 38.7277 31.0924ZM27.2706 31.105C27.3905 30.6036 27.5903 30.1397 27.8834 29.701C27.9101 29.6509 27.9101 29.6132 27.8701 29.5756L26.5779 28.3597C26.5779 28.3597 26.5379 28.3472 26.5246 28.3597C25.9117 29.162 25.5121 30.0645 25.3389 31.0799C25.3389 31.1175 25.3655 31.1551 25.4055 31.1676H27.164C27.164 31.1676 27.244 31.1426 27.2573 31.0924L27.2706 31.105ZM34.1316 32.0827C34.1316 30.942 33.1457 30.0269 31.9467 30.0269C30.7344 30.0269 29.7619 30.9545 29.7619 32.0827C29.7619 33.2235 30.7477 34.1386 31.9467 34.1386C33.1457 34.1386 34.1316 33.2109 34.1316 32.0827ZM25.3522 33.0981C25.5254 34.0759 25.9384 35.0161 26.5512 35.8183C26.5779 35.8559 26.6178 35.8685 26.6578 35.8183L27.8968 34.6525C27.8968 34.6525 27.9367 34.5648 27.9101 34.5272C27.6037 34.0884 27.3905 33.6121 27.2706 33.0981C27.2706 33.048 27.2173 33.0229 27.164 33.0229H25.4055C25.4055 33.0229 25.3256 33.048 25.3389 33.0981H25.3522ZM37.4355 35.9186C38.1016 35.0913 38.5279 34.126 38.7144 33.0981C38.7144 33.048 38.7011 33.0229 38.6478 33.0229H36.7161C36.7161 33.0229 36.6228 33.0605 36.6095 33.1107C36.4896 33.5995 36.2764 34.0884 35.97 34.5397C35.9567 34.5648 35.9567 34.5898 35.97 34.6149L37.3555 35.9311C37.3555 35.9311 37.3955 35.9562 37.4221 35.9311L37.4355 35.9186ZM32.9858 38.3756C34.0649 38.2377 35.0908 37.8491 35.9833 37.2599C36.01 37.2348 36.0233 37.1972 35.9967 37.1722L34.6511 35.9061C34.6511 35.9061 34.5712 35.8685 34.5312 35.8935C34.0516 36.1819 33.5454 36.3824 33.0125 36.4952C32.9592 36.4952 32.9192 36.5454 32.9192 36.5955V38.3129C32.9192 38.3129 32.9459 38.3881 32.9992 38.3756H32.9858ZM28.0833 37.2474C28.9226 37.8115 29.8951 38.1875 30.9209 38.3505C30.9742 38.3505 31.0142 38.338 31.0142 38.2753V36.583C31.0142 36.583 30.9875 36.4952 30.9342 36.4827C30.388 36.3699 29.8951 36.1819 29.4555 35.9186C29.4288 35.9061 29.3888 35.9061 29.3622 35.9186L28.0833 37.122C28.0833 37.122 28.0433 37.1972 28.0833 37.2348V37.2474Z" fill="url(#paint1_linear_1_1129)"/>
<defs>
<linearGradient id="paint0_linear_1_1129" x1="32.0012" y1="4.9872" x2="32.0012" y2="59.1663" gradientUnits="userSpaceOnUse">
<stop stop-color="white" stop-opacity="0.2"/>
<stop offset="0.99" stop-opacity="0.2"/>
</linearGradient>
<linearGradient id="paint1_linear_1_1129" x1="32" y1="17" x2="32" y2="47" gradientUnits="userSpaceOnUse">
<stop stop-color="white"/>
<stop offset="1" stop-color="white" stop-opacity="0.3"/>
</linearGradient>
</defs>
</svg>
