<svg width="256" height="256" viewBox="0 0 64 64" fill="none" xmlns="http://www.w3.org/2000/svg">
<path d="M13.184 0H50.688C58.112 0 64 5.88682 64 13.1814V50.6779C64 58.1004 58.112 63.9872 50.816 63.9872H13.184C5.888 63.9872 0 58.1004 0 50.8058V13.1814C0 5.88682 5.888 0 13.184 0Z" fill="#1B172C"/>
<path d="M16.1346 5H47.8678C54.0097 5 59 9.99052 59 16.1327V47.8673C59 54.0095 54.0097 59 47.8678 59H16.1346C9.99271 59 5.00241 54.0095 5.00241 47.8673V16.2607C4.87445 9.99052 9.86475 5 16.1346 5Z" fill="#7F52FF"/>
<path d="M16.1346 5H47.8678C54.0097 5 59 9.99052 59 16.1327V47.8673C59 54.0095 54.0097 59 47.8678 59H16.1346C9.99271 59 5.00241 54.0095 5.00241 47.8673V16.2607C4.87445 9.99052 9.86475 5 16.1346 5Z" fill="url(#paint0_linear_31_195)"/>
<path d="M47 47H17V17H47L32 32L47 47Z" fill="url(#paint1_linear_31_195)"/>
<defs>
<linearGradient id="paint0_linear_31_195" x1="32.0012" y1="5" x2="32.0012" y2="59.1791" gradientUnits="userSpaceOnUse">
<stop stop-color="white" stop-opacity="0.2"/>
<stop offset="0.99" stop-opacity="0.2"/>
</linearGradient>
<linearGradient id="paint1_linear_31_195" x1="32" y1="17" x2="32" y2="47" gradientUnits="userSpaceOnUse">
<stop stop-color="white"/>
<stop offset="1" stop-color="white" stop-opacity="0.3"/>
</linearGradient>
</defs>
</svg>
