<svg width="256" height="256" viewBox="0 0 256 256" fill="none" xmlns="http://www.w3.org/2000/svg">
<path d="M52.736 0H202.752C232.448 0 256 23.552 256 52.736V202.752C256 232.448 232.448 256 203.264 256H52.736C23.552 256 0 232.448 0 203.264V52.736C0 23.552 23.552 0 52.736 0Z" fill="#141928"/>
<path d="M64.5385 20H191.471C216.039 20 236 39.9621 236 64.5308V191.469C236 216.038 216.039 236 191.471 236H64.5385C39.9708 236 20.0096 216.038 20.0096 191.469V65.0427C19.4978 39.9621 39.459 20 64.5385 20Z" fill="#326CE5"/>
<path d="M64.5385 20H191.471C216.039 20 236 39.9621 236 64.5308V191.469C236 216.038 216.039 236 191.471 236H64.5385C39.9708 236 20.0096 216.038 20.0096 191.469V65.0427C19.4978 39.9621 39.459 20 64.5385 20Z" fill="url(#paint0_linear_54_524)"/>
<path d="M118.719 140.109L118.755 140.161L113.594 152.595C108.641 149.432 104.872 144.728 102.873 139.213L116.193 136.961L116.213 136.987C116.618 136.912 117.035 136.949 117.42 137.093C117.805 137.236 118.144 137.481 118.401 137.802C118.657 138.122 118.822 138.506 118.877 138.912C118.932 139.319 118.876 139.732 118.714 140.109H118.719ZM114.415 129.139C114.812 129.03 115.172 128.817 115.456 128.521C115.741 128.225 115.939 127.857 116.031 127.458C116.123 127.058 116.104 126.641 115.977 126.251C115.85 125.861 115.619 125.513 115.309 125.243L115.319 125.186L105.187 116.148C102.097 121.166 100.769 127.067 101.416 132.921L114.405 129.185L114.415 129.139ZM120.331 118.936C120.664 119.178 121.056 119.325 121.466 119.363C121.876 119.4 122.288 119.325 122.659 119.147C123.029 118.969 123.345 118.693 123.571 118.35C123.797 118.007 123.926 117.61 123.943 117.2L123.994 117.174L124.769 103.673C118.901 104.357 113.429 106.972 109.217 111.104L120.311 118.951L120.331 118.936ZM124.258 133.106L127.993 134.905L131.724 133.117L132.654 129.097L130.071 125.887H125.916L123.333 129.097L124.258 133.106ZM132.008 117.158C132.026 117.569 132.155 117.967 132.381 118.31C132.608 118.653 132.924 118.928 133.296 119.106C133.667 119.284 134.08 119.358 134.49 119.32C134.901 119.281 135.293 119.133 135.625 118.89L135.666 118.905L146.692 111.109C142.495 107.009 137.063 104.399 131.233 103.678L131.998 117.153L132.008 117.158ZM188.202 147.921L158.374 184.924C157.597 185.882 156.614 186.655 155.498 187.184C154.383 187.714 153.162 187.987 151.926 187.985L104.077 188C102.841 188.001 101.62 187.726 100.505 187.194C99.3904 186.663 98.4091 185.889 97.6336 184.929L67.7904 147.931C67.0226 146.973 66.4812 145.855 66.2066 144.66C65.9319 143.464 65.9311 142.222 66.2042 141.026L76.8478 94.8824C77.4058 92.4606 79.0436 90.4303 81.3067 89.3534L124.408 68.8089C125.525 68.2764 126.748 68 127.986 68C129.224 68 130.447 68.2764 131.564 68.8089L174.68 89.3431C176.943 90.42 178.581 92.4554 179.139 94.8721L189.793 141.016C190.351 143.438 189.767 145.978 188.202 147.921ZM171.208 137.321C170.991 137.27 170.676 137.188 170.459 137.146C169.56 136.976 168.832 137.017 167.984 136.95C166.176 136.76 164.688 136.605 163.36 136.188C162.817 135.982 162.43 135.338 162.244 135.075L161.205 134.771C161.759 130.766 161.575 126.694 160.663 122.754C159.749 118.775 158.11 114.997 155.827 111.609C156.095 111.366 156.602 110.923 156.741 110.789C156.783 110.326 156.746 109.846 157.227 109.336C158.245 108.383 159.521 107.595 161.066 106.646C161.8 106.214 162.476 105.94 163.21 105.399C163.375 105.276 163.603 105.08 163.778 104.941C165.018 103.957 165.303 102.261 164.414 101.148C163.525 100.035 161.8 99.9322 160.565 100.916C160.389 101.056 160.151 101.236 159.991 101.37C159.299 101.968 158.87 102.555 158.286 103.173C157.015 104.462 155.961 105.533 154.809 106.311C154.308 106.6 153.574 106.502 153.243 106.482L152.262 107.177C146.61 101.263 138.999 97.5952 130.84 96.856L130.778 95.7069C130.443 95.3874 130.04 95.1143 129.936 94.4186C129.823 93.0377 130.014 91.5485 130.231 89.7553C130.35 88.9154 130.546 88.2197 130.582 87.3077C130.587 87.1016 130.577 86.7975 130.577 86.576C130.577 84.9992 129.42 83.7161 127.993 83.7161C126.573 83.7161 125.415 84.9992 125.415 86.576L125.42 86.6481C125.42 86.8594 125.41 87.1222 125.42 87.3077C125.451 88.2197 125.648 88.9154 125.767 89.7553C125.984 91.5485 126.17 93.0377 126.056 94.4238C125.909 94.9373 125.619 95.3985 125.219 95.7532L125.157 96.8405C116.946 97.4981 109.274 101.177 103.632 107.162C103.319 106.946 103.009 106.726 102.702 106.502C102.237 106.564 101.772 106.708 101.168 106.353C100.016 105.58 98.9615 104.508 97.6905 103.22C97.1066 102.601 96.6829 102.014 95.9906 101.421C95.8356 101.287 95.5928 101.102 95.4171 100.968C94.9063 100.555 94.276 100.317 93.6191 100.288C93.2289 100.267 92.8394 100.338 92.4822 100.496C92.1249 100.654 91.8099 100.893 91.5627 101.195C90.674 102.308 90.9582 104.008 92.1982 104.992L92.2344 105.018L92.7717 105.446C93.5054 105.987 94.1771 106.265 94.9107 106.693C96.4556 107.646 97.7318 108.434 98.7496 109.383C99.1423 109.805 99.2147 110.547 99.2663 110.867L100.093 111.603C95.5274 118.431 93.6506 126.699 94.8229 134.822L93.7482 135.132C93.4641 135.503 93.061 136.08 92.6374 136.25C91.3095 136.667 89.8163 136.817 88.0131 137.007C87.1658 137.079 86.4373 137.038 85.5331 137.208C85.3419 137.244 85.0681 137.311 84.8459 137.363L84.8252 137.373L84.7891 137.383C83.2649 137.749 82.2884 139.146 82.6035 140.516C82.9187 141.892 84.4067 142.727 85.9361 142.397L85.9723 142.392L86.0239 142.376L86.6904 142.227C87.5688 141.99 88.2095 141.645 89.0051 141.341C90.7102 140.733 92.1259 140.223 93.5002 140.022C94.0789 139.975 94.6886 140.377 94.9882 140.542L96.1094 140.351C98.6347 148.133 103.928 154.724 110.99 158.881L110.525 160.004C110.695 160.437 110.881 161.03 110.752 161.458C110.251 162.756 109.393 164.122 108.417 165.647C107.946 166.348 107.461 166.894 107.032 167.703C106.929 167.893 106.799 168.192 106.701 168.393C106.04 169.81 106.526 171.439 107.802 172.052C109.083 172.67 110.675 172.016 111.367 170.599V170.588C111.47 170.387 111.605 170.125 111.687 169.934C112.049 169.099 112.173 168.383 112.431 167.574C113.113 165.863 113.49 164.07 114.431 162.952C114.689 162.643 115.102 162.529 115.542 162.411L116.125 161.354C123.785 164.298 132.264 164.32 139.939 161.416L140.487 162.406C140.931 162.55 141.417 162.622 141.809 163.204C142.512 164.4 142.993 165.817 143.576 167.533C143.835 168.337 143.959 169.053 144.326 169.888C144.408 170.078 144.548 170.351 144.646 170.552C145.333 171.975 146.93 172.624 148.211 172.005C149.487 171.397 149.973 169.764 149.312 168.347C149.208 168.146 149.079 167.852 148.976 167.656C148.547 166.853 148.061 166.312 147.591 165.606C146.609 164.08 145.803 162.818 145.302 161.519C145.095 160.85 145.338 160.437 145.498 160.004C145.405 159.891 145.194 159.262 145.07 158.964C152.158 154.774 157.454 148.131 159.95 140.3C160.281 140.351 160.859 140.454 161.05 140.496C161.438 140.238 161.794 139.908 162.497 139.96C163.871 140.161 165.287 140.671 166.992 141.279C167.788 141.588 168.423 141.938 169.307 142.17C169.493 142.222 169.762 142.268 169.979 142.315L170.025 142.33L170.061 142.335C171.596 142.665 173.079 141.83 173.394 140.454C173.704 139.084 172.732 137.687 171.208 137.321ZM150.732 116.153L140.657 125.15V125.176C140.346 125.445 140.114 125.794 139.986 126.185C139.858 126.575 139.839 126.993 139.931 127.394C140.022 127.795 140.222 128.163 140.507 128.459C140.793 128.756 141.153 128.969 141.551 129.077L141.567 129.128L154.618 132.88C154.901 129.993 154.713 127.08 154.06 124.254C153.403 121.388 152.279 118.65 150.732 116.148V116.153ZM129.998 143.593C129.799 143.217 129.497 142.906 129.128 142.694C128.758 142.483 128.336 142.38 127.911 142.397C127.513 142.412 127.126 142.531 126.789 142.741C126.452 142.952 126.176 143.247 125.989 143.598H125.978L119.427 155.408C124.997 157.303 131.038 157.309 136.612 155.424L130.05 143.593H129.998ZM139.753 136.93C139.28 136.843 138.792 136.908 138.358 137.115C137.827 137.368 137.415 137.817 137.209 138.367C137.003 138.916 137.018 139.524 137.252 140.063L137.237 140.083L142.455 152.646C147.442 149.471 151.225 144.73 153.207 139.171L139.774 136.904L139.753 136.93Z" fill="url(#paint1_linear_54_524)"/>
<defs>
<linearGradient id="paint0_linear_54_524" x1="128.005" y1="20" x2="128.005" y2="236.717" gradientUnits="userSpaceOnUse">
<stop stop-color="white" stop-opacity="0.2"/>
<stop offset="0.99" stop-opacity="0.2"/>
</linearGradient>
<linearGradient id="paint1_linear_54_524" x1="128" y1="68" x2="128" y2="188" gradientUnits="userSpaceOnUse">
<stop stop-color="white"/>
<stop offset="1" stop-color="white" stop-opacity="0.3"/>
</linearGradient>
</defs>
</svg>
