<svg width="256" height="256" viewBox="0 0 64 64" fill="none" xmlns="http://www.w3.org/2000/svg">
<path d="M13.184 0H50.688C58.112 0 64 5.88682 64 13.1814V50.6779C64 58.1004 58.112 63.9872 50.816 63.9872H13.184C5.888 63.9872 0 58.1004 0 50.8058V13.1814C0 5.88682 5.888 0 13.184 0Z" fill="#2C1212"/>
<path d="M16.1346 4.9872H47.8678C54.0097 4.9872 59 9.97772 59 16.1199V47.8545C59 53.9967 54.0097 58.9872 47.8678 58.9872H16.1346C9.99271 58.9872 5.00241 53.9967 5.00241 47.8545V16.2479C4.87445 9.97772 9.86475 4.9872 16.1346 4.9872Z" fill="#FF2D20"/>
<path d="M16.1346 4.9872H47.8678C54.0097 4.9872 59 9.97772 59 16.1199V47.8545C59 53.9967 54.0097 58.9872 47.8678 58.9872H16.1346C9.99271 58.9872 5.00241 53.9967 5.00241 47.8545V16.2479C4.87445 9.97772 9.86475 4.9872 16.1346 4.9872Z" fill="url(#paint0_linear_1_1904)"/>
<g clip-path="url(#clip0_1_1904)">
<path d="M46.5525 23.7875C46.5641 23.8281 46.57 23.8702 46.57 23.9125V30.3487C46.57 30.5175 46.4787 30.6737 46.3337 30.7562L40.93 33.8687V40.0362C40.9298 40.1188 40.908 40.1998 40.8668 40.2713C40.8256 40.3428 40.7663 40.4023 40.695 40.4437L29.4125 46.9362C29.3864 46.9506 29.3587 46.9619 29.33 46.97C29.32 46.9725 29.31 46.98 29.3 46.9825C29.2216 47.005 29.1384 47.005 29.06 46.9825C29.0462 46.98 29.035 46.9725 29.0225 46.9675C28.9975 46.9575 28.97 46.95 28.945 46.9362L17.6662 40.4437C17.5945 40.4026 17.5349 40.3433 17.4934 40.2717C17.4519 40.2002 17.43 40.1189 17.43 40.0362V20.7175C17.43 20.6762 17.4362 20.635 17.4475 20.595C17.4512 20.58 17.46 20.57 17.465 20.555C17.4725 20.5301 17.4821 20.5058 17.4937 20.4825C17.4987 20.4662 17.5125 20.455 17.5225 20.4412L17.5637 20.385C17.5787 20.3725 17.595 20.3625 17.61 20.3512C17.6275 20.3362 17.6437 20.3212 17.6612 20.3087L23.3037 17.0625C23.375 17.0214 23.4558 16.9997 23.5381 16.9997C23.6204 16.9997 23.7012 17.0214 23.7725 17.0625L29.4125 20.3087H29.415C29.4337 20.3212 29.4487 20.335 29.465 20.35L29.5125 20.3837C29.5287 20.4012 29.5375 20.4212 29.5537 20.44C29.5637 20.4537 29.5787 20.4662 29.585 20.4812C29.5975 20.5062 29.6062 20.5287 29.615 20.5537C29.6187 20.5675 29.6275 20.58 29.6312 20.5937C29.6437 20.6325 29.6487 20.6737 29.6487 20.7162V32.7812L34.3487 30.0762V23.9087C34.3487 23.8675 34.3537 23.8262 34.365 23.7862C34.3687 23.7737 34.3775 23.7612 34.3812 23.7462C34.3896 23.721 34.3996 23.6964 34.4112 23.6725C34.42 23.6575 34.4337 23.6475 34.4425 23.6312C34.4575 23.6125 34.4687 23.5937 34.4837 23.5775C34.4987 23.5625 34.515 23.5525 34.53 23.5425C34.5475 23.53 34.5625 23.5137 34.5812 23.5025H34.5825L40.2237 20.255C40.295 20.2139 40.3758 20.1922 40.4581 20.1922C40.5404 20.1922 40.6212 20.2139 40.6925 20.255L46.3337 23.5025C46.3537 23.515 46.3675 23.5287 46.3862 23.5412C46.4012 23.5537 46.4175 23.5637 46.4312 23.5762C46.4475 23.5937 46.4587 23.6137 46.4737 23.6312C46.4837 23.6462 46.4975 23.6575 46.5037 23.6725C46.5175 23.6975 46.5262 23.7225 46.5337 23.7475C46.5412 23.76 46.5487 23.7737 46.5525 23.7875ZM45.6275 30.0775V24.7237L43.655 25.8587L40.9275 27.4287V32.7825L45.6275 30.0775ZM39.99 39.765V34.4062L37.3062 35.9375L29.6487 40.31V45.7162L39.99 39.765ZM18.3662 21.53V39.765L28.7075 45.7162V40.31L23.305 37.2537L23.3025 37.25H23.3C23.2825 37.2375 23.2687 37.2237 23.25 37.2112C23.2362 37.1987 23.22 37.1887 23.2062 37.1775L23.205 37.175C23.1887 37.16 23.1787 37.1437 23.1662 37.125C23.1537 37.1112 23.14 37.0975 23.1312 37.08H23.1287C23.1187 37.0625 23.1125 37.0412 23.1037 37.0212C23.0962 37.0012 23.0862 36.9875 23.0812 36.9675C23.0765 36.944 23.0732 36.9202 23.0712 36.8962C23.0687 36.8787 23.0637 36.8625 23.0637 36.845V24.2362L20.3387 22.665L18.3662 21.53ZM23.5375 18.0125L18.8375 20.7175L23.5375 23.4225L28.235 20.7175L23.5375 18.0125ZM25.9825 34.8937L28.71 33.3237V21.53L26.735 22.6675L24.0075 24.2362V36.03L25.9825 34.8937ZM40.4587 21.2062L35.7587 23.91L40.4587 26.6137L45.1575 23.9087L40.4587 21.2062ZM39.9887 27.4287L37.2625 25.8587L35.2875 24.725V30.0787L38.015 31.6487L39.99 32.7837L39.9887 27.4287ZM29.1762 39.4962L36.0687 35.5612L39.5137 33.5962L34.8175 30.8925L29.4137 34.0037L24.4875 36.8412L29.1762 39.4962Z" fill="url(#paint1_linear_1_1904)"/>
</g>
<defs>
<linearGradient id="paint0_linear_1_1904" x1="32.0012" y1="4.9872" x2="32.0012" y2="59.1663" gradientUnits="userSpaceOnUse">
<stop stop-color="white" stop-opacity="0.2"/>
<stop offset="0.99" stop-opacity="0.2"/>
</linearGradient>
<linearGradient id="paint1_linear_1_1904" x1="32" y1="16.9997" x2="32" y2="46.9994" gradientUnits="userSpaceOnUse">
<stop stop-color="white"/>
<stop offset="1" stop-color="white" stop-opacity="0.3"/>
</linearGradient>
<clipPath id="clip0_1_1904">
<rect width="30" height="30" fill="white" transform="translate(17 17)"/>
</clipPath>
</defs>
</svg>
