<svg width="256" height="256" viewBox="0 0 256 256" fill="none" xmlns="http://www.w3.org/2000/svg">
<path d="M52.736 0H202.752C232.448 0 256 23.552 256 52.736V202.752C256 232.448 232.448 256 203.264 256H52.736C23.552 256 0 232.448 0 203.264V52.736C0 23.552 23.552 0 52.736 0Z" fill="#111D2C"/>
<path d="M64.5385 20H191.471C216.039 20 236 39.9621 236 64.5308V191.469C236 216.038 216.039 236 191.471 236H64.5385C39.9708 236 20.0096 216.038 20.0096 191.469V65.0427C19.4978 39.9621 39.459 20 64.5385 20Z" fill="#007FFF"/>
<path d="M64.5385 20H191.471C216.039 20 236 39.9621 236 64.5308V191.469C236 216.038 216.039 236 191.471 236H64.5385C39.9708 236 20.0096 216.038 20.0096 191.469V65.0427C19.4978 39.9621 39.459 20 64.5385 20Z" fill="url(#paint0_linear_54_556)"/>
<path d="M176.003 149.943C176.593 149.607 177.084 149.122 177.426 148.538C177.768 147.952 177.949 147.288 177.951 146.611L178.021 124.295C178.022 123.618 178.203 122.954 178.546 122.369C178.889 121.784 179.382 121.299 179.975 120.963L192.167 114.004C192.758 113.669 193.428 113.493 194.109 113.495C194.792 113.497 195.461 113.676 196.052 114.016C196.642 114.353 197.133 114.837 197.475 115.421C197.816 116.007 197.995 116.671 197.994 117.348V157.92C197.994 158.599 197.813 159.265 197.47 159.852C197.127 160.439 196.633 160.926 196.04 161.264L149.998 187.491C149.41 187.824 148.744 188 148.067 188C147.389 188 146.724 187.824 146.136 187.491L110.004 167.002C109.409 166.665 108.914 166.178 108.569 165.59C108.225 165.002 108.044 164.333 108.044 163.653V143.193C108.044 143.17 108.068 143.158 108.091 143.17C108.114 143.181 108.138 143.17 108.138 143.141V143.118C108.138 143.1 108.149 143.089 108.161 143.077L137.923 126.128C137.946 126.111 137.934 126.071 137.905 126.071C137.9 126.071 137.896 126.07 137.892 126.068C137.888 126.066 137.884 126.063 137.882 126.059C137.879 126.056 137.877 126.052 137.876 126.048C137.875 126.044 137.875 126.04 137.876 126.036L137.934 105.981C137.937 105.302 137.759 104.634 137.418 104.045C137.077 103.456 136.585 102.966 135.992 102.626C135.4 102.287 134.729 102.109 134.046 102.109C133.363 102.109 132.692 102.287 132.101 102.626L109.987 115.271C109.397 115.607 108.728 115.785 108.047 115.785C107.366 115.785 106.698 115.607 106.108 115.271L83.9175 102.603C83.3265 102.267 82.6568 102.09 81.9755 102.091C81.2941 102.092 80.6249 102.27 80.0348 102.608C79.4448 102.946 78.9546 103.432 78.6133 104.017C78.272 104.601 78.0915 105.265 78.09 105.941V142.192C78.0902 142.868 77.9115 143.532 77.5716 144.118C77.2317 144.703 76.7426 145.19 76.1533 145.53C75.5649 145.868 74.8971 146.048 74.2167 146.05C73.5354 146.052 72.8656 145.877 72.2742 145.541L59.96 138.559C59.3646 138.222 58.8696 137.736 58.525 137.148C58.1797 136.558 57.9986 135.887 58 135.204L58.1108 71.8467C58.113 71.1719 58.2935 70.5094 58.6345 69.9254C58.9755 69.3414 59.465 68.8563 60.0542 68.5185C60.6434 68.1807 61.3115 68.0021 61.9921 68.0005C62.6726 67.9988 63.3417 68.1742 63.9325 68.5091L106.108 92.5321C106.698 92.8686 107.366 93.0457 108.047 93.0457C108.728 93.0457 109.397 92.8686 109.987 92.5321L152.15 68.5091C152.741 68.1734 153.411 67.9979 154.093 68C154.775 68.0014 155.445 68.1809 156.035 68.5206C156.626 68.8591 157.117 69.3459 157.458 69.932C157.797 70.5185 157.974 71.1827 157.972 71.8583V135.233C157.972 135.91 157.797 136.575 157.453 137.165C157.11 137.752 156.617 138.239 156.023 138.577L133.944 151.187C133.35 151.526 132.857 152.015 132.515 152.604C132.174 153.192 131.994 153.858 131.996 154.536C131.996 155.215 132.178 155.881 132.521 156.468C132.867 157.057 133.364 157.544 133.962 157.88L146.142 164.757C146.729 165.087 147.392 165.26 148.067 165.261C148.746 165.26 149.414 165.082 150.003 164.746L176.003 149.938V149.943ZM178.558 93.0932C178.557 93.7738 178.738 94.4424 179.083 95.031C179.43 95.6203 179.929 96.1074 180.529 96.4424C181.127 96.7773 181.803 96.9494 182.49 96.9413C183.176 96.9331 183.848 96.7451 184.438 96.3961L196.11 89.4547C196.686 89.1125 197.162 88.6282 197.493 88.0491C197.825 87.4689 198 86.8132 198 86.146V72.0087C197.999 71.3276 197.815 70.659 197.469 70.0709C197.122 69.4827 196.624 68.9962 196.025 68.6609C195.427 68.3256 194.75 68.1534 194.063 68.162C193.376 68.1696 192.704 68.3572 192.114 68.7057L180.448 75.6471C179.87 75.9886 179.391 76.473 179.059 77.0528C178.729 77.6336 178.556 78.2892 178.558 78.9559V93.0932Z" fill="url(#paint1_linear_54_556)"/>
<defs>
<linearGradient id="paint0_linear_54_556" x1="128.005" y1="20" x2="128.005" y2="236.717" gradientUnits="userSpaceOnUse">
<stop stop-color="white" stop-opacity="0.2"/>
<stop offset="0.99" stop-opacity="0.2"/>
</linearGradient>
<linearGradient id="paint1_linear_54_556" x1="128" y1="68" x2="128" y2="188" gradientUnits="userSpaceOnUse">
<stop stop-color="white"/>
<stop offset="1" stop-color="white" stop-opacity="0.3"/>
</linearGradient>
</defs>
</svg>
