<svg width="256" height="256" viewBox="0 0 64 64" fill="none" xmlns="http://www.w3.org/2000/svg">
<path d="M13.184 0H50.688C58.112 0 64 5.88682 64 13.1814V50.6779C64 58.1004 58.112 63.9872 50.816 63.9872H13.184C5.888 63.9872 0 58.1004 0 50.8058V13.1814C0 5.88682 5.888 0 13.184 0Z" fill="#151E16"/>
<path d="M16.1346 5H47.8678C54.0097 5 59 9.99052 59 16.1327V47.8673C59 54.0095 54.0097 59 47.8678 59H16.1346C9.99271 59 5.00241 54.0095 5.00241 47.8673V16.2607C4.87445 9.99052 9.86475 5 16.1346 5Z" fill="#47A248"/>
<path d="M16.1346 5H47.8678C54.0097 5 59 9.99052 59 16.1327V47.8673C59 54.0095 54.0097 59 47.8678 59H16.1346C9.99271 59 5.00241 54.0095 5.00241 47.8673V16.2607C4.87445 9.99052 9.86475 5 16.1346 5Z" fill="url(#paint0_linear_31_194)"/>
<path d="M38.7614 28.9438C37.2373 21.9688 33.6345 19.6762 33.2474 18.8C32.9098 18.3075 32.6084 17.6075 32.3612 17C32.3178 17.6187 32.2949 17.8562 31.7305 18.48C30.8588 19.1875 26.3793 23.0825 26.0152 31.005C25.6751 38.395 31.1638 42.7987 31.909 43.36L31.9934 43.4225C32.1486 44.6122 32.2812 45.8049 32.3913 47H32.9713C33.1088 45.71 33.3137 44.43 33.5862 43.1625C34.0891 42.7925 34.3145 42.5837 34.6112 42.2962C36.0158 40.9491 37.1322 39.3114 37.888 37.4889C38.6438 35.6665 39.0223 33.6999 38.999 31.7162C39.011 30.6987 38.8748 29.6388 38.7614 28.9438ZM32.3274 39.1875C32.3274 39.1875 32.3274 28.8238 32.659 28.825C32.9158 28.825 33.2498 42.1938 33.2498 42.1938C32.7904 42.1375 32.3274 39.9937 32.3274 39.1875Z" fill="url(#paint1_linear_31_194)"/>
<defs>
<linearGradient id="paint0_linear_31_194" x1="32.0012" y1="5" x2="32.0012" y2="59.1791" gradientUnits="userSpaceOnUse">
<stop stop-color="white" stop-opacity="0.2"/>
<stop offset="0.99" stop-opacity="0.2"/>
</linearGradient>
<linearGradient id="paint1_linear_31_194" x1="32.5" y1="17" x2="32.5" y2="47" gradientUnits="userSpaceOnUse">
<stop stop-color="white"/>
<stop offset="1" stop-color="white" stop-opacity="0.3"/>
</linearGradient>
</defs>
</svg>
