<svg width="256" height="256" viewBox="0 0 256 256" fill="none" xmlns="http://www.w3.org/2000/svg">
<path d="M52.736 0H202.752C232.448 0 256 23.552 256 52.736V202.752C256 232.448 232.448 256 203.264 256H52.736C23.552 256 0 232.448 0 203.264V52.736C0 23.552 23.552 0 52.736 0Z" fill="#111F28"/>
<path d="M64.5385 20H191.471C216.039 20 236 39.9621 236 64.5308V191.469C236 216.038 216.039 236 191.471 236H64.5385C39.9708 236 20.0096 216.038 20.0096 191.469V65.0427C19.4978 39.9621 39.459 20 64.5385 20Z" fill="#039BE5"/>
<path d="M64.5385 20H191.471C216.039 20 236 39.9621 236 64.5308V191.469C236 216.038 216.039 236 191.471 236H64.5385C39.9708 236 20.0096 216.038 20.0096 191.469V65.0427C19.4978 39.9621 39.459 20 64.5385 20Z" fill="url(#paint0_linear_105_274)"/>
<path fill-rule="evenodd" clip-rule="evenodd" d="M158.983 147.867C158.543 147.873 158.091 148.514 156.977 149.799C155.959 150.972 155.116 151.931 155.103 151.93C155.09 151.929 154.526 151.228 153.846 150.369C153.166 149.51 152.547 148.828 152.468 148.854C152.347 148.894 150.402 151.231 149.437 152.459C149.116 152.868 148.904 153.156 148.904 153.192C148.904 153.242 152.3 153.283 156.452 153.283H164L163.359 152.55C163.006 152.149 161.914 150.887 160.932 149.744C159.854 148.491 159.424 147.861 158.983 147.867Z" fill="url(#paint1_linear_105_274)"/>
<path fill-rule="evenodd" clip-rule="evenodd" d="M155.757 122.5C143.969 122.5 134.153 130.7 131.544 141.689C131.103 143.546 130.807 145.459 130.807 147.451C130.807 161.23 141.977 172.401 155.757 172.401C169.537 172.401 180.707 161.23 180.707 147.451C180.707 145.459 180.411 143.546 179.97 141.689C177.361 130.7 167.544 122.5 155.757 122.5ZM147.593 137.775C148.185 137.773 148.867 137.78 149.654 137.78H153.525L154.745 139.016L155.965 140.253L161.14 140.257C165.311 140.261 166.841 140.086 167.418 141.689C167.47 141.832 167.514 141.995 167.551 142.168C167.818 143.386 167.772 145.373 167.772 148.725C167.772 156.061 167.772 156.066 166.423 156.764C165.497 157.243 146.253 157.251 145.153 156.773C144.808 156.622 144.547 156.493 144.35 156.252C143.956 155.771 143.812 154.836 143.763 152.376C143.738 151.145 143.738 149.529 143.738 147.397C143.738 146.111 143.739 145.028 143.751 144.096C143.762 143.165 143.781 142.38 143.813 141.689C143.893 139.973 144.098 138.998 144.654 138.45C145.21 137.903 146.115 137.783 147.593 137.775Z" fill="url(#paint2_linear_105_274)"/>
<path fill-rule="evenodd" clip-rule="evenodd" d="M149.415 80.9139C149.23 80.9155 149.045 80.9358 148.861 80.9751C148.372 81.08 147.901 81.3237 147.503 81.7222L75 154.434L114.517 176.616L115.132 176.96C117.627 178.347 120.745 178.347 123.241 176.96L123.859 176.616L136.904 169.357C130.568 164.035 126.454 156.153 126.454 147.23C126.454 131.205 139.448 118.215 155.473 118.215C156.288 118.215 157.09 118.268 157.888 118.334L152.217 83.2487C151.99 81.7931 150.714 80.9028 149.415 80.9139Z" fill="url(#paint3_linear_105_274)"/>
<path fill-rule="evenodd" clip-rule="evenodd" d="M119.396 73.1465C118.425 73.1465 117.455 73.6485 116.935 74.6536L76.1079 147.433L131.143 92.3268L121.856 74.6536C121.336 73.6485 120.366 73.1465 119.396 73.1465Z" fill="url(#paint4_linear_105_274)"/>
<path fill-rule="evenodd" clip-rule="evenodd" d="M92.3286 56.0433C91.2368 56.2339 90.2468 57.0482 90.0389 58.3652L77.9788 135.65L108.202 81.7222L95.2397 57.4635C94.6159 56.2851 93.4202 55.8527 92.3286 56.0433Z" fill="url(#paint5_linear_105_274)"/>
<path d="M37 183.091H41.9877L46.2187 193.414H46.414L50.645 183.091H55.6327V199.764H51.7109V189.522H51.5726L47.5694 199.658H45.0633L41.0601 189.465H40.9218V199.764H37V183.091Z" fill="url(#paint6_linear_105_274)"/>
<path d="M66.2083 194.366V187.259H70.1789V199.764H66.3873V197.436H66.2571C65.9804 198.201 65.5085 198.809 64.8413 199.259C64.1795 199.704 63.3794 199.927 62.441 199.927C61.5894 199.927 60.8408 199.731 60.1953 199.341C59.5498 198.95 59.0481 198.404 58.6901 197.704C58.332 196.999 58.1503 196.174 58.1449 195.229V187.259H62.1237V194.448C62.1291 195.126 62.3081 195.661 62.6607 196.052C63.0133 196.442 63.4933 196.638 64.1009 196.638C64.4969 196.638 64.8522 196.551 65.1668 196.377C65.4868 196.198 65.739 195.94 65.9235 195.604C66.1133 195.262 66.2083 194.849 66.2083 194.366Z" fill="url(#paint7_linear_105_274)"/>
<path d="M76.6902 183.091V199.764H72.7114V183.091H76.6902Z" fill="url(#paint8_linear_105_274)"/>
<path d="M86.2771 187.259V190.19H78.3928V187.259H86.2771ZM80.0445 184.263H84.0233V195.832C84.0233 196.076 84.0612 196.274 84.1372 196.426C84.2185 196.573 84.3352 196.678 84.487 196.744C84.6389 196.803 84.8206 196.833 85.0322 196.833C85.1841 196.833 85.3441 196.82 85.5123 196.792C85.6858 196.76 85.816 196.733 85.9028 196.711L86.5049 199.585C86.3151 199.639 86.0466 199.707 85.6994 199.788C85.3577 199.87 84.9481 199.921 84.4708 199.943C83.5378 199.986 82.7377 199.878 82.0705 199.617C81.4087 199.351 80.9015 198.939 80.549 198.38C80.2018 197.821 80.0336 197.118 80.0445 196.271V184.263Z" fill="url(#paint9_linear_105_274)"/>
<path d="M94.015 200C92.7077 200 91.5794 199.742 90.6302 199.227C89.6863 198.706 88.9595 197.965 88.4496 197.004C87.9451 196.038 87.6929 194.89 87.6929 193.56C87.6929 192.269 87.9478 191.14 88.4577 190.174C88.9676 189.202 89.6863 188.448 90.6139 187.91C91.5415 187.368 92.6345 187.096 93.8929 187.096C94.7825 187.096 95.5962 187.235 96.3339 187.512C97.0716 187.788 97.709 188.198 98.246 188.741C98.783 189.284 99.2007 189.954 99.499 190.752C99.7974 191.544 99.9465 192.453 99.9465 193.479V194.472H89.0842V192.16H96.2444C96.239 191.737 96.1386 191.36 95.9433 191.028C95.7481 190.697 95.4796 190.44 95.1378 190.255C94.8015 190.065 94.4137 189.97 93.9743 189.97C93.5295 189.97 93.1308 190.071 92.7782 190.271C92.4256 190.467 92.1463 190.735 91.9401 191.077C91.734 191.414 91.6255 191.796 91.6147 192.225V194.578C91.6147 195.088 91.715 195.536 91.9157 195.921C92.1164 196.301 92.4012 196.597 92.7701 196.809C93.1389 197.02 93.5783 197.126 94.0882 197.126C94.4408 197.126 94.7608 197.077 95.0483 196.98C95.3358 196.882 95.5826 196.738 95.7887 196.548C95.9949 196.358 96.1495 196.125 96.2525 195.848L99.9058 195.954C99.754 196.773 99.4204 197.487 98.905 198.095C98.3952 198.697 97.7252 199.167 96.8953 199.503C96.0654 199.834 95.1053 200 94.015 200Z" fill="url(#paint10_linear_105_274)"/>
<path d="M101.979 199.764V187.259H105.844V189.539H105.974C106.202 188.714 106.573 188.1 107.088 187.699C107.604 187.292 108.203 187.088 108.887 187.088C109.071 187.088 109.261 187.102 109.456 187.129C109.651 187.151 109.833 187.186 110.001 187.235V190.695C109.811 190.63 109.562 190.578 109.253 190.54C108.949 190.502 108.678 190.483 108.439 190.483C107.967 190.483 107.541 190.589 107.162 190.801C106.787 191.007 106.492 191.297 106.275 191.672C106.063 192.041 105.957 192.475 105.957 192.974V199.764H101.979Z" fill="url(#paint11_linear_105_274)"/>
<path d="M119.442 191.484V194.554H111.728V191.484H119.442Z" fill="url(#paint12_linear_105_274)"/>
<path d="M122.251 199.764V183.091H133.626V186.364H126.279V189.783H132.902V193.064H126.279V199.764H122.251Z" fill="url(#paint13_linear_105_274)"/>
<path d="M135.654 199.764V187.259H139.633V199.764H135.654ZM137.647 185.802C137.089 185.802 136.609 185.617 136.207 185.248C135.806 184.874 135.605 184.423 135.605 183.897C135.605 183.376 135.806 182.931 136.207 182.562C136.609 182.187 137.089 182 137.647 182C138.211 182 138.692 182.187 139.088 182.562C139.489 182.931 139.69 183.376 139.69 183.897C139.69 184.423 139.489 184.874 139.088 185.248C138.692 185.617 138.211 185.802 137.647 185.802Z" fill="url(#paint14_linear_105_274)"/>
<path d="M142.165 199.764V187.259H146.03V189.539H146.16C146.388 188.714 146.76 188.1 147.275 187.699C147.79 187.292 148.39 187.088 149.073 187.088C149.258 187.088 149.447 187.102 149.643 187.129C149.838 187.151 150.02 187.186 150.188 187.235V190.695C149.998 190.63 149.748 190.578 149.439 190.54C149.135 190.502 148.864 190.483 148.626 190.483C148.154 190.483 147.728 190.589 147.348 190.801C146.974 191.007 146.678 191.297 146.461 191.672C146.25 192.041 146.144 192.475 146.144 192.974V199.764H142.165Z" fill="url(#paint15_linear_105_274)"/>
<path d="M157.002 200C155.695 200 154.567 199.742 153.617 199.227C152.674 198.706 151.947 197.965 151.437 197.004C150.932 196.038 150.68 194.89 150.68 193.56C150.68 192.269 150.935 191.14 151.445 190.174C151.955 189.202 152.674 188.448 153.601 187.91C154.529 187.368 155.622 187.096 156.88 187.096C157.77 187.096 158.583 187.235 159.321 187.512C160.059 187.788 160.696 188.198 161.233 188.741C161.77 189.284 162.188 189.954 162.486 190.752C162.785 191.544 162.934 192.453 162.934 193.479V194.472H152.071V192.16H159.232C159.226 191.737 159.126 191.36 158.931 191.028C158.735 190.697 158.467 190.44 158.125 190.255C157.789 190.065 157.401 189.97 156.962 189.97C156.517 189.97 156.118 190.071 155.765 190.271C155.413 190.467 155.133 190.735 154.927 191.077C154.721 191.414 154.613 191.796 154.602 192.225V194.578C154.602 195.088 154.702 195.536 154.903 195.921C155.104 196.301 155.388 196.597 155.757 196.809C156.126 197.02 156.566 197.126 157.075 197.126C157.428 197.126 157.748 197.077 158.036 196.98C158.323 196.882 158.57 196.738 158.776 196.548C158.982 196.358 159.137 196.125 159.24 195.848L162.893 195.954C162.741 196.773 162.408 197.487 161.892 198.095C161.382 198.697 160.712 199.167 159.883 199.503C159.053 199.834 158.092 200 157.002 200Z" fill="url(#paint16_linear_105_274)"/>
<path d="M164.966 199.764V183.091H168.945V189.4H169.026C169.189 189.02 169.419 188.654 169.718 188.301C170.021 187.948 170.407 187.661 170.873 187.438C171.345 187.21 171.909 187.096 172.565 187.096C173.433 187.096 174.244 187.324 174.998 187.78C175.758 188.236 176.371 188.939 176.837 189.889C177.304 190.839 177.537 192.049 177.537 193.52C177.537 194.936 177.312 196.122 176.862 197.077C176.417 198.033 175.815 198.749 175.055 199.227C174.301 199.704 173.463 199.943 172.541 199.943C171.912 199.943 171.367 199.84 170.906 199.634C170.444 199.427 170.057 199.156 169.742 198.82C169.433 198.483 169.194 198.122 169.026 197.737H168.904V199.764H164.966ZM168.863 193.512C168.863 194.185 168.953 194.771 169.132 195.27C169.316 195.769 169.579 196.157 169.921 196.434C170.268 196.706 170.683 196.841 171.166 196.841C171.654 196.841 172.069 196.706 172.411 196.434C172.753 196.157 173.01 195.769 173.184 195.27C173.363 194.771 173.452 194.185 173.452 193.512C173.452 192.839 173.363 192.255 173.184 191.761C173.01 191.267 172.753 190.885 172.411 190.613C172.075 190.342 171.66 190.206 171.166 190.206C170.678 190.206 170.263 190.339 169.921 190.605C169.579 190.871 169.316 191.251 169.132 191.745C168.953 192.239 168.863 192.828 168.863 193.512Z" fill="url(#paint17_linear_105_274)"/>
<path d="M183.145 199.976C182.348 199.976 181.64 199.843 181.021 199.577C180.408 199.305 179.923 198.898 179.565 198.355C179.212 197.807 179.036 197.121 179.036 196.296C179.036 195.601 179.158 195.015 179.402 194.537C179.646 194.06 179.983 193.672 180.411 193.373C180.84 193.075 181.333 192.849 181.892 192.697C182.451 192.54 183.047 192.434 183.682 192.38C184.393 192.315 184.965 192.247 185.399 192.176C185.833 192.1 186.147 191.995 186.343 191.859C186.543 191.718 186.644 191.52 186.644 191.265V191.224C186.644 190.806 186.5 190.483 186.212 190.255C185.925 190.027 185.537 189.913 185.049 189.913C184.523 189.913 184.1 190.027 183.78 190.255C183.46 190.483 183.256 190.798 183.169 191.199L179.5 191.069C179.608 190.309 179.888 189.631 180.338 189.034C180.794 188.431 181.417 187.959 182.209 187.617C183.007 187.27 183.964 187.096 185.081 187.096C185.879 187.096 186.614 187.191 187.286 187.381C187.959 187.566 188.545 187.837 189.044 188.195C189.543 188.548 189.928 188.982 190.199 189.498C190.476 190.014 190.614 190.602 190.614 191.265V199.764H186.872V198.022H186.774C186.551 198.445 186.267 198.803 185.92 199.096C185.578 199.389 185.174 199.609 184.707 199.756C184.246 199.902 183.725 199.976 183.145 199.976ZM184.374 197.37C184.802 197.37 185.187 197.284 185.529 197.11C185.876 196.936 186.153 196.697 186.359 196.393C186.565 196.084 186.668 195.726 186.668 195.319V194.13C186.554 194.19 186.416 194.244 186.253 194.293C186.096 194.342 185.922 194.388 185.732 194.431C185.543 194.475 185.347 194.513 185.147 194.545C184.946 194.578 184.753 194.608 184.569 194.635C184.195 194.695 183.875 194.787 183.609 194.912C183.348 195.037 183.148 195.199 183.007 195.4C182.871 195.596 182.803 195.829 182.803 196.1C182.803 196.513 182.95 196.828 183.243 197.045C183.541 197.262 183.918 197.37 184.374 197.37Z" fill="url(#paint18_linear_105_274)"/>
<path d="M203.958 191.077L200.305 191.175C200.267 190.915 200.164 190.684 199.996 190.483C199.828 190.277 199.608 190.117 199.337 190.003C199.071 189.883 198.762 189.824 198.409 189.824C197.948 189.824 197.555 189.916 197.229 190.1C196.909 190.285 196.752 190.535 196.757 190.849C196.752 191.094 196.85 191.305 197.05 191.484C197.257 191.663 197.623 191.807 198.149 191.916L200.557 192.372C201.805 192.611 202.732 193.007 203.34 193.56C203.953 194.114 204.262 194.847 204.268 195.758C204.262 196.616 204.007 197.362 203.503 197.997C203.004 198.632 202.32 199.126 201.452 199.479C200.584 199.826 199.592 200 198.474 200C196.69 200 195.282 199.634 194.251 198.901C193.226 198.163 192.64 197.175 192.494 195.938L196.424 195.84C196.511 196.296 196.736 196.643 197.099 196.882C197.463 197.121 197.926 197.24 198.491 197.24C199 197.24 199.415 197.145 199.735 196.955C200.055 196.765 200.218 196.513 200.224 196.198C200.218 195.916 200.093 195.691 199.849 195.522C199.605 195.349 199.223 195.213 198.702 195.115L196.521 194.7C195.268 194.472 194.335 194.052 193.723 193.438C193.11 192.82 192.806 192.033 192.811 191.077C192.806 190.242 193.028 189.528 193.478 188.936C193.929 188.339 194.569 187.883 195.399 187.569C196.229 187.254 197.208 187.096 198.336 187.096C200.028 187.096 201.363 187.452 202.339 188.163C203.316 188.868 203.855 189.84 203.958 191.077Z" fill="url(#paint19_linear_105_274)"/>
<path d="M212.068 200C210.761 200 209.633 199.742 208.684 199.227C207.74 198.706 207.013 197.965 206.503 197.004C205.999 196.038 205.746 194.89 205.746 193.56C205.746 192.269 206.001 191.14 206.511 190.174C207.021 189.202 207.74 188.448 208.667 187.91C209.595 187.368 210.688 187.096 211.946 187.096C212.836 187.096 213.65 187.235 214.387 187.512C215.125 187.788 215.762 188.198 216.299 188.741C216.836 189.284 217.254 189.954 217.552 190.752C217.851 191.544 218 192.453 218 193.479V194.472H207.138V192.16H214.298C214.292 191.737 214.192 191.36 213.997 191.028C213.802 190.697 213.533 190.44 213.191 190.255C212.855 190.065 212.467 189.97 212.028 189.97C211.583 189.97 211.184 190.071 210.832 190.271C210.479 190.467 210.2 190.735 209.994 191.077C209.788 191.414 209.679 191.796 209.668 192.225V194.578C209.668 195.088 209.769 195.536 209.969 195.921C210.17 196.301 210.455 196.597 210.824 196.809C211.192 197.02 211.632 197.126 212.142 197.126C212.494 197.126 212.814 197.077 213.102 196.98C213.389 196.882 213.636 196.738 213.842 196.548C214.048 196.358 214.203 196.125 214.306 195.848L217.959 195.954C217.807 196.773 217.474 197.487 216.959 198.095C216.449 198.697 215.779 199.167 214.949 199.503C214.119 199.834 213.159 200 212.068 200Z" fill="url(#paint20_linear_105_274)"/>
<defs>
<linearGradient id="paint0_linear_105_274" x1="128.005" y1="20" x2="128.005" y2="236.717" gradientUnits="userSpaceOnUse">
<stop stop-color="white" stop-opacity="0.2"/>
<stop offset="0.99" stop-opacity="0.2"/>
</linearGradient>
<linearGradient id="paint1_linear_105_274" x1="156.452" y1="59.2926" x2="156.452" y2="180.48" gradientUnits="userSpaceOnUse">
<stop stop-color="white"/>
<stop offset="1" stop-color="white" stop-opacity="0.3"/>
</linearGradient>
<linearGradient id="paint2_linear_105_274" x1="156.542" y1="56.8195" x2="156.542" y2="172.236" gradientUnits="userSpaceOnUse">
<stop stop-color="white"/>
<stop offset="1" stop-color="white" stop-opacity="0.3"/>
</linearGradient>
<linearGradient id="paint3_linear_105_274" x1="116.444" y1="55.1706" x2="116.444" y2="178" gradientUnits="userSpaceOnUse">
<stop stop-color="white"/>
<stop offset="1" stop-color="white" stop-opacity="0.3"/>
</linearGradient>
<linearGradient id="paint4_linear_105_274" x1="103.626" y1="55.995" x2="103.626" y2="177.182" gradientUnits="userSpaceOnUse">
<stop stop-color="white"/>
<stop offset="1" stop-color="white" stop-opacity="0.3"/>
</linearGradient>
<linearGradient id="paint5_linear_105_274" x1="93.0902" y1="56" x2="93.0902" y2="178.007" gradientUnits="userSpaceOnUse">
<stop stop-color="white"/>
<stop offset="1" stop-color="white" stop-opacity="0.3"/>
</linearGradient>
<linearGradient id="paint6_linear_105_274" x1="127.5" y1="182" x2="127.5" y2="200" gradientUnits="userSpaceOnUse">
<stop stop-color="white"/>
<stop offset="1" stop-color="white" stop-opacity="0.3"/>
</linearGradient>
<linearGradient id="paint7_linear_105_274" x1="127.5" y1="182" x2="127.5" y2="200" gradientUnits="userSpaceOnUse">
<stop stop-color="white"/>
<stop offset="1" stop-color="white" stop-opacity="0.3"/>
</linearGradient>
<linearGradient id="paint8_linear_105_274" x1="127.5" y1="182" x2="127.5" y2="200" gradientUnits="userSpaceOnUse">
<stop stop-color="white"/>
<stop offset="1" stop-color="white" stop-opacity="0.3"/>
</linearGradient>
<linearGradient id="paint9_linear_105_274" x1="127.5" y1="182" x2="127.5" y2="200" gradientUnits="userSpaceOnUse">
<stop stop-color="white"/>
<stop offset="1" stop-color="white" stop-opacity="0.3"/>
</linearGradient>
<linearGradient id="paint10_linear_105_274" x1="127.5" y1="182" x2="127.5" y2="200" gradientUnits="userSpaceOnUse">
<stop stop-color="white"/>
<stop offset="1" stop-color="white" stop-opacity="0.3"/>
</linearGradient>
<linearGradient id="paint11_linear_105_274" x1="127.5" y1="182" x2="127.5" y2="200" gradientUnits="userSpaceOnUse">
<stop stop-color="white"/>
<stop offset="1" stop-color="white" stop-opacity="0.3"/>
</linearGradient>
<linearGradient id="paint12_linear_105_274" x1="127.5" y1="182" x2="127.5" y2="200" gradientUnits="userSpaceOnUse">
<stop stop-color="white"/>
<stop offset="1" stop-color="white" stop-opacity="0.3"/>
</linearGradient>
<linearGradient id="paint13_linear_105_274" x1="127.5" y1="182" x2="127.5" y2="200" gradientUnits="userSpaceOnUse">
<stop stop-color="white"/>
<stop offset="1" stop-color="white" stop-opacity="0.3"/>
</linearGradient>
<linearGradient id="paint14_linear_105_274" x1="127.5" y1="182" x2="127.5" y2="200" gradientUnits="userSpaceOnUse">
<stop stop-color="white"/>
<stop offset="1" stop-color="white" stop-opacity="0.3"/>
</linearGradient>
<linearGradient id="paint15_linear_105_274" x1="127.5" y1="182" x2="127.5" y2="200" gradientUnits="userSpaceOnUse">
<stop stop-color="white"/>
<stop offset="1" stop-color="white" stop-opacity="0.3"/>
</linearGradient>
<linearGradient id="paint16_linear_105_274" x1="127.5" y1="182" x2="127.5" y2="200" gradientUnits="userSpaceOnUse">
<stop stop-color="white"/>
<stop offset="1" stop-color="white" stop-opacity="0.3"/>
</linearGradient>
<linearGradient id="paint17_linear_105_274" x1="127.5" y1="182" x2="127.5" y2="200" gradientUnits="userSpaceOnUse">
<stop stop-color="white"/>
<stop offset="1" stop-color="white" stop-opacity="0.3"/>
</linearGradient>
<linearGradient id="paint18_linear_105_274" x1="127.5" y1="182" x2="127.5" y2="200" gradientUnits="userSpaceOnUse">
<stop stop-color="white"/>
<stop offset="1" stop-color="white" stop-opacity="0.3"/>
</linearGradient>
<linearGradient id="paint19_linear_105_274" x1="127.5" y1="182" x2="127.5" y2="200" gradientUnits="userSpaceOnUse">
<stop stop-color="white"/>
<stop offset="1" stop-color="white" stop-opacity="0.3"/>
</linearGradient>
<linearGradient id="paint20_linear_105_274" x1="127.5" y1="182" x2="127.5" y2="200" gradientUnits="userSpaceOnUse">
<stop stop-color="white"/>
<stop offset="1" stop-color="white" stop-opacity="0.3"/>
</linearGradient>
</defs>
</svg>
