<svg width="256" height="256" viewBox="0 0 256 256" fill="none" xmlns="http://www.w3.org/2000/svg">
<path d="M90.3417 173.952L107.573 174V166.637V159.274H103.546C101.332 159.274 98.5854 158.784 97.4434 158.185C96.3014 157.585 94.6938 156.226 93.871 155.165C93.0482 154.103 92.1689 152.119 91.9169 150.756C91.5919 148.998 91.9006 147.352 92.9794 145.091C93.9602 143.034 99.4595 136.913 108.473 127.846C119.336 116.918 123.051 113.62 125.166 113.03C127.035 112.508 128.738 112.508 130.607 113.03C132.722 113.62 136.438 116.918 147.301 127.846C156.314 136.913 161.813 143.034 162.794 145.091C163.873 147.352 164.181 148.998 163.856 150.756C163.605 152.119 162.725 154.103 161.902 155.165C161.08 156.226 159.472 157.585 158.33 158.185C157.188 158.784 154.442 159.274 152.227 159.274H148.201V166.637V174H164.01C175.682 174 180.905 173.713 183.973 172.902C186.258 172.298 189.81 170.939 191.865 169.882C193.92 168.825 197.339 166.292 199.463 164.254C201.625 162.179 204.265 158.638 205.461 156.207C206.637 153.82 207.986 149.973 208.459 147.659C208.933 145.345 209.134 141.427 208.906 138.953C208.678 136.479 207.826 132.675 207.011 130.499C206.197 128.323 204.33 124.775 202.864 122.614C201.397 120.453 198.413 117.388 196.232 115.803C194.051 114.218 190.433 112.225 188.191 111.374C185.949 110.523 181.911 109.639 179.217 109.41C176.523 109.181 174.313 108.793 174.307 108.548C174.299 108.303 173.823 105.844 173.246 103.085C172.67 100.325 171.01 95.5582 169.556 92.4916C167.604 88.3713 165.466 85.4337 161.366 81.2367C157.256 77.0288 154.409 74.8587 150.377 72.8608C147.385 71.3776 142.651 69.6773 139.858 69.0821C137.064 68.487 132.983 68 130.789 68C128.594 68 124.513 68.487 121.72 69.0821C118.927 69.6773 114.335 71.316 111.515 72.7238C108.696 74.1316 104.289 77.245 101.721 79.6424C99.1534 82.0399 95.9181 85.7795 94.5315 87.9526L92.0103 91.9038L86.9137 91.9203C82.9844 91.9328 80.903 92.3697 77.8267 93.8274C75.6321 94.8673 72.7859 96.6199 71.5019 97.722C70.2179 98.8241 68.1496 101.824 66.9057 104.388C65.4826 107.322 64.4994 110.668 64.2543 113.412C63.8733 117.676 63.7945 117.81 60.6876 119.483C58.9401 120.423 56.177 122.661 54.5474 124.455C52.9177 126.25 50.5512 129.931 49.2885 132.636C47.2094 137.089 46.9934 138.214 47.0001 144.549C47.0066 150.587 47.2741 152.123 48.956 155.779C50.0276 158.109 52.5509 161.781 54.5634 163.941C56.5758 166.1 59.8108 168.744 61.7522 169.817C63.6937 170.889 67.0436 172.247 69.1965 172.835C72.0695 173.619 77.6953 173.916 90.3417 173.952Z" fill="url(#paint0_linear_102_219)"/>
<path d="M52.736 0H202.752C232.448 0 256 23.552 256 52.736V202.752C256 232.448 232.448 256 203.264 256H52.736C23.552 256 0 232.448 0 203.264V52.736C0 23.552 23.552 0 52.736 0Z" fill="#112129"/>
<path d="M64.5385 20H191.471C216.039 20 236 39.9621 236 64.5308V191.469C236 216.038 216.039 236 191.471 236H64.5385C39.9708 236 20.0096 216.038 20.0096 191.469V65.0427C19.4978 39.9621 39.459 20 64.5385 20Z" fill="#00B0F0"/>
<path d="M64.5385 20H191.471C216.039 20 236 39.9621 236 64.5308V191.469C236 216.038 216.039 236 191.471 236H64.5385C39.9708 236 20.0096 216.038 20.0096 191.469V65.0427C19.4978 39.9621 39.459 20 64.5385 20Z" fill="url(#paint1_linear_102_219)"/>
<path d="M177.877 199.587V177.684H184.65V181.677H184.878C185.277 180.232 185.929 179.157 186.832 178.454C187.735 177.741 188.785 177.384 189.983 177.384C190.306 177.384 190.639 177.408 190.981 177.456C191.323 177.494 191.642 177.556 191.937 177.641V183.701C191.604 183.587 191.167 183.497 190.625 183.43C190.092 183.364 189.617 183.331 189.199 183.331C188.372 183.331 187.625 183.516 186.96 183.887C186.304 184.248 185.786 184.757 185.406 185.413C185.035 186.059 184.85 186.819 184.85 187.694V199.587H177.877Z" fill="url(#paint2_linear_102_219)"/>
<path d="M163.92 200C161.629 200 159.652 199.548 157.988 198.645C156.334 197.733 155.06 196.435 154.167 194.752C153.283 193.06 152.841 191.05 152.841 188.721C152.841 186.458 153.287 184.481 154.181 182.789C155.075 181.087 156.334 179.766 157.96 178.825C159.585 177.874 161.501 177.399 163.706 177.399C165.265 177.399 166.691 177.641 167.984 178.126C169.277 178.611 170.394 179.328 171.335 180.279C172.276 181.23 173.008 182.404 173.531 183.801C174.054 185.189 174.315 186.781 174.315 188.578V190.318H155.279V186.268H167.827C167.818 185.527 167.642 184.866 167.3 184.286C166.958 183.706 166.487 183.254 165.888 182.931C165.299 182.599 164.619 182.432 163.849 182.432C163.069 182.432 162.371 182.608 161.753 182.96C161.135 183.302 160.645 183.773 160.284 184.371C159.923 184.961 159.733 185.631 159.714 186.382V190.503C159.714 191.397 159.89 192.181 160.241 192.856C160.593 193.521 161.092 194.039 161.739 194.41C162.385 194.781 163.155 194.966 164.049 194.966C164.666 194.966 165.227 194.881 165.731 194.71C166.235 194.539 166.668 194.287 167.029 193.954C167.39 193.621 167.661 193.212 167.842 192.728L174.244 192.913C173.978 194.348 173.393 195.599 172.49 196.663C171.597 197.718 170.423 198.541 168.968 199.13C167.514 199.71 165.831 200 163.92 200Z" fill="url(#paint3_linear_102_219)"/>
<path d="M150.359 177.684V182.817H136.542V177.684H150.359ZM139.437 172.436H146.41V192.699C146.41 193.127 146.476 193.474 146.609 193.74C146.752 193.997 146.956 194.182 147.222 194.296C147.489 194.401 147.807 194.453 148.178 194.453C148.444 194.453 148.724 194.429 149.019 194.382C149.323 194.325 149.551 194.277 149.704 194.239L150.759 199.273C150.426 199.368 149.955 199.487 149.347 199.629C148.748 199.772 148.03 199.862 147.194 199.9C145.559 199.976 144.157 199.786 142.987 199.33C141.828 198.864 140.939 198.142 140.321 197.162C139.712 196.183 139.418 194.952 139.437 193.469V172.436Z" fill="url(#paint4_linear_102_219)"/>
<path d="M133.558 170.383V199.586H126.585V170.383H133.558Z" fill="url(#paint5_linear_102_219)"/>
<path d="M115.188 190.132V177.684H122.147V199.587H115.502V195.508H115.274C114.789 196.849 113.962 197.913 112.793 198.702C111.633 199.482 110.231 199.872 108.586 199.872C107.093 199.872 105.782 199.529 104.65 198.845C103.519 198.161 102.64 197.205 102.012 195.979C101.385 194.743 101.066 193.298 101.057 191.644V177.684H108.03V190.275C108.039 191.463 108.353 192.4 108.971 193.084C109.589 193.769 110.43 194.111 111.495 194.111C112.189 194.111 112.812 193.959 113.363 193.655C113.924 193.341 114.366 192.889 114.689 192.3C115.022 191.701 115.188 190.978 115.188 190.132Z" fill="url(#paint6_linear_102_219)"/>
<path d="M64 170.383H72.7411L80.1561 188.464H80.4983L87.9133 170.383H96.6544V199.586H89.7813V181.648H89.5389L82.5232 199.401H78.1312L71.1155 181.548H70.8731V199.586H64V170.383Z" fill="url(#paint7_linear_102_219)"/>
<path d="M127.403 166C133.157 166 136.108 165.76 136.616 165.25C137.164 164.699 137.363 159.388 137.363 145.246V125.992H143.862C147.437 125.992 150.503 125.763 150.676 125.483C150.848 125.202 145.682 119.649 139.196 113.143L127.403 101.312L115.61 113.143C109.123 119.649 103.958 125.202 104.13 125.483C104.303 125.763 107.368 125.992 110.943 125.992H117.443V145.246C117.443 159.388 117.641 164.699 118.19 165.25C118.697 165.76 121.648 166 127.403 166ZM95.1883 145.955L109.973 145.996V139.745V133.494H106.518C104.618 133.494 102.262 133.077 101.282 132.568C100.302 132.06 98.9224 130.906 98.2164 130.004C97.5105 129.103 96.756 127.419 96.5398 126.262C96.261 124.769 96.5258 123.371 97.4514 121.451C98.293 119.706 103.012 114.509 110.745 106.81C120.066 97.5322 123.254 94.7326 125.068 94.2313C126.672 93.7883 128.133 93.7883 129.737 94.2313C131.552 94.7326 134.74 97.5322 144.06 106.81C151.794 114.509 156.513 119.706 157.354 121.451C158.28 123.371 158.545 124.769 158.266 126.262C158.05 127.419 157.295 129.103 156.589 130.004C155.883 130.906 154.504 132.06 153.524 132.568C152.544 133.077 150.188 133.494 148.288 133.494H144.833V139.745V145.996H158.397C168.412 145.996 172.894 145.752 175.526 145.064C177.487 144.551 180.534 143.397 182.298 142.5C184.061 141.602 186.995 139.452 188.817 137.721C190.672 135.96 192.937 132.953 193.964 130.89C194.972 128.863 196.13 125.597 196.536 123.632C196.942 121.667 197.115 118.341 196.919 116.241C196.724 114.14 195.992 110.91 195.294 109.063C194.595 107.215 192.993 104.203 191.735 102.368C190.477 100.534 187.916 97.9315 186.045 96.586C184.174 95.2404 181.069 93.5482 179.146 92.8255C177.222 92.1028 173.757 91.3523 171.446 91.1577C169.134 90.9631 167.238 90.6337 167.232 90.4257C167.226 90.2177 166.817 88.1305 166.322 85.7876C165.828 83.4446 164.403 79.3974 163.156 76.7939C161.481 73.2956 159.647 70.8016 156.129 67.2382C152.602 63.6657 150.16 61.8232 146.7 60.1269C144.133 58.8677 140.071 57.424 137.674 56.9187C135.277 56.4134 131.776 56 129.893 56C128.01 56 124.508 56.4134 122.111 56.9187C119.715 57.424 115.775 58.8154 113.356 60.0106C110.937 61.2059 107.155 63.8492 104.952 65.8846C102.749 67.9201 99.9729 71.0951 98.7832 72.9402L96.62 76.2948L92.2469 76.3088C88.8755 76.3194 87.0896 76.6903 84.4501 77.9279C82.567 78.8109 80.1249 80.2988 79.0232 81.2346C77.9216 82.1703 76.1469 84.7173 75.0796 86.8945C73.8586 89.3851 73.0149 92.226 72.8046 94.5553C72.4777 98.1757 72.4101 98.2895 69.7443 99.7097C68.2449 100.508 65.8741 102.408 64.4758 103.932C63.0776 105.455 61.0471 108.58 59.9636 110.877C58.1797 114.658 57.9943 115.613 58.0001 120.991C58.0057 126.118 58.2352 127.422 59.6783 130.526C60.5978 132.504 62.7628 135.622 64.4896 137.456C66.2163 139.289 68.992 141.534 70.6578 142.445C72.3236 143.355 75.1979 144.508 77.0452 145.007C79.5102 145.673 84.3373 145.925 95.1883 145.955Z" fill="url(#paint8_linear_102_219)"/>
<defs>
<linearGradient id="paint0_linear_102_219" x1="128" y1="68" x2="128" y2="197.561" gradientUnits="userSpaceOnUse">
<stop stop-color="white"/>
<stop offset="1" stop-color="white" stop-opacity="0.3"/>
</linearGradient>
<linearGradient id="paint1_linear_102_219" x1="128.005" y1="20" x2="128.005" y2="236.717" gradientUnits="userSpaceOnUse">
<stop stop-color="white" stop-opacity="0.2"/>
<stop offset="0.99" stop-opacity="0.2"/>
</linearGradient>
<linearGradient id="paint2_linear_102_219" x1="184.907" y1="177.384" x2="184.907" y2="199.587" gradientUnits="userSpaceOnUse">
<stop stop-color="white"/>
<stop offset="1" stop-color="white" stop-opacity="0.3"/>
</linearGradient>
<linearGradient id="paint3_linear_102_219" x1="163.578" y1="177.399" x2="163.578" y2="200" gradientUnits="userSpaceOnUse">
<stop stop-color="white"/>
<stop offset="1" stop-color="white" stop-opacity="0.3"/>
</linearGradient>
<linearGradient id="paint4_linear_102_219" x1="143.65" y1="172.436" x2="143.65" y2="199.916" gradientUnits="userSpaceOnUse">
<stop stop-color="white"/>
<stop offset="1" stop-color="white" stop-opacity="0.3"/>
</linearGradient>
<linearGradient id="paint5_linear_102_219" x1="130.072" y1="170.383" x2="130.072" y2="199.586" gradientUnits="userSpaceOnUse">
<stop stop-color="white"/>
<stop offset="1" stop-color="white" stop-opacity="0.3"/>
</linearGradient>
<linearGradient id="paint6_linear_102_219" x1="111.602" y1="177.684" x2="111.602" y2="199.872" gradientUnits="userSpaceOnUse">
<stop stop-color="white"/>
<stop offset="1" stop-color="white" stop-opacity="0.3"/>
</linearGradient>
<linearGradient id="paint7_linear_102_219" x1="80.3272" y1="170.383" x2="80.3272" y2="199.586" gradientUnits="userSpaceOnUse">
<stop stop-color="white"/>
<stop offset="1" stop-color="white" stop-opacity="0.3"/>
</linearGradient>
<linearGradient id="paint8_linear_102_219" x1="127.5" y1="56" x2="127.5" y2="166" gradientUnits="userSpaceOnUse">
<stop stop-color="white"/>
<stop offset="1" stop-color="white" stop-opacity="0.3"/>
</linearGradient>
</defs>
</svg>
