<svg width="256" height="256" viewBox="0 0 64 64" fill="none" xmlns="http://www.w3.org/2000/svg">
<path d="M13.184 0H50.688C58.112 0 64 5.88682 64 13.1814V50.6779C64 58.1004 58.112 63.9872 50.816 63.9872H13.184C5.888 63.9872 0 58.1004 0 50.8058V13.1814C0 5.88682 5.888 0 13.184 0Z" fill="#271219"/>
<path d="M16.1346 4.98721H47.8678C54.0097 4.98721 59 9.97773 59 16.1199V47.8545C59 53.9967 54.0097 58.9872 47.8678 58.9872H16.1346C9.99271 58.9872 5.00241 53.9967 5.00241 47.8545V16.2479C4.87445 9.97773 9.86475 4.98721 16.1346 4.98721Z" fill="#E0234E"/>
<path d="M16.1346 4.98721H47.8678C54.0097 4.98721 59 9.97773 59 16.1199V47.8545C59 53.9967 54.0097 58.9872 47.8678 58.9872H16.1346C9.99271 58.9872 5.00241 53.9967 5.00241 47.8545V16.2479C4.87445 9.97773 9.86475 4.98721 16.1346 4.98721Z" fill="url(#paint0_linear_1_831)"/>
<path d="M35.9363 18.0129V18.7821L35.8044 18.9103V19.0385C35.8044 19.0385 35.8043 19.1667 35.6723 19.1667L35.5403 19.2949L35.4082 19.4231C35.2762 19.5513 35.0122 19.6795 34.8801 19.8077C34.8801 19.8077 34.7481 19.8077 34.7481 19.9359C34.7481 20.0641 34.6161 19.936 34.6161 20.0642L34.4841 20.1923L34.352 20.3205C34.352 20.3205 34.352 20.4488 34.22 20.4488C34.088 20.4488 34.22 20.577 34.088 20.577V22.2436L32.2396 21.4744C31.9755 21.3462 31.5794 21.3462 31.3153 21.218L30.7872 21.0898C30.2591 20.9616 29.863 20.9616 29.3349 20.8334C28.4107 20.8334 27.6185 20.7052 26.8264 20.8334C26.2982 20.8334 25.9021 20.9616 25.374 20.9616C24.9779 20.9616 24.5819 21.0898 24.3178 21.218L23.9217 21.3462C23.7897 21.3462 23.6577 21.4744 23.5256 21.4744L23.2616 21.6026C23.2616 21.6026 23.1296 21.6026 22.9975 21.7308C22.8655 21.7308 22.7334 21.859 22.7334 21.859H22.6015C22.6015 21.859 22.4694 21.859 22.3374 21.9872C22.3374 21.9872 22.2053 21.9872 22.2053 22.1154C22.2053 22.2436 22.0733 22.1154 22.0733 22.2436C22.0733 22.2436 21.9413 22.2436 21.9413 22.3718L21.8093 22.5L21.6772 22.6283L21.5452 22.7564L21.4132 22.8846L21.2812 23.0129L21.1491 23.1411L21.0171 23.2693C20.8851 23.3975 20.753 23.5257 20.621 23.6539C20.489 23.7821 20.3569 23.9103 20.0929 24.0385C19.8288 24.2949 19.4327 24.4231 19.1687 24.5513C19.0367 24.5513 18.7726 24.6795 18.6406 24.6795C18.2445 24.6795 17.9804 24.9359 17.7164 24.9359H17.0562C17.0562 24.9359 16.9242 24.9359 16.9242 25.0641C16.9242 25.0641 16.7921 25.0642 16.7921 25.1924L16.6601 25.3205L16.5281 25.4487L16.3961 25.577L16.264 25.7052C16.264 25.7052 16.264 25.8334 16.132 25.8334C16.132 25.8334 16.132 25.9616 16 26.0898V26.4744V26.859C16 26.9872 16 27.1154 16.132 27.2436C16.132 27.2436 16.132 27.3718 16.264 27.3718C16.264 27.3718 16.264 27.5 16.3961 27.5L16.5281 27.6282L16.6601 27.7565C16.7922 27.8847 16.9242 28.0128 17.1883 28.1411H17.3203C17.3203 28.2693 17.3203 28.3974 17.4523 28.5257V28.6539C17.4523 28.6539 17.4523 28.7821 17.5843 28.7821L17.7164 28.9103L17.8484 29.0385L17.9804 29.1667C17.9804 29.1667 18.1124 29.1667 18.1124 29.2949C18.1124 29.2949 18.2445 29.2949 18.2445 29.4231C18.2445 29.4231 18.3765 29.4231 18.3765 29.5513H18.6406V30.4487C18.6406 30.5769 19.0366 30.0641 19.4327 29.5513V30.9616C19.5648 31.218 19.9609 30.5769 20.3569 29.8077C26.1662 28.5257 31.4474 32.3718 31.9755 37.8846C31.8435 36.9872 30.7872 36.4744 30.2591 36.6026C29.9951 37.1154 29.599 38.0128 28.9388 38.3975V36.859C28.8068 37.6282 28.4107 38.2692 27.8826 38.9103C27.0904 38.9103 26.2983 38.5257 25.9022 38.0129V37.1154C25.9022 37.1154 25.9021 36.9872 26.0342 36.9872C26.1662 36.6026 26.1662 36.3462 25.9022 36.0898H24.4498C22.4694 37.2436 23.6577 40.1923 24.978 40.9616C24.4498 41.0898 24.0538 41.0898 23.9217 41.218C24.3178 41.4744 24.5819 41.6026 24.978 41.7308C25.5061 41.859 26.0342 42.1154 26.2982 42.1154C26.9584 42.2436 27.7506 42.2436 28.4107 42.2436C32.1075 41.9872 35.0122 39.2949 35.5403 35.7051V36.4744V36.7308V38.141V38.2692V38.5257V38.7821V39.0385V39.2949V39.5513V39.8077C35.5403 39.8077 35.5403 39.9359 35.4082 40.0641C35.4082 40.0641 35.4082 40.1923 35.2762 40.3205C35.2762 40.3205 35.2762 40.4487 35.1442 40.577C35.1442 40.577 35.1442 40.7051 35.0122 40.8333C34.4841 41.859 33.6919 42.7564 32.6356 43.5257L32.5036 43.6539C32.5036 43.6539 32.3716 43.6539 32.3716 43.7821H32.7677C33.0317 43.7821 33.1637 43.7821 33.4278 43.6539H33.9559C34.7481 43.5257 35.5403 43.141 36.3325 42.8846C35.0122 44.6795 33.2958 46.0898 31.1833 46.9872C32.1075 46.9872 33.0317 46.7308 33.9559 46.4744C37.2566 45.5769 40.0293 43.3975 41.6136 40.4487C41.2175 42.3718 40.5574 44.0385 39.3691 45.5769C40.1613 45.0641 40.8214 44.4231 41.6136 43.7821C43.462 41.859 44.6503 39.5513 45.0464 36.9872C45.3104 38.2692 45.4424 39.5513 45.3104 40.8333C51.2517 32.8846 45.8385 24.5513 43.462 22.3718V23.1411C43.462 23.2693 43.33 23.5257 43.33 23.6539C43.33 23.7821 43.1979 24.0385 43.1979 24.1667C43.1979 24.2949 43.0659 24.5513 42.9339 24.6795C42.8019 25.0641 42.5378 25.3205 42.2738 25.577C42.1417 25.7052 42.0097 25.8334 41.8777 25.9616C41.8777 25.9616 41.7457 26.0898 41.6136 26.218L41.4816 26.3462C41.3496 26.4744 41.2175 26.6026 40.9535 26.6026C40.8214 26.7308 40.6894 26.7308 40.4254 26.859C40.2933 26.859 40.0292 26.9872 39.8972 27.1154C39.5011 27.2436 39.2371 27.3718 38.841 27.3718H36.8606C36.7285 27.3718 36.4645 27.3718 36.3325 27.2436H36.8606C37.2567 27.2436 37.6527 27.1154 37.9168 26.9872C38.0488 26.9872 38.3129 26.859 38.4449 26.7308C38.577 26.7308 38.841 26.6026 38.973 26.4744C39.1051 26.3462 39.2371 26.218 39.5012 26.0898C39.6332 25.9616 39.7652 25.8334 39.8972 25.7052C40.0292 25.577 40.1613 25.4487 40.2933 25.3205C40.4254 25.1923 40.5574 25.0641 40.6894 24.8077C40.6894 24.6795 40.8214 24.5513 40.9535 24.4231C41.0855 24.0385 41.3496 23.7821 41.4816 23.3975C41.4816 23.2692 41.6136 23.0128 41.6136 22.8846V20.9616C41.6136 20.8334 41.6136 20.577 41.4816 20.4488C41.4816 20.3206 41.3495 20.0641 41.3495 19.9359C41.3495 19.8077 41.2175 19.5513 41.0855 19.4231C40.9535 19.2949 40.9535 19.0385 40.8214 18.9103C40.6894 18.7821 40.5574 18.6539 40.4254 18.3975C40.2933 18.2693 40.1613 18.1411 40.0293 18.0129C40.0293 18.0129 39.8973 17.8846 39.7652 17.7564C39.3691 17.5 38.973 17.2436 38.5769 16.9872H38.4449C36.4645 18.1411 36.2004 18.0129 35.9363 18.0129Z" fill="url(#paint1_linear_1_831)"/>
<defs>
<linearGradient id="paint0_linear_1_831" x1="32.0012" y1="4.98721" x2="32.0012" y2="59.1664" gradientUnits="userSpaceOnUse">
<stop stop-color="white" stop-opacity="0.2"/>
<stop offset="0.99" stop-opacity="0.2"/>
</linearGradient>
<linearGradient id="paint1_linear_1_831" x1="32.0019" y1="17.9872" x2="32.0019" y2="48.2052" gradientUnits="userSpaceOnUse">
<stop stop-color="white"/>
<stop offset="1" stop-color="white" stop-opacity="0.3"/>
</linearGradient>
</defs>
</svg>
