<svg width="256" height="256" viewBox="0 0 256 256" fill="none" xmlns="http://www.w3.org/2000/svg">
<path d="M52.736 0H202.752C232.448 0 256 23.552 256 52.736V202.752C256 232.448 232.448 256 203.264 256H52.736C23.552 256 0 232.448 0 203.264V52.736C0 23.552 23.552 0 52.736 0Z" fill="#0C0C0C"/>
<path d="M64.5385 20H191.471C216.039 20 236 39.9621 236 64.5308V191.469C236 216.038 216.039 236 191.471 236H64.5385C39.9708 236 20.0096 216.038 20.0096 191.469V65.0427C19.4978 39.9621 39.459 20 64.5385 20Z" fill="black"/>
<path d="M64.5385 20H191.471C216.039 20 236 39.9621 236 64.5308V191.469C236 216.038 216.039 236 191.471 236H64.5385C39.9708 236 20.0096 216.038 20.0096 191.469V65.0427C19.4978 39.9621 39.459 20 64.5385 20Z" fill="url(#paint0_linear_54_587)"/>
<path d="M125.862 68C124.98 68 124.313 68.0065 124.07 68.0335C123.812 68.06 122.99 68.1385 122.252 68.1975C105.208 69.734 89.2432 78.929 79.1316 93.0615C73.501 100.92 69.9 109.833 68.54 119.275C68.059 122.57 68 123.544 68 128.012C68 132.48 68.06 133.454 68.54 136.75C71.8 159.28 87.8357 178.21 109.584 185.223C113.478 186.478 117.584 187.334 122.252 187.85C124.07 188.05 131.93 188.05 133.748 187.85C141.806 186.958 148.634 184.965 155.366 181.529C156.399 181 156.598 180.86 156.458 180.742C156.364 180.673 151.964 174.773 146.686 167.642L137.091 154.682L125.067 136.891C118.452 127.109 113.009 119.111 112.962 119.111C112.915 119.097 112.868 127.004 112.844 136.656C112.811 153.557 112.798 154.237 112.586 154.636C112.281 155.211 112.046 155.445 111.554 155.702C111.179 155.89 110.85 155.925 109.079 155.925H107.049L106.51 155.585C106.176 155.376 105.905 155.08 105.724 154.729L105.478 154.201L105.504 130.686L105.538 107.159L105.901 106.701C106.089 106.455 106.488 106.139 106.769 105.986C107.25 105.751 107.438 105.728 109.467 105.728C111.86 105.728 112.259 105.822 112.88 106.502C113.057 106.69 119.567 116.495 127.355 128.306C135.241 140.26 143.132 152.211 151.028 164.159L160.529 178.549L161.009 178.233C165.268 175.465 169.771 171.524 173.337 167.419C180.927 158.705 185.819 148.079 187.461 136.749C187.942 133.454 188 132.479 188 128.012C188 123.544 187.94 122.57 187.461 119.274C184.2 96.744 168.165 77.8145 146.417 70.8015C142.581 69.558 138.499 68.7015 133.925 68.1855C133.08 68.0975 128.506 68.002 125.862 68ZM146.205 104.085C147.941 104.085 148.246 104.111 148.633 104.32C149.197 104.601 149.653 105.141 149.818 105.703C149.911 106.008 149.935 112.53 149.911 127.226L149.878 148.313L146.16 142.613L142.429 136.913V121.583C142.429 111.673 142.476 106.102 142.546 105.832C142.734 105.175 143.144 104.659 143.708 104.354C144.188 104.107 144.363 104.085 146.205 104.085Z" fill="url(#paint1_linear_54_587)"/>
<defs>
<linearGradient id="paint0_linear_54_587" x1="128.005" y1="20" x2="128.005" y2="236.717" gradientUnits="userSpaceOnUse">
<stop stop-color="white" stop-opacity="0.13"/>
<stop offset="0.99" stop-color="#666464" stop-opacity="0.2"/>
</linearGradient>
<linearGradient id="paint1_linear_54_587" x1="128" y1="68" x2="128" y2="188" gradientUnits="userSpaceOnUse">
<stop stop-color="white"/>
<stop offset="1" stop-color="white" stop-opacity="0.3"/>
</linearGradient>
</defs>
</svg>
