<svg width="256" height="256" viewBox="0 0 64 64" fill="none" xmlns="http://www.w3.org/2000/svg">
<path d="M13.184 0H50.688C58.112 0 64 5.88682 64 13.1814V50.6779C64 58.1004 58.112 63.9872 50.816 63.9872H13.184C5.888 63.9872 0 58.1004 0 50.8058V13.1814C0 5.88682 5.888 0 13.184 0Z" fill="url(#paint0_linear_1_1717)"/>
<path d="M16.1346 4.98718H47.8678C54.0097 4.98718 59 9.97771 59 16.1199V47.8545C59 53.9967 54.0097 58.9872 47.8678 58.9872H16.1346C9.99271 58.9872 5.00241 53.9967 5.00241 47.8545V16.2478C4.87445 9.9777 9.86475 4.98718 16.1346 4.98718Z" fill="url(#paint1_linear_1_1717)"/>
<path d="M16.1346 4.98718H47.8678C54.0097 4.98718 59 9.97771 59 16.1199V47.8545C59 53.9967 54.0097 58.9872 47.8678 58.9872H16.1346C9.99271 58.9872 5.00241 53.9967 5.00241 47.8545V16.2478C4.87445 9.9777 9.86475 4.98718 16.1346 4.98718Z" fill="url(#paint2_linear_1_1717)"/>
<path d="M51.0001 23.6571V41.5076H28.5517C28.4615 41.5076 28.4164 41.4625 28.4164 41.3724V23.6571V23.7923C28.6869 24.198 28.9574 24.4685 29.3631 24.8742C29.6335 25.2799 29.904 25.5503 30.3097 25.956C30.7154 26.3617 30.9858 26.7674 31.3915 27.1731C31.662 27.4436 31.9325 27.8493 32.2029 28.1197C32.4734 28.5254 32.8791 28.9311 33.1495 29.3368C33.42 29.7425 33.6905 30.013 34.0962 30.4187C34.3666 30.6891 34.6371 31.0948 34.9075 31.3653C35.3132 31.771 35.5837 32.1767 35.9894 32.5824C36.2598 32.8528 36.5303 33.2585 36.8008 33.529C37.0712 33.9347 37.4769 34.3404 37.7474 34.7461C38.0179 35.1518 38.2883 35.4222 38.694 35.8279C38.9645 36.0984 39.2349 36.5041 39.5054 36.7745L39.7759 37.045C39.7759 37.045 39.9111 37.1802 39.9111 37.045L40.3168 36.6393L40.7225 36.2336C40.9929 35.9632 41.2634 35.5574 41.5339 35.287C41.8043 35.0165 41.9396 34.7461 42.21 34.6108C42.6157 34.2051 42.8862 33.7994 43.2919 33.3938C43.5623 33.1233 43.6976 32.8528 43.968 32.5824C44.2385 32.1767 44.6442 31.9062 44.9147 31.5005C45.1851 31.2301 45.4556 30.9596 45.5908 30.6891C45.8613 30.2834 46.267 29.8777 46.5374 29.6073C46.8079 29.3368 47.0784 29.0664 47.2136 28.7959C47.484 28.3902 47.8897 27.9845 48.1602 27.714C48.4307 27.4436 48.5659 27.1731 48.8364 26.9026C49.1068 26.497 49.5125 26.0913 49.783 25.8208C50.0534 25.5503 50.1887 25.2799 50.4591 25.0094C50.4591 24.198 50.7296 23.9276 51.0001 23.6571Z" fill="url(#paint3_linear_1_1717)"/>
<path d="M28.2811 41.6429H13V23.6571C13.1352 23.7923 13.2705 23.9276 13.2705 24.0628C13.4057 24.3333 13.6762 24.6037 13.8114 24.739C14.0819 25.1447 14.3523 25.4151 14.758 25.8208C15.1637 26.2265 15.4342 26.6322 15.8399 27.0379C16.1103 27.3083 16.2456 27.5788 16.516 27.8493C16.7865 28.255 17.1922 28.5254 17.4626 28.9311C17.7331 29.3368 18.1388 29.6073 18.4093 30.013C18.6797 30.4187 19.0854 30.6891 19.3559 31.0948C19.6263 31.5005 20.032 31.771 20.3025 32.1767C20.573 32.5824 20.9787 32.8528 21.2491 33.2585C21.5196 33.6642 21.9253 33.9347 22.1957 34.3404C22.4662 34.7461 22.8719 35.0165 23.1423 35.4222C23.4128 35.8279 23.8185 36.0984 24.089 36.5041C24.3594 36.9098 24.7651 37.1802 25.0356 37.5859C25.3061 37.9916 25.7117 38.2621 25.9822 38.6678C26.2527 39.0735 26.6584 39.3439 26.9288 39.7496C27.1993 40.1553 27.605 40.4258 27.8754 40.8315C27.7402 40.8315 28.0107 41.2372 28.2811 41.6429C28.2811 41.5527 28.2811 41.5527 28.2811 41.6429Z" fill="url(#paint4_linear_1_1717)"/>
<defs>
<linearGradient id="paint0_linear_1_1717" x1="32" y1="0" x2="32" y2="63.9872" gradientUnits="userSpaceOnUse">
<stop stop-color="#12211B"/>
<stop offset="1" stop-color="#132028"/>
</linearGradient>
<linearGradient id="paint1_linear_1_1717" x1="32" y1="4.98718" x2="32" y2="58.9872" gradientUnits="userSpaceOnUse">
<stop stop-color="#29ABE2"/>
<stop offset="1" stop-color="#22B573"/>
</linearGradient>
<linearGradient id="paint2_linear_1_1717" x1="32.0012" y1="4.98718" x2="32.0012" y2="59.1663" gradientUnits="userSpaceOnUse">
<stop stop-color="white" stop-opacity="0.2"/>
<stop offset="0.99" stop-opacity="0.2"/>
</linearGradient>
<linearGradient id="paint3_linear_1_1717" x1="39.7083" y1="23.6571" x2="39.7083" y2="41.5752" gradientUnits="userSpaceOnUse">
<stop stop-color="white"/>
<stop offset="1" stop-color="white" stop-opacity="0.3"/>
</linearGradient>
<linearGradient id="paint4_linear_1_1717" x1="20.6406" y1="23.6842" x2="20.6406" y2="41.5753" gradientUnits="userSpaceOnUse">
<stop stop-color="white"/>
<stop offset="1" stop-color="white" stop-opacity="0.3"/>
</linearGradient>
</defs>
</svg>
