<svg width="256" height="256" viewBox="0 0 64 64" fill="none" xmlns="http://www.w3.org/2000/svg">
<path d="M13.184 0H50.688C58.112 0 64 5.88682 64 13.1814V50.6779C64 58.1004 58.112 63.9872 50.816 63.9872H13.184C5.888 63.9872 0 58.1004 0 50.8058V13.1814C0 5.88682 5.888 0 13.184 0Z" fill="#161616"/>
<path d="M16.1346 4.98718H47.8678C54.0097 4.98718 59 9.97771 59 16.1199V47.8545C59 53.9967 54.0097 58.9872 47.8678 58.9872H16.1346C9.99271 58.9872 5.00241 53.9967 5.00241 47.8545V16.2478C4.87445 9.9777 9.86475 4.98718 16.1346 4.98718Z" fill="#DCE0E6"/>
<path d="M16.1346 4.98718H47.8678C54.0097 4.98718 59 9.97771 59 16.1199V47.8545C59 53.9967 54.0097 58.9872 47.8678 58.9872H16.1346C9.99271 58.9872 5.00241 53.9967 5.00241 47.8545V16.2478C4.87445 9.9777 9.86475 4.98718 16.1346 4.98718Z" fill="url(#paint0_linear_1_1882)"/>
<path d="M22.1327 22.1852C23.031 22.9566 23.4159 22.8281 25.2124 22.6995L41.7655 21.7995C42.1504 21.7995 41.7655 21.4138 41.7655 21.4138L38.9425 19.3566C38.4292 18.9709 37.7876 18.4566 36.3761 18.5851L20.3363 19.7423C19.823 19.7423 19.6947 20.128 19.823 20.2566L22.1327 22.1852ZM23.2876 26.0424V43.5285C23.2876 44.4285 23.8009 44.8142 24.6991 44.6856L42.9203 43.6571C43.9469 43.6571 44.0752 43.0142 44.0752 42.2427V24.8852C44.0752 24.1138 43.8186 23.7281 43.177 23.8567L24.1858 24.8852C23.5443 25.0138 23.2876 25.271 23.2876 26.0424ZM41.1239 27.071C41.2522 27.5853 41.1239 28.0996 40.6106 28.0996L39.7124 28.2282V41.0856C38.9425 41.4713 38.3009 41.7285 37.6593 41.7285C36.7611 41.7285 36.5044 41.4713 35.8628 40.5713L30.0885 31.5711V40.3141L31.885 40.6999C31.885 40.6999 31.885 41.7285 30.4734 41.7285L26.4956 41.9856C26.3672 41.7285 26.4956 41.2142 26.8805 41.0856L27.9071 40.8284V29.2568L26.4956 29.1282C26.3672 28.6139 26.6239 27.8425 27.3938 27.8425L31.7566 27.5853L37.7876 36.7141V28.6139L36.3761 28.4853C36.2478 27.8425 36.7611 27.4567 37.2743 27.3281L41.1239 27.071ZM19.0531 18.1994L35.7345 17.0422C37.7876 16.9137 38.3009 17.0422 39.5841 17.9423L44.8451 21.6709C45.7434 22.3138 46 22.4424 46 23.0852V43.6571C46 44.9428 45.4867 45.7143 43.8186 45.8428L24.4425 47C23.2876 47 22.646 46.8714 21.8761 46.1L17.8982 41.0856C17.2566 40.1856 17 39.5427 17 38.6427V20.2566C17.2566 19.3566 17.7699 18.328 19.0531 18.1994Z" fill="url(#paint1_linear_1_1882)"/>
<defs>
<linearGradient id="paint0_linear_1_1882" x1="32.0012" y1="4.98718" x2="32.0012" y2="59.1663" gradientUnits="userSpaceOnUse">
<stop stop-color="white" stop-opacity="0.2"/>
<stop offset="0.99" stop-opacity="0.2"/>
</linearGradient>
<linearGradient id="paint1_linear_1_1882" x1="31.5" y1="16.9651" x2="31.5" y2="47.09" gradientUnits="userSpaceOnUse">
<stop stop-color="#111111"/>
<stop offset="1" stop-color="#111111" stop-opacity="0.72"/>
</linearGradient>
</defs>
</svg>
