<svg width="256" height="256" viewBox="0 0 64 64" fill="none" xmlns="http://www.w3.org/2000/svg">
<path d="M13.184 0H50.688C58.112 0 64 5.88682 64 13.1814V50.6779C64 58.1004 58.112 63.9872 50.816 63.9872H13.184C5.888 63.9872 0 58.1004 0 50.8058V13.1814C0 5.88682 5.888 0 13.184 0Z" fill="#13202C"/>
<path d="M16.1346 4.9872H47.8678C54.0097 4.9872 59 9.97772 59 16.1199V47.8545C59 53.9967 54.0097 58.9872 47.8678 58.9872H16.1346C9.99271 58.9872 5.00241 53.9967 5.00241 47.8545V16.2479C4.87445 9.97772 9.86475 4.9872 16.1346 4.9872Z" fill="#31A8FF"/>
<path d="M16.1346 4.9872H47.8678C54.0097 4.9872 59 9.97772 59 16.1199V47.8545C59 53.9967 54.0097 58.9872 47.8678 58.9872H16.1346C9.99271 58.9872 5.00241 53.9967 5.00241 47.8545V16.2479C4.87445 9.97772 9.86475 4.9872 16.1346 4.9872Z" fill="url(#paint0_linear_1_1651)"/>
<path d="M31.5122 24.6316C31.1463 23.731 30.7805 22.9591 30.0488 22.3158C29.3171 21.5439 28.3415 21.0292 27.3659 20.6433C26.2683 20.1287 24.9268 20 23.3415 20H17.2439C17.122 20 17 20.1287 17 20.2573V41.7427C17 42 17.122 42 17.2439 42H21.0244C21.1463 42 21.2683 41.8713 21.2683 41.7427V35.0526H23.0976C24.6829 35.0526 26.2683 34.7953 27.6098 34.2807C28.8293 33.7661 29.9268 32.8655 30.7805 31.8363C31.5122 30.6784 32 29.2632 32 27.462C32 26.4328 31.878 25.5322 31.5122 24.6316ZM27.122 29.6491C26.6341 30.1637 26.1463 30.5497 25.5366 30.6784C24.8049 30.9357 24.0732 31.0643 23.3415 31.0643H21.6341V24.117H23.7073C24.439 24.117 25.2927 24.2456 26.0244 24.6316C26.6341 24.8889 27 25.2749 27.3659 25.7895C27.7317 26.4327 27.8537 26.9474 27.8537 27.7193C27.7317 28.4912 27.4878 29.1345 27.122 29.6491Z" fill="url(#paint1_linear_1_1651)"/>
<path d="M47 37.4C47 38.3334 46.7447 39.5333 46.234 40.2C45.5957 41 44.8298 41.6667 43.9362 42.2C42.9149 42.7333 41.6383 43 40.234 43C39.3404 43 38.3191 42.8667 37.4255 42.7334C36.6596 42.6 36.0213 42.3333 35.2553 41.9333C35.1277 41.8 35 41.6667 35 41.5333V37.6667C35 37.5778 35.0426 37.4889 35.1277 37.4H35.383C36.1489 37.9334 37.0426 38.2 37.9362 38.4667C38.7021 38.7333 39.5957 38.8667 40.3617 38.8667C41.1277 38.8667 41.6383 38.7333 42.1489 38.6C42.5319 38.4667 42.7872 38.0667 42.7872 37.8C42.7872 37.5333 42.6596 37.1333 42.2766 37C41.8936 36.8667 41.2553 36.3334 40.234 36.0667C39.2128 35.6667 38.1915 35.2667 37.2979 34.4667C36.6596 33.9333 36.1489 33.4 35.766 32.6C35.383 31.8 35.2553 31.1333 35.2553 30.3333C35.2553 29.4 35.5106 28.4667 36.0213 27.8C36.5319 27 37.2979 26.2 38.1915 25.8C39.0851 25.2667 40.4894 25 41.8936 25C42.6596 25 43.6809 25.1333 44.4468 25.2667C45.0851 25.4 45.5957 25.5333 46.234 25.8C46.3617 25.8 46.3617 25.9334 46.4894 26.0667V29.9333C46.4894 30.0222 46.4468 30.1111 46.3617 30.2H45.9787C45.3404 29.8 44.7021 29.5334 43.9362 29.4C43.1702 29.2667 42.4043 29.1333 41.6383 29.1333C41.1277 29.1333 40.8723 29.1333 40.3617 29.2667C40.1064 29.4 39.8511 29.5333 39.7234 29.8C39.5957 29.9333 39.5957 30.2 39.5957 30.4667C39.5957 30.7333 39.7234 30.8667 39.8511 31.1333C40.1064 31.4 40.3617 31.6667 40.617 31.8C41.1277 32.0667 41.5106 32.3333 42.0213 32.6C43.0426 33 44.3192 33.5333 45.2128 34.2C45.9787 34.7333 46.4894 35.2667 46.8723 36.0667C46.8723 35.9334 47 36.6 47 37.4Z" fill="url(#paint2_linear_1_1651)"/>
<defs>
<linearGradient id="paint0_linear_1_1651" x1="32.0012" y1="4.9872" x2="32.0012" y2="59.1663" gradientUnits="userSpaceOnUse">
<stop stop-color="white" stop-opacity="0.2"/>
<stop offset="0.99" stop-opacity="0.2"/>
</linearGradient>
<linearGradient id="paint1_linear_1_1651" x1="24.5" y1="19.9099" x2="24.5" y2="41.9871" gradientUnits="userSpaceOnUse">
<stop stop-color="white"/>
<stop offset="1" stop-color="white" stop-opacity="0.3"/>
</linearGradient>
<linearGradient id="paint2_linear_1_1651" x1="41" y1="24.9333" x2="41" y2="42.9333" gradientUnits="userSpaceOnUse">
<stop stop-color="white"/>
<stop offset="1" stop-color="white" stop-opacity="0.3"/>
</linearGradient>
</defs>
</svg>
