<svg width="256" height="256" viewBox="0 0 64 64" fill="none" xmlns="http://www.w3.org/2000/svg">
<path d="M13.184 0H50.688C58.112 0 64 5.88682 64 13.1814V50.6779C64 58.1004 58.112 63.9872 50.816 63.9872H13.184C5.888 63.9872 0 58.1004 0 50.8058V13.1814C0 5.88682 5.888 0 13.184 0Z" fill="#1A1A21"/>
<path d="M16.1346 5H47.8678C54.0097 5 59 9.99052 59 16.1327V47.8673C59 54.0095 54.0097 59 47.8678 59H16.1346C9.99271 59 5.00241 54.0095 5.00241 47.8673V16.2607C4.87445 9.99052 9.86475 5 16.1346 5Z" fill="#5B54F2"/>
<path d="M16.1346 5H47.8678C54.0097 5 59 9.99052 59 16.1327V47.8673C59 54.0095 54.0097 59 47.8678 59H16.1346C9.99271 59 5.00241 54.0095 5.00241 47.8673V16.2607C4.87445 9.99052 9.86475 5 16.1346 5Z" fill="url(#paint0_linear_1_1673)"/>
<path d="M50.9888 31.005C50.8541 29.3885 50.0458 28.3108 48.564 27.772C47.8904 27.5025 47.2169 27.3678 46.5433 27.3678H41.0201C40.3465 27.3678 40.4813 27.3678 40.3465 27.9067C39.9424 29.6579 39.673 31.4092 39.2688 33.1604C38.8647 35.0464 38.5953 36.9323 38.1911 38.8183C38.0564 39.3572 37.9217 39.896 37.9217 40.4349C37.9217 40.7043 37.9217 40.839 38.1911 40.839H40.8854C41.0201 40.839 41.1548 40.7043 41.1548 40.5696C41.2895 39.6266 41.5589 38.5489 41.6937 37.6059C41.6937 37.4712 41.8284 37.3365 41.9631 37.4712H45.1962C46.1392 37.4712 46.9474 37.2018 47.7557 36.7976C50.0458 35.5852 51.1235 33.2951 50.9888 31.005ZM46.9474 33.834C46.5433 34.5076 45.8697 34.777 45.0615 34.9117C44.2532 34.9117 43.4449 34.9117 42.6366 35.0464H42.5019C42.6366 34.6423 42.6366 34.2381 42.7714 33.834C43.0408 32.6216 43.3102 31.5439 43.4449 30.3315C43.4449 30.1968 43.5796 30.1968 43.7143 30.1968H46.1392C46.4086 30.1968 46.678 30.3315 46.9474 30.3315C47.4863 30.4662 47.621 31.005 47.621 31.4092C47.4863 32.2174 47.3516 33.0257 46.9474 33.834Z" fill="url(#paint1_linear_1_1673)"/>
<path d="M23.5075 27.9067C22.834 27.6373 22.1604 27.5025 21.3521 27.5025H15.829C15.5595 27.5025 15.5595 27.6373 15.4248 27.772C15.1554 29.2538 14.886 30.7356 14.6165 32.0827C14.0777 34.9117 13.5388 37.7407 13 40.5696C13 40.839 13 40.9737 13.2694 40.9737H15.6942C15.9637 40.9737 16.0984 40.839 16.0984 40.5696C16.2331 39.6266 16.5025 38.6836 16.6372 37.6059C16.6372 37.4712 16.7719 37.3365 16.9066 37.3365H19.062C19.6009 37.3365 20.005 37.3365 20.5439 37.2018C22.2951 36.9324 23.5075 36.1241 24.4505 34.6423C25.1241 33.5646 25.3935 32.4869 25.5282 31.2745C25.6629 29.7927 24.9894 28.5803 23.5075 27.9067ZM21.6216 33.6993C21.2174 34.3729 20.5439 34.777 19.7356 34.777C18.9273 34.777 18.1191 34.777 17.3108 34.9117C17.4455 34.5076 17.4455 34.1034 17.5802 33.6993C17.8496 32.4869 17.9843 31.4092 18.2538 30.1968C18.2538 30.0621 18.3885 29.9274 18.5232 29.9274H20.8133C21.0827 29.9274 21.3521 30.0621 21.4869 30.0621C21.891 30.1968 22.1604 30.6009 22.1604 31.0051C22.2951 32.0827 22.1604 33.0257 21.6216 33.6993Z" fill="url(#paint2_linear_1_1673)"/>
<path d="M37.787 30.3315C37.6523 31.6786 37.3829 32.891 37.1134 34.2381C36.9787 35.1811 36.7093 36.2588 36.5746 37.2018C36.5746 37.4712 36.4399 37.4712 36.3052 37.4712H33.6109C33.3415 37.4712 33.3415 37.3365 33.3415 37.0671C33.6109 35.72 33.8804 34.3728 34.1498 32.891C34.2845 32.3521 34.4192 31.6786 34.5539 31.1398V30.4662C34.5539 30.3315 34.4192 30.1968 34.2845 30.1968C34.0151 30.062 33.8804 30.062 33.6109 30.062H31.5903C31.4555 30.062 31.3208 30.0621 31.3208 30.3315C30.9167 32.6216 30.5126 34.9117 30.1084 37.2018C30.1084 37.4712 29.9737 37.4712 29.7043 37.4712H27.2795C27.01 37.4712 26.8753 37.3365 26.8753 37.0671C27.01 36.2588 27.1448 35.3158 27.4142 34.5076C27.8183 32.4869 28.2225 30.4662 28.6266 28.4455C28.896 27.0984 29.1654 25.6166 29.4349 24.2694C29.4349 24 29.5696 24 29.839 24H32.2638C32.5332 24 32.6679 24.1347 32.5332 24.4042C32.3985 25.3471 32.1291 26.4248 31.9944 27.3678V27.5025H35.0928C35.901 27.5025 36.5746 27.6372 37.2482 28.1761C37.6523 28.7149 37.9217 29.3885 37.787 30.3315Z" fill="url(#paint3_linear_1_1673)"/>
<defs>
<linearGradient id="paint0_linear_1_1673" x1="32.0012" y1="5" x2="32.0012" y2="59.1791" gradientUnits="userSpaceOnUse">
<stop stop-color="white" stop-opacity="0.2"/>
<stop offset="0.99" stop-opacity="0.2"/>
</linearGradient>
<linearGradient id="paint1_linear_1_1673" x1="44.4553" y1="27.4352" x2="44.4553" y2="40.9198" gradientUnits="userSpaceOnUse">
<stop stop-color="white"/>
<stop offset="1" stop-color="white" stop-opacity="0.3"/>
</linearGradient>
<linearGradient id="paint2_linear_1_1673" x1="19.2776" y1="27.4352" x2="19.2776" y2="40.9198" gradientUnits="userSpaceOnUse">
<stop stop-color="white"/>
<stop offset="1" stop-color="white" stop-opacity="0.3"/>
</linearGradient>
<linearGradient id="paint3_linear_1_1673" x1="32.3446" y1="23.9057" x2="32.3446" y2="37.4847" gradientUnits="userSpaceOnUse">
<stop stop-color="white"/>
<stop offset="1" stop-color="white" stop-opacity="0.3"/>
</linearGradient>
</defs>
</svg>
