<svg width="256" height="256" viewBox="0 0 256 256" fill="none" xmlns="http://www.w3.org/2000/svg">
<path d="M52.736 0H202.752C232.448 0 256 23.552 256 52.736V202.752C256 232.448 232.448 256 203.264 256H52.736C23.552 256 0 232.448 0 203.264V52.736C0 23.552 23.552 0 52.736 0Z" fill="#2C1914"/>
<path d="M64.5385 20H191.471C216.039 20 236 39.9621 236 64.5308V191.469C236 216.038 216.039 236 191.471 236H64.5385C39.9708 236 20.0096 216.038 20.0096 191.469V65.0427C19.4978 39.9621 39.459 20 64.5385 20Z" fill="#FF6C37"/>
<path d="M64.5385 20H191.471C216.039 20 236 39.9621 236 64.5308V191.469C236 216.038 216.039 236 191.471 236H64.5385C39.9708 236 20.0096 216.038 20.0096 191.469V65.0427C19.4978 39.9621 39.459 20 64.5385 20Z" fill="url(#paint0_linear_54_618)"/>
<path d="M135.637 68.4941C102.776 64.279 72.7094 87.4994 68.4942 120.365C64.279 153.225 87.4951 183.286 120.362 187.506C153.228 191.721 183.3 168.501 187.505 135.635C191.725 102.775 168.509 72.7141 135.637 68.4941ZM147.993 105.92C146.879 105.934 145.816 106.383 145.028 107.17L122.762 129.435L121.227 127.9L118.011 124.685C139.958 102.805 143.913 102.595 147.993 105.92ZM123.677 130.225L145.878 108.025C146.169 107.72 146.519 107.477 146.907 107.312C147.295 107.147 147.712 107.062 148.134 107.064C148.556 107.066 148.973 107.153 149.359 107.322C149.746 107.49 150.094 107.736 150.383 108.043C150.671 108.351 150.894 108.714 151.037 109.11C151.18 109.507 151.241 109.929 151.216 110.349C151.191 110.77 151.08 111.182 150.89 111.558C150.701 111.935 150.436 112.269 150.113 112.54L126.617 133.165L123.677 130.225ZM125.327 133.695L119.827 134.885C119.761 134.9 119.692 134.892 119.631 134.863C119.571 134.834 119.521 134.786 119.492 134.725C119.458 134.667 119.445 134.6 119.454 134.534C119.463 134.468 119.494 134.407 119.542 134.36L122.767 131.135L125.327 133.695ZM111.311 131.4L117.171 125.54L121.567 129.93L111.671 132.06C111.589 132.081 111.501 132.074 111.424 132.038C111.347 132.003 111.284 131.942 111.246 131.865C111.2 131.793 111.181 131.706 111.192 131.62C111.204 131.535 111.246 131.457 111.311 131.4ZM93.0803 161.691C93.0303 161.686 92.9817 161.672 92.9373 161.649C92.8928 161.625 92.8534 161.593 92.8213 161.555C92.7893 161.516 92.7652 161.472 92.7504 161.424C92.7356 161.376 92.7305 161.325 92.7353 161.276C92.7448 161.189 92.7836 161.107 92.8453 161.046H92.8553L97.5855 156.315L103.696 162.426L93.0803 161.691ZM105.206 155.41C104.979 155.528 104.798 155.717 104.692 155.949C104.586 156.181 104.561 156.442 104.621 156.69L105.636 161.016C105.669 161.149 105.657 161.289 105.602 161.415C105.547 161.541 105.452 161.645 105.332 161.711C105.212 161.778 105.073 161.803 104.938 161.783C104.802 161.763 104.677 161.699 104.581 161.601H104.566L99.8956 156.93L98.4256 155.455L117.236 136.665L126.337 134.7L130.707 139.07C124.432 144.58 115.851 150.075 105.206 155.41ZM131.602 138.27H131.592L127.397 134.075L150.893 113.45C151.11 113.257 151.31 113.044 151.488 112.815C150.748 119.54 141.343 129.04 131.602 138.27ZM149.888 105.97L149.873 105.96C148.22 104.299 147.27 102.064 147.222 99.7215C147.173 97.3785 148.03 95.1069 149.613 93.379C151.196 91.6511 153.384 90.5997 155.722 90.4433C158.061 90.287 160.369 91.0377 162.169 92.5394L154.118 100.605C154.062 100.66 154.018 100.726 153.988 100.798C153.958 100.871 153.942 100.949 153.942 101.027C153.942 101.106 153.958 101.183 153.988 101.256C154.018 101.328 154.062 101.394 154.118 101.45L160.353 107.685C158.649 108.531 156.722 108.82 154.845 108.513C152.967 108.205 151.233 107.315 149.888 105.97ZM162.779 105.97C162.365 106.378 161.911 106.743 161.424 107.06L155.383 101.025L163.049 93.3595C166.354 96.9595 166.234 102.52 162.779 105.97ZM162.279 98.2495C162.158 98.3367 162.068 98.4591 162.021 98.5997C161.973 98.7404 161.971 98.8924 162.014 99.0345C162.192 99.3951 162.261 99.7995 162.214 100.199C162.167 100.598 162.005 100.975 161.749 101.285C161.691 101.357 161.649 101.44 161.624 101.528C161.598 101.617 161.591 101.709 161.602 101.801C161.612 101.892 161.641 101.981 161.686 102.061C161.731 102.142 161.791 102.213 161.864 102.27C161.984 102.364 162.131 102.416 162.284 102.42C162.385 102.419 162.484 102.396 162.576 102.353C162.667 102.31 162.749 102.247 162.814 102.17C163.243 101.654 163.513 101.024 163.59 100.357C163.667 99.69 163.549 99.015 163.249 98.4145C163.196 98.3394 163.129 98.2754 163.052 98.2264C162.975 98.1773 162.888 98.1441 162.798 98.1288C162.708 98.1134 162.615 98.1162 162.526 98.1369C162.437 98.1576 162.353 98.1959 162.279 98.2495Z" fill="url(#paint1_linear_54_618)"/>
<defs>
<linearGradient id="paint0_linear_54_618" x1="128.005" y1="20" x2="128.005" y2="236.717" gradientUnits="userSpaceOnUse">
<stop stop-color="white" stop-opacity="0.2"/>
<stop offset="0.99" stop-opacity="0.2"/>
</linearGradient>
<linearGradient id="paint1_linear_54_618" x1="128" y1="68" x2="128" y2="188" gradientUnits="userSpaceOnUse">
<stop stop-color="white"/>
<stop offset="1" stop-color="white" stop-opacity="0.3"/>
</linearGradient>
</defs>
</svg>
