<svg width="256" height="256" viewBox="0 0 256 256" fill="none" xmlns="http://www.w3.org/2000/svg">
<path d="M52.736 0H202.752C232.448 0 256 23.552 256 52.736V202.752C256 232.448 232.448 256 203.264 256H52.736C23.552 256 0 232.448 0 203.264V52.736C0 23.552 23.552 0 52.736 0Z" fill="#11161D"/>
<path d="M64.5385 20H191.471C216.039 20 236 39.9621 236 64.5308V191.469C236 216.038 216.039 236 191.471 236H64.5385C39.9708 236 20.0096 216.038 20.0096 191.469V65.0427C19.4978 39.9621 39.459 20 64.5385 20Z" fill="#2D3748"/>
<path d="M64.5385 20H191.471C216.039 20 236 39.9621 236 64.5308V191.469C236 216.038 216.039 236 191.471 236H64.5385C39.9708 236 20.0096 216.038 20.0096 191.469V65.0427C19.4978 39.9621 39.459 20 64.5385 20Z" fill="url(#paint0_linear_54_651)"/>
<path d="M177.338 159.424L135.393 71.7824C134.341 69.5914 132.146 68.1459 129.658 68.0119C127.106 67.8654 124.819 69.0769 123.528 71.1384L78.0367 143.635C76.6276 145.894 76.6555 148.681 78.117 150.913L100.354 184.806C101.68 186.829 103.976 188 106.362 188C107.039 188 107.719 187.906 108.388 187.712L172.936 168.927C174.913 168.352 176.53 166.975 177.376 165.151C178.222 163.326 178.206 161.237 177.338 159.424ZM167.946 163.183L113.179 179.121C111.506 179.608 109.902 178.184 110.254 176.524L129.819 84.3309C130.185 82.6069 132.607 82.3329 133.371 83.9294L169.598 159.619C170.281 161.047 169.501 162.731 167.946 163.183Z" fill="url(#paint1_linear_54_651)"/>
<defs>
<linearGradient id="paint0_linear_54_651" x1="128.005" y1="20" x2="128.005" y2="236.717" gradientUnits="userSpaceOnUse">
<stop stop-color="white" stop-opacity="0.1"/>
<stop offset="0.99" stop-opacity="0.2"/>
</linearGradient>
<linearGradient id="paint1_linear_54_651" x1="127.5" y1="68" x2="127.5" y2="188" gradientUnits="userSpaceOnUse">
<stop stop-color="white"/>
<stop offset="1" stop-color="white" stop-opacity="0.3"/>
</linearGradient>
</defs>
</svg>
