<svg width="256" height="256" viewBox="0 0 64 64" fill="none" xmlns="http://www.w3.org/2000/svg">
<path d="M13.184 0H50.688C58.112 0 64 5.88682 64 13.1814V50.6779C64 58.1004 58.112 63.9872 50.816 63.9872H13.184C5.888 63.9872 0 58.1004 0 50.8058V13.1814C0 5.88682 5.888 0 13.184 0Z" fill="#19262B"/>
<path d="M16.1346 4.9872H47.8678C54.0097 4.9872 59 9.97772 59 16.1199V47.8545C59 53.9967 54.0097 58.9872 47.8678 58.9872H16.1346C9.99271 58.9872 5.00241 53.9967 5.00241 47.8545V16.2479C4.87445 9.97772 9.86475 4.9872 16.1346 4.9872Z" fill="#61DAFB"/>
<path d="M16.1346 4.9872H47.8678C54.0097 4.9872 59 9.97772 59 16.1199V47.8545C59 53.9967 54.0097 58.9872 47.8678 58.9872H16.1346C9.99271 58.9872 5.00241 53.9967 5.00241 47.8545V16.2479C4.87445 9.97772 9.86475 4.9872 16.1346 4.9872Z" fill="url(#paint0_linear_1_1541)"/>
<path d="M35.1385 32C35.1385 33.6667 33.7 35.2051 31.8692 35.2051C30.0385 35.2051 28.6 33.7949 28.6 32C28.6 30.3333 30.0385 28.7949 31.8692 28.7949C33.8308 28.9231 35.1385 30.3333 35.1385 32ZM38.9308 17C37.1 17 34.4846 18.2821 32 20.718C29.3846 18.4103 26.9 17 25.0692 17C24.5461 17 24.0231 17.1282 23.5 17.3846C21.5385 18.4103 21.1462 22 22.1923 26.359C17.8769 27.641 15 29.8205 15 32C15 34.1795 17.8769 36.359 22.1923 37.641C21.1462 42 21.6692 45.5897 23.6308 46.6154C24.0231 46.8718 24.5461 47 25.2 47C27.0308 47 29.6462 45.7179 32.1308 43.282C34.7462 45.5897 37.2308 47 39.0615 47C39.5846 47 40.1077 46.8718 40.6308 46.6154C42.5923 45.5897 42.9846 42 41.9385 37.641C46.2538 36.359 49 34.1795 49 32C49 29.8205 46.1231 27.641 41.8077 26.359C42.8538 22 42.3308 18.4103 40.3692 17.3846C40.1077 17.1282 39.5846 17 38.9308 17ZM38.9308 18.4103C39.1923 18.4103 39.4538 18.5385 39.7154 18.5385C40.6308 19.0513 41.0231 21.2308 40.7615 23.7949C40.6308 24.4359 40.5 25.0769 40.3692 25.7179C39.0615 25.3333 37.4923 25.2051 35.9231 24.9487C35.0077 23.6667 34.0923 22.641 32.9154 21.4872C35.4 19.6923 37.6231 18.4103 38.9308 18.4103ZM24.9385 18.6667C26.3769 18.6667 28.6 19.8205 30.8231 21.8718C29.9077 22.8974 28.8615 23.9231 27.8154 25.3333C26.2461 25.4615 24.6769 25.7179 23.3692 26.1026C23.2385 25.4615 23.1077 24.8205 22.9769 24.1795C22.7154 21.4872 23.1077 19.5641 24.0231 18.9231C24.4154 18.6667 24.6769 18.6667 24.9385 18.6667ZM32 22.7692C32.6538 23.4102 33.3077 24.1795 33.9615 24.9487H30.1692C30.6923 24.3077 31.2154 23.5385 32 22.7692ZM32 26.4872C33.0462 26.4872 34.0923 26.4872 35.1385 26.6154C35.6615 27.3846 36.3154 28.282 36.8385 29.3077C37.3615 30.3333 37.8846 31.1026 38.2769 32.1282C37.8846 33.0256 37.3615 33.9231 36.8385 34.9487C36.3154 35.9743 35.7923 36.7436 35.1385 37.641C34.0923 37.7692 33.0462 37.7692 31.8692 37.7692C30.8231 37.7692 29.7769 37.7692 28.7308 37.641C28.2077 36.8718 27.5538 35.9743 27.0308 34.9487C26.5077 33.9231 25.9846 33.1538 25.5923 32.1282C25.9846 31.2308 26.5077 30.3333 27.0308 29.3077C27.5538 28.4103 28.0769 27.5128 28.7308 26.6154C29.9077 26.4872 30.8231 26.4872 32 26.4872ZM26.7692 26.8718C26.3769 27.3846 26.1154 27.8974 25.7231 28.4103C25.4615 28.9231 25.0692 29.4359 24.8077 30.0769C24.4154 29.1795 24.1538 28.282 23.8923 27.2564C24.8077 27.1282 25.7231 27 26.7692 26.8718ZM37.2308 26.8718C38.1462 27 39.1923 27.1282 40.1077 27.3846C39.8462 28.282 39.5846 29.1795 39.1923 30.2051C38.9308 29.6923 38.6692 29.1795 38.2769 28.5385C37.8846 27.8974 37.6231 27.3846 37.2308 26.8718ZM41.6769 27.7692C42.3308 28.0256 42.9846 28.1538 43.6385 28.4103C45.9923 29.4359 47.6923 30.7179 47.6923 31.8718C47.6923 32.8974 46.1231 34.4359 43.6385 35.3333C43.1154 35.5897 42.4615 35.8461 41.8077 35.9744C41.4154 34.6923 40.8923 33.1538 40.2385 31.7436C40.6308 30.5897 41.1538 29.1795 41.6769 27.7692ZM22.4538 27.7692C22.8461 29.0513 23.3692 30.5897 24.0231 32C23.3692 33.4103 22.8461 34.8205 22.4538 36.2308C21.8 35.9743 21.1462 35.8461 20.4923 35.5897C18.1385 34.5641 16.4385 33.282 16.4385 32.1282C16.4385 30.9744 18.0077 29.5641 20.4923 28.6667C21.0154 28.282 21.6692 28.1538 22.4538 27.7692ZM39.0615 33.9231C39.4538 34.8205 39.7154 35.718 39.9769 36.7436C39.0615 37 38.1461 37.1282 36.9692 37.2564C37.3615 36.7436 37.6231 36.2308 38.0154 35.7179C38.5385 34.9487 38.8 34.4359 39.0615 33.9231ZM24.8077 33.9231C25.0692 34.4359 25.3308 34.9487 25.7231 35.5897C25.9846 36.1026 26.3769 36.6154 26.7692 37.1282C25.8538 37 24.8077 36.8718 23.8923 36.6154C24.1538 35.7179 24.5462 34.8205 24.8077 33.9231ZM40.5 38.1538C40.6308 38.7949 40.7615 39.4359 40.8923 40.0769C41.1538 42.7692 40.7615 44.6923 39.8462 45.3333C39.5846 45.4615 39.3231 45.4615 39.0615 45.4615C37.6231 45.4615 35.4 44.3077 33.1769 42.2564C34.0923 41.2308 35.1385 40.2051 36.1846 38.7949C37.6231 38.6667 39.0615 38.4102 40.5 38.1538ZM23.5 38.1538C24.8077 38.4102 26.3769 38.6667 27.9462 38.9231C28.8615 40.2051 29.7769 41.2308 30.9538 42.3846C28.7308 44.4359 26.5077 45.5897 25.0692 45.5897C24.8077 45.5897 24.5462 45.4615 24.2846 45.4615C23.3692 44.9487 22.9769 42.7692 23.2385 40.3333C23.2385 39.4359 23.3692 38.7949 23.5 38.1538ZM30.0385 39.0513H33.8308C33.1769 39.8205 32.5231 40.5897 32 41.2308C31.3462 40.4615 30.6923 39.8205 30.0385 39.0513Z" fill="url(#paint1_linear_1_1541)"/>
<defs>
<linearGradient id="paint0_linear_1_1541" x1="32.0012" y1="4.9872" x2="32.0012" y2="59.1663" gradientUnits="userSpaceOnUse">
<stop stop-color="white" stop-opacity="0.2"/>
<stop offset="0.99" stop-opacity="0.2"/>
</linearGradient>
<linearGradient id="paint1_linear_1_1541" x1="31" y1="17" x2="31" y2="47.0385" gradientUnits="userSpaceOnUse">
<stop stop-color="white"/>
<stop offset="1" stop-color="white" stop-opacity="0.3"/>
</linearGradient>
</defs>
</svg>
