<svg width="256" height="256" viewBox="0 0 256 256" fill="none" xmlns="http://www.w3.org/2000/svg">
<path d="M52.736 0H202.752C232.448 0 256 23.552 256 52.736V202.752C256 232.448 232.448 256 203.264 256H52.736C23.552 256 0 232.448 0 203.264V52.736C0 23.552 23.552 0 52.736 0Z" fill="#1A1622"/>
<path d="M64.5385 20H191.471C216.039 20 236 39.9621 236 64.5308V191.469C236 216.038 216.039 236 191.471 236H64.5385C39.9708 236 20.0096 216.038 20.0096 191.469V65.0427C19.4978 39.9621 39.459 20 64.5385 20Z" fill="#764ABC"/>
<path d="M64.5385 20H191.471C216.039 20 236 39.9621 236 64.5308V191.469C236 216.038 216.039 236 191.471 236H64.5385C39.9708 236 20.0096 216.038 20.0096 191.469V65.0427C19.4978 39.9621 39.459 20 64.5385 20Z" fill="url(#paint0_linear_61_146)"/>
<path d="M152.327 151.747C156.894 151.351 160.428 147.318 160.202 142.499C159.955 137.68 156.023 133.81 151.23 133.81H150.91C148.531 133.895 146.283 134.926 144.661 136.675C143.038 138.424 142.174 140.748 142.258 143.137C142.415 145.663 143.444 147.719 144.851 149.216C139.349 159.961 131.091 167.859 118.575 174.497C110.16 178.916 101.272 180.582 92.6197 179.401C85.3853 178.373 79.7259 175.13 76.261 169.916C71.0741 162.012 70.6016 153.487 74.9223 144.956C78.0722 138.787 82.7919 134.29 85.9418 132.076C84.9909 129.428 84.2536 126.707 83.7369 123.94C60.443 140.696 62.816 163.599 69.8928 174.424C75.1638 182.322 85.9418 187.373 97.7384 187.373C100.888 187.373 104.196 187.141 107.414 186.35C127.873 182.401 143.365 170.079 152.254 151.91L152.327 151.747ZM180.404 131.996C168.224 117.613 150.28 109.715 129.826 109.715H127.148C125.82 106.794 122.754 104.975 119.284 104.975H119.048C114.097 104.975 110.238 109.246 110.401 114.218C110.559 118.953 114.57 122.907 119.368 122.907H119.757C121.459 122.841 123.106 122.284 124.501 121.303C125.897 120.323 126.981 118.959 127.626 117.376H130.54C142.662 117.376 154.138 120.93 164.601 127.879C172.618 133.178 178.367 140.127 181.595 148.425C184.42 155.216 184.268 161.854 181.359 167.39C176.87 176.074 169.316 180.661 159.33 180.661C153.036 180.661 146.904 178.684 143.754 177.265C141.864 178.837 138.714 181.446 136.436 183.028C143.355 186.181 150.358 188 157.12 188C172.46 188 183.863 179.316 188.194 170.938C192.909 161.459 192.52 145.504 180.477 131.838L180.404 131.996ZM99.0719 154.583C99.2294 159.323 103.235 163.272 108.039 163.272H108.354C109.536 163.246 110.701 162.981 111.78 162.496C112.859 162.01 113.83 161.312 114.636 160.443C115.442 159.574 116.067 158.553 116.474 157.438C116.881 156.323 117.062 155.137 117.006 153.951C117.006 149.206 112.916 145.267 108.117 145.267H107.802C107.487 145.267 107.015 145.267 106.616 145.42C100.09 134.359 97.3342 122.501 98.3631 109.715C98.9931 100.077 102.143 91.6995 107.797 84.7504C112.522 78.8243 121.41 75.8928 127.469 75.7452C144.457 75.4236 151.54 96.6819 152.086 105.134L159.95 107.506C158.139 81.587 142.1 68 126.76 68C112.354 68 99.0719 78.5079 93.717 93.9139C86.4038 114.45 91.2023 134.206 100.174 150.007C99.3869 151.035 98.9144 152.849 99.0719 154.583Z" fill="url(#paint1_linear_61_146)"/>
<defs>
<linearGradient id="paint0_linear_61_146" x1="128.005" y1="20" x2="128.005" y2="236.717" gradientUnits="userSpaceOnUse">
<stop stop-color="white" stop-opacity="0.2"/>
<stop offset="0.99" stop-opacity="0.2"/>
</linearGradient>
<linearGradient id="paint1_linear_61_146" x1="128" y1="68" x2="128" y2="188" gradientUnits="userSpaceOnUse">
<stop stop-color="white"/>
<stop offset="1" stop-color="white" stop-opacity="0.3"/>
</linearGradient>
</defs>
</svg>
