<svg width="256" height="256" viewBox="0 0 64 64" fill="none" xmlns="http://www.w3.org/2000/svg">
<path d="M13.184 0H50.688C58.112 0 64 5.88682 64 13.1814V50.6779C64 58.1004 58.112 63.9872 50.816 63.9872H13.184C5.888 63.9872 0 58.1004 0 50.8058V13.1814C0 5.88682 5.888 0 13.184 0Z" fill="#241314"/>
<path d="M16.1346 4.9872H47.8678C54.0097 4.9872 59 9.97772 59 16.1199V47.8545C59 53.9967 54.0097 58.9872 47.8678 58.9872H16.1346C9.99271 58.9872 5.00241 53.9967 5.00241 47.8545V16.2479C4.87445 9.97772 9.86475 4.9872 16.1346 4.9872Z" fill="#CC342D"/>
<path d="M16.1346 4.9872H47.8678C54.0097 4.9872 59 9.97772 59 16.1199V47.8545C59 53.9967 54.0097 58.9872 47.8678 58.9872H16.1346C9.99271 58.9872 5.00241 53.9967 5.00241 47.8545V16.2479C4.87445 9.97772 9.86475 4.9872 16.1346 4.9872Z" fill="url(#paint0_linear_1_908)"/>
<path d="M42.0892 17C46.0622 17.6438 47.1217 20.3476 46.9892 22.9227L45.2676 45.3262L22.3568 46.8712C20.5027 46.7425 16.2649 46.6137 16 40.9485L18.1189 37.2146L21.827 45.5837L22.4892 47L26.1973 35.5408L38.1163 39.2747L36.3946 32.4506L35.2027 27.5579L46.5919 26.9142L45.7974 26.2704L37.5865 19.8326L42.0892 17ZM22.7541 23.309C27.3892 18.8026 33.2162 16.3562 35.4676 18.5451C37.719 20.7339 35.3352 26.1416 30.7 30.6481C26.0649 35.1545 20.2378 37.7296 17.9865 35.6695C15.8676 33.2232 18.1189 27.6867 22.7541 23.309Z" fill="url(#paint1_linear_1_908)"/>
<defs>
<linearGradient id="paint0_linear_1_908" x1="32.0012" y1="4.9872" x2="32.0012" y2="59.1663" gradientUnits="userSpaceOnUse">
<stop stop-color="white" stop-opacity="0.2"/>
<stop offset="0.99" stop-opacity="0.2"/>
</linearGradient>
<linearGradient id="paint1_linear_1_908" x1="31.4946" y1="17" x2="31.4946" y2="46.897" gradientUnits="userSpaceOnUse">
<stop stop-color="white"/>
<stop offset="1" stop-color="white" stop-opacity="0.3"/>
</linearGradient>
</defs>
</svg>
