<svg width="256" height="256" viewBox="0 0 256 256" fill="none" xmlns="http://www.w3.org/2000/svg">
<path d="M52.736 0H202.752C232.448 0 256 23.552 256 52.736V202.752C256 232.448 232.448 256 203.264 256H52.736C23.552 256 0 232.448 0 203.264V52.736C0 23.552 23.552 0 52.736 0Z" fill="#24191F"/>
<path d="M64.5385 20H191.471C216.039 20 236 39.9621 236 64.5308V191.469C236 216.038 216.039 236 191.471 236H64.5385C39.9708 236 20.0096 216.038 20.0096 191.469V65.0427C19.4978 39.9621 39.459 20 64.5385 20Z" fill="#CC6699"/>
<path d="M64.5385 20H191.471C216.039 20 236 39.9621 236 64.5308V191.469C236 216.038 216.039 236 191.471 236H64.5385C39.9708 236 20.0096 216.038 20.0096 191.469V65.0427C19.4978 39.9621 39.459 20 64.5385 20Z" fill="url(#paint0_linear_54_715)"/>
<path d="M128 68C161.135 68 188 94.865 188 128C188 161.135 161.135 188 128 188C94.865 188 68 161.135 68 128C68 94.865 94.865 68 128 68ZM116.075 147.99C116.95 151.215 116.855 154.23 115.955 156.95L115.63 157.85C115.51 158.155 115.37 158.45 115.24 158.73C114.54 160.18 113.61 161.53 112.465 162.78C108.975 166.575 104.105 168.015 102.015 166.805C99.765 165.495 100.885 160.13 104.935 155.855C109.29 151.265 115.535 148.31 115.535 148.31V148.295L116.075 147.99ZM165.63 93.685C162.92 83.02 145.245 79.515 128.52 85.46C118.575 88.995 107.8 94.55 100.055 101.795C90.84 110.4 89.375 117.9 89.98 121.035C92.115 132.09 107.265 139.32 113.495 144.685V144.715C111.66 145.615 98.215 152.36 95.065 159.34C91.69 166.69 95.59 171.945 98.14 172.615C106.015 174.795 114.115 170.815 118.465 164.37C122.665 158.065 122.295 149.965 120.485 145.99C122.965 145.315 125.885 145.015 129.635 145.47C140.14 146.67 142.24 153.27 141.785 155.97C141.335 158.665 139.17 160.24 138.415 160.69C137.665 161.145 137.44 161.29 137.51 161.595C137.585 162.045 137.965 162.045 138.56 161.97C139.385 161.82 144.04 159.72 144.265 154.615C144.49 148.165 138.335 140.97 127.39 141.115C122.89 141.195 120.035 141.57 118.015 142.395C117.865 142.17 117.71 142.02 117.49 141.87C110.74 134.595 98.215 129.495 98.74 119.82C98.89 116.295 100.165 107 122.74 95.75C141.265 86.52 156.045 89.075 158.595 94.7C162.26 102.72 150.715 117.65 131.44 119.82C124.09 120.645 120.265 117.8 119.285 116.745C118.24 115.62 118.09 115.545 117.715 115.775C117.115 116.075 117.49 117.05 117.715 117.65C118.315 119.15 120.64 121.775 124.695 123.125C128.215 124.25 136.845 124.92 147.195 120.875C158.815 116.38 167.89 103.85 165.265 93.35L165.63 93.685Z" fill="url(#paint1_linear_54_715)"/>
<defs>
<linearGradient id="paint0_linear_54_715" x1="128.005" y1="20" x2="128.005" y2="236.717" gradientUnits="userSpaceOnUse">
<stop stop-color="white" stop-opacity="0.2"/>
<stop offset="0.99" stop-opacity="0.2"/>
</linearGradient>
<linearGradient id="paint1_linear_54_715" x1="128" y1="68" x2="128" y2="188" gradientUnits="userSpaceOnUse">
<stop stop-color="white"/>
<stop offset="1" stop-color="white" stop-opacity="0.3"/>
</linearGradient>
</defs>
</svg>
