<svg width="256" height="256" viewBox="0 0 256 256" fill="none" xmlns="http://www.w3.org/2000/svg">
<path d="M52.736 0H202.752C232.448 0 256 23.552 256 52.736V202.752C256 232.448 232.448 256 203.264 256H52.736C23.552 256 0 232.448 0 203.264V52.736C0 23.552 23.552 0 52.736 0Z" fill="#1D1215"/>
<path d="M64.5385 20H191.471C216.039 20 236 39.9621 236 64.5308V191.469C236 216.038 216.039 236 191.471 236H64.5385C39.9708 236 20.0096 216.038 20.0096 191.469V65.0427C19.4978 39.9621 39.459 20 64.5385 20Z" fill="#981E32"/>
<path d="M64.5385 20H191.471C216.039 20 236 39.9621 236 64.5308V191.469C236 216.038 216.039 236 191.471 236H64.5385C39.9708 236 20.0096 216.038 20.0096 191.469V65.0427C19.4978 39.9621 39.459 20 64.5385 20Z" fill="url(#paint0_linear_100_1381)"/>
<path d="M120.305 64.533L116.679 64.6116L113.054 64.6906V66.6783V68.666L114.705 68.8079L116.357 68.9499L116.433 70.5862C116.497 71.9579 116.435 72.2486 116.052 72.3835C115.8 72.4719 115.027 72.8217 114.333 73.1608C113.64 73.5 112.429 74.4803 111.643 75.3393C110.612 76.4656 110.06 77.3625 109.661 78.556C109.357 79.4661 108.998 81.0637 108.863 82.1058C108.729 83.1478 108.616 87.5516 108.613 91.8918C108.609 99.1383 108.568 99.8715 108.115 100.864C107.843 101.459 107.321 102.165 106.955 102.434C106.588 102.702 105.663 103.068 104.9 103.247L103.512 103.573L103.583 106.707L103.654 109.841L104.683 109.994C105.249 110.079 106.094 110.398 106.562 110.704C107.029 111.01 107.653 111.621 107.947 112.062C108.457 112.827 108.488 113.293 108.639 122.427C108.763 129.917 108.882 132.275 109.188 133.302C109.404 134.023 109.81 135.109 110.092 135.716C110.373 136.322 110.926 137.204 111.321 137.676C111.715 138.147 112.438 138.865 112.927 139.271C113.416 139.676 114.334 140.223 114.967 140.486C115.599 140.749 116.685 141.074 117.38 141.207C118.074 141.34 118.986 141.429 119.405 141.405L120.167 141.361L120.242 139.311C120.312 137.371 120.285 137.254 119.733 137.127C119.413 137.053 118.699 136.91 118.147 136.81C117.594 136.71 116.737 136.395 116.241 136.109C115.746 135.823 114.976 135.163 114.53 134.642C114.085 134.121 113.575 133.311 113.397 132.842C113.166 132.234 113.034 129.186 112.937 122.194L112.8 112.397L112.119 110.772C111.744 109.879 110.925 108.606 110.298 107.944L109.159 106.741L110.49 105.309C111.36 104.374 111.985 103.386 112.295 102.458C112.711 101.208 112.785 99.8455 112.911 91.0761L113.054 81.1142L113.823 79.7249C114.274 78.9098 115.061 78.012 115.728 77.552C116.353 77.121 117.608 76.6008 118.516 76.3961L120.167 76.0238L120.236 70.2784L120.305 64.533Z" fill="url(#paint1_linear_100_1381)"/>
<path d="M134.266 64.5487V70.3336V76.1186L135.346 76.3094C135.94 76.4142 136.861 76.6449 137.394 76.8218C137.926 76.9986 138.856 77.6297 139.46 78.2244C140.065 78.8191 140.769 79.851 141.025 80.5173C141.439 81.5905 141.508 82.8634 141.627 91.6675C141.757 101.354 141.776 101.64 142.354 102.952C142.68 103.692 143.451 104.794 144.069 105.401C144.686 106.008 145.191 106.585 145.191 106.683C145.191 106.781 144.737 107.319 144.182 107.879C143.627 108.44 142.855 109.621 142.467 110.505L141.761 112.113L141.624 121.91C141.525 128.926 141.394 131.948 141.162 132.557C140.983 133.025 140.555 133.821 140.211 134.326C139.866 134.83 139.088 135.568 138.482 135.965C137.855 136.376 136.737 136.776 135.887 136.895L134.394 137.102L134.317 138.918C134.275 139.917 134.3 140.907 134.373 141.119C134.445 141.33 134.727 141.504 134.998 141.504C135.27 141.504 136.364 141.317 137.43 141.089C138.496 140.861 139.946 140.323 140.653 139.893C141.36 139.463 142.426 138.504 143.023 137.763C143.619 137.021 144.29 135.983 144.514 135.455C144.738 134.927 145.097 133.745 145.31 132.828C145.615 131.519 145.698 129.404 145.698 122.97C145.698 118.045 145.808 114.292 145.973 113.56C146.124 112.89 146.54 111.989 146.898 111.557C147.257 111.125 147.93 110.595 148.394 110.378C148.859 110.161 149.578 109.983 149.993 109.983H150.747L150.826 106.972C150.87 105.316 150.846 103.853 150.772 103.72C150.698 103.587 150.149 103.392 149.551 103.285C148.954 103.178 148.106 102.82 147.667 102.49C147.228 102.159 146.634 101.441 146.347 100.895C145.857 99.9619 145.817 99.324 145.689 90.2478C145.559 81.0956 145.523 80.5091 144.981 78.9868C144.667 78.1036 144.042 76.8623 143.593 76.2285C143.144 75.5948 142.288 74.6745 141.69 74.1834C141.092 73.6923 140.063 73.0619 139.404 72.7827L138.204 72.2751L138.129 70.5416L138.053 68.808H139.716H141.38V66.6784V64.5487H137.823H134.266Z" fill="url(#paint2_linear_100_1381)"/>
<path d="M132.35 83.3126C131.517 83.3057 130.997 83.4881 129.897 84.0702C129.865 84.0869 129.808 84.1462 129.775 84.1648C129.652 84.2333 129.501 84.3365 129.36 84.4257L129.443 84.3619C129.31 84.4455 129.169 84.5377 129.023 84.6377C128.749 84.8247 128.458 85.0369 128.166 85.2634C127.873 85.4899 127.579 85.7304 127.3 85.9732C127.227 86.0365 127.158 86.0999 127.088 86.1633L127.128 86.1327C126.915 86.3226 126.702 86.5135 126.518 86.6977C126.692 86.523 126.887 86.3433 127.088 86.1633L124.326 88.2743L120.956 89.6747C120.613 89.737 120.416 89.843 120.085 89.8834C118.181 90.1159 117.527 90.3097 117.182 90.7438C116.769 91.2648 116.738 92.5425 116.738 108.834C116.738 123.133 116.804 126.609 117.097 127.699C117.295 128.434 117.749 129.463 118.106 129.986C118.464 130.51 119.353 131.271 120.083 131.677C121.398 132.41 121.462 132.417 127.267 132.41C132.43 132.405 133.244 132.342 134.139 131.877C134.698 131.587 135.521 130.919 135.968 130.392C136.415 129.866 136.959 128.96 137.175 128.379C137.47 127.591 137.569 126.284 137.569 123.217C137.569 121.175 137.516 120.205 137.422 119.568C137.545 115.043 137.569 108.127 137.569 99.9482C137.569 87.9539 137.548 87.3969 137.052 86.2516C136.762 85.5815 136.084 84.7085 135.507 84.2617C134.889 83.7824 134.281 83.5687 133.502 83.4452C133.432 83.4342 133.373 83.4149 133.299 83.4057C133.186 83.3917 133.112 83.355 132.988 83.345C132.751 83.3258 132.542 83.3141 132.35 83.3126ZM129.443 84.3619C129.56 84.2891 129.671 84.2227 129.775 84.1648L129.673 84.1868L129.443 84.3619Z" fill="url(#paint3_linear_100_1381)"/>
<path d="M132.257 56C132.162 56 132.032 56.0074 131.969 56.0164C131.905 56.0254 131.794 56.0478 131.722 56.0663C131.65 56.0848 131.528 56.126 131.45 56.158C131.373 56.19 131.251 56.2511 131.18 56.2933C131.109 56.3355 130.985 56.4237 130.905 56.4897C130.825 56.5556 130.705 56.6754 130.639 56.7557C130.573 56.8361 130.484 56.96 130.442 57.0311C130.4 57.1022 130.339 57.2241 130.307 57.3016C130.275 57.3791 130.234 57.5013 130.215 57.5733C130.197 57.6453 130.174 57.7562 130.165 57.8196C130.156 57.883 130.149 58.0125 130.149 58.1077C130.149 58.2028 130.156 58.3327 130.165 58.3961C130.174 58.4596 130.197 58.5704 130.215 58.6424C130.234 58.7144 130.275 58.8366 130.307 58.9141C130.339 58.9916 130.4 59.1131 130.442 59.1842C130.484 59.2554 130.573 59.3796 130.639 59.46C130.705 59.5404 130.825 59.6598 130.905 59.7257C130.985 59.7916 131.109 59.8802 131.18 59.9225C131.251 59.9647 131.373 60.0252 131.45 60.057C131.527 60.0887 131.652 60.1308 131.728 60.1501C131.803 60.1695 131.907 60.1911 131.958 60.1986C132.009 60.2061 132.136 60.2133 132.24 60.2142C132.345 60.2154 132.482 60.2083 132.545 60.1993C132.609 60.1903 132.72 60.1679 132.792 60.1494C132.864 60.1309 132.986 60.0893 133.063 60.0574C133.141 60.0254 133.262 59.9647 133.333 59.9225C133.405 59.8802 133.529 59.7916 133.609 59.7257C133.69 59.6598 133.809 59.5404 133.875 59.46C133.941 59.3796 134.029 59.2554 134.072 59.1842C134.114 59.1131 134.175 58.9916 134.207 58.9141C134.239 58.8366 134.28 58.7144 134.299 58.6424C134.317 58.5704 134.339 58.4596 134.349 58.3961C134.358 58.3327 134.365 58.2028 134.365 58.1077C134.365 58.0125 134.358 57.883 134.349 57.8196C134.339 57.7562 134.317 57.6453 134.299 57.5733C134.28 57.5013 134.239 57.3791 134.207 57.3016C134.175 57.2241 134.114 57.1022 134.072 57.0311C134.029 56.96 133.941 56.8361 133.875 56.7557C133.809 56.6754 133.69 56.5556 133.609 56.4897C133.529 56.4237 133.402 56.3338 133.329 56.2899C133.255 56.246 133.132 56.1852 133.057 56.1546C132.981 56.1241 132.861 56.0842 132.79 56.066C132.719 56.0477 132.609 56.0254 132.545 56.0164C132.482 56.0074 132.352 56 132.257 56ZM132.265 56.6827C132.384 56.6827 132.425 56.6894 132.471 56.7162C132.503 56.7349 132.543 56.7783 132.561 56.815C132.592 56.8772 132.594 56.9166 132.594 57.6217C132.594 58.3269 132.592 58.3663 132.561 58.4285C132.543 58.4645 132.504 58.5085 132.473 58.5262C132.435 58.5482 132.378 58.5599 132.292 58.5638C132.211 58.5676 132.144 58.5614 132.103 58.5463C132.069 58.5334 132.027 58.51 132.009 58.4945C131.992 58.4789 131.969 58.4394 131.958 58.4065C131.943 58.3631 131.938 58.1459 131.938 57.6124C131.938 56.9059 131.939 56.8756 131.971 56.8135C131.99 56.7779 132.03 56.734 132.061 56.7159C132.106 56.6895 132.146 56.6827 132.265 56.6827ZM132.257 58.86C132.33 58.86 132.369 58.8701 132.428 58.9044C132.475 58.9324 132.52 58.9767 132.548 59.0244C132.582 59.084 132.591 59.1202 132.591 59.1965C132.59 59.2701 132.579 59.3109 132.546 59.3672C132.52 59.4118 132.475 59.4571 132.433 59.4812C132.395 59.5032 132.334 59.525 132.298 59.5297C132.262 59.5344 132.208 59.5325 132.179 59.5252C132.149 59.518 132.095 59.4927 132.059 59.4689C132.023 59.4452 131.978 59.3941 131.958 59.3557C131.933 59.3088 131.921 59.2554 131.92 59.1947C131.92 59.1245 131.93 59.0862 131.965 59.0262C131.994 58.9765 132.038 58.9328 132.087 58.9044C132.145 58.8701 132.184 58.86 132.257 58.86Z" fill="url(#paint4_linear_100_1381)"/>
<path d="M124.21 57.697C124.057 57.697 123.848 57.7089 123.746 57.7235C123.644 57.738 123.465 57.7742 123.349 57.804C123.233 57.8338 123.036 57.9003 122.912 57.9518C122.787 58.0034 122.591 58.1012 122.476 58.1692C122.362 58.2372 122.162 58.3798 122.033 58.486C121.904 58.5922 121.711 58.785 121.605 58.9144C121.499 59.0438 121.356 59.2435 121.288 59.358C121.22 59.4726 121.122 59.6686 121.071 59.7934C121.019 59.9182 120.953 60.1152 120.923 60.2311C120.893 60.3471 120.857 60.5257 120.842 60.6278C120.828 60.73 120.816 60.9387 120.816 61.092C120.816 61.2452 120.828 61.4542 120.842 61.5563C120.857 61.6585 120.893 61.8371 120.923 61.953C120.953 62.069 121.019 62.2659 121.071 62.3908C121.122 62.5156 121.22 62.7114 121.288 62.8259C121.356 62.9406 121.499 63.1403 121.605 63.2698C121.711 63.3992 121.904 63.592 122.033 63.6982C122.162 63.8044 122.362 63.947 122.476 64.015C122.591 64.083 122.786 64.1803 122.91 64.2315C123.034 64.2827 123.235 64.3501 123.357 64.3812C123.479 64.4124 123.647 64.4478 123.729 64.4599C123.811 64.4719 124.016 64.4829 124.183 64.4844C124.351 64.4861 124.572 64.4753 124.674 64.4607C124.776 64.4462 124.955 64.41 125.07 64.3802C125.186 64.3504 125.383 64.2837 125.508 64.2321C125.633 64.1806 125.828 64.083 125.943 64.015C126.058 63.947 126.257 63.8044 126.387 63.6982C126.516 63.592 126.709 63.3992 126.815 63.2698C126.921 63.1403 127.064 62.9406 127.132 62.8259C127.2 62.7114 127.297 62.5156 127.349 62.3908C127.4 62.2659 127.467 62.069 127.497 61.953C127.526 61.8371 127.563 61.6585 127.577 61.5563C127.592 61.4542 127.604 61.2452 127.604 61.092C127.604 60.9387 127.592 60.73 127.577 60.6278C127.563 60.5257 127.526 60.3471 127.497 60.2311C127.467 60.1152 127.4 59.9182 127.349 59.7934C127.297 59.6686 127.2 59.4726 127.132 59.358C127.064 59.2435 126.921 59.0438 126.815 58.9144C126.709 58.785 126.516 58.5922 126.387 58.486C126.257 58.3798 126.054 58.2349 125.935 58.1641C125.816 58.0933 125.619 57.9953 125.497 57.9461C125.375 57.8969 125.182 57.8326 125.067 57.8032C124.953 57.7738 124.776 57.738 124.674 57.7235C124.572 57.7089 124.363 57.697 124.21 57.697ZM125.76 59.5321C125.859 59.5403 125.945 59.5688 126.031 59.6219C126.122 59.6784 126.178 59.74 126.233 59.8454C126.297 59.9671 126.308 60.0152 126.299 60.1383C126.294 60.2193 126.266 60.3296 126.237 60.3836C126.209 60.4375 125.704 60.989 125.115 61.6088C124.349 62.4145 124.012 62.7509 123.933 62.7894C123.858 62.8255 123.77 62.8428 123.664 62.842C123.563 62.8411 123.474 62.8231 123.414 62.7913C123.363 62.764 123.105 62.5228 122.842 62.2552C122.578 61.9876 122.302 61.703 122.228 61.6227C122.155 61.5425 122.076 61.4406 122.054 61.3963C122.031 61.352 122.005 61.2725 121.995 61.2195C121.983 61.1582 121.993 61.0688 122.02 60.9738C122.05 60.8708 122.096 60.7924 122.168 60.7207C122.238 60.6498 122.318 60.6031 122.417 60.5743C122.511 60.5471 122.599 60.5384 122.663 60.5502C122.719 60.5603 122.806 60.5895 122.857 60.6151C122.908 60.6408 123.109 60.825 123.304 61.0243C123.498 61.2237 123.666 61.3831 123.677 61.3787C123.688 61.3743 124.074 60.9748 124.536 60.491C125.237 59.7563 125.395 59.6039 125.494 59.5657C125.576 59.5346 125.661 59.5238 125.76 59.5321Z" fill="url(#paint5_linear_100_1381)"/>
<path d="M128.488 65.3329C128.295 65.3329 128.032 65.3481 127.903 65.3664C127.775 65.3847 127.55 65.4302 127.404 65.4678C127.257 65.5054 127.009 65.5891 126.852 65.6541C126.695 65.719 126.448 65.8423 126.303 65.928C126.159 66.0136 125.907 66.1933 125.744 66.3271C125.581 66.461 125.338 66.7039 125.204 66.8671C125.07 67.0302 124.891 67.282 124.805 67.4264C124.719 67.5708 124.596 67.8172 124.531 67.9746C124.466 68.1319 124.382 68.3803 124.345 68.5265C124.307 68.6726 124.262 68.8974 124.243 69.0262C124.225 69.1548 124.21 69.4181 124.21 69.6112C124.21 69.8043 124.225 70.0676 124.243 70.1963C124.262 70.325 124.307 70.5499 124.345 70.696C124.382 70.8421 124.466 71.0902 124.531 71.2475C124.596 71.4048 124.719 71.652 124.805 71.7964C124.891 71.9408 125.07 72.1923 125.204 72.3554C125.338 72.5185 125.581 72.7615 125.744 72.8953C125.907 73.0292 126.159 73.2088 126.303 73.2944C126.448 73.3801 126.694 73.503 126.85 73.5676C127.006 73.6321 127.26 73.7169 127.414 73.7561C127.568 73.7953 127.778 73.8397 127.882 73.8549C127.986 73.8701 128.243 73.8844 128.455 73.8862C128.666 73.8881 128.945 73.8744 129.073 73.856C129.202 73.8378 129.427 73.7922 129.573 73.7547C129.719 73.7171 129.968 73.6333 130.125 73.5683C130.282 73.5034 130.529 73.3801 130.673 73.2944C130.818 73.2088 131.069 73.0292 131.232 72.8953C131.396 72.7615 131.639 72.5185 131.772 72.3554C131.906 72.1923 132.086 71.9408 132.172 71.7964C132.257 71.652 132.38 71.4048 132.445 71.2475C132.51 71.0902 132.594 70.8421 132.632 70.696C132.669 70.5499 132.715 70.325 132.733 70.1963C132.752 70.0676 132.767 69.8043 132.767 69.6112C132.767 69.4181 132.752 69.1548 132.733 69.0262C132.715 68.8974 132.669 68.6726 132.632 68.5265C132.594 68.3803 132.51 68.1319 132.445 67.9746C132.38 67.8172 132.257 67.5708 132.172 67.4264C132.086 67.282 131.906 67.0302 131.772 66.8671C131.639 66.7039 131.396 66.461 131.232 66.3271C131.069 66.1933 130.813 66.0108 130.663 65.9217C130.513 65.8325 130.265 65.709 130.111 65.647C129.957 65.585 129.714 65.504 129.57 65.467C129.426 65.4299 129.202 65.3847 129.073 65.3664C128.945 65.3481 128.681 65.3329 128.488 65.3329ZM129.832 67.7215C129.902 67.7086 130.006 67.7156 130.073 67.7379C130.138 67.7594 130.228 67.8204 130.273 67.874C130.318 67.9274 130.365 68.0169 130.377 68.0726C130.389 68.1282 130.389 68.2223 130.376 68.282C130.359 68.3638 130.204 68.5415 129.748 69.0008L129.143 69.6112L129.748 70.2212C130.204 70.6806 130.359 70.8583 130.376 70.9401C130.389 70.9999 130.389 71.0943 130.377 71.1499C130.365 71.2055 130.318 71.295 130.273 71.3485C130.228 71.4019 130.138 71.4631 130.073 71.4845C130.006 71.5066 129.902 71.5138 129.832 71.5009C129.729 71.4819 129.607 71.3775 129.098 70.8715L128.488 70.2648L127.894 70.8559C127.568 71.1809 127.259 71.4627 127.207 71.4819C127.155 71.5012 127.08 71.5159 127.04 71.5147V71.5151C127 71.5139 126.929 71.4976 126.883 71.4793C126.837 71.4609 126.767 71.4148 126.726 71.3765C126.685 71.338 126.634 71.2552 126.614 71.1924C126.593 71.1287 126.586 71.0232 126.599 70.9546C126.618 70.8519 126.722 70.7301 127.228 70.2213L127.834 69.6112L127.228 69.0008C126.722 68.492 126.618 68.3706 126.599 68.2679C126.586 68.198 126.593 68.0934 126.615 68.0264C126.636 67.9615 126.698 67.8713 126.751 67.8263C126.805 67.7812 126.894 67.7345 126.95 67.7223C127.005 67.7101 127.1 67.7104 127.159 67.7231C127.241 67.7404 127.419 67.896 127.878 68.3517L128.488 68.9569L129.099 68.3506C129.608 67.845 129.729 67.7406 129.832 67.7215Z" fill="url(#paint6_linear_100_1381)"/>
<path d="M174.275 133.13C174.692 133.13 175.866 134.948 176.883 137.171C177.901 139.393 179.089 143.143 179.526 145.502C180.157 148.919 180.085 150.595 179.173 153.733C178.463 156.175 177.084 158.586 175.545 160.075C174.18 161.396 171.366 163.245 169.291 164.185C166.195 165.586 163.964 165.927 156.843 166.087C151.295 166.212 146.398 165.885 143.265 165.182C140.569 164.577 137.938 163.919 137.418 163.719C136.897 163.519 136.472 163.013 136.472 162.592C136.472 162.171 138.165 160.968 140.235 159.919C143.819 158.103 144.258 158.052 149.435 158.855C152.425 159.319 156.928 159.468 159.441 159.186C161.953 158.905 165.428 158.049 167.162 157.285C169.087 156.437 170.777 155.004 171.5 153.604C172.152 152.344 172.687 150.111 172.687 148.643C172.687 147.174 172.015 144.207 171.195 142.05L169.706 138.127L171.611 135.629C172.659 134.255 173.858 133.13 174.275 133.13Z" fill="url(#paint7_linear_100_1381)"/>
<path d="M150.87 89.3706C150.889 93.1515 150.89 93.4187 150.909 97.2455L155.511 97.0716C158.722 96.9505 162.776 97.2357 164.519 97.7052C166.304 98.1859 168.826 99.6954 170.29 101.159C172.787 103.656 172.874 103.932 172.494 108.118C172.271 110.584 171.27 114.114 170.188 116.249C169.137 118.324 167.826 120.389 167.275 120.839C166.505 121.467 165.052 120.519 160.999 116.743C158.098 114.04 154.263 110.823 152.477 109.594L150.964 108.552C150.982 112.328 151.001 115.921 151.011 118.1C151.962 118.592 153.562 119.698 155.606 121.431C158.306 123.723 160.755 126.351 161.048 127.271C161.491 128.668 160.717 129.75 156.381 133.798C153.522 136.467 148.128 140.669 144.393 143.136C140.658 145.603 135.351 148.758 132.6 150.147L127.599 152.673L122.245 150.108C119.301 148.696 114.082 145.687 110.648 143.419C107.214 141.151 101.861 136.936 98.7516 134.054C93.1412 128.855 93.1051 128.799 94.2027 126.748C94.8111 125.611 97.3021 123.017 99.7375 120.982C101.371 119.617 102.153 119.274 103.093 118.739L103.327 108.956L101.199 110.553C98.8133 112.345 94.9818 115.592 92.6864 117.77C90.3789 119.958 88.1473 121.494 87.6938 121.205C87.2427 120.917 85.9409 118.835 84.8027 116.579C83.6088 114.212 82.5714 110.691 82.3506 108.256C82.0105 104.505 82.1885 103.774 83.9421 101.69C85.0274 100.4 87.2092 98.8261 88.7916 98.193C90.3741 97.5598 93.3462 96.9843 95.3963 96.9125C97.4463 96.8406 100.567 96.8107 102.331 96.8476L103.614 96.874L103.796 89.2496L97.81 89.5163C91.4107 89.8009 89.2263 90.2281 85.5409 91.9153C83.075 93.0443 80.4178 94.5462 79.6362 95.253C78.8546 95.9598 77.5151 97.8961 76.6596 99.5559C75.5745 101.661 75.1173 103.943 75.1462 107.101C75.1695 109.629 75.8667 113.544 76.7259 115.969C77.5718 118.356 79.7879 122.6 81.6521 125.4C83.5162 128.199 87.41 132.925 90.3035 135.902C93.197 138.879 98.2988 143.341 101.641 145.819C104.984 148.298 109.621 151.413 111.946 152.744C114.271 154.074 116.045 155.551 115.887 156.025C115.728 156.5 113.76 157.343 111.511 157.898C109.263 158.454 103.859 158.961 99.5017 159.027C92.5747 159.131 91.1269 158.924 87.9752 157.378C85.8773 156.349 83.9065 154.712 83.2598 153.461C82.6486 152.279 82.1487 150.111 82.1487 148.643C82.1487 147.174 82.8188 144.207 83.6385 142.05L85.1283 138.127L83.2229 135.629C82.1746 134.255 80.9755 133.13 80.5587 133.13C80.1419 133.13 78.9735 134.937 77.9622 137.146C76.9509 139.355 75.7862 142.945 75.3731 145.124C74.8645 147.806 74.8755 150.218 75.4085 152.596C75.8414 154.528 77.0483 157.226 78.0904 158.592C79.1325 159.959 80.8525 161.645 81.9129 162.34C82.9733 163.034 85.5821 164.205 87.71 164.941C90.387 165.866 93.9042 166.284 99.1245 166.298C104.054 166.31 108.787 165.809 112.777 164.852C116.137 164.047 121.06 162.643 123.717 161.733C126.375 160.822 131.605 158.552 135.339 156.688C139.074 154.825 144.846 151.506 148.165 149.315C151.485 147.123 156.327 143.481 158.926 141.222C161.525 138.963 165.402 135.115 167.542 132.67C169.682 130.226 172.609 126.39 174.045 124.147C175.481 121.904 177.338 118.169 178.174 115.848C179.043 113.432 179.703 109.692 179.714 107.101C179.727 103.975 179.25 101.639 178.175 99.5559C177.319 97.8961 175.988 95.9839 175.218 95.3061C174.447 94.6282 172.46 93.3968 170.8 92.5696C169.14 91.7425 165.982 90.6839 163.783 90.2178C161.584 89.7517 157.412 89.3705 154.511 89.3705L150.87 89.3706Z" fill="url(#paint8_linear_100_1381)"/>
<path d="M65.1295 176.98C65.0402 176.067 64.6572 175.358 63.9805 174.853C63.3038 174.348 62.3853 174.095 61.2252 174.095C60.4369 174.095 59.7713 174.208 59.2285 174.434C58.6856 174.653 58.2691 174.959 57.9791 175.351C57.6965 175.743 57.5552 176.188 57.5552 176.686C57.5403 177.1 57.6259 177.462 57.8118 177.771C58.0051 178.081 58.2691 178.348 58.6038 178.575C58.9384 178.793 59.3251 178.986 59.7639 179.152C60.2027 179.31 60.6712 179.446 61.1694 179.559L63.222 180.057C64.2185 180.283 65.1332 180.584 65.9661 180.962C66.799 181.339 67.5204 181.802 68.1302 182.353C68.74 182.903 69.2122 183.552 69.5469 184.299C69.8889 185.045 70.0637 185.901 70.0711 186.867C70.0637 188.284 69.7067 189.514 69.0003 190.554C68.3012 191.587 67.2898 192.391 65.9661 192.964C64.6498 193.529 63.0621 193.812 61.2029 193.812C59.3586 193.812 57.7523 193.526 56.3839 192.952C55.023 192.379 53.9596 191.531 53.1936 190.407C52.435 189.276 52.0372 187.877 52 186.21H56.674C56.726 186.987 56.9454 187.636 57.3321 188.156C57.7262 188.669 58.2505 189.057 58.905 189.321C59.5668 189.578 60.3142 189.706 61.1471 189.706C61.9652 189.706 62.6754 189.585 63.2777 189.344C63.8875 189.103 64.3598 188.767 64.6944 188.337C65.0291 187.907 65.1964 187.413 65.1964 186.855C65.1964 186.335 65.0439 185.897 64.739 185.543C64.4416 185.189 64.0028 184.887 63.4227 184.638C62.8501 184.389 62.1474 184.163 61.3144 183.959L58.8269 183.326C56.9008 182.851 55.38 182.108 54.2645 181.097C53.149 180.087 52.5949 178.725 52.6024 177.014C52.5949 175.611 52.9631 174.385 53.7067 173.337C54.4578 172.289 55.4878 171.471 56.7967 170.882C58.1055 170.294 59.5929 170 61.2587 170C62.9542 170 64.4341 170.294 65.6984 170.882C66.97 171.471 67.9591 172.289 68.6656 173.337C69.3721 174.385 69.7365 175.6 69.7588 176.98H65.1295Z" fill="url(#paint9_linear_100_1381)"/>
<path d="M84.2185 186.086V176.109H88.9705V193.484H84.4081V190.328H84.2297C83.843 191.346 83.1997 192.164 82.2998 192.783C81.4074 193.401 80.318 193.71 79.0314 193.71C77.8862 193.71 76.8785 193.446 76.0084 192.919C75.1383 192.391 74.4579 191.64 73.967 190.667C73.4837 189.695 73.2382 188.529 73.2308 187.172V176.109H77.9828V186.312C77.9903 187.338 78.2617 188.149 78.7972 188.744C79.3326 189.34 80.0502 189.638 80.9501 189.638C81.5227 189.638 82.0581 189.506 82.5564 189.242C83.0547 188.971 83.4562 188.571 83.7611 188.043C84.0735 187.515 84.2259 186.863 84.2185 186.086Z" fill="url(#paint10_linear_100_1381)"/>
<path d="M92.7716 200V176.109H97.4567V179.027H97.6687C97.8769 178.56 98.1781 178.084 98.5722 177.602C98.9738 177.112 99.4944 176.704 100.134 176.38C100.781 176.048 101.584 175.882 102.543 175.882C103.793 175.882 104.945 176.214 106.001 176.878C107.057 177.534 107.902 178.526 108.534 179.853C109.166 181.173 109.482 182.828 109.482 184.819C109.482 186.757 109.173 188.394 108.556 189.729C107.946 191.056 107.113 192.063 106.057 192.749C105.009 193.428 103.834 193.767 102.532 193.767C101.61 193.767 100.826 193.612 100.179 193.303C99.539 192.994 99.0147 192.606 98.6057 192.138C98.1967 191.663 97.8843 191.184 97.6687 190.701H97.5237V200H92.7716ZM97.4233 184.796C97.4233 185.83 97.5646 186.731 97.8472 187.5C98.1297 188.269 98.5388 188.869 99.0742 189.299C99.6096 189.721 100.26 189.932 101.026 189.932C101.8 189.932 102.454 189.717 102.99 189.287C103.525 188.85 103.93 188.247 104.206 187.477C104.488 186.701 104.629 185.807 104.629 184.796C104.629 183.793 104.492 182.911 104.217 182.149C103.942 181.388 103.536 180.792 103.001 180.362C102.465 179.932 101.807 179.717 101.026 179.717C100.253 179.717 99.5985 179.925 99.0631 180.339C98.535 180.754 98.1297 181.342 97.8472 182.104C97.5646 182.866 97.4233 183.763 97.4233 184.796Z" fill="url(#paint11_linear_100_1381)"/>
<path d="M120.458 193.824C118.696 193.824 117.179 193.462 115.907 192.738C114.643 192.006 113.669 190.973 112.985 189.638C112.3 188.296 111.958 186.708 111.958 184.876C111.958 183.088 112.3 181.52 112.985 180.17C113.669 178.82 114.632 177.768 115.874 177.014C117.123 176.259 118.588 175.882 120.269 175.882C121.399 175.882 122.451 176.067 123.426 176.437C124.407 176.799 125.262 177.345 125.991 178.077C126.728 178.808 127.3 179.729 127.709 180.837C128.118 181.938 128.323 183.228 128.323 184.706V186.029H113.855V183.043H123.85C123.85 182.349 123.701 181.735 123.403 181.199C123.106 180.664 122.693 180.245 122.165 179.943C121.645 179.634 121.038 179.48 120.347 179.48C119.625 179.48 118.986 179.649 118.428 179.989C117.878 180.321 117.447 180.769 117.134 181.335C116.822 181.893 116.662 182.515 116.655 183.201V186.041C116.655 186.9 116.811 187.643 117.123 188.269C117.443 188.895 117.893 189.378 118.473 189.717C119.053 190.057 119.741 190.226 120.536 190.226C121.064 190.226 121.548 190.151 121.987 190C122.425 189.849 122.801 189.623 123.113 189.321C123.426 189.02 123.664 188.65 123.827 188.213L128.222 188.507C127.999 189.578 127.542 190.513 126.85 191.312C126.166 192.104 125.281 192.722 124.195 193.167C123.117 193.605 121.871 193.824 120.458 193.824Z" fill="url(#paint12_linear_100_1381)"/>
<path d="M131.424 193.484V176.109H136.031V179.14H136.209C136.522 178.062 137.046 177.247 137.782 176.697C138.518 176.139 139.366 175.86 140.325 175.86C140.563 175.86 140.82 175.875 141.095 175.905C141.37 175.935 141.612 175.977 141.82 176.029V180.305C141.597 180.238 141.289 180.177 140.894 180.124C140.5 180.072 140.14 180.045 139.812 180.045C139.113 180.045 138.489 180.2 137.938 180.509C137.395 180.811 136.964 181.233 136.644 181.776C136.332 182.319 136.176 182.945 136.176 183.654V193.484H131.424Z" fill="url(#paint13_linear_100_1381)"/>
<path d="M154.25 176.109V179.729H143.931V176.109H154.25ZM146.274 171.946H151.026V188.145C151.026 188.59 151.093 188.937 151.227 189.186C151.361 189.427 151.547 189.597 151.785 189.695C152.03 189.793 152.312 189.842 152.632 189.842C152.855 189.842 153.078 189.823 153.302 189.785C153.525 189.74 153.696 189.706 153.815 189.683L154.562 193.269C154.324 193.345 153.989 193.431 153.558 193.529C153.127 193.635 152.603 193.699 151.985 193.722C150.84 193.767 149.836 193.612 148.973 193.258C148.118 192.903 147.453 192.353 146.977 191.606C146.501 190.86 146.266 189.917 146.274 188.778V171.946Z" fill="url(#paint14_linear_100_1381)"/>
<path d="M164.97 193.824C163.207 193.824 161.69 193.462 160.418 192.738C159.154 192.006 158.18 190.973 157.496 189.638C156.812 188.296 156.47 186.708 156.47 184.876C156.47 183.088 156.812 181.52 157.496 180.17C158.18 178.82 159.143 177.768 160.385 177.014C161.634 176.259 163.099 175.882 164.78 175.882C165.91 175.882 166.963 176.067 167.937 176.437C168.919 176.799 169.774 177.345 170.503 178.077C171.239 178.808 171.811 179.729 172.221 180.837C172.63 181.938 172.834 183.228 172.834 184.706V186.029H158.366V183.043H168.361C168.361 182.349 168.212 181.735 167.915 181.199C167.617 180.664 167.204 180.245 166.676 179.943C166.156 179.634 165.55 179.48 164.858 179.48C164.137 179.48 163.497 179.649 162.94 179.989C162.389 180.321 161.958 180.769 161.646 181.335C161.333 181.893 161.173 182.515 161.166 183.201V186.041C161.166 186.9 161.322 187.643 161.634 188.269C161.954 188.895 162.404 189.378 162.984 189.717C163.564 190.057 164.252 190.226 165.048 190.226C165.576 190.226 166.059 190.151 166.498 190C166.937 189.849 167.312 189.623 167.625 189.321C167.937 189.02 168.175 188.65 168.339 188.213L172.734 188.507C172.511 189.578 172.053 190.513 171.362 191.312C170.677 192.104 169.792 192.722 168.707 193.167C167.628 193.605 166.383 193.824 164.97 193.824Z" fill="url(#paint15_linear_100_1381)"/>
<path d="M190.191 181.063L185.841 181.335C185.766 180.958 185.607 180.618 185.361 180.317C185.116 180.008 184.792 179.762 184.391 179.581C183.996 179.393 183.524 179.299 182.974 179.299C182.238 179.299 181.617 179.457 181.111 179.774C180.605 180.083 180.353 180.498 180.353 181.018C180.353 181.433 180.516 181.784 180.843 182.07C181.171 182.357 181.732 182.587 182.528 182.76L185.629 183.394C187.295 183.741 188.537 184.299 189.355 185.068C190.173 185.837 190.582 186.848 190.582 188.1C190.582 189.238 190.251 190.238 189.589 191.097C188.934 191.957 188.035 192.628 186.889 193.111C185.752 193.586 184.439 193.824 182.952 193.824C180.683 193.824 178.876 193.345 177.53 192.387C176.192 191.422 175.407 190.109 175.177 188.45L179.851 188.201C179.992 188.903 180.334 189.438 180.877 189.808C181.42 190.17 182.115 190.351 182.963 190.351C183.796 190.351 184.465 190.189 184.971 189.864C185.484 189.532 185.744 189.106 185.752 188.586C185.744 188.149 185.562 187.79 185.205 187.511C184.848 187.225 184.298 187.006 183.554 186.855L180.587 186.256C178.914 185.916 177.668 185.328 176.85 184.491C176.039 183.654 175.634 182.587 175.634 181.29C175.634 180.173 175.931 179.212 176.526 178.405C177.129 177.598 177.973 176.976 179.059 176.538C180.152 176.101 181.431 175.882 182.896 175.882C185.06 175.882 186.763 176.346 188.005 177.274C189.254 178.201 189.983 179.465 190.191 181.063Z" fill="url(#paint16_linear_100_1381)"/>
<path d="M202.688 176.109V179.729H192.369V176.109H202.688ZM194.712 171.946H199.464V188.145C199.464 188.59 199.531 188.937 199.665 189.186C199.799 189.427 199.984 189.597 200.222 189.695C200.468 189.793 200.75 189.842 201.07 189.842C201.293 189.842 201.516 189.823 201.739 189.785C201.963 189.74 202.134 189.706 202.253 189.683L203 193.269C202.762 193.345 202.427 193.431 201.996 193.529C201.565 193.635 201.04 193.699 200.423 193.722C199.278 193.767 198.274 193.612 197.411 193.258C196.556 192.903 195.891 192.353 195.415 191.606C194.939 190.86 194.704 189.917 194.712 188.778V171.946Z" fill="url(#paint17_linear_100_1381)"/>
<g style="mix-blend-mode:plus-lighter">
<path opacity="0.1" d="M19.05 128.488V128.076H235.526V128.488H19.05Z" fill="black" stroke="white" stroke-width="0.1" stroke-miterlimit="10"/>
<path opacity="0.1" d="M19.5939 199.95V164.05H235.494V199.95H19.5939Z" fill="black" stroke="white" stroke-width="0.1" stroke-miterlimit="10"/>
<path opacity="0.1" d="M235.544 92H19.5439V56H235.544V92Z" fill="black" stroke="white" stroke-width="0.1" stroke-miterlimit="10"/>
<path opacity="0.1" d="M19.5939 200.462V200.05H236.07V200.462H19.5939Z" fill="black" stroke="white" stroke-width="0.1" stroke-miterlimit="10"/>
<path opacity="0.1" d="M127.594 236.483V20.05H128.006V236.483H127.594Z" fill="black" stroke="white" stroke-width="0.1" stroke-miterlimit="10"/>
<path opacity="0.1" d="M203.544 20H167.544V236H203.544V20Z" fill="black" stroke="white" stroke-width="0.1" stroke-miterlimit="10"/>
<path opacity="0.1" d="M51.5439 20H87.5439V236H51.5439V20Z" fill="black" stroke="white" stroke-width="0.1" stroke-miterlimit="10"/>
<path opacity="0.1" d="M127.544 220C178.354 220 219.544 178.81 219.544 128C219.544 77.1898 178.354 36 127.544 36C76.7338 36 35.5439 77.1898 35.5439 128C35.5439 178.81 76.7338 220 127.544 220Z" stroke="white" stroke-width="0.1" stroke-miterlimit="10"/>
<path opacity="0.1" d="M127.544 188C160.681 188 187.544 161.137 187.544 128C187.544 94.8629 160.681 68 127.544 68C94.4069 68 67.5439 94.8629 67.5439 128C67.5439 161.137 94.4069 188 127.544 188Z" stroke="white" stroke-width="0.1" stroke-miterlimit="10"/>
<path opacity="0.1" d="M127.544 184C158.472 184 183.544 158.928 183.544 128C183.544 97.0721 158.472 72 127.544 72C96.616 72 71.5439 97.0721 71.5439 128C71.5439 158.928 96.616 184 127.544 184Z" stroke="white" stroke-width="0.1" stroke-miterlimit="10"/>
<path opacity="0.1" d="M127.544 156C143.008 156 155.544 143.464 155.544 128C155.544 112.536 143.008 100 127.544 100C112.08 100 99.5439 112.536 99.5439 128C99.5439 143.464 112.08 156 127.544 156Z" stroke="white" stroke-width="0.1" stroke-miterlimit="10"/>
<path opacity="0.1" d="M127.544 148C138.59 148 147.544 139.046 147.544 128C147.544 116.954 138.59 108 127.544 108C116.498 108 107.544 116.954 107.544 128C107.544 139.046 116.498 148 127.544 148Z" stroke="white" stroke-width="0.1" stroke-miterlimit="10"/>
</g>
<defs>
<linearGradient id="paint0_linear_100_1381" x1="128.005" y1="20" x2="128.005" y2="236.717" gradientUnits="userSpaceOnUse">
<stop stop-color="white" stop-opacity="0.2"/>
<stop offset="0.99" stop-opacity="0.2"/>
</linearGradient>
<linearGradient id="paint1_linear_100_1381" x1="111.908" y1="48.5053" x2="111.908" y2="168.843" gradientUnits="userSpaceOnUse">
<stop offset="0.4" stop-color="white"/>
<stop offset="1" stop-color="white" stop-opacity="0.3"/>
</linearGradient>
<linearGradient id="paint2_linear_100_1381" x1="142.557" y1="49.4952" x2="142.557" y2="167.995" gradientUnits="userSpaceOnUse">
<stop offset="0.36" stop-color="white"/>
<stop offset="1" stop-color="white" stop-opacity="0"/>
<stop offset="1" stop-color="white" stop-opacity="0.3"/>
</linearGradient>
<linearGradient id="paint3_linear_100_1381" x1="127.153" y1="54.7273" x2="127.153" y2="167.146" gradientUnits="userSpaceOnUse">
<stop stop-color="white"/>
<stop offset="1" stop-color="white" stop-opacity="0.3"/>
</linearGradient>
<linearGradient id="paint4_linear_100_1381" x1="132.257" y1="56" x2="132.257" y2="173.792" gradientUnits="userSpaceOnUse">
<stop stop-color="white"/>
<stop offset="1" stop-color="white" stop-opacity="0.3"/>
</linearGradient>
<linearGradient id="paint5_linear_100_1381" x1="124.21" y1="47.7561" x2="124.21" y2="115.159" gradientUnits="userSpaceOnUse">
<stop stop-color="white"/>
<stop offset="1" stop-color="white" stop-opacity="0.3"/>
</linearGradient>
<linearGradient id="paint6_linear_100_1381" x1="128.488" y1="60.3037" x2="128.488" y2="179.086" gradientUnits="userSpaceOnUse">
<stop stop-color="white"/>
<stop offset="1" stop-color="white" stop-opacity="0.3"/>
</linearGradient>
<linearGradient id="paint7_linear_100_1381" x1="158.205" y1="58.9696" x2="158.205" y2="166.113" gradientUnits="userSpaceOnUse">
<stop stop-color="white"/>
<stop offset="1" stop-color="white" stop-opacity="0.3"/>
</linearGradient>
<linearGradient id="paint8_linear_100_1381" x1="127.357" y1="89.2496" x2="127.357" y2="166.298" gradientUnits="userSpaceOnUse">
<stop stop-color="white"/>
<stop offset="1" stop-color="white" stop-opacity="0.3"/>
</linearGradient>
<linearGradient id="paint9_linear_100_1381" x1="127.5" y1="170" x2="127.5" y2="200" gradientUnits="userSpaceOnUse">
<stop stop-color="white"/>
<stop offset="1" stop-color="white" stop-opacity="0.3"/>
</linearGradient>
<linearGradient id="paint10_linear_100_1381" x1="127.5" y1="170" x2="127.5" y2="200" gradientUnits="userSpaceOnUse">
<stop stop-color="white"/>
<stop offset="1" stop-color="white" stop-opacity="0.3"/>
</linearGradient>
<linearGradient id="paint11_linear_100_1381" x1="127.5" y1="170" x2="127.5" y2="200" gradientUnits="userSpaceOnUse">
<stop stop-color="white"/>
<stop offset="1" stop-color="white" stop-opacity="0.3"/>
</linearGradient>
<linearGradient id="paint12_linear_100_1381" x1="127.5" y1="170" x2="127.5" y2="200" gradientUnits="userSpaceOnUse">
<stop stop-color="white"/>
<stop offset="1" stop-color="white" stop-opacity="0.3"/>
</linearGradient>
<linearGradient id="paint13_linear_100_1381" x1="127.5" y1="170" x2="127.5" y2="200" gradientUnits="userSpaceOnUse">
<stop stop-color="white"/>
<stop offset="1" stop-color="white" stop-opacity="0.3"/>
</linearGradient>
<linearGradient id="paint14_linear_100_1381" x1="127.5" y1="170" x2="127.5" y2="200" gradientUnits="userSpaceOnUse">
<stop stop-color="white"/>
<stop offset="1" stop-color="white" stop-opacity="0.3"/>
</linearGradient>
<linearGradient id="paint15_linear_100_1381" x1="127.5" y1="170" x2="127.5" y2="200" gradientUnits="userSpaceOnUse">
<stop stop-color="white"/>
<stop offset="1" stop-color="white" stop-opacity="0.3"/>
</linearGradient>
<linearGradient id="paint16_linear_100_1381" x1="127.5" y1="170" x2="127.5" y2="200" gradientUnits="userSpaceOnUse">
<stop stop-color="white"/>
<stop offset="1" stop-color="white" stop-opacity="0.3"/>
</linearGradient>
<linearGradient id="paint17_linear_100_1381" x1="127.5" y1="170" x2="127.5" y2="200" gradientUnits="userSpaceOnUse">
<stop stop-color="white"/>
<stop offset="1" stop-color="white" stop-opacity="0.3"/>
</linearGradient>
</defs>
</svg>
