<svg width="256" height="256" viewBox="0 0 256 256" fill="none" xmlns="http://www.w3.org/2000/svg">
<path d="M52.736 0H202.752C232.448 0 256 23.552 256 52.736V202.752C256 232.448 232.448 256 203.264 256H52.736C23.552 256 0 232.448 0 203.264V52.736C0 23.552 23.552 0 52.736 0Z" fill="#85EA2D" fill-opacity="0.05"/>
<path d="M64.5385 20H191.471C216.039 20 236 39.9621 236 64.5308V191.469C236 216.038 216.039 236 191.471 236H64.5385C39.9708 236 20.0096 216.038 20.0096 191.469V65.0427C19.4978 39.9621 39.459 20 64.5385 20Z" fill="#85EA2D"/>
<path d="M64.5385 20H191.471C216.039 20 236 39.9621 236 64.5308V191.469C236 216.038 216.039 236 191.471 236H64.5385C39.9708 236 20.0096 216.038 20.0096 191.469V65.0427C19.4978 39.9621 39.459 20 64.5385 20Z" fill="url(#paint0_linear_210_260)"/>
<g clip-path="url(#clip0_210_260)">
<path d="M128 67C94.915 67 68 93.915 68 127C68 160.085 94.915 187 128 187C161.08 187 188 160.085 188 127C188 93.915 161.08 67 128 67ZM128 72.72C157.975 72.72 182.28 97.02 182.28 127C182.28 156.975 157.98 181.28 128 181.28C98.02 181.28 73.72 156.98 73.72 127C73.72 97.02 98.02 72.72 128 72.72ZM109.85 96.34C109.145 96.3261 108.44 96.3344 107.735 96.365C102.82 96.645 99.87 98.95 99.06 103.725C98.485 107.05 98.58 110.465 98.345 113.81C98.28 115.56 98.095 117.295 97.77 119C97.1 122.045 95.785 122.99 92.69 123.15C92.2803 123.201 91.8732 123.271 91.47 123.36V130.675C97.1 130.95 97.86 132.935 98.32 138.82C98.485 140.965 98.255 143.11 98.395 145.255C98.485 147.285 98.76 149.295 99.175 151.255C100.47 156.63 105.71 158.43 112.05 157.345V150.93C111.035 150.93 110.135 150.955 109.26 150.93C107.11 150.865 106.305 150.33 106.1 148.255C105.82 145.58 105.89 142.855 105.725 140.155C105.405 135.15 104.85 130.215 99.96 127.03C102.475 125.18 104.3 122.97 104.875 120.04C105.29 117.99 105.545 115.935 105.705 113.855C105.845 111.78 105.59 109.655 105.775 107.605C106.075 104.28 106.285 102.92 110.275 103.055C110.875 103.055 111.45 102.97 112.12 102.92V96.37C111.32 96.37 110.57 96.35 109.85 96.34ZM147.815 96.385C146.454 96.3544 145.092 96.4549 143.75 96.685V103.055C144.975 103.055 145.92 103.055 146.865 103.08C148.505 103.1 149.75 103.73 149.915 105.55C150.075 107.21 150.07 108.895 150.235 110.58C150.56 113.925 150.74 117.315 151.32 120.615C151.83 123.335 153.695 125.365 156.025 127.03C151.94 129.775 150.74 133.695 150.535 138.105C150.42 141.125 150.35 144.17 150.19 147.215C150.05 149.985 149.08 150.885 146.29 150.955C145.505 150.975 144.74 151.045 143.87 151.095V157.62C145.505 157.62 147.005 157.715 148.505 157.62C153.165 157.345 155.98 155.085 156.905 150.56C157.295 148.07 157.525 145.56 157.595 143.04C157.755 140.735 157.735 138.405 157.965 136.12C158.31 132.545 159.95 131.07 163.525 130.835C163.864 130.793 164.197 130.716 164.52 130.605V123.29C163.92 123.22 163.5 123.155 163.065 123.13C160.385 123.015 159.045 122.115 158.38 119.58C157.965 117.954 157.711 116.291 157.62 114.615C157.435 111.525 157.455 108.41 157.25 105.315C156.85 99.355 153.28 96.55 147.815 96.385ZM113.365 122.785C112.281 122.784 111.238 123.2 110.452 123.947C109.667 124.694 109.199 125.715 109.145 126.797C109.092 127.88 109.457 128.942 110.166 129.762C110.874 130.583 111.871 131.1 112.95 131.205H113.225C114.324 131.269 115.403 130.894 116.225 130.163C117.047 129.432 117.546 128.404 117.61 127.305V127.075C117.627 125.956 117.2 124.876 116.422 124.072C115.644 123.268 114.579 122.805 113.46 122.785H113.365ZM127.92 122.785C126.85 122.75 125.81 123.141 125.028 123.872C124.246 124.603 123.787 125.615 123.75 126.685C123.75 126.82 123.75 126.935 123.77 127.075C123.77 129.59 125.48 131.205 128.065 131.205C130.6 131.205 132.195 129.545 132.195 126.94C132.17 124.425 130.485 122.76 127.92 122.785ZM142.735 122.785C141.602 122.765 140.508 123.192 139.688 123.973C138.868 124.755 138.389 125.828 138.355 126.96C138.355 129.31 140.245 131.205 142.6 131.205H142.645C144.77 131.575 146.91 129.52 147.05 127.055C147.165 124.77 145.09 122.785 142.735 122.785Z" fill="url(#paint1_linear_210_260)"/>
</g>
<defs>
<linearGradient id="paint0_linear_210_260" x1="128.005" y1="20" x2="128.005" y2="236.717" gradientUnits="userSpaceOnUse">
<stop stop-color="white" stop-opacity="0.2"/>
<stop offset="0.99" stop-opacity="0.2"/>
</linearGradient>
<linearGradient id="paint1_linear_210_260" x1="128" y1="67.1538" x2="128" y2="187.256" gradientUnits="userSpaceOnUse">
<stop stop-color="white"/>
<stop offset="1" stop-color="white" stop-opacity="0.3"/>
</linearGradient>
<clipPath id="clip0_210_260">
<rect width="120" height="120" fill="white" transform="translate(68 67)"/>
</clipPath>
</defs>
</svg>
