<svg width="256" height="256" viewBox="0 0 256 256" fill="none" xmlns="http://www.w3.org/2000/svg">
<path d="M52.736 0H202.752C232.448 0 256 23.552 256 52.736V202.752C256 232.448 232.448 256 203.264 256H52.736C23.552 256 0 232.448 0 203.264V52.736C0 23.552 23.552 0 52.736 0Z" fill="#291614"/>
<path d="M64.5385 20H191.471C216.039 20 236 39.9621 236 64.5308V191.469C236 216.038 216.039 236 191.471 236H64.5385C39.9708 236 20.0096 216.038 20.0096 191.469V65.0427C19.4978 39.9621 39.459 20 64.5385 20Z" fill="#F05138"/>
<path d="M64.5385 20H191.471C216.039 20 236 39.9621 236 64.5308V191.469C236 216.038 216.039 236 191.471 236H64.5385C39.9708 236 20.0096 216.038 20.0096 191.469V65.0427C19.4978 39.9621 39.459 20 64.5385 20Z" fill="url(#paint0_linear_54_752)"/>
<path d="M105.54 68C104.105 68 102.675 68 101.24 68.01C100.035 68.02 98.825 68.025 97.62 68.06C96.96 68.075 96.305 68.105 95.645 68.135C93.6654 68.212 91.6929 68.4174 89.74 68.75C87.1372 69.2102 84.6145 70.0438 82.25 71.225C77.5034 73.6395 73.6438 77.4956 71.225 82.24C70 84.64 69.225 87.1 68.75 89.74C68.285 92.34 68.14 94.99 68.07 97.62C68.0376 98.8264 68.0176 100.033 68.01 101.24C68 102.675 68 104.105 68 105.54V150.46C68 151.895 68 153.335 68.01 154.77C68.02 155.97 68.035 157.175 68.07 158.38C68.14 161.01 68.285 163.665 68.75 166.26C69.225 168.9 70 171.36 71.225 173.76C73.641 178.506 77.5014 182.363 82.25 184.775C84.65 185.995 87.1 186.775 89.74 187.25C92.34 187.715 94.99 187.87 97.62 187.94C98.825 187.975 100.035 187.985 101.24 187.99C102.675 188 104.105 188 105.54 188H150.46C151.895 188 153.325 188 154.76 187.99C155.965 187.985 157.175 187.975 158.38 187.94C161.024 187.909 163.661 187.678 166.27 187.25C168.876 186.802 171.4 185.968 173.76 184.775C178.504 182.36 182.36 178.504 184.775 173.76C186 171.36 186.775 168.9 187.25 166.26C187.715 163.66 187.87 161.01 187.94 158.38C187.975 157.175 187.985 155.975 187.99 154.77C188 153.335 188 151.895 188 150.46V105.54C188 104.105 188 102.675 187.99 101.24C187.986 100.033 187.97 98.8265 187.94 97.62C187.908 94.9797 187.678 92.3456 187.25 89.74C186.802 87.1309 185.968 84.6031 184.775 82.24C182.359 77.497 178.503 73.6409 173.76 71.225C171.4 70.0323 168.876 69.1982 166.27 68.75C163.661 68.3215 161.024 68.0909 158.38 68.06C157.177 68.0309 155.973 68.0142 154.77 68.01C153.335 68 151.895 68 150.46 68H105.54ZM135.715 85.05C156.285 97.4 168.44 120.86 163.46 140.705C163.34 141.17 163.21 141.61 163.08 142.065L163.09 142.07C173.4 154.76 170.59 168.36 169.27 165.795C163.91 155.365 153.94 157.955 148.83 160.58C148.368 160.854 147.9 161.118 147.425 161.37L147.325 161.43L147.315 161.44C136.74 167.055 122.53 167.465 108.255 161.33C96.6317 156.293 86.802 147.861 80.055 137.14C83.3 139.54 86.805 141.65 90.54 143.4C105.635 150.47 120.795 149.955 131.525 143.39C116.255 131.65 103.505 116.35 93.73 103.955C91.8718 101.787 90.1914 99.4729 88.705 97.035C100.405 107.745 118.895 121.185 125.53 124.915C111.45 110.04 99.04 91.715 99.62 92.3C121.8 114.65 142.26 127.28 142.26 127.28C143.03 127.705 143.61 128.05 144.06 128.345C144.485 127.27 144.86 126.16 145.18 125.005C148.72 112.065 144.73 97.265 135.715 85.045V85.05Z" fill="url(#paint1_linear_54_752)"/>
<defs>
<linearGradient id="paint0_linear_54_752" x1="128.005" y1="20" x2="128.005" y2="236.717" gradientUnits="userSpaceOnUse">
<stop stop-color="white" stop-opacity="0.2"/>
<stop offset="0.99" stop-opacity="0.2"/>
</linearGradient>
<linearGradient id="paint1_linear_54_752" x1="128" y1="68" x2="128" y2="188" gradientUnits="userSpaceOnUse">
<stop stop-color="white"/>
<stop offset="1" stop-color="white" stop-opacity="0.3"/>
</linearGradient>
</defs>
</svg>
