<svg width="256" height="256" viewBox="0 0 64 64" fill="none" xmlns="http://www.w3.org/2000/svg">
<path d="M13.184 0H50.688C58.112 0 64 5.88682 64 13.1814V50.6779C64 58.1004 58.112 63.9872 50.816 63.9872H13.184C5.888 63.9872 0 58.1004 0 50.8058V13.1814C0 5.88682 5.888 0 13.184 0Z" fill="#111B24"/>
<path d="M16.1346 4.9872H47.8678C54.0097 4.9872 59 9.97772 59 16.1199V47.8545C59 53.9967 54.0097 58.9872 47.8678 58.9872H16.1346C9.99271 58.9872 5.00241 53.9967 5.00241 47.8545V16.2479C4.87445 9.97772 9.86475 4.9872 16.1346 4.9872Z" fill="#007ACC"/>
<path d="M16.1346 4.9872H47.8678C54.0097 4.9872 59 9.97772 59 16.1199V47.8545C59 53.9967 54.0097 58.9872 47.8678 58.9872H16.1346C9.99271 58.9872 5.00241 53.9967 5.00241 47.8545V16.2479C4.87445 9.97772 9.86475 4.9872 16.1346 4.9872Z" fill="url(#paint0_linear_1_1585)"/>
<path d="M45.9347 20.3118L39.5334 17.2176C38.8802 16.8308 37.9657 16.9597 37.3125 17.6044L25.0323 28.5632L19.676 24.5665C19.1535 24.1797 18.5003 24.1797 18.1083 24.6954L16.41 26.1136C15.8874 26.6293 15.8874 27.4029 16.2794 27.7897L16.41 27.9186L20.9824 32.0443L16.41 36.17C15.8874 36.6857 15.8874 37.4593 16.2794 37.8461L16.41 37.975L18.1083 39.3932C18.5003 39.78 19.2841 39.78 19.676 39.5221L25.0323 35.5254L37.3125 46.4843C37.835 47 38.7495 47.1289 39.5334 46.8711L45.9347 43.7768C46.5879 43.5189 46.9799 42.8743 46.9799 42.1007V21.859C47.1105 21.3433 46.5879 20.6986 45.9347 20.3118ZM39.4027 39.1354L30.1272 32.1732L39.4027 25.2111V39.1354Z" fill="url(#paint1_linear_1_1585)"/>
<defs>
<linearGradient id="paint0_linear_1_1585" x1="32.0012" y1="4.9872" x2="32.0012" y2="59.1663" gradientUnits="userSpaceOnUse">
<stop stop-color="white" stop-opacity="0.2"/>
<stop offset="0.99" stop-opacity="0.2"/>
</linearGradient>
<linearGradient id="paint1_linear_1_1585" x1="31.499" y1="17.2047" x2="31.499" y2="47.4126" gradientUnits="userSpaceOnUse">
<stop stop-color="white"/>
<stop offset="1" stop-color="white" stop-opacity="0.3"/>
</linearGradient>
</defs>
</svg>
