<svg width="256" height="256" viewBox="0 0 256 256" fill="none" xmlns="http://www.w3.org/2000/svg">
<path d="M52.736 0H202.752C232.448 0 256 23.552 256 52.736V202.752C256 232.448 232.448 256 203.264 256H52.736C23.552 256 0 232.448 0 203.264V52.736C0 23.552 23.552 0 52.736 0Z" fill="#1D262B"/>
<path d="M64.5385 20H191.471C216.039 20 236 39.9621 236 64.5308V191.469C236 216.038 216.039 236 191.471 236H64.5385C39.9708 236 20.0096 216.038 20.0096 191.469V65.0427C19.4978 39.9621 39.459 20 64.5385 20Z" fill="#8DD6F9"/>
<path d="M64.5385 20H191.471C216.039 20 236 39.9621 236 64.5308V191.469C236 216.038 216.039 236 191.471 236H64.5385C39.9708 236 20.0096 216.038 20.0096 191.469V65.0427C19.4978 39.9621 39.459 20 64.5385 20Z" fill="url(#paint0_linear_54_814)"/>
<path d="M178.648 160.489L129.651 188V166.573L160.179 149.904L178.648 160.489ZM182 157.476V99.9421L164.07 110.214V147.194L182 157.476ZM76.3516 160.489L125.349 188V166.573L94.8211 149.904L76.3516 160.489ZM73 157.476V99.9421L90.9298 110.214V147.194L73 157.476ZM75.0979 96.2196L125.349 68V88.7167L93.156 106.293L92.9108 106.433L75.0979 96.2196ZM179.903 96.2196L129.651 68V88.7167L161.844 106.294L162.089 106.434L179.903 96.2196ZM125.35 161.699L95.2308 145.263V112.692L125.349 129.954L125.35 161.699ZM129.651 161.699L159.768 145.263V112.692L129.651 129.954V161.699ZM97.2705 108.922L127.506 92.4152L157.742 108.922L127.506 126.255L97.2705 108.922Z" fill="url(#paint1_linear_54_814)"/>
<defs>
<linearGradient id="paint0_linear_54_814" x1="128.005" y1="20" x2="128.005" y2="236.717" gradientUnits="userSpaceOnUse">
<stop stop-color="white" stop-opacity="0.2"/>
<stop offset="0.99" stop-opacity="0.2"/>
</linearGradient>
<linearGradient id="paint1_linear_54_814" x1="127.5" y1="68" x2="127.5" y2="188" gradientUnits="userSpaceOnUse">
<stop stop-color="white"/>
<stop offset="1" stop-color="white" stop-opacity="0.3"/>
</linearGradient>
</defs>
</svg>
