<svg width="96" height="33" viewBox="0 0 96 33" fill="none" xmlns="http://www.w3.org/2000/svg">
<g clip-path="url(#clip0_308_756)">
<rect opacity="0.15" y="0.5" width="96" height="32" rx="5" fill="#E64F47"/>
<path d="M37.4746 21.5H34.123V12.0455H37.5023C38.4533 12.0455 39.2719 12.2347 39.9582 12.6133C40.6445 12.9888 41.1724 13.5289 41.5417 14.2337C41.9141 14.9384 42.1003 15.7817 42.1003 16.7635C42.1003 17.7483 41.9141 18.5947 41.5417 19.3026C41.1724 20.0104 40.6415 20.5536 39.949 20.9322C39.2596 21.3107 38.4348 21.5 37.4746 21.5ZM36.1219 19.7873H37.3915C37.9824 19.7873 38.4794 19.6826 38.8826 19.4734C39.2888 19.261 39.5935 18.9332 39.7967 18.4901C40.0029 18.0438 40.106 17.4683 40.106 16.7635C40.106 16.0649 40.0029 15.494 39.7967 15.0508C39.5935 14.6076 39.2904 14.2814 38.8872 14.0721C38.484 13.8628 37.987 13.7582 37.3961 13.7582H36.1219V19.7873ZM43.581 21.5V12.0455H49.9517V13.6935H45.5799V15.9464H49.624V17.5945H45.5799V19.8519H49.9702V21.5H43.581ZM51.541 21.5V12.0455H53.5399V19.8519H57.5932V21.5H51.541ZM58.9169 21.5V12.0455H65.2877V13.6935H60.9159V15.9464H64.9599V17.5945H60.9159V19.8519H65.3062V21.5H58.9169ZM66.5168 13.6935V12.0455H74.2817V13.6935H71.3872V21.5H69.4114V13.6935H66.5168ZM75.5605 21.5V12.0455H81.9312V13.6935H77.5594V15.9464H81.6035V17.5945H77.5594V19.8519H81.9497V21.5H75.5605Z" fill="#E64F47"/>
<path d="M17.5401 24.9417C17.4089 24.9035 17.1633 24.7859 16.9943 24.6803C16.8254 24.5748 16.602 24.3872 16.498 24.2633C16.3939 24.1395 16.2427 23.8898 16.1619 23.7086C16.0325 23.418 15.9688 22.7464 15.6242 18.0348C15.4091 15.0956 15.2175 12.5907 15.1983 12.4686C15.1655 12.2599 15.1418 12.2445 14.8048 12.2123C14.5612 12.189 14.3891 12.1248 14.2681 12.0119C14.1701 11.9205 14.0645 11.748 14.0333 11.6285C14.0021 11.5091 13.9908 11.3379 14.0081 11.248C14.0254 11.1582 14.1302 10.9946 14.2409 10.8846C14.3517 10.7746 14.5449 10.6643 14.6703 10.6394C14.7956 10.6145 15.4053 10.5941 16.025 10.5941H17.1519L17.7976 9.6524C18.1527 9.13447 18.5232 8.62547 18.6208 8.52129C18.7184 8.41711 18.9392 8.2572 19.1114 8.16593C19.4189 8.00303 19.4626 8 21.5 8C23.538 8 23.581 8.00299 23.8889 8.16609C24.0613 8.25744 24.3112 8.44933 24.4441 8.59252C24.577 8.7357 24.9477 9.24463 25.2678 9.72347L25.8497 10.5941H26.9758C27.5951 10.5941 28.2044 10.6145 28.3298 10.6394C28.4551 10.6643 28.6483 10.7746 28.7591 10.8846C28.8698 10.9946 28.9746 11.1582 28.9919 11.248C29.0092 11.3379 28.9978 11.5091 28.9667 11.6285C28.9355 11.748 28.8299 11.9205 28.7319 12.0119C28.6109 12.1248 28.4388 12.189 28.1952 12.2123C27.8582 12.2445 27.8345 12.2599 27.8017 12.4686C27.7825 12.5907 27.5907 15.0978 27.3755 18.0399C27.0035 23.1244 26.9755 23.4075 26.8106 23.7611C26.7151 23.9657 26.5256 24.2451 26.3894 24.3819C26.2532 24.5187 25.983 24.7106 25.7889 24.8083L25.436 24.986L21.6073 24.9985C19.2856 25.0061 17.6848 24.9838 17.5401 24.9417ZM25.2495 23.2365C25.3437 23.136 25.4049 22.9411 25.4333 22.6501C25.4568 22.4104 25.6193 20.1833 25.7943 17.7012C25.9694 15.219 26.1328 12.9723 26.1573 12.7085L26.202 12.2287H21.4989H16.7959L16.8401 12.6729C16.8645 12.9172 17.0455 15.2919 17.2423 17.9499C17.4391 20.608 17.6186 22.8627 17.6413 22.9605C17.6639 23.0582 17.7333 23.1941 17.7953 23.2625C17.9 23.3778 18.1703 23.3869 21.5083 23.3869C25.0823 23.3869 25.1095 23.3858 25.2495 23.2365ZM19.0131 20.2541C18.9443 20.2142 18.837 20.0838 18.7747 19.9643C18.7044 19.8292 18.6795 19.676 18.7089 19.5595C18.7357 19.4537 19.1501 18.9767 19.6595 18.4655L20.5626 17.5591L19.6595 16.6526C19.1501 16.1414 18.7357 15.6644 18.7089 15.5586C18.6794 15.4418 18.7045 15.2887 18.7755 15.1524C18.8381 15.0321 18.9513 14.9007 19.0271 14.8605C19.1028 14.8202 19.2689 14.7873 19.3961 14.7873C19.5968 14.7873 19.7517 14.9094 20.5643 15.7085L21.5011 16.6298L22.4363 15.7085C23.2487 14.9082 23.4019 14.7873 23.6034 14.7873C23.7309 14.7873 23.8972 14.8202 23.9729 14.8605C24.0487 14.9007 24.1619 15.0321 24.2245 15.1524C24.2955 15.2887 24.3206 15.4418 24.2911 15.5586C24.2643 15.6644 23.8499 16.1414 23.3405 16.6526L22.4374 17.5591L23.3405 18.4655C23.8499 18.9767 24.2643 19.4537 24.2911 19.5595C24.3206 19.6763 24.2955 19.8294 24.2245 19.9657C24.1619 20.086 24.0487 20.2174 23.9729 20.2576C23.8972 20.2979 23.7309 20.3308 23.6034 20.3308C23.4019 20.3308 23.2487 20.2099 22.4363 19.4096L21.5011 18.4883L20.5643 19.4096C19.7266 20.2333 19.6016 20.3306 19.3829 20.3287C19.2484 20.3275 19.082 20.2939 19.0131 20.2541ZM23.8541 10.5053C23.8256 10.4564 23.6741 10.2325 23.5174 10.0078L23.2326 9.5991L21.5075 9.59974L19.7825 9.60038L19.4962 10.0377C19.3388 10.2782 19.1992 10.5018 19.1861 10.5345C19.173 10.5673 20.2295 10.5941 21.534 10.5941C23.4114 10.5941 23.8951 10.5756 23.8541 10.5053Z" fill="#E64F47"/>
</g>
<defs>
<clipPath id="clip0_308_756">
<rect width="96" height="32" fill="white" transform="translate(0 0.5)"/>
</clipPath>
</defs>
</svg>
