<svg width="96" height="32" viewBox="0 0 96 32" fill="none" xmlns="http://www.w3.org/2000/svg">
<g clip-path="url(#clip0_310_781)">
<rect opacity="0.2" width="96" height="32" rx="5" fill="#E64F47"/>
<path d="M22.7379 22H18.6129V10.3636H22.772C23.9425 10.3636 24.95 10.5966 25.7947 11.0625C26.6394 11.5246 27.2891 12.1894 27.7436 13.0568C28.2019 13.9242 28.4311 14.9621 28.4311 16.1705C28.4311 17.3826 28.2019 18.4242 27.7436 19.2955C27.2891 20.1667 26.6357 20.8352 25.7834 21.3011C24.9349 21.767 23.9197 22 22.7379 22ZM21.0732 19.892H22.6357C23.3629 19.892 23.9747 19.7633 24.4709 19.5057C24.9709 19.2443 25.3459 18.8409 25.5959 18.2955C25.8497 17.7462 25.9766 17.0379 25.9766 16.1705C25.9766 15.3106 25.8497 14.608 25.5959 14.0625C25.3459 13.517 24.9728 13.1155 24.4766 12.858C23.9804 12.6004 23.3686 12.4716 22.6413 12.4716H21.0732V19.892ZM30.2536 22V10.3636H38.0945V12.392H32.7138V15.1648H37.6911V17.1932H32.7138V19.9716H38.1172V22H30.2536ZM40.0504 22V10.3636H42.5107V19.9716H47.4993V22H40.0504ZM49.1286 22V10.3636H56.9695V12.392H51.5888V15.1648H56.5661V17.1932H51.5888V19.9716H56.9922V22H49.1286ZM58.4822 12.392V10.3636H68.0391V12.392H64.4766V22H62.0447V12.392H58.4822ZM69.6129 22V10.3636H77.4538V12.392H72.0732V15.1648H77.0504V17.1932H72.0732V19.9716H77.4766V22H69.6129Z" fill="#E64F47"/>
</g>
<defs>
<clipPath id="clip0_310_781">
<rect width="96" height="32" fill="white"/>
</clipPath>
</defs>
</svg>
