<svg width="96" height="33" viewBox="0 0 96 33" fill="none" xmlns="http://www.w3.org/2000/svg">
<g clip-path="url(#clip0_308_758)">
<rect opacity="0.15" y="0.5" width="96" height="32" rx="5" fill="#31A8FF"/>
<path d="M51.8243 15.1016C51.7597 14.8769 51.6689 14.6784 51.5519 14.506C51.435 14.3306 51.2919 14.1829 51.1226 14.0629C50.9564 13.9397 50.7656 13.8459 50.5502 13.7812C50.3378 13.7166 50.1024 13.6843 49.8438 13.6843C49.3606 13.6843 48.9359 13.8043 48.5697 14.0444C48.2065 14.2844 47.9234 14.6338 47.7203 15.0923C47.5171 15.5478 47.4156 16.1049 47.4156 16.7635C47.4156 17.4221 47.5156 17.9822 47.7156 18.4439C47.9157 18.9055 48.1988 19.2579 48.5651 19.5011C48.9313 19.7411 49.3637 19.8612 49.8623 19.8612C50.3147 19.8612 50.701 19.7811 51.021 19.6211C51.3442 19.458 51.5904 19.2287 51.7597 18.9332C51.932 18.6378 52.0182 18.2885 52.0182 17.8853L52.4244 17.9453H49.9869V16.4403H53.9433V17.6314C53.9433 18.4624 53.7678 19.1764 53.417 19.7734C53.0661 20.3674 52.5829 20.826 51.9674 21.1491C51.3519 21.4692 50.6471 21.6293 49.8531 21.6293C48.9667 21.6293 48.1881 21.4338 47.5171 21.043C46.8462 20.649 46.323 20.0904 45.9475 19.3672C45.5751 18.6409 45.3889 17.7791 45.3889 16.782C45.3889 16.0156 45.4997 15.3324 45.7213 14.7322C45.946 14.129 46.2599 13.6181 46.6631 13.1996C47.0663 12.781 47.5356 12.4625 48.0711 12.244C48.6066 12.0254 49.1868 11.9162 49.8115 11.9162C50.347 11.9162 50.8456 11.9947 51.3073 12.1516C51.7689 12.3055 52.1782 12.524 52.5352 12.8072C52.8953 13.0903 53.1892 13.4273 53.417 13.8182C53.6447 14.206 53.7909 14.6338 53.8556 15.1016H51.8243ZM55.4448 21.5V12.0455H61.8155V13.6935H57.4437V15.9464H61.4877V17.5945H57.4437V19.8519H61.834V21.5H55.4448ZM63.0447 13.6935V12.0455H70.8096V13.6935H67.915V21.5H65.9392V13.6935H63.0447Z" fill="#31A8FF"/>
<path d="M29.5383 24.9005C29.4207 24.8473 28.3502 23.8295 27.1594 22.6387L24.9944 20.4736L24.487 20.7853C24.208 20.9568 23.7384 21.1891 23.4435 21.3016C23.1486 21.4142 22.6507 21.565 22.3369 21.6369C21.9321 21.7296 21.5078 21.7655 20.8753 21.7606C20.3279 21.7563 19.7639 21.7065 19.4136 21.6315C19.0999 21.5643 18.5519 21.3902 18.1958 21.2445C17.8397 21.0988 17.3264 20.8325 17.055 20.6527C16.7836 20.4729 16.3307 20.0994 16.0486 19.8226C15.7665 19.5459 15.3888 19.1143 15.2093 18.8637C15.0298 18.613 14.7578 18.1411 14.6048 17.8151C14.4518 17.489 14.2532 16.9504 14.1633 16.6182C14.0251 16.1073 14 15.8392 14 14.8774C14 13.9155 14.0251 13.6475 14.1633 13.1365C14.2532 12.8043 14.4518 12.2657 14.6048 11.9397C14.7578 11.6136 15.0298 11.1417 15.2093 10.8911C15.3888 10.6404 15.7665 10.2089 16.0486 9.93213C16.3307 9.65537 16.7836 9.28182 17.055 9.10202C17.3264 8.92221 17.8397 8.6559 18.1958 8.51021C18.5519 8.36453 19.0999 8.19013 19.4136 8.12267C19.7825 8.04334 20.2989 8 20.8753 8C21.4516 8 21.9681 8.04334 22.3369 8.12267C22.6507 8.19013 23.1987 8.36453 23.5548 8.51021C23.9108 8.6559 24.4242 8.92221 24.6956 9.10202C24.9669 9.28182 25.4198 9.65537 25.7019 9.93213C25.9841 10.2089 26.3617 10.6404 26.5412 10.8911C26.7207 11.1417 26.9927 11.6136 27.1457 11.9397C27.2987 12.2657 27.4975 12.8043 27.5874 13.1365C27.7274 13.6536 27.7506 13.9091 27.7487 14.9129C27.747 15.8918 27.7211 16.1771 27.5923 16.6416C27.5074 16.9475 27.3506 17.3952 27.244 17.6364C27.1373 17.8776 26.9233 18.2778 26.7684 18.5257L26.4867 18.9765L28.6646 21.1548C29.8624 22.3528 30.8779 23.4029 30.9212 23.4882C30.9645 23.5736 31 23.7847 31 23.9574C31 24.1654 30.9454 24.3527 30.8381 24.5127C30.7491 24.6455 30.5646 24.8101 30.4282 24.8784C30.2917 24.9467 30.0838 25.0014 29.9661 25C29.8485 24.9985 29.656 24.9537 29.5383 24.9005ZM21.8867 19.5669C22.1735 19.5081 22.6649 19.3337 22.9787 19.1793C23.2924 19.0249 23.716 18.7608 23.92 18.5925C24.124 18.4242 24.4696 18.063 24.6881 17.7899C24.9387 17.4765 25.1629 17.0928 25.2956 16.7499C25.4113 16.4511 25.5413 16.0514 25.5846 15.8617C25.6279 15.6721 25.6633 15.2291 25.6633 14.8774C25.6633 14.5256 25.6279 14.0827 25.5846 13.893C25.5413 13.7033 25.4113 13.3037 25.2956 13.0048C25.1629 12.6619 24.9387 12.2782 24.6881 11.9649C24.4696 11.6918 24.124 11.3306 23.92 11.1623C23.716 10.9939 23.2924 10.7299 22.9787 10.5754C22.6649 10.421 22.1735 10.2466 21.8867 10.1879C21.5998 10.1291 21.1447 10.0811 20.8753 10.0811C20.6059 10.0811 20.1508 10.1291 19.8639 10.1879C19.577 10.2466 19.0856 10.421 18.7719 10.5754C18.4582 10.7299 18.0346 10.9939 17.8306 11.1623C17.6266 11.3306 17.2809 11.6918 17.0625 11.9649C16.8119 12.2782 16.5877 12.6619 16.455 13.0048C16.3393 13.3037 16.2092 13.7033 16.166 13.893C16.1227 14.0827 16.0873 14.5256 16.0873 14.8774C16.0873 15.2291 16.1227 15.6721 16.166 15.8617C16.2092 16.0514 16.3393 16.4511 16.455 16.7499C16.5877 17.0928 16.8119 17.4765 17.0625 17.7899C17.2809 18.063 17.6266 18.4242 17.8306 18.5925C18.0346 18.7608 18.4582 19.0252 18.7719 19.18C19.0856 19.3348 19.5509 19.506 19.8058 19.5604C20.0607 19.6149 20.5158 19.6626 20.8171 19.6665C21.1185 19.6704 21.5998 19.6256 21.8867 19.5669Z" fill="#31A8FF"/>
</g>
<defs>
<clipPath id="clip0_308_758">
<rect width="96" height="32" fill="white" transform="translate(0 0.5)"/>
</clipPath>
</defs>
</svg>
