<svg width="96" height="32" viewBox="0 0 96 32" fill="none" xmlns="http://www.w3.org/2000/svg">
<g clip-path="url(#clip0_310_811)">
<rect opacity="0.2" width="96" height="32" rx="5" fill="#31A8FF"/>
<path d="M40.3991 14.125C40.3196 13.8485 40.2079 13.6042 40.0639 13.392C39.92 13.1761 39.7438 12.9943 39.5355 12.8466C39.331 12.6951 39.0961 12.5795 38.831 12.5C38.5696 12.4205 38.2798 12.3807 37.9616 12.3807C37.367 12.3807 36.8442 12.5284 36.3935 12.8239C35.9465 13.1193 35.598 13.5492 35.348 14.1136C35.098 14.6742 34.973 15.3598 34.973 16.1705C34.973 16.9811 35.0961 17.6705 35.3423 18.2386C35.5885 18.8068 35.937 19.2405 36.3878 19.5398C36.8385 19.8352 37.3707 19.983 37.9844 19.983C38.5412 19.983 39.0166 19.8845 39.4105 19.6875C39.8082 19.4867 40.1113 19.2045 40.3196 18.8409C40.5317 18.4773 40.6378 18.0473 40.6378 17.5511L41.1378 17.625H38.1378V15.7727H43.0071V17.2386C43.0071 18.2614 42.7912 19.1402 42.3594 19.875C41.9276 20.6061 41.3329 21.1705 40.5753 21.5682C39.8177 21.9621 38.9503 22.1591 37.973 22.1591C36.8821 22.1591 35.9238 21.9186 35.098 21.4375C34.2723 20.9527 33.6283 20.2652 33.1662 19.375C32.7079 18.4811 32.4787 17.4205 32.4787 16.1932C32.4787 15.25 32.6151 14.4091 32.8878 13.6705C33.1643 12.928 33.5507 12.2992 34.0469 11.7841C34.5431 11.2689 35.1207 10.8769 35.7798 10.608C36.4389 10.339 37.1529 10.2045 37.9219 10.2045C38.581 10.2045 39.1946 10.3011 39.7628 10.4943C40.331 10.6837 40.8348 10.9527 41.2741 11.3011C41.7173 11.6496 42.0791 12.0644 42.3594 12.5455C42.6397 13.0227 42.8196 13.5492 42.8991 14.125H40.3991ZM44.8551 22V10.3636H52.696V12.392H47.3153V15.1648H52.2926V17.1932H47.3153V19.9716H52.7188V22H44.8551ZM54.2088 12.392V10.3636H63.7656V12.392H60.2031V22H57.7713V12.392H54.2088Z" fill="#31A8FF"/>
</g>
<defs>
<clipPath id="clip0_310_811">
<rect width="96" height="32" fill="white"/>
</clipPath>
</defs>
</svg>
