<svg width="341" height="426" viewBox="0 0 341 426" fill="none" xmlns="http://www.w3.org/2000/svg">
<g clip-path="url(#clip0_369_118)">
<rect width="341" height="426" rx="20" fill="#FC5D20"/>
<rect width="341" height="426" rx="20" fill="url(#paint0_linear_369_118)"/>
<g style="mix-blend-mode:soft-light">
<path d="M148.444 74.5411C139.831 76.0486 -17.4536 204.343 -24.5006 215.611L-29.005 222.81L-9.45468 331.069C9.43599 435.673 10.292 439.463 15.8286 443.225C20.5764 446.45 205.512 513.559 217.053 516.244C226.3 518.396 240.503 508.352 315.777 446.419C373.196 399.178 397.282 377.911 399.481 372.51C402.294 365.601 400.933 355.53 384.159 259.096L365.744 153.263L357.875 147.956C344.61 139.013 156.641 73.1211 148.444 74.5411ZM107.787 218.204C114.541 217.028 124.596 220.877 131.37 227.232C137.697 233.17 140.27 247.998 136.306 255.699C130.535 266.908 118.432 273.371 106.89 271.41C97.2677 269.775 93.9529 267.643 88.4744 259.554C77.4544 243.284 87.5203 221.732 107.787 218.204ZM242.366 194.867C249.854 193.511 257.917 195.56 264.87 201.314C273.248 208.25 275.915 217.643 272.595 228.539C268.413 242.268 256.395 249.999 242.814 247.696C223.335 244.393 213.666 225.13 223.311 208.843C227.964 200.986 234.878 196.225 242.366 194.867ZM190.916 301.603C214.06 297.575 218.006 297.356 231.639 299.358C256.941 303.074 280.957 314.98 299.472 332.985C311.201 344.391 313.509 352.185 307.202 359.102C300.338 366.629 292.748 365.461 283.554 355.46C262.706 332.78 227.144 321.215 195.295 326.759C163.446 332.303 133.883 355.205 121.924 383.596C117.627 393.799 112.478 397.894 105.496 396.659C93.3527 394.511 91.2102 384.47 99.3482 367.822C110.69 344.62 129.272 325.298 151.831 313.251C163.985 306.759 167.773 305.632 190.916 301.603Z" fill="url(#paint1_linear_369_118)" fill-opacity="0.5"/>
</g>
<path d="M44.5455 297H42.0143L46.623 283.909H49.5505L54.1656 297H51.6343L48.1379 286.594H48.0356L44.5455 297ZM44.6286 291.867H51.532V293.772H44.6286V291.867ZM55.7876 300.682V287.182H58.0631V288.805H58.1974C58.3167 288.567 58.485 288.313 58.7023 288.045C58.9197 287.772 59.2137 287.54 59.5844 287.348C59.9552 287.152 60.4282 287.054 61.0035 287.054C61.762 287.054 62.4459 287.248 63.0553 287.636C63.6689 288.019 64.1547 288.588 64.5127 289.342C64.8749 290.092 65.056 291.013 65.056 292.104C65.056 293.182 64.8792 294.098 64.5255 294.852C64.1718 295.607 63.6903 296.182 63.0809 296.578C62.4715 296.974 61.7812 297.173 61.0099 297.173C60.4474 297.173 59.9807 297.079 59.61 296.891C59.2393 296.704 58.941 296.478 58.7151 296.214C58.4935 295.945 58.3209 295.692 58.1974 295.453H58.1015V300.682H55.7876ZM58.0567 292.091C58.0567 292.726 58.1462 293.282 58.3252 293.759C58.5084 294.237 58.7705 294.609 59.1114 294.878C59.4566 295.142 59.8742 295.274 60.3643 295.274C60.8756 295.274 61.3039 295.138 61.6491 294.865C61.9942 294.588 62.2542 294.211 62.4289 293.734C62.6079 293.252 62.6974 292.705 62.6974 292.091C62.6974 291.482 62.61 290.94 62.4353 290.467C62.2606 289.994 62.0006 289.624 61.6555 289.355C61.3103 289.087 60.8799 288.952 60.3643 288.952C59.8699 288.952 59.4502 289.082 59.105 289.342C58.7599 289.602 58.4978 289.967 58.3188 290.435C58.1441 290.904 58.0567 291.456 58.0567 292.091ZM71.3841 297.192C70.3998 297.192 69.5496 296.987 68.8337 296.578C68.1221 296.165 67.5745 295.581 67.191 294.827C66.8074 294.068 66.6157 293.175 66.6157 292.148C66.6157 291.138 66.8074 290.252 67.191 289.489C67.5787 288.722 68.1199 288.126 68.8145 287.7C69.5091 287.269 70.3252 287.054 71.2627 287.054C71.8678 287.054 72.4388 287.152 72.9758 287.348C73.517 287.54 73.9942 287.838 74.4076 288.243C74.8252 288.648 75.1533 289.163 75.392 289.79C75.6306 290.412 75.7499 291.153 75.7499 292.014V292.724H67.7023V291.164H73.5319C73.5276 290.721 73.4317 290.327 73.2442 289.982C73.0567 289.632 72.7947 289.357 72.458 289.157C72.1256 288.957 71.7378 288.857 71.2947 288.857C70.8216 288.857 70.4062 288.972 70.0482 289.202C69.6903 289.428 69.4111 289.726 69.2108 290.097C69.0148 290.463 68.9147 290.866 68.9104 291.305V292.666C68.9104 293.237 69.0148 293.727 69.2236 294.136C69.4324 294.541 69.7243 294.852 70.0993 295.07C70.4743 295.283 70.9133 295.389 71.4161 295.389C71.7528 295.389 72.0574 295.342 72.3302 295.249C72.6029 295.151 72.8394 295.008 73.0397 294.82C73.24 294.633 73.3912 294.401 73.4935 294.124L75.654 294.366C75.5177 294.937 75.2577 295.436 74.8742 295.862C74.4949 296.284 74.0091 296.612 73.4168 296.847C72.8245 297.077 72.1469 297.192 71.3841 297.192ZM80.0214 291.247V297H77.7075V287.182H79.9191V288.85H80.0342C80.26 288.3 80.6201 287.864 81.1144 287.54C81.613 287.216 82.2288 287.054 82.9617 287.054C83.6393 287.054 84.2295 287.199 84.7323 287.489C85.2394 287.778 85.6315 288.198 85.9085 288.748C86.1897 289.298 86.3282 289.964 86.324 290.749V297H84.01V291.107C84.01 290.45 83.8396 289.937 83.4987 289.566C83.162 289.195 82.6954 289.01 82.0988 289.01C81.694 289.01 81.3339 289.099 81.0186 289.278C80.7075 289.453 80.4624 289.707 80.2835 290.039C80.1088 290.371 80.0214 290.774 80.0214 291.247ZM91.5015 297.198C90.8794 297.198 90.319 297.087 89.8204 296.866C89.3261 296.64 88.934 296.308 88.6443 295.869C88.3588 295.43 88.216 294.888 88.216 294.245C88.216 293.691 88.3183 293.233 88.5228 292.871C88.7274 292.509 89.0065 292.219 89.3602 292.001C89.7139 291.784 90.1123 291.62 90.5555 291.509C91.0029 291.394 91.4653 291.311 91.9426 291.26C92.5178 291.2 92.9845 291.147 93.3424 291.1C93.7004 291.049 93.9603 290.972 94.1222 290.87C94.2884 290.763 94.3715 290.599 94.3715 290.378V290.339C94.3715 289.858 94.2288 289.485 93.9433 289.221C93.6578 288.957 93.2465 288.825 92.7096 288.825C92.1428 288.825 91.6933 288.948 91.3609 289.195C91.0328 289.442 90.8112 289.734 90.6961 290.071L88.5356 289.764C88.7061 289.168 88.9873 288.669 89.3794 288.268C89.7714 287.864 90.2508 287.561 90.8176 287.361C91.3843 287.156 92.0107 287.054 92.6968 287.054C93.1698 287.054 93.6407 287.109 94.1095 287.22C94.5782 287.331 95.0065 287.514 95.3943 287.77C95.782 288.021 96.0931 288.364 96.3275 288.799C96.5661 289.234 96.6855 289.777 96.6855 290.429V297H94.461V295.651H94.3843C94.2437 295.924 94.0455 296.18 93.7899 296.418C93.5384 296.653 93.221 296.842 92.8374 296.987C92.4582 297.128 92.0129 297.198 91.5015 297.198ZM92.1024 295.498C92.5669 295.498 92.9695 295.406 93.3105 295.223C93.6514 295.036 93.9134 294.788 94.0967 294.482C94.2842 294.175 94.3779 293.84 94.3779 293.478V292.321C94.3055 292.381 94.1819 292.436 94.0072 292.487C93.8367 292.538 93.645 292.583 93.4319 292.621C93.2188 292.66 93.0079 292.694 92.7991 292.724C92.5903 292.754 92.4092 292.779 92.2558 292.8C91.9106 292.847 91.6017 292.924 91.3289 293.031C91.0562 293.137 90.841 293.286 90.6833 293.478C90.5257 293.665 90.4468 293.908 90.4468 294.207C90.4468 294.633 90.6024 294.955 90.9134 295.172C91.2245 295.389 91.6208 295.498 92.1024 295.498ZM106.772 289.777L104.663 290.007C104.603 289.794 104.499 289.594 104.35 289.406C104.205 289.219 104.009 289.067 103.761 288.952C103.514 288.837 103.212 288.78 102.854 288.78C102.372 288.78 101.967 288.884 101.639 289.093C101.315 289.302 101.156 289.572 101.16 289.905C101.156 290.19 101.26 290.423 101.473 290.602C101.69 290.781 102.048 290.928 102.547 291.043L104.222 291.401C105.151 291.601 105.841 291.918 106.293 292.353C106.749 292.788 106.979 293.357 106.983 294.06C106.979 294.678 106.798 295.223 106.44 295.696C106.086 296.165 105.594 296.531 104.963 296.795C104.332 297.06 103.608 297.192 102.79 297.192C101.588 297.192 100.621 296.94 99.8879 296.438C99.1549 295.93 98.7181 295.225 98.5775 294.322L100.834 294.104C100.936 294.548 101.153 294.882 101.486 295.108C101.818 295.334 102.251 295.447 102.783 295.447C103.333 295.447 103.774 295.334 104.107 295.108C104.443 294.882 104.612 294.603 104.612 294.271C104.612 293.989 104.503 293.757 104.286 293.574C104.073 293.391 103.74 293.25 103.288 293.152L101.614 292.8C100.672 292.604 99.9752 292.274 99.5235 291.81C99.0718 291.341 98.8481 290.749 98.8524 290.033C98.8481 289.428 99.0122 288.903 99.3445 288.46C99.6812 288.013 100.148 287.668 100.744 287.425C101.345 287.178 102.038 287.054 102.822 287.054C103.972 287.054 104.878 287.299 105.538 287.789C106.203 288.279 106.614 288.942 106.772 289.777ZM119.614 292.871V287.182H121.928V297H119.684V295.255H119.582C119.36 295.805 118.996 296.254 118.489 296.604C117.986 296.953 117.366 297.128 116.629 297.128C115.985 297.128 115.416 296.985 114.922 296.7C114.432 296.41 114.048 295.99 113.771 295.44C113.494 294.886 113.356 294.217 113.356 293.433V287.182H115.67V293.075C115.67 293.697 115.84 294.192 116.181 294.558C116.522 294.925 116.97 295.108 117.524 295.108C117.864 295.108 118.195 295.025 118.514 294.859C118.834 294.692 119.096 294.445 119.301 294.117C119.509 293.785 119.614 293.369 119.614 292.871ZM124.307 297V287.182H126.519V288.85H126.634C126.838 288.288 127.177 287.849 127.65 287.533C128.123 287.214 128.688 287.054 129.344 287.054C130.009 287.054 130.569 287.216 131.025 287.54C131.485 287.859 131.809 288.296 131.997 288.85H132.099C132.316 288.305 132.683 287.87 133.198 287.546C133.718 287.218 134.334 287.054 135.046 287.054C135.949 287.054 136.686 287.339 137.257 287.911C137.828 288.482 138.114 289.315 138.114 290.41V297H135.794V290.768C135.794 290.158 135.632 289.713 135.308 289.432C134.984 289.146 134.588 289.004 134.119 289.004C133.561 289.004 133.124 289.178 132.809 289.528C132.497 289.873 132.342 290.322 132.342 290.876V297H130.073V290.672C130.073 290.165 129.919 289.76 129.612 289.457C129.31 289.155 128.914 289.004 128.424 289.004C128.091 289.004 127.789 289.089 127.516 289.259C127.243 289.425 127.026 289.662 126.864 289.969C126.702 290.271 126.621 290.625 126.621 291.03V297H124.307ZM144.926 297V287.182H147.24V297H144.926ZM145.201 285.891L146.633 282.969H148.896L146.933 285.891H145.201ZM153.902 297.192C152.922 297.192 152.081 296.977 151.377 296.546C150.679 296.116 150.139 295.521 149.76 294.763C149.385 294 149.198 293.122 149.198 292.129C149.198 291.132 149.389 290.252 149.773 289.489C150.157 288.722 150.698 288.126 151.397 287.7C152.1 287.269 152.931 287.054 153.889 287.054C154.686 287.054 155.392 287.201 156.005 287.495C156.623 287.785 157.115 288.196 157.482 288.729C157.848 289.257 158.057 289.875 158.108 290.582H155.897C155.807 290.109 155.594 289.715 155.257 289.4C154.925 289.08 154.48 288.92 153.921 288.92C153.448 288.92 153.033 289.048 152.675 289.304C152.317 289.555 152.038 289.918 151.838 290.391C151.642 290.864 151.544 291.43 151.544 292.091C151.544 292.76 151.642 293.335 151.838 293.817C152.034 294.294 152.309 294.663 152.662 294.923C153.02 295.178 153.44 295.306 153.921 295.306C154.262 295.306 154.567 295.242 154.835 295.114C155.108 294.982 155.336 294.793 155.519 294.545C155.703 294.298 155.828 293.998 155.897 293.644H158.108C158.053 294.339 157.848 294.955 157.495 295.491C157.141 296.024 156.659 296.442 156.05 296.744C155.441 297.043 154.725 297.192 153.902 297.192ZM164.291 297.192C163.332 297.192 162.501 296.981 161.798 296.559C161.095 296.137 160.549 295.547 160.162 294.788C159.778 294.03 159.586 293.143 159.586 292.129C159.586 291.115 159.778 290.227 160.162 289.464C160.549 288.701 161.095 288.109 161.798 287.687C162.501 287.265 163.332 287.054 164.291 287.054C165.25 287.054 166.081 287.265 166.784 287.687C167.487 288.109 168.03 288.701 168.414 289.464C168.802 290.227 168.995 291.115 168.995 292.129C168.995 293.143 168.802 294.03 168.414 294.788C168.03 295.547 167.487 296.137 166.784 296.559C166.081 296.981 165.25 297.192 164.291 297.192ZM164.304 295.338C164.824 295.338 165.258 295.195 165.608 294.91C165.957 294.62 166.217 294.232 166.388 293.746C166.562 293.261 166.65 292.719 166.65 292.123C166.65 291.522 166.562 290.979 166.388 290.493C166.217 290.003 165.957 289.613 165.608 289.323C165.258 289.033 164.824 288.888 164.304 288.888C163.771 288.888 163.328 289.033 162.974 289.323C162.625 289.613 162.363 290.003 162.188 290.493C162.017 290.979 161.932 291.522 161.932 292.123C161.932 292.719 162.017 293.261 162.188 293.746C162.363 294.232 162.625 294.62 162.974 294.91C163.328 295.195 163.771 295.338 164.304 295.338ZM173.273 291.247V297H170.959V287.182H173.171V288.85H173.286C173.512 288.3 173.872 287.864 174.366 287.54C174.865 287.216 175.481 287.054 176.214 287.054C176.891 287.054 177.481 287.199 177.984 287.489C178.491 287.778 178.883 288.198 179.16 288.748C179.442 289.298 179.58 289.964 179.576 290.749V297H177.262V291.107C177.262 290.45 177.092 289.937 176.751 289.566C176.414 289.195 175.947 289.01 175.351 289.01C174.946 289.01 174.586 289.099 174.271 289.278C173.959 289.453 173.714 289.707 173.535 290.039C173.361 290.371 173.273 290.774 173.273 291.247ZM186.275 297.192C185.29 297.192 184.44 296.987 183.724 296.578C183.013 296.165 182.465 295.581 182.082 294.827C181.698 294.068 181.506 293.175 181.506 292.148C181.506 291.138 181.698 290.252 182.082 289.489C182.469 288.722 183.011 288.126 183.705 287.7C184.4 287.269 185.216 287.054 186.153 287.054C186.758 287.054 187.329 287.152 187.866 287.348C188.408 287.54 188.885 287.838 189.298 288.243C189.716 288.648 190.044 289.163 190.283 289.79C190.521 290.412 190.641 291.153 190.641 292.014V292.724H182.593V291.164H188.422C188.418 290.721 188.322 290.327 188.135 289.982C187.947 289.632 187.685 289.357 187.349 289.157C187.016 288.957 186.628 288.857 186.185 288.857C185.712 288.857 185.297 288.972 184.939 289.202C184.581 289.428 184.302 289.726 184.101 290.097C183.905 290.463 183.805 290.866 183.801 291.305V292.666C183.801 293.237 183.905 293.727 184.114 294.136C184.323 294.541 184.615 294.852 184.99 295.07C185.365 295.283 185.804 295.389 186.307 295.389C186.643 295.389 186.948 295.342 187.221 295.249C187.494 295.151 187.73 295.008 187.93 294.82C188.131 294.633 188.282 294.401 188.384 294.124L190.545 294.366C190.408 294.937 190.148 295.436 189.765 295.862C189.386 296.284 188.9 296.612 188.307 296.847C187.715 297.077 187.038 297.192 186.275 297.192ZM200.706 297.173C199.935 297.173 199.245 296.974 198.635 296.578C198.026 296.182 197.544 295.607 197.191 294.852C196.837 294.098 196.66 293.182 196.66 292.104C196.66 291.013 196.839 290.092 197.197 289.342C197.559 288.588 198.047 288.019 198.661 287.636C199.275 287.248 199.959 287.054 200.713 287.054C201.288 287.054 201.761 287.152 202.132 287.348C202.503 287.54 202.797 287.772 203.014 288.045C203.231 288.313 203.4 288.567 203.519 288.805H203.615V283.909H205.935V297H203.66V295.453H203.519C203.4 295.692 203.227 295.945 203.001 296.214C202.775 296.478 202.477 296.704 202.106 296.891C201.736 297.079 201.269 297.173 200.706 297.173ZM201.352 295.274C201.842 295.274 202.26 295.142 202.605 294.878C202.95 294.609 203.212 294.237 203.391 293.759C203.57 293.282 203.66 292.726 203.66 292.091C203.66 291.456 203.57 290.904 203.391 290.435C203.216 289.967 202.956 289.602 202.611 289.342C202.27 289.082 201.851 288.952 201.352 288.952C200.836 288.952 200.406 289.087 200.061 289.355C199.716 289.624 199.456 289.994 199.281 290.467C199.106 290.94 199.019 291.482 199.019 292.091C199.019 292.705 199.106 293.252 199.281 293.734C199.46 294.211 199.722 294.588 200.067 294.865C200.417 295.138 200.845 295.274 201.352 295.274ZM212.747 297.192C211.763 297.192 210.913 296.987 210.197 296.578C209.485 296.165 208.938 295.581 208.554 294.827C208.171 294.068 207.979 293.175 207.979 292.148C207.979 291.138 208.171 290.252 208.554 289.489C208.942 288.722 209.483 288.126 210.178 287.7C210.872 287.269 211.688 287.054 212.626 287.054C213.231 287.054 213.802 287.152 214.339 287.348C214.88 287.54 215.358 287.838 215.771 288.243C216.188 288.648 216.517 289.163 216.755 289.79C216.994 290.412 217.113 291.153 217.113 292.014V292.724H209.066V291.164H214.895C214.891 290.721 214.795 290.327 214.608 289.982C214.42 289.632 214.158 289.357 213.821 289.157C213.489 288.957 213.101 288.857 212.658 288.857C212.185 288.857 211.769 288.972 211.411 289.202C211.054 289.428 210.774 289.726 210.574 290.097C210.378 290.463 210.278 290.866 210.274 291.305V292.666C210.274 293.237 210.378 293.727 210.587 294.136C210.796 294.541 211.088 294.852 211.463 295.07C211.838 295.283 212.277 295.389 212.779 295.389C213.116 295.389 213.421 295.342 213.693 295.249C213.966 295.151 214.203 295.008 214.403 294.82C214.603 294.633 214.755 294.401 214.857 294.124L217.017 294.366C216.881 294.937 216.621 295.436 216.237 295.862C215.858 296.284 215.372 296.612 214.78 296.847C214.188 297.077 213.51 297.192 212.747 297.192ZM223.536 297V287.182H225.747V288.85H225.862C226.067 288.288 226.406 287.849 226.879 287.533C227.352 287.214 227.916 287.054 228.573 287.054C229.237 287.054 229.798 287.216 230.254 287.54C230.714 287.859 231.038 288.296 231.225 288.85H231.328C231.545 288.305 231.911 287.87 232.427 287.546C232.947 287.218 233.563 287.054 234.274 287.054C235.178 287.054 235.915 287.339 236.486 287.911C237.057 288.482 237.342 289.315 237.342 290.41V297H235.022V290.768C235.022 290.158 234.86 289.713 234.536 289.432C234.212 289.146 233.816 289.004 233.347 289.004C232.789 289.004 232.352 289.178 232.037 289.528C231.726 289.873 231.57 290.322 231.57 290.876V297H229.301V290.672C229.301 290.165 229.148 289.76 228.841 289.457C228.538 289.155 228.142 289.004 227.652 289.004C227.32 289.004 227.017 289.089 226.744 289.259C226.472 289.425 226.254 289.662 226.092 289.969C225.93 290.271 225.85 290.625 225.85 291.03V297H223.536ZM244.036 297.192C243.052 297.192 242.202 296.987 241.486 296.578C240.774 296.165 240.227 295.581 239.843 294.827C239.46 294.068 239.268 293.175 239.268 292.148C239.268 291.138 239.46 290.252 239.843 289.489C240.231 288.722 240.772 288.126 241.467 287.7C242.161 287.269 242.978 287.054 243.915 287.054C244.52 287.054 245.091 287.152 245.628 287.348C246.169 287.54 246.647 287.838 247.06 288.243C247.478 288.648 247.806 289.163 248.044 289.79C248.283 290.412 248.402 291.153 248.402 292.014V292.724H240.355V291.164H246.184C246.18 290.721 246.084 290.327 245.897 289.982C245.709 289.632 245.447 289.357 245.11 289.157C244.778 288.957 244.39 288.857 243.947 288.857C243.474 288.857 243.059 288.972 242.701 289.202C242.343 289.428 242.063 289.726 241.863 290.097C241.667 290.463 241.567 290.866 241.563 291.305V292.666C241.563 293.237 241.667 293.727 241.876 294.136C242.085 294.541 242.377 294.852 242.752 295.07C243.127 295.283 243.566 295.389 244.068 295.389C244.405 295.389 244.71 295.342 244.983 295.249C245.255 295.151 245.492 295.008 245.692 294.82C245.892 294.633 246.044 294.401 246.146 294.124L248.306 294.366C248.17 294.937 247.91 295.436 247.527 295.862C247.147 296.284 246.661 296.612 246.069 296.847C245.477 297.077 244.799 297.192 244.036 297.192ZM255.263 287.182V288.972H249.618V287.182H255.263ZM251.012 284.83H253.326V294.047C253.326 294.358 253.373 294.597 253.466 294.763C253.564 294.925 253.692 295.036 253.85 295.095C254.008 295.155 254.182 295.185 254.374 295.185C254.519 295.185 254.651 295.174 254.77 295.153C254.894 295.131 254.988 295.112 255.052 295.095L255.441 296.904C255.318 296.947 255.141 296.994 254.911 297.045C254.685 297.096 254.408 297.126 254.08 297.134C253.5 297.151 252.978 297.064 252.514 296.872C252.049 296.676 251.681 296.374 251.408 295.964C251.14 295.555 251.008 295.044 251.012 294.43V284.83ZM259.723 291.247V297H257.409V283.909H259.671V288.85H259.786C260.017 288.296 260.372 287.859 260.854 287.54C261.34 287.216 261.958 287.054 262.708 287.054C263.389 287.054 263.984 287.197 264.491 287.482C264.998 287.768 265.39 288.185 265.667 288.735C265.948 289.285 266.089 289.956 266.089 290.749V297H263.775V291.107C263.775 290.446 263.605 289.933 263.264 289.566C262.927 289.195 262.454 289.01 261.845 289.01C261.436 289.01 261.069 289.099 260.745 289.278C260.426 289.453 260.174 289.707 259.991 290.039C259.812 290.371 259.723 290.774 259.723 291.247ZM272.73 297.192C271.772 297.192 270.941 296.981 270.237 296.559C269.534 296.137 268.989 295.547 268.601 294.788C268.218 294.03 268.026 293.143 268.026 292.129C268.026 291.115 268.218 290.227 268.601 289.464C268.989 288.701 269.534 288.109 270.237 287.687C270.941 287.265 271.772 287.054 272.73 287.054C273.689 287.054 274.52 287.265 275.223 287.687C275.926 288.109 276.47 288.701 276.853 289.464C277.241 290.227 277.435 291.115 277.435 292.129C277.435 293.143 277.241 294.03 276.853 294.788C276.47 295.547 275.926 296.137 275.223 296.559C274.52 296.981 273.689 297.192 272.73 297.192ZM272.743 295.338C273.263 295.338 273.698 295.195 274.047 294.91C274.397 294.62 274.657 294.232 274.827 293.746C275.002 293.261 275.089 292.719 275.089 292.123C275.089 291.522 275.002 290.979 274.827 290.493C274.657 290.003 274.397 289.613 274.047 289.323C273.698 289.033 273.263 288.888 272.743 288.888C272.21 288.888 271.767 289.033 271.414 289.323C271.064 289.613 270.802 290.003 270.627 290.493C270.457 290.979 270.372 291.522 270.372 292.123C270.372 292.719 270.457 293.261 270.627 293.746C270.802 294.232 271.064 294.62 271.414 294.91C271.767 295.195 272.21 295.338 272.743 295.338ZM283.042 297.173C282.271 297.173 281.581 296.974 280.971 296.578C280.362 296.182 279.88 295.607 279.527 294.852C279.173 294.098 278.996 293.182 278.996 292.104C278.996 291.013 279.175 290.092 279.533 289.342C279.895 288.588 280.383 288.019 280.997 287.636C281.611 287.248 282.294 287.054 283.049 287.054C283.624 287.054 284.097 287.152 284.468 287.348C284.839 287.54 285.133 287.772 285.35 288.045C285.567 288.313 285.736 288.567 285.855 288.805H285.951V283.909H288.271V297H285.995V295.453H285.855C285.736 295.692 285.563 295.945 285.337 296.214C285.111 296.478 284.813 296.704 284.442 296.891C284.071 297.079 283.605 297.173 283.042 297.173ZM283.688 295.274C284.178 295.274 284.596 295.142 284.941 294.878C285.286 294.609 285.548 294.237 285.727 293.759C285.906 293.282 285.995 292.726 285.995 292.091C285.995 291.456 285.906 290.904 285.727 290.435C285.552 289.967 285.292 289.602 284.947 289.342C284.606 289.082 284.187 288.952 283.688 288.952C283.172 288.952 282.742 289.087 282.397 289.355C282.052 289.624 281.792 289.994 281.617 290.467C281.442 290.94 281.355 291.482 281.355 292.091C281.355 292.705 281.442 293.252 281.617 293.734C281.796 294.211 282.058 294.588 282.403 294.865C282.753 295.138 283.181 295.274 283.688 295.274ZM298.497 289.777L296.387 290.007C296.328 289.794 296.223 289.594 296.074 289.406C295.929 289.219 295.733 289.067 295.486 288.952C295.239 288.837 294.936 288.78 294.578 288.78C294.097 288.78 293.692 288.884 293.364 289.093C293.04 289.302 292.88 289.572 292.884 289.905C292.88 290.19 292.985 290.423 293.198 290.602C293.415 290.781 293.773 290.928 294.272 291.043L295.946 291.401C296.875 291.601 297.566 291.918 298.017 292.353C298.473 292.788 298.703 293.357 298.708 294.06C298.703 294.678 298.522 295.223 298.164 295.696C297.811 296.165 297.318 296.531 296.688 296.795C296.057 297.06 295.333 297.192 294.514 297.192C293.313 297.192 292.345 296.94 291.612 296.438C290.88 295.93 290.443 295.225 290.302 294.322L292.559 294.104C292.661 294.548 292.878 294.882 293.21 295.108C293.543 295.334 293.975 295.447 294.508 295.447C295.058 295.447 295.499 295.334 295.831 295.108C296.168 294.882 296.336 294.603 296.336 294.271C296.336 293.989 296.228 293.757 296.01 293.574C295.797 293.391 295.465 293.25 295.013 293.152L293.338 292.8C292.397 292.604 291.7 292.274 291.248 291.81C290.796 291.341 290.573 290.749 290.577 290.033C290.573 289.428 290.737 288.903 291.069 288.46C291.406 288.013 291.872 287.668 292.469 287.425C293.07 287.178 293.762 287.054 294.546 287.054C295.697 287.054 296.603 287.299 297.263 287.789C297.928 288.279 298.339 288.942 298.497 289.777ZM61.3422 322.682V309.182H63.6178V310.805H63.752C63.8714 310.567 64.0397 310.313 64.257 310.045C64.4743 309.772 64.7684 309.54 65.1391 309.348C65.5099 309.152 65.9829 309.054 66.5582 309.054C67.3167 309.054 68.0006 309.248 68.61 309.636C69.2236 310.019 69.7094 310.588 70.0674 311.342C70.4296 312.092 70.6107 313.013 70.6107 314.104C70.6107 315.182 70.4339 316.098 70.0802 316.852C69.7265 317.607 69.2449 318.182 68.6356 318.578C68.0262 318.974 67.3358 319.173 66.5645 319.173C66.002 319.173 65.5354 319.079 65.1647 318.891C64.7939 318.704 64.4957 318.478 64.2698 318.214C64.0482 317.945 63.8756 317.692 63.752 317.453H63.6562V322.682H61.3422ZM63.6114 314.091C63.6114 314.726 63.7009 315.282 63.8799 315.759C64.0631 316.237 64.3252 316.609 64.6661 316.878C65.0113 317.142 65.4289 317.274 65.9189 317.274C66.4303 317.274 66.8586 317.138 67.2037 316.865C67.5489 316.588 67.8089 316.211 67.9836 315.734C68.1626 315.252 68.252 314.705 68.252 314.091C68.252 313.482 68.1647 312.94 67.99 312.467C67.8153 311.994 67.5553 311.624 67.2101 311.355C66.865 311.087 66.4346 310.952 65.9189 310.952C65.4246 310.952 65.0049 311.082 64.6597 311.342C64.3145 311.602 64.0525 311.967 63.8735 312.435C63.6988 312.904 63.6114 313.456 63.6114 314.091ZM76.8749 319.192C75.9161 319.192 75.0851 318.981 74.382 318.559C73.6789 318.137 73.1334 317.547 72.7456 316.788C72.3621 316.03 72.1704 315.143 72.1704 314.129C72.1704 313.115 72.3621 312.227 72.7456 311.464C73.1334 310.701 73.6789 310.109 74.382 309.687C75.0851 309.265 75.9161 309.054 76.8749 309.054C77.8337 309.054 78.6647 309.265 79.3678 309.687C80.0709 310.109 80.6143 310.701 80.9978 311.464C81.3856 312.227 81.5795 313.115 81.5795 314.129C81.5795 315.143 81.3856 316.03 80.9978 316.788C80.6143 317.547 80.0709 318.137 79.3678 318.559C78.6647 318.981 77.8337 319.192 76.8749 319.192ZM76.8877 317.338C77.4076 317.338 77.8422 317.195 78.1917 316.91C78.5411 316.62 78.801 316.232 78.9715 315.746C79.1462 315.261 79.2336 314.719 79.2336 314.123C79.2336 313.522 79.1462 312.979 78.9715 312.493C78.801 312.003 78.5411 311.613 78.1917 311.323C77.8422 311.033 77.4076 310.888 76.8877 310.888C76.355 310.888 75.9118 311.033 75.5582 311.323C75.2087 311.613 74.9466 312.003 74.7719 312.493C74.6015 312.979 74.5162 313.522 74.5162 314.123C74.5162 314.719 74.6015 315.261 74.7719 315.746C74.9466 316.232 75.2087 316.62 75.5582 316.91C75.9118 317.195 76.355 317.338 76.8877 317.338ZM87.1869 319.173C86.4156 319.173 85.7252 318.974 85.1159 318.578C84.5065 318.182 84.0249 317.607 83.6713 316.852C83.3176 316.098 83.1407 315.182 83.1407 314.104C83.1407 313.013 83.3197 312.092 83.6776 311.342C84.0399 310.588 84.5278 310.019 85.1414 309.636C85.7551 309.248 86.439 309.054 87.1933 309.054C87.7686 309.054 88.2416 309.152 88.6123 309.348C88.983 309.54 89.2771 309.772 89.4944 310.045C89.7117 310.313 89.8801 310.567 89.9994 310.805H90.0953V305.909H92.4156V319H90.14V317.453H89.9994C89.8801 317.692 89.7075 317.945 89.4816 318.214C89.2558 318.478 88.9575 318.704 88.5867 318.891C88.216 319.079 87.7494 319.173 87.1869 319.173ZM87.8325 317.274C88.3225 317.274 88.7401 317.142 89.0853 316.878C89.4305 316.609 89.6926 316.237 89.8715 315.759C90.0505 315.282 90.14 314.726 90.14 314.091C90.14 313.456 90.0505 312.904 89.8715 312.435C89.6968 311.967 89.4369 311.602 89.0917 311.342C88.7508 311.082 88.3311 310.952 87.8325 310.952C87.3169 310.952 86.8865 311.087 86.5413 311.355C86.1961 311.624 85.9362 311.994 85.7615 312.467C85.5867 312.94 85.4994 313.482 85.4994 314.091C85.4994 314.705 85.5867 315.252 85.7615 315.734C85.9404 316.211 86.2025 316.588 86.5477 316.865C86.8971 317.138 87.3254 317.274 87.8325 317.274ZM99.2279 319.192C98.2435 319.192 97.3934 318.987 96.6775 318.578C95.9658 318.165 95.4182 317.581 95.0347 316.827C94.6512 316.068 94.4594 315.175 94.4594 314.148C94.4594 313.138 94.6512 312.252 95.0347 311.489C95.4225 310.722 95.9637 310.126 96.6583 309.7C97.3529 309.269 98.1689 309.054 99.1064 309.054C99.7116 309.054 100.283 309.152 100.82 309.348C101.361 309.54 101.838 309.838 102.251 310.243C102.669 310.648 102.997 311.163 103.236 311.79C103.474 312.412 103.594 313.153 103.594 314.014V314.724H95.5461V313.164H101.376C101.371 312.721 101.275 312.327 101.088 311.982C100.9 311.632 100.638 311.357 100.302 311.157C99.9694 310.957 99.5816 310.857 99.1384 310.857C98.6654 310.857 98.2499 310.972 97.892 311.202C97.534 311.428 97.2549 311.726 97.0546 312.097C96.8586 312.463 96.7584 312.866 96.7542 313.305V314.666C96.7542 315.237 96.8586 315.727 97.0674 316.136C97.2762 316.541 97.5681 316.852 97.9431 317.07C98.3181 317.283 98.757 317.389 99.2599 317.389C99.5965 317.389 99.9012 317.342 100.174 317.249C100.447 317.151 100.683 317.008 100.883 316.82C101.084 316.633 101.235 316.401 101.337 316.124L103.498 316.366C103.361 316.937 103.101 317.436 102.718 317.862C102.339 318.284 101.853 318.612 101.261 318.847C100.668 319.077 99.9907 319.192 99.2279 319.192ZM117.776 311.777L115.667 312.007C115.607 311.794 115.503 311.594 115.353 311.406C115.209 311.219 115.013 311.067 114.765 310.952C114.518 310.837 114.216 310.78 113.858 310.78C113.376 310.78 112.971 310.884 112.643 311.093C112.319 311.302 112.16 311.572 112.164 311.905C112.16 312.19 112.264 312.423 112.477 312.602C112.694 312.781 113.052 312.928 113.551 313.043L115.226 313.401C116.155 313.601 116.845 313.918 117.297 314.353C117.753 314.788 117.983 315.357 117.987 316.06C117.983 316.678 117.802 317.223 117.444 317.696C117.09 318.165 116.598 318.531 115.967 318.795C115.336 319.06 114.612 319.192 113.794 319.192C112.592 319.192 111.625 318.94 110.892 318.438C110.159 317.93 109.722 317.225 109.581 316.322L111.838 316.104C111.94 316.548 112.157 316.882 112.49 317.108C112.822 317.334 113.255 317.447 113.787 317.447C114.337 317.447 114.778 317.334 115.111 317.108C115.447 316.882 115.616 316.603 115.616 316.271C115.616 315.989 115.507 315.757 115.29 315.574C115.076 315.391 114.744 315.25 114.292 315.152L112.618 314.8C111.676 314.604 110.979 314.274 110.527 313.81C110.076 313.341 109.852 312.749 109.856 312.033C109.852 311.428 110.016 310.903 110.348 310.46C110.685 310.013 111.152 309.668 111.748 309.425C112.349 309.178 113.042 309.054 113.826 309.054C114.976 309.054 115.882 309.299 116.542 309.789C117.207 310.279 117.618 310.942 117.776 311.777ZM124.242 319.192C123.257 319.192 122.407 318.987 121.691 318.578C120.979 318.165 120.432 317.581 120.048 316.827C119.665 316.068 119.473 315.175 119.473 314.148C119.473 313.138 119.665 312.252 120.048 311.489C120.436 310.722 120.977 310.126 121.672 309.7C122.367 309.269 123.183 309.054 124.12 309.054C124.725 309.054 125.296 309.152 125.833 309.348C126.374 309.54 126.852 309.838 127.265 310.243C127.683 310.648 128.011 311.163 128.249 311.79C128.488 312.412 128.607 313.153 128.607 314.014V314.724H120.56V313.164H126.389C126.385 312.721 126.289 312.327 126.102 311.982C125.914 311.632 125.652 311.357 125.315 311.157C124.983 310.957 124.595 310.857 124.152 310.857C123.679 310.857 123.264 310.972 122.906 311.202C122.548 311.428 122.269 311.726 122.068 312.097C121.872 312.463 121.772 312.866 121.768 313.305V314.666C121.768 315.237 121.872 315.727 122.081 316.136C122.29 316.541 122.582 316.852 122.957 317.07C123.332 317.283 123.771 317.389 124.274 317.389C124.61 317.389 124.915 317.342 125.188 317.249C125.46 317.151 125.697 317.008 125.897 316.82C126.097 316.633 126.249 316.401 126.351 316.124L128.511 316.366C128.375 316.937 128.115 317.436 127.732 317.862C127.352 318.284 126.867 318.612 126.274 318.847C125.682 319.077 125.004 319.192 124.242 319.192ZM130.565 319V309.182H132.809V310.818H132.911C133.09 310.251 133.397 309.815 133.831 309.508C134.27 309.197 134.771 309.041 135.333 309.041C135.461 309.041 135.604 309.048 135.762 309.06C135.924 309.069 136.058 309.084 136.164 309.105V311.234C136.066 311.2 135.911 311.17 135.698 311.144C135.489 311.114 135.286 311.099 135.09 311.099C134.669 311.099 134.289 311.191 133.953 311.374C133.62 311.553 133.358 311.803 133.166 312.122C132.975 312.442 132.879 312.81 132.879 313.228V319H130.565ZM146.436 322.886C145.605 322.886 144.892 322.773 144.295 322.548C143.698 322.326 143.219 322.028 142.857 321.653C142.495 321.278 142.243 320.862 142.103 320.406L144.186 319.901C144.28 320.093 144.416 320.283 144.595 320.47C144.774 320.662 145.015 320.82 145.318 320.943C145.625 321.071 146.01 321.135 146.475 321.135C147.131 321.135 147.674 320.975 148.105 320.656C148.535 320.34 148.75 319.82 148.75 319.096V317.236H148.635C148.516 317.474 148.341 317.719 148.111 317.971C147.885 318.222 147.585 318.433 147.21 318.604C146.839 318.774 146.372 318.859 145.81 318.859C145.056 318.859 144.372 318.683 143.758 318.329C143.149 317.971 142.663 317.438 142.301 316.731C141.943 316.019 141.764 315.129 141.764 314.059C141.764 312.981 141.943 312.071 142.301 311.33C142.663 310.584 143.151 310.019 143.764 309.636C144.378 309.248 145.062 309.054 145.816 309.054C146.392 309.054 146.865 309.152 147.235 309.348C147.61 309.54 147.909 309.772 148.13 310.045C148.352 310.313 148.52 310.567 148.635 310.805H148.763V309.182H151.045V319.16C151.045 319.999 150.845 320.694 150.444 321.244C150.044 321.793 149.496 322.205 148.801 322.477C148.107 322.75 147.318 322.886 146.436 322.886ZM146.456 317.044C146.946 317.044 147.363 316.925 147.708 316.686C148.054 316.447 148.316 316.104 148.495 315.657C148.674 315.21 148.763 314.673 148.763 314.046C148.763 313.428 148.674 312.887 148.495 312.423C148.32 311.958 148.06 311.598 147.715 311.342C147.374 311.082 146.954 310.952 146.456 310.952C145.94 310.952 145.509 311.087 145.164 311.355C144.819 311.624 144.559 311.992 144.384 312.461C144.21 312.925 144.122 313.454 144.122 314.046C144.122 314.647 144.21 315.173 144.384 315.625C144.563 316.072 144.826 316.422 145.171 316.673C145.52 316.92 145.948 317.044 146.456 317.044ZM157.763 319.192C156.779 319.192 155.929 318.987 155.213 318.578C154.501 318.165 153.953 317.581 153.57 316.827C153.186 316.068 152.995 315.175 152.995 314.148C152.995 313.138 153.186 312.252 153.57 311.489C153.958 310.722 154.499 310.126 155.193 309.7C155.888 309.269 156.704 309.054 157.642 309.054C158.247 309.054 158.818 309.152 159.355 309.348C159.896 309.54 160.373 309.838 160.786 310.243C161.204 310.648 161.532 311.163 161.771 311.79C162.009 312.412 162.129 313.153 162.129 314.014V314.724H154.081V313.164H159.911C159.907 312.721 159.811 312.327 159.623 311.982C159.436 311.632 159.174 311.357 158.837 311.157C158.505 310.957 158.117 310.857 157.674 310.857C157.201 310.857 156.785 310.972 156.427 311.202C156.069 311.428 155.79 311.726 155.59 312.097C155.394 312.463 155.294 312.866 155.289 313.305V314.666C155.289 315.237 155.394 315.727 155.603 316.136C155.811 316.541 156.103 316.852 156.478 317.07C156.853 317.283 157.292 317.389 157.795 317.389C158.132 317.389 158.436 317.342 158.709 317.249C158.982 317.151 159.218 317.008 159.419 316.82C159.619 316.633 159.77 316.401 159.872 316.124L162.033 316.366C161.897 316.937 161.637 317.436 161.253 317.862C160.874 318.284 160.388 318.612 159.796 318.847C159.203 319.077 158.526 319.192 157.763 319.192ZM164.086 319V309.182H166.33V310.818H166.432C166.611 310.251 166.918 309.815 167.353 309.508C167.792 309.197 168.292 309.041 168.855 309.041C168.983 309.041 169.125 309.048 169.283 309.06C169.445 309.069 169.579 309.084 169.686 309.105V311.234C169.588 311.2 169.432 311.17 169.219 311.144C169.01 311.114 168.808 311.099 168.612 311.099C168.19 311.099 167.811 311.191 167.474 311.374C167.142 311.553 166.88 311.803 166.688 312.122C166.496 312.442 166.4 312.81 166.4 313.228V319H164.086ZM173.873 319.198C173.25 319.198 172.69 319.087 172.191 318.866C171.697 318.64 171.305 318.308 171.015 317.869C170.73 317.43 170.587 316.888 170.587 316.245C170.587 315.691 170.689 315.233 170.894 314.871C171.098 314.509 171.378 314.219 171.731 314.001C172.085 313.784 172.483 313.62 172.927 313.509C173.374 313.394 173.836 313.311 174.314 313.26C174.889 313.2 175.356 313.147 175.714 313.1C176.071 313.049 176.331 312.972 176.493 312.87C176.66 312.763 176.743 312.599 176.743 312.378V312.339C176.743 311.858 176.6 311.485 176.314 311.221C176.029 310.957 175.618 310.825 175.081 310.825C174.514 310.825 174.064 310.948 173.732 311.195C173.404 311.442 173.182 311.734 173.067 312.071L170.907 311.764C171.077 311.168 171.358 310.669 171.75 310.268C172.142 309.864 172.622 309.561 173.189 309.361C173.755 309.156 174.382 309.054 175.068 309.054C175.541 309.054 176.012 309.109 176.481 309.22C176.949 309.331 177.378 309.514 177.765 309.77C178.153 310.021 178.464 310.364 178.699 310.799C178.937 311.234 179.057 311.777 179.057 312.429V319H176.832V317.651H176.755C176.615 317.924 176.417 318.18 176.161 318.418C175.91 318.653 175.592 318.842 175.209 318.987C174.829 319.128 174.384 319.198 173.873 319.198ZM174.473 317.498C174.938 317.498 175.341 317.406 175.682 317.223C176.022 317.036 176.285 316.788 176.468 316.482C176.655 316.175 176.749 315.84 176.749 315.478V314.321C176.677 314.381 176.553 314.436 176.378 314.487C176.208 314.538 176.016 314.583 175.803 314.621C175.59 314.66 175.379 314.694 175.17 314.724C174.961 314.754 174.78 314.779 174.627 314.8C174.282 314.847 173.973 314.924 173.7 315.031C173.427 315.137 173.212 315.286 173.054 315.478C172.897 315.665 172.818 315.908 172.818 316.207C172.818 316.633 172.973 316.955 173.285 317.172C173.596 317.389 173.992 317.498 174.473 317.498ZM185.027 319.173C184.255 319.173 183.565 318.974 182.956 318.578C182.346 318.182 181.865 317.607 181.511 316.852C181.157 316.098 180.981 315.182 180.981 314.104C180.981 313.013 181.16 312.092 181.517 311.342C181.88 310.588 182.368 310.019 182.981 309.636C183.595 309.248 184.279 309.054 185.033 309.054C185.608 309.054 186.081 309.152 186.452 309.348C186.823 309.54 187.117 309.772 187.334 310.045C187.552 310.313 187.72 310.567 187.839 310.805H187.935V305.909H190.255V319H187.98V317.453H187.839C187.72 317.692 187.547 317.945 187.321 318.214C187.096 318.478 186.797 318.704 186.427 318.891C186.056 319.079 185.589 319.173 185.027 319.173ZM185.672 317.274C186.162 317.274 186.58 317.142 186.925 316.878C187.27 316.609 187.532 316.237 187.711 315.759C187.89 315.282 187.98 314.726 187.98 314.091C187.98 313.456 187.89 312.904 187.711 312.435C187.537 311.967 187.277 311.602 186.932 311.342C186.591 311.082 186.171 310.952 185.672 310.952C185.157 310.952 184.726 311.087 184.381 311.355C184.036 311.624 183.776 311.994 183.601 312.467C183.427 312.94 183.339 313.482 183.339 314.091C183.339 314.705 183.427 315.252 183.601 315.734C183.78 316.211 184.042 316.588 184.388 316.865C184.737 317.138 185.165 317.274 185.672 317.274ZM197.004 319.192C196.045 319.192 195.214 318.981 194.511 318.559C193.808 318.137 193.262 317.547 192.875 316.788C192.491 316.03 192.299 315.143 192.299 314.129C192.299 313.115 192.491 312.227 192.875 311.464C193.262 310.701 193.808 310.109 194.511 309.687C195.214 309.265 196.045 309.054 197.004 309.054C197.963 309.054 198.794 309.265 199.497 309.687C200.2 310.109 200.743 310.701 201.127 311.464C201.514 312.227 201.708 313.115 201.708 314.129C201.708 315.143 201.514 316.03 201.127 316.788C200.743 317.547 200.2 318.137 199.497 318.559C198.794 318.981 197.963 319.192 197.004 319.192ZM197.017 317.338C197.536 317.338 197.971 317.195 198.321 316.91C198.67 316.62 198.93 316.232 199.1 315.746C199.275 315.261 199.362 314.719 199.362 314.123C199.362 313.522 199.275 312.979 199.1 312.493C198.93 312.003 198.67 311.613 198.321 311.323C197.971 311.033 197.536 310.888 197.017 310.888C196.484 310.888 196.041 311.033 195.687 311.323C195.338 311.613 195.076 312.003 194.901 312.493C194.73 312.979 194.645 313.522 194.645 314.123C194.645 314.719 194.73 315.261 194.901 315.746C195.076 316.232 195.338 316.62 195.687 316.91C196.041 317.195 196.484 317.338 197.017 317.338ZM208.137 322.682V309.182H210.413V310.805H210.547C210.666 310.567 210.835 310.313 211.052 310.045C211.269 309.772 211.563 309.54 211.934 309.348C212.305 309.152 212.778 309.054 213.353 309.054C214.112 309.054 214.796 309.248 215.405 309.636C216.019 310.019 216.504 310.588 216.862 311.342C217.225 312.092 217.406 313.013 217.406 314.104C217.406 315.182 217.229 316.098 216.875 316.852C216.521 317.607 216.04 318.182 215.43 318.578C214.821 318.974 214.131 319.173 213.359 319.173C212.797 319.173 212.33 319.079 211.96 318.891C211.589 318.704 211.291 318.478 211.065 318.214C210.843 317.945 210.671 317.692 210.547 317.453H210.451V322.682H208.137ZM210.406 314.091C210.406 314.726 210.496 315.282 210.675 315.759C210.858 316.237 211.12 316.609 211.461 316.878C211.806 317.142 212.224 317.274 212.714 317.274C213.225 317.274 213.653 317.138 213.999 316.865C214.344 316.588 214.604 316.211 214.778 315.734C214.957 315.252 215.047 314.705 215.047 314.091C215.047 313.482 214.96 312.94 214.785 312.467C214.61 311.994 214.35 311.624 214.005 311.355C213.66 311.087 213.229 310.952 212.714 310.952C212.22 310.952 211.8 311.082 211.455 311.342C211.109 311.602 210.847 311.967 210.668 312.435C210.494 312.904 210.406 313.456 210.406 314.091ZM223.67 319.192C222.711 319.192 221.88 318.981 221.177 318.559C220.474 318.137 219.928 317.547 219.541 316.788C219.157 316.03 218.965 315.143 218.965 314.129C218.965 313.115 219.157 312.227 219.541 311.464C219.928 310.701 220.474 310.109 221.177 309.687C221.88 309.265 222.711 309.054 223.67 309.054C224.629 309.054 225.46 309.265 226.163 309.687C226.866 310.109 227.409 310.701 227.793 311.464C228.18 312.227 228.374 313.115 228.374 314.129C228.374 315.143 228.18 316.03 227.793 316.788C227.409 317.547 226.866 318.137 226.163 318.559C225.46 318.981 224.629 319.192 223.67 319.192ZM223.683 317.338C224.203 317.338 224.637 317.195 224.987 316.91C225.336 316.62 225.596 316.232 225.766 315.746C225.941 315.261 226.028 314.719 226.028 314.123C226.028 313.522 225.941 312.979 225.766 312.493C225.596 312.003 225.336 311.613 224.987 311.323C224.637 311.033 224.203 310.888 223.683 310.888C223.15 310.888 222.707 311.033 222.353 311.323C222.004 311.613 221.742 312.003 221.567 312.493C221.396 312.979 221.311 313.522 221.311 314.123C221.311 314.719 221.396 315.261 221.567 315.746C221.742 316.232 222.004 316.62 222.353 316.91C222.707 317.195 223.15 317.338 223.683 317.338ZM230.338 319V309.182H232.582V310.818H232.684C232.863 310.251 233.17 309.815 233.605 309.508C234.044 309.197 234.544 309.041 235.107 309.041C235.235 309.041 235.377 309.048 235.535 309.06C235.697 309.069 235.831 309.084 235.938 309.105V311.234C235.84 311.2 235.684 311.17 235.471 311.144C235.262 311.114 235.06 311.099 234.864 311.099C234.442 311.099 234.063 311.191 233.726 311.374C233.394 311.553 233.132 311.803 232.94 312.122C232.748 312.442 232.652 312.81 232.652 313.228V319H230.338ZM250.71 309.182L247.213 319H244.657L241.16 309.182H243.627L245.884 316.475H245.986L248.249 309.182H250.71ZM256.324 319.192C255.339 319.192 254.489 318.987 253.773 318.578C253.062 318.165 252.514 317.581 252.13 316.827C251.747 316.068 251.555 315.175 251.555 314.148C251.555 313.138 251.747 312.252 252.13 311.489C252.518 310.722 253.059 310.126 253.754 309.7C254.449 309.269 255.265 309.054 256.202 309.054C256.807 309.054 257.378 309.152 257.915 309.348C258.456 309.54 258.934 309.838 259.347 310.243C259.765 310.648 260.093 311.163 260.331 311.79C260.57 312.412 260.689 313.153 260.689 314.014V314.724H252.642V313.164H258.471C258.467 312.721 258.371 312.327 258.184 311.982C257.996 311.632 257.734 311.357 257.397 311.157C257.065 310.957 256.677 310.857 256.234 310.857C255.761 310.857 255.346 310.972 254.988 311.202C254.63 311.428 254.351 311.726 254.15 312.097C253.954 312.463 253.854 312.866 253.85 313.305V314.666C253.85 315.237 253.954 315.727 254.163 316.136C254.372 316.541 254.664 316.852 255.039 317.07C255.414 317.283 255.853 317.389 256.356 317.389C256.692 317.389 256.997 317.342 257.27 317.249C257.542 317.151 257.779 317.008 257.979 316.82C258.179 316.633 258.331 316.401 258.433 316.124L260.593 316.366C260.457 316.937 260.197 317.436 259.814 317.862C259.434 318.284 258.949 318.612 258.356 318.847C257.764 319.077 257.086 319.192 256.324 319.192ZM262.519 319V317.53L267.582 311.183V311.099H262.685V309.182H270.413V310.761L265.594 316.999V317.082H270.579V319H262.519ZM274.18 319.141C273.792 319.141 273.46 319.004 273.183 318.732C272.906 318.459 272.769 318.126 272.774 317.734C272.769 317.351 272.906 317.023 273.183 316.75C273.46 316.477 273.792 316.341 274.18 316.341C274.555 316.341 274.881 316.477 275.158 316.75C275.439 317.023 275.582 317.351 275.586 317.734C275.582 317.994 275.514 318.231 275.381 318.444C275.254 318.657 275.083 318.827 274.87 318.955C274.661 319.079 274.431 319.141 274.18 319.141ZM45.2199 341V327.909H50.129C51.1347 327.909 51.9784 328.097 52.6602 328.472C53.3463 328.847 53.8641 329.362 54.2135 330.018C54.5672 330.67 54.7441 331.412 54.7441 332.243C54.7441 333.082 54.5672 333.828 54.2135 334.48C53.8598 335.132 53.3378 335.646 52.6475 336.021C51.9571 336.391 51.107 336.577 50.097 336.577H46.8435V334.627H49.7774C50.3655 334.627 50.847 334.525 51.222 334.32C51.597 334.116 51.874 333.835 52.053 333.477C52.2362 333.119 52.3279 332.707 52.3279 332.243C52.3279 331.778 52.2362 331.369 52.053 331.016C51.874 330.662 51.5949 330.387 51.2156 330.191C50.8406 329.991 50.357 329.891 49.7646 329.891H47.5914V341H45.2199ZM60.8437 341.192C59.8849 341.192 59.0539 340.981 58.3508 340.559C57.6476 340.137 57.1022 339.547 56.7144 338.788C56.3309 338.03 56.1391 337.143 56.1391 336.129C56.1391 335.115 56.3309 334.227 56.7144 333.464C57.1022 332.701 57.6476 332.109 58.3508 331.687C59.0539 331.265 59.8849 331.054 60.8437 331.054C61.8025 331.054 62.6334 331.265 63.3366 331.687C64.0397 332.109 64.583 332.701 64.9665 333.464C65.3543 334.227 65.5482 335.115 65.5482 336.129C65.5482 337.143 65.3543 338.03 64.9665 338.788C64.583 339.547 64.0397 340.137 63.3366 340.559C62.6334 340.981 61.8025 341.192 60.8437 341.192ZM60.8564 339.338C61.3763 339.338 61.811 339.195 62.1604 338.91C62.5099 338.62 62.7698 338.232 62.9403 337.746C63.115 337.261 63.2023 336.719 63.2023 336.123C63.2023 335.522 63.115 334.979 62.9403 334.493C62.7698 334.003 62.5099 333.613 62.1604 333.323C61.811 333.033 61.3763 332.888 60.8564 332.888C60.3238 332.888 59.8806 333.033 59.5269 333.323C59.1775 333.613 58.9154 334.003 58.7407 334.493C58.5702 334.979 58.485 335.522 58.485 336.123C58.485 336.719 58.5702 337.261 58.7407 337.746C58.9154 338.232 59.1775 338.62 59.5269 338.91C59.8806 339.195 60.3238 339.338 60.8564 339.338ZM67.5122 341V331.182H69.7558V332.818H69.858C70.037 332.251 70.3438 331.815 70.7785 331.508C71.2174 331.197 71.7181 331.041 72.2806 331.041C72.4085 331.041 72.5512 331.048 72.7089 331.06C72.8708 331.069 73.0051 331.084 73.1116 331.105V333.234C73.0136 333.2 72.858 333.17 72.645 333.144C72.4362 333.114 72.2338 333.099 72.0377 333.099C71.6159 333.099 71.2366 333.191 70.8999 333.374C70.5676 333.553 70.3055 333.803 70.1137 334.122C69.922 334.442 69.8261 334.81 69.8261 335.228V341H67.5122ZM84.0867 331.182V332.972H78.2828V331.182H84.0867ZM79.7338 341V330.255C79.7338 329.594 79.8701 329.045 80.1428 328.606C80.4198 328.167 80.7906 327.839 81.2551 327.621C81.7195 327.404 82.2352 327.295 82.8019 327.295C83.2025 327.295 83.5583 327.327 83.8694 327.391C84.1805 327.455 84.4106 327.513 84.5597 327.564L84.0995 329.354C84.0015 329.324 83.8779 329.294 83.7288 329.264C83.5796 329.23 83.4134 329.213 83.2302 329.213C82.7998 329.213 82.4951 329.317 82.3161 329.526C82.1414 329.731 82.0541 330.025 82.0541 330.408V341H79.7338ZM88.3902 341.198C87.768 341.198 87.2077 341.087 86.7091 340.866C86.2148 340.64 85.8227 340.308 85.5329 339.869C85.2474 339.43 85.1047 338.888 85.1047 338.245C85.1047 337.691 85.2069 337.233 85.4115 336.871C85.616 336.509 85.8952 336.219 86.2488 336.001C86.6025 335.784 87.001 335.62 87.4442 335.509C87.8916 335.394 88.354 335.311 88.8312 335.26C89.4065 335.2 89.8731 335.147 90.2311 335.1C90.589 335.049 90.849 334.972 91.0109 334.87C91.1771 334.763 91.2602 334.599 91.2602 334.378V334.339C91.2602 333.858 91.1175 333.485 90.8319 333.221C90.5464 332.957 90.1352 332.825 89.5983 332.825C89.0315 332.825 88.5819 332.948 88.2496 333.195C87.9214 333.442 87.6998 333.734 87.5848 334.071L85.4243 333.764C85.5947 333.168 85.876 332.669 86.268 332.268C86.6601 331.864 87.1395 331.561 87.7062 331.361C88.273 331.156 88.8994 331.054 89.5855 331.054C90.0585 331.054 90.5294 331.109 90.9981 331.22C91.4669 331.331 91.8952 331.514 92.2829 331.77C92.6707 332.021 92.9818 332.364 93.2162 332.799C93.4548 333.234 93.5741 333.777 93.5741 334.429V341H91.3497V339.651H91.273C91.1324 339.924 90.9342 340.18 90.6785 340.418C90.4271 340.653 90.1096 340.842 89.7261 340.987C89.3469 341.128 88.9015 341.198 88.3902 341.198ZM88.991 339.498C89.4555 339.498 89.8582 339.406 90.1991 339.223C90.54 339.036 90.8021 338.788 90.9854 338.482C91.1729 338.175 91.2666 337.84 91.2666 337.478V336.321C91.1942 336.381 91.0706 336.436 90.8959 336.487C90.7254 336.538 90.5336 336.583 90.3206 336.621C90.1075 336.66 89.8966 336.694 89.6878 336.724C89.479 336.754 89.2979 336.779 89.1444 336.8C88.7993 336.847 88.4903 336.924 88.2176 337.031C87.9449 337.137 87.7297 337.286 87.572 337.478C87.4143 337.665 87.3355 337.908 87.3355 338.207C87.3355 338.633 87.491 338.955 87.8021 339.172C88.1132 339.389 88.5095 339.498 88.991 339.498ZM104.319 331.182L100.823 341H98.2659L94.7694 331.182H97.2368L99.4932 338.475H99.5954L101.858 331.182H104.319ZM109.869 341.192C108.91 341.192 108.079 340.981 107.376 340.559C106.673 340.137 106.128 339.547 105.74 338.788C105.356 338.03 105.165 337.143 105.165 336.129C105.165 335.115 105.356 334.227 105.74 333.464C106.128 332.701 106.673 332.109 107.376 331.687C108.079 331.265 108.91 331.054 109.869 331.054C110.828 331.054 111.659 331.265 112.362 331.687C113.065 332.109 113.608 332.701 113.992 333.464C114.38 334.227 114.574 335.115 114.574 336.129C114.574 337.143 114.38 338.03 113.992 338.788C113.608 339.547 113.065 340.137 112.362 340.559C111.659 340.981 110.828 341.192 109.869 341.192ZM109.882 339.338C110.402 339.338 110.836 339.195 111.186 338.91C111.535 338.62 111.795 338.232 111.966 337.746C112.14 337.261 112.228 336.719 112.228 336.123C112.228 335.522 112.14 334.979 111.966 334.493C111.795 334.003 111.535 333.613 111.186 333.323C110.836 333.033 110.402 332.888 109.882 332.888C109.349 332.888 108.906 333.033 108.552 333.323C108.203 333.613 107.941 334.003 107.766 334.493C107.596 334.979 107.51 335.522 107.51 336.123C107.51 336.719 107.596 337.261 107.766 337.746C107.941 338.232 108.203 338.62 108.552 338.91C108.906 339.195 109.349 339.338 109.882 339.338ZM116.538 341V331.182H118.781V332.818H118.883C119.062 332.251 119.369 331.815 119.804 331.508C120.243 331.197 120.744 331.041 121.306 331.041C121.434 331.041 121.577 331.048 121.734 331.06C121.896 331.069 122.03 331.084 122.137 331.105V333.234C122.039 333.2 121.883 333.17 121.67 333.144C121.462 333.114 121.259 333.099 121.063 333.099C120.641 333.099 120.262 333.191 119.925 333.374C119.593 333.553 119.331 333.803 119.139 334.122C118.947 334.442 118.851 334.81 118.851 335.228V341H116.538ZM125.266 339.21L125.183 339.913C125.123 340.45 125.017 340.996 124.863 341.55C124.714 342.108 124.556 342.621 124.39 343.09C124.224 343.559 124.09 343.928 123.987 344.196H122.428C122.487 343.936 122.568 343.582 122.671 343.135C122.777 342.688 122.88 342.185 122.978 341.626C123.076 341.068 123.142 340.501 123.176 339.926L123.22 339.21H125.266ZM136.891 331.182V332.972H131.087V331.182H136.891ZM132.538 341V330.255C132.538 329.594 132.675 329.045 132.948 328.606C133.225 328.167 133.595 327.839 134.06 327.621C134.524 327.404 135.04 327.295 135.607 327.295C136.007 327.295 136.363 327.327 136.674 327.391C136.985 327.455 137.215 327.513 137.364 327.564L136.904 329.354C136.806 329.324 136.683 329.294 136.533 329.264C136.384 329.23 136.218 329.213 136.035 329.213C135.604 329.213 135.3 329.317 135.121 329.526C134.946 329.731 134.859 330.025 134.859 330.408V341H132.538ZM142.617 341.192C141.658 341.192 140.827 340.981 140.124 340.559C139.421 340.137 138.876 339.547 138.488 338.788C138.104 338.03 137.913 337.143 137.913 336.129C137.913 335.115 138.104 334.227 138.488 333.464C138.876 332.701 139.421 332.109 140.124 331.687C140.827 331.265 141.658 331.054 142.617 331.054C143.576 331.054 144.407 331.265 145.11 331.687C145.813 332.109 146.356 332.701 146.74 333.464C147.128 334.227 147.322 335.115 147.322 336.129C147.322 337.143 147.128 338.03 146.74 338.788C146.356 339.547 145.813 340.137 145.11 340.559C144.407 340.981 143.576 341.192 142.617 341.192ZM142.63 339.338C143.15 339.338 143.584 339.195 143.934 338.91C144.283 338.62 144.543 338.232 144.714 337.746C144.888 337.261 144.976 336.719 144.976 336.123C144.976 335.522 144.888 334.979 144.714 334.493C144.543 334.003 144.283 333.613 143.934 333.323C143.584 333.033 143.15 332.888 142.63 332.888C142.097 332.888 141.654 333.033 141.3 333.323C140.951 333.613 140.689 334.003 140.514 334.493C140.344 334.979 140.258 335.522 140.258 336.123C140.258 336.719 140.344 337.261 140.514 337.746C140.689 338.232 140.951 338.62 141.3 338.91C141.654 339.195 142.097 339.338 142.63 339.338ZM149.286 341V331.182H151.529V332.818H151.631C151.81 332.251 152.117 331.815 152.552 331.508C152.991 331.197 153.492 331.041 154.054 331.041C154.182 331.041 154.325 331.048 154.482 331.06C154.644 331.069 154.778 331.084 154.885 331.105V333.234C154.787 333.2 154.631 333.17 154.418 333.144C154.21 333.114 154.007 333.099 153.811 333.099C153.389 333.099 153.01 333.191 152.673 333.374C152.341 333.553 152.079 333.803 151.887 334.122C151.695 334.442 151.6 334.81 151.6 335.228V341H149.286ZM158.736 335.247V341H156.422V331.182H158.634V332.85H158.749C158.975 332.3 159.335 331.864 159.829 331.54C160.328 331.216 160.944 331.054 161.677 331.054C162.354 331.054 162.944 331.199 163.447 331.489C163.954 331.778 164.346 332.198 164.623 332.748C164.905 333.298 165.043 333.964 165.039 334.749V341H162.725V335.107C162.725 334.45 162.554 333.937 162.214 333.566C161.877 333.195 161.41 333.01 160.814 333.01C160.409 333.01 160.049 333.099 159.733 333.278C159.422 333.453 159.177 333.707 158.998 334.039C158.824 334.371 158.736 334.774 158.736 335.247ZM171.738 341.192C170.753 341.192 169.903 340.987 169.187 340.578C168.476 340.165 167.928 339.581 167.544 338.827C167.161 338.068 166.969 337.175 166.969 336.148C166.969 335.138 167.161 334.252 167.544 333.489C167.932 332.722 168.473 332.126 169.168 331.7C169.863 331.269 170.679 331.054 171.616 331.054C172.221 331.054 172.792 331.152 173.329 331.348C173.87 331.54 174.348 331.838 174.761 332.243C175.179 332.648 175.507 333.163 175.745 333.79C175.984 334.412 176.103 335.153 176.103 336.014V336.724H168.056V335.164H173.885C173.881 334.721 173.785 334.327 173.598 333.982C173.41 333.632 173.148 333.357 172.812 333.157C172.479 332.957 172.091 332.857 171.648 332.857C171.175 332.857 170.76 332.972 170.402 333.202C170.044 333.428 169.765 333.726 169.564 334.097C169.368 334.463 169.268 334.866 169.264 335.305V336.666C169.264 337.237 169.368 337.727 169.577 338.136C169.786 338.541 170.078 338.852 170.453 339.07C170.828 339.283 171.267 339.389 171.77 339.389C172.106 339.389 172.411 339.342 172.684 339.249C172.956 339.151 173.193 339.008 173.393 338.82C173.593 338.633 173.745 338.401 173.847 338.124L176.008 338.366C175.871 338.937 175.611 339.436 175.228 339.862C174.848 340.284 174.363 340.612 173.77 340.847C173.178 341.077 172.5 341.192 171.738 341.192ZM182.344 341.192C181.364 341.192 180.522 340.977 179.819 340.546C179.12 340.116 178.581 339.521 178.202 338.763C177.827 338 177.639 337.122 177.639 336.129C177.639 335.132 177.831 334.252 178.214 333.489C178.598 332.722 179.139 332.126 179.838 331.7C180.541 331.269 181.372 331.054 182.331 331.054C183.128 331.054 183.833 331.201 184.447 331.495C185.065 331.785 185.557 332.196 185.923 332.729C186.29 333.257 186.498 333.875 186.55 334.582H184.338C184.248 334.109 184.035 333.715 183.699 333.4C183.366 333.08 182.921 332.92 182.363 332.92C181.89 332.92 181.474 333.048 181.116 333.304C180.758 333.555 180.479 333.918 180.279 334.391C180.083 334.864 179.985 335.43 179.985 336.091C179.985 336.76 180.083 337.335 180.279 337.817C180.475 338.294 180.75 338.663 181.104 338.923C181.462 339.178 181.881 339.306 182.363 339.306C182.704 339.306 183.008 339.242 183.277 339.114C183.55 338.982 183.778 338.793 183.961 338.545C184.144 338.298 184.27 337.998 184.338 337.644H186.55C186.494 338.339 186.29 338.955 185.936 339.491C185.582 340.024 185.101 340.442 184.491 340.744C183.882 341.043 183.166 341.192 182.344 341.192ZM181.679 340.949H182.932L182.829 341.492C183.23 341.552 183.569 341.705 183.846 341.952C184.127 342.204 184.268 342.564 184.268 343.033C184.272 343.638 184.001 344.124 183.456 344.49C182.91 344.857 182.133 345.04 181.123 345.04L181.097 343.902C181.587 343.902 181.977 343.836 182.267 343.704C182.557 343.576 182.704 343.371 182.708 343.09C182.717 342.817 182.614 342.617 182.401 342.489C182.192 342.366 181.86 342.281 181.404 342.234L181.679 340.949ZM191.275 341.198C190.653 341.198 190.092 341.087 189.594 340.866C189.1 340.64 188.707 340.308 188.418 339.869C188.132 339.43 187.989 338.888 187.989 338.245C187.989 337.691 188.092 337.233 188.296 336.871C188.501 336.509 188.78 336.219 189.134 336.001C189.487 335.784 189.886 335.62 190.329 335.509C190.776 335.394 191.239 335.311 191.716 335.26C192.291 335.2 192.758 335.147 193.116 335.1C193.474 335.049 193.734 334.972 193.896 334.87C194.062 334.763 194.145 334.599 194.145 334.378V334.339C194.145 333.858 194.002 333.485 193.717 333.221C193.431 332.957 193.02 332.825 192.483 332.825C191.916 332.825 191.467 332.948 191.134 333.195C190.806 333.442 190.585 333.734 190.47 334.071L188.309 333.764C188.479 333.168 188.761 332.669 189.153 332.268C189.545 331.864 190.024 331.561 190.591 331.361C191.158 331.156 191.784 331.054 192.47 331.054C192.943 331.054 193.414 331.109 193.883 331.22C194.352 331.331 194.78 331.514 195.168 331.77C195.555 332.021 195.867 332.364 196.101 332.799C196.34 333.234 196.459 333.777 196.459 334.429V341H194.234V339.651H194.158C194.017 339.924 193.819 340.18 193.563 340.418C193.312 340.653 192.994 340.842 192.611 340.987C192.232 341.128 191.786 341.198 191.275 341.198ZM191.876 339.498C192.34 339.498 192.743 339.406 193.084 339.223C193.425 339.036 193.687 338.788 193.87 338.482C194.058 338.175 194.151 337.84 194.151 337.478V336.321C194.079 336.381 193.955 336.436 193.781 336.487C193.61 336.538 193.418 336.583 193.205 336.621C192.992 336.66 192.781 336.694 192.573 336.724C192.364 336.754 192.183 336.779 192.029 336.8C191.684 336.847 191.375 336.924 191.102 337.031C190.83 337.137 190.614 337.286 190.457 337.478C190.299 337.665 190.22 337.908 190.22 338.207C190.22 338.633 190.376 338.955 190.687 339.172C190.998 339.389 191.394 339.498 191.876 339.498ZM206.076 341.198C205.454 341.198 204.893 341.087 204.395 340.866C203.9 340.64 203.508 340.308 203.218 339.869C202.933 339.43 202.79 338.888 202.79 338.245C202.79 337.691 202.892 337.233 203.097 336.871C203.302 336.509 203.581 336.219 203.934 336.001C204.288 335.784 204.687 335.62 205.13 335.509C205.577 335.394 206.04 335.311 206.517 335.26C207.092 335.2 207.559 335.147 207.917 335.1C208.275 335.049 208.535 334.972 208.696 334.87C208.863 334.763 208.946 334.599 208.946 334.378V334.339C208.946 333.858 208.803 333.485 208.517 333.221C208.232 332.957 207.821 332.825 207.284 332.825C206.717 332.825 206.267 332.948 205.935 333.195C205.607 333.442 205.385 333.734 205.27 334.071L203.11 333.764C203.28 333.168 203.562 332.669 203.954 332.268C204.346 331.864 204.825 331.561 205.392 331.361C205.959 331.156 206.585 331.054 207.271 331.054C207.744 331.054 208.215 331.109 208.684 331.22C209.152 331.331 209.581 331.514 209.968 331.77C210.356 332.021 210.667 332.364 210.902 332.799C211.14 333.234 211.26 333.777 211.26 334.429V341H209.035V339.651H208.959C208.818 339.924 208.62 340.18 208.364 340.418C208.113 340.653 207.795 340.842 207.412 340.987C207.032 341.128 206.587 341.198 206.076 341.198ZM206.677 339.498C207.141 339.498 207.544 339.406 207.885 339.223C208.226 339.036 208.488 338.788 208.671 338.482C208.858 338.175 208.952 337.84 208.952 337.478V336.321C208.88 336.381 208.756 336.436 208.581 336.487C208.411 336.538 208.219 336.583 208.006 336.621C207.793 336.66 207.582 336.694 207.373 336.724C207.165 336.754 206.983 336.779 206.83 336.8C206.485 336.847 206.176 336.924 205.903 337.031C205.63 337.137 205.415 337.286 205.258 337.478C205.1 337.665 205.021 337.908 205.021 338.207C205.021 338.633 205.177 338.955 205.488 339.172C205.799 339.389 206.195 339.498 206.677 339.498ZM213.586 344.682V331.182H215.862V332.805H215.996C216.116 332.567 216.284 332.313 216.501 332.045C216.718 331.772 217.013 331.54 217.383 331.348C217.754 331.152 218.227 331.054 218.802 331.054C219.561 331.054 220.245 331.248 220.854 331.636C221.468 332.019 221.954 332.588 222.312 333.342C222.674 334.092 222.855 335.013 222.855 336.104C222.855 337.182 222.678 338.098 222.324 338.852C221.971 339.607 221.489 340.182 220.88 340.578C220.27 340.974 219.58 341.173 218.809 341.173C218.246 341.173 217.78 341.079 217.409 340.891C217.038 340.704 216.74 340.478 216.514 340.214C216.292 339.945 216.12 339.692 215.996 339.453H215.9V344.682H213.586ZM215.856 336.091C215.856 336.726 215.945 337.282 216.124 337.759C216.307 338.237 216.569 338.609 216.91 338.878C217.255 339.142 217.673 339.274 218.163 339.274C218.674 339.274 219.103 339.138 219.448 338.865C219.793 338.588 220.053 338.211 220.228 337.734C220.407 337.252 220.496 336.705 220.496 336.091C220.496 335.482 220.409 334.94 220.234 334.467C220.059 333.994 219.799 333.624 219.454 333.355C219.109 333.087 218.679 332.952 218.163 332.952C217.669 332.952 217.249 333.082 216.904 333.342C216.559 333.602 216.297 333.967 216.118 334.435C215.943 334.904 215.856 335.456 215.856 336.091ZM229.183 341.192C228.199 341.192 227.348 340.987 226.633 340.578C225.921 340.165 225.373 339.581 224.99 338.827C224.606 338.068 224.415 337.175 224.415 336.148C224.415 335.138 224.606 334.252 224.99 333.489C225.378 332.722 225.919 332.126 226.613 331.7C227.308 331.269 228.124 331.054 229.062 331.054C229.667 331.054 230.238 331.152 230.775 331.348C231.316 331.54 231.793 331.838 232.206 332.243C232.624 332.648 232.952 333.163 233.191 333.79C233.429 334.412 233.549 335.153 233.549 336.014V336.724H225.501V335.164H231.331C231.326 334.721 231.231 334.327 231.043 333.982C230.856 333.632 230.593 333.357 230.257 333.157C229.924 332.957 229.537 332.857 229.093 332.857C228.62 332.857 228.205 332.972 227.847 333.202C227.489 333.428 227.21 333.726 227.01 334.097C226.814 334.463 226.714 334.866 226.709 335.305V336.666C226.709 337.237 226.814 337.727 227.022 338.136C227.231 338.541 227.523 338.852 227.898 339.07C228.273 339.283 228.712 339.389 229.215 339.389C229.552 339.389 229.856 339.342 230.129 339.249C230.402 339.151 230.638 339.008 230.839 338.82C231.039 338.633 231.19 338.401 231.292 338.124L233.453 338.366C233.316 338.937 233.057 339.436 232.673 339.862C232.294 340.284 231.808 340.612 231.216 340.847C230.623 341.077 229.946 341.192 229.183 341.192ZM237.82 335.247V341H235.506V331.182H237.718V332.85H237.833C238.059 332.3 238.419 331.864 238.913 331.54C239.412 331.216 240.028 331.054 240.761 331.054C241.438 331.054 242.028 331.199 242.531 331.489C243.038 331.778 243.43 332.198 243.707 332.748C243.989 333.298 244.127 333.964 244.123 334.749V341H241.809V335.107C241.809 334.45 241.638 333.937 241.297 333.566C240.961 333.195 240.494 333.01 239.898 333.01C239.493 333.01 239.133 333.099 238.817 333.278C238.506 333.453 238.261 333.707 238.082 334.039C237.908 334.371 237.82 334.774 237.82 335.247ZM249.3 341.198C248.678 341.198 248.118 341.087 247.619 340.866C247.125 340.64 246.733 340.308 246.443 339.869C246.158 339.43 246.015 338.888 246.015 338.245C246.015 337.691 246.117 337.233 246.322 336.871C246.526 336.509 246.805 336.219 247.159 336.001C247.513 335.784 247.911 335.62 248.354 335.509C248.802 335.394 249.264 335.311 249.741 335.26C250.317 335.2 250.783 335.147 251.141 335.1C251.499 335.049 251.759 334.972 251.921 334.87C252.087 334.763 252.17 334.599 252.17 334.378V334.339C252.17 333.858 252.028 333.485 251.742 333.221C251.457 332.957 251.045 332.825 250.508 332.825C249.942 332.825 249.492 332.948 249.16 333.195C248.832 333.442 248.61 333.734 248.495 334.071L246.334 333.764C246.505 333.168 246.786 332.669 247.178 332.268C247.57 331.864 248.05 331.561 248.616 331.361C249.183 331.156 249.81 331.054 250.496 331.054C250.969 331.054 251.44 331.109 251.908 331.22C252.377 331.331 252.805 331.514 253.193 331.77C253.581 332.021 253.892 332.364 254.126 332.799C254.365 333.234 254.484 333.777 254.484 334.429V341H252.26V339.651H252.183C252.043 339.924 251.844 340.18 251.589 340.418C251.337 340.653 251.02 340.842 250.636 340.987C250.257 341.128 249.812 341.198 249.3 341.198ZM249.901 339.498C250.366 339.498 250.768 339.406 251.109 339.223C251.45 339.036 251.712 338.788 251.896 338.482C252.083 338.175 252.177 337.84 252.177 337.478V336.321C252.104 336.381 251.981 336.436 251.806 336.487C251.636 336.538 251.444 336.583 251.231 336.621C251.018 336.66 250.807 336.694 250.598 336.724C250.389 336.754 250.208 336.779 250.055 336.8C249.709 336.847 249.4 336.924 249.128 337.031C248.855 337.137 248.64 337.286 248.482 337.478C248.324 337.665 248.246 337.908 248.246 338.207C248.246 338.633 248.401 338.955 248.712 339.172C249.023 339.389 249.42 339.498 249.901 339.498ZM264.571 333.777L262.462 334.007C262.402 333.794 262.297 333.594 262.148 333.406C262.003 333.219 261.807 333.067 261.56 332.952C261.313 332.837 261.011 332.78 260.653 332.78C260.171 332.78 259.766 332.884 259.438 333.093C259.114 333.302 258.954 333.572 258.959 333.905C258.954 334.19 259.059 334.423 259.272 334.602C259.489 334.781 259.847 334.928 260.346 335.043L262.021 335.401C262.949 335.601 263.64 335.918 264.092 336.353C264.547 336.788 264.778 337.357 264.782 338.06C264.778 338.678 264.597 339.223 264.239 339.696C263.885 340.165 263.393 340.531 262.762 340.795C262.131 341.06 261.407 341.192 260.589 341.192C259.387 341.192 258.42 340.94 257.687 340.438C256.954 339.93 256.517 339.225 256.376 338.322L258.633 338.104C258.735 338.548 258.952 338.882 259.285 339.108C259.617 339.334 260.05 339.447 260.582 339.447C261.132 339.447 261.573 339.334 261.905 339.108C262.242 338.882 262.41 338.603 262.41 338.271C262.41 337.989 262.302 337.757 262.084 337.574C261.871 337.391 261.539 337.25 261.087 337.152L259.413 336.8C258.471 336.604 257.774 336.274 257.322 335.81C256.871 335.341 256.647 334.749 256.651 334.033C256.647 333.428 256.811 332.903 257.143 332.46C257.48 332.013 257.947 331.668 258.543 331.425C259.144 331.178 259.837 331.054 260.621 331.054C261.771 331.054 262.677 331.299 263.337 331.789C264.002 332.279 264.413 332.942 264.571 333.777ZM277.413 336.871V331.182H279.726V341H277.483V339.255H277.381C277.159 339.805 276.795 340.254 276.288 340.604C275.785 340.953 275.165 341.128 274.427 341.128C273.784 341.128 273.215 340.985 272.721 340.7C272.231 340.41 271.847 339.99 271.57 339.44C271.293 338.886 271.155 338.217 271.155 337.433V331.182H273.469V337.075C273.469 337.697 273.639 338.192 273.98 338.558C274.321 338.925 274.768 339.108 275.322 339.108C275.663 339.108 275.994 339.025 276.313 338.859C276.633 338.692 276.895 338.445 277.099 338.117C277.308 337.785 277.413 337.369 277.413 336.871ZM282.106 341V331.182H284.318V332.85H284.433C284.637 332.288 284.976 331.849 285.449 331.533C285.922 331.214 286.487 331.054 287.143 331.054C287.808 331.054 288.368 331.216 288.824 331.54C289.284 331.859 289.608 332.296 289.796 332.85H289.898C290.115 332.305 290.482 331.87 290.997 331.546C291.517 331.218 292.133 331.054 292.845 331.054C293.748 331.054 294.485 331.339 295.056 331.911C295.627 332.482 295.913 333.315 295.913 334.41V341H293.592V334.768C293.592 334.158 293.43 333.713 293.107 333.432C292.783 333.146 292.386 333.004 291.918 333.004C291.359 333.004 290.923 333.178 290.607 333.528C290.296 333.873 290.141 334.322 290.141 334.876V341H287.872V334.672C287.872 334.165 287.718 333.76 287.411 333.457C287.109 333.155 286.712 333.004 286.222 333.004C285.89 333.004 285.587 333.089 285.315 333.259C285.042 333.425 284.825 333.662 284.663 333.969C284.501 334.271 284.42 334.625 284.42 335.03V341H282.106ZM69.4985 363V353.182H71.7101V354.85H71.8252C72.0297 354.288 72.3685 353.849 72.8415 353.533C73.3145 353.214 73.8792 353.054 74.5354 353.054C75.2002 353.054 75.7606 353.216 76.2165 353.54C76.6768 353.859 77.0006 354.296 77.1881 354.85H77.2904C77.5077 354.305 77.8742 353.87 78.3898 353.546C78.9097 353.218 79.5255 353.054 80.2371 353.054C81.1405 353.054 81.8778 353.339 82.4488 353.911C83.0198 354.482 83.3053 355.315 83.3053 356.41V363H80.985V356.768C80.985 356.158 80.8231 355.713 80.4992 355.432C80.1753 355.146 79.779 355.004 79.3103 355.004C78.752 355.004 78.3153 355.178 77.9999 355.528C77.6888 355.873 77.5333 356.322 77.5333 356.876V363H75.2641V356.672C75.2641 356.165 75.1107 355.76 74.8039 355.457C74.5013 355.155 74.105 355.004 73.615 355.004C73.2826 355.004 72.98 355.089 72.7073 355.259C72.4346 355.425 72.2172 355.662 72.0553 355.969C71.8934 356.271 71.8124 356.625 71.8124 357.03V363H69.4985ZM89.9994 363.192C89.015 363.192 88.1649 362.987 87.449 362.578C86.7373 362.165 86.1897 361.581 85.8062 360.827C85.4227 360.068 85.2309 359.175 85.2309 358.148C85.2309 357.138 85.4227 356.252 85.8062 355.489C86.194 354.722 86.7352 354.126 87.4298 353.7C88.1244 353.269 88.9404 353.054 89.8779 353.054C90.483 353.054 91.0541 353.152 91.591 353.348C92.1322 353.54 92.6095 353.838 93.0228 354.243C93.4404 354.648 93.7686 355.163 94.0072 355.79C94.2458 356.412 94.3651 357.153 94.3651 358.014V358.724H86.3176V357.164H92.1471C92.1428 356.721 92.047 356.327 91.8595 355.982C91.672 355.632 91.4099 355.357 91.0732 355.157C90.7409 354.957 90.3531 354.857 89.9099 354.857C89.4369 354.857 89.0214 354.972 88.6634 355.202C88.3055 355.428 88.0264 355.726 87.8261 356.097C87.6301 356.463 87.5299 356.866 87.5257 357.305V358.666C87.5257 359.237 87.6301 359.727 87.8389 360.136C88.0477 360.541 88.3396 360.852 88.7146 361.07C89.0896 361.283 89.5285 361.389 90.0313 361.389C90.368 361.389 90.6727 361.342 90.9454 361.249C91.2181 361.151 91.4546 361.008 91.6549 360.82C91.8552 360.633 92.0065 360.401 92.1088 360.124L94.2693 360.366C94.1329 360.937 93.873 361.436 93.4894 361.862C93.1102 362.284 92.6244 362.612 92.032 362.847C91.4397 363.077 90.7622 363.192 89.9994 363.192ZM101.225 353.182V354.972H95.5812V353.182H101.225ZM96.9747 350.83H99.2886V360.047C99.2886 360.358 99.3355 360.597 99.4292 360.763C99.5273 360.925 99.6551 361.036 99.8128 361.095C99.9704 361.155 100.145 361.185 100.337 361.185C100.482 361.185 100.614 361.174 100.733 361.153C100.857 361.131 100.951 361.112 101.014 361.095L101.404 362.904C101.281 362.947 101.104 362.994 100.874 363.045C100.648 363.096 100.371 363.126 100.043 363.134C99.4633 363.151 98.9413 363.064 98.4768 362.872C98.0123 362.676 97.6437 362.374 97.371 361.964C97.1025 361.555 96.9704 361.044 96.9747 360.43V350.83ZM105.685 357.247V363H103.372V349.909H105.634V354.85H105.749C105.979 354.296 106.335 353.859 106.817 353.54C107.303 353.216 107.921 353.054 108.671 353.054C109.352 353.054 109.947 353.197 110.454 353.482C110.961 353.768 111.353 354.185 111.63 354.735C111.911 355.285 112.052 355.956 112.052 356.749V363H109.738V357.107C109.738 356.446 109.568 355.933 109.227 355.566C108.89 355.195 108.417 355.01 107.808 355.01C107.399 355.01 107.032 355.099 106.708 355.278C106.389 355.453 106.137 355.707 105.954 356.039C105.775 356.371 105.685 356.774 105.685 357.247ZM118.693 363.192C117.734 363.192 116.903 362.981 116.2 362.559C115.497 362.137 114.952 361.547 114.564 360.788C114.18 360.03 113.989 359.143 113.989 358.129C113.989 357.115 114.18 356.227 114.564 355.464C114.952 354.701 115.497 354.109 116.2 353.687C116.903 353.265 117.734 353.054 118.693 353.054C119.652 353.054 120.483 353.265 121.186 353.687C121.889 354.109 122.433 354.701 122.816 355.464C123.204 356.227 123.398 357.115 123.398 358.129C123.398 359.143 123.204 360.03 122.816 360.788C122.433 361.547 121.889 362.137 121.186 362.559C120.483 362.981 119.652 363.192 118.693 363.192ZM118.706 361.338C119.226 361.338 119.661 361.195 120.01 360.91C120.359 360.62 120.619 360.232 120.79 359.746C120.965 359.261 121.052 358.719 121.052 358.123C121.052 357.522 120.965 356.979 120.79 356.493C120.619 356.003 120.359 355.613 120.01 355.323C119.661 355.033 119.226 354.888 118.706 354.888C118.173 354.888 117.73 355.033 117.377 355.323C117.027 355.613 116.765 356.003 116.59 356.493C116.42 356.979 116.335 357.522 116.335 358.123C116.335 358.719 116.42 359.261 116.59 359.746C116.765 360.232 117.027 360.62 117.377 360.91C117.73 361.195 118.173 361.338 118.706 361.338ZM129.005 363.173C128.234 363.173 127.544 362.974 126.934 362.578C126.325 362.182 125.843 361.607 125.49 360.852C125.136 360.098 124.959 359.182 124.959 358.104C124.959 357.013 125.138 356.092 125.496 355.342C125.858 354.588 126.346 354.019 126.96 353.636C127.573 353.248 128.257 353.054 129.012 353.054C129.587 353.054 130.06 353.152 130.431 353.348C130.801 353.54 131.095 353.772 131.313 354.045C131.53 354.313 131.698 354.567 131.818 354.805H131.914V349.909H134.234V363H131.958V361.453H131.818C131.698 361.692 131.526 361.945 131.3 362.214C131.074 362.478 130.776 362.704 130.405 362.891C130.034 363.079 129.568 363.173 129.005 363.173ZM129.651 361.274C130.141 361.274 130.559 361.142 130.904 360.878C131.249 360.609 131.511 360.237 131.69 359.759C131.869 359.282 131.958 358.726 131.958 358.091C131.958 357.456 131.869 356.904 131.69 356.435C131.515 355.967 131.255 355.602 130.91 355.342C130.569 355.082 130.149 354.952 129.651 354.952C129.135 354.952 128.705 355.087 128.36 355.355C128.014 355.624 127.755 355.994 127.58 356.467C127.405 356.94 127.318 357.482 127.318 358.091C127.318 358.705 127.405 359.252 127.58 359.734C127.759 360.211 128.021 360.588 128.366 360.865C128.715 361.138 129.144 361.274 129.651 361.274ZM144.46 355.777L142.35 356.007C142.291 355.794 142.186 355.594 142.037 355.406C141.892 355.219 141.696 355.067 141.449 354.952C141.202 354.837 140.899 354.78 140.541 354.78C140.06 354.78 139.655 354.884 139.327 355.093C139.003 355.302 138.843 355.572 138.847 355.905C138.843 356.19 138.948 356.423 139.161 356.602C139.378 356.781 139.736 356.928 140.234 357.043L141.909 357.401C142.838 357.601 143.528 357.918 143.98 358.353C144.436 358.788 144.666 359.357 144.671 360.06C144.666 360.678 144.485 361.223 144.127 361.696C143.774 362.165 143.281 362.531 142.651 362.795C142.02 363.06 141.296 363.192 140.477 363.192C139.276 363.192 138.308 362.94 137.575 362.438C136.842 361.93 136.406 361.225 136.265 360.322L138.521 360.104C138.624 360.548 138.841 360.882 139.173 361.108C139.506 361.334 139.938 361.447 140.471 361.447C141.021 361.447 141.462 361.334 141.794 361.108C142.131 360.882 142.299 360.603 142.299 360.271C142.299 359.989 142.19 359.757 141.973 359.574C141.76 359.391 141.428 359.25 140.976 359.152L139.301 358.8C138.359 358.604 137.663 358.274 137.211 357.81C136.759 357.341 136.536 356.749 136.54 356.033C136.536 355.428 136.7 354.903 137.032 354.46C137.369 354.013 137.835 353.668 138.432 353.425C139.033 353.178 139.725 353.054 140.509 353.054C141.66 353.054 142.565 353.299 143.226 353.789C143.891 354.279 144.302 354.942 144.46 355.777ZM151.146 363V349.909H153.517V355.451H159.583V349.909H161.961V363H159.583V357.439H153.517V363H151.146ZM163.965 351.897V349.909H174.41V351.897H170.363V363H168.011V351.897H163.965ZM175.848 351.897V349.909H186.292V351.897H182.246V363H179.894V351.897H175.848ZM188.306 363V349.909H193.215C194.221 349.909 195.064 350.097 195.746 350.472C196.432 350.847 196.95 351.362 197.299 352.018C197.653 352.67 197.83 353.412 197.83 354.243C197.83 355.082 197.653 355.828 197.299 356.48C196.946 357.132 196.424 357.646 195.733 358.021C195.043 358.391 194.193 358.577 193.183 358.577H189.929V356.627H192.863C193.451 356.627 193.933 356.525 194.308 356.32C194.683 356.116 194.96 355.835 195.139 355.477C195.322 355.119 195.414 354.707 195.414 354.243C195.414 353.778 195.322 353.369 195.139 353.016C194.96 352.662 194.681 352.387 194.302 352.191C193.927 351.991 193.443 351.891 192.851 351.891H190.677V363H188.306ZM204.252 366.682V353.182H206.528V354.805H206.662C206.782 354.567 206.95 354.313 207.167 354.045C207.384 353.772 207.679 353.54 208.049 353.348C208.42 353.152 208.893 353.054 209.468 353.054C210.227 353.054 210.911 353.248 211.52 353.636C212.134 354.019 212.62 354.588 212.978 355.342C213.34 356.092 213.521 357.013 213.521 358.104C213.521 359.182 213.344 360.098 212.99 360.852C212.637 361.607 212.155 362.182 211.546 362.578C210.936 362.974 210.246 363.173 209.475 363.173C208.912 363.173 208.446 363.079 208.075 362.891C207.704 362.704 207.406 362.478 207.18 362.214C206.958 361.945 206.786 361.692 206.662 361.453H206.566V366.682H204.252ZM206.522 358.091C206.522 358.726 206.611 359.282 206.79 359.759C206.973 360.237 207.235 360.609 207.576 360.878C207.921 361.142 208.339 361.274 208.829 361.274C209.34 361.274 209.769 361.138 210.114 360.865C210.459 360.588 210.719 360.211 210.894 359.734C211.073 359.252 211.162 358.705 211.162 358.091C211.162 357.482 211.075 356.94 210.9 356.467C210.725 355.994 210.465 355.624 210.12 355.355C209.775 355.087 209.345 354.952 208.829 354.952C208.335 354.952 207.915 355.082 207.57 355.342C207.225 355.602 206.963 355.967 206.784 356.435C206.609 356.904 206.522 357.456 206.522 358.091ZM219.785 363.192C218.826 363.192 217.995 362.981 217.292 362.559C216.589 362.137 216.044 361.547 215.656 360.788C215.272 360.03 215.081 359.143 215.081 358.129C215.081 357.115 215.272 356.227 215.656 355.464C216.044 354.701 216.589 354.109 217.292 353.687C217.995 353.265 218.826 353.054 219.785 353.054C220.744 353.054 221.575 353.265 222.278 353.687C222.981 354.109 223.524 354.701 223.908 355.464C224.296 356.227 224.49 357.115 224.49 358.129C224.49 359.143 224.296 360.03 223.908 360.788C223.524 361.547 222.981 362.137 222.278 362.559C221.575 362.981 220.744 363.192 219.785 363.192ZM219.798 361.338C220.318 361.338 220.752 361.195 221.102 360.91C221.451 360.62 221.711 360.232 221.882 359.746C222.056 359.261 222.144 358.719 222.144 358.123C222.144 357.522 222.056 356.979 221.882 356.493C221.711 356.003 221.451 355.613 221.102 355.323C220.752 355.033 220.318 354.888 219.798 354.888C219.265 354.888 218.822 355.033 218.468 355.323C218.119 355.613 217.857 356.003 217.682 356.493C217.512 356.979 217.426 357.522 217.426 358.123C217.426 358.719 217.512 359.261 217.682 359.746C217.857 360.232 218.119 360.62 218.468 360.91C218.822 361.195 219.265 361.338 219.798 361.338ZM226.454 363V353.182H228.697V354.818H228.799C228.978 354.251 229.285 353.815 229.72 353.508C230.159 353.197 230.66 353.041 231.222 353.041C231.35 353.041 231.493 353.048 231.65 353.06C231.812 353.069 231.946 353.084 232.053 353.105V355.234C231.955 355.2 231.799 355.17 231.586 355.144C231.378 355.114 231.175 355.099 230.979 355.099C230.557 355.099 230.178 355.191 229.841 355.374C229.509 355.553 229.247 355.803 229.055 356.122C228.863 356.442 228.767 356.81 228.767 357.228V363H226.454ZM240.369 349.909V363H238.055V349.909H240.369ZM242.748 363V353.182H245.062V363H242.748ZM243.912 351.788C243.545 351.788 243.23 351.667 242.966 351.424C242.702 351.177 242.57 350.881 242.57 350.536C242.57 350.186 242.702 349.89 242.966 349.647C243.23 349.4 243.545 349.276 243.912 349.276C244.283 349.276 244.598 349.4 244.858 349.647C245.122 349.89 245.254 350.186 245.254 350.536C245.254 350.881 245.122 351.177 244.858 351.424C244.598 351.667 244.283 351.788 243.912 351.788ZM249.756 357.247V363H247.442V353.182H249.653V354.85H249.769C249.994 354.3 250.354 353.864 250.849 353.54C251.347 353.216 251.963 353.054 252.696 353.054C253.374 353.054 253.964 353.199 254.467 353.489C254.974 353.778 255.366 354.198 255.643 354.748C255.924 355.298 256.063 355.964 256.058 356.749V363H253.744V357.107C253.744 356.45 253.574 355.937 253.233 355.566C252.896 355.195 252.43 355.01 251.833 355.01C251.428 355.01 251.068 355.099 250.753 355.278C250.442 355.453 250.197 355.707 250.018 356.039C249.843 356.371 249.756 356.774 249.756 357.247ZM260.52 359.919L260.514 357.126H260.884L264.413 353.182H267.117L262.776 358.014H262.297L260.52 359.919ZM258.411 363V349.909H260.725V363H258.411ZM264.573 363L261.377 358.532L262.936 356.902L267.34 363H264.573ZM270.084 363.141C269.696 363.141 269.364 363.004 269.087 362.732C268.81 362.459 268.674 362.126 268.678 361.734C268.674 361.351 268.81 361.023 269.087 360.75C269.364 360.477 269.696 360.341 270.084 360.341C270.459 360.341 270.785 360.477 271.062 360.75C271.343 361.023 271.486 361.351 271.49 361.734C271.486 361.994 271.418 362.231 271.286 362.444C271.158 362.657 270.987 362.827 270.774 362.955C270.566 363.079 270.335 363.141 270.084 363.141Z" fill="white"/>
<path d="M170.447 60C167.677 60.0025 111.609 91.533 108.797 94.6704L107 96.6748L107.22 131.563C107.433 165.274 107.494 166.505 109.018 167.981C110.325 169.247 164.406 200.274 167.863 201.74C170.632 202.915 175.611 200.55 202.473 185.293C222.964 173.656 231.638 168.321 232.618 166.753C233.871 164.747 233.994 161.527 233.997 130.484L234 96.4151L231.832 94.3292C228.177 90.8133 173.083 60.0021 170.447 60ZM149.95 102.676C152.122 102.676 155.052 104.425 156.821 106.779C158.473 108.978 158.471 113.751 156.815 115.942C154.404 119.13 150.275 120.491 146.779 119.251C143.864 118.217 142.945 117.37 141.675 114.545C139.119 108.862 143.432 102.676 149.95 102.676ZM193.227 102.704C195.638 102.687 198.043 103.766 199.901 105.942C202.14 108.565 202.462 111.645 200.833 114.869C198.782 118.931 194.61 120.693 190.496 119.234C184.595 117.143 182.624 110.598 186.519 106.034C188.399 103.832 190.816 102.721 193.227 102.704ZM171.367 133.255C178.81 133.255 180.054 133.401 184.201 134.768C191.897 137.306 198.746 142.332 203.548 148.964C206.589 153.166 206.886 155.727 204.541 157.545C201.99 159.523 199.684 158.746 197.357 155.121C192.082 146.901 181.61 141.353 171.367 141.353C161.124 141.353 150.651 146.901 145.376 155.121C143.48 158.075 141.65 159.074 139.538 158.309C135.864 156.977 135.741 153.723 139.186 148.964C143.987 142.332 150.837 137.306 158.533 134.768C162.68 133.401 163.924 133.255 171.367 133.255Z" fill="url(#paint2_linear_369_118)"/>
<path d="M72.9332 252V228.727H82.6378C84.3802 228.727 85.8385 228.973 87.0128 229.466C88.1946 229.958 89.081 230.648 89.6719 231.534C90.2704 232.42 90.5696 233.447 90.5696 234.614C90.5696 235.5 90.384 236.292 90.0128 236.989C89.6416 237.678 89.1302 238.25 88.4787 238.705C87.8272 239.159 87.0734 239.477 86.2173 239.659V239.886C87.1567 239.932 88.0241 240.186 88.8196 240.648C89.6226 241.11 90.2666 241.754 90.7514 242.58C91.2363 243.398 91.4787 244.367 91.4787 245.489C91.4787 246.739 91.1605 247.856 90.5241 248.841C89.8878 249.818 88.9673 250.591 87.7628 251.159C86.5582 251.72 85.0961 252 83.3764 252H72.9332ZM78.5582 247.466H82.0355C83.2552 247.466 84.1529 247.235 84.7287 246.773C85.312 246.311 85.6037 245.667 85.6037 244.841C85.6037 244.242 85.4635 243.727 85.1832 243.295C84.9029 242.856 84.5052 242.519 83.9901 242.284C83.4749 242.042 82.8575 241.92 82.1378 241.92H78.5582V247.466ZM78.5582 238.295H81.6719C82.2855 238.295 82.831 238.193 83.3082 237.989C83.7855 237.784 84.1567 237.489 84.4219 237.102C84.6946 236.716 84.831 236.25 84.831 235.705C84.831 234.924 84.5545 234.311 84.0014 233.864C83.4484 233.417 82.7022 233.193 81.7628 233.193H78.5582V238.295ZM99.1037 252.295C97.9901 252.295 97.0014 252.11 96.1378 251.739C95.2817 251.36 94.6037 250.792 94.1037 250.034C93.6113 249.269 93.3651 248.311 93.3651 247.159C93.3651 246.189 93.5355 245.371 93.8764 244.705C94.2173 244.038 94.687 243.496 95.2855 243.08C95.884 242.663 96.5734 242.348 97.3537 242.136C98.134 241.917 98.9673 241.769 99.8537 241.693C100.846 241.602 101.645 241.508 102.251 241.409C102.857 241.303 103.297 241.155 103.57 240.966C103.85 240.769 103.99 240.492 103.99 240.136V240.08C103.99 239.496 103.789 239.045 103.388 238.727C102.986 238.409 102.445 238.25 101.763 238.25C101.028 238.25 100.437 238.409 99.9901 238.727C99.5431 239.045 99.259 239.485 99.1378 240.045L94.0128 239.864C94.1643 238.803 94.5545 237.856 95.1832 237.023C95.8196 236.182 96.6908 235.523 97.7969 235.045C98.9105 234.561 100.248 234.318 101.808 234.318C102.922 234.318 103.948 234.451 104.888 234.716C105.827 234.973 106.645 235.352 107.342 235.852C108.039 236.345 108.577 236.951 108.956 237.67C109.342 238.39 109.536 239.212 109.536 240.136V252H104.308V249.568H104.172C103.861 250.159 103.464 250.659 102.979 251.068C102.501 251.477 101.937 251.784 101.286 251.989C100.642 252.193 99.9143 252.295 99.1037 252.295ZM100.82 248.659C101.418 248.659 101.956 248.538 102.433 248.295C102.918 248.053 103.304 247.72 103.592 247.295C103.88 246.864 104.024 246.364 104.024 245.795V244.136C103.865 244.22 103.672 244.295 103.445 244.364C103.225 244.432 102.982 244.496 102.717 244.557C102.452 244.617 102.179 244.67 101.899 244.716C101.619 244.761 101.35 244.803 101.092 244.841C100.57 244.924 100.123 245.053 99.7514 245.227C99.3878 245.402 99.1075 245.629 98.9105 245.909C98.7211 246.182 98.6264 246.508 98.6264 246.886C98.6264 247.462 98.831 247.902 99.2401 248.205C99.6567 248.508 100.183 248.659 100.82 248.659ZM119.308 252.25C118.02 252.25 116.85 251.917 115.797 251.25C114.744 250.583 113.903 249.583 113.274 248.25C112.645 246.917 112.331 245.261 112.331 243.284C112.331 241.231 112.657 239.542 113.308 238.216C113.96 236.89 114.812 235.909 115.865 235.273C116.926 234.636 118.066 234.318 119.286 234.318C120.202 234.318 120.986 234.477 121.638 234.795C122.289 235.106 122.827 235.508 123.251 236C123.676 236.492 123.998 237.004 124.217 237.534H124.331V228.727H129.888V252H124.388V249.17H124.217C123.982 249.708 123.649 250.212 123.217 250.682C122.786 251.152 122.244 251.53 121.592 251.818C120.948 252.106 120.187 252.25 119.308 252.25ZM121.24 247.92C121.914 247.92 122.49 247.731 122.967 247.352C123.445 246.966 123.812 246.424 124.07 245.727C124.327 245.03 124.456 244.212 124.456 243.273C124.456 242.318 124.327 241.496 124.07 240.807C123.82 240.117 123.452 239.587 122.967 239.216C122.49 238.845 121.914 238.659 121.24 238.659C120.551 238.659 119.967 238.848 119.49 239.227C119.013 239.606 118.649 240.14 118.399 240.83C118.157 241.519 118.036 242.333 118.036 243.273C118.036 244.212 118.161 245.03 118.411 245.727C118.661 246.424 119.02 246.966 119.49 247.352C119.967 247.731 120.551 247.92 121.24 247.92ZM140.277 252V228.727H149.891C151.633 228.727 153.137 229.042 154.402 229.67C155.675 230.292 156.656 231.186 157.345 232.352C158.035 233.511 158.379 234.886 158.379 236.477C158.379 238.091 158.027 239.462 157.322 240.591C156.618 241.712 155.618 242.568 154.322 243.159C153.027 243.742 151.493 244.034 149.72 244.034H143.641V239.602H148.675C149.523 239.602 150.232 239.492 150.8 239.273C151.375 239.045 151.811 238.705 152.107 238.25C152.402 237.788 152.55 237.197 152.55 236.477C152.55 235.758 152.402 235.163 152.107 234.693C151.811 234.216 151.375 233.86 150.8 233.625C150.224 233.383 149.516 233.261 148.675 233.261H145.902V252H140.277ZM153.379 241.364L159.175 252H153.038L147.357 241.364H153.379ZM169.28 252.33C167.454 252.33 165.878 251.97 164.553 251.25C163.234 250.523 162.219 249.489 161.507 248.148C160.803 246.799 160.45 245.197 160.45 243.341C160.45 241.538 160.806 239.962 161.518 238.614C162.231 237.258 163.234 236.205 164.53 235.455C165.825 234.697 167.352 234.318 169.109 234.318C170.352 234.318 171.488 234.511 172.518 234.898C173.549 235.284 174.439 235.856 175.189 236.614C175.939 237.371 176.522 238.307 176.939 239.42C177.356 240.527 177.564 241.795 177.564 243.227V244.614H162.393V241.386H172.393C172.386 240.795 172.246 240.269 171.973 239.807C171.7 239.345 171.325 238.985 170.848 238.727C170.378 238.462 169.837 238.33 169.223 238.33C168.602 238.33 168.045 238.47 167.553 238.75C167.06 239.023 166.67 239.398 166.382 239.875C166.094 240.345 165.943 240.879 165.928 241.477V244.761C165.928 245.473 166.068 246.098 166.348 246.636C166.628 247.167 167.026 247.58 167.541 247.875C168.056 248.17 168.67 248.318 169.382 248.318C169.875 248.318 170.321 248.25 170.723 248.114C171.125 247.977 171.469 247.777 171.757 247.511C172.045 247.246 172.261 246.92 172.405 246.534L177.507 246.682C177.295 247.826 176.829 248.822 176.109 249.67C175.397 250.511 174.462 251.167 173.303 251.636C172.143 252.098 170.803 252.33 169.28 252.33ZM191.8 258.545V249.17H191.686C191.451 249.708 191.118 250.212 190.686 250.682C190.254 251.152 189.713 251.53 189.061 251.818C188.417 252.106 187.656 252.25 186.777 252.25C185.489 252.25 184.319 251.917 183.266 251.25C182.213 250.583 181.372 249.583 180.743 248.25C180.114 246.917 179.8 245.261 179.8 243.284C179.8 241.231 180.125 239.542 180.777 238.216C181.429 236.89 182.281 235.909 183.334 235.273C184.394 234.636 185.535 234.318 186.754 234.318C187.671 234.318 188.455 234.477 189.107 234.795C189.758 235.106 190.296 235.508 190.72 236C191.144 236.492 191.466 237.004 191.686 237.534H191.857V234.545H197.357V258.545H191.8ZM188.709 247.92C189.383 247.92 189.959 247.731 190.436 247.352C190.913 246.966 191.281 246.424 191.538 245.727C191.796 245.03 191.925 244.212 191.925 243.273C191.925 242.318 191.796 241.496 191.538 240.807C191.288 240.117 190.921 239.587 190.436 239.216C189.959 238.845 189.383 238.659 188.709 238.659C188.019 238.659 187.436 238.848 186.959 239.227C186.482 239.606 186.118 240.14 185.868 240.83C185.625 241.519 185.504 242.333 185.504 243.273C185.504 244.212 185.629 245.03 185.879 245.727C186.129 246.424 186.489 246.966 186.959 247.352C187.436 247.731 188.019 247.92 188.709 247.92ZM212.132 244.466V234.545H217.678V252H212.382V248.75H212.2C211.814 249.818 211.155 250.667 210.223 251.295C209.299 251.917 208.181 252.227 206.871 252.227C205.681 252.227 204.636 251.955 203.734 251.409C202.833 250.864 202.132 250.102 201.632 249.125C201.132 248.14 200.878 246.989 200.871 245.67V234.545H206.428V244.58C206.435 245.527 206.685 246.273 207.178 246.818C207.67 247.364 208.34 247.636 209.189 247.636C209.742 247.636 210.238 247.515 210.678 247.273C211.125 247.023 211.477 246.663 211.734 246.193C212 245.716 212.132 245.14 212.132 244.466ZM229.374 252.33C227.548 252.33 225.972 251.97 224.646 251.25C223.328 250.523 222.313 249.489 221.601 248.148C220.896 246.799 220.544 245.197 220.544 243.341C220.544 241.538 220.9 239.962 221.612 238.614C222.324 237.258 223.328 236.205 224.624 235.455C225.919 234.697 227.446 234.318 229.203 234.318C230.446 234.318 231.582 234.511 232.612 234.898C233.643 235.284 234.533 235.856 235.283 236.614C236.033 237.371 236.616 238.307 237.033 239.42C237.449 240.527 237.658 241.795 237.658 243.227V244.614H222.487V241.386H232.487C232.48 240.795 232.339 240.269 232.067 239.807C231.794 239.345 231.419 238.985 230.942 238.727C230.472 238.462 229.93 238.33 229.317 238.33C228.696 238.33 228.139 238.47 227.646 238.75C227.154 239.023 226.764 239.398 226.476 239.875C226.188 240.345 226.036 240.879 226.021 241.477V244.761C226.021 245.473 226.161 246.098 226.442 246.636C226.722 247.167 227.12 247.58 227.635 247.875C228.15 248.17 228.764 248.318 229.476 248.318C229.968 248.318 230.415 248.25 230.817 248.114C231.218 247.977 231.563 247.777 231.851 247.511C232.139 247.246 232.355 246.92 232.499 246.534L237.601 246.682C237.389 247.826 236.923 248.822 236.203 249.67C235.491 250.511 234.555 251.167 233.396 251.636C232.237 252.098 230.896 252.33 229.374 252.33ZM255.734 239.875L250.632 240.011C250.579 239.648 250.435 239.326 250.2 239.045C249.965 238.758 249.659 238.534 249.28 238.375C248.909 238.208 248.477 238.125 247.984 238.125C247.34 238.125 246.791 238.254 246.337 238.511C245.89 238.769 245.67 239.117 245.678 239.557C245.67 239.898 245.806 240.193 246.087 240.443C246.375 240.693 246.886 240.894 247.621 241.045L250.984 241.682C252.727 242.015 254.022 242.568 254.871 243.341C255.727 244.114 256.159 245.136 256.166 246.409C256.159 247.606 255.803 248.648 255.098 249.534C254.401 250.42 253.446 251.11 252.234 251.602C251.022 252.087 249.636 252.33 248.075 252.33C245.583 252.33 243.617 251.818 242.178 250.795C240.746 249.765 239.928 248.386 239.723 246.659L245.212 246.523C245.333 247.159 245.647 247.644 246.155 247.977C246.662 248.311 247.31 248.477 248.098 248.477C248.81 248.477 249.39 248.345 249.837 248.08C250.284 247.814 250.511 247.462 250.518 247.023C250.511 246.629 250.337 246.314 249.996 246.08C249.655 245.837 249.121 245.648 248.393 245.511L245.348 244.932C243.598 244.614 242.295 244.027 241.439 243.17C240.583 242.307 240.159 241.208 240.166 239.875C240.159 238.708 240.469 237.712 241.098 236.886C241.727 236.053 242.621 235.417 243.78 234.977C244.939 234.538 246.306 234.318 247.882 234.318C250.246 234.318 252.109 234.814 253.473 235.807C254.837 236.792 255.59 238.148 255.734 239.875ZM268.754 234.545V238.636H257.743V234.545H268.754ZM260.05 230.364H265.607V246.511C265.607 246.852 265.66 247.129 265.766 247.341C265.879 247.545 266.042 247.693 266.254 247.784C266.466 247.867 266.72 247.909 267.016 247.909C267.228 247.909 267.451 247.89 267.686 247.852C267.929 247.807 268.11 247.769 268.232 247.739L269.072 251.75C268.807 251.826 268.432 251.92 267.947 252.034C267.47 252.148 266.898 252.22 266.232 252.25C264.929 252.311 263.811 252.159 262.879 251.795C261.955 251.424 261.247 250.848 260.754 250.068C260.269 249.288 260.035 248.307 260.05 247.125V230.364Z" fill="white"/>
</g>
<defs>
<linearGradient id="paint0_linear_369_118" x1="170.5" y1="-1.19279e-08" x2="170" y2="426" gradientUnits="userSpaceOnUse">
<stop stop-color="white" stop-opacity="0.25"/>
<stop offset="1" stop-color="#FC5D20" stop-opacity="0.2"/>
</linearGradient>
<linearGradient id="paint1_linear_369_118" x1="148.608" y1="74.5126" x2="225.394" y2="515.623" gradientUnits="userSpaceOnUse">
<stop stop-color="white" stop-opacity="0.8"/>
<stop offset="1" stop-color="white" stop-opacity="0.5"/>
</linearGradient>
<linearGradient id="paint2_linear_369_118" x1="170.5" y1="60" x2="170.5" y2="202" gradientUnits="userSpaceOnUse">
<stop stop-color="white"/>
<stop offset="1" stop-color="#FF9D6C"/>
</linearGradient>
<clipPath id="clip0_369_118">
<rect width="341" height="426" fill="white"/>
</clipPath>
</defs>
</svg>
