<svg width="182" height="228" viewBox="0 0 182 228" fill="none" xmlns="http://www.w3.org/2000/svg">
<g clip-path="url(#clip0_374_81)">
<rect x="-0.371094" width="182.506" height="227.998" rx="20" fill="#FC5D20"/>
<rect x="-0.371094" width="182.506" height="227.998" rx="20" fill="url(#paint0_linear_374_81)"/>
<g filter="url(#filter0_f_374_81)">
<ellipse cx="91" cy="280.5" rx="243" ry="146.5" fill="#FC5D20"/>
</g>
<g style="mix-blend-mode:soft-light">
<path d="M77.4226 55.3423C72.6829 56.1719 -13.8643 126.767 -17.742 132.967L-20.2206 136.929L-9.46285 196.499C0.931925 254.059 1.40294 256.144 4.44954 258.214C7.06205 259.989 108.825 296.916 115.175 298.394C120.264 299.578 128.079 294.051 169.499 259.972C201.094 233.977 214.348 222.274 215.558 219.302C217.106 215.501 216.357 209.959 207.127 156.895L196.994 98.6597L192.664 95.7398C185.365 90.8185 81.9331 54.5609 77.4226 55.3423ZM55.0507 134.394C58.7672 133.747 64.2999 135.865 68.0276 139.362C71.5087 142.629 72.9249 150.788 70.7436 155.026C67.5676 161.194 60.9078 164.75 54.5571 163.671C49.2622 162.771 47.4382 161.599 44.4236 157.148C38.3597 148.195 43.8986 136.335 55.0507 134.394ZM129.104 121.553C133.224 120.807 137.661 121.934 141.487 125.101C146.097 128.917 147.564 134.085 145.738 140.081C143.436 147.636 136.823 151.89 129.35 150.622C118.632 148.805 113.311 138.205 118.619 129.243C121.179 124.92 124.983 122.3 129.104 121.553ZM100.793 180.285C113.528 178.069 115.699 177.948 123.201 179.05C137.124 181.095 150.339 187.646 160.527 197.554C166.981 203.83 168.251 208.118 164.78 211.925C161.003 216.067 156.827 215.424 151.768 209.921C140.296 197.441 120.728 191.077 103.203 194.128C85.6777 197.178 69.4099 209.781 62.8297 225.403C60.4651 231.017 57.6318 233.27 53.7899 232.591C47.1079 231.409 45.929 225.884 50.407 216.723C56.6479 203.956 66.8729 193.324 79.2859 186.695C85.974 183.123 88.0585 182.502 100.793 180.285Z" fill="url(#paint1_linear_374_81)" fill-opacity="0.5"/>
</g>
<path d="M36.1187 134V120.909H41.5775C42.5576 120.909 43.3779 121.048 44.0384 121.325C44.7032 121.602 45.2018 121.989 45.5342 122.488C45.8708 122.987 46.0392 123.564 46.0392 124.22C46.0392 124.719 45.9347 125.164 45.7259 125.556C45.5171 125.944 45.2295 126.266 44.863 126.521C44.4965 126.777 44.0725 126.956 43.591 127.058V127.186C44.1194 127.212 44.6073 127.354 45.0548 127.614C45.5065 127.874 45.8687 128.237 46.1414 128.701C46.4142 129.161 46.5505 129.707 46.5505 130.337C46.5505 131.04 46.3715 131.669 46.0136 132.223C45.6556 132.773 45.1379 133.207 44.4603 133.527C43.7828 133.842 42.9603 134 41.993 134H36.1187ZM39.2828 131.45H41.2387C41.9248 131.45 42.4298 131.32 42.7536 131.06C43.0818 130.8 43.2458 130.438 43.2458 129.973C43.2458 129.636 43.167 129.347 43.0093 129.104C42.8517 128.857 42.6279 128.667 42.3382 128.535C42.0484 128.398 41.7011 128.33 41.2963 128.33H39.2828V131.45ZM39.2828 126.291H41.0342C41.3794 126.291 41.6862 126.234 41.9546 126.119C42.2231 126.004 42.4319 125.837 42.5811 125.62C42.7345 125.403 42.8112 125.141 42.8112 124.834C42.8112 124.395 42.6556 124.05 42.3445 123.798C42.0335 123.547 41.6137 123.421 41.0853 123.421H39.2828V126.291ZM50.8396 134.166C50.2132 134.166 49.657 134.062 49.1713 133.853C48.6897 133.64 48.3083 133.32 48.0271 132.894C47.7501 132.464 47.6116 131.925 47.6116 131.277C47.6116 130.732 47.7075 130.271 47.8992 129.896C48.091 129.521 48.3552 129.217 48.6919 128.982C49.0285 128.748 49.4163 128.571 49.8552 128.452C50.2941 128.328 50.7629 128.245 51.2615 128.202C51.8197 128.151 52.2693 128.098 52.6102 128.043C52.9511 127.983 53.1982 127.9 53.3517 127.793C53.5093 127.683 53.5882 127.527 53.5882 127.327V127.295C53.5882 126.967 53.4752 126.713 53.2494 126.534C53.0235 126.355 52.7188 126.266 52.3353 126.266C51.922 126.266 51.5896 126.355 51.3382 126.534C51.0867 126.713 50.9269 126.96 50.8588 127.276L47.9759 127.173C48.0612 126.577 48.2806 126.044 48.6343 125.575C48.9923 125.102 49.4823 124.732 50.1045 124.463C50.7309 124.19 51.483 124.054 52.3609 124.054C52.9873 124.054 53.5647 124.129 54.0931 124.278C54.6215 124.423 55.0818 124.636 55.4738 124.917C55.8659 125.194 56.1684 125.535 56.3815 125.94C56.5988 126.344 56.7075 126.807 56.7075 127.327V134H53.7671V132.632H53.6904C53.5157 132.964 53.292 133.246 53.0193 133.476C52.7508 133.706 52.4333 133.879 52.0669 133.994C51.7046 134.109 51.2955 134.166 50.8396 134.166ZM51.8048 132.121C52.1414 132.121 52.444 132.053 52.7124 131.916C52.9852 131.78 53.2025 131.592 53.3644 131.354C53.5264 131.111 53.6073 130.83 53.6073 130.51V129.577C53.5178 129.624 53.4092 129.666 53.2813 129.705C53.1578 129.743 53.0214 129.779 52.8722 129.813C52.7231 129.847 52.5697 129.877 52.412 129.903C52.2544 129.928 52.1031 129.952 51.9582 129.973C51.6642 130.02 51.4127 130.092 51.2039 130.19C50.9994 130.288 50.8417 130.416 50.7309 130.574C50.6244 130.727 50.5711 130.911 50.5711 131.124C50.5711 131.447 50.6862 131.695 50.9163 131.865C51.1507 132.036 51.4468 132.121 51.8048 132.121ZM62.2046 134.141C61.4802 134.141 60.8218 133.953 60.2295 133.578C59.6372 133.203 59.1642 132.641 58.8105 131.891C58.4568 131.141 58.2799 130.21 58.2799 129.097C58.2799 127.942 58.4632 126.992 58.8296 126.246C59.1961 125.501 59.6755 124.949 60.2678 124.591C60.8644 124.233 61.5058 124.054 62.1919 124.054C62.7075 124.054 63.1485 124.143 63.515 124.322C63.8815 124.497 64.184 124.723 64.4227 125C64.6613 125.277 64.8424 125.565 64.966 125.863H65.0299V120.909H68.1556V134H65.0619V132.408H64.966C64.8339 132.711 64.6464 132.994 64.4035 133.259C64.1606 133.523 63.8559 133.736 63.4894 133.898C63.1272 134.06 62.699 134.141 62.2046 134.141ZM63.2913 131.705C63.6705 131.705 63.9944 131.599 64.2629 131.386C64.5313 131.168 64.738 130.864 64.8829 130.472C65.0278 130.08 65.1002 129.619 65.1002 129.091C65.1002 128.554 65.0278 128.092 64.8829 127.704C64.7423 127.316 64.5356 127.018 64.2629 126.809C63.9944 126.6 63.6705 126.496 63.2913 126.496C62.9035 126.496 62.5754 126.602 62.3069 126.815C62.0384 127.028 61.8339 127.329 61.6933 127.717C61.5569 128.104 61.4887 128.562 61.4887 129.091C61.4887 129.619 61.559 130.08 61.6997 130.472C61.8403 130.864 62.0427 131.168 62.3069 131.386C62.5754 131.599 62.9035 131.705 63.2913 131.705ZM73.9996 134V120.909H79.4072C80.3873 120.909 81.2332 121.086 81.9449 121.44C82.6608 121.789 83.2126 122.292 83.6004 122.948C83.9882 123.6 84.1821 124.374 84.1821 125.268C84.1821 126.176 83.9839 126.947 83.5876 127.582C83.1913 128.213 82.6288 128.695 81.9001 129.027C81.1714 129.355 80.3085 129.519 79.3113 129.519H75.8916V127.026H78.7233C79.2006 127.026 79.599 126.964 79.9186 126.841C80.2425 126.713 80.4875 126.521 80.6537 126.266C80.8199 126.006 80.903 125.673 80.903 125.268C80.903 124.864 80.8199 124.529 80.6537 124.265C80.4875 123.996 80.2425 123.796 79.9186 123.664C79.5947 123.528 79.1963 123.46 78.7233 123.46H77.1636V134H73.9996ZM81.3696 128.017L84.6295 134H81.1778L77.9818 128.017H81.3696ZM90.3137 134.185C89.2867 134.185 88.4003 133.983 87.6546 133.578C86.9131 133.169 86.3421 132.587 85.9415 131.833C85.5452 131.075 85.347 130.173 85.347 129.129C85.347 128.115 85.5473 127.229 85.9479 126.47C86.3485 125.707 86.9131 125.115 87.6418 124.693C88.3705 124.267 89.2291 124.054 90.2178 124.054C90.9166 124.054 91.5558 124.163 92.1354 124.38C92.7149 124.597 93.2156 124.919 93.6375 125.345C94.0594 125.771 94.3875 126.298 94.6219 126.924C94.8563 127.546 94.9735 128.26 94.9735 129.065V129.845H86.4401V128.03H92.0651C92.0608 127.697 91.982 127.401 91.8286 127.141C91.6752 126.881 91.4642 126.679 91.1958 126.534C90.9316 126.385 90.6269 126.31 90.2817 126.31C89.9323 126.31 89.6191 126.389 89.3421 126.547C89.0651 126.7 88.8456 126.911 88.6837 127.18C88.5218 127.444 88.4365 127.744 88.428 128.081V129.928C88.428 130.329 88.5068 130.68 88.6645 130.983C88.8222 131.281 89.0459 131.513 89.3357 131.68C89.6254 131.846 89.9706 131.929 90.3712 131.929C90.6482 131.929 90.8996 131.891 91.1254 131.814C91.3513 131.737 91.5452 131.624 91.7071 131.475C91.8691 131.326 91.9905 131.143 92.0715 130.925L94.9415 131.009C94.8222 131.652 94.5601 132.212 94.1553 132.69C93.7547 133.163 93.2284 133.531 92.5764 133.795C91.9244 134.055 91.1702 134.185 90.3137 134.185ZM102.981 137.682V132.408H102.917C102.785 132.711 102.598 132.994 102.355 133.259C102.112 133.523 101.807 133.736 101.441 133.898C101.078 134.06 100.65 134.141 100.156 134.141C99.4314 134.141 98.773 133.953 98.1807 133.578C97.5883 133.203 97.1153 132.641 96.7616 131.891C96.4079 131.141 96.2311 130.21 96.2311 129.097C96.2311 127.942 96.4143 126.992 96.7808 126.246C97.1473 125.501 97.6267 124.949 98.219 124.591C98.8156 124.233 99.4569 124.054 100.143 124.054C100.659 124.054 101.1 124.143 101.466 124.322C101.833 124.497 102.135 124.723 102.374 125C102.612 125.277 102.794 125.565 102.917 125.863H103.013V124.182H106.107V137.682H102.981ZM101.242 131.705C101.622 131.705 101.946 131.599 102.214 131.386C102.483 131.168 102.689 130.864 102.834 130.472C102.979 130.08 103.051 129.619 103.051 129.091C103.051 128.554 102.979 128.092 102.834 127.704C102.693 127.316 102.487 127.018 102.214 126.809C101.946 126.6 101.622 126.496 101.242 126.496C100.855 126.496 100.527 126.602 100.258 126.815C99.9896 127.028 99.7851 127.329 99.6444 127.717C99.5081 128.104 99.4399 128.562 99.4399 129.091C99.4399 129.619 99.5102 130.08 99.6508 130.472C99.7915 130.864 99.9939 131.168 100.258 131.386C100.527 131.599 100.855 131.705 101.242 131.705ZM114.418 129.762V124.182H117.537V134H114.559V132.172H114.456C114.239 132.773 113.868 133.25 113.344 133.604C112.824 133.953 112.196 134.128 111.459 134.128C110.79 134.128 110.201 133.974 109.694 133.668C109.187 133.361 108.793 132.933 108.512 132.383C108.231 131.829 108.088 131.181 108.084 130.44V124.182H111.209V129.826C111.214 130.359 111.354 130.778 111.631 131.085C111.908 131.392 112.285 131.545 112.763 131.545C113.074 131.545 113.353 131.477 113.6 131.341C113.851 131.2 114.049 130.998 114.194 130.734C114.343 130.465 114.418 130.141 114.418 129.762ZM124.116 134.185C123.089 134.185 122.203 133.983 121.457 133.578C120.716 133.169 120.145 132.587 119.744 131.833C119.348 131.075 119.15 130.173 119.15 129.129C119.15 128.115 119.35 127.229 119.751 126.47C120.151 125.707 120.716 125.115 121.445 124.693C122.173 124.267 123.032 124.054 124.021 124.054C124.719 124.054 125.359 124.163 125.938 124.38C126.518 124.597 127.018 124.919 127.44 125.345C127.862 125.771 128.19 126.298 128.425 126.924C128.659 127.546 128.776 128.26 128.776 129.065V129.845H120.243V128.03H125.868C125.864 127.697 125.785 127.401 125.631 127.141C125.478 126.881 125.267 126.679 124.998 126.534C124.734 126.385 124.43 126.31 124.084 126.31C123.735 126.31 123.422 126.389 123.145 126.547C122.868 126.7 122.648 126.911 122.486 127.18C122.324 127.444 122.239 127.744 122.231 128.081V129.928C122.231 130.329 122.31 130.68 122.467 130.983C122.625 131.281 122.849 131.513 123.138 131.68C123.428 131.846 123.773 131.929 124.174 131.929C124.451 131.929 124.702 131.891 124.928 131.814C125.154 131.737 125.348 131.624 125.51 131.475C125.672 131.326 125.793 131.143 125.874 130.925L128.744 131.009C128.625 131.652 128.363 132.212 127.958 132.69C127.557 133.163 127.031 133.531 126.379 133.795C125.727 134.055 124.973 134.185 124.116 134.185ZM138.944 127.18L136.074 127.256C136.044 127.052 135.964 126.871 135.831 126.713C135.699 126.551 135.527 126.425 135.314 126.336C135.105 126.242 134.862 126.195 134.585 126.195C134.223 126.195 133.914 126.268 133.658 126.413C133.407 126.558 133.283 126.754 133.287 127.001C133.283 127.192 133.36 127.359 133.517 127.499C133.679 127.64 133.967 127.753 134.38 127.838L136.272 128.196C137.253 128.384 137.981 128.695 138.459 129.129C138.94 129.564 139.183 130.139 139.187 130.855C139.183 131.528 138.983 132.114 138.586 132.613C138.194 133.112 137.657 133.499 136.976 133.776C136.294 134.049 135.514 134.185 134.636 134.185C133.234 134.185 132.128 133.898 131.319 133.322C130.513 132.743 130.053 131.967 129.938 130.996L133.025 130.919C133.093 131.277 133.27 131.55 133.556 131.737C133.841 131.925 134.206 132.018 134.649 132.018C135.049 132.018 135.375 131.944 135.627 131.795C135.878 131.646 136.006 131.447 136.01 131.2C136.006 130.979 135.908 130.802 135.716 130.67C135.525 130.533 135.224 130.427 134.815 130.35L133.102 130.024C132.118 129.845 131.385 129.515 130.903 129.033C130.422 128.548 130.183 127.93 130.187 127.18C130.183 126.523 130.358 125.963 130.711 125.499C131.065 125.03 131.568 124.672 132.22 124.425C132.872 124.178 133.641 124.054 134.527 124.054C135.857 124.054 136.905 124.333 137.672 124.891C138.439 125.445 138.863 126.208 138.944 127.18ZM146.268 124.182V126.483H140.074V124.182H146.268ZM141.372 121.83H144.497V130.913C144.497 131.104 144.527 131.26 144.587 131.379C144.651 131.494 144.742 131.577 144.862 131.629C144.981 131.675 145.124 131.699 145.29 131.699C145.409 131.699 145.535 131.688 145.667 131.667C145.804 131.641 145.906 131.62 145.974 131.603L146.447 133.859C146.298 133.902 146.087 133.955 145.814 134.019C145.546 134.083 145.224 134.124 144.849 134.141C144.116 134.175 143.487 134.089 142.963 133.885C142.443 133.676 142.045 133.352 141.768 132.913C141.495 132.474 141.363 131.923 141.372 131.258V121.83Z" fill="white"/>
<path d="M91.4722 32C90.0106 32.0014 60.4316 48.8768 58.9482 50.556L58 51.6288L58.1161 70.3015C58.2284 88.3438 58.2607 89.0025 59.0646 89.7927C59.754 90.4704 88.285 107.076 90.1086 107.861C91.5697 108.49 94.1964 107.224 108.368 99.0584C119.178 92.8298 123.754 89.9746 124.271 89.1354C124.932 88.0619 124.997 86.3383 124.999 69.7238L125 51.4898L123.856 50.3734C121.928 48.4916 92.8628 32.0012 91.4722 32ZM80.6587 54.8405C81.8046 54.8405 83.3501 55.7768 84.2835 57.0367C85.1551 58.2138 85.1538 60.7683 84.2803 61.9408C83.0085 63.6471 80.8301 64.3756 78.9857 63.7117C77.448 63.1582 76.9632 62.7052 76.2929 61.1932C74.9446 58.1516 77.22 54.8405 80.6587 54.8405ZM103.49 54.8556C104.762 54.8467 106.031 55.4241 107.011 56.5888C108.192 57.9924 108.362 59.6408 107.503 61.3662C106.42 63.5405 104.22 64.4834 102.049 63.7029C98.9361 62.5835 97.8959 59.0808 99.9511 56.6381C100.943 55.4596 102.218 54.8646 103.49 54.8556ZM91.9574 71.2068C95.8841 71.2068 96.5402 71.2852 98.7278 72.0168C102.788 73.3748 106.402 76.0649 108.935 79.6147C110.539 81.8634 110.696 83.234 109.459 84.2071C108.113 85.266 106.896 84.8498 105.669 82.9098C102.886 78.5102 97.3611 75.5409 91.9574 75.5409C86.5537 75.5409 81.0287 78.5102 78.2455 82.9098C77.2454 84.4908 76.2801 85.0257 75.1657 84.6159C73.2275 83.9032 73.1626 82.1617 74.9799 79.6147C77.5128 76.0649 81.1267 73.3748 85.187 72.0168C87.3746 71.2851 88.0308 71.2068 91.9574 71.2068Z" fill="url(#paint2_linear_374_81)"/>
<path d="M21.27 157H19.9888L22.8677 149H24.2622L27.1411 157H25.8599L23.5981 150.453H23.5356L21.27 157ZM21.4849 153.867H25.6411V154.883H21.4849V153.867ZM28.2026 159.25V151H29.3433V151.973H29.4409C29.5086 151.848 29.6063 151.703 29.7339 151.539C29.8615 151.375 30.0386 151.232 30.2651 151.109C30.4917 150.984 30.7912 150.922 31.1636 150.922C31.6479 150.922 32.0802 151.044 32.4604 151.289C32.8407 151.534 33.1388 151.887 33.355 152.348C33.5737 152.809 33.6831 153.363 33.6831 154.012C33.6831 154.66 33.575 155.216 33.3589 155.68C33.1427 156.141 32.8459 156.496 32.4683 156.746C32.0907 156.993 31.6597 157.117 31.1753 157.117C30.8107 157.117 30.5125 157.056 30.2808 156.934C30.0516 156.811 29.8719 156.668 29.7417 156.504C29.6115 156.34 29.5112 156.194 29.4409 156.066H29.3706V159.25H28.2026ZM29.3472 154C29.3472 154.422 29.4084 154.792 29.5308 155.109C29.6532 155.427 29.8302 155.676 30.062 155.855C30.2938 156.033 30.5776 156.121 30.9136 156.121C31.2625 156.121 31.5542 156.029 31.7886 155.844C32.0229 155.656 32.2 155.402 32.3198 155.082C32.4422 154.762 32.5034 154.401 32.5034 154C32.5034 153.604 32.4435 153.249 32.3237 152.934C32.2065 152.618 32.0295 152.37 31.7925 152.188C31.5581 152.005 31.2651 151.914 30.9136 151.914C30.575 151.914 30.2886 152.001 30.0542 152.176C29.8224 152.35 29.6466 152.594 29.5269 152.906C29.4071 153.219 29.3472 153.583 29.3472 154ZM37.5776 157.121C36.9865 157.121 36.4774 156.995 36.0503 156.742C35.6258 156.487 35.2977 156.129 35.0659 155.668C34.8368 155.204 34.7222 154.661 34.7222 154.039C34.7222 153.424 34.8368 152.883 35.0659 152.414C35.2977 151.945 35.6206 151.579 36.0347 151.316C36.4513 151.053 36.9383 150.922 37.4956 150.922C37.8341 150.922 38.1623 150.978 38.48 151.09C38.7977 151.202 39.0828 151.378 39.3354 151.617C39.5881 151.857 39.7873 152.168 39.9331 152.551C40.0789 152.931 40.1519 153.393 40.1519 153.937V154.352H35.3823V153.477H39.0073C39.0073 153.169 38.9448 152.897 38.8198 152.66C38.6948 152.421 38.519 152.232 38.2925 152.094C38.0685 151.956 37.8055 151.887 37.5034 151.887C37.1753 151.887 36.8888 151.967 36.644 152.129C36.4019 152.288 36.2144 152.496 36.0815 152.754C35.9513 153.009 35.8862 153.286 35.8862 153.586V154.27C35.8862 154.671 35.9565 155.012 36.0972 155.293C36.2404 155.574 36.4396 155.789 36.6948 155.937C36.95 156.083 37.2482 156.156 37.5894 156.156C37.8107 156.156 38.0125 156.125 38.1948 156.062C38.3771 155.997 38.5347 155.901 38.6675 155.773C38.8003 155.646 38.9019 155.488 38.9722 155.301L40.0776 155.5C39.9891 155.826 39.8302 156.111 39.6011 156.355C39.3745 156.598 39.0894 156.786 38.7456 156.922C38.4045 157.055 38.0151 157.121 37.5776 157.121ZM42.6157 153.437V157H41.4478V151H42.5688V151.977H42.6431C42.7811 151.659 42.9972 151.404 43.2915 151.211C43.5884 151.018 43.9621 150.922 44.4126 150.922C44.8215 150.922 45.1795 151.008 45.4868 151.18C45.7941 151.349 46.0324 151.602 46.2017 151.937C46.3709 152.273 46.4556 152.689 46.4556 153.184V157H45.2876V153.324C45.2876 152.889 45.1743 152.549 44.9478 152.305C44.7212 152.057 44.41 151.934 44.0142 151.934C43.7433 151.934 43.5024 151.992 43.2915 152.109C43.0832 152.227 42.9178 152.398 42.7954 152.625C42.6756 152.849 42.6157 153.12 42.6157 153.437ZM49.7681 157.133C49.3879 157.133 49.0441 157.063 48.7368 156.922C48.4295 156.779 48.186 156.572 48.0063 156.301C47.8293 156.03 47.7407 155.698 47.7407 155.305C47.7407 154.966 47.8058 154.687 47.936 154.469C48.0662 154.25 48.242 154.077 48.4634 153.949C48.6847 153.822 48.9321 153.725 49.2056 153.66C49.479 153.595 49.7576 153.546 50.0415 153.512C50.4009 153.47 50.6925 153.436 50.9165 153.41C51.1405 153.382 51.3032 153.336 51.4048 153.273C51.5063 153.211 51.5571 153.109 51.5571 152.969V152.941C51.5571 152.6 51.4608 152.336 51.2681 152.148C51.078 151.961 50.7941 151.867 50.4165 151.867C50.0233 151.867 49.7134 151.954 49.4868 152.129C49.2629 152.301 49.1079 152.492 49.022 152.703L47.9243 152.453C48.0545 152.089 48.2446 151.794 48.4946 151.57C48.7472 151.344 49.0376 151.18 49.3657 151.078C49.6938 150.974 50.0389 150.922 50.4009 150.922C50.6405 150.922 50.8944 150.951 51.1626 151.008C51.4334 151.062 51.686 151.164 51.9204 151.312C52.1574 151.461 52.3514 151.673 52.5024 151.949C52.6535 152.223 52.729 152.578 52.729 153.016V157H51.5884V156.18H51.5415C51.466 156.331 51.3527 156.479 51.2017 156.625C51.0506 156.771 50.8566 156.892 50.6196 156.988C50.3826 157.085 50.0988 157.133 49.7681 157.133ZM50.022 156.195C50.3449 156.195 50.6209 156.132 50.8501 156.004C51.0819 155.876 51.2576 155.71 51.3774 155.504C51.4998 155.296 51.561 155.073 51.561 154.836V154.062C51.5194 154.104 51.4386 154.143 51.3188 154.18C51.2017 154.214 51.0675 154.243 50.9165 154.27C50.7655 154.293 50.6183 154.315 50.4751 154.336C50.3319 154.354 50.2121 154.37 50.1157 154.383C49.8892 154.411 49.6821 154.46 49.4946 154.527C49.3097 154.595 49.1613 154.693 49.0493 154.82C48.9399 154.945 48.8853 155.112 48.8853 155.32C48.8853 155.609 48.992 155.828 49.2056 155.977C49.4191 156.122 49.6912 156.195 50.022 156.195ZM58.7808 152.465L57.7222 152.652C57.6779 152.517 57.6076 152.388 57.5112 152.266C57.4175 152.143 57.2899 152.043 57.1284 151.965C56.967 151.887 56.7651 151.848 56.5229 151.848C56.1922 151.848 55.9162 151.922 55.6948 152.07C55.4735 152.216 55.3628 152.405 55.3628 152.637C55.3628 152.837 55.437 152.999 55.5854 153.121C55.7339 153.243 55.9735 153.344 56.3042 153.422L57.2573 153.641C57.8094 153.768 58.2209 153.965 58.4917 154.23C58.7625 154.496 58.8979 154.841 58.8979 155.266C58.8979 155.625 58.7938 155.945 58.5854 156.227C58.3797 156.505 58.092 156.724 57.7222 156.883C57.355 157.042 56.9292 157.121 56.4448 157.121C55.7729 157.121 55.2248 156.978 54.8003 156.691C54.3758 156.402 54.1154 155.992 54.019 155.461L55.1479 155.289C55.2183 155.583 55.3628 155.806 55.5815 155.957C55.8003 156.105 56.0854 156.18 56.437 156.18C56.8198 156.18 57.1258 156.1 57.355 155.941C57.5841 155.78 57.6987 155.583 57.6987 155.352C57.6987 155.164 57.6284 155.007 57.4878 154.879C57.3498 154.751 57.1375 154.655 56.8511 154.59L55.8354 154.367C55.2756 154.24 54.8615 154.036 54.5933 153.758C54.3276 153.479 54.1948 153.126 54.1948 152.699C54.1948 152.345 54.2938 152.035 54.4917 151.77C54.6896 151.504 54.9631 151.297 55.312 151.148C55.661 150.997 56.0607 150.922 56.5112 150.922C57.1597 150.922 57.6701 151.062 58.0425 151.344C58.4149 151.622 58.661 151.996 58.7808 152.465ZM66.894 154.512V151H68.0659V157H66.9175V155.961H66.855C66.717 156.281 66.4956 156.548 66.1909 156.762C65.8888 156.973 65.5125 157.078 65.062 157.078C64.6766 157.078 64.3354 156.993 64.0386 156.824C63.7443 156.652 63.5125 156.398 63.3433 156.062C63.1766 155.727 63.0933 155.311 63.0933 154.816V151H64.2612V154.676C64.2612 155.085 64.3745 155.41 64.6011 155.652C64.8276 155.895 65.1219 156.016 65.4839 156.016C65.7026 156.016 65.9201 155.961 66.1362 155.852C66.355 155.742 66.536 155.577 66.6792 155.355C66.825 155.134 66.8966 154.853 66.894 154.512ZM69.6353 157V151H70.7563V151.977H70.8306C70.9556 151.646 71.16 151.388 71.4438 151.203C71.7277 151.016 72.0675 150.922 72.4634 150.922C72.8644 150.922 73.2004 151.016 73.4712 151.203C73.7446 151.391 73.9465 151.648 74.0767 151.977H74.1392C74.2824 151.656 74.5103 151.401 74.8228 151.211C75.1353 151.018 75.5076 150.922 75.9399 150.922C76.4842 150.922 76.9282 151.092 77.272 151.434C77.6183 151.775 77.7915 152.289 77.7915 152.977V157H76.6235V153.086C76.6235 152.68 76.5129 152.385 76.2915 152.203C76.0701 152.021 75.8058 151.93 75.4985 151.93C75.1183 151.93 74.8228 152.047 74.6118 152.281C74.4009 152.513 74.2954 152.811 74.2954 153.176V157H73.1313V153.012C73.1313 152.686 73.0298 152.424 72.8267 152.227C72.6235 152.029 72.3592 151.93 72.0337 151.93C71.8123 151.93 71.6079 151.988 71.4204 152.105C71.2355 152.22 71.0858 152.38 70.9712 152.586C70.8592 152.792 70.8032 153.03 70.8032 153.301V157H69.6353ZM82.0376 151.5V150.75C82.0376 150.529 82.0793 150.296 82.1626 150.051C82.2459 149.806 82.3618 149.572 82.5103 149.348C82.6587 149.124 82.8332 148.932 83.0337 148.773L83.6118 149.187C83.453 149.419 83.3175 149.661 83.2056 149.914C83.0936 150.167 83.0376 150.441 83.0376 150.738V151.5H82.0376ZM84.0298 151.5V150.75C84.0298 150.529 84.0715 150.296 84.1548 150.051C84.2381 149.806 84.354 149.572 84.5024 149.348C84.6509 149.124 84.8254 148.932 85.0259 148.773L85.604 149.187C85.4451 149.419 85.3097 149.661 85.1978 149.914C85.0858 150.167 85.0298 150.441 85.0298 150.738V151.5H84.0298ZM86.7017 149H88.1665L90.7134 155.219H90.8071L93.354 149H94.8188V157H93.6704V151.211H93.5962L91.2368 156.988H90.2837L87.9243 151.207H87.8501V157H86.7017V149ZM99.0659 157.121C98.4748 157.121 97.9657 156.995 97.5386 156.742C97.1141 156.487 96.786 156.129 96.5542 155.668C96.325 155.204 96.2104 154.661 96.2104 154.039C96.2104 153.424 96.325 152.883 96.5542 152.414C96.786 151.945 97.1089 151.579 97.5229 151.316C97.9396 151.053 98.4266 150.922 98.9839 150.922C99.3224 150.922 99.6506 150.978 99.9683 151.09C100.286 151.202 100.571 151.378 100.824 151.617C101.076 151.857 101.276 152.168 101.421 152.551C101.567 152.931 101.64 153.393 101.64 153.937V154.352H96.8706V153.477H100.496C100.496 153.169 100.433 152.897 100.308 152.66C100.183 152.421 100.007 152.232 99.7808 152.094C99.5568 151.956 99.2938 151.887 98.9917 151.887C98.6636 151.887 98.3771 151.967 98.1323 152.129C97.8901 152.288 97.7026 152.496 97.5698 152.754C97.4396 153.009 97.3745 153.286 97.3745 153.586V154.27C97.3745 154.671 97.4448 155.012 97.5854 155.293C97.7287 155.574 97.9279 155.789 98.1831 155.937C98.4383 156.083 98.7365 156.156 99.0776 156.156C99.299 156.156 99.5008 156.125 99.6831 156.062C99.8654 155.997 100.023 155.901 100.156 155.773C100.289 155.646 100.39 155.488 100.46 155.301L101.566 155.5C101.477 155.826 101.319 156.111 101.089 156.355C100.863 156.598 100.578 156.786 100.234 156.922C99.8927 157.055 99.5034 157.121 99.0659 157.121ZM105.737 151V151.937H102.459V151H105.737ZM103.338 149.562H104.506V155.238C104.506 155.465 104.54 155.635 104.608 155.75C104.676 155.862 104.763 155.939 104.87 155.98C104.979 156.02 105.097 156.039 105.225 156.039C105.319 156.039 105.401 156.033 105.471 156.02C105.542 156.007 105.596 155.996 105.635 155.988L105.846 156.953C105.778 156.979 105.682 157.005 105.557 157.031C105.432 157.06 105.276 157.076 105.088 157.078C104.781 157.083 104.495 157.029 104.229 156.914C103.963 156.799 103.749 156.622 103.584 156.383C103.42 156.143 103.338 155.842 103.338 155.48V149.562ZM108.326 153.437V157H107.158V149H108.31V151.977H108.384C108.525 151.654 108.74 151.397 109.029 151.207C109.318 151.017 109.695 150.922 110.162 150.922C110.573 150.922 110.932 151.007 111.24 151.176C111.55 151.345 111.789 151.598 111.958 151.934C112.13 152.267 112.216 152.684 112.216 153.184V157H111.048V153.324C111.048 152.884 110.935 152.543 110.708 152.301C110.482 152.056 110.167 151.934 109.763 151.934C109.487 151.934 109.24 151.992 109.021 152.109C108.805 152.227 108.634 152.398 108.509 152.625C108.387 152.849 108.326 153.12 108.326 153.437ZM116.302 157.121C115.74 157.121 115.249 156.992 114.83 156.734C114.41 156.477 114.085 156.116 113.853 155.652C113.621 155.189 113.505 154.647 113.505 154.027C113.505 153.405 113.621 152.861 113.853 152.395C114.085 151.928 114.41 151.566 114.83 151.309C115.249 151.051 115.74 150.922 116.302 150.922C116.865 150.922 117.356 151.051 117.775 151.309C118.194 151.566 118.52 151.928 118.751 152.395C118.983 152.861 119.099 153.405 119.099 154.027C119.099 154.647 118.983 155.189 118.751 155.652C118.52 156.116 118.194 156.477 117.775 156.734C117.356 156.992 116.865 157.121 116.302 157.121ZM116.306 156.141C116.671 156.141 116.973 156.044 117.212 155.852C117.452 155.659 117.629 155.402 117.744 155.082C117.861 154.762 117.919 154.409 117.919 154.023C117.919 153.641 117.861 153.289 117.744 152.969C117.629 152.646 117.452 152.387 117.212 152.191C116.973 151.996 116.671 151.898 116.306 151.898C115.939 151.898 115.634 151.996 115.392 152.191C115.153 152.387 114.974 152.646 114.857 152.969C114.742 153.289 114.685 153.641 114.685 154.023C114.685 154.409 114.742 154.762 114.857 155.082C114.974 155.402 115.153 155.659 115.392 155.852C115.634 156.044 115.939 156.141 116.306 156.141ZM122.649 157.117C122.165 157.117 121.732 156.993 121.352 156.746C120.974 156.496 120.678 156.141 120.461 155.68C120.248 155.216 120.141 154.66 120.141 154.012C120.141 153.363 120.249 152.809 120.465 152.348C120.684 151.887 120.984 151.534 121.364 151.289C121.744 151.044 122.175 150.922 122.657 150.922C123.029 150.922 123.329 150.984 123.555 151.109C123.784 151.232 123.961 151.375 124.086 151.539C124.214 151.703 124.313 151.848 124.383 151.973H124.454V149H125.622V157H124.481V156.066H124.383C124.313 156.194 124.211 156.34 124.079 156.504C123.948 156.668 123.769 156.811 123.54 156.934C123.31 157.056 123.014 157.117 122.649 157.117ZM122.907 156.121C123.243 156.121 123.527 156.033 123.758 155.855C123.993 155.676 124.17 155.427 124.29 155.109C124.412 154.792 124.473 154.422 124.473 154C124.473 153.583 124.413 153.219 124.293 152.906C124.174 152.594 123.998 152.35 123.766 152.176C123.534 152.001 123.248 151.914 122.907 151.914C122.555 151.914 122.262 152.005 122.028 152.188C121.793 152.37 121.616 152.618 121.497 152.934C121.379 153.249 121.321 153.604 121.321 154C121.321 154.401 121.381 154.762 121.5 155.082C121.62 155.402 121.797 155.656 122.032 155.844C122.269 156.029 122.56 156.121 122.907 156.121ZM130.293 157V149H131.5V152.477H135.489V149H136.7V157H135.489V153.512H131.5V157H130.293ZM138.063 150.039V149H144.254V150.039H141.758V157H140.555V150.039H138.063ZM145.228 150.039V149H151.419V150.039H148.923V157H147.72V150.039H145.228ZM152.788 157V149H155.639C156.262 149 156.777 149.113 157.186 149.34C157.595 149.566 157.901 149.876 158.104 150.27C158.307 150.66 158.409 151.1 158.409 151.59C158.409 152.082 158.306 152.525 158.1 152.918C157.897 153.309 157.59 153.618 157.178 153.848C156.769 154.074 156.255 154.188 155.635 154.188H153.674V153.164H155.526C155.919 153.164 156.238 153.096 156.483 152.961C156.728 152.823 156.907 152.635 157.022 152.398C157.137 152.161 157.194 151.892 157.194 151.59C157.194 151.288 157.137 151.02 157.022 150.785C156.907 150.551 156.726 150.367 156.479 150.234C156.234 150.102 155.911 150.035 155.51 150.035H153.995V157H152.788ZM160.734 149V149.75C160.734 149.971 160.692 150.204 160.609 150.449C160.528 150.691 160.414 150.924 160.265 151.148C160.117 151.372 159.942 151.565 159.742 151.727L159.164 151.312C159.317 151.089 159.45 150.85 159.562 150.598C159.677 150.345 159.734 150.066 159.734 149.762V149H160.734ZM162.722 149V149.75C162.722 149.971 162.681 150.204 162.597 150.449C162.516 150.691 162.402 150.924 162.253 151.148C162.105 151.372 161.931 151.565 161.73 151.727L161.152 151.312C161.306 151.089 161.438 150.85 161.55 150.598C161.665 150.345 161.722 150.066 161.722 149.762V149H162.722ZM23.6104 172.25V164H24.751V164.973H24.8486C24.9163 164.848 25.014 164.703 25.1416 164.539C25.2692 164.375 25.4463 164.232 25.6729 164.109C25.8994 163.984 26.1989 163.922 26.5713 163.922C27.0557 163.922 27.488 164.044 27.8682 164.289C28.2484 164.534 28.5465 164.887 28.7627 165.348C28.9814 165.809 29.0908 166.363 29.0908 167.012C29.0908 167.66 28.9827 168.216 28.7666 168.68C28.5505 169.141 28.2536 169.496 27.876 169.746C27.4984 169.993 27.0674 170.117 26.583 170.117C26.2184 170.117 25.9202 170.056 25.6885 169.934C25.4593 169.811 25.2796 169.668 25.1494 169.504C25.0192 169.34 24.9189 169.194 24.8486 169.066H24.7783V172.25H23.6104ZM24.7549 167C24.7549 167.422 24.8161 167.792 24.9385 168.109C25.0609 168.427 25.238 168.676 25.4697 168.855C25.7015 169.033 25.9854 169.121 26.3213 169.121C26.6702 169.121 26.9619 169.029 27.1963 168.844C27.4307 168.656 27.6077 168.402 27.7275 168.082C27.8499 167.762 27.9111 167.401 27.9111 167C27.9111 166.604 27.8512 166.249 27.7314 165.934C27.6143 165.618 27.4372 165.37 27.2002 165.188C26.9658 165.005 26.6729 164.914 26.3213 164.914C25.9827 164.914 25.6963 165.001 25.4619 165.176C25.2301 165.35 25.0544 165.594 24.9346 165.906C24.8148 166.219 24.7549 166.583 24.7549 167ZM32.9268 170.121C32.3643 170.121 31.8734 169.992 31.4541 169.734C31.0348 169.477 30.7093 169.116 30.4775 168.652C30.2458 168.189 30.1299 167.647 30.1299 167.027C30.1299 166.405 30.2458 165.861 30.4775 165.395C30.7093 164.928 31.0348 164.566 31.4541 164.309C31.8734 164.051 32.3643 163.922 32.9268 163.922C33.4893 163.922 33.9801 164.051 34.3994 164.309C34.8187 164.566 35.1442 164.928 35.376 165.395C35.6077 165.861 35.7236 166.405 35.7236 167.027C35.7236 167.647 35.6077 168.189 35.376 168.652C35.1442 169.116 34.8187 169.477 34.3994 169.734C33.9801 169.992 33.4893 170.121 32.9268 170.121ZM32.9307 169.141C33.2952 169.141 33.5973 169.044 33.8369 168.852C34.0765 168.659 34.2536 168.402 34.3682 168.082C34.4854 167.762 34.5439 167.409 34.5439 167.023C34.5439 166.641 34.4854 166.289 34.3682 165.969C34.2536 165.646 34.0765 165.387 33.8369 165.191C33.5973 164.996 33.2952 164.898 32.9307 164.898C32.5635 164.898 32.2588 164.996 32.0166 165.191C31.777 165.387 31.5986 165.646 31.4814 165.969C31.3669 166.289 31.3096 166.641 31.3096 167.023C31.3096 167.409 31.3669 167.762 31.4814 168.082C31.5986 168.402 31.777 168.659 32.0166 168.852C32.2588 169.044 32.5635 169.141 32.9307 169.141ZM39.2734 170.117C38.7891 170.117 38.3568 169.993 37.9766 169.746C37.599 169.496 37.3021 169.141 37.0859 168.68C36.8724 168.216 36.7656 167.66 36.7656 167.012C36.7656 166.363 36.8737 165.809 37.0898 165.348C37.3086 164.887 37.6081 164.534 37.9883 164.289C38.3685 164.044 38.7995 163.922 39.2812 163.922C39.6536 163.922 39.9531 163.984 40.1797 164.109C40.4089 164.232 40.5859 164.375 40.7109 164.539C40.8385 164.703 40.9375 164.848 41.0078 164.973H41.0781V162H42.2461V170H41.1055V169.066H41.0078C40.9375 169.194 40.8359 169.34 40.7031 169.504C40.5729 169.668 40.3932 169.811 40.1641 169.934C39.9349 170.056 39.638 170.117 39.2734 170.117ZM39.5313 169.121C39.8672 169.121 40.151 169.033 40.3828 168.855C40.6172 168.676 40.7943 168.427 40.9141 168.109C41.0365 167.792 41.0977 167.422 41.0977 167C41.0977 166.583 41.0378 166.219 40.918 165.906C40.7982 165.594 40.6224 165.35 40.3906 165.176C40.1589 165.001 39.8724 164.914 39.5313 164.914C39.1797 164.914 38.8867 165.005 38.6523 165.188C38.418 165.37 38.2409 165.618 38.1211 165.934C38.0039 166.249 37.9453 166.604 37.9453 167C37.9453 167.401 38.0052 167.762 38.125 168.082C38.2448 168.402 38.4219 168.656 38.6563 168.844C38.8932 169.029 39.1849 169.121 39.5313 169.121ZM46.499 170.121C45.9079 170.121 45.3988 169.995 44.9717 169.742C44.5472 169.487 44.2191 169.129 43.9873 168.668C43.7581 168.204 43.6436 167.661 43.6436 167.039C43.6436 166.424 43.7581 165.883 43.9873 165.414C44.2191 164.945 44.542 164.579 44.9561 164.316C45.3727 164.053 45.8597 163.922 46.417 163.922C46.7555 163.922 47.0837 163.978 47.4014 164.09C47.7191 164.202 48.0042 164.378 48.2568 164.617C48.5094 164.857 48.7087 165.168 48.8545 165.551C49.0003 165.931 49.0732 166.393 49.0732 166.937V167.352H44.3037V166.477H47.9287C47.9287 166.169 47.8662 165.897 47.7412 165.66C47.6162 165.421 47.4404 165.232 47.2139 165.094C46.9899 164.956 46.7269 164.887 46.4248 164.887C46.0967 164.887 45.8102 164.967 45.5654 165.129C45.3232 165.288 45.1357 165.496 45.0029 165.754C44.8727 166.009 44.8076 166.286 44.8076 166.586V167.27C44.8076 167.671 44.8779 168.012 45.0186 168.293C45.1618 168.574 45.361 168.789 45.6162 168.937C45.8714 169.083 46.1696 169.156 46.5107 169.156C46.7321 169.156 46.9339 169.125 47.1162 169.062C47.2985 168.997 47.4561 168.901 47.5889 168.773C47.7217 168.646 47.8232 168.488 47.8936 168.301L48.999 168.5C48.9105 168.826 48.7516 169.111 48.5225 169.355C48.2959 169.598 48.0107 169.786 47.667 169.922C47.3258 170.055 46.9365 170.121 46.499 170.121ZM57.7764 165.465L56.7178 165.652C56.6735 165.517 56.6032 165.388 56.5068 165.266C56.4131 165.143 56.2855 165.043 56.124 164.965C55.9626 164.887 55.7607 164.848 55.5186 164.848C55.1878 164.848 54.9118 164.922 54.6904 165.07C54.4691 165.216 54.3584 165.405 54.3584 165.637C54.3584 165.837 54.4326 165.999 54.5811 166.121C54.7295 166.243 54.9691 166.344 55.2998 166.422L56.2529 166.641C56.805 166.768 57.2165 166.965 57.4873 167.23C57.7581 167.496 57.8936 167.841 57.8936 168.266C57.8936 168.625 57.7894 168.945 57.5811 169.227C57.3753 169.505 57.0876 169.724 56.7178 169.883C56.3506 170.042 55.9248 170.121 55.4404 170.121C54.7686 170.121 54.2204 169.978 53.7959 169.691C53.3714 169.402 53.111 168.992 53.0146 168.461L54.1436 168.289C54.2139 168.583 54.3584 168.806 54.5771 168.957C54.7959 169.105 55.0811 169.18 55.4326 169.18C55.8154 169.18 56.1214 169.1 56.3506 168.941C56.5798 168.78 56.6943 168.583 56.6943 168.352C56.6943 168.164 56.624 168.007 56.4834 167.879C56.3454 167.751 56.1331 167.655 55.8467 167.59L54.8311 167.367C54.2712 167.24 53.8571 167.036 53.5889 166.758C53.3232 166.479 53.1904 166.126 53.1904 165.699C53.1904 165.345 53.2894 165.035 53.4873 164.77C53.6852 164.504 53.9587 164.297 54.3076 164.148C54.6566 163.997 55.0563 163.922 55.5068 163.922C56.1553 163.922 56.6657 164.062 57.0381 164.344C57.4105 164.622 57.6566 164.996 57.7764 165.465ZM61.7637 170.121C61.1725 170.121 60.6634 169.995 60.2363 169.742C59.8118 169.487 59.4837 169.129 59.252 168.668C59.0228 168.204 58.9082 167.661 58.9082 167.039C58.9082 166.424 59.0228 165.883 59.252 165.414C59.4837 164.945 59.8066 164.579 60.2207 164.316C60.6374 164.053 61.1243 163.922 61.6816 163.922C62.0202 163.922 62.3483 163.978 62.666 164.09C62.9837 164.202 63.2689 164.378 63.5215 164.617C63.7741 164.857 63.9733 165.168 64.1191 165.551C64.265 165.931 64.3379 166.393 64.3379 166.937V167.352H59.5684V166.477H63.1934C63.1934 166.169 63.1309 165.897 63.0059 165.66C62.8809 165.421 62.7051 165.232 62.4785 165.094C62.2546 164.956 61.9915 164.887 61.6895 164.887C61.3613 164.887 61.0749 164.967 60.8301 165.129C60.5879 165.288 60.4004 165.496 60.2676 165.754C60.1374 166.009 60.0723 166.286 60.0723 166.586V167.27C60.0723 167.671 60.1426 168.012 60.2832 168.293C60.4264 168.574 60.6257 168.789 60.8809 168.937C61.1361 169.083 61.4342 169.156 61.7754 169.156C61.9967 169.156 62.1986 169.125 62.3809 169.062C62.5632 168.997 62.7207 168.901 62.8535 168.773C62.9863 168.646 63.0879 168.488 63.1582 168.301L64.2637 168.5C64.1751 168.826 64.0163 169.111 63.7871 169.355C63.5605 169.598 63.2754 169.786 62.9316 169.922C62.5905 170.055 62.2012 170.121 61.7637 170.121ZM65.6338 170V164H66.7627V164.953H66.8252C66.9346 164.63 67.1273 164.376 67.4033 164.191C67.682 164.004 67.9971 163.91 68.3486 163.91C68.4215 163.91 68.5075 163.913 68.6064 163.918C68.708 163.923 68.7874 163.93 68.8447 163.937V165.055C68.7979 165.042 68.7145 165.027 68.5947 165.012C68.4749 164.993 68.3551 164.984 68.2354 164.984C67.9593 164.984 67.7132 165.043 67.4971 165.16C67.2835 165.275 67.1143 165.435 66.9893 165.641C66.8643 165.844 66.8018 166.076 66.8018 166.336V170H65.6338ZM75.2822 172.375C74.8057 172.375 74.3955 172.313 74.0518 172.188C73.7106 172.063 73.432 171.897 73.2158 171.691C72.9997 171.486 72.8382 171.26 72.7314 171.016L73.7354 170.602C73.8057 170.716 73.8994 170.837 74.0166 170.965C74.1364 171.095 74.2979 171.206 74.501 171.297C74.7067 171.388 74.971 171.434 75.2939 171.434C75.7367 171.434 76.1025 171.326 76.3916 171.109C76.6807 170.896 76.8252 170.555 76.8252 170.086V168.906H76.751C76.6807 169.034 76.5791 169.176 76.4463 169.332C76.3161 169.488 76.1364 169.624 75.9072 169.738C75.6781 169.853 75.3799 169.91 75.0127 169.91C74.5387 169.91 74.1117 169.799 73.7314 169.578C73.3538 169.354 73.0544 169.025 72.833 168.59C72.6143 168.152 72.5049 167.615 72.5049 166.977C72.5049 166.339 72.613 165.792 72.8291 165.336C73.0479 164.88 73.3473 164.531 73.7275 164.289C74.1077 164.044 74.5387 163.922 75.0205 163.922C75.3929 163.922 75.6937 163.984 75.9229 164.109C76.152 164.232 76.3304 164.375 76.458 164.539C76.5882 164.703 76.6885 164.848 76.7588 164.973H76.8447V164H77.9893V170.133C77.9893 170.648 77.8695 171.072 77.6299 171.402C77.3903 171.733 77.0661 171.978 76.6572 172.137C76.251 172.296 75.7926 172.375 75.2822 172.375ZM75.2705 168.941C75.6064 168.941 75.8903 168.863 76.1221 168.707C76.3564 168.548 76.5335 168.322 76.6533 168.027C76.7757 167.73 76.8369 167.375 76.8369 166.961C76.8369 166.557 76.777 166.202 76.6572 165.895C76.5374 165.587 76.3617 165.348 76.1299 165.176C75.8981 165.001 75.6117 164.914 75.2705 164.914C74.9189 164.914 74.626 165.005 74.3916 165.188C74.1572 165.367 73.9801 165.612 73.8604 165.922C73.7432 166.232 73.6846 166.578 73.6846 166.961C73.6846 167.354 73.7445 167.699 73.8643 167.996C73.984 168.293 74.1611 168.525 74.3955 168.691C74.6325 168.858 74.9242 168.941 75.2705 168.941ZM82.1416 170.121C81.5505 170.121 81.0413 169.995 80.6143 169.742C80.1898 169.487 79.8617 169.129 79.6299 168.668C79.4007 168.204 79.2861 167.661 79.2861 167.039C79.2861 166.424 79.4007 165.883 79.6299 165.414C79.8617 164.945 80.1846 164.579 80.5986 164.316C81.0153 164.053 81.5023 163.922 82.0596 163.922C82.3981 163.922 82.7262 163.978 83.0439 164.09C83.3617 164.202 83.6468 164.378 83.8994 164.617C84.152 164.857 84.3512 165.168 84.4971 165.551C84.6429 165.931 84.7158 166.393 84.7158 166.937V167.352H79.9463V166.477H83.5713C83.5713 166.169 83.5088 165.897 83.3838 165.66C83.2588 165.421 83.083 165.232 82.8564 165.094C82.6325 164.956 82.3695 164.887 82.0674 164.887C81.7393 164.887 81.4528 164.967 81.208 165.129C80.9658 165.288 80.7783 165.496 80.6455 165.754C80.5153 166.009 80.4502 166.286 80.4502 166.586V167.27C80.4502 167.671 80.5205 168.012 80.6611 168.293C80.8044 168.574 81.0036 168.789 81.2588 168.937C81.514 169.083 81.8122 169.156 82.1533 169.156C82.3747 169.156 82.5765 169.125 82.7588 169.062C82.9411 168.997 83.0986 168.901 83.2314 168.773C83.3643 168.646 83.4658 168.488 83.5361 168.301L84.6416 168.5C84.5531 168.826 84.3942 169.111 84.165 169.355C83.9385 169.598 83.6533 169.786 83.3096 169.922C82.9684 170.055 82.5791 170.121 82.1416 170.121ZM86.0117 170V164H87.1406V164.953H87.2031C87.3125 164.63 87.5052 164.376 87.7813 164.191C88.0599 164.004 88.375 163.91 88.7266 163.91C88.7995 163.91 88.8854 163.913 88.9844 163.918C89.0859 163.923 89.1654 163.93 89.2227 163.937V165.055C89.1758 165.042 89.0924 165.027 88.9727 165.012C88.8529 164.993 88.7331 164.984 88.6133 164.984C88.3372 164.984 88.0911 165.043 87.875 165.16C87.6615 165.275 87.4922 165.435 87.3672 165.641C87.2422 165.844 87.1797 166.076 87.1797 166.336V170H86.0117ZM91.9258 170.133C91.5456 170.133 91.2018 170.063 90.8945 169.922C90.5872 169.779 90.3438 169.572 90.1641 169.301C89.987 169.03 89.8984 168.698 89.8984 168.305C89.8984 167.966 89.9635 167.687 90.0938 167.469C90.224 167.25 90.3997 167.077 90.6211 166.949C90.8424 166.822 91.0898 166.725 91.3633 166.66C91.6367 166.595 91.9154 166.546 92.1992 166.512C92.5586 166.47 92.8503 166.436 93.0742 166.41C93.2982 166.382 93.4609 166.336 93.5625 166.273C93.6641 166.211 93.7148 166.109 93.7148 165.969V165.941C93.7148 165.6 93.6185 165.336 93.4258 165.148C93.2357 164.961 92.9518 164.867 92.5742 164.867C92.181 164.867 91.8711 164.954 91.6445 165.129C91.4206 165.301 91.2656 165.492 91.1797 165.703L90.082 165.453C90.2122 165.089 90.4023 164.794 90.6523 164.57C90.9049 164.344 91.1953 164.18 91.5234 164.078C91.8516 163.974 92.1966 163.922 92.5586 163.922C92.7982 163.922 93.0521 163.951 93.3203 164.008C93.5911 164.062 93.8438 164.164 94.0781 164.312C94.3151 164.461 94.5091 164.673 94.6602 164.949C94.8112 165.223 94.8867 165.578 94.8867 166.016V170H93.7461V169.18H93.6992C93.6237 169.331 93.5104 169.479 93.3594 169.625C93.2083 169.771 93.0143 169.892 92.7773 169.988C92.5404 170.085 92.2565 170.133 91.9258 170.133ZM92.1797 169.195C92.5026 169.195 92.7786 169.132 93.0078 169.004C93.2396 168.876 93.4154 168.71 93.5352 168.504C93.6576 168.296 93.7188 168.073 93.7188 167.836V167.062C93.6771 167.104 93.5964 167.143 93.4766 167.18C93.3594 167.214 93.2253 167.243 93.0742 167.27C92.9232 167.293 92.776 167.315 92.6328 167.336C92.4896 167.354 92.3698 167.37 92.2734 167.383C92.0469 167.411 91.8398 167.46 91.6523 167.527C91.4674 167.595 91.319 167.693 91.207 167.82C91.0977 167.945 91.043 168.112 91.043 168.32C91.043 168.609 91.1497 168.828 91.3633 168.977C91.5768 169.122 91.849 169.195 92.1797 169.195ZM98.6885 170.117C98.2041 170.117 97.7718 169.993 97.3916 169.746C97.014 169.496 96.7171 169.141 96.501 168.68C96.2874 168.216 96.1807 167.66 96.1807 167.012C96.1807 166.363 96.2887 165.809 96.5049 165.348C96.7236 164.887 97.0231 164.534 97.4033 164.289C97.7835 164.044 98.2145 163.922 98.6963 163.922C99.0687 163.922 99.3682 163.984 99.5947 164.109C99.8239 164.232 100.001 164.375 100.126 164.539C100.254 164.703 100.353 164.848 100.423 164.973H100.493V162H101.661V170H100.521V169.066H100.423C100.353 169.194 100.251 169.34 100.118 169.504C99.988 169.668 99.8083 169.811 99.5791 169.934C99.3499 170.056 99.0531 170.117 98.6885 170.117ZM98.9463 169.121C99.2822 169.121 99.5661 169.033 99.7979 168.855C100.032 168.676 100.209 168.427 100.329 168.109C100.451 167.792 100.513 167.422 100.513 167C100.513 166.583 100.453 166.219 100.333 165.906C100.213 165.594 100.037 165.35 99.8057 165.176C99.5739 165.001 99.2874 164.914 98.9463 164.914C98.5947 164.914 98.3018 165.005 98.0674 165.188C97.833 165.37 97.6559 165.618 97.5361 165.934C97.4189 166.249 97.3604 166.604 97.3604 167C97.3604 167.401 97.4202 167.762 97.54 168.082C97.6598 168.402 97.8369 168.656 98.0713 168.844C98.3083 169.029 98.5999 169.121 98.9463 169.121ZM105.855 170.121C105.293 170.121 104.802 169.992 104.383 169.734C103.964 169.477 103.638 169.116 103.406 168.652C103.174 168.189 103.059 167.647 103.059 167.027C103.059 166.405 103.174 165.861 103.406 165.395C103.638 164.928 103.964 164.566 104.383 164.309C104.802 164.051 105.293 163.922 105.855 163.922C106.418 163.922 106.909 164.051 107.328 164.309C107.747 164.566 108.073 164.928 108.305 165.395C108.536 165.861 108.652 166.405 108.652 167.027C108.652 167.647 108.536 168.189 108.305 168.652C108.073 169.116 107.747 169.477 107.328 169.734C106.909 169.992 106.418 170.121 105.855 170.121ZM105.859 169.141C106.224 169.141 106.526 169.044 106.766 168.852C107.005 168.659 107.182 168.402 107.297 168.082C107.414 167.762 107.473 167.409 107.473 167.023C107.473 166.641 107.414 166.289 107.297 165.969C107.182 165.646 107.005 165.387 106.766 165.191C106.526 164.996 106.224 164.898 105.859 164.898C105.492 164.898 105.188 164.996 104.945 165.191C104.706 165.387 104.527 165.646 104.41 165.969C104.296 166.289 104.238 166.641 104.238 167.023C104.238 167.409 104.296 167.762 104.41 168.082C104.527 168.402 104.706 168.659 104.945 168.852C105.188 169.044 105.492 169.141 105.859 169.141ZM112.867 172.25V164H114.008V164.973H114.105C114.173 164.848 114.271 164.703 114.398 164.539C114.526 164.375 114.703 164.232 114.93 164.109C115.156 163.984 115.456 163.922 115.828 163.922C116.313 163.922 116.745 164.044 117.125 164.289C117.505 164.534 117.803 164.887 118.02 165.348C118.238 165.809 118.348 166.363 118.348 167.012C118.348 167.66 118.24 168.216 118.023 168.68C117.807 169.141 117.51 169.496 117.133 169.746C116.755 169.993 116.324 170.117 115.84 170.117C115.475 170.117 115.177 170.056 114.945 169.934C114.716 169.811 114.536 169.668 114.406 169.504C114.276 169.34 114.176 169.194 114.105 169.066H114.035V172.25H112.867ZM114.012 167C114.012 167.422 114.073 167.792 114.195 168.109C114.318 168.427 114.495 168.676 114.727 168.855C114.958 169.033 115.242 169.121 115.578 169.121C115.927 169.121 116.219 169.029 116.453 168.844C116.688 168.656 116.865 168.402 116.984 168.082C117.107 167.762 117.168 167.401 117.168 167C117.168 166.604 117.108 166.249 116.988 165.934C116.871 165.618 116.694 165.37 116.457 165.188C116.223 165.005 115.93 164.914 115.578 164.914C115.24 164.914 114.953 165.001 114.719 165.176C114.487 165.35 114.311 165.594 114.191 165.906C114.072 166.219 114.012 166.583 114.012 167ZM122.184 170.121C121.621 170.121 121.13 169.992 120.711 169.734C120.292 169.477 119.966 169.116 119.734 168.652C119.503 168.189 119.387 167.647 119.387 167.027C119.387 166.405 119.503 165.861 119.734 165.395C119.966 164.928 120.292 164.566 120.711 164.309C121.13 164.051 121.621 163.922 122.184 163.922C122.746 163.922 123.237 164.051 123.656 164.309C124.076 164.566 124.401 164.928 124.633 165.395C124.865 165.861 124.98 166.405 124.98 167.027C124.98 167.647 124.865 168.189 124.633 168.652C124.401 169.116 124.076 169.477 123.656 169.734C123.237 169.992 122.746 170.121 122.184 170.121ZM122.188 169.141C122.552 169.141 122.854 169.044 123.094 168.852C123.333 168.659 123.51 168.402 123.625 168.082C123.742 167.762 123.801 167.409 123.801 167.023C123.801 166.641 123.742 166.289 123.625 165.969C123.51 165.646 123.333 165.387 123.094 165.191C122.854 164.996 122.552 164.898 122.188 164.898C121.82 164.898 121.516 164.996 121.273 165.191C121.034 165.387 120.855 165.646 120.738 165.969C120.624 166.289 120.566 166.641 120.566 167.023C120.566 167.409 120.624 167.762 120.738 168.082C120.855 168.402 121.034 168.659 121.273 168.852C121.516 169.044 121.82 169.141 122.188 169.141ZM126.284 170V164H127.413V164.953H127.476C127.585 164.63 127.778 164.376 128.054 164.191C128.332 164.004 128.647 163.91 128.999 163.91C129.072 163.91 129.158 163.913 129.257 163.918C129.358 163.923 129.438 163.93 129.495 163.937V165.055C129.448 165.042 129.365 165.027 129.245 165.012C129.125 164.993 129.006 164.984 128.886 164.984C128.61 164.984 128.364 165.043 128.147 165.16C127.934 165.275 127.765 165.435 127.64 165.641C127.515 165.844 127.452 166.076 127.452 166.336V170H126.284ZM133.511 170V162H134.718V168.961H138.343V170H133.511ZM139.626 170V164H140.794V170H139.626ZM140.216 163.074C140.013 163.074 139.838 163.007 139.692 162.871C139.549 162.733 139.478 162.569 139.478 162.379C139.478 162.186 139.549 162.022 139.692 161.887C139.838 161.749 140.013 161.68 140.216 161.68C140.419 161.68 140.592 161.749 140.735 161.887C140.881 162.022 140.954 162.186 140.954 162.379C140.954 162.569 140.881 162.733 140.735 162.871C140.592 163.007 140.419 163.074 140.216 163.074ZM143.533 166.437V170H142.365V164H143.486V164.977H143.561C143.699 164.659 143.915 164.404 144.209 164.211C144.506 164.018 144.88 163.922 145.33 163.922C145.739 163.922 146.097 164.008 146.404 164.18C146.712 164.349 146.95 164.602 147.119 164.937C147.288 165.273 147.373 165.689 147.373 166.184V170H146.205V166.324C146.205 165.889 146.092 165.549 145.865 165.305C145.639 165.057 145.327 164.934 144.932 164.934C144.661 164.934 144.42 164.992 144.209 165.109C144.001 165.227 143.835 165.398 143.713 165.625C143.593 165.849 143.533 166.12 143.533 166.437ZM150.014 167.965L150.006 166.539H150.209L152.6 164H153.998L151.271 166.891H151.088L150.014 167.965ZM148.939 170V162H150.107V170H148.939ZM152.729 170L150.58 167.148L151.385 166.332L154.162 170H152.729ZM155.832 170.074C155.618 170.074 155.435 169.999 155.281 169.848C155.128 169.694 155.051 169.509 155.051 169.293C155.051 169.079 155.128 168.897 155.281 168.746C155.435 168.592 155.618 168.516 155.832 168.516C156.046 168.516 156.229 168.592 156.383 168.746C156.536 168.897 156.613 169.079 156.613 169.293C156.613 169.436 156.577 169.568 156.504 169.687C156.434 169.805 156.34 169.898 156.223 169.969C156.105 170.039 155.975 170.074 155.832 170.074Z" fill="white"/>
</g>
<defs>
<filter id="filter0_f_374_81" x="-452" y="-166" width="1086" height="893" filterUnits="userSpaceOnUse" color-interpolation-filters="sRGB">
<feFlood flood-opacity="0" result="BackgroundImageFix"/>
<feBlend mode="normal" in="SourceGraphic" in2="BackgroundImageFix" result="shape"/>
<feGaussianBlur stdDeviation="150" result="effect1_foregroundBlur_374_81"/>
</filter>
<linearGradient id="paint0_linear_374_81" x1="90.8817" y1="-6.38391e-09" x2="90.6141" y2="227.998" gradientUnits="userSpaceOnUse">
<stop stop-color="white" stop-opacity="0.25"/>
<stop offset="1" stop-color="#FC5D20" stop-opacity="0.2"/>
</linearGradient>
<linearGradient id="paint1_linear_374_81" x1="77.5126" y1="55.3267" x2="119.765" y2="298.052" gradientUnits="userSpaceOnUse">
<stop stop-color="white" stop-opacity="0.8"/>
<stop offset="1" stop-color="white" stop-opacity="0.5"/>
</linearGradient>
<linearGradient id="paint2_linear_374_81" x1="91.5" y1="32" x2="91.5" y2="108" gradientUnits="userSpaceOnUse">
<stop stop-color="white"/>
<stop offset="1" stop-color="#FF9D6C"/>
</linearGradient>
<clipPath id="clip0_374_81">
<rect width="182" height="228" rx="20" fill="white"/>
</clipPath>
</defs>
</svg>
