<svg width="96" height="33" viewBox="0 0 96 33" fill="none" xmlns="http://www.w3.org/2000/svg">
<g clip-path="url(#clip0_308_759)">
<rect opacity="0.15" y="0.5" width="96" height="32" rx="5" fill="#8330F4"/>
<path d="M37.0112 21.5V12.0455H40.7413C41.4584 12.0455 42.0693 12.1824 42.574 12.4563C43.0788 12.7272 43.4635 13.1042 43.7282 13.5874C43.9959 14.0675 44.1298 14.6214 44.1298 15.2493C44.1298 15.8771 43.9944 16.4311 43.7235 16.9112C43.4527 17.3913 43.0603 17.7653 42.5463 18.033C42.0355 18.3008 41.4168 18.4347 40.6905 18.4347H38.313V16.8327H40.3674C40.7521 16.8327 41.0691 16.7666 41.3184 16.6342C41.5707 16.4988 41.7585 16.3126 41.8816 16.0756C42.0078 15.8356 42.0708 15.5601 42.0708 15.2493C42.0708 14.9354 42.0078 14.6615 41.8816 14.4276C41.7585 14.1906 41.5707 14.0075 41.3184 13.8782C41.066 13.7459 40.7459 13.6797 40.3581 13.6797H39.0101V21.5H37.0112ZM45.966 21.5H43.824L47.0878 12.0455H49.6638L52.923 21.5H50.781L48.4127 14.206H48.3389L45.966 21.5ZM45.8321 17.7837H50.8918V19.3441H45.8321V17.7837ZM52.5456 13.6935V12.0455H60.3105V13.6935H57.416V21.5H55.4402V13.6935H52.5456ZM69.4996 15.3555H67.4776C67.4407 15.0939 67.3653 14.8615 67.2514 14.6584C67.1375 14.4522 66.9914 14.2768 66.8129 14.1321C66.6344 13.9875 66.4281 13.8767 66.1942 13.7997C65.9634 13.7228 65.7126 13.6843 65.4418 13.6843C64.9524 13.6843 64.5262 13.8059 64.163 14.049C63.7998 14.2891 63.5182 14.6399 63.3182 15.1016C63.1181 15.5601 63.0181 16.1172 63.0181 16.7727C63.0181 17.4467 63.1181 18.013 63.3182 18.4716C63.5213 18.9302 63.8045 19.2764 64.1676 19.5103C64.5308 19.7442 64.9509 19.8612 65.4279 19.8612C65.6957 19.8612 65.9434 19.8258 66.1712 19.755C66.402 19.6842 66.6067 19.5811 66.7852 19.4457C66.9637 19.3072 67.1114 19.1394 67.2283 18.9425C67.3484 18.7455 67.4315 18.5208 67.4776 18.2685L69.4996 18.2777C69.4473 18.7116 69.3165 19.1302 69.1072 19.5334C68.901 19.9335 68.6225 20.292 68.2717 20.609C67.9239 20.9229 67.5084 21.1722 67.0252 21.3569C66.5451 21.5385 66.0019 21.6293 65.3956 21.6293C64.5523 21.6293 63.7983 21.4384 63.1335 21.0568C62.4718 20.6752 61.9486 20.1228 61.5639 19.3995C61.1823 18.6763 60.9915 17.8007 60.9915 16.7727C60.9915 15.7417 61.1854 14.8646 61.5732 14.1413C61.9609 13.4181 62.4872 12.8672 63.152 12.4886C63.8168 12.107 64.5646 11.9162 65.3956 11.9162C65.9434 11.9162 66.4512 11.9931 66.919 12.147C67.3899 12.3009 67.8069 12.5256 68.1701 12.821C68.5333 13.1134 68.8287 13.4719 69.0565 13.8967C69.2873 14.3214 69.435 14.8076 69.4996 15.3555ZM70.9331 21.5V12.0455H72.932V15.9464H76.9899V12.0455H78.9842V21.5H76.9899V17.5945H72.932V21.5H70.9331Z" fill="#8330F4"/>
<path d="M20.4796 24.9062C20.1347 24.8407 19.6255 24.7117 19.3481 24.6195C19.0708 24.5274 18.5529 24.3108 18.1973 24.1382C17.8417 23.9657 17.2358 23.5862 16.8508 23.295C16.4658 23.0038 15.9232 22.5018 15.645 22.1796C15.3668 21.8573 15.0123 21.3955 14.8572 21.1532C14.7022 20.911 14.4371 20.418 14.2683 20.0577C14.0994 19.6974 13.9376 19.2547 13.9087 19.0739C13.8714 18.8403 13.8967 18.6598 13.9963 18.4499C14.0734 18.2874 14.2276 18.0829 14.3388 17.9953C14.4501 17.9078 14.674 17.8004 14.8362 17.7567C15.0304 17.7044 15.2308 17.7048 15.4225 17.7577C15.5826 17.8019 15.8053 17.9102 15.9173 17.9983C16.0294 18.0864 16.2884 18.5072 16.4931 18.9335C16.6977 19.3597 17.0284 19.9206 17.2279 20.1799C17.4274 20.4392 17.7817 20.8136 18.0152 21.0119C18.2487 21.2102 18.6633 21.5162 18.9366 21.6919C19.2099 21.8676 19.7372 22.1124 20.1085 22.236C20.6089 22.4026 21.0039 22.4715 21.6358 22.5026C22.2523 22.5328 22.6771 22.507 23.1713 22.4091C23.5525 22.3337 24.1404 22.1376 24.5011 21.9655C24.8567 21.7959 25.3749 21.4852 25.6528 21.2751C25.9306 21.065 26.1579 20.8708 26.1579 20.8437C26.1579 20.8165 25.7788 20.4096 25.3154 19.9394C24.8308 19.4476 24.4491 18.9894 24.4168 18.8607C24.3838 18.7292 24.4063 18.5168 24.4713 18.3459C24.5322 18.1859 24.6847 17.9784 24.8101 17.8847C25.0314 17.7195 25.1186 17.7144 27.7275 17.7144C29.9345 17.7144 30.4564 17.7356 30.6379 17.8328C30.7596 17.8979 30.9148 18.0589 30.9829 18.1906C31.0877 18.3932 31.1047 18.8399 31.0932 21.0879C31.0848 22.7167 31.0472 23.8167 30.996 23.9292C30.95 24.0301 30.8098 24.1733 30.6845 24.2473C30.5592 24.3213 30.3021 24.3819 30.1133 24.3819C29.7844 24.3819 29.7311 24.3437 28.8572 23.4815L27.9446 22.5811L27.5229 22.9602C27.2909 23.1688 26.8262 23.5199 26.4901 23.7406C26.154 23.9612 25.5883 24.2538 25.2329 24.3909C24.8776 24.5279 24.313 24.7118 23.9783 24.7994C23.5624 24.9084 23.0114 24.9694 22.2382 24.992C21.4529 25.015 20.9149 24.9888 20.4796 24.9062ZM13.3332 15.1744C13.1915 15.0871 13.037 14.9434 12.9897 14.855C12.9338 14.7505 12.9037 13.7326 12.9037 11.9425V9.19067L13.126 8.94195C13.2823 8.76703 13.4462 8.68009 13.6785 8.64894C13.8931 8.62016 14.0915 8.64738 14.2447 8.72661C14.3744 8.79369 14.8184 9.19773 15.2312 9.62448C15.644 10.0512 16.0098 10.4004 16.044 10.4004C16.0782 10.4004 16.2112 10.2908 16.3395 10.1569C16.4678 10.0229 16.8365 9.73104 17.1589 9.50822C17.4812 9.28539 18.0104 8.97819 18.3348 8.82554C18.6592 8.67289 19.2355 8.45896 19.6153 8.35014C19.9952 8.24131 20.6675 8.10911 21.1094 8.05636C21.5679 8.00161 22.1733 7.98411 22.5199 8.01559C22.8539 8.04592 23.3818 8.11889 23.6929 8.17776C24.0041 8.23662 24.5634 8.39628 24.9358 8.53255C25.3082 8.66882 25.8173 8.8954 26.0672 9.03607C26.3171 9.17674 26.7862 9.49069 27.1098 9.73375C27.4333 9.97681 27.931 10.4354 28.2158 10.7527C28.5005 11.0701 28.8377 11.4753 28.9649 11.6531C29.0921 11.8309 29.3275 12.2127 29.4879 12.5017C29.6484 12.7906 29.8569 13.2567 29.9514 13.5374C30.0676 13.8825 30.1063 14.138 30.0711 14.3261C30.0424 14.4791 29.9468 14.6959 29.8587 14.8079C29.7706 14.9199 29.5501 15.0872 29.3687 15.1798C29.1268 15.3032 28.944 15.3374 28.6832 15.308C28.4405 15.2807 28.2492 15.1945 28.0804 15.0364C27.9444 14.9091 27.7246 14.5686 27.592 14.2796C27.4594 13.9907 27.197 13.5179 27.0088 13.229C26.8207 12.9401 26.4614 12.5037 26.2104 12.2592C25.9594 12.0147 25.4991 11.6464 25.1875 11.4408C24.8542 11.2209 24.3088 10.9634 23.8632 10.8156C23.3958 10.6606 22.8461 10.5445 22.4281 10.5123C22.0115 10.4803 21.5176 10.4991 21.1458 10.5611C20.8132 10.6165 20.2643 10.7623 19.9262 10.885C19.588 11.0077 19.1127 11.2351 18.8699 11.3904C18.6271 11.5457 18.2935 11.7913 18.1286 11.9362L17.8286 12.1995L18.6797 13.0723L19.5308 13.945V14.3535C19.5308 14.6906 19.4896 14.8081 19.2951 15.0259L19.0593 15.2899L16.325 15.3115C13.7278 15.332 13.5778 15.3252 13.3332 15.1744Z" fill="#8330F4"/>
</g>
<defs>
<clipPath id="clip0_308_759">
<rect width="96" height="32" fill="white" transform="translate(0 0.5)"/>
</clipPath>
</defs>
</svg>
