<svg width="96" height="32" viewBox="0 0 96 32" fill="none" xmlns="http://www.w3.org/2000/svg">
<g clip-path="url(#clip0_310_826)">
<rect opacity="0.15" width="96" height="32" rx="5" fill="#8330F4"/>
<path d="M22.1676 22V10.3636H26.7585C27.6411 10.3636 28.393 10.5322 29.0142 10.8693C29.6354 11.2027 30.1089 11.6667 30.4347 12.2614C30.7642 12.8523 30.929 13.5341 30.929 14.3068C30.929 15.0795 30.7623 15.7614 30.429 16.3523C30.0956 16.9432 29.6127 17.4034 28.9801 17.733C28.3513 18.0625 27.59 18.2273 26.696 18.2273H23.7699V16.2557H26.2983C26.7718 16.2557 27.1619 16.1742 27.4688 16.0114C27.7794 15.8447 28.0104 15.6155 28.1619 15.3239C28.3172 15.0284 28.3949 14.6894 28.3949 14.3068C28.3949 13.9205 28.3172 13.5833 28.1619 13.2955C28.0104 13.0038 27.7794 12.7784 27.4688 12.6193C27.1581 12.4564 26.7642 12.375 26.2869 12.375H24.6278V22H22.1676ZM33.1889 22H30.5526L34.5696 10.3636H37.7401L41.7514 22H39.1151L36.2003 13.0227H36.1094L33.1889 22ZM33.0241 17.4261H39.2514V19.3466H33.0241V17.4261ZM41.2869 12.392V10.3636H50.8438V12.392H47.2812V22H44.8494V12.392H41.2869ZM62.1534 14.4375H59.6648C59.6193 14.1155 59.5265 13.8295 59.3864 13.5795C59.2462 13.3258 59.0663 13.1098 58.8466 12.9318C58.6269 12.7538 58.3731 12.6174 58.0852 12.5227C57.8011 12.428 57.4924 12.3807 57.1591 12.3807C56.5568 12.3807 56.0322 12.5303 55.5852 12.8295C55.1383 13.125 54.7917 13.5568 54.5455 14.125C54.2992 14.6894 54.1761 15.375 54.1761 16.1818C54.1761 17.0114 54.2992 17.7083 54.5455 18.2727C54.7955 18.8371 55.1439 19.2633 55.5909 19.5511C56.0379 19.839 56.5549 19.983 57.142 19.983C57.4716 19.983 57.7765 19.9394 58.0568 19.8523C58.3409 19.7652 58.5928 19.6383 58.8125 19.4716C59.0322 19.3011 59.214 19.0947 59.358 18.8523C59.5057 18.6098 59.608 18.3333 59.6648 18.0227L62.1534 18.0341C62.089 18.5682 61.928 19.0833 61.6705 19.5795C61.4167 20.072 61.0739 20.5133 60.642 20.9034C60.214 21.2898 59.7027 21.5966 59.108 21.8239C58.517 22.0473 57.8485 22.1591 57.1023 22.1591C56.0644 22.1591 55.1364 21.9242 54.3182 21.4545C53.5038 20.9848 52.8598 20.3049 52.3864 19.4148C51.9167 18.5246 51.6818 17.447 51.6818 16.1818C51.6818 14.9129 51.9205 13.8333 52.3977 12.9432C52.875 12.053 53.5227 11.375 54.3409 10.9091C55.1591 10.4394 56.0795 10.2045 57.1023 10.2045C57.7765 10.2045 58.4015 10.2992 58.9773 10.4886C59.5568 10.678 60.0701 10.9545 60.517 11.3182C60.964 11.678 61.3277 12.1193 61.608 12.642C61.892 13.1648 62.0739 13.7633 62.1534 14.4375ZM63.9176 22V10.3636H66.3778V15.1648H71.3722V10.3636H73.8267V22H71.3722V17.1932H66.3778V22H63.9176Z" fill="#8330F4"/>
</g>
<defs>
<clipPath id="clip0_310_826">
<rect width="96" height="32" fill="white"/>
</clipPath>
</defs>
</svg>
