<svg width="96" height="32" viewBox="0 0 96 32" fill="none" xmlns="http://www.w3.org/2000/svg">
<g clip-path="url(#clip0_310_796)">
<rect opacity="0.2" width="96" height="32" rx="5" fill="#30C04F"/>
<path d="M26.9879 22V10.3636H31.5788C32.4614 10.3636 33.2133 10.5322 33.8345 10.8693C34.4557 11.2027 34.9292 11.6667 35.255 12.2614C35.5845 12.8523 35.7493 13.5341 35.7493 14.3068C35.7493 15.0795 35.5826 15.7614 35.2493 16.3523C34.916 16.9432 34.433 17.4034 33.8004 17.733C33.1716 18.0625 32.4103 18.2273 31.5163 18.2273H28.5902V16.2557H31.1186C31.5921 16.2557 31.9822 16.1742 32.2891 16.0114C32.5997 15.8447 32.8307 15.6155 32.9822 15.3239C33.1375 15.0284 33.2152 14.6894 33.2152 14.3068C33.2152 13.9205 33.1375 13.5833 32.9822 13.2955C32.8307 13.0038 32.5997 12.7784 32.2891 12.6193C31.9785 12.4564 31.5845 12.375 31.1072 12.375H29.4482V22H26.9879ZM48.0405 16.1818C48.0405 17.4508 47.8 18.5303 47.3189 19.4205C46.8416 20.3106 46.1901 20.9905 45.3643 21.4602C44.5424 21.9261 43.6181 22.1591 42.5916 22.1591C41.5575 22.1591 40.6295 21.9242 39.8075 21.4545C38.9856 20.9848 38.3359 20.3049 37.8587 19.4148C37.3814 18.5246 37.1428 17.447 37.1428 16.1818C37.1428 14.9129 37.3814 13.8333 37.8587 12.9432C38.3359 12.053 38.9856 11.375 39.8075 10.9091C40.6295 10.4394 41.5575 10.2045 42.5916 10.2045C43.6181 10.2045 44.5424 10.4394 45.3643 10.9091C46.1901 11.375 46.8416 12.053 47.3189 12.9432C47.8 13.8333 48.0405 14.9129 48.0405 16.1818ZM45.5462 16.1818C45.5462 15.3598 45.4231 14.6667 45.1768 14.1023C44.9344 13.5379 44.5916 13.1098 44.1484 12.8182C43.7053 12.5265 43.1863 12.3807 42.5916 12.3807C41.9969 12.3807 41.478 12.5265 41.0348 12.8182C40.5916 13.1098 40.2469 13.5379 40.0007 14.1023C39.7583 14.6667 39.6371 15.3598 39.6371 16.1818C39.6371 17.0038 39.7583 17.697 40.0007 18.2614C40.2469 18.8258 40.5916 19.2538 41.0348 19.5455C41.478 19.8371 41.9969 19.983 42.5916 19.983C43.1863 19.983 43.7053 19.8371 44.1484 19.5455C44.5916 19.2538 44.9344 18.8258 45.1768 18.2614C45.4231 17.697 45.5462 17.0038 45.5462 16.1818ZM56.1754 13.7102C56.13 13.2519 55.9349 12.8958 55.5902 12.642C55.2455 12.3883 54.7777 12.2614 54.1868 12.2614C53.7853 12.2614 53.4463 12.3182 53.1697 12.4318C52.8932 12.5417 52.6811 12.6951 52.5334 12.892C52.3894 13.089 52.3175 13.3125 52.3175 13.5625C52.3099 13.7708 52.3535 13.9527 52.4482 14.108C52.5466 14.2633 52.6811 14.3977 52.8516 14.5114C53.022 14.6212 53.219 14.7178 53.4425 14.8011C53.666 14.8807 53.9046 14.9489 54.1584 15.0057L55.2038 15.2557C55.7114 15.3693 56.1773 15.5208 56.6016 15.7102C57.0258 15.8996 57.3932 16.1326 57.7038 16.4091C58.0144 16.6856 58.255 17.0114 58.4254 17.3864C58.5997 17.7614 58.6887 18.1913 58.6925 18.6761C58.6887 19.3883 58.5069 20.0057 58.147 20.5284C57.791 21.0473 57.2758 21.4508 56.6016 21.7386C55.9311 22.0227 55.1224 22.1648 54.1754 22.1648C53.236 22.1648 52.4179 22.0208 51.7209 21.733C51.0277 21.4451 50.486 21.0189 50.0959 20.4545C49.7095 19.8864 49.5069 19.1837 49.4879 18.3466H51.8686C51.8951 18.7367 52.0069 19.0625 52.2038 19.3239C52.4046 19.5814 52.6716 19.7765 53.005 19.9091C53.3421 20.0379 53.7228 20.1023 54.147 20.1023C54.5637 20.1023 54.9254 20.0417 55.2322 19.9205C55.5429 19.7992 55.7834 19.6307 55.9538 19.4148C56.1243 19.1989 56.2095 18.9508 56.2095 18.6705C56.2095 18.4091 56.1319 18.1894 55.9766 18.0114C55.825 17.8333 55.6016 17.6818 55.3061 17.5568C55.0144 17.4318 54.6565 17.3182 54.2322 17.2159L52.9652 16.8977C51.9841 16.6591 51.2095 16.286 50.6413 15.7784C50.0732 15.2708 49.791 14.5871 49.7947 13.7273C49.791 13.0227 49.9785 12.4072 50.3572 11.8807C50.7398 11.3542 51.2644 10.9432 51.9311 10.6477C52.5978 10.3523 53.3554 10.2045 54.2038 10.2045C55.0675 10.2045 55.8213 10.3523 56.4652 10.6477C57.1129 10.9432 57.6167 11.3542 57.9766 11.8807C58.3364 12.4072 58.522 13.017 58.5334 13.7102H56.1754ZM59.9041 12.392V10.3636H69.4609V12.392H65.8984V22H63.4666V12.392H59.9041Z" fill="#30C04F"/>
</g>
<defs>
<clipPath id="clip0_310_796">
<rect width="96" height="32" fill="white"/>
</clipPath>
</defs>
</svg>
