<svg width="96" height="33" viewBox="0 0 96 33" fill="none" xmlns="http://www.w3.org/2000/svg">
<g clip-path="url(#clip0_308_757)">
<rect opacity="0.15" y="0.5" width="96" height="32" rx="5" fill="#30C04F"/>
<path d="M40.9277 21.5V12.0455H44.6578C45.3749 12.0455 45.9858 12.1824 46.4905 12.4563C46.9953 12.7272 47.38 13.1042 47.6447 13.5874C47.9124 14.0675 48.0463 14.6214 48.0463 15.2493C48.0463 15.8771 47.9109 16.4311 47.64 16.9112C47.3692 17.3913 46.9768 17.7653 46.4628 18.033C45.952 18.3008 45.3333 18.4347 44.607 18.4347H42.2295V16.8327H44.2839C44.6686 16.8327 44.9856 16.7666 45.2349 16.6342C45.4872 16.4988 45.675 16.3126 45.7981 16.0756C45.9243 15.8356 45.9873 15.5601 45.9873 15.2493C45.9873 14.9354 45.9243 14.6615 45.7981 14.4276C45.675 14.1906 45.4872 14.0075 45.2349 13.8782C44.9825 13.7459 44.6624 13.6797 44.2746 13.6797H42.9266V21.5H40.9277ZM58.0329 16.7727C58.0329 17.8037 57.8375 18.6809 57.4466 19.4041C57.0588 20.1274 56.5295 20.6798 55.8585 21.0614C55.1907 21.44 54.4397 21.6293 53.6057 21.6293C52.7655 21.6293 52.0115 21.4384 51.3436 21.0568C50.6758 20.6752 50.1479 20.1228 49.7602 19.3995C49.3724 18.6763 49.1785 17.8007 49.1785 16.7727C49.1785 15.7417 49.3724 14.8646 49.7602 14.1413C50.1479 13.4181 50.6758 12.8672 51.3436 12.4886C52.0115 12.107 52.7655 11.9162 53.6057 11.9162C54.4397 11.9162 55.1907 12.107 55.8585 12.4886C56.5295 12.8672 57.0588 13.4181 57.4466 14.1413C57.8375 14.8646 58.0329 15.7417 58.0329 16.7727ZM56.0063 16.7727C56.0063 16.1049 55.9062 15.5417 55.7062 15.0831C55.5092 14.6245 55.2307 14.2768 54.8706 14.0398C54.5105 13.8028 54.0889 13.6843 53.6057 13.6843C53.1225 13.6843 52.7009 13.8028 52.3408 14.0398C51.9807 14.2768 51.7006 14.6245 51.5006 15.0831C51.3036 15.5417 51.2051 16.1049 51.2051 16.7727C51.2051 17.4406 51.3036 18.0038 51.5006 18.4624C51.7006 18.9209 51.9807 19.2687 52.3408 19.5057C52.7009 19.7427 53.1225 19.8612 53.6057 19.8612C54.0889 19.8612 54.5105 19.7427 54.8706 19.5057C55.2307 19.2687 55.5092 18.9209 55.7062 18.4624C55.9062 18.0038 56.0063 17.4406 56.0063 16.7727ZM64.6425 14.7646C64.6056 14.3922 64.4471 14.1029 64.167 13.8967C63.887 13.6905 63.5069 13.5874 63.0268 13.5874C62.7005 13.5874 62.4251 13.6335 62.2004 13.7259C61.9757 13.8151 61.8034 13.9397 61.6834 14.0998C61.5664 14.2598 61.5079 14.4414 61.5079 14.6445C61.5018 14.8138 61.5372 14.9615 61.6141 15.0877C61.6941 15.2139 61.8034 15.3232 61.9419 15.4155C62.0804 15.5047 62.2404 15.5832 62.422 15.6509C62.6036 15.7156 62.7975 15.771 63.0037 15.8171L63.8531 16.0202C64.2655 16.1126 64.6441 16.2357 64.9888 16.3896C65.3335 16.5434 65.632 16.7327 65.8844 16.9574C66.1367 17.1821 66.3322 17.4467 66.4707 17.7514C66.6122 18.0561 66.6846 18.4054 66.6876 18.7994C66.6846 19.378 66.5368 19.8796 66.2445 20.3043C65.9552 20.726 65.5366 21.0537 64.9888 21.2876C64.444 21.5185 63.7869 21.6339 63.0175 21.6339C62.2543 21.6339 61.5895 21.5169 61.0232 21.283C60.46 21.0491 60.0199 20.7029 59.7029 20.2443C59.389 19.7827 59.2243 19.2118 59.2089 18.5316H61.1432C61.1648 18.8486 61.2556 19.1133 61.4156 19.3256C61.5787 19.5349 61.7957 19.6934 62.0665 19.8011C62.3405 19.9058 62.6498 19.9581 62.9945 19.9581C63.333 19.9581 63.6269 19.9089 63.8762 19.8104C64.1286 19.7119 64.324 19.5749 64.4625 19.3995C64.601 19.2241 64.6702 19.0225 64.6702 18.7947C64.6702 18.5824 64.6071 18.4039 64.481 18.2592C64.3579 18.1146 64.1763 17.9915 63.9362 17.8899C63.6992 17.7884 63.4084 17.696 63.0637 17.6129L62.0342 17.3544C61.2371 17.1605 60.6077 16.8574 60.1461 16.445C59.6844 16.0326 59.4552 15.477 59.4582 14.7784C59.4552 14.206 59.6075 13.7058 59.9153 13.2781C60.2261 12.8503 60.6524 12.5163 61.194 12.2763C61.7357 12.0362 62.3512 11.9162 63.0406 11.9162C63.7423 11.9162 64.3548 12.0362 64.878 12.2763C65.4043 12.5163 65.8136 12.8503 66.106 13.2781C66.3983 13.7058 66.5491 14.2013 66.5584 14.7646H64.6425ZM67.6721 13.6935V12.0455H75.437V13.6935H72.5425V21.5H70.5666V13.6935H67.6721Z" fill="#30C04F"/>
<path d="M20.8897 24.9442C20.7938 24.9019 20.6261 24.7711 20.5171 24.6535C20.408 24.5359 20.2805 24.306 20.2337 24.1426C20.1858 23.9753 20.1486 22.5387 20.1486 20.8549V17.8644L17.0317 17.864C14.0753 17.8637 13.9002 17.8548 13.6307 17.6902C13.4744 17.5948 13.2685 17.3887 13.1732 17.2323C13.0614 17.0485 13 16.7931 13 16.5113C13 16.2272 13.0614 15.9739 13.1758 15.786C13.2774 15.6192 13.5075 15.4263 13.7204 15.3296C14.0611 15.1748 14.3198 15.1618 17.1148 15.1601L20.1405 15.1581L20.1664 11.978C20.1912 8.92047 20.1992 8.78842 20.3728 8.55159C20.4721 8.41612 20.6879 8.23658 20.8523 8.15264C21.0167 8.06869 21.3082 8 21.5 8C21.6918 8 21.9847 8.06869 22.1509 8.15264C22.3171 8.23658 22.5329 8.44276 22.6305 8.61081C22.7983 8.90003 22.8092 9.08306 22.8337 12.0372L22.8596 15.1581L25.8852 15.1601C28.6802 15.1618 28.9389 15.1748 29.2796 15.3296C29.4925 15.4263 29.7226 15.6192 29.8242 15.786C29.9386 15.9739 30 16.2272 30 16.5113C30 16.7931 29.9386 17.0485 29.8267 17.2323C29.7315 17.3887 29.5256 17.5948 29.3693 17.6902C29.0998 17.8548 28.9247 17.8637 25.9683 17.864L22.8514 17.8644L22.8505 20.8543C22.8505 22.5543 22.8129 23.9783 22.7639 24.1548C22.7165 24.3256 22.5591 24.5791 22.4141 24.7182C22.1898 24.9334 22.0695 24.9748 21.6071 24.9961C21.3082 25.0098 20.9856 24.9864 20.8897 24.9442Z" fill="#30C04F"/>
</g>
<defs>
<clipPath id="clip0_308_757">
<rect width="96" height="32" fill="white" transform="translate(0 0.5)"/>
</clipPath>
</defs>
</svg>
