<svg width="96" height="33" viewBox="0 0 96 33" fill="none" xmlns="http://www.w3.org/2000/svg">
<g clip-path="url(#clip0_308_755)">
<rect opacity="0.15" y="0.5" width="96" height="32" rx="5" fill="#F0A44A"/>
<path d="M45.5297 21.5V12.0455H49.2599C49.9769 12.0455 50.5879 12.1824 51.0926 12.4563C51.5973 12.7272 51.982 13.1042 52.2467 13.5874C52.5145 14.0675 52.6483 14.6214 52.6483 15.2493C52.6483 15.8771 52.5129 16.4311 52.2421 16.9112C51.9713 17.3913 51.5789 17.7653 51.0649 18.033C50.554 18.3008 49.9354 18.4347 49.2091 18.4347H46.8316V16.8327H48.8859C49.2706 16.8327 49.5876 16.7666 49.8369 16.6342C50.0893 16.4988 50.277 16.3126 50.4001 16.0756C50.5263 15.8356 50.5894 15.5601 50.5894 15.2493C50.5894 14.9354 50.5263 14.6615 50.4001 14.4276C50.277 14.1906 50.0893 14.0075 49.8369 13.8782C49.5845 13.7459 49.2645 13.6797 48.8767 13.6797H47.5287V21.5H45.5297ZM59.7866 12.0455H61.7855V18.1854C61.7855 18.8748 61.6209 19.478 61.2915 19.995C60.9653 20.5121 60.5083 20.9152 59.9205 21.2045C59.3326 21.4908 58.6478 21.6339 57.8661 21.6339C57.0813 21.6339 56.395 21.4908 55.8072 21.2045C55.2193 20.9152 54.7623 20.5121 54.4361 19.995C54.1098 19.478 53.9467 18.8748 53.9467 18.1854V12.0455H55.9457V18.0146C55.9457 18.3746 56.0241 18.6947 56.1811 18.9748C56.3411 19.2549 56.5658 19.4749 56.8551 19.6349C57.1444 19.795 57.4814 19.875 57.8661 19.875C58.2539 19.875 58.5909 19.795 58.8771 19.6349C59.1664 19.4749 59.3896 19.2549 59.5465 18.9748C59.7066 18.6947 59.7866 18.3746 59.7866 18.0146V12.0455ZM63.07 13.6935V12.0455H70.835V13.6935H67.9404V21.5H65.9646V13.6935H63.07Z" fill="#F0A44A"/>
<path d="M15.0712 23.7578C14.8887 23.5897 14.8499 23.5117 14.85 23.3127C14.8501 23.18 15.0864 22.2646 15.3752 21.2786C15.664 20.2926 15.9731 19.3395 16.0621 19.1607C16.1918 18.9002 17.1307 17.9225 20.7841 14.2438C24.8279 10.1718 25.3874 9.63052 25.7262 9.46222C26.0454 9.30372 26.1783 9.27289 26.5327 9.27512C26.857 9.27716 27.0397 9.31576 27.3071 9.43879C27.5757 9.56236 27.8369 9.78155 28.4306 10.3818C29.0928 11.0514 29.224 11.2168 29.3421 11.5312C29.4524 11.8249 29.4747 11.9856 29.4534 12.3324C29.4336 12.653 29.3831 12.8467 29.2599 13.0742C29.1394 13.2966 27.8166 14.6623 24.4999 17.9885C20.6025 21.897 19.8559 22.6189 19.5708 22.754C19.386 22.8416 18.4348 23.1491 17.4571 23.4374C16.4793 23.7256 15.5923 23.9615 15.4859 23.9615C15.352 23.9615 15.2243 23.8988 15.0712 23.7578ZM17.7381 21.9045C18.2925 21.7437 18.8423 21.5625 18.9599 21.5018C19.0775 21.4411 20.6653 19.8907 22.4883 18.0564L25.8029 14.7215L24.9159 13.8318L24.0289 12.9422L20.644 16.3493C17.5336 19.4801 17.2537 19.7788 17.1911 20.0326C17.1536 20.1846 17.0002 20.7145 16.8501 21.2104C16.7 21.7062 16.5772 22.1443 16.5772 22.1838C16.5772 22.2234 16.6116 22.2425 16.6537 22.2263C16.6958 22.21 17.1837 22.0652 17.7381 21.9045Z" fill="#F0A44A"/>
</g>
<defs>
<clipPath id="clip0_308_755">
<rect width="96" height="32" fill="white" transform="translate(0 0.5)"/>
</clipPath>
</defs>
</svg>
