<svg width="96" height="32" viewBox="0 0 96 32" fill="none" xmlns="http://www.w3.org/2000/svg">
<g clip-path="url(#clip0_310_766)">
<rect opacity="0.2" width="96" height="32" rx="5" fill="#F0A44A"/>
<path d="M32.652 22V10.3636H37.2429C38.1255 10.3636 38.8774 10.5322 39.4986 10.8693C40.1198 11.2027 40.5933 11.6667 40.919 12.2614C41.2486 12.8523 41.4134 13.5341 41.4134 14.3068C41.4134 15.0795 41.2467 15.7614 40.9134 16.3523C40.58 16.9432 40.0971 17.4034 39.4645 17.733C38.8357 18.0625 38.0743 18.2273 37.1804 18.2273H34.2543V16.2557H36.7827C37.2562 16.2557 37.6463 16.1742 37.9531 16.0114C38.2637 15.8447 38.4948 15.6155 38.6463 15.3239C38.8016 15.0284 38.8793 14.6894 38.8793 14.3068C38.8793 13.9205 38.8016 13.5833 38.6463 13.2955C38.4948 13.0038 38.2637 12.7784 37.9531 12.6193C37.6425 12.4564 37.2486 12.375 36.7713 12.375H35.1122V22H32.652ZM50.1989 10.3636H52.6591V17.9205C52.6591 18.7689 52.4564 19.5114 52.0511 20.1477C51.6496 20.7841 51.0871 21.2803 50.3636 21.6364C49.6402 21.9886 48.7973 22.1648 47.8352 22.1648C46.8693 22.1648 46.0246 21.9886 45.3011 21.6364C44.5777 21.2803 44.0152 20.7841 43.6136 20.1477C43.2121 19.5114 43.0114 18.7689 43.0114 17.9205V10.3636H45.4716V17.7102C45.4716 18.1534 45.5682 18.5473 45.7614 18.892C45.9583 19.2367 46.2348 19.5076 46.5909 19.7045C46.947 19.9015 47.3617 20 47.8352 20C48.3125 20 48.7273 19.9015 49.0795 19.7045C49.4356 19.5076 49.7102 19.2367 49.9034 18.892C50.1004 18.5473 50.1989 18.1534 50.1989 17.7102V10.3636ZM54.2401 12.392V10.3636H63.7969V12.392H60.2344V22H57.8026V12.392H54.2401Z" fill="#F0A44A"/>
</g>
<defs>
<clipPath id="clip0_310_766">
<rect width="96" height="32" fill="white"/>
</clipPath>
</defs>
</svg>
