<svg width="256" height="256" viewBox="0 0 64 64" fill="none" xmlns="http://www.w3.org/2000/svg">
<path d="M13.184 0H50.688C58.112 0 64 5.88682 64 13.1814V50.6779C64 58.1004 58.112 63.9872 50.816 63.9872H13.184C5.888 63.9872 0 58.1004 0 50.8058V13.1814C0 5.88682 5.888 0 13.184 0Z" fill="#090C11"/>
<path d="M16.1346 4.9872H47.8678C54.0097 4.9872 59 9.97772 59 16.1199V47.8545C59 53.9967 54.0097 58.9872 47.8678 58.9872H16.1346C9.99271 58.9872 5.00241 53.9967 5.00241 47.8545V16.2479C4.87445 9.97772 9.86475 4.9872 16.1346 4.9872Z" fill="#222D3D"/>
<path d="M16.1346 4.9872H47.8678C54.0097 4.9872 59 9.97772 59 16.1199V47.8545C59 53.9967 54.0097 58.9872 47.8678 58.9872H16.1346C9.99271 58.9872 5.00241 53.9967 5.00241 47.8545V16.2479C4.87445 9.97772 9.86475 4.9872 16.1346 4.9872Z" fill="url(#paint0_linear_1_1830)" fill-opacity="0.5"/>
<g clip-path="url(#clip0_1_1830)">
<path d="M25.4538 29.545C25.4538 29.915 25.4938 30.2137 25.5638 30.4325C25.6438 30.6525 25.7438 30.8925 25.8838 31.1525C25.9338 31.2312 25.9538 31.3112 25.9538 31.3812C25.9538 31.4812 25.8938 31.5812 25.7638 31.6812L25.135 32.1C25.059 32.1548 24.9686 32.1861 24.875 32.19C24.775 32.19 24.675 32.14 24.5763 32.05C24.442 31.9056 24.3219 31.7486 24.2175 31.5812C24.1058 31.3895 24.0024 31.1931 23.9075 30.9925C23.13 31.91 22.1513 32.3687 20.9738 32.3687C20.1363 32.3687 19.4675 32.13 18.9788 31.6512C18.49 31.1712 18.2413 30.5337 18.2413 29.735C18.2413 28.8875 18.54 28.1975 19.1488 27.68C19.7575 27.1612 20.565 26.9012 21.5925 26.9012C21.9325 26.9012 22.2813 26.9312 22.65 26.9812C23.02 27.0312 23.4 27.1112 23.7975 27.2012V26.4725C23.7975 25.7137 23.6388 25.185 23.3288 24.8762C23.01 24.5662 22.4713 24.4175 21.7038 24.4175C21.3538 24.4175 20.9938 24.4562 20.625 24.5462C20.2563 24.6362 19.8963 24.7462 19.5475 24.8862C19.4338 24.9372 19.3169 24.9806 19.1975 25.0162C19.1461 25.0328 19.0927 25.0425 19.0388 25.045C18.8988 25.045 18.8288 24.945 18.8288 24.7362V24.2475C18.8288 24.0875 18.8488 23.9675 18.8988 23.8975C18.9743 23.8067 19.0702 23.7352 19.1788 23.6887C19.5275 23.5087 19.9463 23.3587 20.435 23.2387C20.9438 23.1085 21.4674 23.045 21.9925 23.05C23.18 23.05 24.0475 23.32 24.6063 23.8587C25.155 24.3962 25.4338 25.215 25.4338 26.3125V29.545H25.4538ZM21.4038 31.0625C21.7325 31.0625 22.0713 31.0025 22.4313 30.8825C22.79 30.7625 23.11 30.5437 23.3788 30.245C23.5388 30.055 23.6588 29.845 23.7188 29.605C23.7775 29.3662 23.8188 29.0762 23.8188 28.7375V28.3187C23.516 28.2449 23.2092 28.1882 22.9 28.1487C22.5891 28.1092 22.276 28.0892 21.9625 28.0887C21.2938 28.0887 20.805 28.2187 20.475 28.4887C20.1463 28.7575 19.9875 29.1362 19.9875 29.635C19.9875 30.1037 20.1063 30.4537 20.3563 30.6925C20.595 30.9425 20.9438 31.0625 21.4038 31.0625ZM29.4163 32.14C29.2363 32.14 29.1163 32.11 29.0363 32.04C28.9563 31.98 28.8863 31.84 28.8263 31.6512L26.4825 23.9375C26.4369 23.8082 26.4067 23.6739 26.3925 23.5375C26.3925 23.3775 26.4725 23.2875 26.6313 23.2875H27.61C27.7988 23.2875 27.9288 23.3187 27.9975 23.3875C28.0788 23.4475 28.1388 23.5875 28.1975 23.7775L29.875 30.3825L31.4313 23.7775C31.4813 23.5775 31.5413 23.4475 31.62 23.3875C31.74 23.314 31.8796 23.279 32.02 23.2875H32.8175C33.0075 23.2875 33.1375 23.3187 33.2175 23.3875C33.2963 23.4475 33.3675 23.5875 33.4063 23.7775L34.9825 30.4625L36.7088 23.7775C36.7688 23.5775 36.8388 23.4475 36.9088 23.3875C37.0246 23.314 37.1606 23.279 37.2975 23.2875H38.2263C38.385 23.2875 38.4763 23.3687 38.4763 23.5375C38.4763 23.5875 38.465 23.6375 38.455 23.6975C38.4394 23.7828 38.4159 23.8665 38.385 23.9475L35.9813 31.66C35.9213 31.86 35.8513 31.9887 35.7713 32.0487C35.6587 32.121 35.5261 32.156 35.3925 32.1487H34.5338C34.345 32.1487 34.215 32.1187 34.1338 32.0487C34.055 31.9787 33.985 31.8487 33.9463 31.6487L32.3988 25.2137L30.8613 31.6387C30.8113 31.8387 30.7525 31.9687 30.6738 32.0387C30.5925 32.1087 30.4525 32.1387 30.2738 32.1387L29.4163 32.14ZM42.2363 32.4087C41.7175 32.4087 41.1988 32.3487 40.7 32.23C40.2013 32.11 39.8125 31.98 39.5525 31.83C39.3925 31.7412 39.2838 31.6412 39.2438 31.5512C39.2048 31.463 39.1844 31.3677 39.1838 31.2712V30.7625C39.1838 30.5537 39.2638 30.4537 39.4125 30.4537C39.4725 30.4537 39.5325 30.4637 39.5925 30.4837C39.6525 30.5037 39.7425 30.5437 39.8425 30.5837C40.1813 30.7337 40.55 30.8525 40.94 30.9325C41.3388 31.0125 41.7275 31.0525 42.1275 31.0525C42.755 31.0525 43.245 30.9425 43.5838 30.7225C43.7462 30.6244 43.8797 30.4851 43.9708 30.3186C44.0619 30.1522 44.1074 29.9647 44.1025 29.775C44.1062 29.6465 44.0843 29.5186 44.0382 29.3987C43.9921 29.2787 43.9226 29.1691 43.8338 29.0762C43.6538 28.8875 43.3138 28.7175 42.825 28.5575L41.3788 28.1075C40.65 27.8787 40.1113 27.54 39.7825 27.0912C39.4608 26.6771 39.285 26.1682 39.2825 25.6437C39.2825 25.225 39.3738 24.8562 39.5525 24.5362C39.7325 24.2175 39.9713 23.9375 40.2713 23.7187C40.5713 23.4887 40.9088 23.3187 41.3088 23.2C41.7088 23.08 42.1275 23.03 42.5663 23.03C42.785 23.03 43.015 23.04 43.235 23.07C43.4638 23.1 43.6725 23.14 43.8825 23.18C44.0825 23.23 44.2725 23.28 44.4513 23.3387C44.6313 23.3987 44.7713 23.4587 44.8713 23.5187C44.9891 23.5781 45.0917 23.6636 45.1713 23.7687C45.2357 23.8658 45.2669 23.9812 45.26 24.0975V24.5662C45.26 24.7762 45.18 24.8862 45.03 24.8862C44.8972 24.871 44.7686 24.8303 44.6513 24.7662C44.0485 24.5 43.3952 24.3673 42.7363 24.3775C42.1675 24.3775 41.7175 24.4662 41.4088 24.6562C41.0988 24.8462 40.94 25.135 40.94 25.5437C40.94 25.8237 41.04 26.0637 41.24 26.2525C41.4388 26.4425 41.8075 26.6325 42.3363 26.8025L43.7538 27.25C44.4713 27.48 44.9913 27.8 45.3 28.2087C45.6088 28.6175 45.7588 29.0862 45.7588 29.605C45.7588 30.0337 45.6688 30.4237 45.5 30.7625C45.32 31.1025 45.08 31.4012 44.7713 31.6412C44.4613 31.8912 44.0925 32.07 43.6638 32.2C43.2138 32.3387 42.7463 32.4087 42.2363 32.4087ZM44.1225 37.2587C40.84 39.6837 36.07 40.97 31.97 40.97C26.2225 40.97 21.045 38.845 17.1325 35.3125C16.8238 35.0337 17.1025 34.6537 17.4725 34.8737C21.7025 37.3275 26.9213 38.815 32.3188 38.815C35.9613 38.815 39.9613 38.0562 43.6438 36.5C44.1925 36.25 44.6613 36.8587 44.1225 37.2587ZM45.49 35.7012C45.07 35.1637 42.715 35.4425 41.6475 35.5725C41.3288 35.6125 41.2788 35.3325 41.5688 35.1225C43.4438 33.8062 46.5275 34.185 46.8863 34.6237C47.245 35.0737 46.7863 38.1562 45.03 39.6325C44.7613 39.8625 44.5013 39.7425 44.6213 39.4437C45.0213 38.4562 45.9088 36.2312 45.49 35.7012Z" fill="url(#paint1_linear_1_1830)"/>
</g>
<defs>
<linearGradient id="paint0_linear_1_1830" x1="32.0012" y1="4.9872" x2="32.0012" y2="59.1663" gradientUnits="userSpaceOnUse">
<stop stop-color="white" stop-opacity="0.2"/>
<stop offset="0.99" stop-opacity="0.2"/>
</linearGradient>
<linearGradient id="paint1_linear_1_1830" x1="31.9998" y1="23.03" x2="31.9998" y2="40.97" gradientUnits="userSpaceOnUse">
<stop stop-color="#FBF4F4"/>
<stop offset="1" stop-color="#FBF4F4" stop-opacity="0.3"/>
</linearGradient>
<clipPath id="clip0_1_1830">
<rect width="30" height="30" fill="white" transform="translate(17 17)"/>
</clipPath>
</defs>
</svg>
