<svg width="256" height="256" viewBox="0 0 64 64" fill="none" xmlns="http://www.w3.org/2000/svg">
<path d="M13.184 0H50.688C58.112 0 64 5.88682 64 13.1814V50.6779C64 58.1004 58.112 63.9872 50.816 63.9872H13.184C5.888 63.9872 0 58.1004 0 50.8058V13.1814C0 5.88682 5.888 0 13.184 0Z" fill="#2B2515"/>
<path d="M16.1346 4.9872H47.8678C54.0097 4.9872 59 9.97772 59 16.1199V47.8545C59 53.9967 54.0097 58.9872 47.8678 58.9872H16.1346C9.99271 58.9872 5.00241 53.9967 5.00241 47.8545V16.2479C4.87445 9.97772 9.86475 4.9872 16.1346 4.9872Z" fill="#FAD83B"/>
<path d="M16.1346 4.9872H47.8678C54.0097 4.9872 59 9.97772 59 16.1199V47.8545C59 53.9967 54.0097 58.9872 47.8678 58.9872H16.1346C9.99271 58.9872 5.00241 53.9967 5.00241 47.8545V16.2479C4.87445 9.97772 9.86475 4.9872 16.1346 4.9872Z" fill="url(#paint0_linear_1_1739)"/>
<path d="M43.6449 22.7051L34.486 17.5769C33.0467 16.8077 31.215 16.8077 29.7757 17.5769L27.2897 18.859V31.9359C27.2897 33.6026 28.2056 35.141 29.7757 36.0385C30.4299 36.4231 31.3458 36.6795 32.2617 36.6795C33.1776 36.6795 33.8318 36.4231 34.7477 36.0385C36.1869 35.2692 37.2336 33.6026 37.2336 31.9359C37.2336 30.2692 36.3177 28.7308 34.7477 27.8333C34.0934 27.4487 33.1776 27.1923 32.2617 27.1923V24.2436C33.0467 24.2436 33.8318 24.5 34.7477 24.8846L37.3645 26.2949C38.8037 27.0641 39.8505 28.7308 39.8505 30.3974V33.3462C39.8505 35.0128 38.9346 36.5513 37.3645 37.4487L34.7477 38.859C34.0934 39.2436 33.1776 39.5 32.2617 39.5C31.3458 39.5 30.6916 39.2436 29.7757 38.859L27.1589 37.4487C25.7196 36.6795 24.6729 35.0128 24.6729 33.3462V20.2692L20.486 22.7051C19.0467 23.4744 18 25.141 18 26.8077V37.1923C18 38.859 18.9159 40.3974 20.486 41.2949L29.6449 46.4231C31.0841 47.1923 32.9159 47.1923 34.3551 46.4231L43.514 41.2949C44.9533 40.5256 46 38.859 46 37.1923V26.9359C46 25.141 45.215 23.6026 43.6449 22.7051ZM29.1215 28.3462C28.8598 28.6026 28.5981 28.7308 28.4673 28.9872V25.6539L29.1215 25.2692V28.3462ZM30.9533 27.4487C30.6916 27.4487 30.4299 27.5769 30.2991 27.7051V24.7564C30.5607 24.6282 30.8224 24.6282 30.9533 24.5V27.4487Z" fill="url(#paint1_linear_1_1739)"/>
<defs>
<linearGradient id="paint0_linear_1_1739" x1="32.0012" y1="4.9872" x2="32.0012" y2="59.1663" gradientUnits="userSpaceOnUse">
<stop stop-color="white" stop-opacity="0.2"/>
<stop offset="0.99" stop-opacity="0.2"/>
</linearGradient>
<linearGradient id="paint1_linear_1_1739" x1="32" y1="17" x2="32" y2="47.1026" gradientUnits="userSpaceOnUse">
<stop stop-color="white"/>
<stop offset="1" stop-color="white" stop-opacity="0.3"/>
</linearGradient>
</defs>
</svg>
