<svg width="256" height="256" viewBox="0 0 64 64" fill="none" xmlns="http://www.w3.org/2000/svg">
<path d="M13.184 0H50.688C58.112 0 64 5.88682 64 13.1814V50.6779C64 58.1004 58.112 63.9872 50.816 63.9872H13.184C5.888 63.9872 0 58.1004 0 50.8058V13.1814C0 5.88682 5.888 0 13.184 0Z" fill="#1A1720"/>
<path d="M16.1346 4.98718H47.8678C54.0097 4.98718 59 9.97771 59 16.1199V47.8545C59 53.9967 54.0097 58.9872 47.8678 58.9872H16.1346C9.99271 58.9872 5.00241 53.9967 5.00241 47.8545V16.2478C4.87445 9.9777 9.86475 4.98718 16.1346 4.98718Z" fill="#7952B3"/>
<path d="M16.1346 4.98718H47.8678C54.0097 4.98718 59 9.97771 59 16.1199V47.8545C59 53.9967 54.0097 58.9872 47.8678 58.9872H16.1346C9.99271 58.9872 5.00241 53.9967 5.00241 47.8545V16.2478C4.87445 9.9777 9.86475 4.98718 16.1346 4.98718Z" fill="url(#paint0_linear_31_197)"/>
<path d="M31.6358 30.8095H28.7637V26.0442H32.171C34.0235 26.0442 35.0748 26.863 35.0748 28.3437C35.0748 29.9248 33.8509 30.8095 31.6327 30.8095H31.6358ZM32.1488 32.7011H28.7653V37.9526H32.2977C34.6077 37.9526 35.8317 37.035 35.8317 35.3096C35.8317 33.5842 34.5729 32.7011 32.1488 32.7011ZM51 31.0448V32.9552C49.214 33.1246 48.1231 34.436 47.4755 36.5127C46.8311 38.5816 46.7424 41.1195 46.8105 43.0786C46.8818 45.1177 45.2778 47 43.1103 47H20.8929C18.7238 47 17.1198 45.1177 17.1927 43.0786C17.2608 41.1195 17.1721 38.5816 16.5277 36.5127C15.8785 34.436 14.786 33.1246 13 32.9552V31.0448C14.786 30.8754 15.8801 29.564 16.5261 27.4873C17.1721 25.4184 17.2608 22.8805 17.1911 20.9214C17.1198 18.8823 18.7238 17 20.8929 17H43.1103C45.2794 17 46.8818 18.8823 46.8105 20.9214C46.7424 22.8805 46.8311 25.4184 47.4755 27.4873C48.1231 29.564 49.214 30.8754 51 31.0448ZM38.4489 35.4633C38.4489 33.3395 36.94 31.8039 34.6996 31.5608V31.4714C36.3463 31.2063 37.6383 29.6911 37.6383 28.0002C37.6383 25.5894 35.7177 24.0192 32.7901 24.0192H26.2034V39.9745H32.8233C36.3352 39.9745 38.4489 38.271 38.4489 35.4633Z" fill="url(#paint1_linear_31_197)"/>
<defs>
<linearGradient id="paint0_linear_31_197" x1="32.0012" y1="4.98718" x2="32.0012" y2="59.1663" gradientUnits="userSpaceOnUse">
<stop stop-color="white" stop-opacity="0.2"/>
<stop offset="0.99" stop-opacity="0.2"/>
</linearGradient>
<linearGradient id="paint1_linear_31_197" x1="32" y1="17" x2="32" y2="47" gradientUnits="userSpaceOnUse">
<stop stop-color="white"/>
<stop offset="1" stop-color="white" stop-opacity="0.3"/>
</linearGradient>
</defs>
</svg>
