<svg width="256" height="256" viewBox="0 0 256 256" fill="none" xmlns="http://www.w3.org/2000/svg">
<path d="M52.736 0H202.752C232.448 0 256 23.552 256 52.736V202.752C256 232.448 232.448 256 203.264 256H52.736C23.552 256 0 232.448 0 203.264V52.736C0 23.552 23.552 0 52.736 0Z" fill="#11171D"/>
<path d="M64.5385 20H191.471C216.039 20 236 39.9621 236 64.5308V191.469C236 216.038 216.039 236 191.471 236H64.5385C39.9708 236 20.0096 216.038 20.0096 191.469V65.0427C19.4978 39.9621 39.459 20 64.5385 20Z" fill="#00599C"/>
<path d="M64.5385 20H191.471C216.039 20 236 39.9621 236 64.5308V191.469C236 216.038 216.039 236 191.471 236H64.5385C39.9708 236 20.0096 216.038 20.0096 191.469V65.0427C19.4978 39.9621 39.459 20 64.5385 20Z" fill="url(#paint0_linear_53_285)"/>
<path d="M180.642 98.0022C179.797 96.5522 178.627 95.2872 177.34 94.5522L132.692 69.1025C130.114 67.6325 125.906 67.6325 123.333 69.1025L78.6745 94.5522C76.1018 96.0172 74 99.6172 74 102.552V153.452C74 154.922 74.5267 156.552 75.3725 158.002C76.2182 159.452 77.3881 160.717 78.6745 161.452L123.323 186.901C125.896 188.366 130.109 188.366 132.682 186.901L177.33 161.452C178.617 160.717 179.787 159.452 180.632 158.002C181.478 156.552 182 154.922 182 153.452V102.552C182.015 101.082 181.493 99.4522 180.642 98.0022ZM128.002 163.552C108.15 163.552 91.9991 147.602 91.9991 128.002C91.9991 108.402 108.155 92.4522 128.007 92.4522C134.324 92.4641 140.526 94.1107 145.997 97.2278C151.467 100.345 156.014 104.824 159.184 110.217L143.606 119.117C142.022 116.416 139.748 114.172 137.011 112.61C134.273 111.048 131.169 110.223 128.007 110.217C123.231 110.221 118.651 112.096 115.274 115.431C111.896 118.765 109.997 123.286 109.993 128.002C110 132.715 111.9 137.233 115.276 140.565C118.652 143.897 123.229 145.771 128.002 145.777C131.163 145.77 134.266 144.946 137.003 143.386C139.74 141.826 142.015 139.585 143.601 136.887L159.189 145.787C156.018 151.181 151.469 155.66 145.997 158.777C140.524 161.894 134.32 163.54 128.002 163.552ZM164.011 129.977H160.01V133.927H156.009V129.977H152.008V126.027H156.009V122.077H160.01V126.027H164.011V129.977ZM179.012 129.977H175.011V133.927H171.01V129.977H167.009V126.027H171.01V122.077H175.011V126.027H179.012V129.977Z" fill="url(#paint1_linear_53_285)"/>
<defs>
<linearGradient id="paint0_linear_53_285" x1="128.005" y1="20" x2="128.005" y2="236.717" gradientUnits="userSpaceOnUse">
<stop stop-color="white" stop-opacity="0.2"/>
<stop offset="0.99" stop-opacity="0.2"/>
</linearGradient>
<linearGradient id="paint1_linear_53_285" x1="128" y1="68" x2="128" y2="188" gradientUnits="userSpaceOnUse">
<stop stop-color="white"/>
<stop offset="1" stop-color="white" stop-opacity="0.3"/>
</linearGradient>
</defs>
</svg>
