<svg width="256" height="256" viewBox="0 0 256 256" fill="none" xmlns="http://www.w3.org/2000/svg">
<path d="M52.736 0H202.752C232.448 0 256 23.552 256 52.736V202.752C256 232.448 232.448 256 203.264 256H52.736C23.552 256 0 232.448 0 203.264V52.736C0 23.552 23.552 0 52.736 0Z" fill="#161325"/>
<path d="M64.5385 20H191.471C216.039 20 236 39.9621 236 64.5308V191.469C236 216.038 216.039 236 191.471 236H64.5385C39.9708 236 20.0096 216.038 20.0096 191.469V65.0427C19.4978 39.9621 39.459 20 64.5385 20Z" fill="#512BD4"/>
<path d="M64.5385 20H191.471C216.039 20 236 39.9621 236 64.5308V191.469C236 216.038 216.039 236 191.471 236H64.5385C39.9708 236 20.0096 216.038 20.0096 191.469V65.0427C19.4978 39.9621 39.459 20 64.5385 20Z" fill="url(#paint0_linear_53_223)"/>
<path d="M74 105.715V150.28C74 155.795 76.9384 160.89 81.7157 163.65L120.284 185.93C122.63 187.286 125.291 188 128 188C130.709 188 133.37 187.286 135.716 185.93L174.284 163.65C176.63 162.295 178.578 160.346 179.933 158C181.287 155.653 182 152.99 182 150.28V105.715C182.001 103.005 181.288 100.343 179.934 97.9972C178.579 95.6509 176.631 93.7031 174.284 92.3501L135.716 70.0701C133.37 68.714 130.709 68 128 68C125.291 68 122.63 68.714 120.284 70.0701L81.7157 92.3501C79.3698 93.7035 77.4215 95.6513 76.067 97.9975C74.7125 100.344 73.9996 103.006 74 105.715ZM101 120.285V135.72C100.999 136.227 101.098 136.73 101.291 137.199C101.484 137.668 101.769 138.094 102.127 138.452C102.485 138.811 102.911 139.095 103.38 139.289C103.849 139.482 104.351 139.581 104.858 139.58C105.881 139.579 106.861 139.172 107.584 138.448C108.308 137.724 108.714 136.743 108.716 135.72C108.719 134.958 108.947 134.215 109.371 133.582C109.795 132.95 110.396 132.457 111.099 132.165C111.802 131.874 112.576 131.797 113.323 131.943C114.069 132.09 114.756 132.454 115.297 132.99C116.019 133.715 116.425 134.696 116.426 135.72C116.426 137.24 116.127 138.746 115.546 140.15C114.964 141.555 114.112 142.831 113.037 143.907C111.963 144.982 110.687 145.834 109.283 146.416C107.88 146.998 106.375 147.297 104.855 147.297C103.336 147.297 101.831 146.998 100.427 146.416C99.0234 145.834 97.7478 144.982 96.6734 143.907C95.5989 142.831 94.7466 141.555 94.1651 140.15C93.5836 138.746 93.2843 137.24 93.2843 135.72V120.285C93.2843 117.21 94.5036 114.27 96.6774 112.1C97.7506 111.023 99.0257 110.169 100.429 109.586C101.833 109.003 103.338 108.703 104.858 108.703C106.378 108.703 107.883 109.003 109.286 109.586C110.69 110.169 111.965 111.023 113.038 112.1C115.207 114.27 116.426 117.215 116.426 120.285C116.427 120.791 116.327 121.293 116.133 121.76C115.94 122.228 115.655 122.653 115.297 123.01C114.941 123.371 114.516 123.657 114.048 123.853C113.58 124.048 113.078 124.149 112.571 124.149C112.064 124.149 111.562 124.048 111.094 123.853C110.626 123.657 110.202 123.371 109.845 123.01C109.487 122.652 109.203 122.228 109.009 121.76C108.815 121.292 108.716 120.791 108.716 120.285C108.717 119.778 108.618 119.275 108.425 118.806C108.231 118.337 107.947 117.911 107.589 117.553C107.23 117.194 106.804 116.91 106.336 116.716C105.867 116.523 105.365 116.424 104.858 116.425C104.351 116.424 103.849 116.524 103.381 116.718C102.912 116.911 102.487 117.196 102.128 117.554C101.77 117.913 101.486 118.338 101.292 118.807C101.099 119.276 100.999 119.778 101 120.285ZM162.716 135.72C162.717 136.227 162.618 136.73 162.425 137.199C162.231 137.668 161.947 138.094 161.589 138.452C161.23 138.811 160.804 139.095 160.336 139.289C159.867 139.482 159.365 139.581 158.858 139.58H155V143.44C154.95 144.43 154.521 145.362 153.803 146.045C153.085 146.728 152.133 147.108 151.142 147.108C150.152 147.108 149.199 146.728 148.481 146.045C147.763 145.362 147.335 144.43 147.284 143.44V139.58H139.569V143.44C139.565 144.201 139.338 144.945 138.914 145.577C138.489 146.21 137.888 146.703 137.185 146.994C136.482 147.286 135.709 147.363 134.962 147.217C134.215 147.07 133.528 146.706 132.987 146.17C132.265 145.445 131.859 144.463 131.858 143.44V139.58H128C126.977 139.58 125.996 139.173 125.272 138.449C124.549 137.726 124.142 136.744 124.142 135.72C124.142 134.696 124.549 133.714 125.272 132.991C125.996 132.267 126.977 131.86 128 131.86H131.858V124.145H128C126.977 124.145 125.996 123.738 125.272 123.014C124.549 122.291 124.142 121.309 124.142 120.285C124.142 119.261 124.549 118.279 125.272 117.556C125.996 116.832 126.977 116.425 128 116.425H131.858V112.565C131.861 111.804 132.089 111.06 132.513 110.428C132.937 109.795 133.538 109.302 134.241 109.011C134.944 108.719 135.718 108.642 136.465 108.788C137.212 108.935 137.898 109.299 138.439 109.835C139.161 110.56 139.567 111.542 139.569 112.565V116.425H147.284V112.565C147.335 111.575 147.763 110.643 148.481 109.96C149.199 109.277 150.152 108.897 151.142 108.897C152.133 108.897 153.085 109.277 153.803 109.96C154.521 110.643 154.95 111.575 155 112.565V116.425H158.858C159.881 116.425 160.862 116.832 161.586 117.556C162.309 118.279 162.716 119.261 162.716 120.285C162.716 121.309 162.309 122.291 161.586 123.014C160.862 123.738 159.881 124.145 158.858 124.145H155V131.86H158.858C159.879 131.865 160.858 132.274 161.58 132.996C162.302 133.719 162.71 134.698 162.716 135.72ZM147.284 124.145H139.569V131.86H147.284V124.145Z" fill="url(#paint1_linear_53_223)"/>
<defs>
<linearGradient id="paint0_linear_53_223" x1="128.005" y1="20" x2="128.005" y2="236.717" gradientUnits="userSpaceOnUse">
<stop stop-color="white" stop-opacity="0.2"/>
<stop offset="0.99" stop-opacity="0.2"/>
</linearGradient>
<linearGradient id="paint1_linear_53_223" x1="128" y1="68" x2="128" y2="188" gradientUnits="userSpaceOnUse">
<stop stop-color="white"/>
<stop offset="1" stop-color="white" stop-opacity="0.3"/>
</linearGradient>
</defs>
</svg>
