<svg width="256" height="256" viewBox="0 0 64 64" fill="none" xmlns="http://www.w3.org/2000/svg">
<path d="M13.184 0H50.688C58.112 0 64 5.88682 64 13.1814V50.6779C64 58.1004 58.112 63.9872 50.816 63.9872H13.184C5.888 63.9872 0 58.1004 0 50.8058V13.1814C0 5.88682 5.888 0 13.184 0Z" fill="#17182A"/>
<path d="M16.1346 4.9872H47.8678C54.0097 4.9872 59 9.97772 59 16.1199V47.8545C59 53.9967 54.0097 58.9872 47.8678 58.9872H16.1346C9.99271 58.9872 5.00241 53.9967 5.00241 47.8545V16.2479C4.87445 9.97772 9.86475 4.9872 16.1346 4.9872Z" fill="#5865F2"/>
<path d="M16.1346 4.9872H47.8678C54.0097 4.9872 59 9.97772 59 16.1199V47.8545C59 53.9967 54.0097 58.9872 47.8678 58.9872H16.1346C9.99271 58.9872 5.00241 53.9967 5.00241 47.8545V16.2479C4.87445 9.97772 9.86475 4.9872 16.1346 4.9872Z" fill="url(#paint0_linear_1_1629)"/>
<path d="M42.4149 22.9258C40.3607 22.0271 38.3065 21.3852 36.2523 21C35.8672 21.5136 35.7388 22.0271 35.482 22.5407C33.171 22.1555 30.86 22.1555 28.549 22.5407C28.2923 22.0271 28.0355 21.3852 27.7787 21C25.5961 21.3852 23.5419 22.0271 21.6161 22.9258C17.6361 28.8317 16.6089 34.4807 17.1225 40.0014C19.4335 41.6705 22.0012 43.0827 24.6974 43.8531C25.2109 43.0827 25.8529 42.184 26.2381 41.2853C25.3393 40.9001 24.4406 40.515 23.6703 40.0014C23.9271 39.873 24.1838 39.6163 24.3122 39.4879C29.191 41.7988 34.7117 41.7988 39.5904 39.4879C39.8472 39.6163 40.104 39.873 40.2323 40.0014C39.462 40.515 38.5633 40.9001 37.6646 41.2853C38.1781 42.184 38.6917 43.0827 39.2052 43.8531C41.9014 43.0827 44.4691 41.6705 46.9085 40.0014C47.4221 33.4536 45.753 27.933 42.4149 22.9258ZM26.88 36.5349C25.4677 36.5349 24.1838 35.1227 24.1838 33.4536C24.1838 31.7846 25.3393 30.3723 26.88 30.3723C28.4206 30.3723 29.5761 31.7846 29.5761 33.4536C29.5761 35.2511 28.4206 36.5349 26.88 36.5349ZM36.8943 36.5349C35.482 36.5349 34.1981 35.1227 34.1981 33.4536C34.1981 31.7846 35.3536 30.3723 36.8943 30.3723C38.4349 30.3723 39.5904 31.7846 39.5904 33.4536C39.5904 35.2511 38.4349 36.5349 36.8943 36.5349Z" fill="url(#paint1_linear_1_1629)"/>
<defs>
<linearGradient id="paint0_linear_1_1629" x1="32.0012" y1="4.9872" x2="32.0012" y2="59.1663" gradientUnits="userSpaceOnUse">
<stop stop-color="white" stop-opacity="0.2"/>
<stop offset="0.99" stop-opacity="0.2"/>
</linearGradient>
<linearGradient id="paint1_linear_1_1629" x1="32.0027" y1="21" x2="32.0027" y2="43.8017" gradientUnits="userSpaceOnUse">
<stop stop-color="white"/>
<stop offset="1" stop-color="white" stop-opacity="0.3"/>
</linearGradient>
</defs>
</svg>
