<svg width="256" height="256" viewBox="0 0 256 256" fill="none" xmlns="http://www.w3.org/2000/svg">
<path d="M52.736 0H202.752C232.448 0 256 23.552 256 52.736V202.752C256 232.448 232.448 256 203.264 256H52.736C23.552 256 0 232.448 0 203.264V52.736C0 23.552 23.552 0 52.736 0Z" fill="#121E29"/>
<path d="M64.5385 20H191.471C216.039 20 236 39.9621 236 64.5308V191.469C236 216.038 216.039 236 191.471 236H64.5385C39.9708 236 20.0096 216.038 20.0096 191.469V65.0427C19.4978 39.9621 39.459 20 64.5385 20Z" fill="#2496ED"/>
<path d="M64.5385 20H191.471C216.039 20 236 39.9621 236 64.5308V191.469C236 216.038 216.039 236 191.471 236H64.5385C39.9708 236 20.0096 216.038 20.0096 191.469V65.0427C19.4978 39.9621 39.459 20 64.5385 20Z" fill="url(#paint0_linear_53_316)"/>
<path d="M139.237 122.86H151.245C151.523 122.86 151.79 122.752 151.988 122.559C152.185 122.365 152.297 122.103 152.299 121.829V111.311C152.299 111.036 152.188 110.772 151.99 110.577C151.792 110.383 151.524 110.274 151.245 110.274H139.237C138.959 110.274 138.692 110.382 138.496 110.576C138.299 110.769 138.189 111.031 138.189 111.305V121.829C138.189 122.398 138.659 122.86 139.237 122.86ZM122.498 92.5922H134.5C134.779 92.5922 135.047 92.483 135.245 92.2885C135.443 92.0941 135.554 91.8304 135.554 91.5554V81.0312C135.552 80.7572 135.441 80.4949 135.243 80.3017C135.046 80.1085 134.778 80 134.5 80H122.498C122.22 80 121.953 80.1086 121.756 80.302C121.56 80.4954 121.449 80.7577 121.449 81.0312V91.5554C121.449 92.124 121.914 92.5922 122.498 92.5922ZM122.498 107.726H134.5C134.779 107.725 135.046 107.615 135.243 107.421C135.441 107.227 135.552 106.964 135.554 106.689V96.1709C135.552 95.8969 135.441 95.6346 135.243 95.4413C135.046 95.2481 134.778 95.1396 134.5 95.1396H122.498C122.22 95.1396 121.953 95.2483 121.756 95.4417C121.56 95.6351 121.449 95.8974 121.449 96.1709V106.689C121.449 107.258 121.914 107.721 122.498 107.726ZM105.894 107.726H117.908C118.185 107.723 118.45 107.613 118.646 107.419C118.841 107.225 118.95 106.963 118.95 106.689V96.1709C118.95 95.8974 118.84 95.6351 118.643 95.4417C118.447 95.2483 118.18 95.1396 117.902 95.1396H105.9C105.622 95.1396 105.355 95.2483 105.159 95.4417C104.962 95.6351 104.852 95.8974 104.852 96.1709V106.689C104.852 107.258 105.322 107.721 105.9 107.726M89.1041 107.726H101.112C101.39 107.725 101.657 107.615 101.853 107.421C102.05 107.226 102.16 106.963 102.16 106.689V96.1709C102.16 95.8974 102.05 95.6351 101.853 95.4417C101.656 95.2483 101.39 95.1396 101.112 95.1396H89.1041C88.8255 95.1396 88.5583 95.2481 88.3608 95.4413C88.1633 95.6346 88.0516 95.8969 88.0501 96.1709V106.689C88.0501 107.258 88.5261 107.721 89.1041 107.726ZM122.498 122.86H134.5C134.778 122.86 135.046 122.752 135.243 122.559C135.441 122.365 135.552 122.103 135.554 121.829V111.311C135.554 111.036 135.443 110.772 135.245 110.577C135.047 110.383 134.779 110.274 134.5 110.274H122.498C122.22 110.274 121.953 110.382 121.756 110.576C121.56 110.769 121.449 111.031 121.449 111.305V121.829C121.449 122.398 121.914 122.86 122.498 122.86ZM105.894 122.86H117.908C118.185 122.859 118.45 122.75 118.645 122.556C118.841 122.363 118.95 122.102 118.95 121.829V111.311C118.951 111.175 118.925 111.041 118.873 110.915C118.821 110.79 118.744 110.676 118.647 110.58C118.551 110.483 118.435 110.407 118.308 110.354C118.182 110.302 118.045 110.274 117.908 110.274H105.894C105.617 110.275 105.352 110.384 105.157 110.578C104.961 110.771 104.852 111.032 104.852 111.305V121.829C104.852 122.398 105.322 122.86 105.9 122.86M89.1041 122.86H101.112C101.39 122.86 101.656 122.752 101.853 122.558C102.05 122.365 102.16 122.103 102.16 121.829V111.311C102.161 111.175 102.134 111.041 102.082 110.915C102.03 110.79 101.954 110.676 101.857 110.58C101.76 110.483 101.645 110.407 101.518 110.354C101.391 110.302 101.255 110.274 101.117 110.274H89.1041C88.8245 110.274 88.5564 110.383 88.3588 110.577C88.1611 110.772 88.0501 111.036 88.0501 111.311V121.829C88.0501 122.398 88.5261 122.86 89.1041 122.86ZM72.5574 122.86H84.5707C84.8478 122.859 85.113 122.75 85.3084 122.556C85.5037 122.363 85.6134 122.102 85.6134 121.829V111.311C85.6142 111.175 85.5878 111.041 85.5358 110.915C85.4838 110.79 85.4072 110.676 85.3104 110.58C85.2136 110.483 85.0984 110.407 84.9715 110.354C84.8446 110.302 84.7084 110.274 84.5707 110.274H72.5574C72.2804 110.275 72.0152 110.384 71.8198 110.578C71.6244 110.771 71.5148 111.032 71.5148 111.305V121.829C71.5148 122.398 71.9738 122.86 72.5574 122.86ZM194.657 116.238C194.289 115.954 190.849 113.395 183.584 113.395C181.669 113.401 179.754 113.563 177.861 113.88C176.456 104.404 168.494 99.7774 168.137 99.5767L166.188 98.4675L164.907 100.29C163.298 102.732 162.13 105.43 161.439 108.261C160.136 113.668 160.929 118.752 163.723 123.094C160.351 124.945 154.939 125.397 153.84 125.436H64.2558C63.131 125.437 62.0526 125.877 61.2562 126.658C60.4598 127.439 60.0103 128.499 60.0058 129.605C59.9008 137.325 61.2297 144.998 63.9271 152.248C67.0154 160.208 71.6054 166.072 77.5837 169.662C84.2704 173.692 95.1504 176 107.475 176C113.046 176.016 118.599 175.52 124.079 174.517C131.688 173.142 139.01 170.525 145.742 166.774C151.296 163.614 156.282 159.595 160.532 154.868C167.627 146.963 171.854 138.162 174.999 130.341H176.252C184.026 130.341 188.803 127.281 191.438 124.717C193.189 123.083 194.555 121.093 195.445 118.886L196 117.281L194.657 116.238Z" fill="url(#paint1_linear_53_316)"/>
<defs>
<linearGradient id="paint0_linear_53_316" x1="128.005" y1="20" x2="128.005" y2="236.717" gradientUnits="userSpaceOnUse">
<stop stop-color="white" stop-opacity="0.2"/>
<stop offset="0.99" stop-opacity="0.2"/>
</linearGradient>
<linearGradient id="paint1_linear_53_316" x1="128" y1="80" x2="128" y2="176" gradientUnits="userSpaceOnUse">
<stop stop-color="white"/>
<stop offset="1" stop-color="white" stop-opacity="0.3"/>
</linearGradient>
</defs>
</svg>
