<svg width="256" height="256" viewBox="0 0 256 256" fill="none" xmlns="http://www.w3.org/2000/svg">
<path d="M52.736 0H202.752C232.448 0 256 23.552 256 52.736V202.752C256 232.448 232.448 256 203.264 256H52.736C23.552 256 0 232.448 0 203.264V52.736C0 23.552 23.552 0 52.736 0Z" fill="#2B1112"/>
<path d="M64.5385 20H191.471C216.039 20 236 39.9621 236 64.5308V191.469C236 216.038 216.039 236 191.471 236H64.5385C39.9708 236 20.0096 216.038 20.0096 191.469V65.0427C19.4978 39.9621 39.459 20 64.5385 20Z" fill="#FB1911"/>
<path d="M64.5385 20H191.471C216.039 20 236 39.9621 236 64.5308V191.469C236 216.038 216.039 236 191.471 236H64.5385C39.9708 236 20.0096 216.038 20.0096 191.469V65.0427C19.4978 39.9621 39.459 20 64.5385 20Z" fill="url(#paint0_linear_47_150)"/>
<path d="M168.297 122.916V115.296L186.787 85.1979H193.144V95.7447H189.382L177.726 114.805V115.162H204V122.916H168.297ZM189.555 130.96V120.592L189.728 117.218V85.1979H198.507V130.96H189.555Z" fill="url(#paint1_linear_47_150)"/>
<path d="M52 122.916V115.296L70.4894 85.1979H76.8471V95.7447H73.0844L61.4285 114.805V115.162H87.7028V122.916H52ZM73.2574 130.96V120.592L73.4304 117.218V85.1979H82.2101V130.96H73.2574Z" fill="url(#paint2_linear_47_150)"/>
<path d="M138.762 75.7086L130.237 70.6255C128.84 69.7915 127.135 69.7915 125.737 70.6255L117.199 75.7086L97.8925 87.2251C96.4951 88.059 95.6362 89.5946 95.6362 91.2492V124.448C95.6362 126.103 96.4951 127.639 97.8925 128.473L106.43 133.556L117.212 139.989L125.75 145.072C127.147 145.906 128.852 145.906 130.25 145.072L138.788 139.989L149.569 133.556L158.107 128.459C159.505 127.625 160.364 126.09 160.364 124.435V91.236C160.364 89.5813 159.505 88.0458 158.107 87.2118L138.788 75.6954L138.762 75.7086Z" fill="url(#paint3_linear_47_150)"/>
<path opacity="0.25" d="M138.839 111.542L129.006 105.678C128.378 105.307 127.596 105.307 126.968 105.678L117.135 111.542L98.5591 122.622C97.2002 123.429 97.2002 125.455 98.5591 126.275L116.045 136.706L126.968 143.219C127.596 143.59 128.378 143.59 129.006 143.219L157.428 126.288C158.787 125.481 158.787 123.456 157.428 122.635L138.839 111.555V111.542Z" fill="#FFFFFD"/>
<path opacity="0.5" d="M138.839 100.476L129.006 94.6118C128.378 94.2412 127.596 94.2412 126.968 94.6118L117.135 100.476L98.5464 111.556C97.1875 112.363 97.1875 114.388 98.5464 115.209L116.033 125.64L126.955 132.153C127.583 132.524 128.365 132.524 128.994 132.153L157.415 115.222C158.774 114.415 158.774 112.39 157.415 111.569L138.826 100.489L138.839 100.476Z" fill="#FFFFFD"/>
<path opacity="0.75" d="M138.839 89.4095L129.006 83.5453C128.378 83.1747 127.596 83.1747 126.968 83.5453L117.135 89.4095L98.5464 100.489C97.1875 101.297 97.1875 103.322 98.5464 104.143L116.033 114.574L126.955 121.086C127.583 121.457 128.365 121.457 128.994 121.086L157.415 104.156C158.774 103.348 158.774 101.323 157.415 100.502L138.826 89.4227L138.839 89.4095Z" fill="#FFFFFD"/>
<path d="M138.839 78.3563L129.006 72.4922C128.378 72.1215 127.596 72.1215 126.968 72.4922L117.135 78.3563L98.5464 89.4227C97.1875 90.2302 97.1875 92.2555 98.5464 93.0762L116.033 103.507L126.955 110.02C127.583 110.391 128.365 110.391 128.994 110.02L157.415 93.0895C158.774 92.282 158.774 90.2567 157.415 89.436L138.826 78.3563H138.839Z" fill="#FFFFF4"/>
<path d="M58.145 186.305V153.407H79.2378V158.403H64.02V167.334H78.1452V172.33H64.02V181.309H79.3645V186.305H58.145Z" fill="url(#paint4_linear_47_150)"/>
<path d="M85.2315 186.305V153.407H97.3932C99.8846 153.407 101.975 153.846 103.664 154.724C105.364 155.603 106.646 156.834 107.512 158.419C108.388 159.993 108.826 161.83 108.826 163.929C108.826 166.038 108.383 167.87 107.496 169.423C106.62 170.965 105.327 172.159 103.617 173.005C101.906 173.84 99.8054 174.258 97.314 174.258H88.652V169.31H96.5222C97.9791 169.31 99.172 169.107 100.101 168.7C101.03 168.282 101.716 167.677 102.16 166.885C102.614 166.081 102.841 165.096 102.841 163.929C102.841 162.762 102.614 161.766 102.16 160.941C101.706 160.106 101.014 159.474 100.085 159.046C99.1562 158.606 97.958 158.387 96.4906 158.387H91.1065V186.305H85.2315ZM101.985 171.398L110.014 186.305H103.458L95.5721 171.398H101.985Z" fill="url(#paint5_linear_47_150)"/>
<path d="M114.234 186.305V153.407H126.396C128.887 153.407 130.978 153.846 132.667 154.724C134.366 155.603 135.649 156.834 136.515 158.419C137.391 159.993 137.829 161.83 137.829 163.929C137.829 166.038 137.386 167.87 136.499 169.423C135.623 170.965 134.329 172.159 132.619 173.005C130.909 173.84 128.808 174.258 126.317 174.258H117.655V169.31H125.525C126.982 169.31 128.175 169.107 129.104 168.7C130.033 168.282 130.719 167.677 131.162 166.885C131.616 166.081 131.843 165.096 131.843 163.929C131.843 162.762 131.616 161.766 131.162 160.941C130.708 160.106 130.017 159.474 129.088 159.046C128.159 158.606 126.961 158.387 125.493 158.387H120.109V186.305H114.234ZM130.988 171.398L139.017 186.305H132.461L124.575 171.398H130.988Z" fill="url(#paint6_linear_47_150)"/>
<path d="M172.216 169.856C172.216 173.401 171.561 176.437 170.252 178.964C168.954 181.481 167.18 183.408 164.931 184.747C162.693 186.086 160.154 186.755 157.315 186.755C154.475 186.755 151.93 186.086 149.682 184.747C147.444 183.398 145.67 181.465 144.361 178.948C143.063 176.421 142.413 173.39 142.413 169.856C142.413 166.312 143.063 163.281 144.361 160.764C145.67 158.237 147.444 156.304 149.682 154.965C151.93 153.627 154.475 152.957 157.315 152.957C160.154 152.957 162.693 153.627 164.931 154.965C167.18 156.304 168.954 158.237 170.252 160.764C171.561 163.281 172.216 166.312 172.216 169.856ZM166.309 169.856C166.309 167.361 165.924 165.257 165.153 163.543C164.393 161.819 163.337 160.518 161.986 159.64C160.635 158.751 159.078 158.307 157.315 158.307C155.552 158.307 153.994 158.751 152.643 159.64C151.292 160.518 150.231 161.819 149.46 163.543C148.7 165.257 148.32 167.361 148.32 169.856C148.32 172.351 148.7 174.461 149.46 176.185C150.231 177.899 151.292 179.2 152.643 180.089C153.994 180.967 155.552 181.406 157.315 181.406C159.078 181.406 160.635 180.967 161.986 180.089C163.337 179.2 164.393 177.899 165.153 176.185C165.924 174.461 166.309 172.351 166.309 169.856Z" fill="url(#paint7_linear_47_150)"/>
<path d="M177.77 186.305V153.407H189.932C192.423 153.407 194.513 153.846 196.202 154.724C197.902 155.603 199.185 156.834 200.05 158.419C200.927 159.993 201.365 161.83 201.365 163.929C201.365 166.038 200.921 167.87 200.035 169.423C199.158 170.965 197.865 172.159 196.155 173.005C194.445 173.84 192.344 174.258 189.852 174.258H181.19V169.31H189.061C190.518 169.31 191.71 169.107 192.64 168.7C193.569 168.282 194.255 167.677 194.698 166.885C195.152 166.081 195.379 165.096 195.379 163.929C195.379 162.762 195.152 161.766 194.698 160.941C194.244 160.106 193.553 159.474 192.624 159.046C191.695 158.606 190.496 158.387 189.029 158.387H183.645V186.305H177.77ZM194.524 171.398L202.553 186.305H195.997L188.111 171.398H194.524Z" fill="url(#paint8_linear_47_150)"/>
<defs>
<linearGradient id="paint0_linear_47_150" x1="128.005" y1="20" x2="128.005" y2="236.717" gradientUnits="userSpaceOnUse">
<stop stop-color="white" stop-opacity="0.2"/>
<stop offset="0.99" stop-opacity="0.2"/>
</linearGradient>
<linearGradient id="paint1_linear_47_150" x1="186.149" y1="85.1979" x2="186.149" y2="130.96" gradientUnits="userSpaceOnUse">
<stop stop-color="white"/>
<stop offset="1" stop-color="white" stop-opacity="0.3"/>
</linearGradient>
<linearGradient id="paint2_linear_47_150" x1="69.8514" y1="85.1979" x2="69.8514" y2="130.96" gradientUnits="userSpaceOnUse">
<stop stop-color="white"/>
<stop offset="1" stop-color="white" stop-opacity="0.3"/>
</linearGradient>
<linearGradient id="paint3_linear_47_150" x1="128" y1="70" x2="128" y2="145.698" gradientUnits="userSpaceOnUse">
<stop stop-color="white" stop-opacity="0.9"/>
<stop offset="1" stop-color="white" stop-opacity="0.3"/>
</linearGradient>
<linearGradient id="paint4_linear_47_150" x1="129.943" y1="141.071" x2="129.943" y2="190.417" gradientUnits="userSpaceOnUse">
<stop stop-color="white"/>
<stop offset="1" stop-color="white" stop-opacity="0.3"/>
</linearGradient>
<linearGradient id="paint5_linear_47_150" x1="129.943" y1="141.071" x2="129.943" y2="190.417" gradientUnits="userSpaceOnUse">
<stop stop-color="white"/>
<stop offset="1" stop-color="white" stop-opacity="0.3"/>
</linearGradient>
<linearGradient id="paint6_linear_47_150" x1="129.943" y1="141.071" x2="129.943" y2="190.417" gradientUnits="userSpaceOnUse">
<stop stop-color="white"/>
<stop offset="1" stop-color="white" stop-opacity="0.3"/>
</linearGradient>
<linearGradient id="paint7_linear_47_150" x1="129.943" y1="141.071" x2="129.943" y2="190.417" gradientUnits="userSpaceOnUse">
<stop stop-color="white"/>
<stop offset="1" stop-color="white" stop-opacity="0.3"/>
</linearGradient>
<linearGradient id="paint8_linear_47_150" x1="129.943" y1="141.071" x2="129.943" y2="190.417" gradientUnits="userSpaceOnUse">
<stop stop-color="white"/>
<stop offset="1" stop-color="white" stop-opacity="0.3"/>
</linearGradient>
</defs>
</svg>
