<svg width="256" height="256" viewBox="0 0 256 256" fill="none" xmlns="http://www.w3.org/2000/svg">
<path d="M52.736 0H202.752C232.448 0 256 23.552 256 52.736V202.752C256 232.448 232.448 256 203.264 256H52.736C23.552 256 0 232.448 0 203.264V52.736C0 23.552 23.552 0 52.736 0Z" fill="#151423"/>
<path d="M64.5385 20H191.471C216.039 20 236 39.9621 236 64.5308V191.469C236 216.038 216.039 236 191.471 236H64.5385C39.9708 236 20.0096 216.038 20.0096 191.469V65.0427C19.4978 39.9621 39.459 20 64.5385 20Z" fill="#4B32C3"/>
<path d="M64.5385 20H191.471C216.039 20 236 39.9621 236 64.5308V191.469C236 216.038 216.039 236 191.471 236H64.5385C39.9708 236 20.0096 216.038 20.0096 191.469V65.0427C19.4978 39.9621 39.459 20 64.5385 20Z" fill="url(#paint0_linear_93_1084)"/>
<path d="M100.42 111.675L126.444 96.6937C126.763 96.5104 127.126 96.4139 127.494 96.4139C127.863 96.4139 128.225 96.5104 128.544 96.6937L154.568 111.675C154.888 111.86 155.154 112.126 155.338 112.446C155.523 112.765 155.619 113.128 155.619 113.497V143.454C155.618 143.822 155.52 144.183 155.336 144.501C155.152 144.82 154.887 145.085 154.568 145.27L128.544 160.251C128.225 160.435 127.863 160.531 127.494 160.531C127.126 160.531 126.763 160.435 126.444 160.251L100.42 145.27C100.1 145.085 99.8342 144.819 99.6499 144.499C99.4655 144.18 99.3688 143.817 99.3695 143.448V113.497C99.3694 113.128 99.4663 112.766 99.6506 112.446C99.8349 112.126 100.1 111.861 100.42 111.675ZM195.148 125.325L164.061 71.3925C162.931 69.4401 160.842 68 158.581 68H96.4126C94.1522 68 92.0629 69.4401 90.9327 71.3925L59.8455 125.205C59.2914 126.174 59 127.269 59 128.384C59 129.499 59.2914 130.595 59.8455 131.563L90.9384 185.057C92.0629 187.004 94.1522 188 96.4126 188H158.593C160.847 188 162.931 187.032 164.067 185.086L195.154 131.506C195.708 130.57 196 129.503 196 128.416C196 127.328 195.708 126.261 195.154 125.325M169.41 151.258C169.399 151.651 169.286 152.036 169.082 152.373C168.878 152.71 168.59 152.989 168.245 153.182L128.636 175.961C128.295 176.155 127.909 176.258 127.517 176.258C127.125 176.258 126.739 176.155 126.398 175.961L86.7657 153.182C86.4202 152.99 86.1307 152.711 85.9256 152.374C85.7204 152.037 85.6067 151.652 85.5955 151.258V105.687C85.5955 104.89 86.0693 104.156 86.76 103.763L126.352 80.9836C127.037 80.5851 127.905 80.5851 128.59 80.9836L168.223 103.769C168.569 103.96 168.86 104.238 169.066 104.576C169.272 104.913 169.387 105.298 169.398 105.693L169.41 151.258Z" fill="url(#paint1_linear_93_1084)"/>
<defs>
<linearGradient id="paint0_linear_93_1084" x1="128.005" y1="20" x2="128.005" y2="236.717" gradientUnits="userSpaceOnUse">
<stop stop-color="white" stop-opacity="0.2"/>
<stop offset="0.99" stop-opacity="0.2"/>
</linearGradient>
<linearGradient id="paint1_linear_93_1084" x1="127.5" y1="68" x2="127.5" y2="188" gradientUnits="userSpaceOnUse">
<stop stop-color="white"/>
<stop offset="1" stop-color="white" stop-opacity="0.3"/>
</linearGradient>
</defs>
</svg>
