<svg width="256" height="256" viewBox="0 0 256 256" fill="none" xmlns="http://www.w3.org/2000/svg">
<path d="M52.736 0H202.752C232.448 0 256 23.552 256 52.736V202.752C256 232.448 232.448 256 203.264 256H52.736C23.552 256 0 232.448 0 203.264V52.736C0 23.552 23.552 0 52.736 0Z" fill="#0C0C0C"/>
<path d="M64.5385 20H191.471C216.039 20 236 39.9621 236 64.5308V191.469C236 216.038 216.039 236 191.471 236H64.5385C39.9708 236 20.0096 216.038 20.0096 191.469V65.0427C19.4978 39.9621 39.459 20 64.5385 20Z" fill="black"/>
<path d="M64.5385 20H191.471C216.039 20 236 39.9621 236 64.5308V191.469C236 216.038 216.039 236 191.471 236H64.5385C39.9708 236 20.0096 216.038 20.0096 191.469V65.0427C19.4978 39.9621 39.459 20 64.5385 20Z" fill="url(#paint0_linear_89_619)"/>
<path d="M129.32 81.0969L150.125 108.601L128.262 137.516H130.731C132.846 137.516 134.609 136.811 135.667 135.048L152.946 112.48L170.224 135.048C171.634 136.458 173.045 137.516 175.161 137.516H177.982L156.472 108.601L177.277 81.0969H174.455C172.34 81.0969 170.577 81.8022 169.519 83.5654L153.298 104.723L137.078 83.5654C135.667 82.1549 134.257 81.0969 132.141 81.0969H129.32Z" fill="url(#paint1_linear_89_619)"/>
<path d="M103.826 79.0004C102.364 79.0085 100.868 79.1399 99.3473 79.4044C87.0058 81.5203 78.1902 92.804 78.1902 104.793V111.493C78.1902 126.303 89.1215 138.645 102.874 138.645C114.51 138.645 124.384 130.887 127.205 120.308H124.736C123.326 120.308 121.915 121.013 121.563 122.424C117.684 130.534 108.163 135.824 97.937 133.355C88.769 131.24 82.069 122.424 82.069 112.903V111.14H128.968V104.088C128.968 90.3465 117.963 78.9221 103.826 79.0004ZM103.933 83.5213C115.204 83.7624 124.384 92.9803 124.384 104.088V106.556H83.4796L83.1271 105.851C83.1271 95.2723 89.4742 86.4566 98.9951 83.9884C100.67 83.6357 102.323 83.4869 103.933 83.5213Z" fill="url(#paint2_linear_89_619)"/>
<path d="M52 177.452V144.159H75.2145V150.694H60.0471V157.522H74.0278V164.073H60.0471V170.917H75.2145V177.452H52Z" fill="url(#paint3_linear_89_619)"/>
<path d="M80.2542 177.452V144.159H94.0073C96.5 144.159 98.6513 144.608 100.461 145.508C102.282 146.397 103.685 147.676 104.672 149.345C105.658 151.003 106.151 152.97 106.151 155.246C106.151 157.554 105.647 159.516 104.639 161.131C103.631 162.735 102.201 163.959 100.347 164.805C98.4941 165.639 96.2995 166.056 93.7635 166.056H85.0661V159.716H92.2678C93.4817 159.716 94.495 159.559 95.3078 159.245C96.1315 158.92 96.7547 158.432 97.1774 157.782C97.6 157.121 97.8114 156.275 97.8114 155.246C97.8114 154.216 97.6 153.365 97.1774 152.693C96.7547 152.011 96.1315 151.501 95.3078 151.165C94.4842 150.819 93.4708 150.645 92.2678 150.645H88.3012V177.452H80.2542ZM98.9981 162.236L107.289 177.452H98.5104L90.3821 162.236H98.9981Z" fill="url(#paint4_linear_89_619)"/>
<path d="M110.557 177.452V144.159H124.31C126.802 144.159 128.954 144.608 130.764 145.508C132.584 146.397 133.988 147.676 134.974 149.345C135.96 151.003 136.454 152.97 136.454 155.246C136.454 157.554 135.95 159.516 134.942 161.131C133.934 162.735 132.503 163.959 130.65 164.805C128.797 165.639 126.602 166.056 124.066 166.056H115.369V159.716H122.57C123.784 159.716 124.797 159.559 125.61 159.245C126.434 158.92 127.057 158.432 127.48 157.782C127.903 157.121 128.114 156.275 128.114 155.246C128.114 154.216 127.903 153.365 127.48 152.693C127.057 152.011 126.434 151.501 125.61 151.165C124.787 150.819 123.773 150.645 122.57 150.645H118.604V177.452H110.557ZM129.301 162.236L137.591 177.452H128.813L120.685 162.236H129.301Z" fill="url(#paint5_linear_89_619)"/>
<path d="M176.965 177.452V144.159H190.718C193.211 144.159 195.362 144.608 197.172 145.508C198.993 146.397 200.396 147.676 201.383 149.345C202.369 151.003 202.862 152.97 202.862 155.246C202.862 157.554 202.358 159.516 201.35 161.131C200.342 162.735 198.912 163.959 197.058 164.805C195.205 165.639 193.01 166.056 190.474 166.056H181.777V159.716H188.979C190.193 159.716 191.206 159.559 192.019 159.245C192.842 158.92 193.466 158.432 193.888 157.782C194.311 157.121 194.522 156.275 194.522 155.246C194.522 154.216 194.311 153.365 193.888 152.693C193.466 152.011 192.842 151.501 192.019 151.165C191.195 150.819 190.182 150.645 188.979 150.645H185.012V177.452H176.965ZM195.709 162.236L204 177.452H195.221L187.093 162.236H195.709Z" fill="url(#paint6_linear_89_619)"/>
<path d="M153.047 177.278C151.305 176.9 150.122 176.479 148.639 175.707C147.292 175.006 145.968 174.07 146.038 173.869C146.065 173.792 146.84 172.853 147.76 171.782L149.434 169.833L149.926 170.157C150.86 170.772 152.134 171.369 153.284 171.73C154.942 172.251 157.801 172.251 159.46 171.73C163.873 170.344 166.927 166.828 167.574 162.387L167.681 161.653L166.241 161.65C165.449 161.649 164.724 161.597 164.631 161.534C164.32 161.326 164.105 160.752 164.222 160.44C164.335 160.138 170.143 153.405 170.217 153.489C173.906 157.663 176.169 160.383 176.169 160.642C176.169 160.82 176.06 161.12 175.928 161.309C175.712 161.617 175.555 161.653 174.399 161.653H173.111L173 162.697C172.276 169.512 167.265 175.311 160.58 177.071C158.484 177.623 155.072 177.717 153.047 177.278ZM139.591 166.449C137.975 164.583 136.63 162.911 136.602 162.733C136.574 162.554 136.663 162.238 136.799 162.03C137.028 161.68 137.139 161.653 138.336 161.653H139.625L139.71 159.913C140.061 152.751 145.1 146.587 152.164 144.677C154.381 144.077 158.363 144.077 160.58 144.677C162.992 145.329 166.184 147.017 167.313 148.238L167.633 148.584L165.973 150.508C165.06 151.567 164.247 152.454 164.167 152.481C164.087 152.508 163.641 152.243 163.174 151.893C162.086 151.075 160.907 150.483 159.46 150.029C157.802 149.508 154.945 149.508 153.279 150.029C148.546 151.506 145.425 155.409 145.125 160.222L145.036 161.653L146.489 161.655C147.289 161.656 148.019 161.709 148.113 161.771C148.424 161.979 148.639 162.553 148.522 162.865C148.433 163.102 142.647 169.866 142.551 169.845C142.539 169.843 141.207 168.314 139.591 166.449Z" fill="url(#paint7_linear_89_619)"/>
<defs>
<linearGradient id="paint0_linear_89_619" x1="128.005" y1="20" x2="128.005" y2="236.717" gradientUnits="userSpaceOnUse">
<stop stop-color="white" stop-opacity="0.13"/>
<stop offset="0.99" stop-color="#666464" stop-opacity="0.2"/>
</linearGradient>
<linearGradient id="paint1_linear_89_619" x1="153.122" y1="81.0969" x2="153.122" y2="175.217" gradientUnits="userSpaceOnUse">
<stop stop-color="white"/>
<stop offset="1" stop-color="white" stop-opacity="0.3"/>
</linearGradient>
<linearGradient id="paint2_linear_89_619" x1="103.579" y1="79" x2="103.579" y2="178.5" gradientUnits="userSpaceOnUse">
<stop stop-color="white"/>
<stop offset="1" stop-color="white" stop-opacity="0.3"/>
</linearGradient>
<linearGradient id="paint3_linear_89_619" x1="63.6073" y1="131.539" x2="63.6073" y2="177.452" gradientUnits="userSpaceOnUse">
<stop stop-color="white"/>
<stop offset="1" stop-color="white" stop-opacity="0.3"/>
</linearGradient>
<linearGradient id="paint4_linear_89_619" x1="93.7716" y1="131.539" x2="93.7716" y2="177.452" gradientUnits="userSpaceOnUse">
<stop stop-color="white"/>
<stop offset="1" stop-color="white" stop-opacity="0.3"/>
</linearGradient>
<linearGradient id="paint5_linear_89_619" x1="124.074" y1="131.539" x2="124.074" y2="177.452" gradientUnits="userSpaceOnUse">
<stop stop-color="white"/>
<stop offset="1" stop-color="white" stop-opacity="0.3"/>
</linearGradient>
<linearGradient id="paint6_linear_89_619" x1="190.483" y1="131.539" x2="190.483" y2="177.452" gradientUnits="userSpaceOnUse">
<stop stop-color="white"/>
<stop offset="1" stop-color="white" stop-opacity="0.3"/>
</linearGradient>
<linearGradient id="paint7_linear_89_619" x1="156.383" y1="131.594" x2="156.383" y2="177.554" gradientUnits="userSpaceOnUse">
<stop stop-color="white"/>
<stop offset="1" stop-color="white" stop-opacity="0.3"/>
</linearGradient>
</defs>
</svg>
