<svg width="256" height="256" viewBox="0 0 64 64" fill="none" xmlns="http://www.w3.org/2000/svg">
<path d="M13.184 0H50.688C58.112 0 64 5.88682 64 13.1814V50.6779C64 58.1004 58.112 63.9872 50.816 63.9872H13.184C5.888 63.9872 0 58.1004 0 50.8058V13.1814C0 5.88682 5.888 0 13.184 0Z" fill="black"/>
<path d="M16.1346 4.9872H47.8678C54.0097 4.9872 59 9.97772 59 16.1199V47.8545C59 53.9967 54.0097 58.9872 47.8678 58.9872H16.1346C9.99271 58.9872 5.00241 53.9967 5.00241 47.8545V16.2479C4.87445 9.97772 9.86475 4.9872 16.1346 4.9872Z" fill="#0F0F0F"/>
<path d="M16.1346 4.9872H47.8678C54.0097 4.9872 59 9.97772 59 16.1199V47.8545C59 53.9967 54.0097 58.9872 47.8678 58.9872H16.1346C9.99271 58.9872 5.00241 53.9967 5.00241 47.8545V16.2479C4.87445 9.97772 9.86475 4.9872 16.1346 4.9872Z" fill="url(#paint0_linear_1_1808)" fill-opacity="0.3"/>
<path d="M51 43.2825H49.9258C49.1201 43.2825 48.583 42.8797 48.0459 42.3426L41.4664 33.749L34.8869 42.3426C34.4841 43.014 33.8127 43.2825 33.0071 43.2825H32.0671L40.3922 32.2719L32.47 21.7984H33.5442C34.3498 21.7984 34.8869 22.2013 35.424 22.7384L41.6007 30.7949L47.7774 22.7384C48.1802 22.067 48.8516 21.7984 49.6572 21.7984H50.7315L42.8092 32.2719L51 43.2825Z" fill="url(#paint1_linear_1_1808)"/>
<path d="M32.3357 33.2387V30.5532C32.3357 24.7793 27.2332 20.0797 21.0565 21.1539C16.3569 21.9596 13 26.2564 13 30.8217V33.373C13 39.0126 17.1625 43.7122 22.3993 43.7122C26.8304 43.7122 30.5901 40.7582 31.6643 36.7299H30.7244C30.1873 36.7299 29.6502 36.9984 29.5159 37.5355C28.0389 40.6238 24.4134 42.638 20.5194 41.6981C17.0283 40.8924 14.477 37.5355 14.477 33.9101V33.2387H32.3357ZM14.8799 31.2246C14.8799 27.1963 17.2968 23.8394 20.9223 22.8995C26.0247 21.8253 30.5901 25.7193 30.5901 30.5532V31.4931H15.0141L14.8799 31.2246Z" fill="url(#paint2_linear_1_1808)"/>
<defs>
<linearGradient id="paint0_linear_1_1808" x1="32.0012" y1="4.9872" x2="32.0012" y2="59.1663" gradientUnits="userSpaceOnUse">
<stop stop-color="white" stop-opacity="0.2"/>
<stop offset="0.99" stop-opacity="0.2"/>
</linearGradient>
<linearGradient id="paint1_linear_1_1808" x1="41.5336" y1="21.9327" x2="41.5336" y2="43.3362" gradientUnits="userSpaceOnUse">
<stop stop-color="white"/>
<stop offset="1" stop-color="white" stop-opacity="0.3"/>
</linearGradient>
<linearGradient id="paint2_linear_1_1808" x1="22.6678" y1="21.0599" x2="22.6678" y2="43.739" gradientUnits="userSpaceOnUse">
<stop stop-color="white"/>
<stop offset="1" stop-color="white" stop-opacity="0.3"/>
</linearGradient>
</defs>
</svg>
