<svg width="256" height="256" viewBox="0 0 64 64" fill="none" xmlns="http://www.w3.org/2000/svg">
<path d="M13.184 0H50.688C58.112 0 64 5.88682 64 13.1814V50.6779C64 58.1004 58.112 63.9872 50.816 63.9872H13.184C5.888 63.9872 0 58.1004 0 50.8058V13.1814C0 5.88682 5.888 0 13.184 0Z" fill="black"/>
<path d="M16.1346 4.9872H47.8678C54.0097 4.9872 59 9.97772 59 16.1199V47.8545C59 53.9967 54.0097 58.9872 47.8678 58.9872H16.1346C9.99271 58.9872 5.00241 53.9967 5.00241 47.8545V16.2479C4.87445 9.97772 9.86475 4.9872 16.1346 4.9872Z" fill="#131313"/>
<path d="M16.1346 4.9872H47.8678C54.0097 4.9872 59 9.97772 59 16.1199V47.8545C59 53.9967 54.0097 58.9872 47.8678 58.9872H16.1346C9.99271 58.9872 5.00241 53.9967 5.00241 47.8545V16.2479C4.87445 9.97772 9.86475 4.9872 16.1346 4.9872Z" fill="url(#paint0_linear_1_1785)" fill-opacity="0.4"/>
<path d="M32 17C23.2 17 16 23.9173 16 32.3719C16 39.1611 20.5333 44.9256 26.9333 46.9752C27.7333 47.1033 28 46.719 28 46.2066V43.5165C23.6 44.4132 22.6667 41.3388 22.6667 41.3388C22 39.6735 20.9333 39.033 20.9333 39.033C19.4667 38.1363 21.0667 38.1363 21.0667 38.1363C22.6667 38.2644 23.6 39.6735 23.6 39.6735C24.9333 42.1074 27.3333 41.3388 28.2667 40.9545C28.4 39.9297 28.8 39.2892 29.2 38.7768C25.6 38.3925 21.8667 37.1115 21.8667 31.219C21.8667 29.5537 22.5333 28.1446 23.4667 27.1198C23.3333 26.7355 22.8 25.0702 23.6 23.0207C23.6 23.0207 24.9333 22.6364 28 24.5578C29.2 24.1735 30.6667 24.0454 32 24.0454C33.3333 24.0454 34.8 24.1735 36 24.5578C39.0667 22.5083 40.4 23.0207 40.4 23.0207C41.2 25.1983 40.6667 26.7355 40.5333 27.1198C41.4667 28.1446 42.1333 29.5537 42.1333 31.219C42.1333 37.2396 38.4 38.3925 34.8 38.7768C35.3333 39.1611 35.8667 40.1859 35.8667 41.595V45.8223C35.8667 46.2066 36.1333 46.719 36.9333 46.5909C43.3333 44.5413 48 38.7768 48 31.9876C48 23.9173 40.8 17 32 17Z" fill="url(#paint1_linear_1_1785)"/>
<defs>
<linearGradient id="paint0_linear_1_1785" x1="32.0012" y1="4.9872" x2="32.0012" y2="59.1663" gradientUnits="userSpaceOnUse">
<stop stop-color="white" stop-opacity="0.2"/>
<stop offset="0.99" stop-color="#505050" stop-opacity="0.1"/>
</linearGradient>
<linearGradient id="paint1_linear_1_1785" x1="32" y1="16.8975" x2="32" y2="46.9752" gradientUnits="userSpaceOnUse">
<stop stop-color="white"/>
<stop offset="1" stop-color="white" stop-opacity="0.3"/>
</linearGradient>
</defs>
</svg>
