<svg width="256" height="256" viewBox="0 0 256 256" fill="none" xmlns="http://www.w3.org/2000/svg">
<path d="M52.736 0H202.752C232.448 0 256 23.552 256 52.736V202.752C256 232.448 232.448 256 203.264 256H52.736C23.552 256 0 232.448 0 203.264V52.736C0 23.552 23.552 0 52.736 0Z" fill="#112026"/>
<path d="M64.5385 20H191.471C216.039 20 236 39.9621 236 64.5308V191.469C236 216.038 216.039 236 191.471 236H64.5385C39.9708 236 20.0096 216.038 20.0096 191.469V65.0427C19.4978 39.9621 39.459 20 64.5385 20Z" fill="#00ADD8"/>
<path d="M64.5385 20H191.471C216.039 20 236 39.9621 236 64.5308V191.469C236 216.038 216.039 236 191.471 236H64.5385C39.9708 236 20.0096 216.038 20.0096 191.469V65.0427C19.4978 39.9621 39.459 20 64.5385 20Z" fill="url(#paint0_linear_54_447)"/>
<path d="M63.4698 116.558C63.1722 116.558 63.1025 116.41 63.2482 116.177L64.8062 114.139C64.9518 113.913 65.3192 113.764 65.6168 113.764H92.0393C92.3307 113.764 92.4067 113.99 92.261 114.217L91.0007 116.177C90.855 116.41 90.4813 116.63 90.2597 116.63L63.4698 116.558ZM52.2979 123.512C52.0002 123.512 51.9242 123.363 52.0762 123.137L53.6279 121.093C53.7736 120.866 54.1472 120.718 54.4449 120.718H88.1887C88.4864 120.718 88.632 120.944 88.556 121.171L87.967 122.982C87.891 123.286 87.5997 123.435 87.302 123.435L52.2979 123.512ZM70.2085 130.466C69.9108 130.466 69.8348 130.239 69.9868 130.013L71.0191 128.124C71.1648 127.898 71.4625 127.671 71.7601 127.671H86.561C86.8587 127.671 87.0044 127.898 87.0044 128.202L86.8587 130.013C86.8587 130.317 86.561 130.543 86.3394 130.543L70.2085 130.466ZM147.025 115.2C142.364 116.41 139.178 117.315 134.593 118.525C133.478 118.822 133.408 118.9 132.439 117.768C131.337 116.481 130.52 115.653 128.969 114.896C124.301 112.554 119.786 113.234 115.574 116.028C110.539 119.353 107.949 124.269 108.025 130.388C108.094 136.436 112.167 141.424 118.012 142.258C123.047 142.937 127.259 141.126 130.596 137.277C131.261 136.436 131.85 135.531 132.591 134.47H118.31C116.758 134.47 116.385 133.487 116.904 132.206C117.867 129.864 119.64 125.931 120.679 123.965C120.837 123.601 121.097 123.292 121.426 123.077C121.754 122.862 122.138 122.75 122.528 122.755H149.463C149.318 124.799 149.318 126.837 149.02 128.881C148.253 134.262 146.166 139.358 142.953 143.694C137.626 150.874 130.666 155.338 121.863 156.541C114.611 157.524 107.873 156.088 101.957 151.56C96.479 147.323 93.3693 141.728 92.5587 134.774C91.596 126.533 93.9647 119.126 98.8476 112.626C104.104 105.601 111.058 101.137 119.57 99.559C126.524 98.2653 133.187 99.1062 139.178 103.253C143.105 105.905 145.91 109.527 147.766 113.913C148.209 114.592 147.912 114.974 147.025 115.206M171.522 157C164.784 156.845 158.64 154.878 153.46 150.344C149.15 146.634 146.309 141.449 145.467 135.757C144.137 127.219 146.43 119.657 151.465 112.93C156.867 105.672 163.378 101.894 172.187 100.316C179.737 98.9574 186.842 99.7013 193.277 104.165C199.123 108.24 202.752 113.764 203.714 121.015C204.968 131.223 202.087 139.535 195.202 146.644C190.319 151.709 184.322 154.878 177.438 156.314C175.443 156.702 173.448 156.767 171.522 157ZM189.129 126.468C189.059 125.479 189.059 124.722 188.913 123.965C187.583 116.481 180.845 112.257 173.815 113.913C166.931 115.498 162.491 119.961 160.863 127.063C159.533 132.963 162.345 138.933 167.672 141.359C171.744 143.17 175.81 142.937 179.737 140.906C185.582 137.801 188.761 132.963 189.135 126.462L189.129 126.468Z" fill="url(#paint1_linear_54_447)"/>
<defs>
<linearGradient id="paint0_linear_54_447" x1="128.005" y1="20" x2="128.005" y2="236.717" gradientUnits="userSpaceOnUse">
<stop stop-color="white" stop-opacity="0.15"/>
<stop offset="0.99" stop-opacity="0.1"/>
</linearGradient>
<linearGradient id="paint1_linear_54_447" x1="128" y1="99" x2="128" y2="157" gradientUnits="userSpaceOnUse">
<stop stop-color="white"/>
<stop offset="1" stop-color="white" stop-opacity="0.3"/>
</linearGradient>
</defs>
</svg>
