<svg width="256" height="256" viewBox="0 0 64 64" fill="none" xmlns="http://www.w3.org/2000/svg">
<path d="M13.184 0H50.688C58.112 0 64 5.88682 64 13.1814V50.6779C64 58.1004 58.112 63.9872 50.816 63.9872H13.184C5.888 63.9872 0 58.1004 0 50.8058V13.1814C0 5.88682 5.888 0 13.184 0Z" fill="#161122"/>
<path d="M16.1346 4.9872H47.8678C54.0097 4.9872 59 9.97772 59 16.1199V47.8545C59 53.9967 54.0097 58.9872 47.8678 58.9872H16.1346C9.99271 58.9872 5.00241 53.9967 5.00241 47.8545V16.2479C4.87445 9.97772 9.86475 4.9872 16.1346 4.9872Z" fill="#4000BF"/>
<path d="M16.1346 4.9872H47.8678C54.0097 4.9872 59 9.97772 59 16.1199V47.8545C59 53.9967 54.0097 58.9872 47.8678 58.9872H16.1346C9.99271 58.9872 5.00241 53.9967 5.00241 47.8545V16.2479C4.87445 9.97772 9.86475 4.9872 16.1346 4.9872Z" fill="url(#paint0_linear_1_1280)"/>
<path d="M32.1282 21.2308C38.1538 21.2308 42.8974 25.9744 42.8974 32C42.8974 38.0256 38.1538 42.7692 32.1282 42.7692C26.1026 42.7692 21.359 38.0256 21.359 32C21.359 30.5897 21.6154 29.1795 22.1282 27.8974C22.8974 28.9231 24.1795 29.5641 25.4615 29.5641C27.7692 29.5641 29.5641 27.641 29.5641 25.4615C29.5641 24.1795 28.9231 22.7692 27.8974 22.1282C29.3077 21.4872 30.7179 21.2308 32.1282 21.2308ZM32 17C23.6666 17 17 23.7949 17 32C17 40.2051 23.7948 47 32 47C40.2051 47 47 40.2051 47 32C47 23.7949 40.2051 17 32 17ZM32 18.4103C39.4359 18.4103 45.5897 24.5641 45.5897 32C45.5897 39.4359 39.4359 45.5897 32 45.5897C24.5641 45.5897 18.4102 39.4359 18.4102 32C18.4102 24.5641 24.4359 18.4103 32 18.4103Z" fill="url(#paint1_linear_1_1280)"/>
<defs>
<linearGradient id="paint0_linear_1_1280" x1="32.0012" y1="4.9872" x2="32.0012" y2="59.1663" gradientUnits="userSpaceOnUse">
<stop stop-color="white" stop-opacity="0.2"/>
<stop offset="0.99" stop-opacity="0.2"/>
</linearGradient>
<linearGradient id="paint1_linear_1_1280" x1="32" y1="16.9359" x2="32" y2="47.0385" gradientUnits="userSpaceOnUse">
<stop stop-color="white"/>
<stop offset="1" stop-color="white" stop-opacity="0.3"/>
</linearGradient>
</defs>
</svg>
