<svg width="256" height="256" viewBox="0 0 64 64" fill="none" xmlns="http://www.w3.org/2000/svg">
<path d="M13.184 0H50.688C58.112 0 64 5.88682 64 13.1814V50.6779C64 58.1004 58.112 63.9872 50.816 63.9872H13.184C5.888 63.9872 0 58.1004 0 50.8058V13.1814C0 5.88682 5.888 0 13.184 0Z" fill="black"/>
<path d="M16.1346 4.9872H47.8678C54.0097 4.9872 59 9.97772 59 16.1199V47.8545C59 53.9967 54.0097 58.9872 47.8678 58.9872H16.1346C9.99271 58.9872 5.00241 53.9967 5.00241 47.8545V16.2479C4.87445 9.97772 9.86475 4.9872 16.1346 4.9872Z" fill="#0A0A0A"/>
<path d="M16.1346 4.9872H47.8678C54.0097 4.9872 59 9.97772 59 16.1199V47.8545C59 53.9967 54.0097 58.9872 47.8678 58.9872H16.1346C9.99271 58.9872 5.00241 53.9967 5.00241 47.8545V16.2479C4.87445 9.97772 9.86475 4.9872 16.1346 4.9872Z" fill="url(#paint0_linear_1_1763)" fill-opacity="0.5"/>
<path d="M29.6356 17V25.0769L31.8686 28.1538L34.1017 25.0769V17H29.6356ZM34.2331 25.2051V29.0513L38.0424 27.8974L42.9025 21.4872L39.0932 18.7949L34.2331 25.2051ZM38.0424 27.7692L35.8093 30.9744L39.6186 32.1282L47.5 29.5641L46.0551 25.2051L38.0424 27.7692ZM39.4873 32L35.678 33.1538L37.911 36.359L45.7924 38.9231L47.2373 34.5641L39.4873 32ZM38.0424 36.359L34.2331 35.2051V39.0513L39.0932 45.5898L42.9025 42.8974L38.0424 36.359ZM34.2331 38.9231L32 35.8462L29.7669 38.9231V47H34.3644V38.9231H34.2331ZM29.6356 38.9231V35.0769L25.8263 36.2308L20.9661 42.641L24.7754 45.3333L29.6356 38.9231ZM25.9576 36.359L28.1907 33.1538L24.3814 32L16.5 34.5641L17.9449 38.9231L25.9576 36.359ZM24.5127 32L28.322 30.8462L26.089 27.641L18.2076 25.0769L16.7627 29.4359L24.5127 32ZM25.9576 27.7692L29.7669 28.9231V25.0769L24.9068 18.5385L21.0975 21.2308L25.9576 27.7692Z" fill="url(#paint1_linear_1_1763)"/>
<defs>
<linearGradient id="paint0_linear_1_1763" x1="32.0012" y1="4.9872" x2="32.0012" y2="59.1663" gradientUnits="userSpaceOnUse">
<stop stop-color="white" stop-opacity="0.2"/>
<stop offset="0.99" stop-opacity="0.2"/>
</linearGradient>
<linearGradient id="paint1_linear_1_1763" x1="31.5" y1="17" x2="31.5" y2="47.0385" gradientUnits="userSpaceOnUse">
<stop stop-color="white"/>
<stop offset="1" stop-color="white" stop-opacity="0.3"/>
</linearGradient>
</defs>
</svg>
