<svg width="256" height="256" viewBox="0 0 64 64" fill="none" xmlns="http://www.w3.org/2000/svg">
<path d="M13.184 0H50.688C58.112 0 64 5.88682 64 13.1814V50.6779C64 58.1004 58.112 63.9872 50.816 63.9872H13.184C5.888 63.9872 0 58.1004 0 50.8058V13.1814C0 5.88682 5.888 0 13.184 0Z" fill="#15191E"/>
<path d="M16.1346 4.98718H47.8678C54.0097 4.98718 59 9.97771 59 16.1199V47.8545C59 53.9967 54.0097 58.9872 47.8678 58.9872H16.1346C9.99271 58.9872 5.00241 53.9967 5.00241 47.8545V16.2478C4.87445 9.9777 9.86475 4.98718 16.1346 4.98718Z" fill="#4479A1"/>
<path d="M16.1346 4.98718H47.8678C54.0097 4.98718 59 9.97771 59 16.1199V47.8545C59 53.9967 54.0097 58.9872 47.8678 58.9872H16.1346C9.99271 58.9872 5.00241 53.9967 5.00241 47.8545V16.2478C4.87445 9.9777 9.86475 4.98718 16.1346 4.98718Z" fill="url(#paint0_linear_31_196)"/>
<path d="M38.9746 19.531C38.7925 19.531 38.669 19.5525 38.5408 19.5817V19.6016H38.5629C38.6484 19.7612 38.7941 19.8777 38.9017 20.0204C38.9872 20.1845 39.0601 20.3487 39.1456 20.5113L39.1678 20.4883C39.3166 20.387 39.3894 20.2244 39.3894 19.9774C39.3261 19.9053 39.3166 19.8333 39.2628 19.7627C39.1994 19.6599 39.0632 19.6093 38.9778 19.528L38.9746 19.531ZM22.1358 39.7711H20.6681C20.6268 37.5111 20.4842 35.2539 20.2406 33.006H20.2279L17.9954 39.7711H16.8792L14.6625 33.006H14.6467C14.4733 35.2575 14.3703 37.5135 14.3379 39.7711H13C13.0871 36.7551 13.304 33.9264 13.6492 31.2879H15.47L17.5838 37.5222H17.5964L19.7292 31.2879H21.4629C21.8461 34.3789 22.0709 37.2092 22.1406 39.7711H22.1358ZM28.4961 33.5122C27.8976 36.6493 27.1091 38.9319 26.1338 40.354C25.3706 41.4524 24.5346 42 23.6273 42C23.3851 42 23.089 41.9294 22.7312 41.7883V41.0305C22.9053 41.0566 23.1112 41.0704 23.3423 41.0704C23.7667 41.0704 24.1071 40.9553 24.3667 40.7298C24.6787 40.4537 24.8338 40.1438 24.8338 39.8017C24.8338 39.564 24.7119 39.0807 24.4697 38.3536L22.8642 33.5122H24.305L25.4561 37.1325C25.7158 37.9548 25.825 38.5285 25.7807 38.8552C26.414 37.223 26.8542 35.4389 27.1027 33.5122H28.4961ZM48.0107 39.7711H43.8465V31.2879H45.2478V38.7279H48.0107V39.7711ZM42.754 39.9781L41.1453 39.2111C41.2878 39.0945 41.4256 38.9688 41.5491 38.8276C42.2347 38.0514 42.5751 36.8978 42.5751 35.3715C42.5751 32.5642 41.4383 31.159 39.163 31.159C38.0483 31.159 37.1775 31.5149 36.5505 32.2282C35.8697 33.0075 35.5277 34.155 35.5277 35.6721C35.5277 37.1632 35.8285 38.2585 36.4365 38.9549C36.9907 39.5839 37.8251 39.8984 38.9429 39.8984C39.3609 39.8984 39.7441 39.8478 40.0908 39.748L42.1887 40.9323L42.7588 39.9781H42.754ZM37.5417 38.0729C37.1854 37.5206 37.0081 36.6309 37.0081 35.4098C37.0081 33.2729 37.6794 32.2037 39.0189 32.2037C39.7203 32.2037 40.2381 32.4599 40.5658 32.9707C40.9205 33.526 41.0978 34.4065 41.0978 35.6138C41.0978 37.7676 40.4265 38.8476 39.087 38.8476C38.3824 38.8476 37.8678 38.5914 37.5385 38.0805L37.5417 38.0729ZM34.9165 37.4209C34.9165 38.1419 34.6442 38.734 34.0995 39.1943C33.5548 39.6545 32.8281 39.8846 31.9082 39.8846C31.0484 39.8846 30.2235 39.6207 29.4176 39.0945L29.7928 38.3643C30.4863 38.7018 31.1117 38.8675 31.677 38.8675C32.2027 38.8675 32.6159 38.7555 32.9168 38.53C33.0671 38.4202 33.1885 38.2775 33.2711 38.1135C33.3536 37.9496 33.395 37.769 33.3918 37.5866C33.3918 37.0804 33.0276 36.6508 32.3658 36.2903C31.7514 35.9636 30.5243 35.2825 30.5243 35.2825C29.8562 34.8115 29.5237 34.3068 29.5237 33.4769C29.5237 32.7866 29.7723 32.2344 30.2678 31.8125C30.7666 31.386 31.4078 31.1759 32.1995 31.1759C33.0102 31.1759 33.7512 31.3845 34.4162 31.8048L34.0789 32.535C33.5476 32.3089 32.9746 32.1889 32.3942 32.1822C31.9462 32.1822 31.5994 32.2865 31.3588 32.4982C31.2366 32.5962 31.1382 32.719 31.0703 32.8579C31.0025 32.9968 30.9669 33.1484 30.9661 33.302C30.9661 33.8052 31.3366 34.2378 32.0206 34.606C32.6428 34.9358 33.9 35.6338 33.9 35.6338C34.5856 36.1017 34.926 36.6002 34.926 37.4255L34.9165 37.4209ZM49.7713 28.4438C48.9243 28.4223 48.2672 28.5051 47.7178 28.7322C47.5594 28.7935 47.3061 28.7935 47.2839 28.9883C47.371 29.0697 47.3837 29.2031 47.4581 29.3166C47.5848 29.5222 47.8032 29.7968 48.0059 29.941C48.2276 30.1097 48.4492 30.2723 48.682 30.4165C49.0937 30.662 49.5608 30.8077 49.9645 31.0547C50.1941 31.1989 50.4284 31.3814 50.6612 31.5348C50.7767 31.6115 50.8512 31.7496 51 31.7987V31.768C50.9272 31.676 50.905 31.5425 50.8338 31.4397C50.7277 31.3369 50.6216 31.2449 50.5171 31.1437C50.2062 30.7468 49.8352 30.3977 49.4167 30.1082C49.0778 29.8842 48.3368 29.5713 48.1975 29.1954L48.1769 29.174C48.4081 29.154 48.6836 29.0727 48.9053 29.0114C49.2647 28.9193 49.594 28.9393 49.9661 28.8488C50.1339 28.8073 50.3033 28.7567 50.4728 28.7046V28.6125C50.2827 28.4284 50.1403 28.1784 49.9439 28.0066C49.3959 27.5425 48.8115 27.1204 48.1959 26.7441C47.8634 26.5385 47.4422 26.4066 47.0923 26.2317C46.9657 26.1703 46.7535 26.1397 46.6807 26.0369C46.4907 25.8129 46.3798 25.5153 46.2453 25.2484C45.9343 24.664 45.6455 24.069 45.3792 23.4643C45.1892 23.0624 45.0736 22.662 44.8408 22.2938C43.7483 20.5496 42.5656 19.4927 40.7463 18.4588C40.3553 18.244 39.8866 18.152 39.391 18.0384C39.1266 18.0262 38.8622 18.0078 38.5993 17.997C38.4252 17.9249 38.2573 17.7301 38.1085 17.6365C37.5068 17.2684 35.9488 16.4707 35.5055 17.5261C35.2205 18.1918 35.9282 18.8484 36.1737 19.1859C36.3557 19.4206 36.5853 19.6891 36.712 19.9529C36.7864 20.1309 36.807 20.3134 36.8814 20.499C37.0493 20.95 37.2092 21.4532 37.4308 21.875C37.5464 22.0898 37.6731 22.3153 37.8219 22.5086C37.9074 22.6206 38.0531 22.6727 38.0863 22.8568C37.9375 23.0655 37.928 23.3692 37.8425 23.6238C37.4625 24.7851 37.6113 26.221 38.1497 27.0754C38.3191 27.3301 38.7228 27.8946 39.2628 27.6783C39.7378 27.4942 39.6332 26.9113 39.7694 26.3974C39.8011 26.2746 39.7805 26.1933 39.8454 26.1105V26.1335C39.9943 26.4219 40.1431 26.6965 40.2793 26.9849C40.6054 27.4881 41.1754 28.0096 41.652 28.3579C41.9053 28.5419 42.1064 28.861 42.4231 28.9745V28.9439H42.3993C42.3313 28.8549 42.241 28.8119 42.1555 28.7398C41.9547 28.5494 41.7695 28.3443 41.6013 28.1262C41.1552 27.5356 40.7597 26.9108 40.4186 26.2578C40.2444 25.9356 40.0988 25.5889 39.9594 25.2714C39.8961 25.1487 39.8961 24.9646 39.79 24.9032C39.6317 25.1272 39.3989 25.322 39.2833 25.5981C39.0823 26.0399 39.0617 26.583 38.9857 27.1475C38.9429 27.1582 38.9635 27.1475 38.9429 27.169C38.6041 27.0892 38.4885 26.7487 38.3618 26.4633C38.0452 25.7347 37.9929 24.5642 38.2668 23.7251C38.3413 23.5103 38.6579 22.8323 38.5312 22.6267C38.4648 22.4319 38.2558 22.3199 38.1402 22.1619C37.9915 21.9563 37.8642 21.7368 37.7602 21.5069C37.5068 20.9332 37.3802 20.2981 37.1047 19.7243C36.978 19.4589 36.7563 19.1813 36.5758 18.9374C36.3748 18.6613 36.1531 18.4664 35.9932 18.1397C35.9409 18.0277 35.8665 17.8421 35.9504 17.7194C35.9726 17.6365 36.0169 17.6043 36.0993 17.5813C36.2386 17.4708 36.6297 17.615 36.7674 17.6764C37.1585 17.8298 37.4878 17.974 37.8156 18.1888C37.9644 18.29 38.1243 18.4848 38.3143 18.5355H38.536C38.8748 18.6076 39.2564 18.5569 39.5731 18.6474C40.1352 18.8223 40.6418 19.077 41.0963 19.3531C42.4965 20.2197 43.6353 21.4295 44.3975 22.8599C44.5242 23.0961 44.5796 23.3124 44.6952 23.5579C44.9168 24.0641 45.1908 24.5749 45.4156 25.0643C45.6372 25.5475 45.851 26.0399 46.1693 26.4403C46.3276 26.6551 46.9641 26.7671 47.2491 26.8791C47.4597 26.9711 47.7874 27.0555 47.9774 27.1675C48.3416 27.3822 48.6963 27.6277 49.0382 27.8639C49.2124 27.9805 49.7397 28.2367 49.7713 28.4438Z" fill="url(#paint1_linear_31_196)"/>
<defs>
<linearGradient id="paint0_linear_31_196" x1="32.0012" y1="4.98718" x2="32.0012" y2="59.1663" gradientUnits="userSpaceOnUse">
<stop stop-color="white" stop-opacity="0.2"/>
<stop offset="0.99" stop-opacity="0.2"/>
</linearGradient>
<linearGradient id="paint1_linear_31_196" x1="32" y1="17" x2="32" y2="42" gradientUnits="userSpaceOnUse">
<stop stop-color="white"/>
<stop offset="1" stop-color="white" stop-opacity="0.3"/>
</linearGradient>
</defs>
</svg>
