<svg width="256" height="256" viewBox="0 0 64 64" fill="none" xmlns="http://www.w3.org/2000/svg">
<path d="M13.184 0H50.688C58.112 0 64 5.88682 64 13.1814V50.6779C64 58.1004 58.112 63.9872 50.816 63.9872H13.184C5.888 63.9872 0 58.1004 0 50.8058V13.1814C0 5.88682 5.888 0 13.184 0Z" fill="#141D14"/>
<path d="M16.1346 4.9872H47.8678C54.0097 4.9872 59 9.97772 59 16.1199V47.8545C59 53.9967 54.0097 58.9872 47.8678 58.9872H16.1346C9.99271 58.9872 5.00241 53.9967 5.00241 47.8545V16.2479C4.87445 9.97772 9.86475 4.9872 16.1346 4.9872Z" fill="#339933"/>
<path d="M16.1346 4.9872H47.8678C54.0097 4.9872 59 9.97772 59 16.1199V47.8545C59 53.9967 54.0097 58.9872 47.8678 58.9872H16.1346C9.99271 58.9872 5.00241 53.9967 5.00241 47.8545V16.2479C4.87445 9.97772 9.86475 4.9872 16.1346 4.9872Z" fill="url(#paint0_linear_1_1517)"/>
<path d="M32 47C31.6214 47 31.2427 46.8725 30.8641 46.745L27.2039 44.577C26.699 44.322 26.9514 44.1945 27.0777 44.0669C27.8349 43.8119 27.9612 43.8119 28.7184 43.3018H28.9709L31.7476 44.9596H32.1262L42.8544 38.5834C42.9806 38.5834 42.9806 38.4559 42.9806 38.3284V25.7035C42.9806 25.576 42.8544 25.4485 42.8544 25.4485L32.1262 19.0723H31.7476L21.0194 25.4485C20.8932 25.4485 20.8932 25.576 20.8932 25.7035V38.2008C20.8932 38.3284 21.0194 38.4559 21.0194 38.4559L24.0485 40.2412C25.6893 41.0064 26.699 40.1137 26.699 39.0935V26.8512C26.699 26.7237 26.8252 26.5962 27.0777 26.5962H28.466C28.5922 26.5962 28.7184 26.7237 28.7184 26.8512V39.221C28.7184 41.3889 27.5825 42.6642 25.5631 42.6642C24.932 42.6642 24.4272 42.6642 23.0388 42.0266L20.1359 40.3688C19.3786 39.9862 19 39.221 19 38.3284V25.7035C19 24.9384 19.3786 24.1732 20.1359 23.6631L30.8641 17.2869C31.4951 16.9044 32.5048 16.9044 33.1359 17.2869L43.8641 23.6631C44.6213 24.0457 45 24.8108 45 25.7035V38.2008C45 38.966 44.6213 39.7311 43.8641 40.2412L33.1359 46.6174C32.7573 46.8725 32.3786 47 32 47ZM40.5825 34.5027C40.5825 32.0797 38.9417 31.4421 35.6602 31.0595C32.2524 30.5494 32 30.4219 32 29.5292C32 28.8916 32.2524 27.9989 34.7767 27.9989C37.0485 27.9989 37.8058 28.509 38.1845 30.0393C38.1845 30.1668 38.3107 30.2944 38.4369 30.2944H39.8252C39.9094 30.2944 39.9935 30.2519 40.0777 30.1669C40.0777 30.0393 40.2039 30.0393 40.2039 29.9118C39.9515 27.2338 38.3107 26.0861 34.7767 26.0861C31.6214 26.0861 29.8544 27.3613 29.8544 29.6567C29.8544 32.0797 31.7476 32.7173 34.6505 32.9724C38.1845 33.3549 38.4369 33.865 38.4369 34.5027C38.4369 35.7779 37.4272 36.288 35.1553 36.288C32.2524 36.288 31.6213 35.5228 31.4951 34.1201C31.4951 33.9926 31.3689 33.865 31.2427 33.865H29.8544C29.7282 33.865 29.6019 33.9926 29.6019 34.1201C29.6019 35.9054 30.6116 38.2008 35.4078 38.2008C38.6893 38.2008 40.5825 36.7981 40.5825 34.5027Z" fill="url(#paint1_linear_1_1517)"/>
<defs>
<linearGradient id="paint0_linear_1_1517" x1="32.0012" y1="4.9872" x2="32.0012" y2="59.1663" gradientUnits="userSpaceOnUse">
<stop stop-color="white" stop-opacity="0.2"/>
<stop offset="0.99" stop-opacity="0.2"/>
</linearGradient>
<linearGradient id="paint1_linear_1_1517" x1="32" y1="17.1849" x2="32" y2="46.8852" gradientUnits="userSpaceOnUse">
<stop stop-color="white"/>
<stop offset="1" stop-color="white" stop-opacity="0.3"/>
</linearGradient>
</defs>
</svg>
