<svg width="256" height="256" viewBox="0 0 64 64" fill="none" xmlns="http://www.w3.org/2000/svg">
<path d="M13.184 0H50.688C58.112 0 64 5.88682 64 13.1814V50.6779C64 58.1004 58.112 63.9872 50.816 63.9872H13.184C5.888 63.9872 0 58.1004 0 50.8058V13.1814C0 5.88682 5.888 0 13.184 0Z" fill="#1A2516"/>
<path d="M16.1346 4.9872H47.8678C54.0097 4.9872 59 9.97772 59 16.1199V47.8545C59 53.9967 54.0097 58.9872 47.8678 58.9872H16.1346C9.99271 58.9872 5.00241 53.9967 5.00241 47.8545V16.2479C4.87445 9.97772 9.86475 4.9872 16.1346 4.9872Z" fill="#76D04B"/>
<path d="M16.1346 4.9872H47.8678C54.0097 4.9872 59 9.97772 59 16.1199V47.8545C59 53.9967 54.0097 58.9872 47.8678 58.9872H16.1346C9.99271 58.9872 5.00241 53.9967 5.00241 47.8545V16.2479C4.87445 9.97772 9.86475 4.9872 16.1346 4.9872Z" fill="url(#paint0_linear_1_1563)"/>
<path d="M45.0841 26.8823L44.1682 26.369C45.4766 24.4438 46.3925 21.492 45.3458 17C45.3458 17 42.9907 23.2887 38.2804 23.0321L32.6542 19.9519C32.3925 19.8235 32.2617 19.8235 32 19.8235H31.8692C31.6075 19.8235 31.3458 19.9519 31.215 19.9519L25.5888 23.0321C20.8785 23.2887 18.5234 17 18.5234 17C17.4766 21.3636 18.2617 24.3155 19.7009 26.369L18.7851 26.8823C18.3925 27.139 18 27.5241 18 28.0374V46.262C18 46.5187 18.1308 46.7754 18.3925 46.9037C18.6542 47.0321 18.9159 47.0321 19.1776 46.9037L26.5047 42.9251C26.8972 42.6684 27.2897 42.1551 27.2897 41.7701V33.1711C27.2897 32.6578 27.5514 32.2727 28.0748 32.016L31.215 30.3476C31.4766 30.2192 31.7383 30.2192 32 30.2192C32.2617 30.2192 32.5234 30.2192 32.7851 30.3476L35.9252 32.016C36.3178 32.2727 36.7103 32.6578 36.7103 33.1711V41.7701C36.7103 42.2834 36.972 42.6684 37.4953 42.9251L44.8224 46.9037C45.0841 47.0321 45.3458 47.0321 45.6075 46.9037C45.8692 46.7754 46 46.5187 46 46.262V28.0374C45.8692 27.6524 45.6075 27.0107 45.0841 26.8823Z" fill="url(#paint1_linear_1_1563)"/>
<defs>
<linearGradient id="paint0_linear_1_1563" x1="32.0012" y1="4.9872" x2="32.0012" y2="59.1663" gradientUnits="userSpaceOnUse">
<stop stop-color="white" stop-opacity="0.2"/>
<stop offset="0.99" stop-opacity="0.2"/>
</linearGradient>
<linearGradient id="paint1_linear_1_1563" x1="32" y1="17.0898" x2="32" y2="47.0321" gradientUnits="userSpaceOnUse">
<stop stop-color="white"/>
<stop offset="1" stop-color="white" stop-opacity="0.3"/>
</linearGradient>
</defs>
</svg>
