<svg width="256" height="256" viewBox="0 0 64 64" fill="none" xmlns="http://www.w3.org/2000/svg">
<path d="M13.184 0H50.688C58.112 0 64 5.88682 64 13.1814V50.6779C64 58.1004 58.112 63.9872 50.816 63.9872H13.184C5.888 63.9872 0 58.1004 0 50.8058V13.1814C0 5.88682 5.888 0 13.184 0Z" fill="#151927"/>
<path d="M16.1346 4.9872H47.8678C54.0097 4.9872 59 9.97772 59 16.1199V47.8545C59 53.9967 54.0097 58.9872 47.8678 58.9872H16.1346C9.99271 58.9872 5.00241 53.9967 5.00241 47.8545V16.2479C4.87445 9.97772 9.86475 4.9872 16.1346 4.9872Z" fill="#4169E1"/>
<path d="M16.1346 4.9872H47.8678C54.0097 4.9872 59 9.97772 59 16.1199V47.8545C59 53.9967 54.0097 58.9872 47.8678 58.9872H16.1346C9.99271 58.9872 5.00241 53.9967 5.00241 47.8545V16.2479C4.87445 9.97772 9.86475 4.9872 16.1346 4.9872Z" fill="url(#paint0_linear_1_1607)"/>
<path d="M45.5354 20.0683C42.8138 16.5691 38.537 16.8283 36.4633 17.2171H36.3337C38.9258 18.3835 40.6106 20.4571 41.5178 22.0123C41.777 22.5307 42.0362 23.1787 42.1658 23.5675C42.2954 24.0859 42.425 24.3451 42.425 24.6043C42.425 25.2523 42.425 25.7708 42.2954 26.4188C42.1658 26.9372 42.1658 27.326 42.1658 27.8444C42.1658 28.3628 42.1658 28.8812 42.2954 29.5292C42.425 30.9548 42.6842 32.51 41.6474 34.1948L41.777 34.3244C43.4618 31.6028 44.7578 28.7516 45.4058 26.1595C46.1834 23.3083 46.313 20.9755 45.5354 20.0683ZM41.129 27.974C41.129 27.326 41.2586 26.8076 41.2586 26.4188C41.3882 26.03 41.3882 25.5116 41.3882 25.1228C39.185 24.8636 38.4074 25.382 38.2778 26.4188C38.0186 28.1036 39.5738 30.8252 40.3514 32.1212C40.6106 32.51 40.7402 32.7692 40.7402 32.8988C40.8698 33.0284 40.8698 33.2876 40.9994 33.4172C41.5178 32.2508 41.3882 30.9548 41.2586 29.7884C41.129 29.1404 40.9994 28.4924 41.129 27.974ZM40.3514 26.1595C40.2218 26.2891 39.9626 26.4188 39.833 26.4188C39.5738 26.4188 39.4442 26.4188 39.3146 26.2892C39.185 26.1596 39.0554 26.0299 39.0554 25.9003C39.0554 25.7707 39.185 25.6412 39.3146 25.6412C39.4442 25.5115 39.5738 25.5115 39.833 25.5115H40.3514C40.481 25.5115 40.6106 25.6412 40.6106 25.7708C40.481 25.7708 40.481 25.9003 40.3514 26.1595Z" fill="url(#paint1_linear_1_1607)"/>
<path d="M31.0201 36.9164C30.8905 36.6572 30.7609 36.5276 30.6313 36.398H30.5017C30.3721 36.398 30.2425 36.2684 30.2425 36.2684C30.1129 36.2684 29.9833 36.398 29.8537 36.5276C29.7241 36.7868 29.4649 36.9164 29.3353 37.1756C28.8169 37.9532 28.5577 38.0828 26.7433 38.4716C26.3545 38.6012 26.2249 38.6012 26.0953 38.7308C26.2249 38.8604 26.4841 38.99 26.7433 38.99C27.1321 39.1196 27.9097 39.2492 28.6873 39.1196C29.4649 38.99 30.2425 38.6012 31.0201 37.694V37.5644C31.1497 37.3052 31.0201 37.046 31.0201 36.9164ZM39.833 33.158C39.833 33.0284 39.7034 32.7692 39.4442 32.3804C38.6666 30.9548 36.9818 27.974 37.3706 26.03C37.6298 24.6043 38.6666 23.6971 41.3882 23.9563V23.8267C41.2586 23.4379 40.9994 22.9195 40.7402 22.4011C39.5738 20.1979 36.9818 17.2171 32.4457 17.2171C27.0025 17.0875 25.9657 22.5307 25.7065 24.8635C25.9657 24.7339 26.2249 24.6044 26.4841 24.4748C27.0025 24.3452 27.5209 24.0859 28.0393 24.0859C28.5577 23.9563 29.0761 23.9563 29.5945 24.2155C30.3721 24.4747 31.0201 24.9931 31.2793 26.1595C32.1865 30.0476 31.4089 31.7324 30.7609 33.158C30.6313 33.4172 30.5017 33.5468 30.5017 33.806V33.9356C30.3721 34.3244 30.2425 34.7132 30.1129 35.102H30.3721C30.6313 35.102 30.8905 35.102 31.1497 35.2316C31.2793 35.2316 31.4089 35.3612 31.4089 35.3612C31.6681 35.6204 31.9273 35.8796 32.0569 36.2684C32.0569 36.398 32.1865 36.5276 32.1865 36.6572V42.2301C32.3161 43.6557 32.3161 44.6925 32.5753 45.0813C32.7049 45.4701 32.9641 46.1181 33.4826 46.5069C34.001 46.8957 34.7786 47.1549 35.945 46.8957C36.9818 46.6365 37.6298 46.3773 38.1482 45.8589C38.6666 45.3405 38.9258 44.6925 39.0554 43.7853C39.185 43.1373 39.3146 41.8413 39.4442 40.6748C39.5738 39.1196 39.833 37.694 39.833 37.1756C39.7034 35.3612 40.6106 35.102 41.2586 34.8428C41.129 34.7132 41.129 34.5836 40.9994 34.454C40.481 34.454 40.0922 33.9356 39.833 33.158ZM25.8361 34.5836C25.1881 33.806 24.6697 32.8988 24.5401 31.7324V30.566C24.7993 28.8812 24.6697 27.4556 24.6697 26.678V26.1595C24.6697 25.7707 24.6697 21.1051 27.3913 18.3835C24.7993 17.6059 16.5049 15.5323 17.0233 24.6043C17.1529 25.9003 18.1897 31.3436 19.7449 35.102C20.2633 36.2684 20.7817 37.3052 21.4297 37.9532C21.9481 38.4716 22.4665 38.7308 22.8553 38.6012C23.1145 38.4716 23.3737 38.342 23.7625 37.9532C24.7993 36.6572 25.8361 35.4908 26.3545 35.102C26.0953 34.8428 25.9657 34.7132 25.8361 34.5836ZM30.2425 26.4188C30.1129 25.7708 29.7241 25.3819 29.2057 25.2523C28.8169 25.1227 28.4281 25.1227 28.0393 25.2523C27.6505 25.3819 27.1321 25.5116 26.7433 25.6412C26.0953 25.9004 25.5769 26.1595 25.5769 26.1595V26.678C25.5769 27.4556 25.7065 29.0108 25.4473 30.8252V31.862C25.5769 32.7692 25.9657 33.5468 26.4841 34.1948C27.0025 34.8428 27.7801 35.2316 28.5577 35.3612H28.9465C29.0761 34.9724 29.2057 34.5836 29.3353 34.1948V33.9356C29.4649 33.6764 29.4649 33.4172 29.5945 33.2876C30.3721 31.6028 31.0201 30.0476 30.2425 26.4188ZM29.4649 26.678C29.3353 26.8076 29.0761 26.8076 28.8169 26.8076C28.5577 26.8076 28.4281 26.678 28.1689 26.5484C28.0393 26.4188 27.9097 26.1596 27.9097 26.03C27.9097 25.9004 28.0393 25.7708 28.2985 25.7708H28.8169C29.0761 25.7708 29.2057 25.9003 29.3353 25.9003C29.4649 26.03 29.5945 26.1596 29.5945 26.2892C29.8537 26.2892 29.7241 26.5484 29.4649 26.678Z" fill="url(#paint2_linear_1_1607)"/>
<path d="M45.9242 36.2684C45.665 36.5276 45.1466 36.9164 44.6282 37.1756C44.1098 37.4348 43.2026 37.5644 42.425 37.694H41.129C40.8698 37.694 40.7402 37.5644 40.7402 37.5644C40.7402 36.398 41.2586 36.2684 41.5178 36.1388C41.6042 36.1388 41.6906 36.0956 41.777 36.0092C42.1658 36.5276 43.3322 36.9164 45.9242 36.2684Z" fill="url(#paint3_linear_1_1607)"/>
<defs>
<linearGradient id="paint0_linear_1_1607" x1="32.0012" y1="4.9872" x2="32.0012" y2="59.1663" gradientUnits="userSpaceOnUse">
<stop stop-color="white" stop-opacity="0.2"/>
<stop offset="0.99" stop-opacity="0.2"/>
</linearGradient>
<linearGradient id="paint1_linear_1_1607" x1="41.1938" y1="16.7894" x2="41.1938" y2="47.7381" gradientUnits="userSpaceOnUse">
<stop stop-color="white"/>
<stop offset="1" stop-color="white" stop-opacity="0.3"/>
</linearGradient>
<linearGradient id="paint2_linear_1_1607" x1="29.1928" y1="16.9838" x2="29.1928" y2="46.9864" gradientUnits="userSpaceOnUse">
<stop stop-color="white"/>
<stop offset="1" stop-color="white" stop-opacity="0.3"/>
</linearGradient>
<linearGradient id="paint3_linear_1_1607" x1="43.3322" y1="17.3337" x2="43.3322" y2="47.6863" gradientUnits="userSpaceOnUse">
<stop stop-color="white"/>
<stop offset="1" stop-color="white" stop-opacity="0.3"/>
</linearGradient>
</defs>
</svg>
