<svg width="256" height="256" viewBox="0 0 256 256" fill="none" xmlns="http://www.w3.org/2000/svg">
<path d="M52.736 0H202.752C232.448 0 256 23.552 256 52.736V202.752C256 232.448 232.448 256 203.264 256H52.736C23.552 256 0 232.448 0 203.264V52.736C0 23.552 23.552 0 52.736 0Z" fill="#14191F"/>
<path d="M64.5385 20H191.471C216.039 20 236 39.9621 236 64.5308V191.469C236 216.038 216.039 236 191.471 236H64.5385C39.9708 236 20.0096 216.038 20.0096 191.469V65.0427C19.4978 39.9621 39.459 20 64.5385 20Z" fill="#3776AB"/>
<path d="M64.5385 20H191.471C216.039 20 236 39.9621 236 64.5308V191.469C236 216.038 216.039 236 191.471 236H64.5385C39.9708 236 20.0096 216.038 20.0096 191.469V65.0427C19.4978 39.9621 39.459 20 64.5385 20Z" fill="url(#paint0_linear_54_684)"/>
<path d="M139.194 68.9L143.672 69.9L147.303 71.2L150.239 72.7L152.478 74.3L154.169 76L155.413 77.7L156.209 79.35L156.706 80.85L156.905 82.15L157.005 83.15L156.955 83.8V110.5L156.706 113.65L156.06 116.4L155.015 118.7L153.721 120.6L152.229 122.15L150.587 123.4L148.846 124.35L147.104 125.05L145.463 125.55L143.97 125.9L142.677 126.1L141.632 126.2H111.93L108.498 126.45L105.562 127.15L103.075 128.25L101.035 129.6L99.393 131.2L98.0498 132.95L97.0547 134.75L96.3085 136.6L95.8109 138.35L95.4627 139.95L95.2637 141.3L95.1642 142.35V157.65H84.0697L83.0249 157.5L81.6318 157.15L80.0398 156.55L78.2985 155.65L76.5075 154.35L74.7164 152.55L72.9751 150.25L71.3831 147.3L69.99 143.65L68.9453 139.25L68.2488 134L68 127.85L68.2985 121.75L69.0945 116.55L70.2886 112.2L71.8806 108.65L73.6716 105.8L75.6617 103.6L77.7512 101.95L79.8408 100.75L81.8308 99.95L83.6219 99.45L85.2139 99.2L86.408 99.15H87.204L87.5025 99.2H128.1V95.05H99.0448L98.995 81.3L98.8955 79.45L99.1443 77.75L99.6915 76.2L100.537 74.8L101.781 73.5L103.323 72.35L105.214 71.35L107.403 70.45L109.94 69.7L112.826 69.1L116.01 68.6L119.542 68.3L123.373 68.1L127.552 68L133.871 68.25L139.194 68.9ZM107.851 78.8L106.706 80.45L106.308 82.5L106.706 84.55L107.851 86.25L109.493 87.35L111.532 87.8L113.572 87.35L115.214 86.25L116.358 84.55L116.756 82.5L116.358 80.45L115.214 78.8L113.572 77.7L111.532 77.25L109.493 77.7L107.851 78.8ZM172.975 98.55L174.368 98.85L175.96 99.45L177.701 100.35L179.493 101.7L181.284 103.45L183.025 105.8L184.617 108.75L186.01 112.4L187.055 116.8L187.751 122L188 128.15L187.701 134.3L186.905 139.5L185.711 143.8L184.119 147.35L182.328 150.2L180.338 152.45L178.249 154.1L176.159 155.3L174.169 156.1L172.378 156.55L170.786 156.8L169.592 156.9L168.796 156.85H127.901V160.95H156.955L157.005 174.75L157.104 176.55L156.856 178.25L156.308 179.8L155.463 181.25L154.219 182.5L152.677 183.7L150.786 184.7L148.597 185.55L146.06 186.3L143.174 186.95L139.99 187.4L136.458 187.75L132.627 187.95L128.448 188L122.129 187.8L116.806 187.1L112.328 186.1L108.697 184.85L105.761 183.35L103.522 181.7L101.831 180L100.587 178.3L99.791 176.65L99.2935 175.15L99.0945 173.9L98.995 172.9L99.0448 172.25V145.55L99.2935 142.35L99.9403 139.65L100.985 137.35L102.279 135.45L103.771 133.85L105.413 132.65L107.154 131.65L108.896 130.95L110.537 130.45L112.03 130.15L113.323 129.95L114.368 129.85L115.015 129.8H144.07L147.502 129.55L150.438 128.85L152.925 127.8L154.965 126.4L156.607 124.8L157.95 123.05L158.945 121.25L159.692 119.45L160.189 117.7L160.537 116.1L160.736 114.7L160.836 113.65V98.35H171.234L171.93 98.4L172.975 98.55ZM140.786 169.8L139.642 171.45L139.244 173.5L139.642 175.55L140.786 177.2L142.428 178.35L144.468 178.75L146.507 178.35L148.149 177.2L149.294 175.55L149.692 173.5L149.294 171.45L148.149 169.8L146.507 168.65L144.468 168.25L142.428 168.65L140.786 169.8Z" fill="url(#paint1_linear_54_684)"/>
<defs>
<linearGradient id="paint0_linear_54_684" x1="128.005" y1="20" x2="128.005" y2="236.717" gradientUnits="userSpaceOnUse">
<stop stop-color="white" stop-opacity="0.2"/>
<stop offset="0.99" stop-opacity="0.2"/>
</linearGradient>
<linearGradient id="paint1_linear_54_684" x1="128" y1="68" x2="128" y2="188" gradientUnits="userSpaceOnUse">
<stop stop-color="white"/>
<stop offset="1" stop-color="white" stop-opacity="0.3"/>
</linearGradient>
</defs>
</svg>
