<svg width="256" height="256" viewBox="0 0 256 256" fill="none" xmlns="http://www.w3.org/2000/svg">
<path opacity="0.1" d="M52.736 0H202.752C232.448 0 256 23.552 256 52.736V202.752C256 232.448 232.448 256 203.264 256H52.736C23.552 256 0 232.448 0 203.264V52.736C0 23.552 23.552 0 52.736 0Z" fill="#FD5F26"/>
<path d="M64.5385 20H191.471C216.039 20 236 39.9621 236 64.5308V191.469C236 216.038 216.039 236 191.471 236H64.5385C39.9708 236 20.0096 216.038 20.0096 191.469V65.0427C19.4978 39.9621 39.459 20 64.5385 20Z" fill="#FD5F26"/>
<path d="M64.5385 20H191.471C216.039 20 236 39.9621 236 64.5308V191.469C236 216.038 216.039 236 191.471 236H64.5385C39.9708 236 20.0096 216.038 20.0096 191.469V65.0427C19.4978 39.9621 39.459 20 64.5385 20Z" fill="url(#paint0_linear_164_241)"/>
<path d="M184.187 116.005H145.793C145.16 116.009 144.533 115.887 143.947 115.647C143.362 115.407 142.83 115.053 142.382 114.605C141.935 114.158 141.581 113.626 141.34 113.04C141.1 112.455 140.978 111.828 140.982 111.195V72.8101C140.982 72.1798 140.857 71.5558 140.615 70.9739C140.373 70.392 140.018 69.8637 139.571 69.4195C139.124 68.9752 138.593 68.6237 138.01 68.3853C137.426 68.1469 136.801 68.0261 136.171 68.0301H121.798C121.167 68.0261 120.542 68.1469 119.959 68.3853C119.375 68.6237 118.845 68.9752 118.397 69.4195C117.95 69.8637 117.595 70.392 117.353 70.9739C117.111 71.5558 116.986 72.1798 116.986 72.8101V111.2C116.99 111.833 116.869 112.46 116.628 113.045C116.388 113.631 116.034 114.163 115.586 114.61C115.139 115.058 114.607 115.412 114.021 115.652C113.436 115.892 112.808 116.014 112.175 116.01H97.8019C97.1694 116.013 96.5425 115.891 95.9576 115.651C95.3727 115.41 94.8413 115.056 94.3943 114.608C93.9473 114.161 93.5935 113.629 93.3534 113.044C93.1134 112.459 92.9918 111.832 92.9958 111.2V72.8101C92.9998 72.1773 92.878 71.5501 92.6377 70.9647C92.3973 70.3793 92.0431 69.8475 91.5955 69.4C91.148 68.9526 90.616 68.5984 90.0305 68.3581C89.445 68.1178 88.8176 67.9961 88.1846 68.0001H73.7812C73.1508 68.0001 72.5266 68.1247 71.9446 68.3668C71.3626 68.6089 70.8342 68.9637 70.3898 69.4107C69.9454 69.8578 69.5939 70.3882 69.3554 70.9716C69.1169 71.5551 68.9961 72.1798 69.0001 72.8101V183.19C68.9961 183.823 69.1178 184.45 69.3582 185.035C69.5986 185.621 69.9528 186.153 70.4004 186.6C70.8479 187.047 71.3799 187.402 71.9654 187.642C72.5509 187.882 73.1783 188.004 73.8112 188H184.187C184.82 188.004 185.448 187.882 186.033 187.642C186.619 187.402 187.151 187.047 187.598 186.6C188.046 186.153 188.4 185.621 188.64 185.035C188.881 184.45 189.002 183.823 188.998 183.19V120.9C189.015 120.26 188.902 119.623 188.667 119.027C188.432 118.431 188.08 117.888 187.631 117.431C187.182 116.974 186.646 116.612 186.054 116.366C185.463 116.12 184.828 116.001 184.187 116.005ZM164.883 156.765C164.887 157.711 164.704 158.649 164.344 159.524C163.985 160.399 163.456 161.195 162.788 161.865C162.121 162.535 161.327 163.067 160.453 163.43C159.579 163.793 158.642 163.98 157.696 163.98H148.074C147.128 163.979 146.191 163.792 145.318 163.429C144.445 163.065 143.652 162.533 142.985 161.863C142.317 161.193 141.789 160.397 141.43 159.523C141.071 158.648 140.888 157.711 140.892 156.765V147.18C140.888 146.234 141.071 145.297 141.43 144.422C141.789 143.547 142.317 142.752 142.985 142.082C143.652 141.411 144.445 140.879 145.318 140.516C146.191 140.153 147.128 139.966 148.074 139.965H157.696C158.642 139.965 159.579 140.152 160.453 140.515C161.327 140.878 162.121 141.41 162.788 142.08C163.456 142.75 163.985 143.546 164.344 144.421C164.704 145.296 164.887 146.234 164.883 147.18V156.765Z" fill="url(#paint1_linear_164_241)"/>
<defs>
<linearGradient id="paint0_linear_164_241" x1="128.005" y1="20" x2="128.005" y2="236.717" gradientUnits="userSpaceOnUse">
<stop stop-color="white" stop-opacity="0.2"/>
<stop offset="0.99" stop-opacity="0.2"/>
</linearGradient>
<linearGradient id="paint1_linear_164_241" x1="129" y1="68" x2="129" y2="188" gradientUnits="userSpaceOnUse">
<stop stop-color="white"/>
<stop offset="1" stop-color="white" stop-opacity="0.3"/>
</linearGradient>
</defs>
</svg>
