<svg width="256" height="256" viewBox="0 0 256 256" fill="none" xmlns="http://www.w3.org/2000/svg">
<path d="M52.736 0H202.752C232.448 0 256 23.552 256 52.736V202.752C256 232.448 232.448 256 203.264 256H52.736C23.552 256 0 232.448 0 203.264V52.736C0 23.552 23.552 0 52.736 0Z" fill="#112125"/>
<path d="M64.5385 20H191.471C216.039 20 236 39.9621 236 64.5308V191.469C236 216.038 216.039 236 191.471 236H64.5385C39.9708 236 20.0096 216.038 20.0096 191.469V65.0427C19.4978 39.9621 39.459 20 64.5385 20Z" fill="#06B6D4"/>
<path d="M64.5385 20H191.471C216.039 20 236 39.9621 236 64.5308V191.469C236 216.038 216.039 236 191.471 236H64.5385C39.9708 236 20.0096 216.038 20.0096 191.469V65.0427C19.4978 39.9621 39.459 20 64.5385 20Z" fill="url(#paint0_linear_54_783)"/>
<path d="M128 81C107.733 81 95.0667 91.3333 90 112C97.6 101.667 106.467 97.7917 116.6 100.375C122.382 101.847 126.512 106.123 131.091 110.863C138.545 118.575 147.165 127.5 166 127.5C186.267 127.5 198.933 117.167 204 96.5C196.4 106.833 187.533 110.708 177.4 108.125C171.618 106.652 167.488 102.377 162.909 97.6367C155.461 89.9254 146.842 81 128 81ZM90 127.5C69.7333 127.5 57.0667 137.833 52 158.5C59.6 148.167 68.4667 144.292 78.6 146.875C84.3823 148.347 88.5117 152.623 93.0907 157.363C100.545 165.075 109.165 174 128 174C148.267 174 160.933 163.667 166 143C158.4 153.333 149.533 157.208 139.4 154.625C133.618 153.153 129.488 148.877 124.909 144.137C117.461 136.425 108.842 127.5 90 127.5Z" fill="url(#paint1_linear_54_783)"/>
<defs>
<linearGradient id="paint0_linear_54_783" x1="128.005" y1="20" x2="128.005" y2="236.717" gradientUnits="userSpaceOnUse">
<stop stop-color="white" stop-opacity="0.2"/>
<stop offset="0.99" stop-opacity="0.2"/>
</linearGradient>
<linearGradient id="paint1_linear_54_783" x1="128" y1="81" x2="128" y2="174" gradientUnits="userSpaceOnUse">
<stop stop-color="white"/>
<stop offset="1" stop-color="white" stop-opacity="0.3"/>
</linearGradient>
</defs>
</svg>
