<svg width="256" height="256" viewBox="0 0 64 64" fill="none" xmlns="http://www.w3.org/2000/svg">
<path d="M13.184 0H50.688C58.112 0 64 5.88682 64 13.1814V50.6779C64 58.1004 58.112 63.9872 50.816 63.9872H13.184C5.888 63.9872 0 58.1004 0 50.8058V13.1814C0 5.88682 5.888 0 13.184 0Z" fill="#0D1F33"/>
<path d="M16.1346 4.9872H47.8678C54.0097 4.9872 59 9.97772 59 16.1199V47.8545C59 53.9967 54.0097 58.9872 47.8678 58.9872H16.1346C9.99271 58.9872 5.00241 53.9967 5.00241 47.8545V16.2479C4.87445 9.97772 9.86475 4.9872 16.1346 4.9872Z" fill="#3178C6"/>
<path d="M16.1346 4.9872H47.8678C54.0097 4.9872 59 9.97772 59 16.1199V47.8545C59 53.9967 54.0097 58.9872 47.8678 58.9872H16.1346C9.99271 58.9872 5.00241 53.9967 5.00241 47.8545V16.2479C4.87445 9.97772 9.86475 4.9872 16.1346 4.9872Z" fill="url(#paint0_linear_1_1449)"/>
<path d="M18.4043 17C17.6383 17 17 17.6383 17 18.4043V45.5957C17 46.3617 17.6383 47 18.4043 47H45.5957C46.3617 47 47 46.3617 47 45.5957V18.4043C47 17.6383 46.3617 17 45.5957 17H18.4043ZM40.1064 29.2553C40.8723 29.2553 41.5106 29.2553 42.0213 29.383C42.5319 29.5106 43.0426 29.6383 43.5532 29.766V32.8298C43.2979 32.7021 43.0426 32.5745 42.7872 32.4468C42.5319 32.3191 42.2766 32.1915 41.8936 32.1915C41.383 32.0638 40.7447 31.9362 40.1064 31.9362C39.7234 31.9362 39.4681 31.9362 39.0851 32.0638C38.8298 32.0638 38.5745 32.1915 38.3192 32.3191C38.0638 32.4468 37.9362 32.5745 37.8085 32.8298C37.6809 32.9574 37.6809 33.2128 37.6809 33.4681C37.6809 33.7234 37.8085 33.9787 37.8085 34.1064C37.9362 34.234 38.0638 34.4894 38.3192 34.617C38.5745 34.7447 38.8298 35 39.2128 35.1277C39.5957 35.2553 39.9787 35.5106 40.3617 35.6383C40.8723 35.8936 41.383 36.1489 41.8936 36.4043C42.4043 36.6596 42.7872 36.9149 43.0426 37.2979C43.4255 37.6809 43.5532 38.0638 43.8085 38.4468C43.9362 38.8298 44.0638 39.3404 44.0638 39.9787C44.0638 40.7447 43.9362 41.383 43.5532 42.0213C43.2979 42.5319 42.7872 43.0426 42.2766 43.2979C41.766 43.6808 41.1277 43.9362 40.4894 44.0638C39.8511 44.1915 39.0851 44.3192 38.1915 44.3192C37.4255 44.3192 36.6596 44.3191 35.8936 44.0638C35.2553 43.9362 34.617 43.8085 34.1064 43.4255V40.1064C35.2553 41 36.6596 41.5106 38.1915 41.5106C38.5745 41.5106 38.9574 41.5106 39.2128 41.383C39.4681 41.2553 39.7234 41.2553 39.9787 41.1277C40.234 41 40.3617 40.8723 40.4894 40.617C40.7447 40.234 40.7447 39.7234 40.3617 39.3404C40.234 39.0851 39.9787 38.9574 39.7234 38.7021C39.4681 38.4468 39.0851 38.3191 38.7021 38.1915C38.3191 38.0638 37.9362 37.8085 37.4255 37.6808C36.2766 37.1702 35.5106 36.6596 34.7447 36.0213C34.234 35.383 33.9787 34.4894 33.9787 33.4681C33.9787 32.7021 34.1064 32.0638 34.4894 31.5532C34.7447 31.0426 35.2553 30.5319 35.766 30.2766C36.2766 29.8936 36.9149 29.6383 37.5532 29.5106C38.5745 29.2553 39.3404 29.2553 40.1064 29.2553ZM21.2128 29.383H33.2128V32.1915H28.8723V44.3192H25.4255V32.1915H21.2128V29.383Z" fill="url(#paint1_linear_1_1449)"/>
<defs>
<linearGradient id="paint0_linear_1_1449" x1="32.0012" y1="4.9872" x2="32.0012" y2="59.1663" gradientUnits="userSpaceOnUse">
<stop stop-color="white" stop-opacity="0.2"/>
<stop offset="0.99" stop-opacity="0.2"/>
</linearGradient>
<linearGradient id="paint1_linear_1_1449" x1="32" y1="17.0638" x2="32" y2="47.0255" gradientUnits="userSpaceOnUse">
<stop stop-color="white"/>
<stop offset="1" stop-color="white" stop-opacity="0.3"/>
</linearGradient>
</defs>
</svg>
