<svg width="256" height="256" viewBox="0 0 256 256" fill="none" xmlns="http://www.w3.org/2000/svg">
<path d="M52.736 0H202.752C232.448 0 256 23.552 256 52.736V202.752C256 232.448 232.448 256 203.264 256H52.736C23.552 256 0 232.448 0 203.264V52.736C0 23.552 23.552 0 52.736 0Z" fill="#6E9F18" fill-opacity="0.15"/>
<path d="M64.5385 20H191.471C216.039 20 236 39.9621 236 64.5308V191.469C236 216.038 216.039 236 191.471 236H64.5385C39.9708 236 20.0096 216.038 20.0096 191.469V65.0427C19.4978 39.9621 39.459 20 64.5385 20Z" fill="#6E9F18"/>
<path d="M64.5385 20H191.471C216.039 20 236 39.9621 236 64.5308V191.469C236 216.038 216.039 236 191.471 236H64.5385C39.9708 236 20.0096 216.038 20.0096 191.469V65.0427C19.4978 39.9621 39.459 20 64.5385 20Z" fill="#6E9F18"/>
<path d="M139.449 59C139.114 58.9992 138.78 59.0523 138.462 59.1572C137.822 59.3679 137.269 59.78 136.885 60.3311L100.786 112.242C100.497 112.657 100.316 113.137 100.259 113.639C100.202 114.141 100.27 114.649 100.458 115.118C100.647 115.587 100.949 116.002 101.338 116.326C101.728 116.652 102.192 116.877 102.69 116.982L126.012 121.901L124.569 150.56C124.535 151.228 124.722 151.887 125.101 152.439C125.481 152.991 126.032 153.405 126.67 153.618C127.309 153.831 128.002 153.834 128.642 153.622C129.282 153.411 129.835 152.999 130.219 152.449L166.316 100.538C166.606 100.123 166.788 99.6426 166.845 99.1406C166.902 98.639 166.835 98.1308 166.646 97.662C166.458 97.1929 166.155 96.7776 165.766 96.4531C165.376 96.1276 164.912 95.9023 164.414 95.7974L141.092 90.8784L142.536 62.2191C142.569 61.5519 142.382 60.8921 142.003 60.3408C141.623 59.7883 141.072 59.3741 140.434 59.1611C140.117 59.055 139.784 59.0006 139.449 59ZM60.2793 113.658C58.3511 113.666 56.5037 114.433 55.1403 115.789C53.777 117.144 53.0077 118.981 53.0001 120.898C52.9924 122.816 53.7469 124.659 55.0993 126.026L123.316 193.869C123.994 194.546 124.8 195.082 125.687 195.447C126.574 195.813 127.524 196.001 128.484 196C128.49 196 128.494 195.998 128.5 195.998C128.505 195.998 128.509 196 128.514 196C129.474 196.001 130.425 195.813 131.312 195.447C132.199 195.082 133.004 194.546 133.682 193.869L201.899 126.026C203.251 124.659 204.007 122.816 204 120.898C203.992 118.98 203.221 117.145 201.858 115.789C200.495 114.432 198.647 113.666 196.719 113.658C194.791 113.651 192.938 114.401 191.564 115.746L157.582 149.542C157.533 149.588 157.474 149.62 157.426 149.668L128.5 178.436L99.5724 149.668C99.5259 149.621 99.468 149.59 99.4202 149.546L65.4358 115.746C64.0611 114.401 62.2077 113.651 60.2793 113.658Z" fill="url(#paint0_linear_162_184)"/>
<defs>
<linearGradient id="paint0_linear_162_184" x1="128.5" y1="59" x2="128.5" y2="196" gradientUnits="userSpaceOnUse">
<stop stop-color="white"/>
<stop offset="1" stop-color="white" stop-opacity="0.3"/>
</linearGradient>
</defs>
</svg>
