<svg width="256" height="256" viewBox="0 0 256 256" fill="none" xmlns="http://www.w3.org/2000/svg">
<path d="M52.736 0H202.752C232.448 0 256 23.552 256 52.736V202.752C256 232.448 232.448 256 203.264 256H52.736C23.552 256 0 232.448 0 203.264V52.736C0 23.552 23.552 0 52.736 0Z" fill="#12191D"/>
<path d="M64.5385 20H191.471C216.039 20 236 39.9621 236 64.5308V191.469C236 216.038 216.039 236 191.471 236H64.5385C39.9708 236 20.0096 216.038 20.0096 191.469V65.0427C19.4978 39.9621 39.459 20 64.5385 20Z" fill="#21759B"/>
<path d="M64.5385 20H191.471C216.039 20 236 39.9621 236 64.5308V191.469C236 216.038 216.039 236 191.471 236H64.5385C39.9708 236 20.0096 216.038 20.0096 191.469V65.0427C19.4978 39.9621 39.459 20 64.5385 20Z" fill="url(#paint0_linear_54_845)"/>
<path d="M175.345 102.125C179.545 109.81 181.935 118.625 181.935 128C181.935 147.895 171.155 165.28 155.12 174.625L171.595 126.99C174.67 119.29 175.695 113.135 175.695 107.67C175.695 105.645 175.565 103.775 175.345 102.125ZM135.44 102.645C138.675 102.495 141.6 102.12 141.6 102.12C144.51 101.745 144.17 97.47 141.265 97.625C141.265 97.625 132.49 98.3 126.865 98.3C121.545 98.3 112.615 97.55 112.615 97.55C109.69 97.4 109.31 101.825 112.24 101.975C112.24 101.975 114.94 102.28 117.865 102.425L126.265 125.45L114.415 160.85L94.77 102.5C98.015 102.35 100.94 102 100.94 102C103.865 101.625 103.52 97.35 100.615 97.52C100.615 97.52 91.885 98.21 86.245 98.21C85.245 98.21 84.055 98.17 82.795 98.135C92.555 83.75 109.175 74.075 128 74.075C142.045 74.075 154.825 79.435 164.43 88.24C164.2 88.225 163.975 88.195 163.725 88.195C158.425 88.195 154.665 92.81 154.665 97.765C154.665 102.215 157.23 105.98 159.965 110.42C162.02 114.02 164.415 118.635 164.415 125.305C164.415 129.88 162.645 135.275 160.31 142.7L154.935 160.625L135.435 102.575L135.44 102.645ZM128 181.92C122.705 181.92 117.595 181.155 112.76 179.735L128.945 132.705L145.52 178.14C145.64 178.405 145.77 178.645 145.91 178.885C140.31 180.85 134.285 181.93 128 181.93M74.055 128C74.055 120.18 75.735 112.75 78.73 106.05L104.45 176.545C86.47 167.8 74.06 149.355 74.055 128ZM128 68C94.925 68 68 94.925 68 128C68 161.075 94.925 188 128 188C161.075 188 188 161.075 188 128C188 94.925 161.075 68 128 68Z" fill="url(#paint1_linear_54_845)"/>
<defs>
<linearGradient id="paint0_linear_54_845" x1="128.005" y1="20" x2="128.005" y2="236.717" gradientUnits="userSpaceOnUse">
<stop stop-color="white" stop-opacity="0.2"/>
<stop offset="0.99" stop-opacity="0.2"/>
</linearGradient>
<linearGradient id="paint1_linear_54_845" x1="128" y1="68" x2="128" y2="188" gradientUnits="userSpaceOnUse">
<stop stop-color="white"/>
<stop offset="1" stop-color="white" stop-opacity="0.3"/>
</linearGradient>
</defs>
</svg>
