<svg width="72" height="32" viewBox="0 0 72 32" fill="none" xmlns="http://www.w3.org/2000/svg">
<g clip-path="url(#clip0_311_518)">
<rect opacity="0.2" width="72" height="32" rx="5" fill="#3995DB"/>
<path d="M23.1717 7.27273V24H19.6352V10.6296H19.5372L15.7065 13.0309V9.89453L19.8475 7.27273H23.1717ZM33.7059 24.3675C32.3011 24.3621 31.0923 24.0163 30.0795 23.3303C29.0722 22.6442 28.2962 21.6504 27.7517 20.3491C27.2127 19.0477 26.9459 17.4822 26.9513 15.6527C26.9513 13.8286 27.2208 12.274 27.7599 10.989C28.3044 9.70395 29.0803 8.72656 30.0877 8.05682C31.1005 7.38163 32.3065 7.04403 33.7059 7.04403C35.1053 7.04403 36.3087 7.38163 37.316 8.05682C38.3288 8.73201 39.1074 9.71212 39.6519 10.9972C40.1965 12.2768 40.466 13.8286 40.4605 15.6527C40.4605 17.4877 40.1883 19.0559 39.6438 20.3572C39.1047 21.6586 38.3315 22.6523 37.3242 23.3384C36.3168 24.0245 35.1108 24.3675 33.7059 24.3675ZM33.7059 21.4354C34.6643 21.4354 35.4293 20.9535 36.001 19.9897C36.5728 19.0259 36.8559 17.5803 36.8505 15.6527C36.8505 14.384 36.7198 13.3277 36.4584 12.4837C36.2025 11.6397 35.8377 11.0053 35.3639 10.5806C34.8957 10.1559 34.343 9.94354 33.7059 9.94354C32.753 9.94354 31.9907 10.42 31.419 11.3729C30.8473 12.3258 30.5587 13.7524 30.5532 15.6527C30.5532 16.9377 30.6812 18.0104 30.9371 18.8707C31.1985 19.7256 31.566 20.3681 32.0397 20.7983C32.5134 21.223 33.0688 21.4354 33.7059 21.4354ZM49.5409 24.3675C48.1361 24.3621 46.9272 24.0163 45.9145 23.3303C44.9071 22.6442 44.1312 21.6504 43.5867 20.3491C43.0476 19.0477 42.7808 17.4822 42.7863 15.6527C42.7863 13.8286 43.0558 12.274 43.5949 10.989C44.1394 9.70395 44.9153 8.72656 45.9226 8.05682C46.9354 7.38163 48.1415 7.04403 49.5409 7.04403C50.9403 7.04403 52.1436 7.38163 53.151 8.05682C54.1638 8.73201 54.9424 9.71212 55.4869 10.9972C56.0314 12.2768 56.3009 13.8286 56.2955 15.6527C56.2955 17.4877 56.0232 19.0559 55.4787 20.3572C54.9397 21.6586 54.1665 22.6523 53.1591 23.3384C52.1518 24.0245 50.9457 24.3675 49.5409 24.3675ZM49.5409 21.4354C50.4992 21.4354 51.2642 20.9535 51.836 19.9897C52.4077 19.0259 52.6909 17.5803 52.6854 15.6527C52.6854 14.384 52.5547 13.3277 52.2934 12.4837C52.0375 11.6397 51.6726 11.0053 51.1989 10.5806C50.7306 10.1559 50.178 9.94354 49.5409 9.94354C48.588 9.94354 47.8257 10.42 47.254 11.3729C46.6822 12.3258 46.3936 13.7524 46.3882 15.6527C46.3882 16.9377 46.5161 18.0104 46.7721 18.8707C47.0334 19.7256 47.401 20.3681 47.8747 20.7983C48.3484 21.223 48.9038 21.4354 49.5409 21.4354Z" fill="#3995DB"/>
</g>
<defs>
<clipPath id="clip0_311_518">
<rect width="72" height="32" rx="16" fill="white"/>
</clipPath>
</defs>
</svg>
