<svg width="72" height="32" viewBox="0 0 72 32" fill="none" xmlns="http://www.w3.org/2000/svg">
<g clip-path="url(#clip0_311_520)">
<rect opacity="0.2" width="72" height="32" rx="5" fill="#3995DB"/>
<path d="M23.8456 7.27273V24H20.309V10.6296H20.211L16.3804 13.0309V9.89453L20.5214 7.27273H23.8456ZM34.3797 24.3675C32.9749 24.3621 31.7661 24.0163 30.7533 23.3303C29.746 22.6442 28.9701 21.6504 28.4256 20.3491C27.8865 19.0477 27.6197 17.4822 27.6251 15.6527C27.6251 13.8286 27.8947 12.274 28.4337 10.989C28.9782 9.70395 29.7542 8.72656 30.7615 8.05682C31.7743 7.38163 32.9804 7.04403 34.3797 7.04403C35.7791 7.04403 36.9825 7.38163 37.9898 8.05682C39.0026 8.73201 39.7813 9.71212 40.3258 10.9972C40.8703 12.2768 41.1398 13.8286 41.1344 15.6527C41.1344 17.4877 40.8621 19.0559 40.3176 20.3572C39.7785 21.6586 39.0053 22.6523 37.998 23.3384C36.9907 24.0245 35.7846 24.3675 34.3797 24.3675ZM34.3797 21.4354C35.3381 21.4354 36.1031 20.9535 36.6748 19.9897C37.2466 19.0259 37.5297 17.5803 37.5243 15.6527C37.5243 14.384 37.3936 13.3277 37.1322 12.4837C36.8763 11.6397 36.5115 11.0053 36.0378 10.5806C35.5695 10.1559 35.0168 9.94354 34.3797 9.94354C33.4269 9.94354 32.6646 10.42 32.0928 11.3729C31.5211 12.3258 31.2325 13.7524 31.2271 15.6527C31.2271 16.9377 31.355 18.0104 31.6109 18.8707C31.8723 19.7256 32.2398 20.3681 32.7136 20.7983C33.1873 21.223 33.7427 21.4354 34.3797 21.4354ZM43.6561 24V21.4517L49.6103 15.9386C50.1167 15.4485 50.5414 15.0075 50.8845 14.6154C51.2329 14.2234 51.497 13.8395 51.6767 13.4638C51.8564 13.0826 51.9462 12.6715 51.9462 12.2305C51.9462 11.7404 51.8346 11.3184 51.6114 10.9645C51.3881 10.6051 51.0832 10.3301 50.6966 10.1396C50.31 9.94354 49.8717 9.84553 49.3816 9.84553C48.8698 9.84553 48.4233 9.94898 48.0421 10.1559C47.661 10.3628 47.3669 10.6596 47.16 11.0462C46.9531 11.4328 46.8497 11.8929 46.8497 12.4265H43.4928C43.4928 11.332 43.7405 10.3819 44.236 9.57599C44.7315 8.77012 45.4258 8.14666 46.3188 7.70561C47.2118 7.26456 48.2409 7.04403 49.4061 7.04403C50.604 7.04403 51.6468 7.25639 52.5343 7.68111C53.4273 8.10038 54.1216 8.683 54.6171 9.42898C55.1126 10.175 55.3603 11.0298 55.3603 11.9936C55.3603 12.6252 55.2351 13.2487 54.9846 13.864C54.7396 14.4793 54.3012 15.1626 53.6696 15.9141C53.038 16.66 52.1477 17.5558 50.9988 18.6012L48.5567 20.9943V21.1087H55.5808V24H43.6561Z" fill="#3995DB"/>
</g>
<defs>
<clipPath id="clip0_311_520">
<rect width="72" height="32" fill="white"/>
</clipPath>
</defs>
</svg>
