<svg width="72" height="32" viewBox="0 0 72 32" fill="none" xmlns="http://www.w3.org/2000/svg">
<g clip-path="url(#clip0_311_521)">
<rect opacity="0.2" width="72" height="32" rx="5" fill="#3995DB"/>
<path d="M23.5087 7.27273V24H19.9721V10.6296H19.8741L16.0435 13.0309V9.89453L20.1844 7.27273H23.5087ZM34.0428 24.3675C32.638 24.3621 31.4292 24.0163 30.4164 23.3303C29.4091 22.6442 28.6332 21.6504 28.0886 20.3491C27.5496 19.0477 27.2828 17.4822 27.2882 15.6527C27.2882 13.8286 27.5578 12.274 28.0968 10.989C28.6413 9.70395 29.4172 8.72656 30.4246 8.05682C31.4374 7.38163 32.6435 7.04403 34.0428 7.04403C35.4422 7.04403 36.6456 7.38163 37.6529 8.05682C38.6657 8.73201 39.4444 9.71212 39.9889 10.9972C40.5334 12.2768 40.8029 13.8286 40.7975 15.6527C40.7975 17.4877 40.5252 19.0559 39.9807 20.3572C39.4416 21.6586 38.6684 22.6523 37.6611 23.3384C36.6537 24.0245 35.4477 24.3675 34.0428 24.3675ZM34.0428 21.4354C35.0012 21.4354 35.7662 20.9535 36.3379 19.9897C36.9097 19.0259 37.1928 17.5803 37.1874 15.6527C37.1874 14.384 37.0567 13.3277 36.7953 12.4837C36.5394 11.6397 36.1746 11.0053 35.7009 10.5806C35.2326 10.1559 34.6799 9.94354 34.0428 9.94354C33.0899 9.94354 32.3276 10.42 31.7559 11.3729C31.1842 12.3258 30.8956 13.7524 30.8901 15.6527C30.8901 16.9377 31.0181 18.0104 31.274 18.8707C31.5354 19.7256 31.9029 20.3681 32.3766 20.7983C32.8504 21.223 33.4058 21.4354 34.0428 21.4354ZM49.5021 24.2287C48.2824 24.2287 47.1961 24.0191 46.2432 23.5998C45.2958 23.1751 44.5471 22.5924 43.9971 21.8519C43.4526 21.1059 43.1722 20.2456 43.1559 19.271H46.7169C46.7387 19.6793 46.8721 20.0387 47.1171 20.3491C47.3676 20.654 47.6998 20.8909 48.1136 21.0597C48.5274 21.2285 48.993 21.3129 49.5103 21.3129C50.0493 21.3129 50.5258 21.2176 50.9396 21.027C51.3534 20.8364 51.6774 20.5723 51.9115 20.2347C52.1457 19.8971 52.2627 19.5078 52.2627 19.0668C52.2627 18.6203 52.1375 18.2255 51.887 17.8825C51.642 17.534 51.2881 17.2617 50.8252 17.0657C50.3679 16.8697 49.8233 16.7717 49.1917 16.7717H47.6317V14.1744H49.1917C49.7253 14.1744 50.1963 14.0818 50.6047 13.8967C51.0185 13.7115 51.3398 13.4556 51.5685 13.1289C51.7972 12.7968 51.9115 12.4102 51.9115 11.9691C51.9115 11.5498 51.8108 11.1823 51.6093 10.8665C51.4133 10.5452 51.1356 10.2947 50.7762 10.1151C50.4223 9.93537 50.0085 9.84553 49.5348 9.84553C49.0556 9.84553 48.6173 9.93265 48.2198 10.1069C47.8223 10.2757 47.5037 10.518 47.2642 10.8338C47.0246 11.1496 46.8966 11.5199 46.8803 11.9446H43.4907C43.5071 10.9808 43.782 10.1314 44.3157 9.39631C44.8493 8.66122 45.568 8.08677 46.4719 7.67294C47.3812 7.25367 48.4076 7.04403 49.5511 7.04403C50.7054 7.04403 51.7155 7.25367 52.5813 7.67294C53.447 8.09221 54.1195 8.6585 54.5987 9.3718C55.0833 10.0797 55.3229 10.8746 55.3174 11.7567C55.3229 12.6933 55.0316 13.4747 54.4435 14.1009C53.8609 14.727 53.1013 15.1245 52.1647 15.2933V15.424C53.3953 15.5819 54.3319 16.0094 54.9744 16.7063C55.6224 17.3978 55.9436 18.2636 55.9382 19.3036C55.9436 20.2565 55.6686 21.1032 55.1132 21.8438C54.5633 22.5843 53.8037 23.1669 52.8345 23.5916C51.8652 24.0163 50.7545 24.2287 49.5021 24.2287Z" fill="#3995DB"/>
</g>
<defs>
<clipPath id="clip0_311_521">
<rect width="72" height="32" fill="white"/>
</clipPath>
</defs>
</svg>
