<svg width="72" height="32" viewBox="0 0 72 32" fill="none" xmlns="http://www.w3.org/2000/svg">
<g clip-path="url(#clip0_311_217)">
<rect opacity="0.2" width="72" height="32" rx="5" fill="#3BB537"/>
<path d="M14.2772 24V21.4517L20.2314 15.9386C20.7378 15.4485 21.1625 15.0075 21.5055 14.6154C21.854 14.2234 22.1181 13.8395 22.2978 13.4638C22.4775 13.0826 22.5673 12.6715 22.5673 12.2305C22.5673 11.7404 22.4557 11.3184 22.2325 10.9645C22.0092 10.6051 21.7043 10.3301 21.3177 10.1396C20.9311 9.94354 20.4928 9.84553 20.0027 9.84553C19.4909 9.84553 19.0444 9.94898 18.6632 10.1559C18.2821 10.3628 17.988 10.6596 17.7811 11.0462C17.5742 11.4328 17.4707 11.8929 17.4707 12.4265H14.1139C14.1139 11.332 14.3616 10.3819 14.8571 9.57599C15.3526 8.77012 16.0469 8.14666 16.9399 7.70561C17.8328 7.26456 18.862 7.04403 20.0272 7.04403C21.2251 7.04403 22.2679 7.25639 23.1554 7.68111C24.0484 8.10038 24.7426 8.683 25.2381 9.42898C25.7337 10.175 25.9814 11.0298 25.9814 11.9936C25.9814 12.6252 25.8562 13.2487 25.6057 13.864C25.3607 14.4793 24.9223 15.1626 24.2907 15.9141C23.6591 16.66 22.7688 17.5558 21.6199 18.6012L19.1778 20.9943V21.1087H26.2019V24H14.2772ZM35.3231 24.3675C33.9183 24.3621 32.7095 24.0163 31.6967 23.3303C30.6893 22.6442 29.9134 21.6504 29.3689 20.3491C28.8299 19.0477 28.563 17.4822 28.5685 15.6527C28.5685 13.8286 28.838 12.274 29.3771 10.989C29.9216 9.70395 30.6975 8.72656 31.7049 8.05682C32.7176 7.38163 33.9237 7.04403 35.3231 7.04403C36.7225 7.04403 37.9259 7.38163 38.9332 8.05682C39.946 8.73201 40.7246 9.71212 41.2691 10.9972C41.8136 12.2768 42.0832 13.8286 42.0777 15.6527C42.0777 17.4877 41.8055 19.0559 41.261 20.3572C40.7219 21.6586 39.9487 22.6523 38.9414 23.3384C37.934 24.0245 36.7279 24.3675 35.3231 24.3675ZM35.3231 21.4354C36.2814 21.4354 37.0465 20.9535 37.6182 19.9897C38.1899 19.0259 38.4731 17.5803 38.4676 15.6527C38.4676 14.384 38.337 13.3277 38.0756 12.4837C37.8197 11.6397 37.4549 11.0053 36.9811 10.5806C36.5129 10.1559 35.9602 9.94354 35.3231 9.94354C34.3702 9.94354 33.6079 10.42 33.0362 11.3729C32.4644 12.3258 32.1759 13.7524 32.1704 15.6527C32.1704 16.9377 32.2984 18.0104 32.5543 18.8707C32.8157 19.7256 33.1832 20.3681 33.6569 20.7983C34.1306 21.223 34.686 21.4354 35.3231 21.4354ZM51.1581 24.3675C49.7532 24.3621 48.5444 24.0163 47.5316 23.3303C46.5243 22.6442 45.7484 21.6504 45.2039 20.3491C44.6648 19.0477 44.398 17.4822 44.4035 15.6527C44.4035 13.8286 44.673 12.274 45.212 10.989C45.7566 9.70395 46.5325 8.72656 47.5398 8.05682C48.5526 7.38163 49.7587 7.04403 51.1581 7.04403C52.5575 7.04403 53.7608 7.38163 54.7682 8.05682C55.7809 8.73201 56.5596 9.71212 57.1041 10.9972C57.6486 12.2768 57.9181 13.8286 57.9127 15.6527C57.9127 17.4877 57.6404 19.0559 57.0959 20.3572C56.5569 21.6586 55.7837 22.6523 54.7763 23.3384C53.769 24.0245 52.5629 24.3675 51.1581 24.3675ZM51.1581 21.4354C52.1164 21.4354 52.8814 20.9535 53.4532 19.9897C54.0249 19.0259 54.308 17.5803 54.3026 15.6527C54.3026 14.384 54.1719 13.3277 53.9106 12.4837C53.6546 11.6397 53.2898 11.0053 52.8161 10.5806C52.3478 10.1559 51.7951 9.94354 51.1581 9.94354C50.2052 9.94354 49.4429 10.42 48.8711 11.3729C48.2994 12.3258 48.0108 13.7524 48.0054 15.6527C48.0054 16.9377 48.1333 18.0104 48.3892 18.8707C48.6506 19.7256 49.0182 20.3681 49.4919 20.7983C49.9656 21.223 50.521 21.4354 51.1581 21.4354Z" fill="#3BB537"/>
</g>
<defs>
<clipPath id="clip0_311_217">
<rect width="72" height="32" fill="white"/>
</clipPath>
</defs>
</svg>
