<svg width="72" height="32" viewBox="0 0 72 32" fill="none" xmlns="http://www.w3.org/2000/svg">
<g clip-path="url(#clip0_311_219)">
<rect opacity="0.2" width="72" height="32" rx="5" fill="#3BB537"/>
<path d="M16.5682 24V21.4517L22.5224 15.9386C23.0288 15.4485 23.4535 15.0075 23.7966 14.6154C24.145 14.2234 24.4091 13.8395 24.5888 13.4638C24.7685 13.0826 24.8584 12.6715 24.8584 12.2305C24.8584 11.7404 24.7467 11.3184 24.5235 10.9645C24.3002 10.6051 23.9953 10.3301 23.6087 10.1396C23.2221 9.94354 22.7838 9.84553 22.2937 9.84553C21.7819 9.84553 21.3354 9.94898 20.9542 10.1559C20.5731 10.3628 20.279 10.6596 20.0721 11.0462C19.8652 11.4328 19.7618 11.8929 19.7618 12.4265H16.4049C16.4049 11.332 16.6526 10.3819 17.1481 9.57599C17.6436 8.77012 18.3379 8.14666 19.2309 7.70561C20.1239 7.26456 21.153 7.04403 22.3182 7.04403C23.5161 7.04403 24.5589 7.25639 25.4464 7.68111C26.3394 8.10038 27.0337 8.683 27.5292 9.42898C28.0247 10.175 28.2724 11.0298 28.2724 11.9936C28.2724 12.6252 28.1472 13.2487 27.8967 13.864C27.6517 14.4793 27.2133 15.1626 26.5817 15.9141C25.9501 16.66 25.0598 17.5558 23.9109 18.6012L21.4688 20.9943V21.1087H28.4929V24H16.5682ZM37.6141 24.3675C36.2093 24.3621 35.0005 24.0163 33.9877 23.3303C32.9804 22.6442 32.2044 21.6504 31.6599 20.3491C31.1209 19.0477 30.8541 17.4822 30.8595 15.6527C30.8595 13.8286 31.129 12.274 31.6681 10.989C32.2126 9.70395 32.9885 8.72656 33.9959 8.05682C35.0087 7.38163 36.2147 7.04403 37.6141 7.04403C39.0135 7.04403 40.2169 7.38163 41.2242 8.05682C42.237 8.73201 43.0156 9.71212 43.5601 10.9972C44.1047 12.2768 44.3742 13.8286 44.3687 15.6527C44.3687 17.4877 44.0965 19.0559 43.552 20.3572C43.0129 21.6586 42.2397 22.6523 41.2324 23.3384C40.225 24.0245 39.019 24.3675 37.6141 24.3675ZM37.6141 21.4354C38.5725 21.4354 39.3375 20.9535 39.9092 19.9897C40.481 19.0259 40.7641 17.5803 40.7587 15.6527C40.7587 14.384 40.628 13.3277 40.3666 12.4837C40.1107 11.6397 39.7459 11.0053 39.2722 10.5806C38.8039 10.1559 38.2512 9.94354 37.6141 9.94354C36.6612 9.94354 35.8989 10.42 35.3272 11.3729C34.7555 12.3258 34.4669 13.7524 34.4614 15.6527C34.4614 16.9377 34.5894 18.0104 34.8453 18.8707C35.1067 19.7256 35.4742 20.3681 35.9479 20.7983C36.4217 21.223 36.9771 21.4354 37.6141 21.4354ZM54.1678 7.27273V24H50.6313V10.6296H50.5332L46.7026 13.0309V9.89453L50.8436 7.27273H54.1678Z" fill="#3BB537"/>
</g>
<defs>
<clipPath id="clip0_311_219">
<rect width="72" height="32" fill="white"/>
</clipPath>
</defs>
</svg>
