<svg width="72" height="32" viewBox="0 0 72 32" fill="none" xmlns="http://www.w3.org/2000/svg">
<g clip-path="url(#clip0_311_234)">
<rect opacity="0.2" width="72" height="32" rx="5" fill="#3BB537"/>
<path d="M14.951 24V21.4517L20.9052 15.9386C21.4116 15.4485 21.8363 15.0075 22.1794 14.6154C22.5279 14.2234 22.7919 13.8395 22.9716 13.4638C23.1513 13.0826 23.2412 12.6715 23.2412 12.2305C23.2412 11.7404 23.1295 11.3184 22.9063 10.9645C22.683 10.6051 22.3781 10.3301 21.9915 10.1396C21.6049 9.94354 21.1666 9.84553 20.6765 9.84553C20.1647 9.84553 19.7182 9.94898 19.337 10.1559C18.9559 10.3628 18.6619 10.6596 18.4549 11.0462C18.248 11.4328 18.1446 11.8929 18.1446 12.4265H14.7877C14.7877 11.332 15.0354 10.3819 15.5309 9.57599C16.0264 8.77012 16.7207 8.14666 17.6137 7.70561C18.5067 7.26456 19.5358 7.04403 20.701 7.04403C21.899 7.04403 22.9417 7.25639 23.8292 7.68111C24.7222 8.10038 25.4165 8.683 25.912 9.42898C26.4075 10.175 26.6552 11.0298 26.6552 11.9936C26.6552 12.6252 26.53 13.2487 26.2795 13.864C26.0345 14.4793 25.5962 15.1626 24.9645 15.9141C24.3329 16.66 23.4426 17.5558 22.2937 18.6012L19.8516 20.9943V21.1087H26.8758V24H14.951ZM35.9969 24.3675C34.5921 24.3621 33.3833 24.0163 32.3705 23.3303C31.3632 22.6442 30.5873 21.6504 30.0427 20.3491C29.5037 19.0477 29.2369 17.4822 29.2423 15.6527C29.2423 13.8286 29.5119 12.274 30.0509 10.989C30.5954 9.70395 31.3713 8.72656 32.3787 8.05682C33.3915 7.38163 34.5976 7.04403 35.9969 7.04403C37.3963 7.04403 38.5997 7.38163 39.607 8.05682C40.6198 8.73201 41.3985 9.71212 41.943 10.9972C42.4875 12.2768 42.757 13.8286 42.7516 15.6527C42.7516 17.4877 42.4793 19.0559 41.9348 20.3572C41.3957 21.6586 40.6225 22.6523 39.6152 23.3384C38.6079 24.0245 37.4018 24.3675 35.9969 24.3675ZM35.9969 21.4354C36.9553 21.4354 37.7203 20.9535 38.292 19.9897C38.8638 19.0259 39.1469 17.5803 39.1415 15.6527C39.1415 14.384 39.0108 13.3277 38.7494 12.4837C38.4935 11.6397 38.1287 11.0053 37.655 10.5806C37.1867 10.1559 36.634 9.94354 35.9969 9.94354C35.044 9.94354 34.2817 10.42 33.71 11.3729C33.1383 12.3258 32.8497 13.7524 32.8442 15.6527C32.8442 16.9377 32.9722 18.0104 33.2281 18.8707C33.4895 19.7256 33.857 20.3681 34.3307 20.7983C34.8045 21.223 35.3599 21.4354 35.9969 21.4354ZM45.2733 24V21.4517L51.2275 15.9386C51.7339 15.4485 52.1586 15.0075 52.5016 14.6154C52.8501 14.2234 53.1142 13.8395 53.2939 13.4638C53.4736 13.0826 53.5634 12.6715 53.5634 12.2305C53.5634 11.7404 53.4518 11.3184 53.2286 10.9645C53.0053 10.6051 52.7004 10.3301 52.3138 10.1396C51.9272 9.94354 51.4889 9.84553 50.9988 9.84553C50.487 9.84553 50.0405 9.94898 49.6593 10.1559C49.2782 10.3628 48.9841 10.6596 48.7772 11.0462C48.5703 11.4328 48.4668 11.8929 48.4668 12.4265H45.11C45.11 11.332 45.3577 10.3819 45.8532 9.57599C46.3487 8.77012 47.043 8.14666 47.9359 7.70561C48.8289 7.26456 49.8581 7.04403 51.0233 7.04403C52.2212 7.04403 53.264 7.25639 54.1515 7.68111C55.0445 8.10038 55.7387 8.683 56.2342 9.42898C56.7297 10.175 56.9775 11.0298 56.9775 11.9936C56.9775 12.6252 56.8523 13.2487 56.6018 13.864C56.3568 14.4793 55.9184 15.1626 55.2868 15.9141C54.6552 16.66 53.7649 17.5558 52.616 18.6012L50.1739 20.9943V21.1087H57.198V24H45.2733Z" fill="#3BB537"/>
</g>
<defs>
<clipPath id="clip0_311_234">
<rect width="72" height="32" fill="white"/>
</clipPath>
</defs>
</svg>
