<svg width="72" height="32" viewBox="0 0 72 32" fill="none" xmlns="http://www.w3.org/2000/svg">
<g clip-path="url(#clip0_311_249)">
<rect opacity="0.2" width="72" height="32" rx="5" fill="#3BB537"/>
<path d="M14.4007 24V21.4517L20.3549 15.9386C20.8613 15.4485 21.286 15.0075 21.6291 14.6154C21.9776 14.2234 22.2417 13.8395 22.4213 13.4638C22.601 13.0826 22.6909 12.6715 22.6909 12.2305C22.6909 11.7404 22.5792 11.3184 22.356 10.9645C22.1328 10.6051 21.8278 10.3301 21.4412 10.1396C21.0546 9.94354 20.6163 9.84553 20.1262 9.84553C19.6144 9.84553 19.1679 9.94898 18.7868 10.1559C18.4056 10.3628 18.1116 10.6596 17.9047 11.0462C17.6977 11.4328 17.5943 11.8929 17.5943 12.4265H14.2374C14.2374 11.332 14.4851 10.3819 14.9806 9.57599C15.4761 8.77012 16.1704 8.14666 17.0634 7.70561C17.9564 7.26456 18.9855 7.04403 20.1507 7.04403C21.3487 7.04403 22.3914 7.25639 23.2789 7.68111C24.1719 8.10038 24.8662 8.683 25.3617 9.42898C25.8572 10.175 26.1049 11.0298 26.1049 11.9936C26.1049 12.6252 25.9797 13.2487 25.7292 13.864C25.4842 14.4793 25.0459 15.1626 24.4142 15.9141C23.7826 16.66 22.8923 17.5558 21.7434 18.6012L19.3013 20.9943V21.1087H26.3255V24H14.4007ZM35.4466 24.3675C34.0418 24.3621 32.833 24.0163 31.8202 23.3303C30.8129 22.6442 30.037 21.6504 29.4925 20.3491C28.9534 19.0477 28.6866 17.4822 28.692 15.6527C28.692 13.8286 28.9616 12.274 29.5006 10.989C30.0451 9.70395 30.8211 8.72656 31.8284 8.05682C32.8412 7.38163 34.0473 7.04403 35.4466 7.04403C36.846 7.04403 38.0494 7.38163 39.0567 8.05682C40.0695 8.73201 40.8482 9.71212 41.3927 10.9972C41.9372 12.2768 42.2067 13.8286 42.2013 15.6527C42.2013 17.4877 41.929 19.0559 41.3845 20.3572C40.8454 21.6586 40.0722 22.6523 39.0649 23.3384C38.0576 24.0245 36.8515 24.3675 35.4466 24.3675ZM35.4466 21.4354C36.405 21.4354 37.17 20.9535 37.7417 19.9897C38.3135 19.0259 38.5966 17.5803 38.5912 15.6527C38.5912 14.384 38.4605 13.3277 38.1991 12.4837C37.9432 11.6397 37.5784 11.0053 37.1047 10.5806C36.6364 10.1559 36.0837 9.94354 35.4466 9.94354C34.4938 9.94354 33.7314 10.42 33.1597 11.3729C32.588 12.3258 32.2994 13.7524 32.2939 15.6527C32.2939 16.9377 32.4219 18.0104 32.6778 18.8707C32.9392 19.7256 33.3067 20.3681 33.7805 20.7983C34.2542 21.223 34.8096 21.4354 35.4466 21.4354ZM44.4698 21.0597V18.2745L51.4531 7.27273H53.8544V11.1278H52.4332L48.0309 18.0948V18.2255H57.9545V21.0597H44.4698ZM52.4986 24V20.2102L52.5639 18.9769V7.27273H55.88V24H52.4986Z" fill="#3BB537"/>
</g>
<defs>
<clipPath id="clip0_311_249">
<rect width="72" height="32" fill="white"/>
</clipPath>
</defs>
</svg>
