<svg width="72" height="32" viewBox="0 0 72 32" fill="none" xmlns="http://www.w3.org/2000/svg">
<g clip-path="url(#clip0_311_264)">
<rect opacity="0.2" width="72" height="32" rx="5" fill="#3BB537"/>
<path d="M14.6029 24V21.4517L20.5571 15.9386C21.0635 15.4485 21.4882 15.0075 21.8312 14.6154C22.1797 14.2234 22.4438 13.8395 22.6235 13.4638C22.8032 13.0826 22.893 12.6715 22.893 12.2305C22.893 11.7404 22.7814 11.3184 22.5582 10.9645C22.3349 10.6051 22.03 10.3301 21.6434 10.1396C21.2568 9.94354 20.8184 9.84553 20.3284 9.84553C19.8166 9.84553 19.3701 9.94898 18.9889 10.1559C18.6077 10.3628 18.3137 10.6596 18.1068 11.0462C17.8999 11.4328 17.7964 11.8929 17.7964 12.4265H14.4395C14.4395 11.332 14.6873 10.3819 15.1828 9.57599C15.6783 8.77012 16.3725 8.14666 17.2655 7.70561C18.1585 7.26456 19.1876 7.04403 20.3529 7.04403C21.5508 7.04403 22.5935 7.25639 23.4811 7.68111C24.3741 8.10038 25.0683 8.683 25.5638 9.42898C26.0593 10.175 26.3071 11.0298 26.3071 11.9936C26.3071 12.6252 26.1818 13.2487 25.9314 13.864C25.6863 14.4793 25.248 15.1626 24.6164 15.9141C23.9848 16.66 23.0945 17.5558 21.9456 18.6012L19.5035 20.9943V21.1087H26.5276V24H14.6029ZM35.6488 24.3675C34.244 24.3621 33.0352 24.0163 32.0224 23.3303C31.015 22.6442 30.2391 21.6504 29.6946 20.3491C29.1555 19.0477 28.8887 17.4822 28.8942 15.6527C28.8942 13.8286 29.1637 12.274 29.7028 10.989C30.2473 9.70395 31.0232 8.72656 32.0305 8.05682C33.0433 7.38163 34.2494 7.04403 35.6488 7.04403C37.0482 7.04403 38.2515 7.38163 39.2589 8.05682C40.2717 8.73201 41.0503 9.71212 41.5948 10.9972C42.1393 12.2768 42.4089 13.8286 42.4034 15.6527C42.4034 17.4877 42.1312 19.0559 41.5866 20.3572C41.0476 21.6586 40.2744 22.6523 39.267 23.3384C38.2597 24.0245 37.0536 24.3675 35.6488 24.3675ZM35.6488 21.4354C36.6071 21.4354 37.3722 20.9535 37.9439 19.9897C38.5156 19.0259 38.7988 17.5803 38.7933 15.6527C38.7933 14.384 38.6626 13.3277 38.4013 12.4837C38.1454 11.6397 37.7805 11.0053 37.3068 10.5806C36.8385 10.1559 36.2859 9.94354 35.6488 9.94354C34.6959 9.94354 33.9336 10.42 33.3619 11.3729C32.7901 12.3258 32.5015 13.7524 32.4961 15.6527C32.4961 16.9377 32.6241 18.0104 32.88 18.8707C33.1413 19.7256 33.5089 20.3681 33.9826 20.7983C34.4563 21.223 35.0117 21.4354 35.6488 21.4354ZM51.3449 24.2287C50.4846 24.2232 49.6542 24.079 48.8538 23.7958C48.0588 23.5127 47.3455 23.0526 46.7139 22.4155C46.0822 21.7784 45.5813 20.9344 45.211 19.8835C44.8462 18.8326 44.6638 17.5421 44.6638 16.0121C44.6692 14.6072 44.8299 13.3522 45.1457 12.2468C45.4669 11.136 45.9243 10.194 46.5178 9.42081C47.1168 8.64761 47.8328 8.05954 48.6659 7.6566C49.499 7.24822 50.4329 7.04403 51.4674 7.04403C52.5837 7.04403 53.5692 7.26184 54.4241 7.69744C55.279 8.1276 55.9651 8.71295 56.4823 9.45348C57.0051 10.194 57.3209 11.0244 57.4298 11.9446H53.9422C53.8061 11.362 53.5202 10.9046 53.0846 10.5724C52.649 10.2403 52.1099 10.0742 51.4674 10.0742C50.3784 10.0742 49.5508 10.5479 48.9845 11.4954C48.4236 12.4428 48.1378 13.7306 48.1269 15.3587H48.2412C48.4917 14.8632 48.8293 14.4412 49.254 14.0927C49.6842 13.7388 50.1715 13.4692 50.716 13.2841C51.266 13.0935 51.8459 12.9982 52.4557 12.9982C53.4467 12.9982 54.3288 13.2324 55.102 13.7006C55.8752 14.1635 56.4851 14.8005 56.9316 15.6119C57.378 16.4232 57.6013 17.3516 57.6013 18.397C57.6013 19.5296 57.3372 20.5369 56.809 21.419C56.2863 22.3011 55.5539 22.9927 54.612 23.4936C53.6754 23.9891 52.5864 24.2341 51.3449 24.2287ZM51.3286 21.4517C51.8731 21.4517 52.3604 21.321 52.7906 21.0597C53.2207 20.7983 53.5583 20.4444 53.8034 19.9979C54.0484 19.5514 54.1709 19.0504 54.1709 18.495C54.1709 17.9396 54.0484 17.4414 53.8034 17.0004C53.5638 16.5593 53.2316 16.2081 52.8069 15.9467C52.3822 15.6854 51.8976 15.5547 51.3531 15.5547C50.9447 15.5547 50.5663 15.6309 50.2178 15.7834C49.8747 15.9358 49.5725 16.1482 49.3112 16.4205C49.0552 16.6927 48.8538 17.0085 48.7068 17.3679C48.5597 17.7218 48.4862 18.1003 48.4862 18.5032C48.4862 19.0423 48.6088 19.535 48.8538 19.9815C49.1043 20.428 49.4419 20.7847 49.8666 21.0515C50.2967 21.3183 50.7841 21.4517 51.3286 21.4517Z" fill="#3BB537"/>
</g>
<defs>
<clipPath id="clip0_311_264">
<rect width="72" height="32" fill="white"/>
</clipPath>
</defs>
</svg>
