<svg width="72" height="32" viewBox="0 0 72 32" fill="none" xmlns="http://www.w3.org/2000/svg">
<g clip-path="url(#clip0_311_569)">
<rect opacity="0.2" width="72" height="32" rx="5" fill="#FABC2C"/>
<path d="M20.1232 24.2287C18.9035 24.2287 17.8172 24.0191 16.8643 23.5998C15.9169 23.1751 15.1682 22.5924 14.6182 21.8519C14.0737 21.1059 13.7933 20.2456 13.7769 19.271H17.338C17.3598 19.6793 17.4932 20.0387 17.7382 20.3491C17.9887 20.654 18.3209 20.8909 18.7347 21.0597C19.1485 21.2285 19.6141 21.3129 20.1313 21.3129C20.6704 21.3129 21.1469 21.2176 21.5607 21.027C21.9745 20.8364 22.2985 20.5723 22.5326 20.2347C22.7668 19.8971 22.8838 19.5078 22.8838 19.0668C22.8838 18.6203 22.7586 18.2255 22.5081 17.8825C22.2631 17.534 21.9092 17.2617 21.4463 17.0657C20.9889 16.8697 20.4444 16.7717 19.8128 16.7717H18.2528V14.1744H19.8128C20.3464 14.1744 20.8174 14.0818 21.2258 13.8967C21.6396 13.7115 21.9609 13.4556 22.1896 13.1289C22.4183 12.7968 22.5326 12.4102 22.5326 11.9691C22.5326 11.5498 22.4319 11.1823 22.2304 10.8665C22.0344 10.5452 21.7567 10.2947 21.3973 10.1151C21.0434 9.93537 20.6296 9.84553 20.1559 9.84553C19.6767 9.84553 19.2384 9.93265 18.8409 10.1069C18.4434 10.2757 18.1248 10.518 17.8853 10.8338C17.6457 11.1496 17.5177 11.5199 17.5014 11.9446H14.1118C14.1282 10.9808 14.4031 10.1314 14.9367 9.39631C15.4704 8.66122 16.1891 8.08677 17.093 7.67294C18.0023 7.25367 19.0287 7.04403 20.1722 7.04403C21.3265 7.04403 22.3366 7.25367 23.2024 7.67294C24.0681 8.09221 24.7406 8.6585 25.2198 9.3718C25.7044 10.0797 25.944 10.8746 25.9385 11.7567C25.944 12.6933 25.6527 13.4747 25.0646 14.1009C24.482 14.727 23.7224 15.1245 22.7858 15.2933V15.424C24.0164 15.5819 24.953 16.0094 25.5955 16.7063C26.2434 17.3978 26.5647 18.2636 26.5593 19.3036C26.5647 20.2565 26.2897 21.1032 25.7343 21.8438C25.1844 22.5843 24.4248 23.1669 23.4556 23.5916C22.4863 24.0163 21.3755 24.2287 20.1232 24.2287ZM35.66 24.3675C34.2552 24.3621 33.0464 24.0163 32.0336 23.3303C31.0263 22.6442 30.2503 21.6504 29.7058 20.3491C29.1668 19.0477 28.9 17.4822 28.9054 15.6527C28.9054 13.8286 29.1749 12.274 29.714 10.989C30.2585 9.70395 31.0344 8.72656 32.0418 8.05682C33.0546 7.38163 34.2606 7.04403 35.66 7.04403C37.0594 7.04403 38.2628 7.38163 39.2701 8.05682C40.2829 8.73201 41.0615 9.71212 41.606 10.9972C42.1506 12.2768 42.4201 13.8286 42.4146 15.6527C42.4146 17.4877 42.1424 19.0559 41.5979 20.3572C41.0588 21.6586 40.2856 22.6523 39.2783 23.3384C38.2709 24.0245 37.0649 24.3675 35.66 24.3675ZM35.66 21.4354C36.6184 21.4354 37.3834 20.9535 37.9551 19.9897C38.5269 19.0259 38.81 17.5803 38.8046 15.6527C38.8046 14.384 38.6739 13.3277 38.4125 12.4837C38.1566 11.6397 37.7918 11.0053 37.318 10.5806C36.8498 10.1559 36.2971 9.94354 35.66 9.94354C34.7071 9.94354 33.9448 10.42 33.3731 11.3729C32.8014 12.3258 32.5128 13.7524 32.5073 15.6527C32.5073 16.9377 32.6353 18.0104 32.8912 18.8707C33.1526 19.7256 33.5201 20.3681 33.9938 20.7983C34.4676 21.223 35.0229 21.4354 35.66 21.4354ZM51.495 24.3675C50.0902 24.3621 48.8813 24.0163 47.8686 23.3303C46.8612 22.6442 46.0853 21.6504 45.5408 20.3491C45.0017 19.0477 44.7349 17.4822 44.7404 15.6527C44.7404 13.8286 45.0099 12.274 45.549 10.989C46.0935 9.70395 46.8694 8.72656 47.8767 8.05682C48.8895 7.38163 50.0956 7.04403 51.495 7.04403C52.8944 7.04403 54.0977 7.38163 55.1051 8.05682C56.1179 8.73201 56.8965 9.71212 57.441 10.9972C57.9855 12.2768 58.255 13.8286 58.2496 15.6527C58.2496 17.4877 57.9773 19.0559 57.4328 20.3572C56.8938 21.6586 56.1206 22.6523 55.1132 23.3384C54.1059 24.0245 52.8998 24.3675 51.495 24.3675ZM51.495 21.4354C52.4533 21.4354 53.2184 20.9535 53.7901 19.9897C54.3618 19.0259 54.645 17.5803 54.6395 15.6527C54.6395 14.384 54.5088 13.3277 54.2475 12.4837C53.9916 11.6397 53.6267 11.0053 53.153 10.5806C52.6847 10.1559 52.1321 9.94354 51.495 9.94354C50.5421 9.94354 49.7798 10.42 49.2081 11.3729C48.6363 12.3258 48.3477 13.7524 48.3423 15.6527C48.3423 16.9377 48.4702 18.0104 48.7262 18.8707C48.9875 19.7256 49.3551 20.3681 49.8288 20.7983C50.3025 21.223 50.8579 21.4354 51.495 21.4354Z" fill="#FABC2C"/>
</g>
<defs>
<clipPath id="clip0_311_569">
<rect width="72" height="32" fill="white"/>
</clipPath>
</defs>
</svg>
