<svg width="72" height="32" viewBox="0 0 72 32" fill="none" xmlns="http://www.w3.org/2000/svg">
<g clip-path="url(#clip0_311_570)">
<rect opacity="0.2" width="72" height="32" rx="5" fill="#FABC2C"/>
<path d="M22.4142 24.2287C21.1945 24.2287 20.1082 24.0191 19.1553 23.5998C18.2079 23.1751 17.4592 22.5924 16.9092 21.8519C16.3647 21.1059 16.0843 20.2456 16.068 19.271H19.629C19.6508 19.6793 19.7842 20.0387 20.0293 20.3491C20.2797 20.654 20.6119 20.8909 21.0257 21.0597C21.4395 21.2285 21.9051 21.3129 22.4224 21.3129C22.9614 21.3129 23.4379 21.2176 23.8517 21.027C24.2655 20.8364 24.5895 20.5723 24.8236 20.2347C25.0578 19.8971 25.1748 19.5078 25.1748 19.0668C25.1748 18.6203 25.0496 18.2255 24.7991 17.8825C24.5541 17.534 24.2002 17.2617 23.7373 17.0657C23.28 16.8697 22.7355 16.7717 22.1038 16.7717H20.5438V14.1744H22.1038C22.6374 14.1744 23.1084 14.0818 23.5168 13.8967C23.9306 13.7115 24.2519 13.4556 24.4806 13.1289C24.7093 12.7968 24.8236 12.4102 24.8236 11.9691C24.8236 11.5498 24.7229 11.1823 24.5214 10.8665C24.3254 10.5452 24.0477 10.2947 23.6883 10.1151C23.3344 9.93537 22.9206 9.84553 22.4469 9.84553C21.9677 9.84553 21.5294 9.93265 21.1319 10.1069C20.7344 10.2757 20.4159 10.518 20.1763 10.8338C19.9367 11.1496 19.8087 11.5199 19.7924 11.9446H16.4028C16.4192 10.9808 16.6941 10.1314 17.2278 9.39631C17.7614 8.66122 18.4801 8.08677 19.384 7.67294C20.2933 7.25367 21.3197 7.04403 22.4632 7.04403C23.6176 7.04403 24.6276 7.25367 25.4934 7.67294C26.3592 8.09221 27.0316 8.6585 27.5108 9.3718C27.9954 10.0797 28.235 10.8746 28.2295 11.7567C28.235 12.6933 27.9437 13.4747 27.3556 14.1009C26.773 14.727 26.0134 15.1245 25.0768 15.2933V15.424C26.3074 15.5819 27.244 16.0094 27.8865 16.7063C28.5345 17.3978 28.8557 18.2636 28.8503 19.3036C28.8557 20.2565 28.5807 21.1032 28.0253 21.8438C27.4754 22.5843 26.7158 23.1669 25.7466 23.5916C24.7774 24.0163 23.6666 24.2287 22.4142 24.2287ZM37.951 24.3675C36.5462 24.3621 35.3374 24.0163 34.3246 23.3303C33.3173 22.6442 32.5414 21.6504 31.9968 20.3491C31.4578 19.0477 31.191 17.4822 31.1964 15.6527C31.1964 13.8286 31.466 12.274 32.005 10.989C32.5495 9.70395 33.3254 8.72656 34.3328 8.05682C35.3456 7.38163 36.5517 7.04403 37.951 7.04403C39.3504 7.04403 40.5538 7.38163 41.5611 8.05682C42.5739 8.73201 43.3526 9.71212 43.8971 10.9972C44.4416 12.2768 44.7111 13.8286 44.7057 15.6527C44.7057 17.4877 44.4334 19.0559 43.8889 20.3572C43.3498 21.6586 42.5766 22.6523 41.5693 23.3384C40.562 24.0245 39.3559 24.3675 37.951 24.3675ZM37.951 21.4354C38.9094 21.4354 39.6744 20.9535 40.2461 19.9897C40.8179 19.0259 41.101 17.5803 41.0956 15.6527C41.0956 14.384 40.9649 13.3277 40.7035 12.4837C40.4476 11.6397 40.0828 11.0053 39.6091 10.5806C39.1408 10.1559 38.5881 9.94354 37.951 9.94354C36.9982 9.94354 36.2358 10.42 35.6641 11.3729C35.0924 12.3258 34.8038 13.7524 34.7983 15.6527C34.7983 16.9377 34.9263 18.0104 35.1822 18.8707C35.4436 19.7256 35.8111 20.3681 36.2848 20.7983C36.7586 21.223 37.314 21.4354 37.951 21.4354ZM54.5047 7.27273V24H50.9682V10.6296H50.8702L47.0396 13.0309V9.89453L51.1805 7.27273H54.5047Z" fill="#FABC2C"/>
</g>
<defs>
<clipPath id="clip0_311_570">
<rect width="72" height="32" fill="white"/>
</clipPath>
</defs>
</svg>
