<svg width="72" height="32" viewBox="0 0 72 32" fill="none" xmlns="http://www.w3.org/2000/svg">
<g clip-path="url(#clip0_311_571)">
<rect opacity="0.2" width="72" height="32" rx="5" fill="#FABC2C"/>
<path d="M20.2467 24.2287C19.027 24.2287 17.9407 24.0191 16.9878 23.5998C16.0404 23.1751 15.2917 22.5924 14.7417 21.8519C14.1972 21.1059 13.9168 20.2456 13.9005 19.271H17.4616C17.4833 19.6793 17.6167 20.0387 17.8618 20.3491C18.1122 20.654 18.4444 20.8909 18.8582 21.0597C19.272 21.2285 19.7376 21.3129 20.2549 21.3129C20.7939 21.3129 21.2704 21.2176 21.6842 21.027C22.098 20.8364 22.422 20.5723 22.6562 20.2347C22.8903 19.8971 23.0074 19.5078 23.0074 19.0668C23.0074 18.6203 22.8821 18.2255 22.6317 17.8825C22.3866 17.534 22.0327 17.2617 21.5699 17.0657C21.1125 16.8697 20.568 16.7717 19.9363 16.7717H18.3763V14.1744H19.9363C20.47 14.1744 20.941 14.0818 21.3493 13.8967C21.7632 13.7115 22.0844 13.4556 22.3131 13.1289C22.5418 12.7968 22.6562 12.4102 22.6562 11.9691C22.6562 11.5498 22.5554 11.1823 22.354 10.8665C22.1579 10.5452 21.8802 10.2947 21.5209 10.1151C21.1669 9.93537 20.7531 9.84553 20.2794 9.84553C19.8002 9.84553 19.3619 9.93265 18.9644 10.1069C18.5669 10.2757 18.2484 10.518 18.0088 10.8338C17.7692 11.1496 17.6412 11.5199 17.6249 11.9446H14.2354C14.2517 10.9808 14.5267 10.1314 15.0603 9.39631C15.5939 8.66122 16.3126 8.08677 17.2165 7.67294C18.1259 7.25367 19.1523 7.04403 20.2957 7.04403C21.4501 7.04403 22.4601 7.25367 23.3259 7.67294C24.1917 8.09221 24.8641 8.6585 25.3433 9.3718C25.8279 10.0797 26.0675 10.8746 26.0621 11.7567C26.0675 12.6933 25.7762 13.4747 25.1881 14.1009C24.6055 14.727 23.8459 15.1245 22.9094 15.2933V15.424C24.1399 15.5819 25.0765 16.0094 25.719 16.7063C26.367 17.3978 26.6882 18.2636 26.6828 19.3036C26.6882 20.2565 26.4133 21.1032 25.8579 21.8438C25.3079 22.5843 24.5483 23.1669 23.5791 23.5916C22.6099 24.0163 21.4991 24.2287 20.2467 24.2287ZM35.7836 24.3675C34.3787 24.3621 33.1699 24.0163 32.1571 23.3303C31.1498 22.6442 30.3739 21.6504 29.8294 20.3491C29.2903 19.0477 29.0235 17.4822 29.0289 15.6527C29.0289 13.8286 29.2985 12.274 29.8375 10.989C30.382 9.70395 31.158 8.72656 32.1653 8.05682C33.1781 7.38163 34.3842 7.04403 35.7836 7.04403C37.1829 7.04403 38.3863 7.38163 39.3936 8.05682C40.4064 8.73201 41.1851 9.71212 41.7296 10.9972C42.2741 12.2768 42.5436 13.8286 42.5382 15.6527C42.5382 17.4877 42.2659 19.0559 41.7214 20.3572C41.1824 21.6586 40.4092 22.6523 39.4018 23.3384C38.3945 24.0245 37.1884 24.3675 35.7836 24.3675ZM35.7836 21.4354C36.7419 21.4354 37.5069 20.9535 38.0787 19.9897C38.6504 19.0259 38.9335 17.5803 38.9281 15.6527C38.9281 14.384 38.7974 13.3277 38.536 12.4837C38.2801 11.6397 37.9153 11.0053 37.4416 10.5806C36.9733 10.1559 36.4206 9.94354 35.7836 9.94354C34.8307 9.94354 34.0684 10.42 33.4966 11.3729C32.9249 12.3258 32.6363 13.7524 32.6309 15.6527C32.6309 16.9377 32.7588 18.0104 33.0147 18.8707C33.2761 19.7256 33.6436 20.3681 34.1174 20.7983C34.5911 21.223 35.1465 21.4354 35.7836 21.4354ZM44.8067 21.0597V18.2745L51.79 7.27273H54.1913V11.1278H52.7702L48.3678 18.0948V18.2255H58.2915V21.0597H44.8067ZM52.8355 24V20.2102L52.9008 18.9769V7.27273H56.2169V24H52.8355Z" fill="#FABC2C"/>
</g>
<defs>
<clipPath id="clip0_311_571">
<rect width="72" height="32" fill="white"/>
</clipPath>
</defs>
</svg>
