<svg width="72" height="32" viewBox="0 0 72 32" fill="none" xmlns="http://www.w3.org/2000/svg">
<g clip-path="url(#clip0_311_572)">
<rect opacity="0.2" width="72" height="32" rx="5" fill="#FABC2C"/>
<path d="M21.4259 24.2287C20.2062 24.2287 19.1199 24.0191 18.167 23.5998C17.2196 23.1751 16.4709 22.5924 15.9209 21.8519C15.3764 21.1059 15.096 20.2456 15.0797 19.271H18.6408C18.6625 19.6793 18.7959 20.0387 19.041 20.3491C19.2914 20.654 19.6236 20.8909 20.0374 21.0597C20.4512 21.2285 20.9168 21.3129 21.4341 21.3129C21.9731 21.3129 22.4496 21.2176 22.8634 21.027C23.2772 20.8364 23.6012 20.5723 23.8354 20.2347C24.0695 19.8971 24.1866 19.5078 24.1866 19.0668C24.1866 18.6203 24.0613 18.2255 23.8109 17.8825C23.5658 17.534 23.2119 17.2617 22.7491 17.0657C22.2917 16.8697 21.7472 16.7717 21.1155 16.7717H19.5555V14.1744H21.1155C21.6492 14.1744 22.1202 14.0818 22.5285 13.8967C22.9424 13.7115 23.2636 13.4556 23.4923 13.1289C23.721 12.7968 23.8354 12.4102 23.8354 11.9691C23.8354 11.5498 23.7346 11.1823 23.5332 10.8665C23.3371 10.5452 23.0594 10.2947 22.7001 10.1151C22.3461 9.93537 21.9323 9.84553 21.4586 9.84553C20.9794 9.84553 20.5411 9.93265 20.1436 10.1069C19.7461 10.2757 19.4276 10.518 19.188 10.8338C18.9484 11.1496 18.8204 11.5199 18.8041 11.9446H15.4146C15.4309 10.9808 15.7059 10.1314 16.2395 9.39631C16.7731 8.66122 17.4918 8.08677 18.3957 7.67294C19.3051 7.25367 20.3315 7.04403 21.4749 7.04403C22.6293 7.04403 23.6393 7.25367 24.5051 7.67294C25.3709 8.09221 26.0433 8.6585 26.5225 9.3718C27.0071 10.0797 27.2467 10.8746 27.2413 11.7567C27.2467 12.6933 26.9554 13.4747 26.3673 14.1009C25.7847 14.727 25.0251 15.1245 24.0886 15.2933V15.424C25.3191 15.5819 26.2557 16.0094 26.8982 16.7063C27.5462 17.3978 27.8674 18.2636 27.862 19.3036C27.8674 20.2565 27.5925 21.1032 27.0371 21.8438C26.4871 22.5843 25.7275 23.1669 24.7583 23.5916C23.7891 24.0163 22.6783 24.2287 21.4259 24.2287ZM36.9628 24.3675C35.5579 24.3621 34.3491 24.0163 33.3363 23.3303C32.329 22.6442 31.5531 21.6504 31.0086 20.3491C30.4695 19.0477 30.2027 17.4822 30.2081 15.6527C30.2081 13.8286 30.4777 12.274 31.0167 10.989C31.5612 9.70395 32.3372 8.72656 33.3445 8.05682C34.3573 7.38163 35.5634 7.04403 36.9628 7.04403C38.3621 7.04403 39.5655 7.38163 40.5728 8.05682C41.5856 8.73201 42.3643 9.71212 42.9088 10.9972C43.4533 12.2768 43.7228 13.8286 43.7174 15.6527C43.7174 17.4877 43.4451 19.0559 42.9006 20.3572C42.3616 21.6586 41.5883 22.6523 40.581 23.3384C39.5737 24.0245 38.3676 24.3675 36.9628 24.3675ZM36.9628 21.4354C37.9211 21.4354 38.6861 20.9535 39.2579 19.9897C39.8296 19.0259 40.1127 17.5803 40.1073 15.6527C40.1073 14.384 39.9766 13.3277 39.7152 12.4837C39.4593 11.6397 39.0945 11.0053 38.6208 10.5806C38.1525 10.1559 37.5998 9.94354 36.9628 9.94354C36.0099 9.94354 35.2476 10.42 34.6758 11.3729C34.1041 12.3258 33.8155 13.7524 33.8101 15.6527C33.8101 16.9377 33.938 18.0104 34.1939 18.8707C34.4553 19.7256 34.8228 20.3681 35.2966 20.7983C35.7703 21.223 36.3257 21.4354 36.9628 21.4354ZM46.4515 24L53.3858 10.2784V10.1641H45.308V7.27273H57.0449V10.2049L50.1024 24H46.4515Z" fill="#FABC2C"/>
</g>
<defs>
<clipPath id="clip0_311_572">
<rect width="72" height="32" fill="white"/>
</clipPath>
</defs>
</svg>
