<svg width="72" height="32" viewBox="0 0 72 32" fill="none" xmlns="http://www.w3.org/2000/svg">
<rect opacity="0.2" width="72" height="32" rx="5" fill="#FABC2C"/>
<path d="M20.4376 24.2287C19.2179 24.2287 18.1316 24.0191 17.1788 23.5998C16.2313 23.1751 15.4826 22.5924 14.9327 21.8519C14.3882 21.1059 14.1077 20.2456 14.0914 19.271H17.6525C17.6743 19.6793 17.8077 20.0387 18.0527 20.3491C18.3032 20.654 18.6353 20.8909 19.0491 21.0597C19.463 21.2285 19.9285 21.3129 20.4458 21.3129C20.9849 21.3129 21.4613 21.2176 21.8751 21.027C22.289 20.8364 22.6129 20.5723 22.8471 20.2347C23.0812 19.8971 23.1983 19.5078 23.1983 19.0668C23.1983 18.6203 23.0731 18.2255 22.8226 17.8825C22.5775 17.534 22.2236 17.2617 21.7608 17.0657C21.3034 16.8697 20.7589 16.7717 20.1273 16.7717H18.5672V14.1744H20.1273C20.6609 14.1744 21.1319 14.0818 21.5403 13.8967C21.9541 13.7115 22.2753 13.4556 22.504 13.1289C22.7327 12.7968 22.8471 12.4102 22.8471 11.9691C22.8471 11.5498 22.7463 11.1823 22.5449 10.8665C22.3489 10.5452 22.0712 10.2947 21.7118 10.1151C21.3579 9.93537 20.944 9.84553 20.4703 9.84553C19.9911 9.84553 19.5528 9.93265 19.1553 10.1069C18.7578 10.2757 18.4393 10.518 18.1997 10.8338C17.9601 11.1496 17.8322 11.5199 17.8158 11.9446H14.4263C14.4426 10.9808 14.7176 10.1314 15.2512 9.39631C15.7848 8.66122 16.5036 8.08677 17.4074 7.67294C18.3168 7.25367 19.3432 7.04403 20.4866 7.04403C21.641 7.04403 22.6511 7.25367 23.5168 7.67294C24.3826 8.09221 25.0551 8.6585 25.5342 9.3718C26.0188 10.0797 26.2584 10.8746 26.253 11.7567C26.2584 12.6933 25.9671 13.4747 25.379 14.1009C24.7964 14.727 24.0368 15.1245 23.1003 15.2933V15.424C24.3309 15.5819 25.2674 16.0094 25.9099 16.7063C26.5579 17.3978 26.8792 18.2636 26.8737 19.3036C26.8792 20.2565 26.6042 21.1032 26.0488 21.8438C25.4988 22.5843 24.7392 23.1669 23.77 23.5916C22.8008 24.0163 21.69 24.2287 20.4376 24.2287ZM35.9745 24.3675C34.5696 24.3621 33.3608 24.0163 32.3481 23.3303C31.3407 22.6442 30.5648 21.6504 30.0203 20.3491C29.4812 19.0477 29.2144 17.4822 29.2199 15.6527C29.2199 13.8286 29.4894 12.274 30.0285 10.989C30.573 9.70395 31.3489 8.72656 32.3562 8.05682C33.369 7.38163 34.5751 7.04403 35.9745 7.04403C37.3739 7.04403 38.5772 7.38163 39.5846 8.05682C40.5973 8.73201 41.376 9.71212 41.9205 10.9972C42.465 12.2768 42.7345 13.8286 42.7291 15.6527C42.7291 17.4877 42.4568 19.0559 41.9123 20.3572C41.3733 21.6586 40.6001 22.6523 39.5927 23.3384C38.5854 24.0245 37.3793 24.3675 35.9745 24.3675ZM35.9745 21.4354C36.9328 21.4354 37.6978 20.9535 38.2696 19.9897C38.8413 19.0259 39.1245 17.5803 39.119 15.6527C39.119 14.384 38.9883 13.3277 38.727 12.4837C38.471 11.6397 38.1062 11.0053 37.6325 10.5806C37.1642 10.1559 36.6116 9.94354 35.9745 9.94354C35.0216 9.94354 34.2593 10.42 33.6875 11.3729C33.1158 12.3258 32.8272 13.7524 32.8218 15.6527C32.8218 16.9377 32.9497 18.0104 33.2057 18.8707C33.467 19.7256 33.8346 20.3681 34.3083 20.7983C34.782 21.223 35.3374 21.4354 35.9745 21.4354ZM51.4909 24.2287C50.2331 24.2287 49.1141 24.0245 48.134 23.6161C47.1593 23.2023 46.3943 22.6387 45.8389 21.9254C45.2835 21.2121 45.0058 20.4035 45.0058 19.4996C45.0058 18.8027 45.1637 18.1629 45.4795 17.5803C45.8008 16.9922 46.2364 16.5049 46.7864 16.1183C47.3363 15.7262 47.9516 15.4757 48.6322 15.3668V15.2525C47.7392 15.0728 47.015 14.6399 46.4597 13.9538C45.9043 13.2623 45.6266 12.4592 45.6266 11.5444C45.6266 10.6786 45.8797 9.90814 46.3861 9.23295C46.8925 8.55232 47.5868 8.0187 48.4689 7.6321C49.3564 7.24006 50.3638 7.04403 51.4909 7.04403C52.618 7.04403 53.6226 7.24006 54.5047 7.6321C55.3923 8.02415 56.0893 8.56049 56.5957 9.24112C57.1021 9.91631 57.358 10.6841 57.3634 11.5444C57.358 12.4646 57.0748 13.2678 56.514 13.9538C55.9531 14.6399 55.2344 15.0728 54.3577 15.2525V15.3668C55.0275 15.4757 55.6346 15.7262 56.1791 16.1183C56.7291 16.5049 57.1647 16.9922 57.4859 17.5803C57.8126 18.1629 57.9787 18.8027 57.9842 19.4996C57.9787 20.4035 57.6983 21.2121 57.1429 21.9254C56.5875 22.6387 55.8197 23.2023 54.8396 23.6161C53.865 24.0245 52.7487 24.2287 51.4909 24.2287ZM51.4909 21.6314C52.0517 21.6314 52.5418 21.5307 52.9611 21.3292C53.3803 21.1223 53.707 20.8391 53.9412 20.4798C54.1808 20.1149 54.3006 19.6957 54.3006 19.2219C54.3006 18.7373 54.178 18.3099 53.933 17.9396C53.688 17.5639 53.3558 17.2699 52.9366 17.0575C52.5173 16.8397 52.0354 16.7308 51.4909 16.7308C50.9518 16.7308 50.4699 16.8397 50.0452 17.0575C49.6205 17.2699 49.2856 17.5639 49.0406 17.9396C48.801 18.3099 48.6812 18.7373 48.6812 19.2219C48.6812 19.6957 48.7983 20.1149 49.0324 20.4798C49.2666 20.8391 49.596 21.1223 50.0207 21.3292C50.4454 21.5307 50.9355 21.6314 51.4909 21.6314ZM51.4909 14.158C51.9592 14.158 52.3757 14.0627 52.7405 13.8722C53.1054 13.6816 53.3912 13.4175 53.5981 13.0799C53.8051 12.7423 53.9085 12.353 53.9085 11.9119C53.9085 11.4763 53.8051 11.0952 53.5981 10.7685C53.3912 10.4363 53.1081 10.1777 52.7487 9.99254C52.3893 9.80196 51.9701 9.70668 51.4909 9.70668C51.0172 9.70668 50.5979 9.80196 50.2331 9.99254C49.8683 10.1777 49.5824 10.4363 49.3755 10.7685C49.174 11.0952 49.0733 11.4763 49.0733 11.9119C49.0733 12.353 49.1767 12.7423 49.3837 13.0799C49.5906 13.4175 49.8764 13.6816 50.2413 13.8722C50.6061 14.0627 51.0226 14.158 51.4909 14.158Z" fill="#FABC2C"/>
</svg>
