<svg width="72" height="32" viewBox="0 0 72 32" fill="none" xmlns="http://www.w3.org/2000/svg">
<g clip-path="url(#clip0_311_512)">
<rect opacity="0.2" width="72" height="32" rx="5" fill="#FC5D20"/>
<path d="M13.4737 21.0597V18.2745L20.457 7.27273H22.8583V11.1278H21.4371L17.0348 18.0948V18.2255H26.9585V21.0597H13.4737ZM21.5025 24V20.2102L21.5678 18.9769V7.27273H24.8839V24H21.5025ZM35.8734 24.3675C34.4686 24.3621 33.2598 24.0163 32.247 23.3303C31.2396 22.6442 30.4637 21.6504 29.9192 20.3491C29.3801 19.0477 29.1133 17.4822 29.1188 15.6527C29.1188 13.8286 29.3883 12.274 29.9274 10.989C30.4719 9.70395 31.2478 8.72656 32.2551 8.05682C33.2679 7.38163 34.474 7.04403 35.8734 7.04403C37.2728 7.04403 38.4761 7.38163 39.4835 8.05682C40.4963 8.73201 41.2749 9.71212 41.8194 10.9972C42.3639 12.2768 42.6335 13.8286 42.628 15.6527C42.628 17.4877 42.3558 19.0559 41.8113 20.3572C41.2722 21.6586 40.499 22.6523 39.4917 23.3384C38.4843 24.0245 37.2782 24.3675 35.8734 24.3675ZM35.8734 21.4354C36.8317 21.4354 37.5968 20.9535 38.1685 19.9897C38.7402 19.0259 39.0234 17.5803 39.0179 15.6527C39.0179 14.384 38.8873 13.3277 38.6259 12.4837C38.37 11.6397 38.0051 11.0053 37.5314 10.5806C37.0632 10.1559 36.5105 9.94354 35.8734 9.94354C34.9205 9.94354 34.1582 10.42 33.5865 11.3729C33.0147 12.3258 32.7261 13.7524 32.7207 15.6527C32.7207 16.9377 32.8487 18.0104 33.1046 18.8707C33.3659 19.7256 33.7335 20.3681 34.2072 20.7983C34.6809 21.223 35.2363 21.4354 35.8734 21.4354ZM51.7084 24.3675C50.3035 24.3621 49.0947 24.0163 48.0819 23.3303C47.0746 22.6442 46.2987 21.6504 45.7542 20.3491C45.2151 19.0477 44.9483 17.4822 44.9537 15.6527C44.9537 13.8286 45.2233 12.274 45.7623 10.989C46.3068 9.70395 47.0828 8.72656 48.0901 8.05682C49.1029 7.38163 50.309 7.04403 51.7084 7.04403C53.1077 7.04403 54.3111 7.38163 55.3184 8.05682C56.3312 8.73201 57.1099 9.71212 57.6544 10.9972C58.1989 12.2768 58.4684 13.8286 58.463 15.6527C58.463 17.4877 58.1907 19.0559 57.6462 20.3572C57.1072 21.6586 56.334 22.6523 55.3266 23.3384C54.3193 24.0245 53.1132 24.3675 51.7084 24.3675ZM51.7084 21.4354C52.6667 21.4354 53.4317 20.9535 54.0035 19.9897C54.5752 19.0259 54.8583 17.5803 54.8529 15.6527C54.8529 14.384 54.7222 13.3277 54.4608 12.4837C54.2049 11.6397 53.8401 11.0053 53.3664 10.5806C52.8981 10.1559 52.3454 9.94354 51.7084 9.94354C50.7555 9.94354 49.9932 10.42 49.4214 11.3729C48.8497 12.3258 48.5611 13.7524 48.5557 15.6527C48.5557 16.9377 48.6836 18.0104 48.9395 18.8707C49.2009 19.7256 49.5684 20.3681 50.0422 20.7983C50.5159 21.223 51.0713 21.4354 51.7084 21.4354Z" fill="#FC5D20"/>
</g>
<defs>
<clipPath id="clip0_311_512">
<rect width="72" height="32" fill="white"/>
</clipPath>
</defs>
</svg>
