<svg width="72" height="32" viewBox="0 0 72 32" fill="none" xmlns="http://www.w3.org/2000/svg">
<g clip-path="url(#clip0_311_452)">
<rect opacity="0.2" width="72" height="32" rx="5" fill="#FC5D20"/>
<path d="M15.7647 21.0597V18.2745L22.748 7.27273H25.1493V11.1278H23.7282L19.3258 18.0948V18.2255H29.2495V21.0597H15.7647ZM23.7935 24V20.2102L23.8588 18.9769V7.27273H27.1749V24H23.7935ZM38.1644 24.3675C36.7596 24.3621 35.5508 24.0163 34.538 23.3303C33.5307 22.6442 32.7547 21.6504 32.2102 20.3491C31.6712 19.0477 31.4044 17.4822 31.4098 15.6527C31.4098 13.8286 31.6793 12.274 32.2184 10.989C32.7629 9.70395 33.5388 8.72656 34.5462 8.05682C35.5589 7.38163 36.765 7.04403 38.1644 7.04403C39.5638 7.04403 40.7672 7.38163 41.7745 8.05682C42.7873 8.73201 43.5659 9.71212 44.1104 10.9972C44.6549 12.2768 44.9245 13.8286 44.919 15.6527C44.919 17.4877 44.6468 19.0559 44.1023 20.3572C43.5632 21.6586 42.79 22.6523 41.7827 23.3384C40.7753 24.0245 39.5692 24.3675 38.1644 24.3675ZM38.1644 21.4354C39.1228 21.4354 39.8878 20.9535 40.4595 19.9897C41.0313 19.0259 41.3144 17.5803 41.3089 15.6527C41.3089 14.384 41.1783 13.3277 40.9169 12.4837C40.661 11.6397 40.2962 11.0053 39.8224 10.5806C39.3542 10.1559 38.8015 9.94354 38.1644 9.94354C37.2115 9.94354 36.4492 10.42 35.8775 11.3729C35.3058 12.3258 35.0172 13.7524 35.0117 15.6527C35.0117 16.9377 35.1397 18.0104 35.3956 18.8707C35.657 19.7256 36.0245 20.3681 36.4982 20.7983C36.9719 21.223 37.5273 21.4354 38.1644 21.4354ZM54.7181 7.27273V24H51.1816V10.6296H51.0835L47.2529 13.0309V9.89453L51.3939 7.27273H54.7181Z" fill="#FC5D20"/>
</g>
<defs>
<clipPath id="clip0_311_452">
<rect width="72" height="32" fill="white"/>
</clipPath>
</defs>
</svg>
