<svg width="72" height="32" viewBox="0 0 72 32" fill="none" xmlns="http://www.w3.org/2000/svg">
<g clip-path="url(#clip0_311_467)">
<rect opacity="0.2" width="72" height="32" rx="5" fill="#FC5D20"/>
<path d="M13.8106 21.0597V18.2745L20.7939 7.27273H23.1952V11.1278H21.7741L17.3717 18.0948V18.2255H27.2954V21.0597H13.8106ZM21.8394 24V20.2102L21.9047 18.9769V7.27273H25.2208V24H21.8394ZM36.2103 24.3675C34.8055 24.3621 33.5967 24.0163 32.5839 23.3303C31.5766 22.6442 30.8006 21.6504 30.2561 20.3491C29.7171 19.0477 29.4503 17.4822 29.4557 15.6527C29.4557 13.8286 29.7252 12.274 30.2643 10.989C30.8088 9.70395 31.5847 8.72656 32.5921 8.05682C33.6048 7.38163 34.8109 7.04403 36.2103 7.04403C37.6097 7.04403 38.8131 7.38163 39.8204 8.05682C40.8332 8.73201 41.6118 9.71212 42.1563 10.9972C42.7008 12.2768 42.9704 13.8286 42.9649 15.6527C42.9649 17.4877 42.6927 19.0559 42.1482 20.3572C41.6091 21.6586 40.8359 22.6523 39.8286 23.3384C38.8212 24.0245 37.6151 24.3675 36.2103 24.3675ZM36.2103 21.4354C37.1686 21.4354 37.9337 20.9535 38.5054 19.9897C39.0771 19.0259 39.3603 17.5803 39.3548 15.6527C39.3548 14.384 39.2242 13.3277 38.9628 12.4837C38.7069 11.6397 38.3421 11.0053 37.8683 10.5806C37.4001 10.1559 36.8474 9.94354 36.2103 9.94354C35.2574 9.94354 34.4951 10.42 33.9234 11.3729C33.3517 12.3258 33.0631 13.7524 33.0576 15.6527C33.0576 16.9377 33.1856 18.0104 33.4415 18.8707C33.7029 19.7256 34.0704 20.3681 34.5441 20.7983C35.0178 21.223 35.5732 21.4354 36.2103 21.4354ZM51.6696 24.2287C50.4499 24.2287 49.3636 24.0191 48.4107 23.5998C47.4632 23.1751 46.7145 22.5924 46.1646 21.8519C45.6201 21.1059 45.3397 20.2456 45.3233 19.271H48.8844C48.9062 19.6793 49.0396 20.0387 49.2846 20.3491C49.5351 20.654 49.8672 20.8909 50.2811 21.0597C50.6949 21.2285 51.1605 21.3129 51.6777 21.3129C52.2168 21.3129 52.6932 21.2176 53.1071 21.027C53.5209 20.8364 53.8449 20.5723 54.079 20.2347C54.3132 19.8971 54.4302 19.5078 54.4302 19.0668C54.4302 18.6203 54.305 18.2255 54.0545 17.8825C53.8095 17.534 53.4556 17.2617 52.9927 17.0657C52.5353 16.8697 51.9908 16.7717 51.3592 16.7717H49.7992V14.1744H51.3592C51.8928 14.1744 52.3638 14.0818 52.7722 13.8967C53.186 13.7115 53.5073 13.4556 53.736 13.1289C53.9647 12.7968 54.079 12.4102 54.079 11.9691C54.079 11.5498 53.9783 11.1823 53.7768 10.8665C53.5808 10.5452 53.3031 10.2947 52.9437 10.1151C52.5898 9.93537 52.176 9.84553 51.7022 9.84553C51.2231 9.84553 50.7847 9.93265 50.3873 10.1069C49.9898 10.2757 49.6712 10.518 49.4316 10.8338C49.1921 11.1496 49.0641 11.5199 49.0478 11.9446H45.6582C45.6745 10.9808 45.9495 10.1314 46.4831 9.39631C47.0167 8.66122 47.7355 8.08677 48.6394 7.67294C49.5487 7.25367 50.5751 7.04403 51.7186 7.04403C52.8729 7.04403 53.883 7.25367 54.7488 7.67294C55.6145 8.09221 56.287 8.6585 56.7662 9.3718C57.2508 10.0797 57.4904 10.8746 57.4849 11.7567C57.4904 12.6933 57.199 13.4747 56.611 14.1009C56.0284 14.727 55.2688 15.1245 54.3322 15.2933V15.424C55.5628 15.5819 56.4993 16.0094 57.1419 16.7063C57.7898 17.3978 58.1111 18.2636 58.1056 19.3036C58.1111 20.2565 57.8361 21.1032 57.2807 21.8438C56.7308 22.5843 55.9712 23.1669 55.002 23.5916C54.0327 24.0163 52.9219 24.2287 51.6696 24.2287Z" fill="#FC5D20"/>
</g>
<defs>
<clipPath id="clip0_311_467">
<rect width="72" height="32" fill="white"/>
</clipPath>
</defs>
</svg>
