<svg width="72" height="32" viewBox="0 0 72 32" fill="none" xmlns="http://www.w3.org/2000/svg">
<g clip-path="url(#clip0_311_482)">
<rect opacity="0.2" width="72" height="32" rx="5" fill="#FC5D20"/>
<path d="M13.5973 21.0597V18.2745L20.5806 7.27273H22.9818V11.1278H21.5607L17.1583 18.0948V18.2255H27.082V21.0597H13.5973ZM21.626 24V20.2102L21.6914 18.9769V7.27273H25.0074V24H21.626ZM35.9969 24.3675C34.5921 24.3621 33.3833 24.0163 32.3705 23.3303C31.3632 22.6442 30.5873 21.6504 30.0427 20.3491C29.5037 19.0477 29.2369 17.4822 29.2423 15.6527C29.2423 13.8286 29.5119 12.274 30.0509 10.989C30.5954 9.70395 31.3713 8.72656 32.3787 8.05682C33.3915 7.38163 34.5976 7.04403 35.9969 7.04403C37.3963 7.04403 38.5997 7.38163 39.607 8.05682C40.6198 8.73201 41.3985 9.71212 41.943 10.9972C42.4875 12.2768 42.757 13.8286 42.7516 15.6527C42.7516 17.4877 42.4793 19.0559 41.9348 20.3572C41.3957 21.6586 40.6225 22.6523 39.6152 23.3384C38.6079 24.0245 37.4018 24.3675 35.9969 24.3675ZM35.9969 21.4354C36.9553 21.4354 37.7203 20.9535 38.292 19.9897C38.8638 19.0259 39.1469 17.5803 39.1415 15.6527C39.1415 14.384 39.0108 13.3277 38.7494 12.4837C38.4935 11.6397 38.1287 11.0053 37.655 10.5806C37.1867 10.1559 36.634 9.94354 35.9969 9.94354C35.044 9.94354 34.2817 10.42 33.71 11.3729C33.1383 12.3258 32.8497 13.7524 32.8442 15.6527C32.8442 16.9377 32.9722 18.0104 33.2281 18.8707C33.4895 19.7256 33.857 20.3681 34.3307 20.7983C34.8045 21.223 35.3599 21.4354 35.9969 21.4354ZM45.0201 21.0597V18.2745L52.0034 7.27273H54.4047V11.1278H52.9835L48.5812 18.0948V18.2255H58.5048V21.0597H45.0201ZM53.0489 24V20.2102L53.1142 18.9769V7.27273H56.4303V24H53.0489Z" fill="#FC5D20"/>
</g>
<defs>
<clipPath id="clip0_311_482">
<rect width="72" height="32" fill="white"/>
</clipPath>
</defs>
</svg>
