<svg width="72" height="32" viewBox="0 0 72 32" fill="none" xmlns="http://www.w3.org/2000/svg">
<g clip-path="url(#clip0_311_497)">
<rect opacity="0.2" width="72" height="32" rx="5" fill="#FC5D20"/>
<path d="M13.7994 21.0597V18.2745L20.7827 7.27273H23.184V11.1278H21.7628L17.3605 18.0948V18.2255H27.2841V21.0597H13.7994ZM21.8282 24V20.2102L21.8935 18.9769V7.27273H25.2096V24H21.8282ZM36.1991 24.3675C34.7943 24.3621 33.5854 24.0163 32.5727 23.3303C31.5653 22.6442 30.7894 21.6504 30.2449 20.3491C29.7058 19.0477 29.439 17.4822 29.4445 15.6527C29.4445 13.8286 29.714 12.274 30.2531 10.989C30.7976 9.70395 31.5735 8.72656 32.5808 8.05682C33.5936 7.38163 34.7997 7.04403 36.1991 7.04403C37.5985 7.04403 38.8018 7.38163 39.8092 8.05682C40.822 8.73201 41.6006 9.71212 42.1451 10.9972C42.6896 12.2768 42.9591 13.8286 42.9537 15.6527C42.9537 17.4877 42.6814 19.0559 42.1369 20.3572C41.5979 21.6586 40.8247 22.6523 39.8173 23.3384C38.81 24.0245 37.6039 24.3675 36.1991 24.3675ZM36.1991 21.4354C37.1574 21.4354 37.9225 20.9535 38.4942 19.9897C39.0659 19.0259 39.3491 17.5803 39.3436 15.6527C39.3436 14.384 39.2129 13.3277 38.9516 12.4837C38.6957 11.6397 38.3308 11.0053 37.8571 10.5806C37.3888 10.1559 36.8362 9.94354 36.1991 9.94354C35.2462 9.94354 34.4839 10.42 33.9122 11.3729C33.3404 12.3258 33.0518 13.7524 33.0464 15.6527C33.0464 16.9377 33.1743 18.0104 33.4303 18.8707C33.6916 19.7256 34.0592 20.3681 34.5329 20.7983C35.0066 21.223 35.562 21.4354 36.1991 21.4354ZM51.5277 7.04403C52.388 7.04403 53.2156 7.18833 54.0106 7.47692C54.811 7.76551 55.5243 8.22562 56.1505 8.85724C56.7822 9.48887 57.2804 10.3274 57.6452 11.3729C58.0155 12.4129 58.2033 13.6897 58.2088 15.2035C58.2088 16.6246 58.0481 17.8933 57.7269 19.0096C57.4111 20.1204 56.9564 21.0651 56.3629 21.8438C55.7694 22.6224 55.0533 23.2159 54.2148 23.6243C53.3763 24.0272 52.4397 24.2287 51.4051 24.2287C50.2889 24.2287 49.3033 24.0136 48.4485 23.5835C47.5936 23.1478 46.9048 22.5571 46.3821 21.8111C45.8648 21.0597 45.5517 20.2157 45.4428 19.2791H48.9304C49.0665 19.889 49.3523 20.3627 49.788 20.7003C50.2236 21.0324 50.7626 21.1985 51.4051 21.1985C52.4942 21.1985 53.3218 20.7248 53.8881 19.7773C54.4544 18.8245 54.7402 17.5204 54.7457 15.8651H54.6313C54.3809 16.3551 54.0433 16.7771 53.6186 17.131C53.1938 17.4795 52.7065 17.7491 52.1566 17.9396C51.6121 18.1302 51.0322 18.2255 50.4169 18.2255C49.4313 18.2255 48.5519 17.9941 47.7787 17.5312C47.0055 17.0684 46.3957 16.4313 45.9492 15.62C45.5027 14.8087 45.2794 13.883 45.2794 12.843C45.274 11.7214 45.5326 10.7222 46.0554 9.84553C46.5781 8.96887 47.3077 8.28279 48.2443 7.78729C49.1863 7.28634 50.2807 7.03859 51.5277 7.04403ZM51.5522 9.82102C51.0022 9.82102 50.5121 9.9517 50.082 10.2131C49.6573 10.4744 49.3197 10.8256 49.0692 11.2667C48.8242 11.7077 48.7044 12.2005 48.7098 12.745C48.7098 13.295 48.8296 13.7905 49.0692 14.2315C49.3142 14.6671 49.6464 15.0156 50.0657 15.277C50.4904 15.5329 50.975 15.6609 51.5195 15.6609C51.9279 15.6609 52.3063 15.5846 52.6548 15.4322C53.0033 15.2797 53.3055 15.0701 53.5614 14.8033C53.8228 14.531 54.0269 14.2179 54.174 13.864C54.321 13.5101 54.3945 13.1344 54.3945 12.7369C54.389 12.2087 54.2638 11.7241 54.0188 11.283C53.7737 10.842 53.4362 10.488 53.006 10.2212C52.5758 9.95443 52.0912 9.82102 51.5522 9.82102Z" fill="#FC5D20"/>
</g>
<defs>
<clipPath id="clip0_311_497">
<rect width="72" height="32" fill="white"/>
</clipPath>
</defs>
</svg>
