<svg width="72" height="32" viewBox="0 0 72 32" fill="none" xmlns="http://www.w3.org/2000/svg">
<g clip-path="url(#clip0_311_649)">
<rect opacity="0.2" width="72" height="32" rx="5" fill="#EE4549"/>
<path d="M20.2181 24.2287C19.0638 24.2287 18.0347 24.0163 17.1308 23.5916C16.2323 23.1669 15.519 22.5816 14.9909 21.8356C14.4627 21.0896 14.1877 20.2347 14.1659 19.271H17.5963C17.6344 19.9189 17.9067 20.4444 18.4131 20.8473C18.9195 21.2502 19.5212 21.4517 20.2181 21.4517C20.7735 21.4517 21.2636 21.3292 21.6883 21.0842C22.1185 20.8337 22.4533 20.4879 22.6929 20.0469C22.9379 19.6004 23.0605 19.0885 23.0605 18.5114C23.0605 17.9233 22.9352 17.406 22.6847 16.9595C22.4397 16.513 22.0994 16.1645 21.6638 15.9141C21.2282 15.6636 20.73 15.5356 20.1691 15.5302C19.6791 15.5302 19.2026 15.6309 18.7398 15.8324C18.2824 16.0339 17.9258 16.3088 17.6698 16.6573L14.5253 16.0938L15.3176 7.27273H25.5434V10.1641H18.2334L17.8005 14.354H17.8985C18.1926 13.9402 18.6363 13.5972 19.2298 13.3249C19.8234 13.0527 20.4877 12.9165 21.2227 12.9165C22.2301 12.9165 23.1285 13.1534 23.9181 13.6271C24.7076 14.1009 25.3311 14.7515 25.7884 15.5792C26.2458 16.4014 26.4718 17.3488 26.4664 18.4215C26.4718 19.5487 26.2104 20.5505 25.6823 21.4272C25.1595 22.2984 24.4272 22.9845 23.4852 23.4854C22.5486 23.9809 21.4596 24.2287 20.2181 24.2287ZM35.4916 24.3675C34.0867 24.3621 32.8779 24.0163 31.8651 23.3303C30.8578 22.6442 30.0819 21.6504 29.5374 20.3491C28.9983 19.0477 28.7315 17.4822 28.7369 15.6527C28.7369 13.8286 29.0065 12.274 29.5455 10.989C30.0901 9.70395 30.866 8.72656 31.8733 8.05682C32.8861 7.38163 34.0922 7.04403 35.4916 7.04403C36.891 7.04403 38.0943 7.38163 39.1017 8.05682C40.1144 8.73201 40.8931 9.71212 41.4376 10.9972C41.9821 12.2768 42.2516 13.8286 42.2462 15.6527C42.2462 17.4877 41.9739 19.0559 41.4294 20.3572C40.8904 21.6586 40.1172 22.6523 39.1098 23.3384C38.1025 24.0245 36.8964 24.3675 35.4916 24.3675ZM35.4916 21.4354C36.4499 21.4354 37.2149 20.9535 37.7867 19.9897C38.3584 19.0259 38.6415 17.5803 38.6361 15.6527C38.6361 14.384 38.5054 13.3277 38.2441 12.4837C37.9881 11.6397 37.6233 11.0053 37.1496 10.5806C36.6813 10.1559 36.1286 9.94354 35.4916 9.94354C34.5387 9.94354 33.7764 10.42 33.2046 11.3729C32.6329 12.3258 32.3443 13.7524 32.3389 15.6527C32.3389 16.9377 32.4668 18.0104 32.7227 18.8707C32.9841 19.7256 33.3517 20.3681 33.8254 20.7983C34.2991 21.223 34.8545 21.4354 35.4916 21.4354ZM51.3265 24.3675C49.9217 24.3621 48.7129 24.0163 47.7001 23.3303C46.6928 22.6442 45.9168 21.6504 45.3723 20.3491C44.8333 19.0477 44.5665 17.4822 44.5719 15.6527C44.5719 13.8286 44.8414 12.274 45.3805 10.989C45.925 9.70395 46.7009 8.72656 47.7083 8.05682C48.7211 7.38163 49.9271 7.04403 51.3265 7.04403C52.7259 7.04403 53.9293 7.38163 54.9366 8.05682C55.9494 8.73201 56.728 9.71212 57.2726 10.9972C57.8171 12.2768 58.0866 13.8286 58.0811 15.6527C58.0811 17.4877 57.8089 19.0559 57.2644 20.3572C56.7253 21.6586 55.9521 22.6523 54.9448 23.3384C53.9374 24.0245 52.7314 24.3675 51.3265 24.3675ZM51.3265 21.4354C52.2849 21.4354 53.0499 20.9535 53.6216 19.9897C54.1934 19.0259 54.4765 17.5803 54.4711 15.6527C54.4711 14.384 54.3404 13.3277 54.079 12.4837C53.8231 11.6397 53.4583 11.0053 52.9846 10.5806C52.5163 10.1559 51.9636 9.94354 51.3265 9.94354C50.3736 9.94354 49.6113 10.42 49.0396 11.3729C48.4679 12.3258 48.1793 13.7524 48.1738 15.6527C48.1738 16.9377 48.3018 18.0104 48.5577 18.8707C48.8191 19.7256 49.1866 20.3681 49.6603 20.7983C50.1341 21.223 50.6895 21.4354 51.3265 21.4354Z" fill="#EE4549"/>
</g>
<defs>
<clipPath id="clip0_311_649">
<rect width="72" height="32" fill="white"/>
</clipPath>
</defs>
</svg>
