<svg width="72" height="32" viewBox="0 0 72 32" fill="none" xmlns="http://www.w3.org/2000/svg">
<g clip-path="url(#clip0_311_650)">
<rect opacity="0.2" width="72" height="32" rx="5" fill="#EE4549"/>
<path d="M22.5091 24.2287C21.3548 24.2287 20.3257 24.0163 19.4218 23.5916C18.5233 23.1669 17.81 22.5816 17.2819 21.8356C16.7537 21.0896 16.4787 20.2347 16.4569 19.271H19.8873C19.9255 19.9189 20.1977 20.4444 20.7041 20.8473C21.2105 21.2502 21.8122 21.4517 22.5091 21.4517C23.0645 21.4517 23.5546 21.3292 23.9793 21.0842C24.4095 20.8337 24.7443 20.4879 24.9839 20.0469C25.229 19.6004 25.3515 19.0885 25.3515 18.5114C25.3515 17.9233 25.2262 17.406 24.9758 16.9595C24.7307 16.513 24.3904 16.1645 23.9548 15.9141C23.5192 15.6636 23.021 15.5356 22.4601 15.5302C21.9701 15.5302 21.4936 15.6309 21.0308 15.8324C20.5734 16.0339 20.2168 16.3088 19.9608 16.6573L16.8163 16.0938L17.6086 7.27273H27.8344V10.1641H20.5244L20.0915 14.354H20.1895C20.4836 13.9402 20.9273 13.5972 21.5209 13.3249C22.1144 13.0527 22.7787 12.9165 23.5138 12.9165C24.5211 12.9165 25.4195 13.1534 26.2091 13.6271C26.9986 14.1009 27.6221 14.7515 28.0795 15.5792C28.5368 16.4014 28.7628 17.3488 28.7574 18.4215C28.7628 19.5487 28.5015 20.5505 27.9733 21.4272C27.4506 22.2984 26.7182 22.9845 25.7762 23.4854C24.8396 23.9809 23.7506 24.2287 22.5091 24.2287ZM37.7826 24.3675C36.3778 24.3621 35.1689 24.0163 34.1562 23.3303C33.1488 22.6442 32.3729 21.6504 31.8284 20.3491C31.2893 19.0477 31.0225 17.4822 31.028 15.6527C31.028 13.8286 31.2975 12.274 31.8366 10.989C32.3811 9.70395 33.157 8.72656 34.1643 8.05682C35.1771 7.38163 36.3832 7.04403 37.7826 7.04403C39.182 7.04403 40.3853 7.38163 41.3927 8.05682C42.4055 8.73201 43.1841 9.71212 43.7286 10.9972C44.2731 12.2768 44.5426 13.8286 44.5372 15.6527C44.5372 17.4877 44.2649 19.0559 43.7204 20.3572C43.1814 21.6586 42.4082 22.6523 41.4008 23.3384C40.3935 24.0245 39.1874 24.3675 37.7826 24.3675ZM37.7826 21.4354C38.7409 21.4354 39.5059 20.9535 40.0777 19.9897C40.6494 19.0259 40.9326 17.5803 40.9271 15.6527C40.9271 14.384 40.7964 13.3277 40.5351 12.4837C40.2791 11.6397 39.9143 11.0053 39.4406 10.5806C38.9723 10.1559 38.4197 9.94354 37.7826 9.94354C36.8297 9.94354 36.0674 10.42 35.4956 11.3729C34.9239 12.3258 34.6353 13.7524 34.6299 15.6527C34.6299 16.9377 34.7578 18.0104 35.0138 18.8707C35.2751 19.7256 35.6427 20.3681 36.1164 20.7983C36.5901 21.223 37.1455 21.4354 37.7826 21.4354ZM54.3363 7.27273V24H50.7997V10.6296H50.7017L46.8711 13.0309V9.89453L51.0121 7.27273H54.3363Z" fill="#EE4549"/>
</g>
<defs>
<clipPath id="clip0_311_650">
<rect width="72" height="32" fill="white"/>
</clipPath>
</defs>
</svg>
