<svg width="72" height="32" viewBox="0 0 72 32" fill="none" xmlns="http://www.w3.org/2000/svg">
<g clip-path="url(#clip0_311_651)">
<rect opacity="0.2" width="72" height="32" rx="5" fill="#EE4549"/>
<path d="M20.892 24.2287C19.7376 24.2287 18.7085 24.0163 17.8046 23.5916C16.9062 23.1669 16.1929 22.5816 15.6647 21.8356C15.1365 21.0896 14.8615 20.2347 14.8398 19.271H18.2702C18.3083 19.9189 18.5805 20.4444 19.0869 20.8473C19.5933 21.2502 20.195 21.4517 20.892 21.4517C21.4474 21.4517 21.9374 21.3292 22.3621 21.0842C22.7923 20.8337 23.1272 20.4879 23.3667 20.0469C23.6118 19.6004 23.7343 19.0885 23.7343 18.5114C23.7343 17.9233 23.609 17.406 23.3586 16.9595C23.1135 16.513 22.7732 16.1645 22.3376 15.9141C21.902 15.6636 21.4038 15.5356 20.843 15.5302C20.3529 15.5302 19.8765 15.6309 19.4136 15.8324C18.9562 16.0339 18.5996 16.3088 18.3437 16.6573L15.1991 16.0938L15.9914 7.27273H26.2172V10.1641H18.9072L18.4743 14.354H18.5724C18.8664 13.9402 19.3102 13.5972 19.9037 13.3249C20.4972 13.0527 21.1615 12.9165 21.8966 12.9165C22.9039 12.9165 23.8023 13.1534 24.5919 13.6271C25.3814 14.1009 26.0049 14.7515 26.4623 15.5792C26.9197 16.4014 27.1456 17.3488 27.1402 18.4215C27.1456 19.5487 26.8843 20.5505 26.3561 21.4272C25.8334 22.2984 25.101 22.9845 24.159 23.4854C23.2224 23.9809 22.1334 24.2287 20.892 24.2287ZM36.1654 24.3675C34.7606 24.3621 33.5518 24.0163 32.539 23.3303C31.5316 22.6442 30.7557 21.6504 30.2112 20.3491C29.6721 19.0477 29.4053 17.4822 29.4108 15.6527C29.4108 13.8286 29.6803 12.274 30.2194 10.989C30.7639 9.70395 31.5398 8.72656 32.5471 8.05682C33.5599 7.38163 34.766 7.04403 36.1654 7.04403C37.5648 7.04403 38.7681 7.38163 39.7755 8.05682C40.7883 8.73201 41.5669 9.71212 42.1114 10.9972C42.6559 12.2768 42.9255 13.8286 42.92 15.6527C42.92 17.4877 42.6478 19.0559 42.1032 20.3572C41.5642 21.6586 40.791 22.6523 39.7836 23.3384C38.7763 24.0245 37.5702 24.3675 36.1654 24.3675ZM36.1654 21.4354C37.1237 21.4354 37.8888 20.9535 38.4605 19.9897C39.0322 19.0259 39.3154 17.5803 39.3099 15.6527C39.3099 14.384 39.1792 13.3277 38.9179 12.4837C38.662 11.6397 38.2971 11.0053 37.8234 10.5806C37.3551 10.1559 36.8025 9.94354 36.1654 9.94354C35.2125 9.94354 34.4502 10.42 33.8785 11.3729C33.3067 12.3258 33.0181 13.7524 33.0127 15.6527C33.0127 16.9377 33.1407 18.0104 33.3966 18.8707C33.6579 19.7256 34.0255 20.3681 34.4992 20.7983C34.9729 21.223 35.5283 21.4354 36.1654 21.4354ZM45.4418 24V21.4517L51.396 15.9386C51.9023 15.4485 52.3271 15.0075 52.6701 14.6154C53.0186 14.2234 53.2827 13.8395 53.4624 13.4638C53.642 13.0826 53.7319 12.6715 53.7319 12.2305C53.7319 11.7404 53.6203 11.3184 53.397 10.9645C53.1738 10.6051 52.8688 10.3301 52.4822 10.1396C52.0956 9.94354 51.6573 9.84553 51.1673 9.84553C50.6554 9.84553 50.2089 9.94898 49.8278 10.1559C49.4466 10.3628 49.1526 10.6596 48.9457 11.0462C48.7388 11.4328 48.6353 11.8929 48.6353 12.4265H45.2784C45.2784 11.332 45.5262 10.3819 46.0217 9.57599C46.5172 8.77012 47.2114 8.14666 48.1044 7.70561C48.9974 7.26456 50.0265 7.04403 51.1918 7.04403C52.3897 7.04403 53.4324 7.25639 54.32 7.68111C55.213 8.10038 55.9072 8.683 56.4027 9.42898C56.8982 10.175 57.146 11.0298 57.146 11.9936C57.146 12.6252 57.0207 13.2487 56.7702 13.864C56.5252 14.4793 56.0869 15.1626 55.4553 15.9141C54.8236 16.66 53.9334 17.5558 52.7844 18.6012L50.3423 20.9943V21.1087H57.3665V24H45.4418Z" fill="#EE4549"/>
</g>
<defs>
<clipPath id="clip0_311_651">
<rect width="72" height="32" fill="white"/>
</clipPath>
</defs>
</svg>
