<svg width="72" height="32" viewBox="0 0 72 32" fill="none" xmlns="http://www.w3.org/2000/svg">
<g clip-path="url(#clip0_311_652)">
<rect opacity="0.2" width="72" height="32" rx="5" fill="#EE4549"/>
<path d="M20.555 24.2287C19.4007 24.2287 18.3716 24.0163 17.4677 23.5916C16.5692 23.1669 15.8559 22.5816 15.3278 21.8356C14.7996 21.0896 14.5246 20.2347 14.5028 19.271H17.9332C17.9714 19.9189 18.2436 20.4444 18.75 20.8473C19.2564 21.2502 19.8581 21.4517 20.555 21.4517C21.1104 21.4517 21.6005 21.3292 22.0252 21.0842C22.4554 20.8337 22.7902 20.4879 23.0298 20.0469C23.2749 19.6004 23.3974 19.0885 23.3974 18.5114C23.3974 17.9233 23.2721 17.406 23.0217 16.9595C22.7766 16.513 22.4363 16.1645 22.0007 15.9141C21.5651 15.6636 21.0669 15.5356 20.506 15.5302C20.016 15.5302 19.5395 15.6309 19.0767 15.8324C18.6193 16.0339 18.2627 16.3088 18.0067 16.6573L14.8622 16.0938L15.6545 7.27273H25.8803V10.1641H18.5703L18.1374 14.354H18.2354C18.5295 13.9402 18.9732 13.5972 19.5668 13.3249C20.1603 13.0527 20.8246 12.9165 21.5597 12.9165C22.567 12.9165 23.4654 13.1534 24.255 13.6271C25.0445 14.1009 25.668 14.7515 26.1254 15.5792C26.5827 16.4014 26.8087 17.3488 26.8033 18.4215C26.8087 19.5487 26.5473 20.5505 26.0192 21.4272C25.4964 22.2984 24.7641 22.9845 23.8221 23.4854C22.8855 23.9809 21.7965 24.2287 20.555 24.2287ZM35.8285 24.3675C34.4237 24.3621 33.2148 24.0163 32.2021 23.3303C31.1947 22.6442 30.4188 21.6504 29.8743 20.3491C29.3352 19.0477 29.0684 17.4822 29.0739 15.6527C29.0739 13.8286 29.3434 12.274 29.8825 10.989C30.427 9.70395 31.2029 8.72656 32.2102 8.05682C33.223 7.38163 34.4291 7.04403 35.8285 7.04403C37.2279 7.04403 38.4312 7.38163 39.4386 8.05682C40.4514 8.73201 41.23 9.71212 41.7745 10.9972C42.319 12.2768 42.5885 13.8286 42.5831 15.6527C42.5831 17.4877 42.3108 19.0559 41.7663 20.3572C41.2273 21.6586 40.4541 22.6523 39.4467 23.3384C38.4394 24.0245 37.2333 24.3675 35.8285 24.3675ZM35.8285 21.4354C36.7868 21.4354 37.5518 20.9535 38.1236 19.9897C38.6953 19.0259 38.9785 17.5803 38.973 15.6527C38.973 14.384 38.8423 13.3277 38.581 12.4837C38.325 11.6397 37.9602 11.0053 37.4865 10.5806C37.0182 10.1559 36.4656 9.94354 35.8285 9.94354C34.8756 9.94354 34.1133 10.42 33.5415 11.3729C32.9698 12.3258 32.6812 13.7524 32.6758 15.6527C32.6758 16.9377 32.8037 18.0104 33.0597 18.8707C33.321 19.7256 33.6886 20.3681 34.1623 20.7983C34.636 21.223 35.1914 21.4354 35.8285 21.4354ZM51.2877 24.2287C50.068 24.2287 48.9817 24.0191 48.0289 23.5998C47.0814 23.1751 46.3327 22.5924 45.7828 21.8519C45.2383 21.1059 44.9578 20.2456 44.9415 19.271H48.5026C48.5244 19.6793 48.6578 20.0387 48.9028 20.3491C49.1533 20.654 49.4854 20.8909 49.8992 21.0597C50.3131 21.2285 50.7786 21.3129 51.2959 21.3129C51.835 21.3129 52.3114 21.2176 52.7252 21.027C53.1391 20.8364 53.463 20.5723 53.6972 20.2347C53.9313 19.8971 54.0484 19.5078 54.0484 19.0668C54.0484 18.6203 53.9231 18.2255 53.6727 17.8825C53.4276 17.534 53.0737 17.2617 52.6109 17.0657C52.1535 16.8697 51.609 16.7717 50.9774 16.7717H49.4173V14.1744H50.9774C51.511 14.1744 51.982 14.0818 52.3904 13.8967C52.8042 13.7115 53.1254 13.4556 53.3541 13.1289C53.5828 12.7968 53.6972 12.4102 53.6972 11.9691C53.6972 11.5498 53.5964 11.1823 53.395 10.8665C53.199 10.5452 52.9213 10.2947 52.5619 10.1151C52.2079 9.93537 51.7941 9.84553 51.3204 9.84553C50.8412 9.84553 50.4029 9.93265 50.0054 10.1069C49.6079 10.2757 49.2894 10.518 49.0498 10.8338C48.8102 11.1496 48.6823 11.5199 48.6659 11.9446H45.2764C45.2927 10.9808 45.5677 10.1314 46.1013 9.39631C46.6349 8.66122 47.3537 8.08677 48.2575 7.67294C49.1669 7.25367 50.1933 7.04403 51.3367 7.04403C52.4911 7.04403 53.5012 7.25367 54.3669 7.67294C55.2327 8.09221 55.9052 8.6585 56.3843 9.3718C56.8689 10.0797 57.1085 10.8746 57.1031 11.7567C57.1085 12.6933 56.8172 13.4747 56.2291 14.1009C55.6465 14.727 54.8869 15.1245 53.9504 15.2933V15.424C55.181 15.5819 56.1175 16.0094 56.76 16.7063C57.408 17.3978 57.7293 18.2636 57.7238 19.3036C57.7293 20.2565 57.4543 21.1032 56.8989 21.8438C56.3489 22.5843 55.5893 23.1669 54.6201 23.5916C53.6509 24.0163 52.5401 24.2287 51.2877 24.2287Z" fill="#EE4549"/>
</g>
<defs>
<clipPath id="clip0_311_652">
<rect width="72" height="32" fill="white"/>
</clipPath>
</defs>
</svg>
