<svg width="72" height="32" viewBox="0 0 72 32" fill="none" xmlns="http://www.w3.org/2000/svg">
<g clip-path="url(#clip0_311_653)">
<rect opacity="0.2" width="72" height="32" rx="5" fill="#EE4549"/>
<path d="M20.3417 24.2287C19.1873 24.2287 18.1582 24.0163 17.2543 23.5916C16.3559 23.1669 15.6426 22.5816 15.1144 21.8356C14.5862 21.0896 14.3112 20.2347 14.2895 19.271H17.7199C17.758 19.9189 18.0302 20.4444 18.5366 20.8473C19.043 21.2502 19.6447 21.4517 20.3417 21.4517C20.8971 21.4517 21.3871 21.3292 21.8118 21.0842C22.242 20.8337 22.5769 20.4879 22.8165 20.0469C23.0615 19.6004 23.184 19.0885 23.184 18.5114C23.184 17.9233 23.0588 17.406 22.8083 16.9595C22.5633 16.513 22.2229 16.1645 21.7873 15.9141C21.3517 15.6636 20.8535 15.5356 20.2927 15.5302C19.8026 15.5302 19.3262 15.6309 18.8633 15.8324C18.4059 16.0339 18.0493 16.3088 17.7934 16.6573L14.6488 16.0938L15.4411 7.27273H25.6669V10.1641H18.3569L17.9241 14.354H18.0221C18.3161 13.9402 18.7599 13.5972 19.3534 13.3249C19.9469 13.0527 20.6112 12.9165 21.3463 12.9165C22.3536 12.9165 23.2521 13.1534 24.0416 13.6271C24.8311 14.1009 25.4546 14.7515 25.912 15.5792C26.3694 16.4014 26.5953 17.3488 26.5899 18.4215C26.5953 19.5487 26.334 20.5505 25.8058 21.4272C25.2831 22.2984 24.5507 22.9845 23.6087 23.4854C22.6722 23.9809 21.5831 24.2287 20.3417 24.2287ZM35.6151 24.3675C34.2103 24.3621 33.0015 24.0163 31.9887 23.3303C30.9813 22.6442 30.2054 21.6504 29.6609 20.3491C29.1218 19.0477 28.855 17.4822 28.8605 15.6527C28.8605 13.8286 29.13 12.274 29.6691 10.989C30.2136 9.70395 30.9895 8.72656 31.9968 8.05682C33.0096 7.38163 34.2157 7.04403 35.6151 7.04403C37.0145 7.04403 38.2178 7.38163 39.2252 8.05682C40.238 8.73201 41.0166 9.71212 41.5611 10.9972C42.1056 12.2768 42.3752 13.8286 42.3697 15.6527C42.3697 17.4877 42.0975 19.0559 41.553 20.3572C41.0139 21.6586 40.2407 22.6523 39.2334 23.3384C38.226 24.0245 37.0199 24.3675 35.6151 24.3675ZM35.6151 21.4354C36.5734 21.4354 37.3385 20.9535 37.9102 19.9897C38.4819 19.0259 38.7651 17.5803 38.7596 15.6527C38.7596 14.384 38.629 13.3277 38.3676 12.4837C38.1117 11.6397 37.7468 11.0053 37.2731 10.5806C36.8049 10.1559 36.2522 9.94354 35.6151 9.94354C34.6622 9.94354 33.8999 10.42 33.3282 11.3729C32.7564 12.3258 32.4678 13.7524 32.4624 15.6527C32.4624 16.9377 32.5904 18.0104 32.8463 18.8707C33.1076 19.7256 33.4752 20.3681 33.9489 20.7983C34.4226 21.223 34.978 21.4354 35.6151 21.4354ZM44.6383 21.0597V18.2745L51.6216 7.27273H54.0229V11.1278H52.6017L48.1994 18.0948V18.2255H58.123V21.0597H44.6383ZM52.667 24V20.2102L52.7324 18.9769V7.27273H56.0484V24H52.667Z" fill="#EE4549"/>
</g>
<defs>
<clipPath id="clip0_311_653">
<rect width="72" height="32" fill="white"/>
</clipPath>
</defs>
</svg>
