<svg width="422" height="65" viewBox="0 0 422 65" fill="none" xmlns="http://www.w3.org/2000/svg">
<rect opacity="0.2" x="0.25" y="0.25" width="421.5" height="64.5" rx="9.75" fill="#FF4F64" stroke="#FF4F64" stroke-width="0.5"/>
<rect x="11" y="9" width="47" height="47" rx="13" fill="#FF4F64"/>
<path d="M34.0001 15.35C24.5333 15.35 16.8501 23.0332 16.8501 32.5C16.8501 41.9668 24.5333 49.65 34.0001 49.65C43.4669 49.65 51.1501 41.9668 51.1501 32.5C51.1501 23.0332 43.4669 15.35 34.0001 15.35ZM35.7151 41.075H32.2851V37.645H35.7151V41.075ZM35.7151 34.215H32.2851V23.925H35.7151V34.215Z" fill="white"/>
<path d="M70.5327 37H69.3324L72.804 27.5455H73.9858L77.4574 37H76.2571L73.4318 29.0412H73.358L70.5327 37ZM70.9759 33.3068H75.8139V34.3224H70.9759V33.3068ZM78.7823 39.6591V29.9091H79.8349V31.0355H79.9641C80.0442 30.9124 80.1549 30.7554 80.2965 30.5646C80.4412 30.3707 80.6474 30.1984 80.9151 30.0476C81.186 29.8937 81.5522 29.8168 82.0138 29.8168C82.6109 29.8168 83.1372 29.966 83.5927 30.2646C84.0482 30.5631 84.4036 30.9863 84.6591 31.5341C84.9145 32.0819 85.0423 32.7282 85.0423 33.473C85.0423 34.224 84.9145 34.8749 84.6591 35.4258C84.4036 35.9736 84.0497 36.3983 83.5973 36.6999C83.1449 36.9985 82.6232 37.1477 82.0323 37.1477C81.5768 37.1477 81.2121 37.0723 80.9382 36.9215C80.6643 36.7676 80.4535 36.5937 80.3058 36.3999C80.158 36.2029 80.0442 36.0398 79.9641 35.9105H79.8718V39.6591H78.7823ZM79.8533 33.4545C79.8533 33.9901 79.9318 34.4625 80.0888 34.8718C80.2457 35.2781 80.475 35.5966 80.7766 35.8274C81.0782 36.0552 81.4476 36.169 81.8846 36.169C82.3401 36.169 82.7202 36.049 83.0249 35.8089C83.3326 35.5658 83.5634 35.2396 83.7173 34.8303C83.8743 34.4179 83.9528 33.9593 83.9528 33.4545C83.9528 32.956 83.8758 32.5066 83.7219 32.1065C83.5711 31.7034 83.3419 31.3848 83.0341 31.1509C82.7294 30.9139 82.3462 30.7955 81.8846 30.7955C81.4414 30.7955 81.069 30.9078 80.7674 31.1325C80.4658 31.354 80.238 31.6649 80.0842 32.065C79.9303 32.462 79.8533 32.9252 79.8533 33.4545ZM89.6772 37.1477C88.994 37.1477 88.4046 36.9969 87.9091 36.6953C87.4167 36.3906 87.0366 35.9659 86.7688 35.4212C86.5041 34.8733 86.3718 34.2363 86.3718 33.5099C86.3718 32.7836 86.5041 32.1435 86.7688 31.5895C87.0366 31.0324 87.409 30.5985 87.886 30.2876C88.3661 29.9737 88.9263 29.8168 89.5664 29.8168C89.9357 29.8168 90.3004 29.8783 90.6605 30.0014C91.0206 30.1245 91.3484 30.3246 91.6438 30.6016C91.9393 30.8755 92.1747 31.2386 92.3501 31.6911C92.5256 32.1435 92.6133 32.7005 92.6133 33.3622V33.8239H87.1474V32.8821H91.5053C91.5053 32.482 91.4253 32.125 91.2653 31.8111C91.1083 31.4972 90.8836 31.2494 90.5913 31.0678C90.302 30.8862 89.9603 30.7955 89.5664 30.7955C89.1325 30.7955 88.757 30.9032 88.44 31.1186C88.1261 31.331 87.8845 31.608 87.7152 31.9496C87.5459 32.2912 87.4613 32.6574 87.4613 33.0483V33.6761C87.4613 34.2116 87.5536 34.6656 87.7383 35.038C87.926 35.4073 88.1861 35.6889 88.5185 35.8828C88.8509 36.0736 89.2371 36.169 89.6772 36.169C89.9634 36.169 90.2219 36.129 90.4528 36.049C90.6867 35.9659 90.8883 35.8428 91.0575 35.6797C91.2268 35.5135 91.3576 35.3073 91.4499 35.0611L92.5025 35.3565C92.3917 35.7135 92.2055 36.0275 91.9439 36.2983C91.6823 36.5661 91.3591 36.7753 90.9744 36.9261C90.5897 37.0739 90.1573 37.1477 89.6772 37.1477ZM95.3601 32.7344V37H94.2706V29.9091H95.3232V31.017H95.4155C95.5817 30.657 95.834 30.3677 96.1726 30.1491C96.5111 29.9276 96.9482 29.8168 97.4837 29.8168C97.9638 29.8168 98.3839 29.9152 98.744 30.1122C99.104 30.3061 99.3841 30.6016 99.5842 30.9986C99.7842 31.3925 99.8842 31.8911 99.8842 32.4943V37H98.7947V32.5682C98.7947 32.0111 98.6501 31.5772 98.3608 31.2663C98.0715 30.9524 97.6745 30.7955 97.1697 30.7955C96.822 30.7955 96.5111 30.8709 96.2372 31.0217C95.9664 31.1725 95.7525 31.3925 95.5955 31.6818C95.4386 31.9711 95.3601 32.322 95.3601 32.7344ZM103.962 37.1662C103.512 37.1662 103.105 37.0816 102.738 36.9123C102.372 36.7399 102.081 36.4922 101.866 36.169C101.65 35.8428 101.543 35.4489 101.543 34.9872C101.543 34.581 101.623 34.2517 101.783 33.9993C101.943 33.7438 102.157 33.5438 102.424 33.3991C102.692 33.2545 102.988 33.1468 103.311 33.076C103.637 33.0021 103.965 32.9437 104.294 32.9006C104.725 32.8452 105.074 32.8036 105.342 32.7759C105.613 32.7451 105.81 32.6944 105.933 32.6236C106.059 32.5528 106.122 32.4297 106.122 32.2543V32.2173C106.122 31.7618 105.998 31.4079 105.748 31.1555C105.502 30.9032 105.128 30.777 104.627 30.777C104.106 30.777 103.699 30.8909 103.403 31.1186C103.108 31.3464 102.9 31.5895 102.78 31.848L101.746 31.4787C101.93 31.0478 102.177 30.7124 102.484 30.4723C102.795 30.2292 103.134 30.0599 103.5 29.9645C103.869 29.866 104.233 29.8168 104.59 29.8168C104.817 29.8168 105.079 29.8445 105.374 29.8999C105.673 29.9522 105.961 30.0614 106.238 30.2276C106.518 30.3938 106.75 30.6446 106.935 30.9801C107.119 31.3156 107.212 31.7649 107.212 32.3281V37H106.122V36.0398H106.067C105.993 36.1937 105.87 36.3583 105.698 36.5337C105.525 36.7092 105.296 36.8584 105.01 36.9815C104.723 37.1046 104.374 37.1662 103.962 37.1662ZM104.128 36.1875C104.559 36.1875 104.922 36.1029 105.217 35.9336C105.516 35.7643 105.741 35.5458 105.891 35.2781C106.045 35.0103 106.122 34.7287 106.122 34.4332V33.4361C106.076 33.4915 105.975 33.5423 105.818 33.5884C105.664 33.6315 105.485 33.67 105.282 33.7038C105.082 33.7346 104.887 33.7623 104.696 33.7869C104.508 33.8085 104.356 33.8269 104.239 33.8423C103.956 33.8793 103.691 33.9393 103.445 34.0224C103.202 34.1024 103.005 34.224 102.854 34.3871C102.706 34.5471 102.632 34.7656 102.632 35.0426C102.632 35.4212 102.772 35.7074 103.052 35.9013C103.335 36.0921 103.694 36.1875 104.128 36.1875ZM114.223 31.4972L113.244 31.7741C113.183 31.611 113.092 31.4525 112.972 31.2987C112.855 31.1417 112.695 31.0124 112.492 30.9109C112.289 30.8093 112.029 30.7585 111.712 30.7585C111.278 30.7585 110.916 30.8585 110.627 31.0586C110.341 31.2556 110.197 31.5064 110.197 31.8111C110.197 32.0819 110.296 32.2958 110.493 32.4528C110.69 32.6097 110.998 32.7405 111.416 32.8452L112.469 33.1037C113.103 33.2576 113.575 33.493 113.886 33.81C114.197 34.1239 114.352 34.5286 114.352 35.0241C114.352 35.4304 114.235 35.7936 114.001 36.1136C113.771 36.4337 113.447 36.6861 113.032 36.8707C112.616 37.0554 112.133 37.1477 111.582 37.1477C110.859 37.1477 110.261 36.9908 109.787 36.6768C109.313 36.3629 109.013 35.9044 108.886 35.3011L109.92 35.0426C110.019 35.4242 110.205 35.7105 110.479 35.9013C110.756 36.0921 111.118 36.1875 111.564 36.1875C112.072 36.1875 112.475 36.0798 112.773 35.8643C113.075 35.6458 113.226 35.3842 113.226 35.0795C113.226 34.8333 113.14 34.6271 112.967 34.4609C112.795 34.2917 112.53 34.1655 112.173 34.0824L110.991 33.8054C110.342 33.6515 109.865 33.413 109.56 33.0898C109.259 32.7636 109.108 32.3558 109.108 31.8665C109.108 31.4664 109.22 31.1125 109.445 30.8047C109.673 30.4969 109.982 30.2553 110.373 30.0799C110.767 29.9045 111.213 29.8168 111.712 29.8168C112.413 29.8168 112.964 29.9706 113.364 30.2784C113.768 30.5862 114.054 30.9924 114.223 31.4972ZM124.117 34.1009V29.9091H125.207V37H124.117V35.7997H124.043C123.877 36.1598 123.619 36.466 123.268 36.7184C122.917 36.9677 122.474 37.0923 121.938 37.0923C121.495 37.0923 121.101 36.9954 120.756 36.8015C120.412 36.6045 120.141 36.3091 119.944 35.9151C119.747 35.5181 119.649 35.018 119.649 34.4148V29.9091H120.738V34.3409C120.738 34.858 120.883 35.2704 121.172 35.5781C121.464 35.8859 121.837 36.0398 122.289 36.0398C122.56 36.0398 122.835 35.9705 123.116 35.832C123.399 35.6935 123.636 35.4812 123.826 35.195C124.02 34.9087 124.117 34.544 124.117 34.1009ZM127.202 37V29.9091H128.255V31.017H128.347C128.495 30.6385 128.733 30.3446 129.063 30.1353C129.392 29.9229 129.787 29.8168 130.249 29.8168C130.717 29.8168 131.106 29.9229 131.417 30.1353C131.731 30.3446 131.976 30.6385 132.151 31.017H132.225C132.407 30.6508 132.679 30.36 133.042 30.1445C133.405 29.926 133.841 29.8168 134.349 29.8168C134.983 29.8168 135.501 30.0153 135.904 30.4123C136.307 30.8062 136.509 31.4202 136.509 32.2543V37H135.42V32.2543C135.42 31.7311 135.276 31.3571 134.99 31.1325C134.704 30.9078 134.367 30.7955 133.979 30.7955C133.481 30.7955 133.094 30.9463 132.82 31.2479C132.547 31.5464 132.41 31.925 132.41 32.3835V37H131.302V32.1435C131.302 31.7403 131.171 31.4156 130.909 31.1694C130.648 30.9201 130.311 30.7955 129.898 30.7955C129.615 30.7955 129.35 30.8709 129.104 31.0217C128.861 31.1725 128.664 31.3817 128.513 31.6495C128.366 31.9142 128.292 32.2204 128.292 32.5682V37H127.202ZM142.157 37V29.9091H143.247V37H142.157ZM142.213 28.9489L143.339 26.8068H144.613L143.173 28.9489H142.213ZM148.123 37.1477C147.458 37.1477 146.886 36.9908 146.406 36.6768C145.926 36.3629 145.556 35.9305 145.298 35.3796C145.039 34.8287 144.91 34.1993 144.91 33.4915C144.91 32.7713 145.042 32.1358 145.307 31.5849C145.575 31.0309 145.947 30.5985 146.424 30.2876C146.904 29.9737 147.464 29.8168 148.104 29.8168C148.603 29.8168 149.052 29.9091 149.453 30.0938C149.853 30.2784 150.18 30.5369 150.436 30.8693C150.691 31.2017 150.85 31.5895 150.911 32.0327H149.822C149.739 31.7095 149.554 31.4233 149.268 31.174C148.985 30.9216 148.603 30.7955 148.123 30.7955C147.698 30.7955 147.326 30.9062 147.006 31.1278C146.689 31.3464 146.441 31.6557 146.263 32.0558C146.087 32.4528 145.999 32.919 145.999 33.4545C145.999 34.0024 146.086 34.4794 146.258 34.8857C146.433 35.2919 146.68 35.6074 146.997 35.832C147.317 36.0567 147.692 36.169 148.123 36.169C148.406 36.169 148.663 36.1198 148.894 36.0213C149.125 35.9228 149.32 35.7812 149.48 35.5966C149.64 35.4119 149.754 35.1903 149.822 34.9318H150.911C150.85 35.3504 150.697 35.7274 150.454 36.0629C150.214 36.3952 149.896 36.6599 149.499 36.8569C149.105 37.0508 148.646 37.1477 148.123 37.1477ZM155.385 37.1477C154.745 37.1477 154.183 36.9954 153.7 36.6907C153.22 36.386 152.844 35.9598 152.573 35.4119C152.305 34.8641 152.172 34.224 152.172 33.4915C152.172 32.7528 152.305 32.1081 152.573 31.5572C152.844 31.0063 153.22 30.5785 153.7 30.2738C154.183 29.9691 154.745 29.8168 155.385 29.8168C156.025 29.8168 156.585 29.9691 157.065 30.2738C157.548 30.5785 157.924 31.0063 158.191 31.5572C158.462 32.1081 158.598 32.7528 158.598 33.4915C158.598 34.224 158.462 34.8641 158.191 35.4119C157.924 35.9598 157.548 36.386 157.065 36.6907C156.585 36.9954 156.025 37.1477 155.385 37.1477ZM155.385 36.169C155.871 36.169 156.271 36.0444 156.585 35.7951C156.899 35.5458 157.131 35.218 157.282 34.8118C157.433 34.4055 157.508 33.9654 157.508 33.4915C157.508 33.0175 157.433 32.5759 157.282 32.1665C157.131 31.7572 156.899 31.4264 156.585 31.174C156.271 30.9216 155.871 30.7955 155.385 30.7955C154.898 30.7955 154.498 30.9216 154.184 31.174C153.87 31.4264 153.638 31.7572 153.487 32.1665C153.336 32.5759 153.261 33.0175 153.261 33.4915C153.261 33.9654 153.336 34.4055 153.487 34.8118C153.638 35.218 153.87 35.5458 154.184 35.7951C154.498 36.0444 154.898 36.169 155.385 36.169ZM161.35 32.7344V37H160.261V29.9091H161.313V31.017H161.406C161.572 30.657 161.824 30.3677 162.163 30.1491C162.501 29.9276 162.938 29.8168 163.474 29.8168C163.954 29.8168 164.374 29.9152 164.734 30.1122C165.094 30.3061 165.374 30.6016 165.574 30.9986C165.774 31.3925 165.874 31.8911 165.874 32.4943V37H164.785V32.5682C164.785 32.0111 164.64 31.5772 164.351 31.2663C164.062 30.9524 163.665 30.7955 163.16 30.7955C162.812 30.7955 162.501 30.8709 162.227 31.0217C161.957 31.1725 161.743 31.3925 161.586 31.6818C161.429 31.9711 161.35 32.322 161.35 32.7344ZM170.838 37.1477C170.155 37.1477 169.566 36.9969 169.07 36.6953C168.578 36.3906 168.198 35.9659 167.93 35.4212C167.665 34.8733 167.533 34.2363 167.533 33.5099C167.533 32.7836 167.665 32.1435 167.93 31.5895C168.198 31.0324 168.57 30.5985 169.047 30.2876C169.527 29.9737 170.087 29.8168 170.728 29.8168C171.097 29.8168 171.462 29.8783 171.822 30.0014C172.182 30.1245 172.509 30.3246 172.805 30.6016C173.1 30.8755 173.336 31.2386 173.511 31.6911C173.687 32.1435 173.774 32.7005 173.774 33.3622V33.8239H168.309V32.8821H172.666C172.666 32.482 172.586 32.125 172.426 31.8111C172.269 31.4972 172.045 31.2494 171.752 31.0678C171.463 30.8862 171.121 30.7955 170.728 30.7955C170.294 30.7955 169.918 30.9032 169.601 31.1186C169.287 31.331 169.046 31.608 168.876 31.9496C168.707 32.2912 168.622 32.6574 168.622 33.0483V33.6761C168.622 34.2116 168.715 34.6656 168.899 35.038C169.087 35.4073 169.347 35.6889 169.68 35.8828C170.012 36.0736 170.398 36.169 170.838 36.169C171.125 36.169 171.383 36.129 171.614 36.049C171.848 35.9659 172.049 35.8428 172.219 35.6797C172.388 35.5135 172.519 35.3073 172.611 35.0611L173.664 35.3565C173.553 35.7135 173.367 36.0275 173.105 36.2983C172.843 36.5661 172.52 36.7753 172.136 36.9261C171.751 37.0739 171.318 37.1477 170.838 37.1477ZM181.766 37.1477C181.175 37.1477 180.653 36.9985 180.201 36.6999C179.748 36.3983 179.394 35.9736 179.139 35.4258C178.883 34.8749 178.756 34.224 178.756 33.473C178.756 32.7282 178.883 32.0819 179.139 31.5341C179.394 30.9863 179.75 30.5631 180.205 30.2646C180.661 29.966 181.187 29.8168 181.784 29.8168C182.246 29.8168 182.61 29.8937 182.878 30.0476C183.149 30.1984 183.355 30.3707 183.497 30.5646C183.641 30.7554 183.754 30.9124 183.834 31.0355H183.926V27.5455H185.016V37H183.963V35.9105H183.834C183.754 36.0398 183.64 36.2029 183.492 36.3999C183.344 36.5937 183.134 36.7676 182.86 36.9215C182.586 37.0723 182.221 37.1477 181.766 37.1477ZM181.913 36.169C182.35 36.169 182.72 36.0552 183.021 35.8274C183.323 35.5966 183.552 35.2781 183.709 34.8718C183.866 34.4625 183.945 33.9901 183.945 33.4545C183.945 32.9252 183.868 32.462 183.714 32.065C183.56 31.6649 183.332 31.354 183.03 31.1325C182.729 30.9078 182.356 30.7955 181.913 30.7955C181.452 30.7955 181.067 30.9139 180.759 31.1509C180.454 31.3848 180.225 31.7034 180.071 32.1065C179.92 32.5066 179.845 32.956 179.845 33.4545C179.845 33.9593 179.922 34.4179 180.076 34.8303C180.233 35.2396 180.464 35.5658 180.768 35.8089C181.076 36.049 181.458 36.169 181.913 36.169ZM190.135 37.1477C189.452 37.1477 188.863 36.9969 188.367 36.6953C187.875 36.3906 187.495 35.9659 187.227 35.4212C186.962 34.8733 186.83 34.2363 186.83 33.5099C186.83 32.7836 186.962 32.1435 187.227 31.5895C187.495 31.0324 187.867 30.5985 188.344 30.2876C188.824 29.9737 189.384 29.8168 190.024 29.8168C190.394 29.8168 190.758 29.8783 191.119 30.0014C191.479 30.1245 191.806 30.3246 192.102 30.6016C192.397 30.8755 192.633 31.2386 192.808 31.6911C192.984 32.1435 193.071 32.7005 193.071 33.3622V33.8239H187.605V32.8821H191.963C191.963 32.482 191.883 32.125 191.723 31.8111C191.566 31.4972 191.342 31.2494 191.049 31.0678C190.76 30.8862 190.418 30.7955 190.024 30.7955C189.59 30.7955 189.215 30.9032 188.898 31.1186C188.584 31.331 188.342 31.608 188.173 31.9496C188.004 32.2912 187.919 32.6574 187.919 33.0483V33.6761C187.919 34.2116 188.012 34.6656 188.196 35.038C188.384 35.4073 188.644 35.6889 188.976 35.8828C189.309 36.0736 189.695 36.169 190.135 36.169C190.421 36.169 190.68 36.129 190.911 36.049C191.145 35.9659 191.346 35.8428 191.516 35.6797C191.685 35.5135 191.816 35.3073 191.908 35.0611L192.96 35.3565C192.85 35.7135 192.664 36.0275 192.402 36.2983C192.14 36.5661 191.817 36.7753 191.432 36.9261C191.048 37.0739 190.615 37.1477 190.135 37.1477ZM203.408 31.4972L202.429 31.7741C202.367 31.611 202.277 31.4525 202.157 31.2987C202.04 31.1417 201.88 31.0124 201.676 30.9109C201.473 30.8093 201.213 30.7585 200.896 30.7585C200.462 30.7585 200.101 30.8585 199.811 31.0586C199.525 31.2556 199.382 31.5064 199.382 31.8111C199.382 32.0819 199.48 32.2958 199.677 32.4528C199.874 32.6097 200.182 32.7405 200.601 32.8452L201.653 33.1037C202.287 33.2576 202.76 33.493 203.071 33.81C203.381 34.1239 203.537 34.5286 203.537 35.0241C203.537 35.4304 203.42 35.7936 203.186 36.1136C202.955 36.4337 202.632 36.6861 202.217 36.8707C201.801 37.0554 201.318 37.1477 200.767 37.1477C200.044 37.1477 199.445 36.9908 198.971 36.6768C198.497 36.3629 198.197 35.9044 198.071 35.3011L199.105 35.0426C199.204 35.4242 199.39 35.7105 199.664 35.9013C199.941 36.0921 200.302 36.1875 200.748 36.1875C201.256 36.1875 201.659 36.0798 201.958 35.8643C202.26 35.6458 202.41 35.3842 202.41 35.0795C202.41 34.8333 202.324 34.6271 202.152 34.4609C201.98 34.2917 201.715 34.1655 201.358 34.0824L200.176 33.8054C199.527 33.6515 199.05 33.413 198.745 33.0898C198.443 32.7636 198.293 32.3558 198.293 31.8665C198.293 31.4664 198.405 31.1125 198.63 30.8047C198.857 30.4969 199.167 30.2553 199.557 30.0799C199.951 29.9045 200.398 29.8168 200.896 29.8168C201.598 29.8168 202.149 29.9706 202.549 30.2784C202.952 30.5862 203.238 30.9924 203.408 31.4972ZM208.261 29.9091V30.8324H204.586V29.9091H208.261ZM205.657 28.2102H206.746V34.9688C206.746 35.2765 206.791 35.5073 206.88 35.6612C206.973 35.812 207.09 35.9136 207.231 35.9659C207.376 36.0152 207.528 36.0398 207.688 36.0398C207.808 36.0398 207.907 36.0336 207.984 36.0213C208.061 36.0059 208.122 35.9936 208.168 35.9844L208.39 36.9631C208.316 36.9908 208.213 37.0185 208.081 37.0462C207.948 37.0769 207.781 37.0923 207.577 37.0923C207.27 37.0923 206.968 37.0262 206.673 36.8938C206.38 36.7615 206.137 36.5599 205.943 36.2891C205.752 36.0182 205.657 35.6766 205.657 35.2642V28.2102ZM211.986 37.1662C211.537 37.1662 211.129 37.0816 210.763 36.9123C210.397 36.7399 210.106 36.4922 209.89 36.169C209.675 35.8428 209.567 35.4489 209.567 34.9872C209.567 34.581 209.647 34.2517 209.807 33.9993C209.967 33.7438 210.181 33.5438 210.449 33.3991C210.717 33.2545 211.012 33.1468 211.335 33.076C211.661 33.0021 211.989 32.9437 212.319 32.9006C212.749 32.8452 213.099 32.8036 213.366 32.7759C213.637 32.7451 213.834 32.6944 213.957 32.6236C214.084 32.5528 214.147 32.4297 214.147 32.2543V32.2173C214.147 31.7618 214.022 31.4079 213.773 31.1555C213.527 30.9032 213.153 30.777 212.651 30.777C212.131 30.777 211.723 30.8909 211.428 31.1186C211.132 31.3464 210.924 31.5895 210.804 31.848L209.77 31.4787C209.955 31.0478 210.201 30.7124 210.509 30.4723C210.82 30.2292 211.158 30.0599 211.525 29.9645C211.894 29.866 212.257 29.8168 212.614 29.8168C212.842 29.8168 213.103 29.8445 213.399 29.8999C213.697 29.9522 213.985 30.0614 214.262 30.2276C214.542 30.3938 214.775 30.6446 214.959 30.9801C215.144 31.3156 215.236 31.7649 215.236 32.3281V37H214.147V36.0398H214.091C214.017 36.1937 213.894 36.3583 213.722 36.5337C213.55 36.7092 213.32 36.8584 213.034 36.9815C212.748 37.1046 212.399 37.1662 211.986 37.1662ZM212.152 36.1875C212.583 36.1875 212.946 36.1029 213.242 35.9336C213.54 35.7643 213.765 35.5458 213.916 35.2781C214.07 35.0103 214.147 34.7287 214.147 34.4332V33.4361C214.1 33.4915 213.999 33.5423 213.842 33.5884C213.688 33.6315 213.51 33.67 213.306 33.7038C213.106 33.7346 212.911 33.7623 212.72 33.7869C212.532 33.8085 212.38 33.8269 212.263 33.8423C211.98 33.8793 211.715 33.9393 211.469 34.0224C211.226 34.1024 211.029 34.224 210.878 34.3871C210.73 34.5471 210.657 34.7656 210.657 35.0426C210.657 35.4212 210.797 35.7074 211.077 35.9013C211.36 36.0921 211.718 36.1875 212.152 36.1875ZM220.309 29.9091V30.8324H216.634V29.9091H220.309ZM217.705 28.2102H218.794V34.9688C218.794 35.2765 218.839 35.5073 218.928 35.6612C219.021 35.812 219.137 35.9136 219.279 35.9659C219.424 36.0152 219.576 36.0398 219.736 36.0398C219.856 36.0398 219.955 36.0336 220.032 36.0213C220.108 36.0059 220.17 35.9936 220.216 35.9844L220.438 36.9631C220.364 36.9908 220.261 37.0185 220.128 37.0462C219.996 37.0769 219.828 37.0923 219.625 37.0923C219.318 37.0923 219.016 37.0262 218.72 36.8938C218.428 36.7615 218.185 36.5599 217.991 36.2891C217.8 36.0182 217.705 35.6766 217.705 35.2642V28.2102ZM226.416 34.1009V29.9091H227.506V37H226.416V35.7997H226.342C226.176 36.1598 225.918 36.466 225.567 36.7184C225.216 36.9677 224.773 37.0923 224.237 37.0923C223.794 37.0923 223.4 36.9954 223.055 36.8015C222.711 36.6045 222.44 36.3091 222.243 35.9151C222.046 35.5181 221.947 35.018 221.947 34.4148V29.9091H223.037V34.3409C223.037 34.858 223.181 35.2704 223.471 35.5781C223.763 35.8859 224.136 36.0398 224.588 36.0398C224.859 36.0398 225.134 35.9705 225.414 35.832C225.697 35.6935 225.934 35.4812 226.125 35.195C226.319 34.9087 226.416 34.544 226.416 34.1009ZM234.524 31.4972L233.545 31.7741C233.484 31.611 233.393 31.4525 233.273 31.2987C233.156 31.1417 232.996 31.0124 232.793 30.9109C232.589 30.8093 232.329 30.7585 232.012 30.7585C231.578 30.7585 231.217 30.8585 230.928 31.0586C230.641 31.2556 230.498 31.5064 230.498 31.8111C230.498 32.0819 230.597 32.2958 230.794 32.4528C230.991 32.6097 231.298 32.7405 231.717 32.8452L232.77 33.1037C233.404 33.2576 233.876 33.493 234.187 33.81C234.498 34.1239 234.653 34.5286 234.653 35.0241C234.653 35.4304 234.536 35.7936 234.302 36.1136C234.071 36.4337 233.748 36.6861 233.333 36.8707C232.917 37.0554 232.434 37.1477 231.883 37.1477C231.16 37.1477 230.561 36.9908 230.087 36.6768C229.613 36.3629 229.313 35.9044 229.187 35.3011L230.221 35.0426C230.32 35.4242 230.506 35.7105 230.78 35.9013C231.057 36.0921 231.418 36.1875 231.865 36.1875C232.373 36.1875 232.776 36.0798 233.074 35.8643C233.376 35.6458 233.527 35.3842 233.527 35.0795C233.527 34.8333 233.44 34.6271 233.268 34.4609C233.096 34.2917 232.831 34.1655 232.474 34.0824L231.292 33.8054C230.643 33.6515 230.166 33.413 229.861 33.0898C229.56 32.7636 229.409 32.3558 229.409 31.8665C229.409 31.4664 229.521 31.1125 229.746 30.8047C229.973 30.4969 230.283 30.2553 230.674 30.0799C231.068 29.9045 231.514 29.8168 232.012 29.8168C232.714 29.8168 233.265 29.9706 233.665 30.2784C234.068 30.5862 234.355 30.9924 234.524 31.4972ZM239.949 39.6591V29.9091H241.002V31.0355H241.131C241.211 30.9124 241.322 30.7554 241.464 30.5646C241.608 30.3707 241.814 30.1984 242.082 30.0476C242.353 29.8937 242.719 29.8168 243.181 29.8168C243.778 29.8168 244.304 29.966 244.76 30.2646C245.215 30.5631 245.571 30.9863 245.826 31.5341C246.082 32.0819 246.209 32.7282 246.209 33.473C246.209 34.224 246.082 34.8749 245.826 35.4258C245.571 35.9736 245.217 36.3983 244.764 36.6999C244.312 36.9985 243.79 37.1477 243.199 37.1477C242.744 37.1477 242.379 37.0723 242.105 36.9215C241.831 36.7676 241.62 36.5937 241.473 36.3999C241.325 36.2029 241.211 36.0398 241.131 35.9105H241.039V39.6591H239.949ZM241.02 33.4545C241.02 33.9901 241.099 34.4625 241.256 34.8718C241.413 35.2781 241.642 35.5966 241.944 35.8274C242.245 36.0552 242.615 36.169 243.052 36.169C243.507 36.169 243.887 36.049 244.192 35.8089C244.5 35.5658 244.73 35.2396 244.884 34.8303C245.041 34.4179 245.12 33.9593 245.12 33.4545C245.12 32.956 245.043 32.5066 244.889 32.1065C244.738 31.7034 244.509 31.3848 244.201 31.1509C243.896 30.9139 243.513 30.7955 243.052 30.7955C242.608 30.7955 242.236 30.9078 241.934 31.1325C241.633 31.354 241.405 31.6649 241.251 32.065C241.097 32.462 241.02 32.9252 241.02 33.4545ZM250.752 37.1477C250.112 37.1477 249.55 36.9954 249.067 36.6907C248.587 36.386 248.211 35.9598 247.94 35.4119C247.673 34.8641 247.539 34.224 247.539 33.4915C247.539 32.7528 247.673 32.1081 247.94 31.5572C248.211 31.0063 248.587 30.5785 249.067 30.2738C249.55 29.9691 250.112 29.8168 250.752 29.8168C251.392 29.8168 251.952 29.9691 252.432 30.2738C252.915 30.5785 253.291 31.0063 253.559 31.5572C253.83 32.1081 253.965 32.7528 253.965 33.4915C253.965 34.224 253.83 34.8641 253.559 35.4119C253.291 35.9598 252.915 36.386 252.432 36.6907C251.952 36.9954 251.392 37.1477 250.752 37.1477ZM250.752 36.169C251.238 36.169 251.638 36.0444 251.952 35.7951C252.266 35.5458 252.498 35.218 252.649 34.8118C252.8 34.4055 252.875 33.9654 252.875 33.4915C252.875 33.0175 252.8 32.5759 252.649 32.1665C252.498 31.7572 252.266 31.4264 251.952 31.174C251.638 30.9216 251.238 30.7955 250.752 30.7955C250.266 30.7955 249.866 30.9216 249.552 31.174C249.238 31.4264 249.005 31.7572 248.854 32.1665C248.704 32.5759 248.628 33.0175 248.628 33.4915C248.628 33.9654 248.704 34.4055 248.854 34.8118C249.005 35.218 249.238 35.5458 249.552 35.7951C249.866 36.0444 250.266 36.169 250.752 36.169ZM258.306 37.1477C257.715 37.1477 257.193 36.9985 256.741 36.6999C256.288 36.3983 255.934 35.9736 255.679 35.4258C255.423 34.8749 255.296 34.224 255.296 33.473C255.296 32.7282 255.423 32.0819 255.679 31.5341C255.934 30.9863 256.29 30.5631 256.745 30.2646C257.201 29.966 257.727 29.8168 258.324 29.8168C258.786 29.8168 259.15 29.8937 259.418 30.0476C259.689 30.1984 259.895 30.3707 260.037 30.5646C260.181 30.7554 260.294 30.9124 260.374 31.0355H260.466V27.5455H261.556V37H260.503V35.9105H260.374C260.294 36.0398 260.18 36.2029 260.032 36.3999C259.884 36.5937 259.674 36.7676 259.4 36.9215C259.126 37.0723 258.761 37.1477 258.306 37.1477ZM258.453 36.169C258.89 36.169 259.26 36.0552 259.561 35.8274C259.863 35.5966 260.092 35.2781 260.249 34.8718C260.406 34.4625 260.485 33.9901 260.485 33.4545C260.485 32.9252 260.408 32.462 260.254 32.065C260.1 31.6649 259.872 31.354 259.57 31.1325C259.269 30.9078 258.896 30.7955 258.453 30.7955C257.992 30.7955 257.607 30.9139 257.299 31.1509C256.994 31.3848 256.765 31.7034 256.611 32.1065C256.461 32.5066 256.385 32.956 256.385 33.4545C256.385 33.9593 256.462 34.4179 256.616 34.8303C256.773 35.2396 257.004 35.5658 257.308 35.8089C257.616 36.049 257.998 36.169 258.453 36.169ZM266.675 37.1477C265.992 37.1477 265.403 36.9969 264.907 36.6953C264.415 36.3906 264.035 35.9659 263.767 35.4212C263.502 34.8733 263.37 34.2363 263.37 33.5099C263.37 32.7836 263.502 32.1435 263.767 31.5895C264.035 31.0324 264.407 30.5985 264.884 30.2876C265.364 29.9737 265.924 29.8168 266.564 29.8168C266.934 29.8168 267.298 29.8783 267.659 30.0014C268.019 30.1245 268.346 30.3246 268.642 30.6016C268.937 30.8755 269.173 31.2386 269.348 31.6911C269.524 32.1435 269.611 32.7005 269.611 33.3622V33.8239H264.145V32.8821H268.503C268.503 32.482 268.423 32.125 268.263 31.8111C268.106 31.4972 267.882 31.2494 267.589 31.0678C267.3 30.8862 266.958 30.7955 266.564 30.7955C266.131 30.7955 265.755 30.9032 265.438 31.1186C265.124 31.331 264.883 31.608 264.713 31.9496C264.544 32.2912 264.459 32.6574 264.459 33.0483V33.6761C264.459 34.2116 264.552 34.6656 264.736 35.038C264.924 35.4073 265.184 35.6889 265.517 35.8828C265.849 36.0736 266.235 36.169 266.675 36.169C266.961 36.169 267.22 36.129 267.451 36.049C267.685 35.9659 267.886 35.8428 268.056 35.6797C268.225 35.5135 268.356 35.3073 268.448 35.0611L269.501 35.3565C269.39 35.7135 269.204 36.0275 268.942 36.2983C268.68 36.5661 268.357 36.7753 267.972 36.9261C267.588 37.0739 267.155 37.1477 266.675 37.1477ZM279.948 31.4972L278.969 31.7741C278.907 31.611 278.817 31.4525 278.697 31.2987C278.58 31.1417 278.42 31.0124 278.216 30.9109C278.013 30.8093 277.753 30.7585 277.436 30.7585C277.002 30.7585 276.641 30.8585 276.351 31.0586C276.065 31.2556 275.922 31.5064 275.922 31.8111C275.922 32.0819 276.021 32.2958 276.218 32.4528C276.414 32.6097 276.722 32.7405 277.141 32.8452L278.193 33.1037C278.827 33.2576 279.3 33.493 279.611 33.81C279.921 34.1239 280.077 34.5286 280.077 35.0241C280.077 35.4304 279.96 35.7936 279.726 36.1136C279.495 36.4337 279.172 36.6861 278.757 36.8707C278.341 37.0554 277.858 37.1477 277.307 37.1477C276.584 37.1477 275.985 36.9908 275.511 36.6768C275.037 36.3629 274.737 35.9044 274.611 35.3011L275.645 35.0426C275.744 35.4242 275.93 35.7105 276.204 35.9013C276.481 36.0921 276.842 36.1875 277.289 36.1875C277.796 36.1875 278.2 36.0798 278.498 35.8643C278.8 35.6458 278.95 35.3842 278.95 35.0795C278.95 34.8333 278.864 34.6271 278.692 34.4609C278.52 34.2917 278.255 34.1655 277.898 34.0824L276.716 33.8054C276.067 33.6515 275.59 33.413 275.285 33.0898C274.983 32.7636 274.833 32.3558 274.833 31.8665C274.833 31.4664 274.945 31.1125 275.17 30.8047C275.397 30.4969 275.707 30.2553 276.097 30.0799C276.491 29.9045 276.938 29.8168 277.436 29.8168C278.138 29.8168 278.689 29.9706 279.089 30.2784C279.492 30.5862 279.778 30.9924 279.948 31.4972ZM284.69 37.1477C284.007 37.1477 283.417 36.9969 282.922 36.6953C282.429 36.3906 282.049 35.9659 281.782 35.4212C281.517 34.8733 281.384 34.2363 281.384 33.5099C281.384 32.7836 281.517 32.1435 281.782 31.5895C282.049 31.0324 282.422 30.5985 282.899 30.2876C283.379 29.9737 283.939 29.8168 284.579 29.8168C284.948 29.8168 285.313 29.8783 285.673 30.0014C286.033 30.1245 286.361 30.3246 286.657 30.6016C286.952 30.8755 287.187 31.2386 287.363 31.6911C287.538 32.1435 287.626 32.7005 287.626 33.3622V33.8239H282.16V32.8821H286.518C286.518 32.482 286.438 32.125 286.278 31.8111C286.121 31.4972 285.896 31.2494 285.604 31.0678C285.315 30.8862 284.973 30.7955 284.579 30.7955C284.145 30.7955 283.77 30.9032 283.453 31.1186C283.139 31.331 282.897 31.608 282.728 31.9496C282.559 32.2912 282.474 32.6574 282.474 33.0483V33.6761C282.474 34.2116 282.566 34.6656 282.751 35.038C282.939 35.4073 283.199 35.6889 283.531 35.8828C283.864 36.0736 284.25 36.169 284.69 36.169C284.976 36.169 285.235 36.129 285.465 36.049C285.699 35.9659 285.901 35.8428 286.07 35.6797C286.239 35.5135 286.37 35.3073 286.463 35.0611L287.515 35.3565C287.404 35.7135 287.218 36.0275 286.957 36.2983C286.695 36.5661 286.372 36.7753 285.987 36.9261C285.602 37.0739 285.17 37.1477 284.69 37.1477ZM289.283 37V29.9091H290.336V30.9801H290.41C290.539 30.6293 290.773 30.3446 291.111 30.1261C291.45 29.9076 291.832 29.7983 292.256 29.7983C292.336 29.7983 292.436 29.7998 292.556 29.8029C292.676 29.806 292.767 29.8106 292.829 29.8168V30.9247C292.792 30.9155 292.707 30.9016 292.575 30.8832C292.446 30.8616 292.309 30.8509 292.164 30.8509C291.819 30.8509 291.512 30.9232 291.241 31.0678C290.973 31.2094 290.761 31.4064 290.604 31.6587C290.45 31.908 290.373 32.1927 290.373 32.5128V37H289.283ZM300.639 39.8068C300.112 39.8068 299.66 39.7391 299.281 39.6037C298.903 39.4714 298.587 39.2959 298.335 39.0774C298.086 38.862 297.887 38.6312 297.74 38.3849L298.607 37.7756C298.706 37.9048 298.831 38.0526 298.981 38.2188C299.132 38.388 299.338 38.5342 299.6 38.6573C299.865 38.7835 300.211 38.8466 300.639 38.8466C301.211 38.8466 301.684 38.7081 302.056 38.4311C302.428 38.1541 302.615 37.7202 302.615 37.1293V35.6889H302.522C302.442 35.8182 302.328 35.9782 302.181 36.169C302.036 36.3568 301.827 36.5245 301.553 36.6722C301.282 36.8169 300.916 36.8892 300.454 36.8892C299.882 36.8892 299.368 36.7538 298.912 36.483C298.46 36.2121 298.101 35.8182 297.836 35.3011C297.575 34.7841 297.444 34.1562 297.444 33.4176C297.444 32.6913 297.572 32.0588 297.827 31.5202C298.083 30.9786 298.438 30.56 298.894 30.2646C299.349 29.966 299.875 29.8168 300.472 29.8168C300.934 29.8168 301.3 29.8937 301.571 30.0476C301.845 30.1984 302.054 30.3707 302.199 30.5646C302.347 30.7554 302.461 30.9124 302.541 31.0355H302.651V29.9091H303.704V37.2031C303.704 37.8125 303.566 38.308 303.289 38.6896C303.015 39.0743 302.645 39.3559 302.181 39.5344C301.719 39.716 301.205 39.8068 300.639 39.8068ZM300.602 35.9105C301.039 35.9105 301.408 35.8105 301.71 35.6104C302.011 35.4104 302.241 35.1226 302.398 34.7472C302.555 34.3717 302.633 33.9223 302.633 33.3991C302.633 32.8883 302.556 32.4374 302.402 32.0465C302.248 31.6557 302.021 31.3494 301.719 31.1278C301.417 30.9062 301.045 30.7955 300.602 30.7955C300.14 30.7955 299.755 30.9124 299.448 31.1463C299.143 31.3802 298.914 31.6941 298.76 32.0881C298.609 32.482 298.534 32.919 298.534 33.3991C298.534 33.8916 298.61 34.3271 298.764 34.7056C298.921 35.0811 299.152 35.3765 299.457 35.592C299.765 35.8043 300.146 35.9105 300.602 35.9105ZM308.671 37.1477C307.988 37.1477 307.399 36.9969 306.903 36.6953C306.411 36.3906 306.031 35.9659 305.763 35.4212C305.498 34.8733 305.366 34.2363 305.366 33.5099C305.366 32.7836 305.498 32.1435 305.763 31.5895C306.031 31.0324 306.403 30.5985 306.88 30.2876C307.36 29.9737 307.92 29.8168 308.561 29.8168C308.93 29.8168 309.295 29.8783 309.655 30.0014C310.015 30.1245 310.343 30.3246 310.638 30.6016C310.933 30.8755 311.169 31.2386 311.344 31.6911C311.52 32.1435 311.607 32.7005 311.607 33.3622V33.8239H306.142V32.8821H310.499C310.499 32.482 310.419 32.125 310.259 31.8111C310.102 31.4972 309.878 31.2494 309.585 31.0678C309.296 30.8862 308.954 30.7955 308.561 30.7955C308.127 30.7955 307.751 30.9032 307.434 31.1186C307.12 31.331 306.879 31.608 306.709 31.9496C306.54 32.2912 306.455 32.6574 306.455 33.0483V33.6761C306.455 34.2116 306.548 34.6656 306.732 35.038C306.92 35.4073 307.18 35.6889 307.513 35.8828C307.845 36.0736 308.231 36.169 308.671 36.169C308.958 36.169 309.216 36.129 309.447 36.049C309.681 35.9659 309.882 35.8428 310.052 35.6797C310.221 35.5135 310.352 35.3073 310.444 35.0611L311.497 35.3565C311.386 35.7135 311.2 36.0275 310.938 36.2983C310.676 36.5661 310.353 36.7753 309.969 36.9261C309.584 37.0739 309.151 37.1477 308.671 37.1477ZM313.265 37V29.9091H314.317V30.9801H314.391C314.52 30.6293 314.754 30.3446 315.093 30.1261C315.431 29.9076 315.813 29.7983 316.238 29.7983C316.318 29.7983 316.418 29.7998 316.538 29.8029C316.658 29.806 316.749 29.8106 316.81 29.8168V30.9247C316.773 30.9155 316.689 30.9016 316.556 30.8832C316.427 30.8616 316.29 30.8509 316.145 30.8509C315.801 30.8509 315.493 30.9232 315.222 31.0678C314.954 31.2094 314.742 31.4064 314.585 31.6587C314.431 31.908 314.354 32.1927 314.354 32.5128V37H313.265ZM320.188 37.1662C319.739 37.1662 319.331 37.0816 318.965 36.9123C318.599 36.7399 318.308 36.4922 318.092 36.169C317.877 35.8428 317.769 35.4489 317.769 34.9872C317.769 34.581 317.849 34.2517 318.009 33.9993C318.169 33.7438 318.383 33.5438 318.651 33.3991C318.919 33.2545 319.214 33.1468 319.537 33.076C319.864 33.0021 320.191 32.9437 320.521 32.9006C320.952 32.8452 321.301 32.8036 321.569 32.7759C321.839 32.7451 322.036 32.6944 322.16 32.6236C322.286 32.5528 322.349 32.4297 322.349 32.2543V32.2173C322.349 31.7618 322.224 31.4079 321.975 31.1555C321.729 30.9032 321.355 30.777 320.853 30.777C320.333 30.777 319.925 30.8909 319.63 31.1186C319.334 31.3464 319.127 31.5895 319.006 31.848L317.972 31.4787C318.157 31.0478 318.403 30.7124 318.711 30.4723C319.022 30.2292 319.36 30.0599 319.727 29.9645C320.096 29.866 320.459 29.8168 320.816 29.8168C321.044 29.8168 321.305 29.8445 321.601 29.8999C321.899 29.9522 322.187 30.0614 322.464 30.2276C322.744 30.3938 322.977 30.6446 323.161 30.9801C323.346 31.3156 323.438 31.7649 323.438 32.3281V37H322.349V36.0398H322.293C322.22 36.1937 322.096 36.3583 321.924 36.5337C321.752 36.7092 321.522 36.8584 321.236 36.9815C320.95 37.1046 320.601 37.1662 320.188 37.1662ZM320.354 36.1875C320.785 36.1875 321.149 36.1029 321.444 35.9336C321.743 35.7643 321.967 35.5458 322.118 35.2781C322.272 35.0103 322.349 34.7287 322.349 34.4332V33.4361C322.303 33.4915 322.201 33.5423 322.044 33.5884C321.89 33.6315 321.712 33.67 321.509 33.7038C321.309 33.7346 321.113 33.7623 320.922 33.7869C320.735 33.8085 320.582 33.8269 320.465 33.8423C320.182 33.8793 319.917 33.9393 319.671 34.0224C319.428 34.1024 319.231 34.224 319.08 34.3871C318.933 34.5471 318.859 34.7656 318.859 35.0426C318.859 35.4212 318.999 35.7074 319.279 35.9013C319.562 36.0921 319.921 36.1875 320.354 36.1875ZM328.104 37.1477C327.513 37.1477 326.992 36.9985 326.539 36.6999C326.087 36.3983 325.733 35.9736 325.478 35.4258C325.222 34.8749 325.094 34.224 325.094 33.473C325.094 32.7282 325.222 32.0819 325.478 31.5341C325.733 30.9863 326.089 30.5631 326.544 30.2646C327 29.966 327.526 29.8168 328.123 29.8168C328.585 29.8168 328.949 29.8937 329.217 30.0476C329.488 30.1984 329.694 30.3707 329.836 30.5646C329.98 30.7554 330.093 30.9124 330.173 31.0355H330.265V27.5455H331.354V37H330.302V35.9105H330.173C330.093 36.0398 329.979 36.2029 329.831 36.3999C329.683 36.5937 329.472 36.7676 329.199 36.9215C328.925 37.0723 328.56 37.1477 328.104 37.1477ZM328.252 36.169C328.689 36.169 329.058 36.0552 329.36 35.8274C329.662 35.5966 329.891 35.2781 330.048 34.8718C330.205 34.4625 330.283 33.9901 330.283 33.4545C330.283 32.9252 330.206 32.462 330.053 32.065C329.899 31.6649 329.671 31.354 329.369 31.1325C329.068 30.9078 328.695 30.7955 328.252 30.7955C327.79 30.7955 327.406 30.9139 327.098 31.1509C326.793 31.3848 326.564 31.7034 326.41 32.1065C326.259 32.5066 326.184 32.956 326.184 33.4545C326.184 33.9593 326.261 34.4179 326.415 34.8303C326.572 35.2396 326.803 35.5658 327.107 35.8089C327.415 36.049 327.797 36.169 328.252 36.169ZM336.382 37.1477C335.742 37.1477 335.18 36.9954 334.697 36.6907C334.217 36.386 333.841 35.9598 333.57 35.4119C333.303 34.8641 333.169 34.224 333.169 33.4915C333.169 32.7528 333.303 32.1081 333.57 31.5572C333.841 31.0063 334.217 30.5785 334.697 30.2738C335.18 29.9691 335.742 29.8168 336.382 29.8168C337.022 29.8168 337.582 29.9691 338.062 30.2738C338.545 30.5785 338.921 31.0063 339.189 31.5572C339.459 32.1081 339.595 32.7528 339.595 33.4915C339.595 34.224 339.459 34.8641 339.189 35.4119C338.921 35.9598 338.545 36.386 338.062 36.6907C337.582 36.9954 337.022 37.1477 336.382 37.1477ZM336.382 36.169C336.868 36.169 337.268 36.0444 337.582 35.7951C337.896 35.5458 338.128 35.218 338.279 34.8118C338.43 34.4055 338.505 33.9654 338.505 33.4915C338.505 33.0175 338.43 32.5759 338.279 32.1665C338.128 31.7572 337.896 31.4264 337.582 31.174C337.268 30.9216 336.868 30.7955 336.382 30.7955C335.895 30.7955 335.495 30.9216 335.181 31.174C334.868 31.4264 334.635 31.7572 334.484 32.1665C334.334 32.5759 334.258 33.0175 334.258 33.4915C334.258 33.9654 334.334 34.4055 334.484 34.8118C334.635 35.218 334.868 35.5458 335.181 35.7951C335.495 36.0444 335.895 36.169 336.382 36.169ZM344.914 39.6591V29.9091H345.967V31.0355H346.096C346.176 30.9124 346.287 30.7554 346.428 30.5646C346.573 30.3707 346.779 30.1984 347.047 30.0476C347.318 29.8937 347.684 29.8168 348.146 29.8168C348.743 29.8168 349.269 29.966 349.725 30.2646C350.18 30.5631 350.535 30.9863 350.791 31.5341C351.046 32.0819 351.174 32.7282 351.174 33.473C351.174 34.224 351.046 34.8749 350.791 35.4258C350.535 35.9736 350.182 36.3983 349.729 36.6999C349.277 36.9985 348.755 37.1477 348.164 37.1477C347.709 37.1477 347.344 37.0723 347.07 36.9215C346.796 36.7676 346.585 36.5937 346.438 36.3999C346.29 36.2029 346.176 36.0398 346.096 35.9105H346.004V39.6591H344.914ZM345.985 33.4545C345.985 33.9901 346.064 34.4625 346.221 34.8718C346.378 35.2781 346.607 35.5966 346.908 35.8274C347.21 36.0552 347.579 36.169 348.016 36.169C348.472 36.169 348.852 36.049 349.157 35.8089C349.464 35.5658 349.695 35.2396 349.849 34.8303C350.006 34.4179 350.085 33.9593 350.085 33.4545C350.085 32.956 350.008 32.5066 349.854 32.1065C349.703 31.7034 349.474 31.3848 349.166 31.1509C348.861 30.9139 348.478 30.7955 348.016 30.7955C347.573 30.7955 347.201 30.9078 346.899 31.1325C346.598 31.354 346.37 31.6649 346.216 32.065C346.062 32.462 345.985 32.9252 345.985 33.4545ZM355.717 37.1477C355.077 37.1477 354.515 36.9954 354.032 36.6907C353.552 36.386 353.176 35.9598 352.905 35.4119C352.638 34.8641 352.504 34.224 352.504 33.4915C352.504 32.7528 352.638 32.1081 352.905 31.5572C353.176 31.0063 353.552 30.5785 354.032 30.2738C354.515 29.9691 355.077 29.8168 355.717 29.8168C356.357 29.8168 356.917 29.9691 357.397 30.2738C357.88 30.5785 358.256 31.0063 358.524 31.5572C358.794 32.1081 358.93 32.7528 358.93 33.4915C358.93 34.224 358.794 34.8641 358.524 35.4119C358.256 35.9598 357.88 36.386 357.397 36.6907C356.917 36.9954 356.357 37.1477 355.717 37.1477ZM355.717 36.169C356.203 36.169 356.603 36.0444 356.917 35.7951C357.231 35.5458 357.463 35.218 357.614 34.8118C357.765 34.4055 357.84 33.9654 357.84 33.4915C357.84 33.0175 357.765 32.5759 357.614 32.1665C357.463 31.7572 357.231 31.4264 356.917 31.174C356.603 30.9216 356.203 30.7955 355.717 30.7955C355.23 30.7955 354.83 30.9216 354.516 31.174C354.203 31.4264 353.97 31.7572 353.819 32.1665C353.669 32.5759 353.593 33.0175 353.593 33.4915C353.593 33.9654 353.669 34.4055 353.819 34.8118C353.97 35.218 354.203 35.5458 354.516 35.7951C354.83 36.0444 355.23 36.169 355.717 36.169ZM360.593 37V29.9091H361.645V30.9801H361.719C361.849 30.6293 362.082 30.3446 362.421 30.1261C362.76 29.9076 363.141 29.7983 363.566 29.7983C363.646 29.7983 363.746 29.7998 363.866 29.8029C363.986 29.806 364.077 29.8106 364.138 29.8168V30.9247C364.101 30.9155 364.017 30.9016 363.884 30.8832C363.755 30.8616 363.618 30.8509 363.474 30.8509C363.129 30.8509 362.821 30.9232 362.55 31.0678C362.282 31.2094 362.07 31.4064 361.913 31.6587C361.759 31.908 361.682 32.1927 361.682 32.5128V37H360.593ZM374.884 29.9091L372.262 37H371.154L368.532 29.9091H369.714L371.671 35.5597H371.745L373.703 29.9091H374.884ZM379.041 37.1477C378.358 37.1477 377.769 36.9969 377.273 36.6953C376.781 36.3906 376.401 35.9659 376.133 35.4212C375.868 34.8733 375.736 34.2363 375.736 33.5099C375.736 32.7836 375.868 32.1435 376.133 31.5895C376.401 31.0324 376.773 30.5985 377.25 30.2876C377.73 29.9737 378.291 29.8168 378.931 29.8168C379.3 29.8168 379.665 29.8783 380.025 30.0014C380.385 30.1245 380.713 30.3246 381.008 30.6016C381.304 30.8755 381.539 31.2386 381.714 31.6911C381.89 32.1435 381.978 32.7005 381.978 33.3622V33.8239H376.512V32.8821H380.87C380.87 32.482 380.79 32.125 380.63 31.8111C380.473 31.4972 380.248 31.2494 379.956 31.0678C379.666 30.8862 379.325 30.7955 378.931 30.7955C378.497 30.7955 378.121 30.9032 377.804 31.1186C377.49 31.331 377.249 31.608 377.079 31.9496C376.91 32.2912 376.826 32.6574 376.826 33.0483V33.6761C376.826 34.2116 376.918 34.6656 377.103 35.038C377.29 35.4073 377.55 35.6889 377.883 35.8828C378.215 36.0736 378.601 36.169 379.041 36.169C379.328 36.169 379.586 36.129 379.817 36.049C380.051 35.9659 380.253 35.8428 380.422 35.6797C380.591 35.5135 380.722 35.3073 380.814 35.0611L381.867 35.3565C381.756 35.7135 381.57 36.0275 381.308 36.2983C381.047 36.5661 380.723 36.7753 380.339 36.9261C379.954 37.0739 379.522 37.1477 379.041 37.1477ZM383.432 37V36.169L387.457 30.9986V30.9247H383.561V29.9091H388.861V30.777L384.946 35.9105V35.9844H388.99V37H383.432ZM391.462 37.0739C391.234 37.0739 391.039 36.9923 390.876 36.8292C390.713 36.6661 390.631 36.4706 390.631 36.2429C390.631 36.0152 390.713 35.8197 390.876 35.6566C391.039 35.4935 391.234 35.4119 391.462 35.4119C391.69 35.4119 391.885 35.4935 392.048 35.6566C392.211 35.8197 392.293 36.0152 392.293 36.2429C392.293 36.3937 392.255 36.5322 392.178 36.6584C392.104 36.7846 392.004 36.8861 391.878 36.9631C391.754 37.0369 391.616 37.0739 391.462 37.0739ZM70.1449 53V43.5455H73.3395C74.0812 43.5455 74.6875 43.6793 75.1584 43.9471C75.6323 44.2118 75.9832 44.5703 76.2109 45.0227C76.4387 45.4751 76.5526 45.9799 76.5526 46.5369C76.5526 47.094 76.4387 47.6003 76.2109 48.0558C75.9863 48.5112 75.6385 48.8744 75.1676 49.1452C74.6967 49.413 74.0935 49.5469 73.358 49.5469H71.0682V48.5312H73.321C73.8288 48.5312 74.2366 48.4435 74.5444 48.2681C74.8522 48.0927 75.0753 47.8557 75.2138 47.5572C75.3554 47.2556 75.4261 46.9155 75.4261 46.5369C75.4261 46.1584 75.3554 45.8198 75.2138 45.5213C75.0753 45.2228 74.8506 44.9889 74.5398 44.8196C74.2289 44.6473 73.8165 44.5611 73.3026 44.5611H71.2898V53H70.1449ZM81.0536 53.1477C80.4135 53.1477 79.8518 52.9954 79.3686 52.6907C78.8885 52.386 78.513 51.9598 78.2422 51.4119C77.9744 50.8641 77.8406 50.224 77.8406 49.4915C77.8406 48.7528 77.9744 48.1081 78.2422 47.5572C78.513 47.0063 78.8885 46.5785 79.3686 46.2738C79.8518 45.9691 80.4135 45.8168 81.0536 45.8168C81.6938 45.8168 82.2539 45.9691 82.734 46.2738C83.2172 46.5785 83.5927 47.0063 83.8604 47.5572C84.1313 48.1081 84.2667 48.7528 84.2667 49.4915C84.2667 50.224 84.1313 50.8641 83.8604 51.4119C83.5927 51.9598 83.2172 52.386 82.734 52.6907C82.2539 52.9954 81.6938 53.1477 81.0536 53.1477ZM81.0536 52.169C81.5399 52.169 81.94 52.0444 82.2539 51.7951C82.5678 51.5458 82.8002 51.218 82.951 50.8118C83.1018 50.4055 83.1772 49.9654 83.1772 49.4915C83.1772 49.0175 83.1018 48.5759 82.951 48.1665C82.8002 47.7572 82.5678 47.4264 82.2539 47.174C81.94 46.9216 81.5399 46.7955 81.0536 46.7955C80.5674 46.7955 80.1673 46.9216 79.8533 47.174C79.5394 47.4264 79.3071 47.7572 79.1562 48.1665C79.0054 48.5759 78.93 49.0175 78.93 49.4915C78.93 49.9654 79.0054 50.4055 79.1562 50.8118C79.3071 51.218 79.5394 51.5458 79.8533 51.7951C80.1673 52.0444 80.5674 52.169 81.0536 52.169ZM85.9298 53V45.9091H86.9823V46.9801H87.0562C87.1855 46.6293 87.4194 46.3446 87.7579 46.1261C88.0964 45.9076 88.4781 45.7983 88.9028 45.7983C88.9828 45.7983 89.0828 45.7998 89.2029 45.8029C89.3229 45.806 89.4137 45.8106 89.4752 45.8168V46.9247C89.4383 46.9155 89.3537 46.9016 89.2213 46.8832C89.0921 46.8616 88.9551 46.8509 88.8105 46.8509C88.4658 46.8509 88.158 46.9232 87.8872 47.0678C87.6194 47.2094 87.407 47.4064 87.2501 47.6587C87.0962 47.908 87.0193 48.1927 87.0193 48.5128V53H85.9298ZM97.5806 45.9091V46.8324H93.7582V45.9091H97.5806ZM94.9031 53V44.9304C94.9031 44.5241 94.9985 44.1856 95.1893 43.9148C95.3801 43.6439 95.6278 43.4408 95.9325 43.3054C96.2372 43.17 96.5588 43.1023 96.8974 43.1023C97.1651 43.1023 97.3836 43.1238 97.5529 43.1669C97.7222 43.21 97.8484 43.25 97.9315 43.2869L97.6175 44.2287C97.5621 44.2102 97.4852 44.1871 97.3867 44.1594C97.2913 44.1317 97.1651 44.1179 97.0082 44.1179C96.6481 44.1179 96.388 44.2087 96.228 44.3903C96.071 44.5719 95.9925 44.8381 95.9925 45.1889V53H94.9031ZM100.991 53.1662C100.542 53.1662 100.134 53.0816 99.7677 52.9123C99.4014 52.7399 99.1106 52.4922 98.8952 52.169C98.6797 51.8428 98.572 51.4489 98.572 50.9872C98.572 50.581 98.652 50.2517 98.8121 49.9993C98.9721 49.7438 99.186 49.5438 99.4537 49.3991C99.7215 49.2545 100.017 49.1468 100.34 49.076C100.666 49.0021 100.994 48.9437 101.323 48.9006C101.754 48.8452 102.104 48.8036 102.371 48.7759C102.642 48.7451 102.839 48.6944 102.962 48.6236C103.088 48.5528 103.152 48.4297 103.152 48.2543V48.2173C103.152 47.7618 103.027 47.4079 102.778 47.1555C102.531 46.9032 102.157 46.777 101.656 46.777C101.136 46.777 100.728 46.8909 100.432 47.1186C100.137 47.3464 99.9292 47.5895 99.8092 47.848L98.7751 47.4787C98.9598 47.0478 99.206 46.7124 99.5138 46.4723C99.8246 46.2292 100.163 46.0599 100.529 45.9645C100.899 45.866 101.262 45.8168 101.619 45.8168C101.847 45.8168 102.108 45.8445 102.404 45.8999C102.702 45.9522 102.99 46.0614 103.267 46.2276C103.547 46.3938 103.779 46.6446 103.964 46.9801C104.149 47.3156 104.241 47.7649 104.241 48.3281V53H103.152V52.0398H103.096C103.022 52.1937 102.899 52.3583 102.727 52.5337C102.554 52.7092 102.325 52.8584 102.039 52.9815C101.753 53.1046 101.403 53.1662 100.991 53.1662ZM101.157 52.1875C101.588 52.1875 101.951 52.1029 102.247 51.9336C102.545 51.7643 102.77 51.5458 102.921 51.2781C103.075 51.0103 103.152 50.7287 103.152 50.4332V49.4361C103.105 49.4915 103.004 49.5423 102.847 49.5884C102.693 49.6315 102.514 49.67 102.311 49.7038C102.111 49.7346 101.916 49.7623 101.725 49.7869C101.537 49.8085 101.385 49.8269 101.268 49.8423C100.985 49.8793 100.72 49.9393 100.474 50.0224C100.231 50.1024 100.034 50.224 99.8831 50.3871C99.7354 50.5471 99.6615 50.7656 99.6615 51.0426C99.6615 51.4212 99.8015 51.7074 100.082 51.9013C100.365 52.0921 100.723 52.1875 101.157 52.1875ZM111.774 45.9091L109.152 53H108.044L105.422 45.9091H106.604L108.561 51.5597H108.635L110.592 45.9091H111.774ZM115.839 53.1477C115.199 53.1477 114.637 52.9954 114.154 52.6907C113.674 52.386 113.298 51.9598 113.027 51.4119C112.76 50.8641 112.626 50.224 112.626 49.4915C112.626 48.7528 112.76 48.1081 113.027 47.5572C113.298 47.0063 113.674 46.5785 114.154 46.2738C114.637 45.9691 115.199 45.8168 115.839 45.8168C116.479 45.8168 117.039 45.9691 117.519 46.2738C118.002 46.5785 118.378 47.0063 118.646 47.5572C118.916 48.1081 119.052 48.7528 119.052 49.4915C119.052 50.224 118.916 50.8641 118.646 51.4119C118.378 51.9598 118.002 52.386 117.519 52.6907C117.039 52.9954 116.479 53.1477 115.839 53.1477ZM115.839 52.169C116.325 52.169 116.725 52.0444 117.039 51.7951C117.353 51.5458 117.585 51.218 117.736 50.8118C117.887 50.4055 117.962 49.9654 117.962 49.4915C117.962 49.0175 117.887 48.5759 117.736 48.1665C117.585 47.7572 117.353 47.4264 117.039 47.174C116.725 46.9216 116.325 46.7955 115.839 46.7955C115.353 46.7955 114.952 46.9216 114.638 47.174C114.325 47.4264 114.092 47.7572 113.941 48.1665C113.791 48.5759 113.715 49.0175 113.715 49.4915C113.715 49.9654 113.791 50.4055 113.941 50.8118C114.092 51.218 114.325 51.5458 114.638 51.7951C114.952 52.0444 115.353 52.169 115.839 52.169ZM120.715 53V45.9091H121.767V46.9801H121.841C121.971 46.6293 122.205 46.3446 122.543 46.1261C122.882 45.9076 123.263 45.7983 123.688 45.7983C123.768 45.7983 123.868 45.7998 123.988 45.8029C124.108 45.806 124.199 45.8106 124.26 45.8168V46.9247C124.223 46.9155 124.139 46.9016 124.006 46.8832C123.877 46.8616 123.74 46.8509 123.596 46.8509C123.251 46.8509 122.943 46.9232 122.672 47.0678C122.405 47.2094 122.192 47.4064 122.035 47.6587C121.881 47.908 121.804 48.1927 121.804 48.5128V53H120.715ZM126.364 51.7074L126.29 52.206C126.238 52.5568 126.158 52.9323 126.05 53.3324C125.946 53.7325 125.837 54.1095 125.723 54.4634C125.609 54.8174 125.515 55.099 125.441 55.3082H124.61C124.65 55.1113 124.702 54.8512 124.767 54.5281C124.832 54.2049 124.896 53.8433 124.961 53.4432C125.029 53.0462 125.084 52.6399 125.127 52.2244L125.183 51.7074H126.364ZM135.197 45.9091V46.8324H131.374V45.9091H135.197ZM132.519 53V44.9304C132.519 44.5241 132.615 44.1856 132.805 43.9148C132.996 43.6439 133.244 43.4408 133.549 43.3054C133.853 43.17 134.175 43.1023 134.514 43.1023C134.781 43.1023 135 43.1238 135.169 43.1669C135.338 43.21 135.465 43.25 135.548 43.2869L135.234 44.2287C135.178 44.2102 135.101 44.1871 135.003 44.1594C134.908 44.1317 134.781 44.1179 134.624 44.1179C134.264 44.1179 134.004 44.2087 133.844 44.3903C133.687 44.5719 133.609 44.8381 133.609 45.1889V53H132.519ZM139.312 53.1477C138.672 53.1477 138.111 52.9954 137.627 52.6907C137.147 52.386 136.772 51.9598 136.501 51.4119C136.233 50.8641 136.099 50.224 136.099 49.4915C136.099 48.7528 136.233 48.1081 136.501 47.5572C136.772 47.0063 137.147 46.5785 137.627 46.2738C138.111 45.9691 138.672 45.8168 139.312 45.8168C139.953 45.8168 140.513 45.9691 140.993 46.2738C141.476 46.5785 141.851 47.0063 142.119 47.5572C142.39 48.1081 142.525 48.7528 142.525 49.4915C142.525 50.224 142.39 50.8641 142.119 51.4119C141.851 51.9598 141.476 52.386 140.993 52.6907C140.513 52.9954 139.953 53.1477 139.312 53.1477ZM139.312 52.169C139.799 52.169 140.199 52.0444 140.513 51.7951C140.827 51.5458 141.059 51.218 141.21 50.8118C141.361 50.4055 141.436 49.9654 141.436 49.4915C141.436 49.0175 141.361 48.5759 141.21 48.1665C141.059 47.7572 140.827 47.4264 140.513 47.174C140.199 46.9216 139.799 46.7955 139.312 46.7955C138.826 46.7955 138.426 46.9216 138.112 47.174C137.798 47.4264 137.566 47.7572 137.415 48.1665C137.264 48.5759 137.189 49.0175 137.189 49.4915C137.189 49.9654 137.264 50.4055 137.415 50.8118C137.566 51.218 137.798 51.5458 138.112 51.7951C138.426 52.0444 138.826 52.169 139.312 52.169ZM144.189 53V45.9091H145.241V46.9801H145.315C145.444 46.6293 145.678 46.3446 146.017 46.1261C146.355 45.9076 146.737 45.7983 147.162 45.7983C147.242 45.7983 147.342 45.7998 147.462 45.8029C147.582 45.806 147.672 45.8106 147.734 45.8168V46.9247C147.697 46.9155 147.612 46.9016 147.48 46.8832C147.351 46.8616 147.214 46.8509 147.069 46.8509C146.725 46.8509 146.417 46.9232 146.146 47.0678C145.878 47.2094 145.666 47.4064 145.509 47.6587C145.355 47.908 145.278 48.1927 145.278 48.5128V53H144.189ZM150.115 48.7344V53H149.025V45.9091H150.078V47.017H150.17C150.337 46.657 150.589 46.3677 150.927 46.1491C151.266 45.9276 151.703 45.8168 152.239 45.8168C152.719 45.8168 153.139 45.9152 153.499 46.1122C153.859 46.3061 154.139 46.6016 154.339 46.9986C154.539 47.3925 154.639 47.8911 154.639 48.4943V53H153.55V48.5682C153.55 48.0111 153.405 47.5772 153.116 47.2663C152.826 46.9524 152.429 46.7955 151.925 46.7955C151.577 46.7955 151.266 46.8709 150.992 47.0217C150.721 47.1725 150.507 47.3925 150.35 47.6818C150.193 47.9711 150.115 48.322 150.115 48.7344ZM159.603 53.1477C158.92 53.1477 158.33 52.9969 157.835 52.6953C157.342 52.3906 156.962 51.9659 156.695 51.4212C156.43 50.8733 156.298 50.2363 156.298 49.5099C156.298 48.7836 156.43 48.1435 156.695 47.5895C156.962 47.0324 157.335 46.5985 157.812 46.2876C158.292 45.9737 158.852 45.8168 159.492 45.8168C159.862 45.8168 160.226 45.8783 160.586 46.0014C160.946 46.1245 161.274 46.3246 161.57 46.6016C161.865 46.8755 162.1 47.2386 162.276 47.6911C162.451 48.1435 162.539 48.7005 162.539 49.3622V49.8239H157.073V48.8821H161.431C161.431 48.482 161.351 48.125 161.191 47.8111C161.034 47.4972 160.809 47.2494 160.517 47.0678C160.228 46.8862 159.886 46.7955 159.492 46.7955C159.058 46.7955 158.683 46.9032 158.366 47.1186C158.052 47.331 157.81 47.608 157.641 47.9496C157.472 48.2912 157.387 48.6574 157.387 49.0483V49.6761C157.387 50.2116 157.479 50.6656 157.664 51.038C157.852 51.4073 158.112 51.6889 158.444 51.8828C158.777 52.0736 159.163 52.169 159.603 52.169C159.889 52.169 160.148 52.129 160.379 52.049C160.612 51.9659 160.814 51.8428 160.983 51.6797C161.153 51.5135 161.283 51.3073 161.376 51.0611L162.428 51.3565C162.317 51.7135 162.131 52.0275 161.87 52.2983C161.608 52.5661 161.285 52.7753 160.9 52.9261C160.516 53.0739 160.083 53.1477 159.603 53.1477ZM167.077 53.1477C166.412 53.1477 165.84 52.9908 165.36 52.6768C164.88 52.3629 164.51 51.9305 164.252 51.3796C163.993 50.8287 163.864 50.1993 163.864 49.4915C163.864 48.7713 163.996 48.1358 164.261 47.5849C164.529 47.0309 164.901 46.5985 165.378 46.2876C165.858 45.9737 166.418 45.8168 167.059 45.8168C167.557 45.8168 168.007 45.9091 168.407 46.0938C168.807 46.2784 169.134 46.5369 169.39 46.8693C169.645 47.2017 169.804 47.5895 169.865 48.0327H168.776C168.693 47.7095 168.508 47.4233 168.222 47.174C167.939 46.9216 167.557 46.7955 167.077 46.7955C166.652 46.7955 166.28 46.9062 165.96 47.1278C165.643 47.3464 165.395 47.6557 165.217 48.0558C165.041 48.4528 164.953 48.919 164.953 49.4545C164.953 50.0024 165.04 50.4794 165.212 50.8857C165.387 51.2919 165.634 51.6074 165.951 51.832C166.271 52.0567 166.646 52.169 167.077 52.169C167.36 52.169 167.617 52.1198 167.848 52.0213C168.079 51.9228 168.274 51.7812 168.434 51.5966C168.594 51.4119 168.708 51.1903 168.776 50.9318H169.865C169.804 51.3504 169.652 51.7274 169.408 52.0629C169.168 52.3952 168.85 52.6599 168.453 52.8569C168.059 53.0508 167.6 53.1477 167.077 53.1477ZM166.56 52.9631H167.465L167.391 53.3324C167.631 53.3693 167.851 53.4693 168.051 53.6325C168.251 53.7987 168.351 54.0618 168.351 54.4219C168.351 54.8189 168.187 55.142 167.857 55.3913C167.531 55.6437 167.049 55.7699 166.412 55.7699L166.375 55.0497C166.662 55.0497 166.899 55.0036 167.086 54.9112C167.277 54.822 167.373 54.6712 167.373 54.4588C167.373 54.2464 167.294 54.1018 167.137 54.0249C166.98 53.9479 166.726 53.8956 166.375 53.8679L166.56 52.9631ZM173.545 53.1662C173.095 53.1662 172.688 53.0816 172.321 52.9123C171.955 52.7399 171.664 52.4922 171.449 52.169C171.233 51.8428 171.126 51.4489 171.126 50.9872C171.126 50.581 171.206 50.2517 171.366 49.9993C171.526 49.7438 171.74 49.5438 172.007 49.3991C172.275 49.2545 172.571 49.1468 172.894 49.076C173.22 49.0021 173.548 48.9437 173.877 48.9006C174.308 48.8452 174.657 48.8036 174.925 48.7759C175.196 48.7451 175.393 48.6944 175.516 48.6236C175.642 48.5528 175.705 48.4297 175.705 48.2543V48.2173C175.705 47.7618 175.581 47.4079 175.331 47.1555C175.085 46.9032 174.711 46.777 174.21 46.777C173.689 46.777 173.282 46.8909 172.986 47.1186C172.691 47.3464 172.483 47.5895 172.363 47.848L171.329 47.4787C171.513 47.0478 171.76 46.7124 172.067 46.4723C172.378 46.2292 172.717 46.0599 173.083 45.9645C173.452 45.866 173.816 45.8168 174.173 45.8168C174.4 45.8168 174.662 45.8445 174.957 45.8999C175.256 45.9522 175.544 46.0614 175.821 46.2276C176.101 46.3938 176.333 46.6446 176.518 46.9801C176.702 47.3156 176.795 47.7649 176.795 48.3281V53H175.705V52.0398H175.65C175.576 52.1937 175.453 52.3583 175.281 52.5337C175.108 52.7092 174.879 52.8584 174.593 52.9815C174.306 53.1046 173.957 53.1662 173.545 53.1662ZM173.711 52.1875C174.142 52.1875 174.505 52.1029 174.8 51.9336C175.099 51.7643 175.324 51.5458 175.474 51.2781C175.628 51.0103 175.705 50.7287 175.705 50.4332V49.4361C175.659 49.4915 175.558 49.5423 175.401 49.5884C175.247 49.6315 175.068 49.67 174.865 49.7038C174.665 49.7346 174.47 49.7623 174.279 49.7869C174.091 49.8085 173.939 49.8269 173.822 49.8423C173.539 49.8793 173.274 49.9393 173.028 50.0224C172.785 50.1024 172.588 50.224 172.437 50.3871C172.289 50.5471 172.215 50.7656 172.215 51.0426C172.215 51.4212 172.355 51.7074 172.635 51.9013C172.918 52.0921 173.277 52.1875 173.711 52.1875ZM184.526 53.1662C184.077 53.1662 183.669 53.0816 183.303 52.9123C182.937 52.7399 182.646 52.4922 182.43 52.169C182.215 51.8428 182.107 51.4489 182.107 50.9872C182.107 50.581 182.187 50.2517 182.347 49.9993C182.507 49.7438 182.721 49.5438 182.989 49.3991C183.257 49.2545 183.552 49.1468 183.875 49.076C184.201 49.0021 184.529 48.9437 184.859 48.9006C185.289 48.8452 185.639 48.8036 185.907 48.7759C186.177 48.7451 186.374 48.6944 186.497 48.6236C186.624 48.5528 186.687 48.4297 186.687 48.2543V48.2173C186.687 47.7618 186.562 47.4079 186.313 47.1555C186.067 46.9032 185.693 46.777 185.191 46.777C184.671 46.777 184.263 46.8909 183.968 47.1186C183.672 47.3464 183.464 47.5895 183.344 47.848L182.31 47.4787C182.495 47.0478 182.741 46.7124 183.049 46.4723C183.36 46.2292 183.698 46.0599 184.065 45.9645C184.434 45.866 184.797 45.8168 185.154 45.8168C185.382 45.8168 185.643 45.8445 185.939 45.8999C186.237 45.9522 186.525 46.0614 186.802 46.2276C187.082 46.3938 187.315 46.6446 187.499 46.9801C187.684 47.3156 187.776 47.7649 187.776 48.3281V53H186.687V52.0398H186.631C186.557 52.1937 186.434 52.3583 186.262 52.5337C186.09 52.7092 185.86 52.8584 185.574 52.9815C185.288 53.1046 184.939 53.1662 184.526 53.1662ZM184.692 52.1875C185.123 52.1875 185.486 52.1029 185.782 51.9336C186.08 51.7643 186.305 51.5458 186.456 51.2781C186.61 51.0103 186.687 50.7287 186.687 50.4332V49.4361C186.641 49.4915 186.539 49.5423 186.382 49.5884C186.228 49.6315 186.05 49.67 185.847 49.7038C185.646 49.7346 185.451 49.7623 185.26 49.7869C185.072 49.8085 184.92 49.8269 184.803 49.8423C184.52 49.8793 184.255 49.9393 184.009 50.0224C183.766 50.1024 183.569 50.224 183.418 50.3871C183.271 50.5471 183.197 50.7656 183.197 51.0426C183.197 51.4212 183.337 51.7074 183.617 51.9013C183.9 52.0921 184.258 52.1875 184.692 52.1875ZM189.765 55.6591V45.9091H190.817V47.0355H190.947C191.027 46.9124 191.137 46.7554 191.279 46.5646C191.424 46.3707 191.63 46.1984 191.898 46.0476C192.168 45.8937 192.535 45.8168 192.996 45.8168C193.593 45.8168 194.12 45.966 194.575 46.2646C195.031 46.5631 195.386 46.9863 195.642 47.5341C195.897 48.0819 196.025 48.7282 196.025 49.473C196.025 50.224 195.897 50.8749 195.642 51.4258C195.386 51.9736 195.032 52.3983 194.58 52.6999C194.127 52.9985 193.606 53.1477 193.015 53.1477C192.559 53.1477 192.195 53.0723 191.921 52.9215C191.647 52.7676 191.436 52.5937 191.288 52.3999C191.14 52.2029 191.027 52.0398 190.947 51.9105H190.854V55.6591H189.765ZM190.836 49.4545C190.836 49.9901 190.914 50.4625 191.071 50.8718C191.228 51.2781 191.457 51.5966 191.759 51.8274C192.061 52.0552 192.43 52.169 192.867 52.169C193.323 52.169 193.703 52.049 194.007 51.8089C194.315 51.5658 194.546 51.2396 194.7 50.8303C194.857 50.4179 194.935 49.9593 194.935 49.4545C194.935 48.956 194.858 48.5066 194.704 48.1065C194.554 47.7034 194.324 47.3848 194.017 47.1509C193.712 46.9139 193.329 46.7955 192.867 46.7955C192.424 46.7955 192.051 46.9078 191.75 47.1325C191.448 47.354 191.22 47.6649 191.067 48.065C190.913 48.462 190.836 48.9252 190.836 49.4545ZM200.66 53.1477C199.976 53.1477 199.387 52.9969 198.892 52.6953C198.399 52.3906 198.019 51.9659 197.751 51.4212C197.487 50.8733 197.354 50.2363 197.354 49.5099C197.354 48.7836 197.487 48.1435 197.751 47.5895C198.019 47.0324 198.391 46.5985 198.868 46.2876C199.349 45.9737 199.909 45.8168 200.549 45.8168C200.918 45.8168 201.283 45.8783 201.643 46.0014C202.003 46.1245 202.331 46.3246 202.626 46.6016C202.922 46.8755 203.157 47.2386 203.333 47.6911C203.508 48.1435 203.596 48.7005 203.596 49.3622V49.8239H198.13V48.8821H202.488C202.488 48.482 202.408 48.125 202.248 47.8111C202.091 47.4972 201.866 47.2494 201.574 47.0678C201.284 46.8862 200.943 46.7955 200.549 46.7955C200.115 46.7955 199.739 46.9032 199.422 47.1186C199.108 47.331 198.867 47.608 198.698 47.9496C198.528 48.2912 198.444 48.6574 198.444 49.0483V49.6761C198.444 50.2116 198.536 50.6656 198.721 51.038C198.908 51.4073 199.169 51.6889 199.501 51.8828C199.833 52.0736 200.22 52.169 200.66 52.169C200.946 52.169 201.204 52.129 201.435 52.049C201.669 51.9659 201.871 51.8428 202.04 51.6797C202.209 51.5135 202.34 51.3073 202.432 51.0611L203.485 51.3565C203.374 51.7135 203.188 52.0275 202.926 52.2983C202.665 52.5661 202.342 52.7753 201.957 52.9261C201.572 53.0739 201.14 53.1477 200.66 53.1477ZM206.343 48.7344V53H205.253V45.9091H206.306V47.017H206.398C206.564 46.657 206.816 46.3677 207.155 46.1491C207.494 45.9276 207.931 45.8168 208.466 45.8168C208.946 45.8168 209.366 45.9152 209.726 46.1122C210.086 46.3061 210.367 46.6016 210.567 46.9986C210.767 47.3925 210.867 47.8911 210.867 48.4943V53H209.777V48.5682C209.777 48.0111 209.633 47.5772 209.343 47.2663C209.054 46.9524 208.657 46.7955 208.152 46.7955C207.804 46.7955 207.494 46.8709 207.22 47.0217C206.949 47.1725 206.735 47.3925 206.578 47.6818C206.421 47.9711 206.343 48.322 206.343 48.7344ZM214.944 53.1662C214.495 53.1662 214.087 53.0816 213.721 52.9123C213.355 52.7399 213.064 52.4922 212.848 52.169C212.633 51.8428 212.525 51.4489 212.525 50.9872C212.525 50.581 212.605 50.2517 212.765 49.9993C212.925 49.7438 213.139 49.5438 213.407 49.3991C213.675 49.2545 213.97 49.1468 214.293 49.076C214.619 49.0021 214.947 48.9437 215.277 48.9006C215.707 48.8452 216.057 48.8036 216.324 48.7759C216.595 48.7451 216.792 48.6944 216.915 48.6236C217.042 48.5528 217.105 48.4297 217.105 48.2543V48.2173C217.105 47.7618 216.98 47.4079 216.731 47.1555C216.485 46.9032 216.111 46.777 215.609 46.777C215.089 46.777 214.681 46.8909 214.386 47.1186C214.09 47.3464 213.882 47.5895 213.762 47.848L212.728 47.4787C212.913 47.0478 213.159 46.7124 213.467 46.4723C213.778 46.2292 214.116 46.0599 214.483 45.9645C214.852 45.866 215.215 45.8168 215.572 45.8168C215.8 45.8168 216.061 45.8445 216.357 45.8999C216.655 45.9522 216.943 46.0614 217.22 46.2276C217.5 46.3938 217.733 46.6446 217.917 46.9801C218.102 47.3156 218.194 47.7649 218.194 48.3281V53H217.105V52.0398H217.049C216.975 52.1937 216.852 52.3583 216.68 52.5337C216.508 52.7092 216.278 52.8584 215.992 52.9815C215.706 53.1046 215.357 53.1662 214.944 53.1662ZM215.11 52.1875C215.541 52.1875 215.904 52.1029 216.2 51.9336C216.498 51.7643 216.723 51.5458 216.874 51.2781C217.028 51.0103 217.105 50.7287 217.105 50.4332V49.4361C217.059 49.4915 216.957 49.5423 216.8 49.5884C216.646 49.6315 216.468 49.67 216.264 49.7038C216.064 49.7346 215.869 49.7623 215.678 49.7869C215.49 49.8085 215.338 49.8269 215.221 49.8423C214.938 49.8793 214.673 49.9393 214.427 50.0224C214.184 50.1024 213.987 50.224 213.836 50.3871C213.688 50.5471 213.615 50.7656 213.615 51.0426C213.615 51.4212 213.755 51.7074 214.035 51.9013C214.318 52.0921 214.676 52.1875 215.11 52.1875ZM225.205 47.4972L224.227 47.7741C224.165 47.611 224.074 47.4525 223.954 47.2987C223.837 47.1417 223.677 47.0124 223.474 46.9109C223.271 46.8093 223.011 46.7585 222.694 46.7585C222.26 46.7585 221.898 46.8585 221.609 47.0586C221.323 47.2556 221.18 47.5064 221.18 47.8111C221.18 48.0819 221.278 48.2958 221.475 48.4528C221.672 48.6097 221.98 48.7405 222.399 48.8452L223.451 49.1037C224.085 49.2576 224.558 49.493 224.868 49.81C225.179 50.1239 225.335 50.5286 225.335 51.0241C225.335 51.4304 225.218 51.7936 224.984 52.1136C224.753 52.4337 224.43 52.6861 224.014 52.8707C223.599 53.0554 223.116 53.1477 222.565 53.1477C221.842 53.1477 221.243 52.9908 220.769 52.6768C220.295 52.3629 219.995 51.9044 219.869 51.3011L220.903 51.0426C221.001 51.4242 221.188 51.7105 221.461 51.9013C221.738 52.0921 222.1 52.1875 222.546 52.1875C223.054 52.1875 223.457 52.0798 223.756 51.8643C224.057 51.6458 224.208 51.3842 224.208 51.0795C224.208 50.8333 224.122 50.6271 223.95 50.4609C223.777 50.2917 223.513 50.1655 223.156 50.0824L221.974 49.8054C221.325 49.6515 220.847 49.413 220.543 49.0898C220.241 48.7636 220.09 48.3558 220.09 47.8665C220.09 47.4664 220.203 47.1125 220.427 46.8047C220.655 46.4969 220.964 46.2553 221.355 46.0799C221.749 45.9045 222.195 45.8168 222.694 45.8168C223.396 45.8168 223.947 45.9706 224.347 46.2784C224.75 46.5862 225.036 46.9924 225.205 47.4972ZM235.1 50.1009V45.9091H236.189V53H235.1V51.7997H235.026C234.86 52.1598 234.601 52.466 234.25 52.7184C233.899 52.9677 233.456 53.0923 232.921 53.0923C232.478 53.0923 232.084 52.9954 231.739 52.8015C231.394 52.6045 231.123 52.3091 230.926 51.9151C230.729 51.5181 230.631 51.018 230.631 50.4148V45.9091H231.72V50.3409C231.72 50.858 231.865 51.2704 232.154 51.5781C232.447 51.8859 232.819 52.0398 233.272 52.0398C233.542 52.0398 233.818 51.9705 234.098 51.832C234.381 51.6935 234.618 51.4812 234.809 51.195C235.003 50.9087 235.1 50.544 235.1 50.1009ZM238.185 53V45.9091H239.237V47.017H239.33C239.477 46.6385 239.716 46.3446 240.045 46.1353C240.374 45.9229 240.77 45.8168 241.232 45.8168C241.699 45.8168 242.089 45.9229 242.4 46.1353C242.713 46.3446 242.958 46.6385 243.134 47.017H243.207C243.389 46.6508 243.661 46.36 244.025 46.1445C244.388 45.926 244.823 45.8168 245.331 45.8168C245.965 45.8168 246.484 46.0153 246.887 46.4123C247.29 46.8062 247.491 47.4202 247.491 48.2543V53H246.402V48.2543C246.402 47.7311 246.259 47.3571 245.973 47.1325C245.686 46.9078 245.349 46.7955 244.962 46.7955C244.463 46.7955 244.077 46.9463 243.803 47.2479C243.529 47.5464 243.392 47.925 243.392 48.3835V53H242.284V48.1435C242.284 47.7403 242.153 47.4156 241.892 47.1694C241.63 46.9201 241.293 46.7955 240.881 46.7955C240.598 46.7955 240.333 46.8709 240.087 47.0217C239.844 47.1725 239.647 47.3817 239.496 47.6495C239.348 47.9142 239.274 48.2204 239.274 48.5682V53H238.185ZM256.02 53.1477C255.356 53.1477 254.783 52.9908 254.303 52.6768C253.823 52.3629 253.454 51.9305 253.195 51.3796C252.937 50.8287 252.807 50.1993 252.807 49.4915C252.807 48.7713 252.94 48.1358 253.204 47.5849C253.472 47.0309 253.845 46.5985 254.322 46.2876C254.802 45.9737 255.362 45.8168 256.002 45.8168C256.501 45.8168 256.95 45.9091 257.35 46.0938C257.75 46.2784 258.078 46.5369 258.333 46.8693C258.589 47.2017 258.747 47.5895 258.809 48.0327H257.719C257.636 47.7095 257.452 47.4233 257.165 47.174C256.882 46.9216 256.501 46.7955 256.02 46.7955C255.596 46.7955 255.223 46.9062 254.903 47.1278C254.586 47.3464 254.338 47.6557 254.16 48.0558C253.985 48.4528 253.897 48.919 253.897 49.4545C253.897 50.0024 253.983 50.4794 254.155 50.8857C254.331 51.2919 254.577 51.6074 254.894 51.832C255.214 52.0567 255.59 52.169 256.02 52.169C256.304 52.169 256.561 52.1198 256.791 52.0213C257.022 51.9228 257.218 51.7812 257.378 51.5966C257.538 51.4119 257.652 51.1903 257.719 50.9318H258.809C258.747 51.3504 258.595 51.7274 258.352 52.0629C258.112 52.3952 257.793 52.6599 257.396 52.8569C257.002 53.0508 256.544 53.1477 256.02 53.1477ZM263.282 53.1477C262.642 53.1477 262.08 52.9954 261.597 52.6907C261.117 52.386 260.742 51.9598 260.471 51.4119C260.203 50.8641 260.069 50.224 260.069 49.4915C260.069 48.7528 260.203 48.1081 260.471 47.5572C260.742 47.0063 261.117 46.5785 261.597 46.2738C262.08 45.9691 262.642 45.8168 263.282 45.8168C263.922 45.8168 264.482 45.9691 264.963 46.2738C265.446 46.5785 265.821 47.0063 266.089 47.5572C266.36 48.1081 266.495 48.7528 266.495 49.4915C266.495 50.224 266.36 50.8641 266.089 51.4119C265.821 51.9598 265.446 52.386 264.963 52.6907C264.482 52.9954 263.922 53.1477 263.282 53.1477ZM263.282 52.169C263.768 52.169 264.169 52.0444 264.482 51.7951C264.796 51.5458 265.029 51.218 265.18 50.8118C265.33 50.4055 265.406 49.9654 265.406 49.4915C265.406 49.0175 265.33 48.5759 265.18 48.1665C265.029 47.7572 264.796 47.4264 264.482 47.174C264.169 46.9216 263.768 46.7955 263.282 46.7955C262.796 46.7955 262.396 46.9216 262.082 47.174C261.768 47.4264 261.536 47.7572 261.385 48.1665C261.234 48.5759 261.159 49.0175 261.159 49.4915C261.159 49.9654 261.234 50.4055 261.385 50.8118C261.536 51.218 261.768 51.5458 262.082 51.7951C262.396 52.0444 262.796 52.169 263.282 52.169ZM262.784 44.9489L263.91 42.8068H265.184L263.744 44.9489H262.784ZM270.836 53.1477C270.245 53.1477 269.723 52.9985 269.271 52.6999C268.818 52.3983 268.465 51.9736 268.209 51.4258C267.954 50.8749 267.826 50.224 267.826 49.473C267.826 48.7282 267.954 48.0819 268.209 47.5341C268.465 46.9863 268.82 46.5631 269.275 46.2646C269.731 45.966 270.257 45.8168 270.854 45.8168C271.316 45.8168 271.681 45.8937 271.948 46.0476C272.219 46.1984 272.425 46.3707 272.567 46.5646C272.712 46.7554 272.824 46.9124 272.904 47.0355H272.996V43.5455H274.086V53H273.033V51.9105H272.904C272.824 52.0398 272.71 52.2029 272.562 52.3999C272.415 52.5937 272.204 52.7676 271.93 52.9215C271.656 53.0723 271.291 53.1477 270.836 53.1477ZM270.984 52.169C271.421 52.169 271.79 52.0552 272.092 51.8274C272.393 51.5966 272.622 51.2781 272.779 50.8718C272.936 50.4625 273.015 49.9901 273.015 49.4545C273.015 48.9252 272.938 48.462 272.784 48.065C272.63 47.6649 272.402 47.354 272.101 47.1325C271.799 46.9078 271.427 46.7955 270.984 46.7955C270.522 46.7955 270.137 46.9139 269.829 47.1509C269.525 47.3848 269.295 47.7034 269.142 48.1065C268.991 48.5066 268.915 48.956 268.915 49.4545C268.915 49.9593 268.992 50.4179 269.146 50.8303C269.303 51.2396 269.534 51.5658 269.839 51.8089C270.146 52.049 270.528 52.169 270.984 52.169ZM276.233 53V45.9091H277.322V53H276.233ZM276.786 44.7273C276.574 44.7273 276.391 44.6549 276.237 44.5103C276.086 44.3656 276.011 44.1918 276.011 43.9886C276.011 43.7855 276.086 43.6116 276.237 43.467C276.391 43.3223 276.574 43.25 276.786 43.25C276.999 43.25 277.18 43.3223 277.331 43.467C277.485 43.6116 277.562 43.7855 277.562 43.9886C277.562 44.1918 277.485 44.3656 277.331 44.5103C277.18 44.6549 276.999 44.7273 276.786 44.7273ZM282.18 55.8068C281.653 55.8068 281.201 55.7391 280.822 55.6037C280.444 55.4714 280.128 55.2959 279.876 55.0774C279.627 54.862 279.428 54.6312 279.281 54.3849L280.148 53.7756C280.247 53.9048 280.372 54.0526 280.522 54.2188C280.673 54.388 280.879 54.5342 281.141 54.6573C281.406 54.7835 281.752 54.8466 282.18 54.8466C282.752 54.8466 283.225 54.7081 283.597 54.4311C283.969 54.1541 284.156 53.7202 284.156 53.1293V51.6889H284.063C283.983 51.8182 283.869 51.9782 283.722 52.169C283.577 52.3568 283.368 52.5245 283.094 52.6722C282.823 52.8169 282.457 52.8892 281.995 52.8892C281.423 52.8892 280.909 52.7538 280.453 52.483C280.001 52.2121 279.642 51.8182 279.377 51.3011C279.116 50.7841 278.985 50.1562 278.985 49.4176C278.985 48.6913 279.113 48.0588 279.368 47.5202C279.624 46.9786 279.979 46.56 280.435 46.2646C280.89 45.966 281.416 45.8168 282.013 45.8168C282.475 45.8168 282.841 45.8937 283.112 46.0476C283.386 46.1984 283.595 46.3707 283.74 46.5646C283.888 46.7554 284.002 46.9124 284.082 47.0355H284.192V45.9091H285.245V53.2031C285.245 53.8125 285.107 54.308 284.83 54.6896C284.556 55.0743 284.186 55.3559 283.722 55.5344C283.26 55.716 282.746 55.8068 282.18 55.8068ZM282.143 51.9105C282.58 51.9105 282.949 51.8105 283.251 51.6104C283.552 51.4104 283.782 51.1226 283.939 50.7472C284.096 50.3717 284.174 49.9223 284.174 49.3991C284.174 48.8883 284.097 48.4374 283.943 48.0465C283.789 47.6557 283.562 47.3494 283.26 47.1278C282.958 46.9062 282.586 46.7955 282.143 46.7955C281.681 46.7955 281.296 46.9124 280.989 47.1463C280.684 47.3802 280.455 47.6941 280.301 48.0881C280.15 48.482 280.075 48.919 280.075 49.3991C280.075 49.8916 280.152 50.3271 280.305 50.7056C280.462 51.0811 280.693 51.3765 280.998 51.592C281.306 51.8043 281.687 51.9105 282.143 51.9105ZM290.12 53.1477C289.48 53.1477 288.918 52.9954 288.435 52.6907C287.955 52.386 287.579 51.9598 287.309 51.4119C287.041 50.8641 286.907 50.224 286.907 49.4915C286.907 48.7528 287.041 48.1081 287.309 47.5572C287.579 47.0063 287.955 46.5785 288.435 46.2738C288.918 45.9691 289.48 45.8168 290.12 45.8168C290.76 45.8168 291.32 45.9691 291.8 46.2738C292.284 46.5785 292.659 47.0063 292.927 47.5572C293.198 48.1081 293.333 48.7528 293.333 49.4915C293.333 50.224 293.198 50.8641 292.927 51.4119C292.659 51.9598 292.284 52.386 291.8 52.6907C291.32 52.9954 290.76 53.1477 290.12 53.1477ZM290.12 52.169C290.606 52.169 291.006 52.0444 291.32 51.7951C291.634 51.5458 291.867 51.218 292.017 50.8118C292.168 50.4055 292.244 49.9654 292.244 49.4915C292.244 49.0175 292.168 48.5759 292.017 48.1665C291.867 47.7572 291.634 47.4264 291.32 47.174C291.006 46.9216 290.606 46.7955 290.12 46.7955C289.634 46.7955 289.234 46.9216 288.92 47.174C288.606 47.4264 288.373 47.7572 288.223 48.1665C288.072 48.5759 287.996 49.0175 287.996 49.4915C287.996 49.9654 288.072 50.4055 288.223 50.8118C288.373 51.218 288.606 51.5458 288.92 51.7951C289.234 52.0444 289.634 52.169 290.12 52.169ZM301.33 53.1477C300.739 53.1477 300.217 52.9985 299.765 52.6999C299.313 52.3983 298.959 51.9736 298.703 51.4258C298.448 50.8749 298.32 50.224 298.32 49.473C298.32 48.7282 298.448 48.0819 298.703 47.5341C298.959 46.9863 299.314 46.5631 299.77 46.2646C300.225 45.966 300.751 45.8168 301.348 45.8168C301.81 45.8168 302.175 45.8937 302.443 46.0476C302.713 46.1984 302.92 46.3707 303.061 46.5646C303.206 46.7554 303.318 46.9124 303.398 47.0355H303.491V43.5455H304.58V53H303.527V51.9105H303.398C303.318 52.0398 303.204 52.2029 303.057 52.3999C302.909 52.5937 302.698 52.7676 302.424 52.9215C302.15 53.0723 301.785 53.1477 301.33 53.1477ZM301.478 52.169C301.915 52.169 302.284 52.0552 302.586 51.8274C302.887 51.5966 303.117 51.2781 303.274 50.8718C303.43 50.4625 303.509 49.9901 303.509 49.4545C303.509 48.9252 303.432 48.462 303.278 48.065C303.124 47.6649 302.897 47.354 302.595 47.1325C302.293 46.9078 301.921 46.7955 301.478 46.7955C301.016 46.7955 300.631 46.9139 300.324 47.1509C300.019 47.3848 299.79 47.7034 299.636 48.1065C299.485 48.5066 299.41 48.956 299.41 49.4545C299.41 49.9593 299.486 50.4179 299.64 50.8303C299.797 51.2396 300.028 51.5658 300.333 51.8089C300.641 52.049 301.022 52.169 301.478 52.169ZM309.7 53.1477C309.016 53.1477 308.427 52.9969 307.932 52.6953C307.439 52.3906 307.059 51.9659 306.791 51.4212C306.527 50.8733 306.394 50.2363 306.394 49.5099C306.394 48.7836 306.527 48.1435 306.791 47.5895C307.059 47.0324 307.431 46.5985 307.908 46.2876C308.389 45.9737 308.949 45.8168 309.589 45.8168C309.958 45.8168 310.323 45.8783 310.683 46.0014C311.043 46.1245 311.371 46.3246 311.666 46.6016C311.962 46.8755 312.197 47.2386 312.373 47.6911C312.548 48.1435 312.636 48.7005 312.636 49.3622V49.8239H307.17V48.8821H311.528C311.528 48.482 311.448 48.125 311.288 47.8111C311.131 47.4972 310.906 47.2494 310.614 47.0678C310.324 46.8862 309.983 46.7955 309.589 46.7955C309.155 46.7955 308.779 46.9032 308.462 47.1186C308.149 47.331 307.907 47.608 307.738 47.9496C307.568 48.2912 307.484 48.6574 307.484 49.0483V49.6761C307.484 50.2116 307.576 50.6656 307.761 51.038C307.948 51.4073 308.209 51.6889 308.541 51.8828C308.873 52.0736 309.26 52.169 309.7 52.169C309.986 52.169 310.244 52.129 310.475 52.049C310.709 51.9659 310.911 51.8428 311.08 51.6797C311.249 51.5135 311.38 51.3073 311.472 51.0611L312.525 51.3565C312.414 51.7135 312.228 52.0275 311.966 52.2983C311.705 52.5661 311.382 52.7753 310.997 52.9261C310.612 53.0739 310.18 53.1477 309.7 53.1477ZM322.972 47.4972L321.993 47.7741C321.932 47.611 321.841 47.4525 321.721 47.2987C321.604 47.1417 321.444 47.0124 321.241 46.9109C321.038 46.8093 320.778 46.7585 320.461 46.7585C320.027 46.7585 319.665 46.8585 319.376 47.0586C319.09 47.2556 318.946 47.5064 318.946 47.8111C318.946 48.0819 319.045 48.2958 319.242 48.4528C319.439 48.6097 319.747 48.7405 320.165 48.8452L321.218 49.1037C321.852 49.2576 322.324 49.493 322.635 49.81C322.946 50.1239 323.101 50.5286 323.101 51.0241C323.101 51.4304 322.984 51.7936 322.75 52.1136C322.52 52.4337 322.196 52.6861 321.781 52.8707C321.366 53.0554 320.882 53.1477 320.331 53.1477C319.608 53.1477 319.01 52.9908 318.536 52.6768C318.062 52.3629 317.762 51.9044 317.635 51.3011L318.669 51.0426C318.768 51.4242 318.954 51.7105 319.228 51.9013C319.505 52.0921 319.867 52.1875 320.313 52.1875C320.821 52.1875 321.224 52.0798 321.522 51.8643C321.824 51.6458 321.975 51.3842 321.975 51.0795C321.975 50.8333 321.889 50.6271 321.716 50.4609C321.544 50.2917 321.279 50.1655 320.922 50.0824L319.741 49.8054C319.091 49.6515 318.614 49.413 318.309 49.0898C318.008 48.7636 317.857 48.3558 317.857 47.8665C317.857 47.4664 317.969 47.1125 318.194 46.8047C318.422 46.4969 318.731 46.2553 319.122 46.0799C319.516 45.9045 319.962 45.8168 320.461 45.8168C321.162 45.8168 321.713 45.9706 322.113 46.2784C322.517 46.5862 322.803 46.9924 322.972 47.4972ZM327.825 45.9091V46.8324H324.15V45.9091H327.825ZM325.221 44.2102H326.311V50.9688C326.311 51.2765 326.356 51.5073 326.445 51.6612C326.537 51.812 326.654 51.9136 326.796 51.9659C326.94 52.0152 327.093 52.0398 327.253 52.0398C327.373 52.0398 327.471 52.0336 327.548 52.0213C327.625 52.0059 327.687 51.9936 327.733 51.9844L327.954 52.9631C327.881 52.9908 327.777 53.0185 327.645 53.0462C327.513 53.0769 327.345 53.0923 327.142 53.0923C326.834 53.0923 326.532 53.0262 326.237 52.8938C325.945 52.7615 325.702 52.5599 325.508 52.2891C325.317 52.0182 325.221 51.6766 325.221 51.2642V44.2102ZM331.551 53.1662C331.101 53.1662 330.693 53.0816 330.327 52.9123C329.961 52.7399 329.67 52.4922 329.455 52.169C329.239 51.8428 329.132 51.4489 329.132 50.9872C329.132 50.581 329.212 50.2517 329.372 49.9993C329.532 49.7438 329.746 49.5438 330.013 49.3991C330.281 49.2545 330.577 49.1468 330.9 49.076C331.226 49.0021 331.554 48.9437 331.883 48.9006C332.314 48.8452 332.663 48.8036 332.931 48.7759C333.202 48.7451 333.399 48.6944 333.522 48.6236C333.648 48.5528 333.711 48.4297 333.711 48.2543V48.2173C333.711 47.7618 333.586 47.4079 333.337 47.1555C333.091 46.9032 332.717 46.777 332.215 46.777C331.695 46.777 331.287 46.8909 330.992 47.1186C330.697 47.3464 330.489 47.5895 330.369 47.848L329.335 47.4787C329.519 47.0478 329.766 46.7124 330.073 46.4723C330.384 46.2292 330.723 46.0599 331.089 45.9645C331.458 45.866 331.821 45.8168 332.178 45.8168C332.406 45.8168 332.668 45.8445 332.963 45.8999C333.262 45.9522 333.55 46.0614 333.827 46.2276C334.107 46.3938 334.339 46.6446 334.524 46.9801C334.708 47.3156 334.801 47.7649 334.801 48.3281V53H333.711V52.0398H333.656C333.582 52.1937 333.459 52.3583 333.286 52.5337C333.114 52.7092 332.885 52.8584 332.599 52.9815C332.312 53.1046 331.963 53.1662 331.551 53.1662ZM331.717 52.1875C332.148 52.1875 332.511 52.1029 332.806 51.9336C333.105 51.7643 333.329 51.5458 333.48 51.2781C333.634 51.0103 333.711 50.7287 333.711 50.4332V49.4361C333.665 49.4915 333.563 49.5423 333.406 49.5884C333.253 49.6315 333.074 49.67 332.871 49.7038C332.671 49.7346 332.475 49.7623 332.285 49.7869C332.097 49.8085 331.945 49.8269 331.828 49.8423C331.544 49.8793 331.28 49.9393 331.034 50.0224C330.79 50.1024 330.593 50.224 330.443 50.3871C330.295 50.5471 330.221 50.7656 330.221 51.0426C330.221 51.4212 330.361 51.7074 330.641 51.9013C330.924 52.0921 331.283 52.1875 331.717 52.1875ZM339.873 45.9091V46.8324H336.198V45.9091H339.873ZM337.269 44.2102H338.359V50.9688C338.359 51.2765 338.403 51.5073 338.493 51.6612C338.585 51.812 338.702 51.9136 338.843 51.9659C338.988 52.0152 339.14 52.0398 339.301 52.0398C339.421 52.0398 339.519 52.0336 339.596 52.0213C339.673 52.0059 339.734 51.9936 339.781 51.9844L340.002 52.9631C339.928 52.9908 339.825 53.0185 339.693 53.0462C339.561 53.0769 339.393 53.0923 339.19 53.0923C338.882 53.0923 338.58 53.0262 338.285 52.8938C337.993 52.7615 337.749 52.5599 337.555 52.2891C337.365 52.0182 337.269 51.6766 337.269 51.2642V44.2102ZM345.981 50.1009V45.9091H347.07V53H345.981V51.7997H345.907C345.741 52.1598 345.482 52.466 345.131 52.7184C344.78 52.9677 344.337 53.0923 343.802 53.0923C343.358 53.0923 342.964 52.9954 342.62 52.8015C342.275 52.6045 342.004 52.3091 341.807 51.9151C341.61 51.5181 341.512 51.018 341.512 50.4148V45.9091H342.601V50.3409C342.601 50.858 342.746 51.2704 343.035 51.5781C343.328 51.8859 343.7 52.0398 344.152 52.0398C344.423 52.0398 344.699 51.9705 344.979 51.832C345.262 51.6935 345.499 51.4812 345.69 51.195C345.884 50.9087 345.981 50.544 345.981 50.1009ZM354.088 47.4972L353.11 47.7741C353.048 47.611 352.957 47.4525 352.837 47.2987C352.72 47.1417 352.56 47.0124 352.357 46.9109C352.154 46.8093 351.894 46.7585 351.577 46.7585C351.143 46.7585 350.781 46.8585 350.492 47.0586C350.206 47.2556 350.063 47.5064 350.063 47.8111C350.063 48.0819 350.161 48.2958 350.358 48.4528C350.555 48.6097 350.863 48.7405 351.281 48.8452L352.334 49.1037C352.968 49.2576 353.44 49.493 353.751 49.81C354.062 50.1239 354.218 50.5286 354.218 51.0241C354.218 51.4304 354.101 51.7936 353.867 52.1136C353.636 52.4337 353.313 52.6861 352.897 52.8707C352.482 53.0554 351.999 53.1477 351.448 53.1477C350.724 53.1477 350.126 52.9908 349.652 52.6768C349.178 52.3629 348.878 51.9044 348.752 51.3011L349.786 51.0426C349.884 51.4242 350.07 51.7105 350.344 51.9013C350.621 52.0921 350.983 52.1875 351.429 52.1875C351.937 52.1875 352.34 52.0798 352.639 51.8643C352.94 51.6458 353.091 51.3842 353.091 51.0795C353.091 50.8333 353.005 50.6271 352.833 50.4609C352.66 50.2917 352.396 50.1655 352.039 50.0824L350.857 49.8054C350.207 49.6515 349.73 49.413 349.426 49.0898C349.124 48.7636 348.973 48.3558 348.973 47.8665C348.973 47.4664 349.086 47.1125 349.31 46.8047C349.538 46.4969 349.847 46.2553 350.238 46.0799C350.632 45.9045 351.078 45.8168 351.577 45.8168C352.279 45.8168 352.829 45.9706 353.23 46.2784C353.633 46.5862 353.919 46.9924 354.088 47.4972ZM359.514 55.6591V45.9091H360.566V47.0355H360.696C360.776 46.9124 360.886 46.7554 361.028 46.5646C361.173 46.3707 361.379 46.1984 361.647 46.0476C361.917 45.8937 362.284 45.8168 362.745 45.8168C363.342 45.8168 363.869 45.966 364.324 46.2646C364.78 46.5631 365.135 46.9863 365.391 47.5341C365.646 48.0819 365.774 48.7282 365.774 49.473C365.774 50.224 365.646 50.8749 365.391 51.4258C365.135 51.9736 364.781 52.3983 364.329 52.6999C363.876 52.9985 363.355 53.1477 362.764 53.1477C362.308 53.1477 361.944 53.0723 361.67 52.9215C361.396 52.7676 361.185 52.5937 361.037 52.3999C360.889 52.2029 360.776 52.0398 360.696 51.9105H360.603V55.6591H359.514ZM360.585 49.4545C360.585 49.9901 360.663 50.4625 360.82 50.8718C360.977 51.2781 361.206 51.5966 361.508 51.8274C361.81 52.0552 362.179 52.169 362.616 52.169C363.072 52.169 363.452 52.049 363.756 51.8089C364.064 51.5658 364.295 51.2396 364.449 50.8303C364.606 50.4179 364.684 49.9593 364.684 49.4545C364.684 48.956 364.607 48.5066 364.453 48.1065C364.303 47.7034 364.073 47.3848 363.766 47.1509C363.461 46.9139 363.078 46.7955 362.616 46.7955C362.173 46.7955 361.8 46.9078 361.499 47.1325C361.197 47.354 360.969 47.6649 360.816 48.065C360.662 48.462 360.585 48.9252 360.585 49.4545ZM370.316 53.1477C369.676 53.1477 369.114 52.9954 368.631 52.6907C368.151 52.386 367.776 51.9598 367.505 51.4119C367.237 50.8641 367.103 50.224 367.103 49.4915C367.103 48.7528 367.237 48.1081 367.505 47.5572C367.776 47.0063 368.151 46.5785 368.631 46.2738C369.114 45.9691 369.676 45.8168 370.316 45.8168C370.956 45.8168 371.517 45.9691 371.997 46.2738C372.48 46.5785 372.855 47.0063 373.123 47.5572C373.394 48.1081 373.529 48.7528 373.529 49.4915C373.529 50.224 373.394 50.8641 373.123 51.4119C372.855 51.9598 372.48 52.386 371.997 52.6907C371.517 52.9954 370.956 53.1477 370.316 53.1477ZM370.316 52.169C370.803 52.169 371.203 52.0444 371.517 51.7951C371.831 51.5458 372.063 51.218 372.214 50.8118C372.364 50.4055 372.44 49.9654 372.44 49.4915C372.44 49.0175 372.364 48.5759 372.214 48.1665C372.063 47.7572 371.831 47.4264 371.517 47.174C371.203 46.9216 370.803 46.7955 370.316 46.7955C369.83 46.7955 369.43 46.9216 369.116 47.174C368.802 47.4264 368.57 47.7572 368.419 48.1665C368.268 48.5759 368.193 49.0175 368.193 49.4915C368.193 49.9654 368.268 50.4055 368.419 50.8118C368.57 51.218 368.802 51.5458 369.116 51.7951C369.43 52.0444 369.83 52.169 370.316 52.169ZM375.192 53V45.9091H376.245V46.9801H376.319C376.448 46.6293 376.682 46.3446 377.021 46.1261C377.359 45.9076 377.741 45.7983 378.165 45.7983C378.246 45.7983 378.346 45.7998 378.466 45.8029C378.586 45.806 378.676 45.8106 378.738 45.8168V46.9247C378.701 46.9155 378.616 46.9016 378.484 46.8832C378.355 46.8616 378.218 46.8509 378.073 46.8509C377.728 46.8509 377.421 46.9232 377.15 47.0678C376.882 47.2094 376.67 47.4064 376.513 47.6587C376.359 47.908 376.282 48.1927 376.282 48.5128V53H375.192ZM384.775 43.5455V53H383.686V43.5455H384.775ZM386.771 53V45.9091H387.86V53H386.771ZM387.325 44.7273C387.112 44.7273 386.929 44.6549 386.775 44.5103C386.624 44.3656 386.549 44.1918 386.549 43.9886C386.549 43.7855 386.624 43.6116 386.775 43.467C386.929 43.3223 387.112 43.25 387.325 43.25C387.537 43.25 387.719 43.3223 387.869 43.467C388.023 43.6116 388.1 43.7855 388.1 43.9886C388.1 44.1918 388.023 44.3656 387.869 44.5103C387.719 44.6549 387.537 44.7273 387.325 44.7273ZM390.945 48.7344V53H389.856V45.9091H390.908V47.017H391C391.167 46.657 391.419 46.3677 391.758 46.1491C392.096 45.9276 392.533 45.8168 393.069 45.8168C393.549 45.8168 393.969 45.9152 394.329 46.1122C394.689 46.3061 394.969 46.6016 395.169 46.9986C395.369 47.3925 395.469 47.8911 395.469 48.4943V53H394.38V48.5682C394.38 48.0111 394.235 47.5772 393.946 47.2663C393.656 46.9524 393.259 46.7955 392.755 46.7955C392.407 46.7955 392.096 46.8709 391.822 47.0217C391.551 47.1725 391.337 47.3925 391.18 47.6818C391.024 47.9711 390.945 48.322 390.945 48.7344ZM398.476 50.4148L398.457 49.0668H398.679L401.781 45.9091H403.129L399.824 49.2514H399.731L398.476 50.4148ZM397.46 53V43.5455H398.55V53H397.46ZM401.966 53L399.196 49.4915L399.971 48.7344L403.351 53H401.966ZM405.325 53.0739C405.098 53.0739 404.902 52.9923 404.739 52.8292C404.576 52.6661 404.494 52.4706 404.494 52.2429C404.494 52.0152 404.576 51.8197 404.739 51.6566C404.902 51.4935 405.098 51.4119 405.325 51.4119C405.553 51.4119 405.749 51.4935 405.912 51.6566C406.075 51.8197 406.156 52.0152 406.156 52.2429C406.156 52.3937 406.118 52.5322 406.041 52.6584C405.967 52.7846 405.867 52.8861 405.741 52.9631C405.618 53.0369 405.479 53.0739 405.325 53.0739Z" fill="white"/>
<path d="M70.8617 22V12.5455H77.0109V13.9812H72.5744V16.5479H76.6923V17.9837H72.5744V20.5643H77.0478V22H70.8617ZM78.7582 22V12.5455H82.3037C83.03 12.5455 83.6394 12.6716 84.1318 12.924C84.6273 13.1764 85.0012 13.5303 85.2536 13.9858C85.509 14.4382 85.6368 14.966 85.6368 15.5692C85.6368 16.1755 85.5075 16.7018 85.249 17.1481C84.9935 17.5913 84.6165 17.9344 84.1179 18.1776C83.6194 18.4176 83.0069 18.5376 82.2806 18.5376H79.7554V17.1158H82.0498C82.4745 17.1158 82.8223 17.0573 83.0931 16.9403C83.3639 16.8203 83.564 16.6464 83.6932 16.4187C83.8256 16.1879 83.8917 15.9047 83.8917 15.5692C83.8917 15.2338 83.8256 14.9476 83.6932 14.7106C83.5609 14.4705 83.3593 14.2889 83.0885 14.1658C82.8176 14.0397 82.4683 13.9766 82.0405 13.9766H80.4709V22H78.7582ZM83.6424 17.7159L85.983 22H84.0718L81.7728 17.7159H83.6424ZM87.2133 22V12.5455H90.7587C91.4851 12.5455 92.0944 12.6716 92.5869 12.924C93.0824 13.1764 93.4563 13.5303 93.7087 13.9858C93.9641 14.4382 94.0918 14.966 94.0918 15.5692C94.0918 16.1755 93.9626 16.7018 93.7041 17.1481C93.4486 17.5913 93.0716 17.9344 92.573 18.1776C92.0744 18.4176 91.462 18.5376 90.7357 18.5376H88.2104V17.1158H90.5048C90.9296 17.1158 91.2773 17.0573 91.5482 16.9403C91.819 16.8203 92.019 16.6464 92.1483 16.4187C92.2806 16.1879 92.3468 15.9047 92.3468 15.5692C92.3468 15.2338 92.2806 14.9476 92.1483 14.7106C92.016 14.4705 91.8144 14.2889 91.5435 14.1658C91.2727 14.0397 90.9234 13.9766 90.4956 13.9766H88.926V22H87.2133ZM92.0975 17.7159L94.4381 22H92.5269L90.2278 17.7159H92.0975ZM104.117 17.2727C104.117 18.2914 103.926 19.1639 103.544 19.8903C103.166 20.6135 102.648 21.1675 101.993 21.5522C101.34 21.9369 100.6 22.1293 99.7724 22.1293C98.9445 22.1293 98.2028 21.9369 97.5473 21.5522C96.8948 21.1644 96.3778 20.6089 95.9961 19.8857C95.6176 19.1593 95.4283 18.2884 95.4283 17.2727C95.4283 16.254 95.6176 15.383 95.9961 14.6598C96.3778 13.9335 96.8948 13.378 97.5473 12.9933C98.2028 12.6085 98.9445 12.4162 99.7724 12.4162C100.6 12.4162 101.34 12.6085 101.993 12.9933C102.648 13.378 103.166 13.9335 103.544 14.6598C103.926 15.383 104.117 16.254 104.117 17.2727ZM102.395 17.2727C102.395 16.5556 102.282 15.9509 102.058 15.4585C101.836 14.9629 101.528 14.589 101.134 14.3366C100.74 14.0812 100.286 13.9535 99.7724 13.9535C99.2584 13.9535 98.8045 14.0812 98.4106 14.3366C98.0166 14.589 97.7073 14.9629 97.4826 15.4585C97.2611 15.9509 97.1503 16.5556 97.1503 17.2727C97.1503 17.9898 97.2611 18.5961 97.4826 19.0916C97.7073 19.584 98.0166 19.958 98.4106 20.2134C98.8045 20.4658 99.2584 20.592 99.7724 20.592C100.286 20.592 100.74 20.4658 101.134 20.2134C101.528 19.958 101.836 19.584 102.058 19.0916C102.282 18.5961 102.395 17.9898 102.395 17.2727ZM105.736 22V12.5455H109.281C110.008 12.5455 110.617 12.6716 111.109 12.924C111.605 13.1764 111.979 13.5303 112.231 13.9858C112.487 14.4382 112.614 14.966 112.614 15.5692C112.614 16.1755 112.485 16.7018 112.227 17.1481C111.971 17.5913 111.594 17.9344 111.095 18.1776C110.597 18.4176 109.984 18.5376 109.258 18.5376H106.733V17.1158H109.027C109.452 17.1158 109.8 17.0573 110.071 16.9403C110.341 16.8203 110.542 16.6464 110.671 16.4187C110.803 16.1879 110.869 15.9047 110.869 15.5692C110.869 15.2338 110.803 14.9476 110.671 14.7106C110.538 14.4705 110.337 14.2889 110.066 14.1658C109.795 14.0397 109.446 13.9766 109.018 13.9766H107.448V22H105.736ZM110.62 17.7159L112.961 22H111.049L108.75 17.7159H110.62ZM117.976 12.1023L114.929 23.4219H113.466L116.513 12.1023H117.976ZM119.117 22V12.5455H122.662C123.388 12.5455 123.998 12.6716 124.49 12.924C124.986 13.1764 125.36 13.5303 125.612 13.9858C125.867 14.4382 125.995 14.966 125.995 15.5692C125.995 16.1755 125.866 16.7018 125.607 17.1481C125.352 17.5913 124.975 17.9344 124.476 18.1776C123.978 18.4176 123.365 18.5376 122.639 18.5376H120.114V17.1158H122.408C122.833 17.1158 123.181 17.0573 123.451 16.9403C123.722 16.8203 123.922 16.6464 124.052 16.4187C124.184 16.1879 124.25 15.9047 124.25 15.5692C124.25 15.2338 124.184 14.9476 124.052 14.7106C123.919 14.4705 123.718 14.2889 123.447 14.1658C123.176 14.0397 122.827 13.9766 122.399 13.9766H120.829V22H119.117ZM124.001 17.7159L126.341 22H124.43L122.131 17.7159H124.001ZM127.572 22V12.5455H133.721V13.9812H129.284V16.5479H133.402V17.9837H129.284V20.5643H133.758V22H127.572ZM138.991 18.8239H140.542L141.46 20.0149L142.116 20.7905L143.69 22.8125H142.028L140.957 21.4553L140.5 20.8089L138.991 18.8239ZM143.916 17.2727C143.916 18.2914 143.726 19.1639 143.344 19.8903C142.965 20.6135 142.448 21.1675 141.793 21.5522C141.14 21.9369 140.4 22.1293 139.572 22.1293C138.744 22.1293 138.003 21.9369 137.347 21.5522C136.695 21.1644 136.178 20.6089 135.796 19.8857C135.417 19.1593 135.228 18.2884 135.228 17.2727C135.228 16.254 135.417 15.383 135.796 14.6598C136.178 13.9335 136.695 13.378 137.347 12.9933C138.003 12.6085 138.744 12.4162 139.572 12.4162C140.4 12.4162 141.14 12.6085 141.793 12.9933C142.448 13.378 142.965 13.9335 143.344 14.6598C143.726 15.383 143.916 16.254 143.916 17.2727ZM142.194 17.2727C142.194 16.5556 142.082 15.9509 141.857 15.4585C141.636 14.9629 141.328 14.589 140.934 14.3366C140.54 14.0812 140.086 13.9535 139.572 13.9535C139.058 13.9535 138.604 14.0812 138.21 14.3366C137.816 14.589 137.507 14.9629 137.282 15.4585C137.061 15.9509 136.95 16.5556 136.95 17.2727C136.95 17.9898 137.061 18.5961 137.282 19.0916C137.507 19.584 137.816 19.958 138.21 20.2134C138.604 20.4658 139.058 20.592 139.572 20.592C140.086 20.592 140.54 20.4658 140.934 20.2134C141.328 19.958 141.636 19.584 141.857 19.0916C142.082 18.5961 142.194 17.9898 142.194 17.2727ZM151.508 12.5455H153.221V18.7223C153.221 19.3994 153.061 19.9949 152.741 20.5089C152.424 21.0228 151.977 21.4245 151.402 21.7138C150.826 22 150.154 22.1431 149.385 22.1431C148.612 22.1431 147.938 22 147.363 21.7138C146.787 21.4245 146.341 21.0228 146.024 20.5089C145.707 19.9949 145.548 19.3994 145.548 18.7223V12.5455H147.261V18.5792C147.261 18.9731 147.347 19.324 147.519 19.6317C147.695 19.9395 147.941 20.1811 148.258 20.3565C148.575 20.5289 148.951 20.6151 149.385 20.6151C149.818 20.6151 150.194 20.5289 150.511 20.3565C150.831 20.1811 151.077 19.9395 151.25 19.6317C151.422 19.324 151.508 18.9731 151.508 18.5792V12.5455ZM155.082 22V12.5455H161.232V13.9812H156.795V16.5479H160.913V17.9837H156.795V20.5643H161.269V22H155.082ZM168.117 15.1445C168.074 14.7414 167.892 14.4274 167.572 14.2028C167.255 13.9781 166.843 13.8658 166.335 13.8658C165.978 13.8658 165.672 13.9196 165.416 14.0273C165.161 14.1351 164.966 14.2812 164.83 14.4659C164.695 14.6506 164.625 14.8614 164.622 15.0984C164.622 15.2953 164.667 15.4661 164.756 15.6108C164.849 15.7554 164.973 15.8786 165.13 15.9801C165.287 16.0786 165.461 16.1617 165.652 16.2294C165.843 16.2971 166.035 16.354 166.229 16.4002L167.115 16.6218C167.472 16.7049 167.815 16.8172 168.145 16.9588C168.477 17.1004 168.774 17.2789 169.036 17.4943C169.3 17.7098 169.51 17.9698 169.664 18.2745C169.817 18.5792 169.894 18.9362 169.894 19.3455C169.894 19.8995 169.753 20.3873 169.47 20.8089C169.187 21.2275 168.777 21.5553 168.242 21.7923C167.709 22.0262 167.064 22.1431 166.307 22.1431C165.572 22.1431 164.933 22.0292 164.392 21.8015C163.853 21.5737 163.431 21.2414 163.127 20.8043C162.825 20.3673 162.662 19.8349 162.637 19.207H164.322C164.347 19.5363 164.448 19.8103 164.627 20.0288C164.806 20.2473 165.038 20.4104 165.324 20.5181C165.613 20.6258 165.937 20.6797 166.294 20.6797C166.666 20.6797 166.992 20.6243 167.272 20.5135C167.555 20.3996 167.777 20.2427 167.937 20.0426C168.097 19.8395 168.179 19.6025 168.182 19.3317C168.179 19.0855 168.106 18.8823 167.965 18.7223C167.823 18.5592 167.625 18.4238 167.369 18.3161C167.117 18.2053 166.821 18.1068 166.483 18.0206L165.407 17.7436C164.629 17.5436 164.013 17.2404 163.561 16.8342C163.111 16.4248 162.887 15.8816 162.887 15.2045C162.887 14.6475 163.037 14.1597 163.339 13.7411C163.644 13.3226 164.058 12.9979 164.581 12.767C165.104 12.5331 165.696 12.4162 166.358 12.4162C167.029 12.4162 167.617 12.5331 168.122 12.767C168.629 12.9979 169.028 13.3195 169.317 13.7319C169.607 14.1412 169.756 14.6121 169.765 15.1445H168.117ZM171.006 13.9812V12.5455H178.549V13.9812H175.627V22H173.928V13.9812H171.006Z" fill="#FF4F64"/>
</svg>
