<svg width="182" height="228" viewBox="0 0 182 228" fill="none" xmlns="http://www.w3.org/2000/svg">
<g clip-path="url(#clip0_374_64)">
<rect x="-0.371094" width="182.506" height="227.998" rx="20" fill="#FC5D20"/>
<rect x="-0.371094" width="182.506" height="227.998" rx="20" fill="url(#paint0_linear_374_64)"/>
<g filter="url(#filter0_f_374_64)">
<ellipse cx="91" cy="280.5" rx="243" ry="146.5" fill="#FC5D20"/>
</g>
<g style="mix-blend-mode:soft-light">
<path d="M77.4226 55.3423C72.6829 56.1719 -13.8643 126.767 -17.742 132.967L-20.2206 136.929L-9.46285 196.499C0.931925 254.059 1.40294 256.144 4.44954 258.214C7.06205 259.989 108.825 296.916 115.175 298.394C120.264 299.578 128.079 294.051 169.499 259.972C201.094 233.977 214.348 222.274 215.558 219.302C217.106 215.501 216.357 209.959 207.127 156.895L196.994 98.6597L192.664 95.7398C185.365 90.8185 81.9331 54.5609 77.4226 55.3423ZM55.0507 134.394C58.7672 133.747 64.2999 135.865 68.0276 139.362C71.5087 142.629 72.9249 150.788 70.7436 155.026C67.5676 161.194 60.9078 164.75 54.5571 163.671C49.2622 162.771 47.4382 161.599 44.4236 157.148C38.3597 148.195 43.8986 136.335 55.0507 134.394ZM129.104 121.553C133.224 120.807 137.661 121.934 141.487 125.101C146.097 128.917 147.564 134.085 145.738 140.081C143.436 147.636 136.823 151.89 129.35 150.622C118.632 148.805 113.311 138.205 118.619 129.243C121.179 124.92 124.983 122.3 129.104 121.553ZM100.793 180.285C113.528 178.069 115.699 177.948 123.201 179.05C137.124 181.095 150.339 187.646 160.527 197.554C166.981 203.83 168.251 208.118 164.78 211.925C161.003 216.067 156.827 215.424 151.768 209.921C140.296 197.441 120.728 191.077 103.203 194.128C85.6777 197.178 69.4099 209.781 62.8297 225.403C60.4651 231.017 57.6318 233.27 53.7899 232.591C47.1079 231.409 45.929 225.884 50.407 216.723C56.6479 203.956 66.8729 193.324 79.2859 186.695C85.974 183.123 88.0585 182.502 100.793 180.285Z" fill="url(#paint1_linear_374_64)" fill-opacity="0.5"/>
</g>
<path d="M36.1187 134V120.909H41.5775C42.5576 120.909 43.3779 121.048 44.0384 121.325C44.7032 121.602 45.2018 121.989 45.5342 122.488C45.8708 122.987 46.0392 123.564 46.0392 124.22C46.0392 124.719 45.9347 125.164 45.7259 125.556C45.5171 125.944 45.2295 126.266 44.863 126.521C44.4965 126.777 44.0725 126.956 43.591 127.058V127.186C44.1194 127.212 44.6073 127.354 45.0548 127.614C45.5065 127.874 45.8687 128.237 46.1414 128.701C46.4142 129.161 46.5505 129.707 46.5505 130.337C46.5505 131.04 46.3715 131.669 46.0136 132.223C45.6556 132.773 45.1379 133.207 44.4603 133.527C43.7828 133.842 42.9603 134 41.993 134H36.1187ZM39.2828 131.45H41.2387C41.9248 131.45 42.4298 131.32 42.7536 131.06C43.0818 130.8 43.2458 130.438 43.2458 129.973C43.2458 129.636 43.167 129.347 43.0093 129.104C42.8517 128.857 42.6279 128.667 42.3382 128.535C42.0484 128.398 41.7011 128.33 41.2963 128.33H39.2828V131.45ZM39.2828 126.291H41.0342C41.3794 126.291 41.6862 126.234 41.9546 126.119C42.2231 126.004 42.4319 125.837 42.5811 125.62C42.7345 125.403 42.8112 125.141 42.8112 124.834C42.8112 124.395 42.6556 124.05 42.3445 123.798C42.0335 123.547 41.6137 123.421 41.0853 123.421H39.2828V126.291ZM50.8396 134.166C50.2132 134.166 49.657 134.062 49.1713 133.853C48.6897 133.64 48.3083 133.32 48.0271 132.894C47.7501 132.464 47.6116 131.925 47.6116 131.277C47.6116 130.732 47.7075 130.271 47.8992 129.896C48.091 129.521 48.3552 129.217 48.6919 128.982C49.0285 128.748 49.4163 128.571 49.8552 128.452C50.2941 128.328 50.7629 128.245 51.2615 128.202C51.8197 128.151 52.2693 128.098 52.6102 128.043C52.9511 127.983 53.1982 127.9 53.3517 127.793C53.5093 127.683 53.5882 127.527 53.5882 127.327V127.295C53.5882 126.967 53.4752 126.713 53.2494 126.534C53.0235 126.355 52.7188 126.266 52.3353 126.266C51.922 126.266 51.5896 126.355 51.3382 126.534C51.0867 126.713 50.9269 126.96 50.8588 127.276L47.9759 127.173C48.0612 126.577 48.2806 126.044 48.6343 125.575C48.9923 125.102 49.4823 124.732 50.1045 124.463C50.7309 124.19 51.483 124.054 52.3609 124.054C52.9873 124.054 53.5647 124.129 54.0931 124.278C54.6215 124.423 55.0818 124.636 55.4738 124.917C55.8659 125.194 56.1684 125.535 56.3815 125.94C56.5988 126.344 56.7075 126.807 56.7075 127.327V134H53.7671V132.632H53.6904C53.5157 132.964 53.292 133.246 53.0193 133.476C52.7508 133.706 52.4333 133.879 52.0669 133.994C51.7046 134.109 51.2955 134.166 50.8396 134.166ZM51.8048 132.121C52.1414 132.121 52.444 132.053 52.7124 131.916C52.9852 131.78 53.2025 131.592 53.3644 131.354C53.5264 131.111 53.6073 130.83 53.6073 130.51V129.577C53.5178 129.624 53.4092 129.666 53.2813 129.705C53.1578 129.743 53.0214 129.779 52.8722 129.813C52.7231 129.847 52.5697 129.877 52.412 129.903C52.2544 129.928 52.1031 129.952 51.9582 129.973C51.6642 130.02 51.4127 130.092 51.2039 130.19C50.9994 130.288 50.8417 130.416 50.7309 130.574C50.6244 130.727 50.5711 130.911 50.5711 131.124C50.5711 131.447 50.6862 131.695 50.9163 131.865C51.1507 132.036 51.4468 132.121 51.8048 132.121ZM62.2046 134.141C61.4802 134.141 60.8218 133.953 60.2295 133.578C59.6372 133.203 59.1642 132.641 58.8105 131.891C58.4568 131.141 58.2799 130.21 58.2799 129.097C58.2799 127.942 58.4632 126.992 58.8296 126.246C59.1961 125.501 59.6755 124.949 60.2678 124.591C60.8644 124.233 61.5058 124.054 62.1919 124.054C62.7075 124.054 63.1485 124.143 63.515 124.322C63.8815 124.497 64.184 124.723 64.4227 125C64.6613 125.277 64.8424 125.565 64.966 125.863H65.0299V120.909H68.1556V134H65.0619V132.408H64.966C64.8339 132.711 64.6464 132.994 64.4035 133.259C64.1606 133.523 63.8559 133.736 63.4894 133.898C63.1272 134.06 62.699 134.141 62.2046 134.141ZM63.2913 131.705C63.6705 131.705 63.9944 131.599 64.2629 131.386C64.5313 131.168 64.738 130.864 64.8829 130.472C65.0278 130.08 65.1002 129.619 65.1002 129.091C65.1002 128.554 65.0278 128.092 64.8829 127.704C64.7423 127.316 64.5356 127.018 64.2629 126.809C63.9944 126.6 63.6705 126.496 63.2913 126.496C62.9035 126.496 62.5754 126.602 62.3069 126.815C62.0384 127.028 61.8339 127.329 61.6933 127.717C61.5569 128.104 61.4887 128.562 61.4887 129.091C61.4887 129.619 61.559 130.08 61.6997 130.472C61.8403 130.864 62.0427 131.168 62.3069 131.386C62.5754 131.599 62.9035 131.705 63.2913 131.705ZM73.9996 134V120.909H79.4072C80.3873 120.909 81.2332 121.086 81.9449 121.44C82.6608 121.789 83.2126 122.292 83.6004 122.948C83.9882 123.6 84.1821 124.374 84.1821 125.268C84.1821 126.176 83.9839 126.947 83.5876 127.582C83.1913 128.213 82.6288 128.695 81.9001 129.027C81.1714 129.355 80.3085 129.519 79.3113 129.519H75.8916V127.026H78.7233C79.2006 127.026 79.599 126.964 79.9186 126.841C80.2425 126.713 80.4875 126.521 80.6537 126.266C80.8199 126.006 80.903 125.673 80.903 125.268C80.903 124.864 80.8199 124.529 80.6537 124.265C80.4875 123.996 80.2425 123.796 79.9186 123.664C79.5947 123.528 79.1963 123.46 78.7233 123.46H77.1636V134H73.9996ZM81.3696 128.017L84.6295 134H81.1778L77.9818 128.017H81.3696ZM90.3137 134.185C89.2867 134.185 88.4003 133.983 87.6546 133.578C86.9131 133.169 86.3421 132.587 85.9415 131.833C85.5452 131.075 85.347 130.173 85.347 129.129C85.347 128.115 85.5473 127.229 85.9479 126.47C86.3485 125.707 86.9131 125.115 87.6418 124.693C88.3705 124.267 89.2291 124.054 90.2178 124.054C90.9166 124.054 91.5558 124.163 92.1354 124.38C92.7149 124.597 93.2156 124.919 93.6375 125.345C94.0594 125.771 94.3875 126.298 94.6219 126.924C94.8563 127.546 94.9735 128.26 94.9735 129.065V129.845H86.4401V128.03H92.0651C92.0608 127.697 91.982 127.401 91.8286 127.141C91.6752 126.881 91.4642 126.679 91.1958 126.534C90.9316 126.385 90.6269 126.31 90.2817 126.31C89.9323 126.31 89.6191 126.389 89.3421 126.547C89.0651 126.7 88.8456 126.911 88.6837 127.18C88.5218 127.444 88.4365 127.744 88.428 128.081V129.928C88.428 130.329 88.5068 130.68 88.6645 130.983C88.8222 131.281 89.0459 131.513 89.3357 131.68C89.6254 131.846 89.9706 131.929 90.3712 131.929C90.6482 131.929 90.8996 131.891 91.1254 131.814C91.3513 131.737 91.5452 131.624 91.7071 131.475C91.8691 131.326 91.9905 131.143 92.0715 130.925L94.9415 131.009C94.8222 131.652 94.5601 132.212 94.1553 132.69C93.7547 133.163 93.2284 133.531 92.5764 133.795C91.9244 134.055 91.1702 134.185 90.3137 134.185ZM102.981 137.682V132.408H102.917C102.785 132.711 102.598 132.994 102.355 133.259C102.112 133.523 101.807 133.736 101.441 133.898C101.078 134.06 100.65 134.141 100.156 134.141C99.4314 134.141 98.773 133.953 98.1807 133.578C97.5883 133.203 97.1153 132.641 96.7616 131.891C96.4079 131.141 96.2311 130.21 96.2311 129.097C96.2311 127.942 96.4143 126.992 96.7808 126.246C97.1473 125.501 97.6267 124.949 98.219 124.591C98.8156 124.233 99.4569 124.054 100.143 124.054C100.659 124.054 101.1 124.143 101.466 124.322C101.833 124.497 102.135 124.723 102.374 125C102.612 125.277 102.794 125.565 102.917 125.863H103.013V124.182H106.107V137.682H102.981ZM101.242 131.705C101.622 131.705 101.946 131.599 102.214 131.386C102.483 131.168 102.689 130.864 102.834 130.472C102.979 130.08 103.051 129.619 103.051 129.091C103.051 128.554 102.979 128.092 102.834 127.704C102.693 127.316 102.487 127.018 102.214 126.809C101.946 126.6 101.622 126.496 101.242 126.496C100.855 126.496 100.527 126.602 100.258 126.815C99.9896 127.028 99.7851 127.329 99.6444 127.717C99.5081 128.104 99.4399 128.562 99.4399 129.091C99.4399 129.619 99.5102 130.08 99.6508 130.472C99.7915 130.864 99.9939 131.168 100.258 131.386C100.527 131.599 100.855 131.705 101.242 131.705ZM114.418 129.762V124.182H117.537V134H114.559V132.172H114.456C114.239 132.773 113.868 133.25 113.344 133.604C112.824 133.953 112.196 134.128 111.459 134.128C110.79 134.128 110.201 133.974 109.694 133.668C109.187 133.361 108.793 132.933 108.512 132.383C108.231 131.829 108.088 131.181 108.084 130.44V124.182H111.209V129.826C111.214 130.359 111.354 130.778 111.631 131.085C111.908 131.392 112.285 131.545 112.763 131.545C113.074 131.545 113.353 131.477 113.6 131.341C113.851 131.2 114.049 130.998 114.194 130.734C114.343 130.465 114.418 130.141 114.418 129.762ZM124.116 134.185C123.089 134.185 122.203 133.983 121.457 133.578C120.716 133.169 120.145 132.587 119.744 131.833C119.348 131.075 119.15 130.173 119.15 129.129C119.15 128.115 119.35 127.229 119.751 126.47C120.151 125.707 120.716 125.115 121.445 124.693C122.173 124.267 123.032 124.054 124.021 124.054C124.719 124.054 125.359 124.163 125.938 124.38C126.518 124.597 127.018 124.919 127.44 125.345C127.862 125.771 128.19 126.298 128.425 126.924C128.659 127.546 128.776 128.26 128.776 129.065V129.845H120.243V128.03H125.868C125.864 127.697 125.785 127.401 125.631 127.141C125.478 126.881 125.267 126.679 124.998 126.534C124.734 126.385 124.43 126.31 124.084 126.31C123.735 126.31 123.422 126.389 123.145 126.547C122.868 126.7 122.648 126.911 122.486 127.18C122.324 127.444 122.239 127.744 122.231 128.081V129.928C122.231 130.329 122.31 130.68 122.467 130.983C122.625 131.281 122.849 131.513 123.138 131.68C123.428 131.846 123.773 131.929 124.174 131.929C124.451 131.929 124.702 131.891 124.928 131.814C125.154 131.737 125.348 131.624 125.51 131.475C125.672 131.326 125.793 131.143 125.874 130.925L128.744 131.009C128.625 131.652 128.363 132.212 127.958 132.69C127.557 133.163 127.031 133.531 126.379 133.795C125.727 134.055 124.973 134.185 124.116 134.185ZM138.944 127.18L136.074 127.256C136.044 127.052 135.964 126.871 135.831 126.713C135.699 126.551 135.527 126.425 135.314 126.336C135.105 126.242 134.862 126.195 134.585 126.195C134.223 126.195 133.914 126.268 133.658 126.413C133.407 126.558 133.283 126.754 133.287 127.001C133.283 127.192 133.36 127.359 133.517 127.499C133.679 127.64 133.967 127.753 134.38 127.838L136.272 128.196C137.253 128.384 137.981 128.695 138.459 129.129C138.94 129.564 139.183 130.139 139.187 130.855C139.183 131.528 138.983 132.114 138.586 132.613C138.194 133.112 137.657 133.499 136.976 133.776C136.294 134.049 135.514 134.185 134.636 134.185C133.234 134.185 132.128 133.898 131.319 133.322C130.513 132.743 130.053 131.967 129.938 130.996L133.025 130.919C133.093 131.277 133.27 131.55 133.556 131.737C133.841 131.925 134.206 132.018 134.649 132.018C135.049 132.018 135.375 131.944 135.627 131.795C135.878 131.646 136.006 131.447 136.01 131.2C136.006 130.979 135.908 130.802 135.716 130.67C135.525 130.533 135.224 130.427 134.815 130.35L133.102 130.024C132.118 129.845 131.385 129.515 130.903 129.033C130.422 128.548 130.183 127.93 130.187 127.18C130.183 126.523 130.358 125.963 130.711 125.499C131.065 125.03 131.568 124.672 132.22 124.425C132.872 124.178 133.641 124.054 134.527 124.054C135.857 124.054 136.905 124.333 137.672 124.891C138.439 125.445 138.863 126.208 138.944 127.18ZM146.268 124.182V126.483H140.074V124.182H146.268ZM141.372 121.83H144.497V130.913C144.497 131.104 144.527 131.26 144.587 131.379C144.651 131.494 144.742 131.577 144.862 131.629C144.981 131.675 145.124 131.699 145.29 131.699C145.409 131.699 145.535 131.688 145.667 131.667C145.804 131.641 145.906 131.62 145.974 131.603L146.447 133.859C146.298 133.902 146.087 133.955 145.814 134.019C145.546 134.083 145.224 134.124 144.849 134.141C144.116 134.175 143.487 134.089 142.963 133.885C142.443 133.676 142.045 133.352 141.768 132.913C141.495 132.474 141.363 131.923 141.372 131.258V121.83Z" fill="white"/>
<path d="M91.4722 32C90.0106 32.0014 60.4316 48.8768 58.9482 50.556L58 51.6288L58.1161 70.3015C58.2284 88.3438 58.2607 89.0025 59.0646 89.7927C59.754 90.4704 88.285 107.076 90.1086 107.861C91.5697 108.49 94.1964 107.224 108.368 99.0584C119.178 92.8298 123.754 89.9746 124.271 89.1354C124.932 88.0619 124.997 86.3383 124.999 69.7238L125 51.4898L123.856 50.3734C121.928 48.4916 92.8628 32.0012 91.4722 32ZM80.6587 54.8405C81.8046 54.8405 83.3501 55.7768 84.2835 57.0367C85.1551 58.2138 85.1538 60.7683 84.2803 61.9408C83.0085 63.6471 80.8301 64.3756 78.9857 63.7117C77.448 63.1582 76.9632 62.7052 76.2929 61.1932C74.9446 58.1516 77.22 54.8405 80.6587 54.8405ZM103.49 54.8556C104.762 54.8467 106.031 55.4241 107.011 56.5888C108.192 57.9924 108.362 59.6408 107.503 61.3662C106.42 63.5405 104.22 64.4834 102.049 63.7029C98.9361 62.5835 97.8959 59.0808 99.9511 56.6381C100.943 55.4596 102.218 54.8646 103.49 54.8556ZM91.9574 71.2068C95.8841 71.2068 96.5402 71.2852 98.7278 72.0168C102.788 73.3748 106.402 76.0649 108.935 79.6147C110.539 81.8634 110.696 83.234 109.459 84.2071C108.113 85.266 106.896 84.8498 105.669 82.9098C102.886 78.5102 97.3611 75.5409 91.9574 75.5409C86.5537 75.5409 81.0287 78.5102 78.2455 82.9098C77.2454 84.4908 76.2801 85.0257 75.1657 84.6159C73.2275 83.9032 73.1626 82.1617 74.9799 79.6147C77.5128 76.0649 81.1267 73.3748 85.187 72.0168C87.3746 71.2851 88.0308 71.2068 91.9574 71.2068Z" fill="url(#paint2_linear_374_64)"/>
<path d="M10.5278 157H9.24658L12.1255 149H13.52L16.3989 157H15.1177L12.856 150.453H12.7935L10.5278 157ZM10.7427 153.867H14.8989V154.883H10.7427V153.867ZM17.4604 159.25V151H18.6011V151.973H18.6987C18.7664 151.848 18.8641 151.703 18.9917 151.539C19.1193 151.375 19.2964 151.232 19.5229 151.109C19.7495 150.984 20.049 150.922 20.4214 150.922C20.9058 150.922 21.3381 151.044 21.7183 151.289C22.0985 151.534 22.3966 151.887 22.6128 152.348C22.8315 152.809 22.9409 153.363 22.9409 154.012C22.9409 154.66 22.8328 155.216 22.6167 155.68C22.4006 156.141 22.1037 156.496 21.7261 156.746C21.3485 156.993 20.9175 157.117 20.4331 157.117C20.0685 157.117 19.7703 157.056 19.5386 156.934C19.3094 156.811 19.1297 156.668 18.9995 156.504C18.8693 156.34 18.769 156.194 18.6987 156.066H18.6284V159.25H17.4604ZM18.605 154C18.605 154.422 18.6662 154.792 18.7886 155.109C18.911 155.427 19.0881 155.676 19.3198 155.855C19.5516 156.033 19.8354 156.121 20.1714 156.121C20.5203 156.121 20.812 156.029 21.0464 155.844C21.2808 155.656 21.4578 155.402 21.5776 155.082C21.7 154.762 21.7612 154.401 21.7612 154C21.7612 153.604 21.7013 153.249 21.5815 152.934C21.4644 152.618 21.2873 152.37 21.0503 152.188C20.8159 152.005 20.5229 151.914 20.1714 151.914C19.8328 151.914 19.5464 152.001 19.312 152.176C19.0802 152.35 18.9045 152.594 18.7847 152.906C18.6649 153.219 18.605 153.583 18.605 154ZM26.8354 157.121C26.2443 157.121 25.7352 156.995 25.3081 156.742C24.8836 156.487 24.5555 156.129 24.3237 155.668C24.0946 155.204 23.98 154.661 23.98 154.039C23.98 153.424 24.0946 152.883 24.3237 152.414C24.5555 151.945 24.8784 151.579 25.2925 151.316C25.7091 151.053 26.1961 150.922 26.7534 150.922C27.092 150.922 27.4201 150.978 27.7378 151.09C28.0555 151.202 28.3407 151.378 28.5933 151.617C28.8459 151.857 29.0451 152.168 29.1909 152.551C29.3368 152.931 29.4097 153.393 29.4097 153.937V154.352H24.6401V153.477H28.2651C28.2651 153.169 28.2026 152.897 28.0776 152.66C27.9526 152.421 27.7769 152.232 27.5503 152.094C27.3263 151.956 27.0633 151.887 26.7612 151.887C26.4331 151.887 26.1466 151.967 25.9019 152.129C25.6597 152.288 25.4722 152.496 25.3394 152.754C25.2091 153.009 25.144 153.286 25.144 153.586V154.27C25.144 154.671 25.2144 155.012 25.355 155.293C25.4982 155.574 25.6974 155.789 25.9526 155.937C26.2078 156.083 26.506 156.156 26.8472 156.156C27.0685 156.156 27.2703 156.125 27.4526 156.062C27.6349 155.997 27.7925 155.901 27.9253 155.773C28.0581 155.646 28.1597 155.488 28.23 155.301L29.3354 155.5C29.2469 155.826 29.0881 156.111 28.8589 156.355C28.6323 156.598 28.3472 156.786 28.0034 156.922C27.6623 157.055 27.2729 157.121 26.8354 157.121ZM31.8735 153.437V157H30.7056V151H31.8267V151.977H31.9009C32.0389 151.659 32.255 151.404 32.5493 151.211C32.8462 151.018 33.2199 150.922 33.6704 150.922C34.0793 150.922 34.4373 151.008 34.7446 151.18C35.0519 151.349 35.2902 151.602 35.4595 151.937C35.6287 152.273 35.7134 152.689 35.7134 153.184V157H34.5454V153.324C34.5454 152.889 34.4321 152.549 34.2056 152.305C33.979 152.057 33.6678 151.934 33.272 151.934C33.0011 151.934 32.7603 151.992 32.5493 152.109C32.341 152.227 32.1756 152.398 32.0532 152.625C31.9334 152.849 31.8735 153.12 31.8735 153.437ZM39.0259 157.133C38.6457 157.133 38.3019 157.063 37.9946 156.922C37.6873 156.779 37.4438 156.572 37.2642 156.301C37.0871 156.03 36.9985 155.698 36.9985 155.305C36.9985 154.966 37.0636 154.687 37.1938 154.469C37.3241 154.25 37.4998 154.077 37.7212 153.949C37.9425 153.822 38.1899 153.725 38.4634 153.66C38.7368 153.595 39.0155 153.546 39.2993 153.512C39.6587 153.47 39.9504 153.436 40.1743 153.41C40.3983 153.382 40.561 153.336 40.6626 153.273C40.7642 153.211 40.8149 153.109 40.8149 152.969V152.941C40.8149 152.6 40.7186 152.336 40.5259 152.148C40.3358 151.961 40.0519 151.867 39.6743 151.867C39.2811 151.867 38.9712 151.954 38.7446 152.129C38.5207 152.301 38.3657 152.492 38.2798 152.703L37.1821 152.453C37.3123 152.089 37.5024 151.794 37.7524 151.57C38.005 151.344 38.2954 151.18 38.6235 151.078C38.9517 150.974 39.2967 150.922 39.6587 150.922C39.8983 150.922 40.1522 150.951 40.4204 151.008C40.6912 151.062 40.9438 151.164 41.1782 151.312C41.4152 151.461 41.6092 151.673 41.7603 151.949C41.9113 152.223 41.9868 152.578 41.9868 153.016V157H40.8462V156.18H40.7993C40.7238 156.331 40.6105 156.479 40.4595 156.625C40.3084 156.771 40.1144 156.892 39.8774 156.988C39.6405 157.085 39.3566 157.133 39.0259 157.133ZM39.2798 156.195C39.6027 156.195 39.8787 156.132 40.1079 156.004C40.3397 155.876 40.5155 155.71 40.6353 155.504C40.7576 155.296 40.8188 155.073 40.8188 154.836V154.062C40.7772 154.104 40.6965 154.143 40.5767 154.18C40.4595 154.214 40.3254 154.243 40.1743 154.27C40.0233 154.293 39.8761 154.315 39.7329 154.336C39.5897 154.354 39.4699 154.37 39.3735 154.383C39.147 154.411 38.9399 154.46 38.7524 154.527C38.5675 154.595 38.4191 154.693 38.3071 154.82C38.1978 154.945 38.1431 155.112 38.1431 155.32C38.1431 155.609 38.2498 155.828 38.4634 155.977C38.6769 156.122 38.9491 156.195 39.2798 156.195ZM48.0386 152.465L46.98 152.652C46.9357 152.517 46.8654 152.388 46.769 152.266C46.6753 152.143 46.5477 152.043 46.3862 151.965C46.2248 151.887 46.0229 151.848 45.7808 151.848C45.45 151.848 45.174 151.922 44.9526 152.07C44.7313 152.216 44.6206 152.405 44.6206 152.637C44.6206 152.837 44.6948 152.999 44.8433 153.121C44.9917 153.243 45.2313 153.344 45.562 153.422L46.5151 153.641C47.0672 153.768 47.4787 153.965 47.7495 154.23C48.0203 154.496 48.1558 154.841 48.1558 155.266C48.1558 155.625 48.0516 155.945 47.8433 156.227C47.6375 156.505 47.3498 156.724 46.98 156.883C46.6128 157.042 46.187 157.121 45.7026 157.121C45.0308 157.121 44.4826 156.978 44.0581 156.691C43.6336 156.402 43.3732 155.992 43.2769 155.461L44.4058 155.289C44.4761 155.583 44.6206 155.806 44.8394 155.957C45.0581 156.105 45.3433 156.18 45.6948 156.18C46.0776 156.18 46.3836 156.1 46.6128 155.941C46.842 155.78 46.9565 155.583 46.9565 155.352C46.9565 155.164 46.8862 155.007 46.7456 154.879C46.6076 154.751 46.3953 154.655 46.1089 154.59L45.0933 154.367C44.5334 154.24 44.1193 154.036 43.8511 153.758C43.5854 153.479 43.4526 153.126 43.4526 152.699C43.4526 152.345 43.5516 152.035 43.7495 151.77C43.9474 151.504 44.2209 151.297 44.5698 151.148C44.9188 150.997 45.3185 150.922 45.769 150.922C46.4175 150.922 46.9279 151.062 47.3003 151.344C47.6727 151.622 47.9188 151.996 48.0386 152.465ZM56.1519 154.512V151H57.3237V157H56.1753V155.961H56.1128C55.9748 156.281 55.7534 156.548 55.4487 156.762C55.1466 156.973 54.7703 157.078 54.3198 157.078C53.9344 157.078 53.5933 156.993 53.2964 156.824C53.0021 156.652 52.7703 156.398 52.6011 156.062C52.4344 155.727 52.3511 155.311 52.3511 154.816V151H53.519V154.676C53.519 155.085 53.6323 155.41 53.8589 155.652C54.0854 155.895 54.3797 156.016 54.7417 156.016C54.9604 156.016 55.1779 155.961 55.394 155.852C55.6128 155.742 55.7938 155.577 55.937 155.355C56.0828 155.134 56.1545 154.853 56.1519 154.512ZM58.8931 157V151H60.0142V151.977H60.0884C60.2134 151.646 60.4178 151.388 60.7017 151.203C60.9855 151.016 61.3254 150.922 61.7212 150.922C62.1222 150.922 62.4582 151.016 62.729 151.203C63.0024 151.391 63.2043 151.648 63.3345 151.977H63.397C63.5402 151.656 63.7681 151.401 64.0806 151.211C64.3931 151.018 64.7655 150.922 65.1978 150.922C65.742 150.922 66.186 151.092 66.5298 151.434C66.8761 151.775 67.0493 152.289 67.0493 152.977V157H65.8813V153.086C65.8813 152.68 65.7707 152.385 65.5493 152.203C65.328 152.021 65.0636 151.93 64.7563 151.93C64.3761 151.93 64.0806 152.047 63.8696 152.281C63.6587 152.513 63.5532 152.811 63.5532 153.176V157H62.3892V153.012C62.3892 152.686 62.2876 152.424 62.0845 152.227C61.8813 152.029 61.617 151.93 61.2915 151.93C61.0701 151.93 60.8657 151.988 60.6782 152.105C60.4933 152.22 60.3436 152.38 60.229 152.586C60.117 152.792 60.061 153.03 60.061 153.301V157H58.8931ZM71.2954 151.5V150.75C71.2954 150.529 71.3371 150.296 71.4204 150.051C71.5037 149.806 71.6196 149.572 71.7681 149.348C71.9165 149.124 72.091 148.932 72.2915 148.773L72.8696 149.187C72.7108 149.419 72.5754 149.661 72.4634 149.914C72.3514 150.167 72.2954 150.441 72.2954 150.738V151.5H71.2954ZM73.2876 151.5V150.75C73.2876 150.529 73.3293 150.296 73.4126 150.051C73.4959 149.806 73.6118 149.572 73.7603 149.348C73.9087 149.124 74.0832 148.932 74.2837 148.773L74.8618 149.187C74.703 149.419 74.5675 149.661 74.4556 149.914C74.3436 150.167 74.2876 150.441 74.2876 150.738V151.5H73.2876ZM80.3228 151.102C80.2811 150.732 80.1092 150.445 79.8071 150.242C79.505 150.036 79.1248 149.934 78.6665 149.934C78.3384 149.934 78.0545 149.986 77.8149 150.09C77.5754 150.191 77.3892 150.332 77.2563 150.512C77.1261 150.689 77.061 150.891 77.061 151.117C77.061 151.307 77.1053 151.471 77.1938 151.609C77.285 151.747 77.4035 151.863 77.5493 151.957C77.6978 152.048 77.8566 152.125 78.0259 152.188C78.1951 152.247 78.3579 152.297 78.5142 152.336L79.2954 152.539C79.5506 152.602 79.8123 152.686 80.0806 152.793C80.3488 152.9 80.5975 153.04 80.8267 153.215C81.0558 153.389 81.2407 153.605 81.3813 153.863C81.5246 154.121 81.5962 154.43 81.5962 154.789C81.5962 155.242 81.479 155.645 81.2446 155.996C81.0129 156.348 80.6756 156.625 80.2329 156.828C79.7928 157.031 79.2603 157.133 78.6353 157.133C78.0363 157.133 77.5181 157.038 77.0806 156.848C76.6431 156.658 76.3006 156.388 76.0532 156.039C75.8058 155.687 75.6691 155.271 75.6431 154.789H76.854C76.8774 155.078 76.9712 155.319 77.1353 155.512C77.3019 155.702 77.5142 155.844 77.772 155.937C78.0324 156.029 78.3175 156.074 78.6274 156.074C78.9686 156.074 79.272 156.021 79.5376 155.914C79.8058 155.805 80.0168 155.654 80.1704 155.461C80.3241 155.266 80.4009 155.038 80.4009 154.777C80.4009 154.54 80.3332 154.346 80.1978 154.195C80.0649 154.044 79.884 153.919 79.6548 153.82C79.4282 153.721 79.1717 153.634 78.8853 153.559L77.9399 153.301C77.2993 153.126 76.7915 152.87 76.4165 152.531C76.0441 152.193 75.8579 151.745 75.8579 151.187C75.8579 150.727 75.9829 150.324 76.2329 149.98C76.4829 149.637 76.8215 149.37 77.2485 149.18C77.6756 148.987 78.1574 148.891 78.6938 148.891C79.2355 148.891 79.7134 148.986 80.1274 149.176C80.5441 149.366 80.8722 149.628 81.1118 149.961C81.3514 150.292 81.4764 150.672 81.4868 151.102H80.3228ZM85.7456 151V151.937H82.4683V151H85.7456ZM83.3472 149.562H84.5151V155.238C84.5151 155.465 84.549 155.635 84.6167 155.75C84.6844 155.862 84.7716 155.939 84.8784 155.98C84.9878 156.02 85.1063 156.039 85.2339 156.039C85.3276 156.039 85.4097 156.033 85.48 156.02C85.5503 156.007 85.605 155.996 85.644 155.988L85.855 156.953C85.7873 156.979 85.6909 157.005 85.5659 157.031C85.4409 157.06 85.2847 157.076 85.0972 157.078C84.7899 157.083 84.5034 157.029 84.2378 156.914C83.9722 156.799 83.7573 156.622 83.5933 156.383C83.4292 156.143 83.3472 155.842 83.3472 155.48V149.562ZM88.7837 157.133C88.4035 157.133 88.0597 157.063 87.7524 156.922C87.4451 156.779 87.2017 156.572 87.022 156.301C86.8449 156.03 86.7563 155.698 86.7563 155.305C86.7563 154.966 86.8215 154.687 86.9517 154.469C87.0819 154.25 87.2576 154.077 87.479 153.949C87.7004 153.822 87.9478 153.725 88.2212 153.66C88.4946 153.595 88.7733 153.546 89.0571 153.512C89.4165 153.47 89.7082 153.436 89.9321 153.41C90.1561 153.382 90.3188 153.336 90.4204 153.273C90.522 153.211 90.5728 153.109 90.5728 152.969V152.941C90.5728 152.6 90.4764 152.336 90.2837 152.148C90.0936 151.961 89.8097 151.867 89.4321 151.867C89.0389 151.867 88.729 151.954 88.5024 152.129C88.2785 152.301 88.1235 152.492 88.0376 152.703L86.9399 152.453C87.0701 152.089 87.2603 151.794 87.5103 151.57C87.7629 151.344 88.0532 151.18 88.3813 151.078C88.7095 150.974 89.0545 150.922 89.4165 150.922C89.6561 150.922 89.91 150.951 90.1782 151.008C90.4491 151.062 90.7017 151.164 90.936 151.312C91.173 151.461 91.367 151.673 91.5181 151.949C91.6691 152.223 91.7446 152.578 91.7446 153.016V157H90.604V156.18H90.5571C90.4816 156.331 90.3683 156.479 90.2173 156.625C90.0662 156.771 89.8722 156.892 89.6353 156.988C89.3983 157.085 89.1144 157.133 88.7837 157.133ZM89.0376 156.195C89.3605 156.195 89.6366 156.132 89.8657 156.004C90.0975 155.876 90.2733 155.71 90.3931 155.504C90.5155 155.296 90.5767 155.073 90.5767 154.836V154.062C90.535 154.104 90.4543 154.143 90.3345 154.18C90.2173 154.214 90.0832 154.243 89.9321 154.27C89.7811 154.293 89.634 154.315 89.4907 154.336C89.3475 154.354 89.2277 154.37 89.1313 154.383C88.9048 154.411 88.6978 154.46 88.5103 154.527C88.3254 154.595 88.1769 154.693 88.0649 154.82C87.9556 154.945 87.9009 155.112 87.9009 155.32C87.9009 155.609 88.0076 155.828 88.2212 155.977C88.4347 156.122 88.7069 156.195 89.0376 156.195ZM96.1011 151V151.937H92.8237V151H96.1011ZM93.7026 149.562H94.8706V155.238C94.8706 155.465 94.9045 155.635 94.9722 155.75C95.0399 155.862 95.1271 155.939 95.2339 155.98C95.3433 156.02 95.4618 156.039 95.5894 156.039C95.6831 156.039 95.7651 156.033 95.8354 156.02C95.9058 156.007 95.9604 155.996 95.9995 155.988L96.2104 156.953C96.1427 156.979 96.0464 157.005 95.9214 157.031C95.7964 157.06 95.6401 157.076 95.4526 157.078C95.1453 157.083 94.8589 157.029 94.5933 156.914C94.3276 156.799 94.1128 156.622 93.9487 156.383C93.7847 156.143 93.7026 155.842 93.7026 155.48V149.562ZM101.194 154.512V151H102.366V157H101.217V155.961H101.155C101.017 156.281 100.795 156.548 100.491 156.762C100.189 156.973 99.8123 157.078 99.3618 157.078C98.9764 157.078 98.6353 156.993 98.3384 156.824C98.0441 156.652 97.8123 156.398 97.6431 156.062C97.4764 155.727 97.3931 155.311 97.3931 154.816V151H98.561V154.676C98.561 155.085 98.6743 155.41 98.9009 155.652C99.1274 155.895 99.4217 156.016 99.7837 156.016C100.002 156.016 100.22 155.961 100.436 155.852C100.655 155.742 100.836 155.577 100.979 155.355C101.125 155.134 101.196 154.853 101.194 154.512ZM108.431 152.465L107.373 152.652C107.328 152.517 107.258 152.388 107.162 152.266C107.068 152.143 106.94 152.043 106.779 151.965C106.617 151.887 106.416 151.848 106.173 151.848C105.843 151.848 105.567 151.922 105.345 152.07C105.124 152.216 105.013 152.405 105.013 152.637C105.013 152.837 105.087 152.999 105.236 153.121C105.384 153.243 105.624 153.344 105.955 153.422L106.908 153.641C107.46 153.768 107.871 153.965 108.142 154.23C108.413 154.496 108.548 154.841 108.548 155.266C108.548 155.625 108.444 155.945 108.236 156.227C108.03 156.505 107.742 156.724 107.373 156.883C107.005 157.042 106.58 157.121 106.095 157.121C105.423 157.121 104.875 156.978 104.451 156.691C104.026 156.402 103.766 155.992 103.669 155.461L104.798 155.289C104.869 155.583 105.013 155.806 105.232 155.957C105.451 156.105 105.736 156.18 106.087 156.18C106.47 156.18 106.776 156.1 107.005 155.941C107.235 155.78 107.349 155.583 107.349 155.352C107.349 155.164 107.279 155.007 107.138 154.879C107 154.751 106.788 154.655 106.501 154.59L105.486 154.367C104.926 154.24 104.512 154.036 104.244 153.758C103.978 153.479 103.845 153.126 103.845 152.699C103.845 152.345 103.944 152.035 104.142 151.77C104.34 151.504 104.613 151.297 104.962 151.148C105.311 150.997 105.711 150.922 106.162 150.922C106.81 150.922 107.32 151.062 107.693 151.344C108.065 151.622 108.311 151.996 108.431 152.465ZM119.482 151.602H118.263C118.216 151.341 118.129 151.112 118.001 150.914C117.874 150.716 117.718 150.548 117.533 150.41C117.348 150.272 117.141 150.168 116.912 150.098C116.685 150.027 116.444 149.992 116.189 149.992C115.728 149.992 115.315 150.108 114.951 150.34C114.589 150.572 114.302 150.911 114.091 151.359C113.883 151.807 113.779 152.354 113.779 153C113.779 153.651 113.883 154.201 114.091 154.648C114.302 155.096 114.59 155.435 114.955 155.664C115.319 155.893 115.729 156.008 116.185 156.008C116.438 156.008 116.677 155.974 116.904 155.906C117.133 155.836 117.34 155.733 117.525 155.598C117.71 155.462 117.866 155.297 117.994 155.102C118.124 154.904 118.214 154.677 118.263 154.422L119.482 154.426C119.417 154.819 119.291 155.181 119.103 155.512C118.918 155.84 118.68 156.124 118.388 156.363C118.099 156.6 117.768 156.784 117.396 156.914C117.024 157.044 116.617 157.109 116.177 157.109C115.485 157.109 114.867 156.945 114.326 156.617C113.784 156.286 113.357 155.814 113.044 155.199C112.735 154.585 112.58 153.852 112.58 153C112.58 152.146 112.736 151.413 113.048 150.801C113.361 150.186 113.788 149.715 114.33 149.387C114.871 149.056 115.487 148.891 116.177 148.891C116.602 148.891 116.998 148.952 117.365 149.074C117.735 149.194 118.067 149.371 118.361 149.605C118.655 149.837 118.899 150.121 119.091 150.457C119.284 150.79 119.414 151.172 119.482 151.602ZM123.36 157.121C122.797 157.121 122.306 156.992 121.887 156.734C121.468 156.477 121.142 156.116 120.911 155.652C120.679 155.189 120.563 154.647 120.563 154.027C120.563 153.405 120.679 152.861 120.911 152.395C121.142 151.928 121.468 151.566 121.887 151.309C122.306 151.051 122.797 150.922 123.36 150.922C123.922 150.922 124.413 151.051 124.833 151.309C125.252 151.566 125.577 151.928 125.809 152.395C126.041 152.861 126.157 153.405 126.157 154.027C126.157 154.647 126.041 155.189 125.809 155.652C125.577 156.116 125.252 156.477 124.833 156.734C124.413 156.992 123.922 157.121 123.36 157.121ZM123.364 156.141C123.728 156.141 124.03 156.044 124.27 155.852C124.51 155.659 124.687 155.402 124.801 155.082C124.918 154.762 124.977 154.409 124.977 154.023C124.977 153.641 124.918 153.289 124.801 152.969C124.687 152.646 124.51 152.387 124.27 152.191C124.03 151.996 123.728 151.898 123.364 151.898C122.997 151.898 122.692 151.996 122.45 152.191C122.21 152.387 122.032 152.646 121.915 152.969C121.8 153.289 121.743 153.641 121.743 154.023C121.743 154.409 121.8 154.762 121.915 155.082C122.032 155.402 122.21 155.659 122.45 155.852C122.692 156.044 122.997 156.141 123.364 156.141ZM129.707 157.117C129.222 157.117 128.79 156.993 128.41 156.746C128.032 156.496 127.735 156.141 127.519 155.68C127.306 155.216 127.199 154.66 127.199 154.012C127.199 153.363 127.307 152.809 127.523 152.348C127.742 151.887 128.041 151.534 128.421 151.289C128.802 151.044 129.233 150.922 129.714 150.922C130.087 150.922 130.386 150.984 130.613 151.109C130.842 151.232 131.019 151.375 131.144 151.539C131.272 151.703 131.371 151.848 131.441 151.973H131.511V149H132.679V157H131.539V156.066H131.441C131.371 156.194 131.269 156.34 131.136 156.504C131.006 156.668 130.826 156.811 130.597 156.934C130.368 157.056 130.071 157.117 129.707 157.117ZM129.964 156.121C130.3 156.121 130.584 156.033 130.816 155.855C131.05 155.676 131.227 155.427 131.347 155.109C131.47 154.792 131.531 154.422 131.531 154C131.531 153.583 131.471 153.219 131.351 152.906C131.231 152.594 131.056 152.35 130.824 152.176C130.592 152.001 130.306 151.914 129.964 151.914C129.613 151.914 129.32 152.005 129.085 152.188C128.851 152.37 128.674 152.618 128.554 152.934C128.437 153.249 128.378 153.604 128.378 154C128.378 154.401 128.438 154.762 128.558 155.082C128.678 155.402 128.855 155.656 129.089 155.844C129.326 156.029 129.618 156.121 129.964 156.121ZM136.932 157.121C136.341 157.121 135.832 156.995 135.405 156.742C134.98 156.487 134.652 156.129 134.42 155.668C134.191 155.204 134.077 154.661 134.077 154.039C134.077 153.424 134.191 152.883 134.42 152.414C134.652 151.945 134.975 151.579 135.389 151.316C135.806 151.053 136.293 150.922 136.85 150.922C137.189 150.922 137.517 150.978 137.834 151.09C138.152 151.202 138.437 151.378 138.69 151.617C138.943 151.857 139.142 152.168 139.288 152.551C139.433 152.931 139.506 153.393 139.506 153.937V154.352H134.737V153.477H138.362C138.362 153.169 138.299 152.897 138.174 152.66C138.049 152.421 137.874 152.232 137.647 152.094C137.423 151.956 137.16 151.887 136.858 151.887C136.53 151.887 136.243 151.967 135.999 152.129C135.756 152.288 135.569 152.496 135.436 152.754C135.306 153.009 135.241 153.286 135.241 153.586V154.27C135.241 154.671 135.311 155.012 135.452 155.293C135.595 155.574 135.794 155.789 136.049 155.937C136.305 156.083 136.603 156.156 136.944 156.156C137.165 156.156 137.367 156.125 137.549 156.062C137.732 155.997 137.889 155.901 138.022 155.773C138.155 155.646 138.256 155.488 138.327 155.301L139.432 155.5C139.344 155.826 139.185 156.111 138.956 156.355C138.729 156.598 138.444 156.786 138.1 156.922C137.759 157.055 137.37 157.121 136.932 157.121ZM141.806 149V149.75C141.806 149.971 141.764 150.204 141.681 150.449C141.6 150.691 141.486 150.924 141.337 151.148C141.189 151.372 141.014 151.565 140.814 151.727L140.236 151.312C140.389 151.089 140.522 150.85 140.634 150.598C140.749 150.345 140.806 150.066 140.806 149.762V149H141.806ZM143.794 149V149.75C143.794 149.971 143.753 150.204 143.669 150.449C143.589 150.691 143.474 150.924 143.326 151.148C143.177 151.372 143.003 151.565 142.802 151.727L142.224 151.312C142.378 151.089 142.511 150.85 142.623 150.598C142.737 150.345 142.794 150.066 142.794 149.762V149H143.794ZM148.053 159.25V151H149.194V151.973H149.292C149.359 151.848 149.457 151.703 149.584 151.539C149.712 151.375 149.889 151.232 150.116 151.109C150.342 150.984 150.642 150.922 151.014 150.922C151.499 150.922 151.931 151.044 152.311 151.289C152.691 151.534 152.989 151.887 153.206 152.348C153.424 152.809 153.534 153.363 153.534 154.012C153.534 154.66 153.426 155.216 153.209 155.68C152.993 156.141 152.696 156.496 152.319 156.746C151.941 156.993 151.51 157.117 151.026 157.117C150.661 157.117 150.363 157.056 150.131 156.934C149.902 156.811 149.722 156.668 149.592 156.504C149.462 156.34 149.362 156.194 149.292 156.066H149.221V159.25H148.053ZM149.198 154C149.198 154.422 149.259 154.792 149.381 155.109C149.504 155.427 149.681 155.676 149.913 155.855C150.144 156.033 150.428 156.121 150.764 156.121C151.113 156.121 151.405 156.029 151.639 155.844C151.874 155.656 152.051 155.402 152.17 155.082C152.293 154.762 152.354 154.401 152.354 154C152.354 153.604 152.294 153.249 152.174 152.934C152.057 152.618 151.88 152.37 151.643 152.188C151.409 152.005 151.116 151.914 150.764 151.914C150.426 151.914 150.139 152.001 149.905 152.176C149.673 152.35 149.497 152.594 149.377 152.906C149.258 153.219 149.198 153.583 149.198 154ZM157.37 157.121C156.807 157.121 156.316 156.992 155.897 156.734C155.478 156.477 155.152 156.116 154.92 155.652C154.689 155.189 154.573 154.647 154.573 154.027C154.573 153.405 154.689 152.861 154.92 152.395C155.152 151.928 155.478 151.566 155.897 151.309C156.316 151.051 156.807 150.922 157.37 150.922C157.932 150.922 158.423 151.051 158.842 151.309C159.262 151.566 159.587 151.928 159.819 152.395C160.051 152.861 160.167 153.405 160.167 154.027C160.167 154.647 160.051 155.189 159.819 155.652C159.587 156.116 159.262 156.477 158.842 156.734C158.423 156.992 157.932 157.121 157.37 157.121ZM157.374 156.141C157.738 156.141 158.04 156.044 158.28 155.852C158.519 155.659 158.696 155.402 158.811 155.082C158.928 154.762 158.987 154.409 158.987 154.023C158.987 153.641 158.928 153.289 158.811 152.969C158.696 152.646 158.519 152.387 158.28 152.191C158.04 151.996 157.738 151.898 157.374 151.898C157.006 151.898 156.702 151.996 156.459 152.191C156.22 152.387 156.042 152.646 155.924 152.969C155.81 153.289 155.752 153.641 155.752 154.023C155.752 154.409 155.81 154.762 155.924 155.082C156.042 155.402 156.22 155.659 156.459 155.852C156.702 156.044 157.006 156.141 157.374 156.141ZM163.716 157.117C163.232 157.117 162.8 156.993 162.419 156.746C162.042 156.496 161.745 156.141 161.529 155.68C161.315 155.216 161.208 154.66 161.208 154.012C161.208 153.363 161.317 152.809 161.533 152.348C161.751 151.887 162.051 151.534 162.431 151.289C162.811 151.044 163.242 150.922 163.724 150.922C164.097 150.922 164.396 150.984 164.623 151.109C164.852 151.232 165.029 151.375 165.154 151.539C165.281 151.703 165.38 151.848 165.451 151.973H165.521V149H166.689V157H165.548V156.066H165.451C165.38 156.194 165.279 156.34 165.146 156.504C165.016 156.668 164.836 156.811 164.607 156.934C164.378 157.056 164.081 157.117 163.716 157.117ZM163.974 156.121C164.31 156.121 164.594 156.033 164.826 155.855C165.06 155.676 165.237 155.427 165.357 155.109C165.479 154.792 165.541 154.422 165.541 154C165.541 153.583 165.481 153.219 165.361 152.906C165.241 152.594 165.065 152.35 164.833 152.176C164.602 152.001 164.315 151.914 163.974 151.914C163.623 151.914 163.33 152.005 163.095 152.188C162.861 152.37 162.684 152.618 162.564 152.934C162.447 153.249 162.388 153.604 162.388 154C162.388 154.401 162.448 154.762 162.568 155.082C162.688 155.402 162.865 155.656 163.099 155.844C163.336 156.029 163.628 156.121 163.974 156.121ZM170.942 157.121C170.351 157.121 169.842 156.995 169.415 156.742C168.99 156.487 168.662 156.129 168.43 155.668C168.201 155.204 168.086 154.661 168.086 154.039C168.086 153.424 168.201 152.883 168.43 152.414C168.662 151.945 168.985 151.579 169.399 151.316C169.816 151.053 170.303 150.922 170.86 150.922C171.198 150.922 171.527 150.978 171.844 151.09C172.162 151.202 172.447 151.378 172.7 151.617C172.952 151.857 173.152 152.168 173.297 152.551C173.443 152.931 173.516 153.393 173.516 153.937V154.352H168.747V153.477H172.372C172.372 153.169 172.309 152.897 172.184 152.66C172.059 152.421 171.883 152.232 171.657 152.094C171.433 151.956 171.17 151.887 170.868 151.887C170.54 151.887 170.253 151.967 170.008 152.129C169.766 152.288 169.579 152.496 169.446 152.754C169.316 153.009 169.25 153.286 169.25 153.586V154.27C169.25 154.671 169.321 155.012 169.461 155.293C169.605 155.574 169.804 155.789 170.059 155.937C170.314 156.083 170.612 156.156 170.954 156.156C171.175 156.156 171.377 156.125 171.559 156.062C171.741 155.997 171.899 155.901 172.032 155.773C172.165 155.646 172.266 155.488 172.336 155.301L173.442 155.5C173.353 155.826 173.194 156.111 172.965 156.355C172.739 156.598 172.454 156.786 172.11 156.922C171.769 157.055 171.379 157.121 170.942 157.121ZM42.9414 165.465L41.8828 165.652C41.8385 165.517 41.7682 165.388 41.6719 165.266C41.5781 165.143 41.4505 165.043 41.2891 164.965C41.1276 164.887 40.9258 164.848 40.6836 164.848C40.3529 164.848 40.0768 164.922 39.8555 165.07C39.6341 165.216 39.5234 165.405 39.5234 165.637C39.5234 165.837 39.5977 165.999 39.7461 166.121C39.8945 166.243 40.1341 166.344 40.4648 166.422L41.418 166.641C41.9701 166.768 42.3815 166.965 42.6523 167.23C42.9232 167.496 43.0586 167.841 43.0586 168.266C43.0586 168.625 42.9544 168.945 42.7461 169.227C42.5404 169.505 42.2526 169.724 41.8828 169.883C41.5156 170.042 41.0898 170.121 40.6055 170.121C39.9336 170.121 39.3854 169.978 38.9609 169.691C38.5365 169.402 38.276 168.992 38.1797 168.461L39.3086 168.289C39.3789 168.583 39.5234 168.806 39.7422 168.957C39.9609 169.105 40.2461 169.18 40.5977 169.18C40.9805 169.18 41.2865 169.1 41.5156 168.941C41.7448 168.78 41.8594 168.583 41.8594 168.352C41.8594 168.164 41.7891 168.007 41.6484 167.879C41.5104 167.751 41.2982 167.655 41.0117 167.59L39.9961 167.367C39.4362 167.24 39.0221 167.036 38.7539 166.758C38.4883 166.479 38.3555 166.126 38.3555 165.699C38.3555 165.345 38.4544 165.035 38.6523 164.77C38.8503 164.504 39.1237 164.297 39.4727 164.148C39.8216 163.997 40.2214 163.922 40.6719 163.922C41.3203 163.922 41.8307 164.062 42.2031 164.344C42.5755 164.622 42.8216 164.996 42.9414 165.465ZM46.9287 170.121C46.3376 170.121 45.8285 169.995 45.4014 169.742C44.9769 169.487 44.6488 169.129 44.417 168.668C44.1878 168.204 44.0732 167.661 44.0732 167.039C44.0732 166.424 44.1878 165.883 44.417 165.414C44.6488 164.945 44.9717 164.579 45.3857 164.316C45.8024 164.053 46.2894 163.922 46.8467 163.922C47.1852 163.922 47.5133 163.978 47.8311 164.09C48.1488 164.202 48.4339 164.378 48.6865 164.617C48.9391 164.857 49.1383 165.168 49.2842 165.551C49.43 165.931 49.5029 166.393 49.5029 166.937V167.352H44.7334V166.477H48.3584C48.3584 166.169 48.2959 165.897 48.1709 165.66C48.0459 165.421 47.8701 165.232 47.6436 165.094C47.4196 164.956 47.1566 164.887 46.8545 164.887C46.5264 164.887 46.2399 164.967 45.9951 165.129C45.7529 165.288 45.5654 165.496 45.4326 165.754C45.3024 166.009 45.2373 166.286 45.2373 166.586V167.27C45.2373 167.671 45.3076 168.012 45.4482 168.293C45.5915 168.574 45.7907 168.789 46.0459 168.937C46.3011 169.083 46.5993 169.156 46.9404 169.156C47.1618 169.156 47.3636 169.125 47.5459 169.062C47.7282 168.997 47.8857 168.901 48.0186 168.773C48.1514 168.646 48.2529 168.488 48.3232 168.301L49.4287 168.5C49.3402 168.826 49.1813 169.111 48.9521 169.355C48.7256 169.598 48.4404 169.786 48.0967 169.922C47.7555 170.055 47.3662 170.121 46.9287 170.121ZM50.7988 170V164H51.9277V164.953H51.9902C52.0996 164.63 52.2923 164.376 52.5684 164.191C52.847 164.004 53.1621 163.91 53.5137 163.91C53.5866 163.91 53.6725 163.913 53.7715 163.918C53.873 163.923 53.9525 163.93 54.0098 163.937V165.055C53.9629 165.042 53.8796 165.027 53.7598 165.012C53.64 164.993 53.5202 164.984 53.4004 164.984C53.1243 164.984 52.8783 165.043 52.6621 165.16C52.4486 165.275 52.2793 165.435 52.1543 165.641C52.0293 165.844 51.9668 166.076 51.9668 166.336V170H50.7988ZM60.4473 172.375C59.9707 172.375 59.5605 172.313 59.2168 172.188C58.8757 172.063 58.597 171.897 58.3809 171.691C58.1647 171.486 58.0033 171.26 57.8965 171.016L58.9004 170.602C58.9707 170.716 59.0645 170.837 59.1816 170.965C59.3014 171.095 59.4629 171.206 59.666 171.297C59.8717 171.388 60.1361 171.434 60.459 171.434C60.9017 171.434 61.2676 171.326 61.5566 171.109C61.8457 170.896 61.9902 170.555 61.9902 170.086V168.906H61.916C61.8457 169.034 61.7441 169.176 61.6113 169.332C61.4811 169.488 61.3014 169.624 61.0723 169.738C60.8431 169.853 60.5449 169.91 60.1777 169.91C59.7038 169.91 59.2767 169.799 58.8965 169.578C58.5189 169.354 58.2194 169.025 57.998 168.59C57.7793 168.152 57.6699 167.615 57.6699 166.977C57.6699 166.339 57.778 165.792 57.9941 165.336C58.2129 164.88 58.5124 164.531 58.8926 164.289C59.2728 164.044 59.7038 163.922 60.1855 163.922C60.5579 163.922 60.8587 163.984 61.0879 164.109C61.3171 164.232 61.4954 164.375 61.623 164.539C61.7533 164.703 61.8535 164.848 61.9238 164.973H62.0098V164H63.1543V170.133C63.1543 170.648 63.0345 171.072 62.7949 171.402C62.5553 171.733 62.2311 171.978 61.8223 172.137C61.416 172.296 60.9577 172.375 60.4473 172.375ZM60.4355 168.941C60.7715 168.941 61.0553 168.863 61.2871 168.707C61.5215 168.548 61.6986 168.322 61.8184 168.027C61.9408 167.73 62.002 167.375 62.002 166.961C62.002 166.557 61.9421 166.202 61.8223 165.895C61.7025 165.587 61.5267 165.348 61.2949 165.176C61.0632 165.001 60.7767 164.914 60.4355 164.914C60.084 164.914 59.791 165.005 59.5566 165.188C59.3223 165.367 59.1452 165.612 59.0254 165.922C58.9082 166.232 58.8496 166.578 58.8496 166.961C58.8496 167.354 58.9095 167.699 59.0293 167.996C59.1491 168.293 59.3262 168.525 59.5605 168.691C59.7975 168.858 60.0892 168.941 60.4355 168.941ZM67.3066 170.121C66.7155 170.121 66.2064 169.995 65.7793 169.742C65.3548 169.487 65.0267 169.129 64.7949 168.668C64.5658 168.204 64.4512 167.661 64.4512 167.039C64.4512 166.424 64.5658 165.883 64.7949 165.414C65.0267 164.945 65.3496 164.579 65.7637 164.316C66.1803 164.053 66.6673 163.922 67.2246 163.922C67.5632 163.922 67.8913 163.978 68.209 164.09C68.5267 164.202 68.8118 164.378 69.0645 164.617C69.3171 164.857 69.5163 165.168 69.6621 165.551C69.8079 165.931 69.8809 166.393 69.8809 166.937V167.352H65.1113V166.477H68.7363C68.7363 166.169 68.6738 165.897 68.5488 165.66C68.4238 165.421 68.248 165.232 68.0215 165.094C67.7975 164.956 67.5345 164.887 67.2324 164.887C66.9043 164.887 66.6178 164.967 66.373 165.129C66.1309 165.288 65.9434 165.496 65.8105 165.754C65.6803 166.009 65.6152 166.286 65.6152 166.586V167.27C65.6152 167.671 65.6855 168.012 65.8262 168.293C65.9694 168.574 66.1686 168.789 66.4238 168.937C66.679 169.083 66.9772 169.156 67.3184 169.156C67.5397 169.156 67.7415 169.125 67.9238 169.062C68.1061 168.997 68.2637 168.901 68.3965 168.773C68.5293 168.646 68.6309 168.488 68.7012 168.301L69.8066 168.5C69.7181 168.826 69.5592 169.111 69.3301 169.355C69.1035 169.598 68.8184 169.786 68.4746 169.922C68.1335 170.055 67.7441 170.121 67.3066 170.121ZM71.1768 170V164H72.3057V164.953H72.3682C72.4775 164.63 72.6702 164.376 72.9463 164.191C73.2249 164.004 73.54 163.91 73.8916 163.91C73.9645 163.91 74.0505 163.913 74.1494 163.918C74.251 163.923 74.3304 163.93 74.3877 163.937V165.055C74.3408 165.042 74.2575 165.027 74.1377 165.012C74.0179 164.993 73.8981 164.984 73.7783 164.984C73.5023 164.984 73.2562 165.043 73.04 165.16C72.8265 165.275 72.6572 165.435 72.5322 165.641C72.4072 165.844 72.3447 166.076 72.3447 166.336V170H71.1768ZM77.0908 170.133C76.7106 170.133 76.3669 170.063 76.0596 169.922C75.7523 169.779 75.5088 169.572 75.3291 169.301C75.152 169.03 75.0635 168.698 75.0635 168.305C75.0635 167.966 75.1286 167.687 75.2588 167.469C75.389 167.25 75.5648 167.077 75.7861 166.949C76.0075 166.822 76.2549 166.725 76.5283 166.66C76.8018 166.595 77.0804 166.546 77.3643 166.512C77.7236 166.47 78.0153 166.436 78.2393 166.41C78.4632 166.382 78.626 166.336 78.7275 166.273C78.8291 166.211 78.8799 166.109 78.8799 165.969V165.941C78.8799 165.6 78.7835 165.336 78.5908 165.148C78.4007 164.961 78.1169 164.867 77.7393 164.867C77.346 164.867 77.0361 164.954 76.8096 165.129C76.5856 165.301 76.4307 165.492 76.3447 165.703L75.2471 165.453C75.3773 165.089 75.5674 164.794 75.8174 164.57C76.07 164.344 76.3604 164.18 76.6885 164.078C77.0166 163.974 77.3617 163.922 77.7236 163.922C77.9632 163.922 78.2171 163.951 78.4854 164.008C78.7562 164.062 79.0088 164.164 79.2432 164.312C79.4801 164.461 79.6742 164.673 79.8252 164.949C79.9762 165.223 80.0518 165.578 80.0518 166.016V170H78.9111V169.18H78.8643C78.7887 169.331 78.6755 169.479 78.5244 169.625C78.3734 169.771 78.1794 169.892 77.9424 169.988C77.7054 170.085 77.4215 170.133 77.0908 170.133ZM77.3447 169.195C77.6676 169.195 77.9437 169.132 78.1729 169.004C78.4046 168.876 78.5804 168.71 78.7002 168.504C78.8226 168.296 78.8838 168.073 78.8838 167.836V167.062C78.8421 167.104 78.7614 167.143 78.6416 167.18C78.5244 167.214 78.3903 167.243 78.2393 167.27C78.0882 167.293 77.9411 167.315 77.7979 167.336C77.6546 167.354 77.5348 167.37 77.4385 167.383C77.2119 167.411 77.0049 167.46 76.8174 167.527C76.6325 167.595 76.484 167.693 76.3721 167.82C76.2627 167.945 76.208 168.112 76.208 168.32C76.208 168.609 76.3148 168.828 76.5283 168.977C76.7419 169.122 77.014 169.195 77.3447 169.195ZM83.8535 170.117C83.3691 170.117 82.9368 169.993 82.5566 169.746C82.179 169.496 81.8822 169.141 81.666 168.68C81.4525 168.216 81.3457 167.66 81.3457 167.012C81.3457 166.363 81.4538 165.809 81.6699 165.348C81.8887 164.887 82.1882 164.534 82.5684 164.289C82.9486 164.044 83.3796 163.922 83.8613 163.922C84.2337 163.922 84.5332 163.984 84.7598 164.109C84.9889 164.232 85.166 164.375 85.291 164.539C85.4186 164.703 85.5176 164.848 85.5879 164.973H85.6582V162H86.8262V170H85.6855V169.066H85.5879C85.5176 169.194 85.416 169.34 85.2832 169.504C85.153 169.668 84.9733 169.811 84.7441 169.934C84.515 170.056 84.2181 170.117 83.8535 170.117ZM84.1113 169.121C84.4473 169.121 84.7311 169.033 84.9629 168.855C85.1973 168.676 85.3743 168.427 85.4941 168.109C85.6165 167.792 85.6777 167.422 85.6777 167C85.6777 166.583 85.6178 166.219 85.498 165.906C85.3783 165.594 85.2025 165.35 84.9707 165.176C84.7389 165.001 84.4525 164.914 84.1113 164.914C83.7598 164.914 83.4668 165.005 83.2324 165.188C82.998 165.37 82.821 165.618 82.7012 165.934C82.584 166.249 82.5254 166.604 82.5254 167C82.5254 167.401 82.5853 167.762 82.7051 168.082C82.8249 168.402 83.002 168.656 83.2363 168.844C83.4733 169.029 83.765 169.121 84.1113 169.121ZM91.0205 170.121C90.458 170.121 89.9671 169.992 89.5479 169.734C89.1286 169.477 88.8031 169.116 88.5713 168.652C88.3395 168.189 88.2236 167.647 88.2236 167.027C88.2236 166.405 88.3395 165.861 88.5713 165.395C88.8031 164.928 89.1286 164.566 89.5479 164.309C89.9671 164.051 90.458 163.922 91.0205 163.922C91.583 163.922 92.0739 164.051 92.4932 164.309C92.9124 164.566 93.238 164.928 93.4697 165.395C93.7015 165.861 93.8174 166.405 93.8174 167.027C93.8174 167.647 93.7015 168.189 93.4697 168.652C93.238 169.116 92.9124 169.477 92.4932 169.734C92.0739 169.992 91.583 170.121 91.0205 170.121ZM91.0244 169.141C91.389 169.141 91.6911 169.044 91.9307 168.852C92.1702 168.659 92.3473 168.402 92.4619 168.082C92.5791 167.762 92.6377 167.409 92.6377 167.023C92.6377 166.641 92.5791 166.289 92.4619 165.969C92.3473 165.646 92.1702 165.387 91.9307 165.191C91.6911 164.996 91.389 164.898 91.0244 164.898C90.6572 164.898 90.3525 164.996 90.1104 165.191C89.8708 165.387 89.6924 165.646 89.5752 165.969C89.4606 166.289 89.4033 166.641 89.4033 167.023C89.4033 167.409 89.4606 167.762 89.5752 168.082C89.6924 168.402 89.8708 168.659 90.1104 168.852C90.3525 169.044 90.6572 169.141 91.0244 169.141ZM98.0322 172.25V164H99.1729V164.973H99.2705C99.3382 164.848 99.4359 164.703 99.5635 164.539C99.6911 164.375 99.8682 164.232 100.095 164.109C100.321 163.984 100.621 163.922 100.993 163.922C101.478 163.922 101.91 164.044 102.29 164.289C102.67 164.534 102.968 164.887 103.185 165.348C103.403 165.809 103.513 166.363 103.513 167.012C103.513 167.66 103.405 168.216 103.188 168.68C102.972 169.141 102.675 169.496 102.298 169.746C101.92 169.993 101.489 170.117 101.005 170.117C100.64 170.117 100.342 170.056 100.11 169.934C99.8812 169.811 99.7015 169.668 99.5713 169.504C99.4411 169.34 99.3408 169.194 99.2705 169.066H99.2002V172.25H98.0322ZM99.1768 167C99.1768 167.422 99.238 167.792 99.3604 168.109C99.4827 168.427 99.6598 168.676 99.8916 168.855C100.123 169.033 100.407 169.121 100.743 169.121C101.092 169.121 101.384 169.029 101.618 168.844C101.853 168.656 102.03 168.402 102.149 168.082C102.272 167.762 102.333 167.401 102.333 167C102.333 166.604 102.273 166.249 102.153 165.934C102.036 165.618 101.859 165.37 101.622 165.188C101.388 165.005 101.095 164.914 100.743 164.914C100.405 164.914 100.118 165.001 99.8838 165.176C99.652 165.35 99.4762 165.594 99.3564 165.906C99.2367 166.219 99.1768 166.583 99.1768 167ZM107.349 170.121C106.786 170.121 106.295 169.992 105.876 169.734C105.457 169.477 105.131 169.116 104.899 168.652C104.668 168.189 104.552 167.647 104.552 167.027C104.552 166.405 104.668 165.861 104.899 165.395C105.131 164.928 105.457 164.566 105.876 164.309C106.295 164.051 106.786 163.922 107.349 163.922C107.911 163.922 108.402 164.051 108.821 164.309C109.241 164.566 109.566 164.928 109.798 165.395C110.03 165.861 110.146 166.405 110.146 167.027C110.146 167.647 110.03 168.189 109.798 168.652C109.566 169.116 109.241 169.477 108.821 169.734C108.402 169.992 107.911 170.121 107.349 170.121ZM107.353 169.141C107.717 169.141 108.019 169.044 108.259 168.852C108.498 168.659 108.675 168.402 108.79 168.082C108.907 167.762 108.966 167.409 108.966 167.023C108.966 166.641 108.907 166.289 108.79 165.969C108.675 165.646 108.498 165.387 108.259 165.191C108.019 164.996 107.717 164.898 107.353 164.898C106.985 164.898 106.681 164.996 106.438 165.191C106.199 165.387 106.021 165.646 105.903 165.969C105.789 166.289 105.731 166.641 105.731 167.023C105.731 167.409 105.789 167.762 105.903 168.082C106.021 168.402 106.199 168.659 106.438 168.852C106.681 169.044 106.985 169.141 107.353 169.141ZM111.449 170V164H112.578V164.953H112.641C112.75 164.63 112.943 164.376 113.219 164.191C113.497 164.004 113.813 163.91 114.164 163.91C114.237 163.91 114.323 163.913 114.422 163.918C114.523 163.923 114.603 163.93 114.66 163.937V165.055C114.613 165.042 114.53 165.027 114.41 165.012C114.29 164.993 114.171 164.984 114.051 164.984C113.775 164.984 113.529 165.043 113.313 165.16C113.099 165.275 112.93 165.435 112.805 165.641C112.68 165.844 112.617 166.076 112.617 166.336V170H111.449ZM118.676 170V162H119.883V168.961H123.508V170H118.676ZM124.791 170V164H125.959V170H124.791ZM125.381 163.074C125.178 163.074 125.003 163.007 124.857 162.871C124.714 162.733 124.643 162.569 124.643 162.379C124.643 162.186 124.714 162.022 124.857 161.887C125.003 161.749 125.178 161.68 125.381 161.68C125.584 161.68 125.757 161.749 125.9 161.887C126.046 162.022 126.119 162.186 126.119 162.379C126.119 162.569 126.046 162.733 125.9 162.871C125.757 163.007 125.584 163.074 125.381 163.074ZM128.698 166.437V170H127.53V164H128.651V164.977H128.726C128.864 164.659 129.08 164.404 129.374 164.211C129.671 164.018 130.045 163.922 130.495 163.922C130.904 163.922 131.262 164.008 131.569 164.18C131.877 164.349 132.115 164.602 132.284 164.937C132.453 165.273 132.538 165.689 132.538 166.184V170H131.37V166.324C131.37 165.889 131.257 165.549 131.03 165.305C130.804 165.057 130.493 164.934 130.097 164.934C129.826 164.934 129.585 164.992 129.374 165.109C129.166 165.227 129 165.398 128.878 165.625C128.758 165.849 128.698 166.12 128.698 166.437ZM135.179 167.965L135.171 166.539H135.374L137.765 164H139.163L136.437 166.891H136.253L135.179 167.965ZM134.104 170V162H135.272V170H134.104ZM137.894 170L135.745 167.148L136.55 166.332L139.327 170H137.894ZM140.997 170.074C140.784 170.074 140.6 169.999 140.446 169.848C140.293 169.694 140.216 169.509 140.216 169.293C140.216 169.079 140.293 168.897 140.446 168.746C140.6 168.592 140.784 168.516 140.997 168.516C141.211 168.516 141.394 168.592 141.548 168.746C141.701 168.897 141.778 169.079 141.778 169.293C141.778 169.436 141.742 169.568 141.669 169.687C141.599 169.805 141.505 169.898 141.388 169.969C141.271 170.039 141.14 170.074 140.997 170.074Z" fill="white"/>
</g>
<defs>
<filter id="filter0_f_374_64" x="-452" y="-166" width="1086" height="893" filterUnits="userSpaceOnUse" color-interpolation-filters="sRGB">
<feFlood flood-opacity="0" result="BackgroundImageFix"/>
<feBlend mode="normal" in="SourceGraphic" in2="BackgroundImageFix" result="shape"/>
<feGaussianBlur stdDeviation="150" result="effect1_foregroundBlur_374_64"/>
</filter>
<linearGradient id="paint0_linear_374_64" x1="90.8817" y1="-6.38391e-09" x2="90.6141" y2="227.998" gradientUnits="userSpaceOnUse">
<stop stop-color="white" stop-opacity="0.25"/>
<stop offset="1" stop-color="#FC5D20" stop-opacity="0.2"/>
</linearGradient>
<linearGradient id="paint1_linear_374_64" x1="77.5126" y1="55.3267" x2="119.765" y2="298.052" gradientUnits="userSpaceOnUse">
<stop stop-color="white" stop-opacity="0.8"/>
<stop offset="1" stop-color="white" stop-opacity="0.5"/>
</linearGradient>
<linearGradient id="paint2_linear_374_64" x1="91.5" y1="32" x2="91.5" y2="108" gradientUnits="userSpaceOnUse">
<stop stop-color="white"/>
<stop offset="1" stop-color="#FF9D6C"/>
</linearGradient>
<clipPath id="clip0_374_64">
<rect width="182" height="228" rx="20" fill="white"/>
</clipPath>
</defs>
</svg>
